<?xml version="1.0" encoding="UTF-8"?><svg id="Layer_2" xmlns="http://www.w3.org/2000/svg" viewBox="0 0 260.35 664.51"><defs><style>.cls-1{fill:#030303;}.cls-2{fill:#060606;}.cls-3{fill:#020202;}.cls-4{fill:#020302;}.cls-5{fill:#696666;}.cls-6{fill:#676463;}.cls-7{fill:#6a6969;}.cls-8{fill:#fed93b;}.cls-9{fill:#a19e9e;}.cls-10{fill:#c39a6c;}.cls-11{fill:#909294;}.cls-12{fill:#b3b2b2;}.cls-13{fill:#c1c3c5;}.cls-14{fill:#302e2f;}.cls-15{fill:#302d2b;}.cls-16{fill:#333233;}.cls-17{fill:#333132;}.cls-18{fill:#8c919d;}.cls-19{fill:#a6a6a6;}.cls-20{fill:#aaa7a7;}.cls-21{fill:#c0bfbf;}.cls-22{fill:#c49a6c;}.cls-23{fill:#dcdada;}.cls-24{fill:#dad9d9;}.cls-25{fill:#d9d9d8;}.cls-26{fill:#c6c5c4;}.cls-27{fill:#121c30;}.cls-28{fill:#252122;}.cls-29{fill:#1e1d1c;}.cls-30{fill:#202227;}.cls-31{fill:#07080b;}.cls-32{fill:#141d33;}.cls-33{fill:#0d0c0b;}.cls-34{fill:#1d1f24;}.cls-35{fill:#424243;}.cls-36{fill:#36322e;}.cls-37{fill:#3e3e3f;}.cls-38{fill:#a29f9f;}.cls-39{fill:#534d47;}.cls-40{fill:#646567;}.cls-41{fill:#5b5a5a;}.cls-42{fill:#262323;}.cls-43{fill:#262324;}.cls-44{fill:#343334;}.cls-45{fill:#272d3d;}.cls-46{fill:#3c3c3f;}.cls-47{fill:#616161;}.cls-48{fill:#5d5853;}.cls-49{fill:#31343c;}.cls-50{fill:#312f2c;}.cls-51{fill:#262223;}</style></defs><g id="Layer_1-2"><g><path class="cls-3" d="M130.77,0c1.88,1.14,3.96,1.07,6.03,.99,1.2-.04,2.38,0,3.58,.1,2.19,.19,3.56,1.52,4.56,3.26,.95,1.65,1.97,3.33,2.53,5.13,1.39,4.47,2.94,8.92,2.98,13.7,.02,2.52,.67,4.97,1.01,7.46,.23,1.7-.03,3.35-.08,5.02-.04,1.44,.09,2.81,.58,4.22,.41,1.16,.27,2.52,.37,3.78-.84,.91-.44,2.12-.8,3.15-.29,.41-.67,.64-1.18,.6-.56-.18-.65-.66-.72-1.14-.25-1.74-.5-3.48-.47-5.25,.13-7.01-.33-13.98-1.23-20.92-.57-4.43-1.81-8.68-4.06-12.6-1.4-2.43-2.26-2.85-4.97-2.34-3.2,.6-6.16,.09-8.67-2.07-1.15-.99-2.13-1.05-3.46-.31-1.94,1.08-4.13,1.49-6.34,1.62-4.54,.26-8.88,1.25-12.72,3.8-6.2,4.11-10.58,9.56-12.34,16.92-.34,1.4-.5,2.83-.52,4.28-.09,5.56,.3,11.1,.68,16.64,.23,3.22,.26,6.46,.53,9.69,.52,6.36,1.86,12.51,6.06,17.52,4.35,5.2,9.45,9.57,16.44,10.69,5.97,.96,11.87,.63,17.43-2.18,2.38-1.2,4.2-3.06,5.91-5.01,1.41-1.6,2.91-3.07,4.63-4.33,2.07-1.51,3.1-3.56,3.37-6.09,.16-1.48,.06-2.94,.03-4.41-.05-3.23,.02-6.47,.54-9.67,.54-.74,1.49-.95,2.12-1.59,.16-.16,.35,.03,.43,.23,.3,3.62,.03,7.28,.42,10.88,.31,2.85,0,5.61-.38,8.39-.26,1.9-1.23,3.4-2.83,4.52-2.52,1.77-3.78,4.25-3.9,7.31-.1,2.56-.05,5.12,.26,7.65,.32,2.64,1.91,4.45,4.2,5.59,4.18,2.08,8.61,3.49,13.13,4.61,6.38,1.59,12.9,2.46,19.37,3.6,10.5,1.84,20.18,5.47,28.23,12.75,6.57,5.95,10.59,13.46,13.53,21.68,2.29,6.43,3.78,13.06,4.95,19.76,1.25,7.13,3.67,13.9,6.23,20.63,2.57,6.76,5.25,13.48,7.87,20.22,.09,.22,.15,.45,.23,.68-.6,.23-1.21,.17-1.82,.05-.98-1.33-1.59-2.86-2.29-4.33-5.19-10.95-9.36-22.26-12.05-34.08-.89-3.94-1.72-7.89-2.83-11.78-1.18-4.12-2.69-8.12-4.87-11.84-2.04-3.48-3.89-7.08-6.11-10.46-3.44-5.24-8.17-9.05-13.43-12.27-6.06-3.71-12.6-6-19.71-6.66-4.89-.45-9.79-.86-14.58-2.07-3.04-.77-5.99-1.72-8.78-3.15-.77-.39-1.51-.61-2.2,.09-2.49,2.55-5.69,3.81-8.95,4.94-4.63,1.6-9.36,2.58-14.28,2.93-6.69,.47-13.22-.46-19.76-1.62-3.11-.55-6.23-1.02-9.29-1.83-3-.8-5.87-1.86-8.41-3.69-1.64-1.18-3.35-1.3-5.22-.59-5.83,2.22-11.5,4.83-17.21,7.32-4.14,1.8-8.33,3.49-12.58,5.05-8.4,3.07-15.77,7.77-21.86,14.34-5.77,6.22-9.79,13.5-12.63,21.46-2.64,7.41-4.18,15.09-5.8,22.76-1.66,7.87-3.3,15.74-5.76,23.4-.86,2.67-1.87,5.28-2.96,7.85-.24,.55-.42,1.3-1.33,1.01-.32-.48-.09-1-.1-1.5-.04-1.51-.62-2.01-2.09-1.77-.31,.05-.6,.22-.93,.08,.86-3.8,2.14-7.48,3.36-11.17,2.89-8.71,4.9-17.64,6.68-26.62,1.66-8.37,3.66-16.62,7.5-24.32,8.24-16.54,20.95-27.98,38.56-33.85,5.96-1.99,12.12-3.32,18.09-5.27,6.06-1.97,11.98-4.27,17.67-7.15,1.9-.96,2.77-2.29,2.73-4.44-.05-3.08-.51-6.13-.67-9.2-.04-.7-.04-1.32,.49-1.86,.88-.9,.86-1.3-.2-2.09-1.48-1.11-2.84-2.34-3.98-3.79-2.03-2.58-2.62-5.69-3.47-8.78-.98-3.56-.26-7.03-.37-10.53-.09-2.89-.88-5.67-1.09-8.54-.2-2.7-.53-5.4-.8-8.1,.1-2.54-.15-5.08,.05-7.61,.03-.43-.07-.88,.08-1.3,.31-5.7,2.71-10.59,5.87-15.18,.09-.13,.2-.25,.28-.39,1.3-2.37,2.88-4.43,5.59-5.37,.67-.23,1.28-.84,1.77-1.4,2.42-2.73,5.55-3.98,9.06-4.3,4.08-.37,8.17-.66,12.23-1.33,.47-.12,.94-.03,1.42-.06,.66-.06,1.33,.14,1.97-.12h1.44Z"/><path class="cls-43" d="M242.59,199.18c.58-.35,1.16-.26,1.75-.02,.82,.38,.71,1.21,.84,1.87,3.24,16.93,6.22,33.91,8.75,50.96,1.7,11.45,3.49,22.89,4.91,34.38,.57,4.6,1.01,9.21,1.31,13.83,.16,.41,.05,.83,.08,1.24,0,.5,0,.99,0,1.49,.07,1.73-.15,3.47,.12,5.2v1.44c-.55,.99-.45,2.12-.67,3.18-.99,4.9-3.44,8.75-7.85,11.25-1.34,.76-2.66,1.58-3.99,2.36-.28,.64-.9,.89-1.45,1.2-.69,.39-1.03,.93-1.11,1.72-.58,5.12-1.19,10.23-1.65,15.35-.35,3.89-.63,7.79-.7,11.7-.03,1.77,.23,3.51,.55,5.23,.66,3.59-.23,6.69-2.54,9.49-2.96,3.6-4.98,7.69-6.18,12.19-.12,.44-.34,.8-.57,1.18-.81,1.93-2.51,2.82-4.26,3.64-.99-.49-1.09-.83-.75-2.51-1.19,.42-2.35,.93-2.87,2.03-2.09,4.44-5.76,5.5-10.22,5.02-.71-.17-1.43-.11-2.15-.19-.82-.08-1.67-.25-1.75-1.28-.08-.96,.61-1.41,1.41-1.71,.45-.17,.93-.24,1.4-.31,3.69-.58,6.11-2.54,7-6.28,.44-1.87,1.2-3.65,2.06-5.37,1.46-2.93,1.71-5.95,1.01-9.1-.61-2.73-1.33-5.43-1.81-8.2-.28-1.62-.23-3.18,.47-4.69,.05-.11,.1-.22,.13-.34,.13-.47,.31-1.01-.24-1.27-.49-.23-.81,.22-1.06,.57-1.36,1.9-2.53,3.89-2.91,6.25-.47,2.84-1.09,5.65-1.64,8.48-.51,2.6-1.92,4.1-4.56,4.51-1.39,.22-1.59,.11-1.63-1.35-.09-2.77,.27-5.5,.58-8.24,.71-6.2,2.09-12.29,3.16-18.43,.39-2.25,1.44-4.23,2.59-6.15,.9-1.51,1.85-3,3.01-4.33,.7-.8,.96-1.54,.05-2.36-.27-.24-.38-.6-.5-.95-2.33-4.84-2.54-10.18-3.48-15.33-1.67-9.1-3.16-18.23-4.72-27.35-.91-5.31-1.7-10.64-2.78-15.91-.78-3.82-1.8-7.59-2.23-11.47-1.21-10.83-3.52-21.48-5.21-32.23-.35-2.2-.79-4.39-1.19-6.59-.2-.26-.29-.56-.35-.87-.53-2.69-.95-5.39-1.38-8.1-.09-.59-.08-1.19,.04-1.78,.21-.71,.7-1.06,1.43-1.1,1.2,0,1.73,.72,1.98,1.77,.84,3.91,1.42,7.87,2.09,11.8,3.3,19.15,6.58,38.3,9.87,57.45,2.52,14.7,5.03,29.4,7.58,44.09,.13,.75,.32,1.49,.6,2.2,1.3,3.3,3.06,4.43,7.15,3.6,2.06-.42,3.88-1.44,5.69-2.5,4.66-2.72,9.25-5.56,13.94-8.23,4.47-2.54,6.48-6.5,6.98-11.48,.43-4.25,.07-8.45-.23-12.68-.57-8.26-1.73-16.45-2.91-24.64-2.09-14.48-4.23-28.96-6.7-43.38-1.55-9.02-3.16-18.04-4.94-27.02-.1-.51-.27-1.02-.23-1.54,.04-.62,.03-1.33,.93-1.41Z"/><path class="cls-40" d="M260.35,308.14c-.5-1.76-.16-3.54-.19-5.32,.08-.06,.14-.05,.19,.04v5.28Z"/><path class="cls-5" d="M65.99,664.51h-4.8c-.07-.16-.04-.28,.11-.38,1.53-.35,3.06-.35,4.58,0,.14,.09,.18,.22,.11,.38Z"/><path class="cls-6" d="M129.33,0c-.61,.48-1.3,.18-1.95,.18-.05-.05-.06-.1-.03-.13,.02-.03,.04-.05,.07-.05h1.92Z"/><path class="cls-11" d="M260.35,302.86c-.06-.03-.12-.04-.19-.04,0-.48,0-.95,0-1.43,.07-.08,.14-.07,.19,.02v1.44Z"/><path class="cls-38" d="M127.41,0c-.02,.06-.04,.12-.03,.18-.48,0-.96,0-1.43,0-.02-.07-.01-.13,.03-.19h1.44Z"/><path class="cls-20" d="M65.99,664.51c-.02-.08-.01-.15,.02-.22,.48-.42,.96-.42,1.44,0-.02,.07-.03,.14-.02,.21h-1.44Z"/><path class="cls-13" d="M260.35,301.42l-.09-.02s-.1,0-.1,0c0-.4,0-.79-.01-1.19,.07,0,.14,0,.2,.01v1.2Z"/><path class="cls-9" d="M61.16,664.33c0,.06,0,.12,.03,.18h-1.2c-.04-.06-.05-.12-.03-.19,.4-.41,.8-.41,1.2,0Z"/><path class="cls-3" d="M199.64,212.14c-.04,3.17,.84,6.2,1.32,9.3,.08,.52,.11,1.03,.11,1.54-1.55-.41-1.4,.66-1.5,1.64-.6,5.73-.86,11.47-.56,17.22,.32,6.1,1.01,12.17,1.51,18.25,.67,8.16,1.05,16.33,.39,24.52-.41,5.09-.83,10.19-.57,15.3,.1,2.07-.89,3.66-1.65,5.4-.1,.22-.21,.43-.34,.63-1.13,1.79-1.74,3.6-1.43,5.85,.46,3.3,.04,6.64-1.1,9.78-1.97,5.41-1.69,10.76-.17,16.2,1.9,6.8,4.69,13.26,7.21,19.82,.97,2.52,1.91,4.99,1.93,7.8,.02,3.02,.73,6.01,1.56,8.92,.95,3.32,1.42,6.71,1.38,10.15-.06,4.89,.58,9.72,1.07,14.56,.54,5.4,.98,10.81,1.24,16.23,.39,8.19,.31,16.37-.27,24.55-.56,7.85-.82,15.72-.45,23.59,.39,8.25,1.23,16.47,2.01,24.7,.73,7.77,.83,15.54,.14,23.33-.4,4.55,.45,8.99,1.65,13.35,1.82,6.62,2.92,13.38,4.02,20.14,.69,4.21,1.4,8.41,2.01,12.64,.47,3.24,.63,6.52,.68,9.79,.13,9.1,2.88,17.63,5.58,26.19,1.89,5.98,3.3,12.07,3.72,18.34,.48,7.24-.65,14.2-3.58,20.88-1.62,3.69-2.2,7.72-3.37,11.56-1.59,5.21-4.31,9.4-9.81,11.18-1.86,.6-3.78,.97-5.7,1.3-8.44,1.45-16.96,1.92-25.51,1.94-2.83,0-5.66,.36-8.49,.04-2.35-.26-3.9-1.53-4.71-3.7-1.23-3.29-1.97-6.71-2.38-10.2-.41-3.4-.23-6.77,.47-10.12,.18-.86,.19-1.71-.97-1.95-5.44-1.09-6.7-4.85-6.33-10.25,.2-2.86,1.03-5.55,2.09-8.18,1.31-3.23,1.54-6.53,1.25-9.97-.38-4.5-.19-9.03-.12-13.54,.16-9.91-.07-19.82-.76-29.7-.55-7.84-1-15.69-1.42-23.54-.2-3.72-1.47-7.24-2.43-10.82-2.17-8.16-3.85-16.43-5.26-24.76-1.1-6.49-1.72-13.05-2.55-19.57-.2-1.55,0-3.1,.17-4.66,.4-3.96-.75-7.58-2.7-10.95-1.65-2.86-3.51-5.61-5.18-8.46-2.91-4.97-4.38-10.47-5.86-15.97-1.94-7.18-3.99-14.32-5.98-21.48-.12-.42-.19-.85-.28-1.28-.08-.41-.22-.83-.72-.8-.39,.03-.79,.21-.88,.68-.09,.47-.18,.94-.22,1.41-.29,3.26-.57,6.52-.84,9.78-.33,4.01-1.57,7.79-2.82,11.58-.71,2.15-1.41,4.3-2.12,6.44-.82-.02-.88-.66-.99-1.24-.08-.43-.05-.87,0-1.3,.14-.63,.29-1.26,.5-1.88,1.25-1.72,1.46-3.7,1.47-5.74,.03-.13,.08-.25,.14-.36,.84-1.24,.36-2.64,.47-3.96,.5-3.25,.03-6.55,.45-9.81,.27-2.1,.5-4.21,1.18-6.23,.58-1.74,1.18-3.48,1.61-5.28,.45-1.86,.5-3.71,.08-5.58-.04-.2-.09-.39-.11-.59-.05-.49-.04-1,.47-1.26,.56-.29,1.01,.05,1.38,.43,.61,.62,.87,1.43,1.09,2.24,1.71,6.16,3.38,12.34,5.35,18.43,2.72,8.41,4.95,16.97,7.97,25.28,1.15,3.17,2.52,6.26,4.47,9,2.59,3.64,3.81,7.69,4.3,12.06,.86,7.67,2.2,15.28,2.99,22.95,1.19,11.54,4.25,22.71,6.45,34.04,1.04,5.38,1.89,10.78,2.17,16.27,.12,2.4,.14,4.79,.18,7.19,.07,4.56,.51,9.09,.88,13.63,.37,4.54,.79,9.07,1.08,13.61,.19,3.04,.17,6.07,.18,9.1-.62,2.22-.49,4.5-.47,6.75,.12-.35,.06-.77,.21-1.14,.24-.54,.56-.96,1.25-.85,.66,.28,.73,.91,.86,1.48,.73,3.09,.6,6.19-.09,9.26-.53,2.35-1.3,4.62-2.35,6.79-1.81,3.75-2.61,7.71-2.49,11.86,.09,3.01,1.76,4.32,4.72,3.78,2.65-.49,5.17-1.32,7.6-2.52,4.12-2.03,8.55-2.57,13.09-2.22,3.6,.28,7.17,.07,10.77-.14,7.67-.44,14.38-3.51,20.87-7.25,1.04-.6,2.12-1.13,3.19-1.66,.91-.46,1.22-1.13,1.09-2.15-.47-3.69-.94-7.37-1.89-10.98-.96-3.68-1.35-7.47-2.08-11.2-.84-4.3-2.02-8.48-4.2-12.32-.79-1.4-1.03-2.86-.9-4.49,.45-5.59,.18-11.17-.36-16.74-.82-8.47-1.73-16.93-3.04-25.45-.54,1.77-.37,3.54-.65,5.25-.13,.79-.26,1.58-.57,2.32-.17,.41-.37,.87-.88,.87-.5,0-.74-.43-.91-.84-.61-1.42-.75-2.94-.95-4.44-.77-5.69-.62-11.42-.44-17.13,.17-5.38,.61-10.76,1.08-16.13,.14-1.55,.19-3.11,.27-4.66,.51-9.57,.07-19.08-1.79-28.51-.9-4.59-1.27-9.28-1.04-13.96,.25-4.9,.44-9.81,.86-14.71,.54-6.33,.8-12.69,.5-19.04-.24-5.1-.67-10.2-1.1-15.29-.15-1.79-.18-3.59-.23-5.38-.18-6.57-.94-13.07-2.18-19.52-.91-4.72-1.22-9.51-1.7-14.28-.17-1.77-.58-3.45-1.33-5.08-4.34-9.49-7.77-19.28-9.35-29.65-.1-.67-.25-1.34-.44-1.99-.42-1.43-1.17-1.96-2.65-1.87-.75,.04-1.5,.28-2.26,.14-.51-.25-1-.29-1.46,.12-.27,.09-.54,.09-.81,0-.52-.47-.8,.16-1.2,.27-.67,.09-1.33,.32-2.02,.25-.43-.25-.82-.16-1.18,.14-.15,.05-.31,.06-.47,.02-.54-.28-.83,.25-1.24,.38-1.39,.31-2.77,.63-4.2,.75-1.17-.15-2.34-.34-3.33,.56-.52,.34-1.06,.61-1.71,.5-.11-.03-.22-.08-.32-.14-.44-.3-.85-.03-1.25,.1-1.25,.4-2.57,.5-3.79,1-.18,.13-.31,.32-.47,.47-.32,.3-.7,.36-1.12,.29-.56-.18-1.09-.23-1.46,.36-.17,.15-.35,.26-.59,.24-.88-.36-1.65-.25-2.29,.5-.3,.29-.63,.5-1.06,.47-1.38-.2-2.64,.08-3.73,.98-.31,.28-.65,.5-1.09,.46-1.65-.15-3.12,.31-4.47,1.25-.76,.51-1.63,.65-2.52,.73-.61-.46-1.16-.21-1.7,.17-.1,.05-.2,.08-.3,.1-.69-.11-1.33-.05-1.86,.47-.36,.14-.73,.29-1.13,.17-.96-.39-1.82-.18-2.62,.44-.15,.08-.31,.09-.47,.05-.64-.58-1.01,.08-1.46,.33-1.06,.14-2.11,.52-3.2,.24-.76-.72-1.3,.06-1.92,.29-2.26,.17-4.52,.15-6.78,.02-.62-.12-1.08-1.05-1.86-.35-.4,.15-.81,.16-1.22,.03-.46-.47-.96-.63-1.54-.22-.69,.14-1.33-.05-1.95-.31-1.14-.81-2.36-1.21-3.75-.71-1.38-.04-2.68-.45-3.95-.9-13.81-4.95-28.12-7.84-42.48-10.56-.39-.07-.79-.11-1.19-.12-.8,.02-1.6,0-2.39-.15-.18,.08-.36,.21-.55,.23-.38,.05-.83,.22-1.09-.21-.25-.4-.02-.78,.23-1.1,1.42-1.79,1.98-3.89,2.1-6.11,.09-1.71,.07-3.44,0-5.15-.04-1.02,.6-2.13-.12-3.03-.75-.93-1.89-.23-2.84-.34-1.32-.14-1.96-.95-2.3-2.1-.59-1.97-.83-4-.76-6.03,.27-8.01,.51-16.03,.98-24.03,.44-7.37,1.01-14.73,.68-22.12-.25-5.63-.36-11.25,.1-16.87,.2-2.42,.65-4.83,.47-7.27-.04-.52-.04-1.03-.34-1.57-1.18,1.45-2.45,2.75-4.2,3.45-.36-.69-.14-1.41-.03-2.1,1.27-7.96,2.78-15.87,4.75-23.68,.23-.93,.54-1.83,.8-2.76,.43-1.56,1.8-2.38,2.85-3.45,.12-.12,.29-.03,.39,.12,.35,.79,.14,1.57-.03,2.35-.81,3.71-1.66,7.4-1.47,11.26,.12,2.5,.45,4.93,1.14,7.32,.72,2.52,1.08,5.06,1.08,7.69,0,5.72-.37,11.42-.7,17.12-.11,1.95-.14,3.91-.23,5.87-.28,6.35-.48,12.71-.26,19.06,.22,6.23,.44,12.45,.72,18.68,.15,3.27,.42,6.54,.46,9.81,.02,1.67,.38,1.98,2.06,1.71,4.03-.64,8.05-.13,12.08,.03,3.68,.15,7.33,.52,10.99,.86,4.89,.46,9.8,.76,14.68,1.28,3.06,.32,6.14,.41,9.21,.58,3.51,.2,7.02,.34,10.54,.29,3.44-.05,6.86-.3,10.28-.65,1.63-.16,3.28-.27,4.9-.27,3.6-.01,7.19-.22,10.78-.35,5.16-.18,10.31-.01,15.46-.25,3.72-.17,7.43-.04,11.14-.2,5.15-.22,10.29-.39,15.43-.73,1.21-.08,1.64-.46,1.71-1.58,.41-6.58,1.22-13.13,.99-19.74-.11-3.07-.57-6.12-.5-9.21,.04-1.6,.3-3.18,.27-4.79-.08-5.36-.65-10.68-1.08-16.02-.44-5.49-.86-10.98-.2-16.5,.6-5,1.15-10.01,1.23-15.04,.07-4.93-.53-9.81-1.64-14.62-.88-3.83-1.39-7.71-1.19-11.66,.05-1.05,.14-2.09,.86-2.93,.86-1.01,1.67-.86,2.13,.36,.08,.22,.14,.46,.2,.69,1.7,6.83,3.44,13.64,5.1,20.48Z"/><path class="cls-1" d="M61.16,664.33c-.4,0-.8,0-1.2,0-2.55-.14-5.08-.44-7.57-1-4.84-1.1-7.55-4.35-8.01-9.3-.4-4.35-.65-8.67,.26-12.98,.2-.94-.14-1.29-1.09-1.27-1.81,.04-3.59-.22-5.31-.76-3.7-1.18-5.61-3.86-5.67-7.93-.05-3.33,.58-6.59,1.05-9.87,.9-6.28,2.23-12.46,4.77-18.31,.65-1.5,1.35-2.97,2.18-4.38,.39-.57,.59-1.21,.76-1.87,3.31-12.78,5.73-25.75,8.22-38.7,.91-4.71,1.64-9.46,2.07-14.23,.37-4.13,.58-8.28,.84-12.43,.29-4.78,.33-9.57,.65-14.36,.13-1.95,.04-3.92,.04-5.88,0-5.22,.67-10.36,1.64-15.47,.01-.08,.02-.16,.05-.24,.12-.41,.16-1.02,.72-.92,.53,.09,.47,.7,.41,1.11-.68,4.31-.49,8.68-.88,13.02-.09,.95,0,1.92-.03,2.88-.15,4.95-.33,9.89-.51,14.84-.15,4.27-.2,8.55-.49,12.81-.38,5.54-1.22,11.04-1.96,16.54-.65,4.79-1.69,9.51-2.63,14.24-.29,1.45-.48,2.91-.48,4.39-.25,2.62-.66,5.22-1.26,7.79-1.58,6.72-3.18,13.45-4.65,20.2-.79,3.63-1.13,7.34-1.92,10.97-.28,1.29-.57,2.58-1.02,3.82-.17,.47-.28,1.03-.94,1.11-.3-.01-.52-.15-.69-.39-.32-.72-.19-1.49-.2-2.24-.01-1.11-.01-2.22-.19-2.99,.28,.77-.09,1.73-.66,2.65-.73,1.17-1.3,2.38-1.13,3.82-.41,3.29-.85,6.58-.71,9.91,.05,1.13,.2,2.23,.59,3.29,1.01,2.73,3.11,3.99,6.01,3.58,3.54-.5,6.94-1.46,10.17-3.08,4.76-2.38,9.84-3.46,15.16-3.56,4.6-.09,9.18,.32,13.75,.68,1.91,.15,3.83,.13,5.74-.15,2.25-.32,4.49-.73,6.76-.95,1.79-.18,3.16-1.07,3.91-2.77,.37-.83,1.01-1.1,1.86-.87,1.58,.42,2.9-.15,4.14-1.06,1.04-.76,1.92-1.68,2.85-2.57,1.35-1.3,2.91-1.73,4.82-1.57,4.59,.39,6.64-2.24,5.98-6.28-.2-1.23-.66-2.39-1.23-3.5-.47-.93-.94-1.85-1.29-2.84-.38-1.08-.59-2.17-.19-3.29,.59-1.64,.37-3.23-.21-4.81-1.31-3.56-1.81-7.28-2.25-11.02-.63-5.36-1.05-10.73-1.39-16.11-.22-3.42-.41-6.86-.58-10.29-.17-3.55-.4-7.09-.6-10.64-.24-4.07-.56-8.13-.82-12.19-.41-6.42-.73-12.87-3.25-18.93-.38-.92-.88-1.8-1.25-2.73-.18-.45-.37-.98,.15-1.29,.46-.28,.82,.15,1.14,.43,.54,.48,1.04,.99,1.5,1.55,.45,.56,.85,1.16,1.43,1.84-.55-5.71-.5-11.3-.4-16.89,.09-4.67,.46-9.33,.88-13.98,.53-6.02,1.35-12,2.73-17.89,1.2-5.11,2.82-10.09,4.9-14.91,.26-.59,.52-1.17,1.1-1.53,.32-.29,.58-.65,.92-.91,.33-.26,.7-.4,1.09-.16,.41,.25,.44,.62,.22,1.02-1.84,5.09-3.38,10.26-4.42,15.58-1.16,5.88-1.96,11.8-2.56,17.75-.49,4.8-1.01,9.6-1.47,14.41-.41,4.3-.41,8.61-.44,12.93-.02,2.52-.19,5.03-.41,7.53-.18,1.98,.22,3.92,.75,5.78,1.2,4.18,1.42,8.48,1.81,12.76,.47,5.13,.95,10.25,1.34,15.39,.36,4.82,.64,9.64,.9,14.46,.27,5.02,.32,10.06,.91,15.06,.81,6.87,2.27,13.58,4.87,20.02,1.15,2.85,1.59,5.84,1.75,8.87,.18,3.24-1.37,5.77-3.78,7.77-1.87,1.55-3.36,3.37-4.55,5.5-1.52,2.72-3.53,5-6.3,6.57-1.71,.97-2.61,2.51-2.34,4.5,.39,2.89,0,5.73-.41,8.58-.02,.16-.05,.32-.04,.48,.29,4.41-2.18,7.31-5.32,9.89-2.98,2.45-6.5,3.17-10.21,3.52-4.13,.39-8.24,.99-12.35,1.51-3.41,.43-6.81,.81-10.25,.92-.48,0-.96,0-1.44,0-1.61,.01-3.23,.03-4.84,.04Z"/><path class="cls-43" d="M63.34,201.1c-.41,.63-.87,1.21-1.5,1.64-1.32,.9-1.46,2.44-1.81,3.78-2.03,7.88-3.64,15.84-4.85,23.88-.14,.9-.29,1.8-.43,2.7-.53,4-1.06,7.99-1.58,11.99-.15,1.11-.29,2.22-.39,3.33-.08,.94-.44,1.69-1.3,2.15-2.08,1.1-3.42,2.71-3.89,5.08-.3,1.5-1.25,2.83-1.09,4.49,.04,.38-.77,.56-.92,1.2-.45,1.99-.79,3.99-.9,6.03-.08,1.38-.34,1.64-1.74,1.64-.4,0-.82,.09-1.2-.01-1.62-.44-2.26,.71-2.99,1.75-.26,.37-.1,.66,.06,1,1.28,2.76,.96,5.26-1.2,7.48-.77,.79-1.13,1.81-1.42,2.86-.78,2.91-1.91,5.66-4.7,7.22-6.18,3.46-12.42,4.02-18.69,.17-1.57-.96-3.17-1.87-4.4-3.27-1.46-1.68-1.98-3.63-1.55-5.8,.25-1.28,.15-2.42-.64-3.52-1.12-1.55-1.27-3.28-.45-4.99,.75-1.57,.71-3.07-.01-4.6-.03-.07-.05-.15-.09-.22-1.45-2.39-1.45-4.71,.34-6.94,.3-.38,.24-.76,.1-1.23-.99-3.26-2.69-6.13-4.87-8.71-1.04-1.23-1.33-2.53-1.19-4.09,.6-6.68,1.1-13.37,1.88-20.04,.7-5.99,1.38-11.99,2.5-17.91,.34-1.79,1.37-3.52,2.03-5.29,.01-.04,.05-.06,.07-.1,.9-.56,1.93-.84,2.76-.09,.98,.88,.65,2.09,.33,3.21-1.31,.29-1.41,1.23-1.35,2.35,.24,4.35-.85,8.58-1.32,12.86-.65,5.83-1.35,11.66-1.82,17.52-.2,2.47-.32,4.94-.61,7.4-.13,1.05,.44,1.75,1.01,2.46,.44,.56,.73,1.52,1.37,1.56,.71,.05,.89-1,1.35-1.52,1.77-1.96,3.96-3.06,6.57-3.36,1.75-.2,3.5-.35,5.24-.56,.73-.09,.94-.26,.93-1.19-.06-3.26-.2-6.55,.54-9.77,.2-.89,.81-1.56,1.52-2.1,.98-.74,1.44-1.69,1.27-2.92-.13-.99,.36-1.44,1.28-1.45,2.96-.05,5.92-.05,8.87,0,.82,.01,1.26,.42,1.19,1.29-.12,1.42,.34,2.57,1.47,3.48,.59,.48,.9,1.21,1.24,1.89,.37,.75,.73,1.46,1.47,1.99,.91,.66,.99,1.9,.2,2.76-.66,.72-.84,1.49-.81,2.41,.04,1.13-.07,2.26-.74,3.22-.47,.69-.22,1.09,.39,1.45,1.32,.76,2.69,1.4,4.23,1.62,1,.14,1.94,.38,2.79,.99,.81,.57,2.4-.5,2.65-1.8,.15-.74,.21-1.5,.3-2.26,1.48-11.58,3.22-23.12,5.93-34.5,.17-.71,.34-1.39,1.06-1.78,.56-.3,.46-.88,.47-1.4,.03-1.51-.15-3.04,.59-4.47,.81-1.58,1.91-2.86,3.52-3.63,.94-.45,1.82-.22,2.52,.51,.56,.59,1,1.28,.42,2.13Z"/><path class="cls-31" d="M48.71,574.28c-.16-2.31,.37-4.53,.86-6.75,1.09-4.88,1.9-9.81,2.51-14.77,.44-3.58,.96-7.15,1.38-10.73,.12-1.02,.26-2.07,.25-3.08-.04-3.43,.26-6.85,.32-10.28,.09-4.5,.31-8.99,.47-13.49,.15-4.14,.36-8.27,.48-12.41,.06-2.33,.21-4.68,.64-6.99,.07-.38,0-.78-.25-1.23-.22,1.1-.47,2.2-.66,3.31-1.1,6.18-1.2,12.41-1.26,18.67-.04,4.05-.27,8.11-.44,12.17-.17,3.97-.37,7.94-.73,11.9-.52,5.68-1.26,11.34-2.31,16.96-1.95,10.41-3.99,20.81-6.31,31.15-.63,2.83-1.42,5.63-2.11,8.45-.15,.61-.35,1.12-.98,1.36,.1-1.81,.68-3.54,1.04-5.3,1.2-5.9,2.49-11.78,3.74-17.66,.84-3.98,1.71-7.96,2.5-11.95,.73-3.7,1.37-7.43,1.83-11.17,.22-1.76,.51-3.52,.76-5.27,.18-.4-.04-.85,.17-1.25,.02-.3,.04-.61,.06-.91,.18-.41-.02-.88,.17-1.29,.02-.37,.05-.74,.07-1.11,.2-.48-.05-1.01,.18-1.49l.06-1.15c.21-.56-.07-1.17,.18-1.72,.02-.47,.05-.93,.07-1.4,.19-.56-.06-1.17,.17-1.73,.02-.54,.04-1.08,.06-1.62,.22-.74-.06-1.51,.17-2.25,.03-.77,.05-1.54,.08-2.31,.23-.97-.09-1.96,.17-2.93,.02-1.18,.05-2.37,.07-3.55,.23-1.93-.1-3.88,.17-5.81-.13-1.27,.01-2.53,.07-3.79,.22-.88-.09-1.8,.17-2.68,.02-.55,.04-1.09,.06-1.64,.22-.64-.07-1.33,.18-1.97,.02-.46,.05-.93,.07-1.39,.19-.48-.06-1.01,.17-1.48,.02-.31,.04-.61,.06-.92,.21-.48-.06-1.01,.18-1.48,.08-3.33,.71-6.6,1.27-9.87,.87-5.12,1.85-10.27,3.61-15.16,1.29-3.57,1.26-6.91,.34-10.56-1.44-5.68-1.95-11.54-2.32-17.4-.25-3.86-.38-7.72-.24-11.59,.14-4.03,.62-8.04,1.07-12.04,.5-4.52,.83-9.06,1.09-13.59,.58-10.14,.18-20.3,.26-30.44,.07-9.9,.31-19.8,1-29.68,.43-6.13,1.16-12.22,2.4-18.25,.06-.27,.15-.54,.23-.8,.72-.26,.87,.31,1.05,.77,.29,.71,.17,1.47,.2,2.21-.32,3.58-.59,7.16-.68,10.75-.19,7.59-.32,15.18-.54,22.76-.34,11.35-.09,22.7-.16,34.05-.02,3.35-.88,6.57-1.11,9.88-.22,3.11-.51,6.21-.62,9.32-.25,7.15-.61,14.29-.44,21.44,.17,7.36,1.09,14.65,2.34,21.91,.8,4.61,1.84,9.17,2.76,13.75,.19,.96,.15,1.91-.11,2.85-.12,.42-.2,.93-.72,1-.49,.06-.79-.34-1.03-.71-.64-.98-1.07-2.05-1.39-3.17-.28-.99-.45-2.02-1.01-2.98-.51,.29-.5,.76-.58,1.15-1.41,7.14-2.41,14.34-3.18,21.58-.49,4.61-.83,9.23-1.12,13.85-.21,3.35-.08,6.71-.05,10.07,.12,16.39-1.88,32.53-5.56,48.48-.19,.82-.32,1.65-.58,2.45-.12,.39-.12,.91-.72,.97Z"/><path class="cls-45" d="M62.87,334.76c-.06-.7,.09-1.4-.18-2.09-.15-.38-.24-.75-.74-.78-.26-1.41,.33-2.64,.75-3.92,.29-.89,.62-1.84-.3-2.62,.77-.37,1.59-.1,2.39-.18,.37,.41,.29,.88,.2,1.36-.48,2.42-.94,4.84-1.46,7.25-.08,.38-.02,.93-.65,.98Z"/><path class="cls-8" d="M91.14,28.15c.06,2.97,.29,5.95-.13,8.91-.27-2.98-.37-5.95,.13-8.91Z"/><path class="cls-14" d="M52.29,516.62c-.07,1.94,.25,3.88-.17,5.81-.01-1.94-.13-3.88,.17-5.81Z"/><path class="cls-14" d="M52.05,525.98c-.06,.98,.22,1.97-.17,2.93-.01-.98-.11-1.97,.17-2.93Z"/><path class="cls-14" d="M52.53,510.15c-.07,.89,.23,1.81-.17,2.68-.02-.9-.12-1.8,.17-2.68Z"/><path class="cls-14" d="M51.8,531.22c-.04,.75,.22,1.53-.17,2.25-.01-.76-.11-1.52,.17-2.25Z"/><path class="cls-14" d="M52.77,506.54c-.05,.66,.22,1.34-.18,1.97-.02-.66-.09-1.33,.18-1.97Z"/><path class="cls-14" d="M51.57,535.1c-.04,.58,.2,1.19-.17,1.73-.02-.59-.12-1.18,.17-1.73Z"/><path class="cls-14" d="M51.33,538.23c-.05,.57,.2,1.18-.18,1.72-.02-.58-.09-1.17,.18-1.72Z"/><path class="cls-14" d="M51.09,541.1c-.04,.5,.18,1.03-.18,1.49-.02-.51-.09-1.02,.18-1.49Z"/><path class="cls-14" d="M53.01,503.67c-.04,.5,.18,1.02-.17,1.48-.03-.5-.08-1.01,.17-1.48Z"/><path class="cls-14" d="M53.25,501.27c-.04,.5,.18,1.03-.18,1.48-.03-.51-.07-1.01,.18-1.48Z"/><path class="cls-14" d="M50.61,545.9c-.02,.42,.16,.87-.17,1.25-.03-.43-.08-.86,.17-1.25Z"/><path class="cls-14" d="M50.84,543.7c-.01,.44,.17,.9-.17,1.29-.02-.44-.09-.89,.17-1.29Z"/><path class="cls-33" d="M220.68,331.87c.68,.39,1,1.12,1.52,1.65,.46,.46-.07,.87-.35,1.23-1.71,2.2-3.26,4.51-4.6,6.97-1.45,2.67-1.62,5.64-2.23,8.5-.7,3.3-1.27,6.63-1.79,9.96-.38,2.43-.55,4.89-.89,7.32-.25,1.75-.19,3.5-.24,5.25-.02,.72,.18,.84,.89,.7,3.45-.71,4.18-1.51,4.88-5.34,.52-2.89,1.06-5.78,1.7-8.64,.47-2.15,1.78-3.91,3-5.68,.25-.35,.68-.62,1.15-.44,.51,.2,.67,.65,.62,1.18-.02,.2,0,.42-.1,.58-1.43,2.4-.74,4.86-.24,7.31,.62,3.03,1.62,5.99,1.78,9.11,.14,2.69-.99,5.03-2.03,7.41-.59,1.35-1.14,2.73-1.53,4.15-1.05,3.85-3.4,5.95-7.42,6.39-.49,.05-.94,.19-1.39,.34-.63,.2-1.06,.64-1.02,1.31,.05,.76,.73,.88,1.31,.98,.82,.14,1.68-.17,2.47,.26,1.24,.48,2.52,.15,3.79,.22,.73,.04,1.45,.06,1.72,.94-3.46,1.32-6.96,1.13-10.45,.2-1.29-.34-1.87-1.9-1.44-3.39,.2-.7,.6-1.29,1.1-1.82,1.06-1.1,1.74-2.33,1.73-3.93,0-.86,.42-1.64,1.3-1.98,1.46-.56,2.59-1.55,3.66-2.63,1.27-1.28,2.59-2.46,4.27-3.22,1.25-.56,1.8-1.67,1.76-3.01-.07-2.48-.68-4.89-1.06-7.32-.07-.42-.16-.84-.24-1.28-.74,.09-1.12,.49-1.38,1.15-.88,2.3-1.88,4.55-2.74,6.86-1.01,2.71-3.22,4.04-5.74,4.76-2.52,.72-4.34-.92-4.45-3.55-.13-3.21,.83-6.2,1.66-9.23,1.9-7,3.24-14.11,4.38-21.27,.62-3.87,2.12-7.31,5.17-9.97,.61-.53,.97-1.34,1.45-2.02Z"/><path class="cls-1" d="M234.19,384.44c.9-4.92,3.02-9.34,6.17-13.14,2.71-3.27,3.44-6.75,2.64-10.78-.53-2.66-.57-5.35-.22-8.06,.22-1.69,.08-3.41,.26-5.12,.33-3.07,.54-6.15,.94-9.22,.31-2.32,.69-4.64,.72-6.97,.04-2.37,.8-4.02,3.14-4.77-.94,7.68-1.94,15.35-2.77,23.04-.36,3.31-.85,6.6-.14,10,.94,4.55-.33,8.85-2.41,12.91-2,3.92-4.68,7.41-7.01,11.12-.31,.5-.84,.72-1.31,1Z"/><path class="cls-29" d="M221.71,393.53c-1.21-1.07-2.69-.56-4.06-.68-.52-.04-1.13,.18-1.45-.48,1.35-.1,2.69,.09,4.05-.17,2.51-.47,4.3-1.84,5.36-4.09,.73-1.54,2.02-2.28,3.46-2.91,.17-.08,.36-.24,.55-.09,.27,.21,.07,.46-.05,.63-.62,.9-.35,1.64,.35,2.32-2.67,1.92-5.39,3.76-8.22,5.45Z"/><path class="cls-49" d="M119.98,454.52c-.02-.35,0-.75-.42-.9-.42-.15-.66,.17-.9,.42-.21,.23-.4,.48-.6,.72-.63,.26-.96,.03-.84-.62,.25-1.38,.66-2.7,1.91-3.55,.33-.04,.62,.05,.89,.24,.47,.58,.45,1.35,.71,2.01,.28,.79-.46,1.13-.74,1.67Z"/><path class="cls-30" d="M120.72,452.85c-.74-.44-.55-1.24-.74-1.9-.17-1.02,.56-1.91,.43-2.92,.26-.67,.09-1.57,1-1.89,.09,.92-.3,1.96,.71,2.63,.14,1.57-.65,2.82-1.4,4.09Z"/><path class="cls-36" d="M150.45,47.28c.32-.16,.64-.32,.97-.48,.37-.31,.63-.78,1.21-.73,.3,1.59,.38,3.2,.42,4.81-.85,.27-1.41,1.11-2.35,1.21-.27,.06-.46-.08-.61-.28-.51-.67-.67-3.49-.24-4.19,.14-.23,.38-.26,.6-.35Z"/><path class="cls-7" d="M152.63,46.06c-.36,.31-.65,.74-1.21,.73,0-.68-.05-1.36,.02-2.03,.06-.51,.25-1.03,.9-1.1,.17,.79,.34,1.59,.29,2.41Z"/><path class="cls-35" d="M63.34,201.1c.11-1.01-.22-1.83-1.12-2.33-.94-.53-1.79-.15-2.53,.45-1.89,1.5-3.22,3.31-3.07,5.89,.04,.72,0,1.44,0,2.16,0,.54,.06,1.07-.75,1.05-.45,0-.58,.39-.65,.74-1.15,5.24-2.32,10.47-3.16,15.77-.79,4.98-1.59,9.95-2.34,14.93-.32,2.12-.54,4.25-.76,6.38-.1,.93-1.53,2.79-2.4,3.02-.31,.08-.45-.13-.59-.3-.71-.9-1.74-1.06-2.77-1.2-1.98-.28-3.74-1.06-5.32-2.27-.29-.22-.54-.42-.18-.74,1.25-1.13,1.19-2.63,1.17-4.1-.01-.78,.07-1.4,.77-1.98,1.08-.9,.82-2.06-.49-2.69-.4-.19-.44-.52-.6-.83-.65-1.26-1.15-2.58-2.39-3.51-.92-.68-1-1.89-.85-2.98,.1-.78-.04-1.08-.88-1.07-2.96,.04-5.92,.02-8.88,.01-.83,0-1.14,.23-.91,1.16,.27,1.06-.02,2.2-.95,2.78-1.78,1.09-2.18,2.79-2.29,4.6-.12,2.11,.03,4.23-.26,6.33-.05,.35-.1,.82,.08,1.05,1.15,1.49-.17,1.4-.98,1.52-1.61,.23-3.23,.43-4.85,.54-3.62,.24-6.37,1.83-8.08,5.08-.07,.13-.18,.24-.33,.46-.95-1.26-1.87-2.45-2.74-3.66-.14-.2-.16-.54-.13-.8,.29-3.4,.6-6.8,.91-10.2,.25-2.77,.48-5.54,.77-8.31,.3-2.92,.61-5.84,1.02-8.75,.54-3.9,1.32-7.76,1.15-11.73-.09-1.94-.12-1.63,1.66-1.67,.72,.11,.86-.46,1.05-.92,2.66-6.42,4.64-13.04,6.19-19.81,.84-3.68,1.63-7.37,2.42-11.06,1.29-6.06,2.53-12.14,4.26-18.1,2.53-8.69,6.23-16.8,11.97-23.9,4.5-5.56,9.88-10,16.13-13.48,3.82-2.13,7.9-3.6,11.96-5.14,4.18-1.58,8.25-3.4,12.34-5.19,4.67-2.04,9.33-4.14,14.1-5.95,1.71-.65,3.37-.49,4.89,.61,3.92,2.84,8.48,3.94,13.13,4.79,3.4,.62,6.79,1.23,10.2,1.77,1.84,.29,3.7,.47,5.56,.63,2.1,.18,4.21,.34,6.33,.25,7.32-.28,14.34-1.84,21-4.91,1.56-.72,3-1.66,4.18-2.94,.72-.78,1.44-.92,2.44-.4,4.75,2.49,9.89,3.68,15.16,4.43,5.45,.78,11.01,.81,16.36,2.37,5.26,1.53,10.09,3.93,14.6,7.01,2.21,1.51,4.28,3.19,6.21,5.03,3.11,2.97,5.35,6.61,7.46,10.33,1.42,2.5,2.89,4.96,4.21,7.51,3.16,6.11,4.77,12.73,6.2,19.4,.94,4.4,2.06,8.75,3.38,13.05,2.85,9.33,6.57,18.3,10.94,27.02,.14,.28,.22,.59,.32,.89-.57,.42-.74,1-.6,1.67,1.87,9.18,3.48,18.41,5.1,27.64,1.08,6.14,1.98,12.3,2.95,18.46,.96,6.12,1.94,12.23,2.84,18.35,.79,5.38,1.43,10.78,2.22,16.16,.68,4.64,1.21,9.29,1.61,13.96,.36,4.16,.76,8.35,.5,12.54-.24,3.94-.93,7.76-3.73,10.85-1.17,1.29-2.62,2.19-4.08,3.07-4.13,2.48-8.29,4.93-12.45,7.38-2.2,1.3-4.39,2.63-6.93,3.17-2.13,.45-4.29,.54-5.92-1.21-1.24-1.34-1.83-3.07-2.13-4.86-.76-4.42-1.49-8.85-2.24-13.27-.93-5.48-1.88-10.95-2.82-16.43-.73-4.23-1.45-8.45-2.18-12.67-.87-5.05-1.74-10.09-2.62-15.13-1.51-8.68-3.03-17.36-4.52-26.04-1.56-9.12-3.07-18.24-4.61-27.36-.15-.86-.31-1.72-.47-2.58-.11-1.21,.94-.86,1.48-1.16-.16-.08-.22-.26-.27-.46-.28-1.22-.29-1.24-1.29-.59-.51,.33-1.04,.56-1.6,.77-.58-.05-.95,.23-1.2,.72-.71-.09-.54-.75-.64-1.14-1.65-6.48-3.25-12.96-4.88-19.44-.13-.51-.08-1.36-.69-1.36-.73,0-1.23,.69-1.43,1.41-.16,.57-.26,1.15-.29,1.76-.24,4.58,.62,9.02,1.55,13.47,.62,2.99,.94,6.02,1.2,9.08,.27,3.17-.17,6.28-.14,9.43,.02,2.33-.36,4.67-.75,6.98-.21,1.22-.21,2.46-.33,3.67-.4,4.12-.2,8.25,.11,12.39,.26,3.57,.66,7.12,.84,10.7,.15,3.06,.54,6.11,.41,9.18-.07,1.75-.29,3.49-.21,5.25,.19,4.62,.74,9.23,.46,13.85-.24,4-.61,8-.91,12-.04,.6-.02,1.2-.03,1.8-.03,1.35-.43,1.91-1.76,1.89-1.8-.03-3.58,.21-5.37,.3-6.49,.32-12.99,.39-19.49,.53-2.79,.06-5.58,.09-8.37,.16-4.43,.11-8.86,.05-13.28,.28-3.7,.19-7.42,.06-11.09,.49-5.32,.62-10.65,.84-15.99,.63-4.96-.2-9.93-.35-14.88-.89-3.32-.36-6.67-.39-9.98-.79-2.96-.36-5.94-.37-8.88-.88-1.01-.17-2.06-.17-3.09-.24-3.77-.25-7.55-.37-11.33-.52-1.47-.06-2.93,.18-4.38,.43-1.57,.28-2.21-.17-2.15-1.78,.1-2.8-.19-5.58-.31-8.37-.16-3.86-.26-7.72-.48-11.58-.38-6.66-.51-13.31-.41-19.98,.06-4.66,.23-9.32,.49-13.98,.17-3.18,.27-6.37,.51-9.53,.21-2.76,.07-5.5,.19-8.25,.11-2.71-.66-5.27-1.31-7.85-1.24-4.95-1.23-9.92-.03-14.89,.42-1.73,.94-3.46,.85-5.28Z"/><path class="cls-44" d="M150.45,47.28c-.81,1.02-.67,3.76,.24,4.82-.35,2.29-.14,4.6-.43,6.9-.16,1.24-.02,2.53,.09,3.81,.27,3.2-.07,6.32-2.35,8.85-.6,.67-1.4,1.17-2.15,1.7-2.04,1.45-3.51,3.47-5.21,5.26-3.12,3.27-6.96,4.95-11.34,5.64-4.37,.69-8.7,.66-13.01-.47-3.44-.9-6.31-2.83-9.03-5-3.56-2.84-6.63-6.11-8.5-10.35-1.5-3.38-2.37-6.9-2.79-10.57-.45-3.96-.47-7.94-.75-11.9-.37-5.33-.72-10.64-.7-15.99,.03-5.74,2.02-10.74,5.51-15.2,2.79-3.56,6.13-6.48,10.27-8.36,2.58-1.18,5.27-1.91,8.14-2.13,3.16-.24,6.36-.47,9.15-2.3,.88-.58,1.71-.13,2.38,.48,2.77,2.56,6.02,3.04,9.57,2.25,1.84-.41,2.93,0,3.98,1.61,2.45,3.73,3.72,7.9,4.51,12.24,.59,3.25,.69,6.55,1.01,9.83,.45,4.66,.39,9.32,.46,13.98,.02,1.42,.31,2.84,.47,4.26,.03,.31,.2,.51,.47,.64Z"/><path class="cls-16" d="M128.83,106.35c-5.5-.32-10.92-.63-16.29-1.65-5.06-.97-10.01-2.24-14.81-4.09-.25-.1-.62-.06-.63-.42-.01-.27,.31-.33,.5-.46,2.56-1.69,5.33-1.86,8.25-1.21,3.1,.69,6.24,1.14,9.42,1.35,1.35,.09,2.69,.19,4.05,.21,7.8,.13,15.37-1.12,22.71-3.74,1.22-.44,2.31-.37,3.46,.16,2.14,.98,4.3,1.9,6.46,2.84,.21,.09,.52,.11,.48,.41-.02,.14-.25,.28-.41,.38-4.72,2.79-9.8,4.56-15.19,5.49-2.67,.46-5.37,.58-8,.74Z"/><path class="cls-28" d="M121.89,96.03c-5.09-.3-10.09-.48-14.98-1.7-2-.5-2.97-1.72-3.01-3.74-.06-3.19,.33-6.35,.48-9.53,.04-.86,.41-.54,.81-.27,2.92,1.97,6.05,3.55,9.39,4.69,3.09,1.06,6.24,1.77,9.54,1.91,5.09,.22,9.86-.76,14.34-3.15,1.3-.7,2.52-1.52,3.71-2.4,.21-.15,.35-.51,.69-.32,.24,.14,.15,.43,.15,.66,.12,2.86,.4,5.7,.99,8.51,.27,1.29-.17,1.99-1.4,2.45-2.39,.9-4.87,1.51-7.39,1.86-4.45,.62-8.94,.78-13.33,1.04Z"/><path class="cls-2" d="M200.84,211.42c.45-.32,.88-.67,1.34-.96,.5-.31,1.12-.88,1.52-.77,.56,.16,.16,.97,.25,1.49,.06,.32,.25,.46,.55,.55-.67,.45-1.68,.16-1.99,1.13-.26-.82-.66-1.5-1.68-1.44Z"/><path class="cls-14" d="M121.41,446.13c-.41,.59-.54,1.27-.72,1.94-.53,.44-.92,.96-.98,1.69-.03,.35-.14,.7-.47,.92-.9,.97-1.48,2.09-1.73,3.41-.11,.6,.06,.7,.55,.68-.91,.41-1.06,1.35-1.38,2.11-2.67,6.33-4.53,12.91-5.74,19.67-.57,3.2-1,6.42-1.3,9.67-.41,4.51-.73,9.03-1,13.55-.28,4.76-.21,9.5-.1,14.25,.05,2.16-.09,4.37,.38,6.55-1.2-1.04-1.87-2.47-3.04-3.47-.24-.21-.44-.46-.68-.67-.19-.17-.38-.53-.68-.29-.24,.19-.13,.52,0,.78,.48,1.05,1,2.09,1.45,3.15,1.42,3.41,2.13,6.97,2.53,10.63,.47,4.31,.66,8.63,.97,12.95,.27,3.73,.5,7.45,.72,11.18,.25,4.45,.49,8.89,.72,13.34,.22,4.32,.53,8.64,.96,12.95,.52,5.17,.87,10.36,2.14,15.42,.32,1.27,.79,2.5,1.17,3.76,.29,.97,.42,1.95,.03,2.93-.81,1.99-.21,3.81,.7,5.58,1.05,2.03,2.01,4.06,1.94,6.45-.07,2.51-1.51,4.35-3.97,4.82-.97,.19-1.91,.3-2.94,.08-1.64-.35-3.04,.39-4.19,1.56-1.09,1.11-2.17,2.23-3.52,3.04-1.2,.72-2.47,1.1-3.87,.59-.58-.21-1-.15-1.23,.5-.89,2.5-2.98,3.25-5.3,3.34-2.12,.08-4.15,.67-6.25,.86-1.84,.17-3.69,.27-5.49,.06-1.46-.17-2.93-.16-4.39-.35-3.68-.47-7.42-.48-11.11-.25-4.42,.28-8.75,1.25-12.73,3.32-3.41,1.77-7.02,2.93-10.79,3.28-3.65,.34-5.69-1.14-6.49-4.88-.67-3.14-.35-6.34,.09-9.51,.13-.94,.23-1.89,.35-2.83,.29-.24,.32-.61,.47-.92,.33-.68,.8-.94,1.47-.4,.1,.12,.14,.27,.2,.42,.14,.4-.06,1.11,.61,1.05,.6-.06,.17-.73,.36-1.08,.62-.06,.57-.62,.69-.99,1.03-3.14,1.51-6.39,1.99-9.65,.58-3.88,1.49-7.7,2.37-11.53,1.33-5.76,2.68-11.51,3.96-17.28,.31-1.39,.4-2.82,.59-4.23,.92-2.62,1.37-5.37,1.91-8.08,.84-4.24,1.66-8.49,2.34-12.76,.54-3.37,.82-6.77,1.28-10.15,.7-5.19,.53-10.41,.77-15.62,.23-4.95-.06-9.91,.21-14.84,.21-3.8,.49-7.6,.87-11.4,.33-3.28,.63-6.56,1.05-9.82,.48-3.77,1.13-7.53,1.74-11.29,.24-1.49,.58-2.96,.87-4.44,.08-.39,.15-.94,.53-.99,.55-.08,.6,.57,.73,.93,.36,1.01,.6,2.06,.93,3.08,.42,1.32,.87,2.62,2.01,3.66,.82-1.67,.67-3.29,.28-4.87-1.33-5.36-2.29-10.79-3.21-16.23-.47-2.77-.66-5.59-1.03-8.38-.87-6.59-.82-13.21-.67-19.82,.11-4.78,.2-9.56,.49-14.33,.28-4.59,.61-9.19,1.6-13.7,.08-.38,.03-.8,.03-1.2,0-10.84-.1-21.67,.06-32.51,.06-3.83-.04-7.67,.24-11.48,.22-3.04,.05-6.06,.19-9.09,.22-4.97,.47-9.93,.73-14.9,.02-.43,.15-.86,.23-1.29,.83-3.16,1.47-6.35,1.91-9.59,2.85,.29,5.63,.95,8.43,1.51,6.74,1.33,13.47,2.73,20.11,4.49,5.09,1.34,10.08,2.98,15.07,4.64,1.36,.45,2.76,.75,4.14,1.12,1.28-.17,2.49,.05,3.6,.72,.72,.08,1.44,.16,2.16,.24,.49-.35,.85-.11,1.2,.24h1.44c.55-.36,.99,0,1.44,.24h7.44c.45-.24,.89-.6,1.44-.24,1.22,.16,2.39-.36,3.6-.24,.36-.29,.72-.57,1.2-.24h.48c.81-.55,1.7-.62,2.64-.48,.4-.08,.8-.16,1.2-.24,.54-.57,1.3-.25,1.92-.48,.56-.11,1.05-.63,1.68-.24,.88-.24,1.76-.48,2.64-.72,1.45-.68,2.91-1.28,4.56-1.2,.32-.16,.64-.32,.96-.48,1.23-.54,2.44-1.13,3.84-.96,.32-.16,.64-.32,.96-.48,.75-.43,1.51-.79,2.4-.48,.16-.08,.32-.16,.48-.24,.4-.4,.9-.49,1.44-.48,.42,.03,.83-.01,1.2-.24,.48-.44,1.1-.5,1.68-.68,1.01-.23,2-.5,3-.76,.36-.04,.72-.2,1.07,0,.61,0,1.14-.26,1.68-.48,.19-.15,.41-.21,.63-.28,.28-.06,.56-.16,.85-.19,.59-.34,1.27,0,1.88-.25,1.52-.24,3.04-.48,4.56-.72,.3-.17,.58-.39,.96-.24h.48c.3-.17,.58-.39,.96-.24,.81,.04,1.58-.38,2.4-.24,.3-.17,.58-.39,.96-.24h.96c.3-.17,.58-.39,.96-.24,.76-.02,1.5-.07,2.25-.18,1.72-.24,3.06,.03,3.5,2.27,.62,3.12,1.3,6.22,1.9,9.33,1.41,7.25,4.28,14,7.24,20.7,1.31,2.97,1.94,6,2.17,9.21,.28,4.07,.77,8.13,1.52,12.16,.68,3.67,1.29,7.34,1.6,11.07,.35,4.37,.51,8.74,.73,13.11,.23,4.64,.63,9.28,.97,13.91,.31,4.28,.19,8.54,.15,12.81-.04,3.69-.38,7.38-.7,11.06-.26,3.1-.34,6.2-.52,9.3-.1,1.83-.21,3.66-.17,5.49,.09,4.09,.56,8.16,1.27,12.19,.59,3.32,1.16,6.64,1.38,10.02,.21,3.06,.48,6.12,.41,9.18-.11,5.29-.37,10.58-.72,15.86-.24,3.61-.46,7.22-.73,10.82-.34,4.63-.25,9.27-.13,13.89,.08,3.11,.24,6.28,1.28,9.29,.13,.38,.18,.91,.62,.94,.56,.03,.55-.58,.68-.97,.51-1.52,.66-3.11,.7-4.7,.03-1.23,.31-2.4,.93-3.57,.25,1.57,.54,3.14,.75,4.71,.49,3.65,.97,7.31,1.4,10.97,.3,2.52,.44,5.06,.78,7.58,.55,4.02,.61,8.08,.91,12.12,.21,2.9-.18,5.8-.36,8.7-.05,.84,.06,1.69,.48,2.41,3.43,5.91,4.7,12.46,5.71,19.1,.47,3.1,1.3,6.14,1.93,9.21,.54,2.63,.81,5.33,1.15,8,.09,.68-.19,1.24-.86,1.56-4.6,2.22-8.91,5.01-13.69,6.86-3.22,1.25-6.57,1.78-9.98,2.21-3.34,.42-6.67,.52-10.02,.43-1.67-.05-3.33-.28-5.01-.22-3.5,.12-6.9,.75-10.01,2.39-2.65,1.39-5.49,2.1-8.39,2.62-2.11,.38-4.06-1.41-4.15-3.78-.18-4.37,.6-8.55,2.5-12.52,1.5-3.14,2.47-6.43,2.82-9.94,.23-2.23-.1-4.34-.51-6.48-.07-.37-.14-.71-.53-.87,.06-1.27-.02-2.53-.15-3.78-.19-.47-.65-.67-1.01-.96,0-1.44,0-2.88-.02-4.32-.07-4.65-.47-9.28-.93-13.91-.32-3.24-.43-6.5-.76-9.74-.48-4.69-.31-9.4-.5-14.09-.34-8.27-1.87-16.38-3.67-24.45-1.5-6.74-3.11-13.46-4.16-20.29-.62-3.99-.97-8.03-1.5-12.04-.58-4.36-1.28-8.7-1.85-13.06-.44-3.3-.65-6.63-1.45-9.88-.47-1.92-1.16-3.75-2.29-5.35-4.75-6.7-6.97-14.44-9.27-22.16-1.25-4.2-2.58-8.37-3.88-12.55-2.04-6.53-3.92-13.11-5.73-19.71-.24-.88-.47-1.8-1.22-2.42-.23-.19-.52-.43-.87-.24-.34,.18-.38,.55-.28,.85,1.22,3.84,0,7.4-1.25,10.94-1.18,3.35-1.52,6.81-1.64,10.31-.08,2.19,.08,4.39-.25,6.56-.38,.82-.38,1.7-.39,2.58,0,.52-.05,1.04-.33,1.5h0c-.55,1.98-1.09,3.97-1.44,5.99-.16,.56-.32,1.13-.48,1.69Z"/><path class="cls-35" d="M186.68,323.25c-.66-.05-1.29,.05-1.92,.25-.19,.23-.45,.24-.72,.23-.66-.05-1.29,.05-1.92,.25-.26,.34-.66,.08-.96,.24-3.15,.49-6.27,1.11-9.36,1.92-1.35,.74-2.73,1.3-4.32,.96-1.97,.62-3.94,1.24-5.92,1.86-.38,.12-.78,.19-1.04,.53-.6,.33-1.22,.55-1.92,.48-.93,.04-1.73,.57-2.64,.73-.36,.53-.85,.66-1.44,.48-.2,0-.38,.04-.48,.23-.35,.33-.75,.4-1.2,.25-.2,0-.38,.04-.48,.23-.43,.35-.89,.54-1.44,.25-.68,.37-1.51,.25-2.16,.71-.43,.39-.95,.2-1.44,.25-.35-.04-.66,.07-.96,.24-.34,.41-.81,.12-1.2,.24-.96,.16-1.92,.32-2.88,.48-.41,.52-1-.05-1.44,.24-1.13,.01-2.22,.38-3.36,.25-.45,.29-1-.07-1.44,.23-.56,0-1.12,0-1.68,0-.53,.3-1.15-.09-1.68,.23-1.61-.05-3.19,.41-4.8,.24-.94-.34-1.94,.08-2.88-.23-1.86,.08-3.69-.2-5.52-.49-.44-.29-1.03,.28-1.44-.24-.48-.08-.96-.16-1.44-.24-.39-.12-.87,.17-1.2-.24-.4-.08-.8-.16-1.2-.24-.59,.17-1-.18-1.44-.47-.16,0-.32,0-.48,0-.61-.28-1.39,.12-1.92-.47-8.4-3.09-16.81-6.17-25.69-7.63-3.4-.56-6.82-1.1-10.28-1.28-1.62-.09-3.23-.39-4.86-.49-1.31-.08-1.88-.82-1.89-2.16-.01-2.07,.09-4.14-.45-6.18-.13-.49-.09-1.05,0-1.55,.14-.81,.55-1.37,1.52-1.36,2.67,.01,5.29,.56,7.95,.67,1.63,.07,3.26,.28,4.88,.28,4.78,0,9.37,1.09,13.96,2.29,5.85,1.52,11.67,3.17,17.61,4.3,4.64,.88,9.3,1.07,14.02,.68,2.49-.2,5-.27,7.49-.54,3.31-.36,6.62-.74,9.93-1.13,2.88-.33,5.76-.67,8.63-1.03,3.86-.49,7.71-1.01,11.56-1.54,3.73-.51,7.46-1.04,11.19-1.59,2.79-.41,5.56-.89,8.35-1.32,2.39-.37,4.78-.75,7.18-1.04,1.29-.16,1.89,.62,1.61,1.94-.34,1.59-1.09,3.07-1.28,4.72-.05,.48-.1,.95-.11,1.42-.01,1.65-.33,2.06-1.99,2.46-.77,.18-1.55,.32-2.33,.48-.19,.23-.46,.24-.72,.23Z"/><path class="cls-43" d="M168.69,639.6c-.24-5.54,2.08-7.09,6.46-8.85,5.24-2.1,10.09-1.27,14.48,2.46,2.83,2.41,6.2,2.95,9.6,1.33,4.97-2.37,9.73-5.1,13.78-8.94,.86-.81,1.79-1.59,2.88-2.11,1.09-.51,1.89-.31,2.36,.78,1.66,3.78,2.38,7.72,1.84,11.86-.14,1.07-.29,2.12-.55,3.17-.28,1.12-.74,1.4-1.82,1.02-3.31-1.17-6.75-1.57-10.22-1.45-3.94,.13-7.88,.26-11.81,.49-8.22,.47-16.19,2.26-23.92,5.11-2.05,.76-2.4,.52-2.83-1.6-.1-.47-.22-.93-.25-1.41-.04-.68-.01-1.36-.01-1.86Z"/><path class="cls-43" d="M191.38,643.89c3.02-.38,6.05-.29,9.08-.25,3.7,.04,7.4,.14,11.09,.46,1.89,.16,3.71-.36,5.52-.8,.33-.08,.71-.41,.97-.08,.21,.27,0,.68-.1,1.03-1.1,4.33-4.2,6.41-8.29,7.29-4.93,1.07-9.94,1.6-14.97,1.97-4.04,.3-8.09,.51-12.14,.73-2.3,.13-4.61,.13-6.9,.42-2.45,.31-3.96-1.09-5.1-3.02-.3-.51-.54-1.07-.72-1.64-.65-2.02-.32-2.59,1.7-3.12,4.65-1.22,9.35-2.16,14.15-2.57,1.9-.16,3.79-.35,5.7-.42Z"/><path class="cls-51" d="M200.62,628.55c-2.33,2.58-6.09,2.99-8.78,1.1-.19-.13-.5-.28-.4-.53,.13-.31,.5-.36,.82-.36,1.8,0,3.6,0,5.4,0,.99,0,1.98,.07,2.96-.2Z"/><path class="cls-43" d="M222.74,623.26c-1.3-.87-1.68-2.33-1.89-3.67-.15-.97,.98-1.18,1.86-1.16,.78,.02,1.7,.05,1.6,1.12-.11,1.16-.24,2.36-.93,3.39-.1,.35-.3,.49-.65,.32Z"/><path class="cls-47" d="M165.58,589.92c.6-.13,.95,.17,1.19,.67,.02,.04,.06,.09,.05,.1-1.19,1.39-.54,3.17-1,4.72-.06,.76,.16,1.59-.75,2.36,.05-2.75-.34-5.33,.5-7.85Z"/><path class="cls-46" d="M165.83,595.41c-.05-.75-.02-1.5-.21-2.25-.27-1.1,.61-1.78,1.15-2.57,.51,1.1,0,2.32,.42,3.44,.11,.3-.32,.4-.46,.63-.52-.02-.63,.47-.91,.74Z"/><path class="cls-34" d="M121.89,444.44c-.37-.94,.11-1.82,.26-2.7,.19-1.16,.49-2.3,1.19-3.29,.16,2.15-.07,4.21-1.44,6Z"/><path class="cls-4" d="M151.17,334.29c-1.52,.4-3.04,.8-4.56,1.2,.04-.66,.59-.56,1-.77,.83-.42,1.78-.33,2.59-.78,.43-.24,.76-.09,.98,.34Z"/><path class="cls-4" d="M167.25,329.73c-1.04,.24-2.08,.48-3.12,.72-.48,.15-.96,.26-1.44,0,1.63-.75,3.43-.87,5.12-1.41,.1-.03,.26,.14,.4,.21-.27,.25-.69,.22-.96,.48Z"/><path class="cls-4" d="M167.49,327.1c1.49-.12,2.87-.67,4.32-.96-.02,.29-.11,.57-.41,.65-1.01,.28-2.03,.54-3.05,.78-.37,.08-.69-.09-.86-.46Z"/><path class="cls-34" d="M123.33,438.45c.14-1.38-.44-2.88,.72-4.08,0,.86,0,1.72,0,2.58,0,.61-.15,1.16-.72,1.5Z"/><path class="cls-4" d="M155.97,332.85c-1.32,.18-2.49,.92-3.84,.96,0-.4,.32-.51,.6-.66,.81-.44,1.79-.27,2.61-.73,.25-.14,.5,.16,.63,.43Z"/><path class="cls-4" d="M116.14,337.65l-3.6-.72c.02-.08,.02-.19,.06-.22,.77-.52,3.08,.09,3.54,.94Z"/><path class="cls-19" d="M222.74,623.26c.22-.11,.44-.21,.65-.32,.3,.1,.26,.35,.27,.58,.02,.44-.01,.88-.46,1.11-.21,.11-.5,.13-.64-.1-.26-.45-.2-.89,.18-1.26Z"/><path class="cls-4" d="M139.17,337.17c-.88,.16-1.76,.32-2.64,.48,0-.04,0-.08,0-.12,.34-.79,2.03-1.02,2.63-.36Z"/><path class="cls-4" d="M159.33,331.89c-.8,.14-1.56,.52-2.4,.48,.53-.99,1.56-1.2,2.4-.48Z"/><path class="cls-4" d="M158.61,329.97c.57-.46,1.24-.5,1.92-.48-.54,.57-.98,1.54-1.92,.48Z"/><path class="cls-4" d="M170.6,329.01h-.72c.91-1.21,2.17-.81,3.36-.72-.58,.42-1.31,.18-1.92,.48-.33-.19-.51,.07-.72,.24Z"/><path class="cls-4" d="M110.38,332.62c.69-.02,1.33,.14,1.92,.47-.64-.17-1.59,.93-1.92-.47Z"/><path class="cls-4" d="M112.78,333.1c.48,.16,1.02,.12,1.44,.47q-.56,.62-1.44-.47Z"/><path class="cls-4" d="M150.93,332.14c.48-.09,.93-.32,1.44-.25-.31,1.04-.82,.98-1.44,.25Z"/><path class="cls-4" d="M143.97,336.21c-.55,.14-1.1,.32-1.68,.24,.53-.26,.95-1.31,1.68-.24Z"/><path class="cls-4" d="M122.37,338.37c-.51,.09-.96-.16-1.44-.24,.66-1.02,1.06-.45,1.44,.24Z"/><path class="cls-4" d="M131.25,338.13c-.48,.08-.93,.33-1.44,.24,.38-.69,.78-1.26,1.44-.24Z"/><path class="cls-4" d="M161.25,331.17c-.42,.35-.91,.46-1.44,.48,.23-.92,.77-.89,1.44-.48Z"/><path class="cls-4" d="M154.53,331.18c.48-.16,.96-.32,1.44-.48-.27,.78-.59,1.43-1.44,.48Z"/><path class="cls-4" d="M140.85,334.29c.42-.43,.96-.16,1.44-.24-.27,1.38-.94,.29-1.44,.24Z"/><path class="cls-4" d="M118.06,334.29c.48,.08,1.02-.19,1.44,.24-.5,.06-1.18,1.13-1.44-.24Z"/><path class="cls-4" d="M142.29,336.45c-.59,.36-1.27,.35-1.92,.48,.41-1.06,1.24-.49,1.92-.48Z"/><path class="cls-4" d="M147.33,333.09c.42-.43,.96-.16,1.44-.25-.38,.66-.81,1.03-1.44,.25Z"/><path class="cls-4" d="M136.05,337.65c-.4,.08-.8,.16-1.2,.24,.01-.31-.02-.66,.42-.7,.36-.04,.73-.04,.78,.46Z"/><path class="cls-4" d="M145.17,333.57c.34-.39,.8-.18,1.2-.24-.22,1.01-.67,.8-1.2,.24Z"/><path class="cls-4" d="M115.42,333.81c.41,.06,.86-.16,1.2,.24-.53,.56-.99,.77-1.2-.24Z"/><path class="cls-4" d="M125.02,335.02c.96,.11,1.95-.26,2.88,.23-.96-.12-1.95,.25-2.88-.23Z"/><path class="cls-4" d="M152.85,331.66c.37-.24,.78-.26,1.2-.25-.23,.91-.63,.97-1.2,.25Z"/><path class="cls-1" d="M162.69,330.45h1.44c-.51,.32-1.09,.43-1.68,.48,0-.2,.05-.38,.24-.48Z"/><path class="cls-4" d="M119.5,338.13c-.4-.08-.8-.16-1.2-.24,.56-.74,.96-.66,1.2,.24Z"/><path class="cls-1" d="M178.76,327.33c-.3,.16-.61,.28-.96,.24,.28-.26,.41-1.08,.96-.24Z"/><path class="cls-1" d="M180.2,327.09c-.3,.16-.61,.28-.96,.24,.28-.26,.41-1.08,.96-.24Z"/><path class="cls-1" d="M183.56,326.61c-.3,.16-.61,.28-.96,.24,.28-.26,.41-1.08,.96-.24Z"/><path class="cls-4" d="M132.69,335.01c.51-.45,1.12-.15,1.68-.23-.51,.45-1.12,.14-1.68,.23Z"/><path class="cls-1" d="M185.48,326.37c-.3,.16-.61,.28-.96,.24,.28-.26,.41-1.08,.96-.24Z"/><path class="cls-1" d="M181.16,324.21c.25-.35,.63-.21,.96-.24-.15,.79-.59,.37-.96,.24Z"/><path class="cls-1" d="M184.04,323.73c.18-.28,.46-.23,.72-.23-.1,.51-.33,.63-.72,.23Z"/><path class="cls-1" d="M186.68,323.25c.18-.28,.46-.23,.72-.23-.1,.52-.33,.63-.72,.23Z"/><path class="cls-1" d="M167.25,329.73c.18-.44,.55-.5,.96-.48v.24c-.3,.16-.61,.28-.96,.24Z"/><path class="cls-4" d="M136.05,334.77c.42-.43,.96-.16,1.44-.23-.42,.43-.96,.16-1.44,.23Z"/><path class="cls-43" d="M47.27,643.29c0-.64,0-1.08,0-1.52,0-1.75,.65-2.87,2.34-3.33,3.04-.84,5.94-2.05,8.89-3.14,2.82-1.04,5.54-.08,8.03,1.55,2.31,1.51,4.75,2.75,7.43,3.5,3.28,.92,6.43,.51,9.54-.67,1.65-.63,3.24-1.41,4.63-2.46,2.4-1.8,5.05-2.81,8-3.18,1.14-.14,2.27-.4,3.33-.89,.66-.31,1.07-.16,1.35,.6,1.28,3.46,1.43,6.98,.81,10.58-.12,.7-.22,1.42-.4,2.1-.26,.98-.78,1.39-1.93,1.18-4.25-.76-8.53-1.39-12.8-2.06-2.01-.31-4.04-.55-6.05-.45-5.12,.26-10.18,.98-15.19,2.12-5.35,1.22-10.68,2.51-15.97,3.96-1.05,.29-1.49,.02-1.5-.97-.03-2.39-.65-4.74-.51-6.93Z"/><path class="cls-43" d="M92.23,656.59c-3.18,.1-6.32,.44-9.47,.9-2.98,.44-6,.59-8.97,1.05-5.19,.79-10.4,.78-15.61,.66-2.48-.06-5.02-.14-7.28-1.49-.67-.4-1.25-.88-1.66-1.52-.76-1.17-.31-2.22,1.03-2.45,1.6-.28,3.21-.48,4.81-.75,3.05-.5,6.09-1.04,9.14-1.53,2.93-.47,5.88-.85,8.84-1.15,2.06-.22,4.13-.3,6.18-.38,4.5-.18,8.92,.69,13.34,1.48,1.83,.33,3.64,.82,5.51,.88,.89,.03,1.27,.32,.72,1.3-1.09,1.96-2.7,2.95-4.92,3-.56,.01-1.12,0-1.68,0Z"/><path class="cls-51" d="M105.76,633.07c-.73,.07-.85-.54-1.02-.99-.24-.64-.72-1.34,.06-1.95,1.72-1.34,3.45-2.67,5.19-3.99,.55-.42,1.13-.4,1.59,.15,.51,.6-.08,.91-.39,1.29-1.12,1.34-2.21,2.7-3.35,4.02-.56,.66-1.11,1.39-2.08,1.48Z"/><path class="cls-37" d="M37.91,617.72c-.66-.39-1.11-.32-1.21,.55-.05,.4-.27,.64-.7,.62-.21-1.3,.23-2.43,.92-3.48,.69-1.06,1.14-2.17,.96-3.77,1.16,2.13,.62,4.13,.74,6.06-.23,.22-.47,.19-.72,.01Z"/><path class="cls-27" d="M37.91,617.72c.24,0,.48,0,.72-.01,.16,.08,.32,.16,.48,.25,.39,.43,.46,.9,.08,1.35-.17,.19-.43,.36-.73,.2-.48-.26-.58-.7-.54-1.2,.01-.19,0-.39,0-.59Z"/><path class="cls-41" d="M79.12,634.72c.43-.02,.81,.05,.8,.61,0,.64-.46,.62-.91,.64-.44,.01-.77-.06-.78-.62-.01-.69,.46-.6,.89-.62Z"/><path class="cls-17" d="M29.5,230.35c3.59-.03,5.8,1.47,7.32,4.15,.44,.79,.47,1.7,.56,2.54,.2,1.73,.2,3.49,.29,5.24,.04,.77-.27,1.24-1.02,1.55-4.27,1.76-8.56,1.89-12.9,.28-.57-.21-.98-.4-.97-1.13,.02-2.07,.08-4.14-.22-6.2-.46-3.18,1.96-4.9,4.11-5.88,1.03-.47,2.13-.64,2.84-.55Z"/><path class="cls-17" d="M34.8,247.85c.16,.97-.25,1.97-.64,2.97-.22,.58-.66,.98-1.22,1.25-.38,.18-1.08,.03-.76,.91,.11,.3-.49,.39-.83,.44-1.94,.27-3.14-.96-4.1-2.28-.83-1.15-1.02-2.65-1.09-4.09-.03-.59,.09-.83,.82-.7,2.03,.36,4.07,.42,6.12-.07,1.7-.41,1.71-.37,1.7,1.57Z"/><path class="cls-17" d="M30.42,265.42c-1.95,0-1.92-.19-2.15-2.06-.34-2.68,.18-5.41-.57-8.05-.17-.6,.15-.76,.61-.67,1.18,.24,2.37,.22,3.56,.24,.5,0,.68,.42,.42,.73-.69,.82-.41,1.71-.38,2.6,.08,2.1-.06,4.21,.11,6.32,.09,1.16-.99,.83-1.6,.9Z"/><path class="cls-17" d="M26.83,229.24c0,.44-.36,.51-.63,.6-.34,.1-.51-.1-.5-.44,0-.29,.1-.58,.42-.6,.32-.03,.6,.12,.71,.44Z"/><path class="cls-17" d="M33.71,229.81c-.27-.12-.68-.16-.68-.52,0-.31,.31-.54,.65-.54,.39,0,.38,.32,.37,.59,0,.23,.01,.49-.35,.47Z"/><path class="cls-17" d="M30.99,228.4h-2.42s0-.07,0-.1h2.42s0,.07,0,.1Z"/><path class="cls-25" d="M214.73,386.37c.28-1.32,1.01-2.07,2.18-2.39,.42-.12,.84-.29,1.26-.33,.59-.05,1.32-.85,1.73-.06,.4,.77-.47,2.23-1.28,2.56-.53,.21-1.08,.24-1.64,.23-.71-.01-1.43,0-2.25,0Z"/><path class="cls-23" d="M221.52,379.98c-.11,.5-.54,.54-.91,.55-.22,0-.66-.13-.5-.46,.16-.32,.51-.62,.93-.64,.31,0,.48,.22,.48,.55Z"/><path class="cls-18" d="M119.24,450.68c.08-.54,.17-1.07,.24-1.61,.1-.71,.56-.97,1.21-1,.27,1.08-.35,1.95-.71,2.88-.25-.09-.5-.18-.74-.27Z"/><path class="cls-51" d="M138.77,49.93c-3.11,.03-5.83-.85-8.13-3.09-2.33-2.28-2.1-6.42,.66-8.55,4.04-3.11,9.85-3.42,14.12-.55,4.23,2.85,4.08,7.5,.2,10.18-2.15,1.49-3.99,2-6.86,2.01Z"/><path class="cls-42" d="M111.51,36.46c2.05-.07,4.35,.71,6.45,2.14,3.54,2.39,3.63,6.91,.3,9.6-4.17,3.36-10.94,3.15-14.96-.2-2.93-2.44-2.66-7.04,.52-9.32,2.15-1.54,4.55-2.22,7.69-2.21Z"/><path class="cls-43" d="M132.79,58.43c-.55,1.4-1.12,2.33-1.83,3.2-1.16,1.45-2.63,1.51-4.21,1.04-2.29-.69-4.45-1.72-6.57-2.82-.2-.11-.51-.16-.52-.43,0-.38,.36-.37,.61-.43,1.7-.41,3.38-.19,5.06,.19,1.73,.39,3.46,.89,5.27,.34,.68-.21,1.26-.61,2.18-1.09Z"/><path class="cls-22" d="M105.18,81.97c3.83,2.31,7.62,4.14,11.74,5.22,8.64,2.27,16.83,1.43,24.39-3.59,.69-.46,.93-.41,.95,.47,.03,2.28,.27,4.54,.88,6.74,.26,.91-.34,1.23-1,1.48-2.16,.83-4.41,1.41-6.69,1.72-5.5,.74-11.03,1.21-16.59,.95-3.7-.17-7.39-.55-11.02-1.36-2.45-.55-3.12-1.34-3.04-3.79,.08-2.54,.24-5.08,.38-7.84Z"/><path class="cls-32" d="M181.5,615.06c-.27-.02-.58-.03-.46-.38,.25-.74,.77-1.32,1.48-1.6,.24-.09,.8,.42,.71,.79-.21,.85-1.03,.99-1.73,1.18Z"/><path class="cls-1" d="M170.6,329.01c.1-.51,.32-.63,.72-.24-.24,.08-.48,.16-.72,.24Z"/><path class="cls-43" d="M30.04,243.58c-3.03,0-5.57-2.53-5.56-5.53,0-3.04,2.89-6,5.82-5.99,3.02,.01,5.46,2.59,5.46,5.77,0,3.27-2.47,5.76-5.71,5.75Z"/><path class="cls-22" d="M138.86,36.89c2.6,.03,4.98,.66,6.93,2.48,2.3,2.14,2.29,4.96,0,7.13-3.49,3.32-10.65,3.29-14.11-.06-2.26-2.19-2.24-5,.1-7.13,2-1.82,4.43-2.45,7.08-2.42Z"/><path class="cls-10" d="M111.1,37.44c2.31,.1,4.56,.64,6.49,2.16,2.82,2.22,2.81,5.59,0,7.82-3.55,2.82-9.45,2.9-13.07,.17-3.1-2.33-3.07-5.93,.07-8.2,1.91-1.38,4.09-1.9,6.5-1.95Z"/><path class="cls-17" d="M27.64,241.07c-1.96-1.37-2.47-3.58-1.33-5.41,1.16-1.87,3.37-2.41,5.61-1.22-2.01-.11-3.76-.03-4.85,1.79-1.07,1.79-.53,3.32,.57,4.84Z"/><path class="cls-17" d="M33.24,240.02c.42-1.17,.82-2.34,.37-3.61,.71,1.24,.62,2.25-.37,3.61Z"/><path class="cls-17" d="M29.32,241.75c.5-.06,.96-.18,1.48,.05-.56,.13-1.04,.17-1.48-.05Z"/><path class="cls-15" d="M134.86,40.82c2.46-1.33,5.12-1.44,7.81-1.17,1.07,.11,2.05,.54,2.41,1.69,.36,1.16-.12,2.07-.98,2.87-1.89,1.75-4.11,2.43-6.62,2.05-1.52-.23-2.76-1-3.59-2.35-.04-.48,.33-.41,.61-.46,.28,.01,.53,.13,.78,.26,.49,.24,1.05,.62,1.45-.05,.37-.62,.41-1.29-.38-1.71-.55-.31-1.57,0-1.48-1.13Z"/><path class="cls-48" d="M134.86,40.82c.19,1,1.19,.46,1.68,.9-.83,.45-1.65,.9-1.88,1.93-.28,.04-.59-.04-.78,.27-.95-1.54-.75-2.19,.97-3.09Z"/><path class="cls-50" d="M113.49,45.59c-1.73,1.28-3.65,1.71-5.75,1.21-1.77-.42-2.8-1.8-2.85-3.79-.04-1.54,.7-2.45,2.54-3,2.69-.8,5.35-.63,7.97,.35,.72,.27,1.49,.62,1.57,1.48,.09,.88-.5,1.46-1.23,1.88-.22,.11-.45,.19-.71,.09-.52-.74-.73-1.78-1.93-1.85-.51-.03-.8,.05-.98,.59-.81,2.41-.83,2.4-3.38,2.16-.09,0-.16,.03-.24,.16,.69,.47,1.42,.27,2.14,.16,.78-.11,1.51-.55,2.34-.31,.33,.2,.63,.41,.52,.87Z"/><path class="cls-39" d="M113.49,45.59l-.48-.76c.32-.87,.98-1.2,1.87-1.16,.29,.02,.57,.05,.86,.07-.52,.89-1.16,1.64-2.24,1.86Z"/><path class="cls-21" d="M140.21,44.03c.09-.54,.17-1,.25-1.47,.25-1.37,1.63-1.85,2.75-.95,.46,.36,.33,.75,.08,1.15-.73,1.15-1.86,1.3-3.07,1.27Z"/><path class="cls-24" d="M134.66,43.65c-.21-1.35,.17-1.74,1.88-1.93,.85,.52,1.03,1.31,.51,2.15-.53,.86-1.16,.6-1.8,.16-.2-.13-.39-.26-.59-.39Z"/><path class="cls-12" d="M139.39,42.23c-.18,.32-.27,.77-.73,.68-.48-.09-.54-.51-.5-.93,.03-.36,.21-.66,.58-.59,.43,.07,.63,.42,.65,.84Z"/><path class="cls-26" d="M114.87,43.66c-.65,.35-1.33,.64-1.87,1.16-.97,.2-1.95,.38-2.91,.62-.58,.15-1.11,.01-1.64-.14-.23-.06-.65-.13-.57-.47,.06-.27,.29-.58,.7-.5,.23,.04,.47,.05,.7,.12,1.29,.4,2.29-.17,2.5-1.51,.11-.71-.06-1.51,1.11-1.35,1.59,.22,2.05,.66,1.98,2.06Z"/></g></g></svg>