<?xml version="1.0" encoding="UTF-8"?><svg id="Layer_1" xmlns="http://www.w3.org/2000/svg" viewBox="0 0 1000 1000"><defs><style>.cls-1{fill:#f4b818;}.cls-2{fill:#f3f2f2;}.cls-3{fill:#f2f1f0;}.cls-4{fill:#040407;}.cls-5{fill:#04020e;}.cls-6{fill:#040119;}.cls-7{fill:#040309;}.cls-8{fill:#040304;}.cls-9{fill:#04030c;}.cls-10{fill:#010101;}.cls-11{fill:#010102;}.cls-12{fill:#010202;}.cls-13{fill:#010104;}.cls-14{fill:#030303;}.cls-15{fill:#030308;}.cls-16{fill:#03020c;}.cls-17{fill:#03020f;}.cls-18{fill:#030206;}.cls-19{fill:#060404;}.cls-20{fill:#050505;}.cls-21{fill:#05040c;}.cls-22{fill:#05040b;}.cls-23{fill:#020205;}.cls-24{fill:#020203;}.cls-25{fill:#02010b;}.cls-26{fill:#eeeded;}.cls-27{fill:#f0efef;}.cls-28{fill:#f4f3f3;}.cls-29{fill:#f4f3f2;}.cls-30{fill:#f5b917;}.cls-31{fill:#fcfcfc;}.cls-32{fill:#edecec;}.cls-33{fill:#edeceb;}.cls-34{fill:#fff;}.cls-35{fill:#f1f0f0;}.cls-36{fill:#fefefe;}.cls-37{fill:#fefefd;}.cls-38{fill:#fcbd13;}.cls-39{fill:#e5e3e3;}.cls-40{fill:#fdfdfd;}.cls-41{fill:#febf12;}.cls-42{fill:#febf11;}.cls-43{fill:#664d1f;}.cls-44{fill:#664e1f;}.cls-45{fill:#b68e6c;}.cls-46{fill:#b98f6c;}.cls-47{fill:#b9b8b7;}.cls-48{fill:#33281e;}.cls-49{fill:#333435;}.cls-50{fill:#312a24;}.cls-51{fill:#312924;}.cls-52{fill:#a9a7c8;}.cls-53{fill:#a78262;}.cls-54{fill:#b08b6e;}.cls-55{fill:#c0bec8;}.cls-56{fill:#d0a27b;}.cls-57{fill:#d2a47c;}.cls-58{fill:#d4d3d2;}.cls-59{fill:#d9d9d8;}.cls-60{fill:#e0dede;}.cls-61{fill:#d6a77e;}.cls-62{fill:#140e08;}.cls-63{fill:#150f07;}.cls-64{fill:#130f0e;}.cls-65{fill:#130e0e;}.cls-66{fill:#140f10;}.cls-67{fill:#140f0b;}.cls-68{fill:#140f0f;}.cls-69{fill:#141212;}.cls-70{fill:#121129;}.cls-71{fill:#12112d;}.cls-72{fill:#12112f;}.cls-73{fill:#12112c;}.cls-74{fill:#12112e;}.cls-75{fill:#13100d;}.cls-76{fill:#131135;}.cls-77{fill:#171515;}.cls-78{fill:#17130e;}.cls-79{fill:#171412;}.cls-80{fill:#17181d;}.cls-81{fill:#181209;}.cls-82{fill:#18120e;}.cls-83{fill:#181215;}.cls-84{fill:#252537;}.cls-85{fill:#171212;}.cls-86{fill:#24205d;}.cls-87{fill:#1f1811;}.cls-88{fill:#1f1814;}.cls-89{fill:#1e1713;}.cls-90{fill:#221f5a;}.cls-91{fill:#222027;}.cls-92{fill:#222232;}.cls-93{fill:#221a1f;}.cls-94{fill:#21212b;}.cls-95{fill:#201d57;}.cls-96{fill:#201c57;}.cls-97{fill:#201c56;}.cls-98{fill:#0c0b11;}.cls-99{fill:#0c0b0b;}.cls-100{fill:#0c0a27;}.cls-101{fill:#0b0b19;}.cls-102{fill:#0b0a1e;}.cls-103{fill:#403327;}.cls-104{fill:#120d0d;}.cls-105{fill:#120f0d;}.cls-106{fill:#120f0c;}.cls-107{fill:#120f35;}.cls-108{fill:#08050d;}.cls-109{fill:#080717;}.cls-110{fill:#080716;}.cls-111{fill:#070515;}.cls-112{fill:#070504;}.cls-113{fill:#07070b;}.cls-114{fill:#070710;}.cls-115{fill:#07060f;}.cls-116{fill:#1b1612;}.cls-117{fill:#0d0c20;}.cls-118{fill:#0d0d19;}.cls-119{fill:#0d0d25;}.cls-120{fill:#0d0d0d;}.cls-121{fill:#0d0c2d;}.cls-122{fill:#0d0b28;}.cls-123{fill:#0d0b21;}.cls-124{fill:#0d0907;}.cls-125{fill:#110c0c;}.cls-126{fill:#111224;}.cls-127{fill:#111225;}.cls-128{fill:#111125;}.cls-129{fill:#100c1b;}.cls-130{fill:#100b08;}.cls-131{fill:#100b0c;}.cls-132{fill:#100c0c;}.cls-133{fill:#1d1917;}.cls-134{fill:#101014;}.cls-135{fill:#0f0b2e;}.cls-136{fill:#1d1d2c;}.cls-137{fill:#0f0c30;}.cls-138{fill:#0f0f14;}.cls-139{fill:#1c184f;}.cls-140{fill:#1c174e;}.cls-141{fill:#0f0d2d;}.cls-142{fill:#0e0e16;}.cls-143{fill:#37374b;}.cls-144{fill:#19130d;}.cls-145{fill:#3f3225;}.cls-146{fill:#0e0d22;}.cls-147{fill:#1a140d;}.cls-148{fill:#826852;}.cls-149{fill:#29276b;}.cls-150{fill:#594635;}.cls-151{fill:#2a2a33;}.cls-152{fill:#2a276c;}.cls-153{fill:#2a286d;}.cls-154{fill:#473e37;}.cls-155{fill:#2c231b;}.cls-156{fill:#2c231a;}.cls-157{fill:#353537;}.cls-158{fill:#353535;}.cls-159{fill:#352d27;}.cls-160{fill:#3b3b3b;}.cls-161{fill:#313131;}.cls-162{fill:#3a3937;}.cls-163{fill:#352f2b;}.cls-164{fill:#3b2f23;}.cls-165{fill:#3b2e23;}.cls-166{fill:#272422;}.cls-167{fill:#27211c;}.cls-168{fill:#272835;}.cls-169{fill:#616161;}.cls-170{fill:#513f30;}.cls-171{fill:#503f3f;}.cls-172{fill:#4e3d2f;}.cls-173{fill:#4e3e3e;}.cls-174{fill:#312f2c;}.cls-175{fill:#261d1d;}.cls-176{fill:#261d17;}.cls-177{fill:#282018;}.cls-178{fill:#282568;}.cls-179{fill:#282567;}.cls-180{fill:#4f3e3f;}</style></defs><path class="cls-153" d="M567.57,674.82c.06,.61,.13,1.22,.19,1.82-.08,.92,1.16,2.1-.52,2.71-.51,.19-.52,.54-.45,1.01,1.39,9.85,.27,19.73,.28,29.59,0,11.81,1.38,23.5,2.58,35.23,1.05,10.21,5.78,19.3,7.42,29.26,.68,4.12,2.06,8.12,1.93,12.38-.14,4.77-2.35,7.9-6.92,9.31-2.56,.79-5.21,1.35-7.89,1.56-10.38,.81-20.61,3.03-31,3.55-8.76,.45-17.51,1.82-26.33,.5-4.68-.7-7.97-2.93-9.7-7.37,.13-1.73-.58-3.23-1.16-4.8-.77-2.09-.97-4.3-.68-6.53,.2-1.03,.5-2.03,1.1-2.91,1.32-.98,2.09,.09,3.07,.73,3.24,2.12,5.89,5.02,9.1,6.7-3.46-2.21-6.69-5.18-10.23-7.73-1.68-1.21-1.64-2.51-.95-4.2,1.08-2.65,3.98-5.18,3.24-7.76-.83-2.88-.85-5.81-1.63-8.62-.8-2.9-1.95-5.69-2.46-8.68-.17-2.05,.21-4.13-.48-6.14-.55-12.14-.17-24.29-.2-36.44,0-1.01-.11-2.49,1.16-2.68,1.2-.18,1.61,1.2,2.06,2.15,1.02,2.13,1.25,4.55,2.21,6.26-1.53-4.85-3.44-10.02-5.16-15.24-.61-1.85-1.45-3.54-2.27-5.29-1.89-4.03-1.97-8.52-2.47-12.84-1.11-9.6-2.68-19.12-4.77-28.54-.71-3.23-2.47-6.22-4.09-9.09-3.07-5.44-3.72-11.12-2.78-17.1,1.1-7.02,.9-14.14,1.75-21.17,.21-1.71,0-3.43-1.31-4.79-.3-.18-.53-.43-.7-.74-.76-1.76-.12-3.73-.81-5.5-.12-8.89-3.3-17.46-2.75-26.44,.18-2.9-.91-5.66-1.9-8.4-1.27-3.52-2.88-6.92-3.76-10.59-.44-1.82-1.26-3.55-2.98-4.66,2.86,5.03,4.74,10.47,6.86,15.81,1.49,3.77,1.92,7.67,1.89,11.67,0,.75,.02,1.52-.66,2.06-2.04-.39-2.08-2.26-2.63-3.68-2.73-7.01-4.95-14.24-8.78-20.77-.63-1.07-1.13-2.23-2.4-3.4,2.98,10.63,5.23,21.01,7.58,31.36,3.63,15.97,4.28,32.09,2.4,48.39-.75,6.47,1.08,12.83,3.41,18.88,3.09,8.03,6.17,16.06,9.11,24.15,2.6,7.16,3.72,14.62,3.79,22.16,.1,11.18,.17,22.36,1.4,33.48,.75,6.83,2.15,13.57,2.97,20.4,.51,4.27,.87,8.55,1.4,12.82,.46,3.73-.39,7.18-2.41,10.46-4.45,7.2-4.79,15.01-2.81,23.04,.23,.94,.74,1.78,1.18,2.65,.97,1.92,2.13,2.19,3.73,.62,.93-.92,1.62-2.44,3.41-1.89,.51,.86,.22,1.79,.26,2.7-.56,3.19-1.67,4.08-5.06,4.76-4.94,1-9.91,.49-14.74-.19-6.45-.91-12.94-1.71-19.3-3.47-4.71-1.31-6.73-4.1-7.48-8.47-1.23-7.15-3.03-14.21-3.48-21.49-.67-10.7-2.01-21.36-1.18-32.11,1.15-14.92,.73-29.8-.63-44.71-.74-8.11-1.04-16.27-1.62-24.41-.25-3.54-.91-7-1.95-10.39-.38-1.25-.8-2.72,.5-3.51,1.32-.79,2.09,.64,2.88,1.42,1.98,1.95,3.9,3.96,5.78,6.01-2.9-3.68-5.97-7.23-8.93-10.86-1.66-2.04-2.84-4.29-3.33-6.89-.14-5.81-.11-11.62-.04-17.43,.02-2.02,.13-4.03,1.01-5.98,.96-2.14,.5-4.52,.07-6.68-1.45-7.26-2.56-14.59-4.07-21.84-.36-1.72-1.45-3.47-.14-5.23,.14-.18,.2-.24,.05-.5-3.63-6.14-3.23-13.23-4.53-19.9-1.1-5.67-1.36-11.51-2.24-17.24-.73-4.7-.54-9.42-1-14.13-.81-8.33-1.26-16.71-.53-25.09,.03-.32-.05-.67,.07-.96,.65-1.63,.43-4.27,2.58-4.39,2.18-.11,1.85,2.36,2.25,3.94,.32,1.25,.82,2.44,1.31,3.64,.24,.58,.53,1.28,1.34,1.12,.73-.15,.93-.85,1.04-1.48,.28-1.6,.05-3.22,.16-4.83,.14-5.06,.21-4.89,5.3-5.5,14.72-1.77,29.52-2.58,44.29-3.61,10.3-.72,20.56-1.52,30.66-3.76,4.2-.93,8.28-2.3,12.3-3.84,1.38-.53,2.71-1.39,4.31-.94,1.29,3.32,.25,6.71,.25,10.07,0,.96-.39,1.91-.31,2.88,.16,1.86-.2,4.05,2.13,4.92,2.21,.83,5.53-.5,6.69-2.68,1.18-2.23,1.36-4.73,1.47-7.18,.11-2.57,.26-5.15-.23-7.71-.18-.97-.2-1.93,.44-2.77,1.94-.98,3.96-1.07,6.03-.52,.13,4.05-.42,8.09,.23,11.7,.1-3.65-1.35-7.91,.81-11.84,2.19-1.25,4.62-.89,6.89-.67,3.83,.38,7.6,.68,11.32-.6,1.38,1.02,1.5,2.55,1.53,4.06,.17,11.51,.3,23.02-1.43,34.44-.95,6.29-3.4,12.22-4.93,18.37-.7,2.81-1.36,5.63-1.95,8.47-.67,3.2-1.74,6.19-3.83,8.77-.72,.89-1.42,1.85-1.66,3.36-.04,.1,.56-.4,.13-.36-.15,.01-.17-.09-.04-.32,.15-.28,.3-.57,.48-.84,.46-.68,.79-1.75,1.86-1.36,.94,.34,.94,1.39,.92,2.22-.05,2.15,.25,4.3,.11,6.45-.64,9.74-1.24,19.5-2.23,29.21-.73,7.14-1.56,14.27-1.97,21.45-.88,4.64-.87,9.33-.87,14.01,0,.5,.03,1-.29,1.43-.86,.25-.94,.88-1.04,1.7-.18,1.42-1.05,.96-2.13,.26,7.24,10.75,10.15,22.92,14,34.72,.35,1.44,1,2.8,1.08,4.31,.35,1.24,.69,2.49,1.45,3.56Z"/><path class="cls-153" d="M592.27,308.06c.09,.22,.05,.42-.12,.6-1.15,2.16-.64,4.88-2.32,6.85-.67,.64-.35,1.62-.74,2.36,.42-.87,.19-1.96,.94-2.72,.23-.61,.62-.93,1.14-.36,.53,.57,.65,1.35,.68,2.11,.52,12.66-.86,25.1-4.65,37.2-1.3,4.16-2.29,4.42-6.4,2.6-4.03-1.78-8.09-3.45-12.34-4.63-8.77-2.43-17.67-1.7-26.54-.91-3.87,.34-7.71,.43-11.57,.4-5.29-.04-7.1-3.01-5.04-8.09,1.26-1.18,.64-2.6,.46-3.94-1.23-9.08-1.45-18.11,.93-27.05-2.34,8.82-2.24,17.74-1.02,26.72,.17,1.22,.85,2.5-.02,3.74-1.39,1.51-1.52,3.4-.98,5.14,.86,2.75,.82,5.52,.69,8.29-.25,5.4,.42,10.68,1.57,15.93,.7,3.21,.17,4.03-3.19,4.38-9.71,1.01-19.2,3.11-28.57,5.78-6.59,1.88-13.1,4.04-19.34,6.91-1.73,1-3.56,1.22-5.56,1.04-3.19-.28-6.4-.29-9.6,.16-4.02,.56-6.71-1.03-8.6-4.56-2.37-4.43-3.85-9.28-6.48-13.59-1.06-1.73-.76-3.72-.59-5.65,.1-.74,.55-1.45,.39-2.19-.97-4.5-.48-8.39,2.94-12.05,1.72-1.84,.59-5.15,.94-7.79,.29-2.22,.47-4.46,.96-6.65,1.57-5.47,2.42-11.1,3.62-16.65,2.88-13.28,9.58-23.47,22.33-29.31,13.01-5.96,23.65-15.09,33.06-25.77,2.63-2.99,5.1-6.11,7.76-9.05,5.67-6.29,9.32-6.59,15.35-4.01,3.06,1.31,6.25,2.31,9.4,3.39,3.26,1.13,5.89,.73,7.99-2.11,.09-.58,1.7-.25,.76-1.52-3.56-4.79-5.48-10.42-7.81-15.83-.37-.86-.98-1.96-.1-2.69,.87-.73,1.85,0,2.62,.56,1.33,.97,2.81,1.52,4.35,2.04,9.31,3.15,17.66,8.23,26.14,13.04,4.71,2.67,8.15,6.64,10.59,11.43,3.87,7.57,7.11,15.38,8.15,23.93,.06,.46,.01,.84-.21,1.23-.31,.17-.63,.21-.97,.11-7.71-6.22-16.88-7.55-26.33-7.65-7.86-.09-9.79,2.93-7.04,10.28,.55,1.48,1.54,2.88,1.19,4.6-7.54,12.07-3.62,24.01,6.16,32.43,.49,.42,1.06,.75,1.52,1.2,5.03,4.97,4.86,3.22,8.3-.26,5.09-5.15,9.64-10.72,12.13-17.67,.32-.9,.61-1.87,1.71-2.19,.52-.06,.97,.05,1.32,.47Z"/><path class="cls-10" d="M497.43,794.27c2.29,2.44,3.9,5.75,7.67,6.34,4.24,.66,8.55,1.35,12.78,.66,5.74-.93,11.53-.18,17.28-1.11,7.57-1.22,15.22-1.93,22.82-2.9,4.22-.54,8.48-.66,12.67-1.62,4.73-1.08,7.54-4.18,7.39-8.99-.22-7.33-2.19-14.4-4.37-21.28-2.65-8.37-4.36-16.78-5.47-25.51-2-15.7-2.03-31.41-1.85-47.15,.06-5.24,.42-10.46-1.44-15.54,1.71-.24,1.58,1.43,2.49,1.75,.93-.69-.66-1.65,.33-2.3,1.25,2.51,2.16,4.89,1.3,7.96-.79,2.83-.51,5.97-.57,8.95-.14,7.4-1.43,14.79-.67,22.18,.96,9.31,.12,18.78,2.53,27.96,1.76,6.71,3.57,13.41,5.57,20.06,2.1,7,3.53,14.19,4.51,21.43,.5,3.68-.46,7.27-3.46,9.88-1.16,1.01-1.51,2.14-1.49,3.64,.16,8.87,.75,17.75,2.1,26.47,1.02,6.65-2.17,10.94-5.6,15.7-5.21,7.22-12.85,9.3-20.9,10.87-3.74,.73-7.43,1.73-11.17,2.49-.5,.1-1.66,.66-1.69-.64,0-.29,.71-.61,1.12-.93-1.18-.44-2.23-.19-3.36,.29-8.28,3.54-16.91,4.07-25.72,2.81-9.32-1.34-18.65-1.43-28.05-.87-4.17,.25-8.43-.8-12.64-1.35-2.32-.3-3.93-1.64-4.43-3.95-.31-1.44-.81-1.74-2.1-1.04-6.24,3.39-12.94,1.81-19.48,1.67-2.96-.06-5.91-.64-8.86-.95-3.84-.41-5.87-2.59-6.15-6.46-.25-3.6-1.93-7.1-1.23-10.72,1.19-6.21,2.52-12.53,5.65-18.01,2.3-4.03,7.11-5.17,11.47-6.25,3.19-.79,6.45-1.39,9.7-1.86,3.11-.45,7.29-5.18,7.11-8.24-.06-1.02-.81-.91-1.34-.97-8.06-.9-9.51-6.76-10.9-13.4-2.35-11.21-3.1-22.53-4.01-33.89-1.03-12.89,1.08-25.66,.53-38.51-.45-10.47-1.48-20.87-2.31-31.3-.42-5.24-.47-10.51-.7-15.76-.15-3.41-.98-6.7-1.65-10.02-1.74-8.64-4.97-17.1-3.4-26.17,1.98-.62,1.43,.94,1.47,1.81,.16,3.46-.2,6.94,.21,10.4,1.36,5.48,5.9,8.79,8.94,13.13,1.68,2.4,4.27,4.13,5.74,7.9-5.25-2.83-7.61-7.49-11.59-10.61-.93,2.35,.34,4.17,.86,6.01,1.48,5.2,1.58,10.59,1.88,15.88,.96,16.48,2.76,32.93,2.07,49.48-.24,5.68-.54,11.36-.64,17.05-.2,11.59,.64,23.14,2.03,34.63,.67,5.49,2.31,10.85,3.41,16.29,.49,2.43,2.03,3.58,4.22,4.33,5.91,2.04,12.1,2.5,18.2,3.48,5.46,.88,10.95,1.42,16.53,.81,2.86-.31,5.02-1.06,5.92-3.99,.22-.37,.45-.37,.69-.01Z"/><path class="cls-12" d="M439.16,639.89c-1.07-3.07-.21-6.25-.51-9.37-.1-1.05,.55-2.45-1.17-2.85,.18-4.14,.37-8.25,1.33-12.34,.72-3.08,.66-6.39-2.75-8.34-2.45-1.4-2.81-4.03-3.11-6.33-.7-5.27-.98-10.6-1.35-15.92-.08-1.2-.03-2.16-1.38-2.86-2.71-1.41-2.85-3.75-2.25-6.56,1.02-4.86,2.56-9.67,1.68-14.81-2.66-15.61-3.61-31.37-3.56-47.18,.01-4.46-.31-9.07,2.06-13.35,1.07-1.94-.83-4.28-.5-6.58-1.95,.01-3.33,1.16-4.92,1.67-2.21,.71-3.69,.24-4.13-2.3-.61-3.57-1.36-7.13-1.19-10.77,.08-1.74-.43-3-1.72-4.21-4.27-4-6.08-9.02-6.09-14.86-.02-6.54,.57-12.95,2.76-19.16,1.55-4.4,4.65-6.37,9.2-6.12,2.37,.13,3.38,.07,2.44-3.06-1.64-5.44-3-11.12-.62-16.81,.1-.59-.06-1.29,.71-1.58,.52-.09,.97,.02,1.25,.51,.16,.7,.03,1.39-.05,2.08-.92,4.85-.65,9.61,.78,14.35,.7,2.31,1.95,3.3,4.41,3.9,12.26,2.98,23.84-.25,35.54-3.2,10.64-2.68,21.45-4.27,32.44-4.81,5.36-.26,10.71-.63,16.08-.54,8.27-1.04,16.58-1.75,24.82-3.06,2.08-.33,3.6-1.6,5.37-2.47,3.06-1.51,6.57-1.95,9.99-2.11,3.21-.15,6.4-.33,9.6-.68,3.93-.43,4.14-.63,3.53-4.86-3.23,.12-5.69,2.45-8.74,3.04-5.46,2.38-11.22,2.48-17.01,2.32-15.64,.4-31.08-1.63-46.52-3.7-3.51-.47-7.03-.91-10.55-1.34-3.36-.42-6.5-.36-9.98,.98-4.05,1.56-8.9,1.83-12.68-1.78-1.74-1.67-3.71-1.48-5.71-.76-1.62,.58-3.09,1.51-4.67,2.19-2.46,1.07-4.95,1.44-7.51,.36-1.01-.43-2.02-.81-3.05-.08-.58,.21-.95-.08-1.24-.54-.28-1.28-.32-2.22-2.39-2.23-2.69,0-5.5-.83-7.63-2.89-.13-.32-.11-.64,.04-.94,1.01-.82,2.25-.87,3.37-.57,3.8,.99,7.82,1.16,11.33,3.35,2.66,1.66,7.43,.78,9.53-1.37,.51-.52,.72-1.11,.48-1.75-2-5.31-.31-10.62-.02-15.92,.06-1.15,.14-2.12-.91-2.84-2.33-1.62-3.47-4.11-4.39-6.61-2.47-6.75-5.49-13.02-12.24-16.57-.24-.52-.04-.89,.4-1.18,1.31-.48,2.52,.08,3.72,.43,1.08,.32,2.06,.5,2.98-.34,.45-.16,.88-.16,1.23,.22,.05,6.81,4.43,11.98,6.82,17.9,.72,1.78,1.33,3.74,3.65,4.48,1.66,.53,3.1,.8,4.91,.53,3.03-.45,6.21-.55,9.25-.2,1.91,.22,3.5,.05,5.13-.76,.88-.13,.85,.37,.68,.97-1.02,1.24-1.35,2.51-.84,4.16,1.71,5.52,3.99,10.92,4.2,16.82,.04,1.27,.88,1.6,1.94,1.66,11.67,.63,23.25,2.31,34.88,3.36,9.75,.89,19.47,1.32,29.24,1.19,7.23-.1,13.92-2.35,20.47-5.14,.93-.39,1.52-1.09,2.05-1.95,5-7.96,6.63-16.93,7.69-26.03,.33-2.87,.6-5.76,.95-8.63,.42-1.41,.69-2.83,.26-4.3-.06-.32-.08-.64-.06-.97,1.07-3.55,2.27-7.04,4.99-9.75,.34-.06,.64,.03,.88,.28-3.14,5.48-3.37,11.43-3.74,17.62-.65,10.97-2.11,21.93-7.98,31.73-1.71,2.86-.5,6.31-.73,9.48-.05,.72,.92,1.41,2.08,1.55,5.88,.71,7.31,2.47,8.21,8.44,.69,4.6,1.1,9.25,2.19,13.81,.5,2.08,1.65,2.13,3.17,1.82,6.79-1.41,11.87,3.52,10.76,10.49-1.65,10.39-5.45,13.86-16.12,14.76-1.38,.12-2.74,.48-4.12,.54-1.61,.07-3.47,.04-4.53,1.03-1.15,1.07,.37,2.85,.21,4.19-1.52,13.02,.35,26.14-1.22,39.15-1,8.28-4.29,15.94-6.56,23.86-1.94,6.78-3.21,13.55-3.4,20.64-.35,12.56-1.94,25.03-3.47,37.5-1.02,8.25-1.47,16.57-2.17,24.85-1.74-2.24-.7-4.69-.52-7.07,.81-10.11,1.71-20.21,2.39-30.33,.54-8.09,1.64-16.16,1.13-24.31-.09-1.42,.21-2.87,.35-4.54-2.13,.97-1.89,3.59-4.42,4.52,.58-1.11,.86-1.82,1.29-2.42,4.64-6.47,5.82-14.16,7.54-21.63,1.56-6.76,4.22-13.21,4.84-20.25,.56-6.3,1.04-12.59,.88-18.91-.13-5.25,.63-10.53-.51-15.74-1.32-1.59-.83-3.5-.87-5.28-.04-2-.79-3.2-2.89-2.82-5.93,1.09-12.01,.51-17.95,1.62-2.06,.38-2.71,1.17-2.56,3.17,.14,1.79,.36,3.68-.76,5.32,.59,4.88,.85,9.73-.07,14.63-.87,4.64-4.28,7.26-8.97,6.53-1.27-.2-1.81-.82-2.07-2.04-1.17-5.56,.31-11.02,.57-16.53-1.14-2.56,.25-5.05,.24-7.83-1.61-.25-3.05,.44-4.53,.86-9.18,2.61-18.08,6.15-27.6,7.58-7.86,1.18-15.79,1.84-23.69,1.97-12.15,.19-24.17,1.6-36.21,2.89-.53,.06-1.05,.2-1.58,.31-3.46,.74-3.51,.75-2.87,4.16,.46,2.45-.74,4.9,.1,7.32,.01,1.72,.11,3.44,0,5.15-.09,1.47-.72,2.94-2.33,3.05-1.45,.1-1.68-1.49-2-2.56-.79-2.62-1.43-5.29-2.19-8.19-1.97,1.79-2.3,3.89-2.4,6-.59,11.71,.48,23.39,1.44,35.01,1.03,12.32,2.92,24.6,5.23,36.75,.95,4.99,1.68,10.07,2.93,15.04,1.32,5.26,2.23,10.65,2.91,16.04,.37,2.95,1.58,6.15-.84,8.99-.44,.52-.17,1.67-.18,2.53-.02,6.35-.03,12.69-.05,19.04Z"/><path class="cls-171" d="M435.43,177.56c-.59-3.03-1.18-6.07-1.77-9.1,.49-1.57-.73-2.81-.81-4.31-.29-5.03,1.84-9.08,4.91-12.75,1.64-1.96,3.72-3.51,5.27-5.56,5.42-3.52,10.36-1.46,15.32,1.35-1.23-.84-2.44-1.53-3.79-1.92-1.56-.46-1.67-1.46-1.15-2.75l-.09,.11c2.39-3.53,6.17-4.44,9.98-5.1,3.38-.58,6.56-1.45,9.8-2.75,4.41-1.77,8.83-.13,12.81,2.31,.82,.5,1.53,1.21,2.42,1.58,1.46,.62,3.11,.87,4.13-.56,1.51-2.11,2.09-1.25,3.03,.44,1.21,2.18,3.45,2.68,5.78,2.9,2.47,.23,4.05,.77,4.36,4.09,.43,4.48,2.7,8.69,3.39,13.24,2.08,3.86,1.74,7.91,1.37,12.11-.53,6.12,.6,12.2,1.24,18.29,.13,1.21,1.19,3.13-.95,3.43-1.86,.25-2.82-1.29-3.06-3.08-.28-2.13-.15-4.28-.61-6.41-.75-3.42-.67-3.47-3.78-2.19-1.79,.73-3.51,.97-5.23-.26,.07,.23,.28,.31,.42,.42,1.07,.75,2.98,1.02,2.28,2.92-.59,1.6-2.14,1.54-3.59,1.25-2.29-1.57-5.16-2.36-6.17-5.59-.38-1.21-2.26-1.83-3.38-2.83-.16-.14-.38-.2-.55-.32-2.56-1.79-4.16-5.58-8.41-3.94-.51,.2-1.18-.8-1.51-1.49-4.56-3.67-8.65-4.01-13.17-1.02-1.39,.92-2.77,1.6-4.5,1.08-1.45-.44-2.7,.38-4.01,.8-1.19,.37-2.62,1.06-3.2-.7-.29-.87-.37-.3-.61-.13-1.45,1.06-2.57,3.41-4.85,1.26-.97,1.04-1.99,1.96-3.58,1.31-.76-1.23,.02-2.22,.71-3.68-.75,1.45-1.51,2.44-.72,3.68,.11,1.65-1.4,1.94-2.33,2.68-1.02,.81-2.13,1.49-1.8,3.07,.02,.29-.02,.58-.09,.86-1.02,2.05-1.97,1.33-2.93-.06-.57-.81,.2-1.9-.59-2.65Z"/><path class="cls-12" d="M435.43,177.56c1.49,.28,.31,1.53,.81,2.25,.73,1.05,1.32,1.68,2.32,.35,1.2,1.01,.8,2.33,.61,3.56-.31,2.02,0,4.03,0,6.04,0,3.24,1,5.44,4.42,6.02,.78,2.78-2.39,1.2-2.77,2.82,1.67,.07,3.61,1.35,4.85-1.14,.37-.24,.85-.45,1.19-.24,3.15,2.05,6.5,.79,9.78,.64,3.54-.08,7.03,.45,10.54,.77q12.32,.35,22.04-7.07c2.5-1.91,5.44-3.31,7.16-6.13,.05-.3,.18-.55,.38-.77,.75-.01,1.51,.01,2.25-.05,.69-.06,1.25-.41,1.35-1.15,.1-.71-.57-.82-1.01-1.06-1.72-.94-3.38-1.9-3.1-5.1,2.34,4.18,4.91,4.18,8.14,2.01,1.92-1.29,3.03,.35,3.3,2.1,.37,2.42,.99,4.85,.69,7.34-.23,1.91,.56,3.08,2.75,3.48-.7-6.19-1.55-12.29-1.46-18.45,.02-1.82-.09-3.62,.51-5.42,1.16-3.46-1.17-6.36-1.74-9.55,.45-.4,.88-.34,1.31,.05,2.75,3.03,1.43,6.49,1.28,9.94-.44,10.71,1.91,21.15,3.61,31.64,.22,1.33,.64,2.39,2.25,3.07,2.14,.91,3.58,2.92,5.13,4.71,6.4,7.42,13.32,14.35,18.86,22.56,1.48,2.19,5.23,3.85,8.42,4.86,9.36,2.96,17.67,8.08,26.23,12.7,8.15,4.39,12.02,12.07,15.33,20.13,2.75,6.7,4.31,13.78,5.1,20.93,.51,4.57-.62,9.17-2.3,13.53-1.43-1.43-1.05-3.16-.59-4.75,.74-2.58,.9-5.18,.9-7.82,.17-1.23-.59-2.51,.18-3.71-1.2-7.77-4.05-14.99-7.17-22.15-3.34-7.67-9.02-13-16.36-16.52-7.87-3.77-15.18-8.75-23.77-11.02-1.35-.36-2.47-1.59-4.03-2.2,3.19,6.35,4.04,13.93,10.12,19.23-.26,.9-2.03-.05-2.74,.95-1.72,.68-3.09-.22-4.53-.95-4.78-2.41-9.35-5.25-14.22-7.48-2.37-1.05-4.66-2.37-7.39-2.28-2.19-.14-4.05,.63-5.67,2.06-3.88,2.89-7.07,6.47-10.12,10.19-1.01,1.24-2.24,2.29-3.35,3.44-2.42,2.29-4.39,4.95-6.45,7.54-5.14,7.53-12.16,12.52-20.65,15.72-8.99,3.39-15.05,9.72-18.83,18.65-3.39,8.03-4.61,16.47-6.16,24.9-.67,3.67-1.25,7.35-1.83,11.03-.18,4.53-1.57,8.96-.89,13.59,.17,1.14-.72,2.83-1.98,3.51-3.26,1.77-2.6,4.59-2.06,7.27,.33,1.64,.63,3.13-.37,4.59-.42,0-.85,0-1.27,0-1.41-2.11-.74-4.44-.7-6.69,.12-.74,.34-1.48,.07-2.24-1.04-2.04,.69-3.21,1.46-4.69,.55-.86,.85-1.8,.84-2.84,.11-.62,.34-1.2,.54-1.8,.5-4.9,.06-9.84,1.21-14.72,1.82-7.72,2.84-15.6,4.26-23.41,.37-2.03,.64-4.01,.13-6.06-1.18-4.72,.94-9.06,1.76-13.52,1.02-5.57,3.48-10.85,3.31-16.67-.06-1.95,.11-4.04-1.49-5.42-5.82-5.05-10.79-11.08-17.35-15.28-2.73-1.37-5.16,.13-7.67,.81-1.97,.53-4.52,2.17-5.69-.23-.97-2.01,1.7-3.27,3.13-4.6,.15-.14,.37-.21,.56-.29,.31-.1,.62-.12,.94-.05,1.29,1.02,2.65,.95,4.18,.48,2.15-.66,4.37-1.08,6.39,.5,6.47,5.47,12.74,11.15,18.47,17.4,1.54,1.68,2.54,3.7,3.32,5.83,.56,1.21,.84,2.47,.06,3.64-3.15,4.7-3.41,10.36-5.24,15.5-1.6,3.45-1.28,7.25-1.65,10.36,2.02-4.35,2.64-9.84,5.34-14.55,2.18-3.59,4.47-7.09,7.2-10.29,2.26-2.66,1.64-5.88,1.6-8.96-.01-1.16-.61-2.32,.03-3.47,.24-.26,.54-.34,.88-.27,2.32,2.09,1.77,5.11,2.45,8.16,3.62-2.41,6.75-5.05,9.22-8.23,7.65-9.84,15.18-19.74,21.12-30.8,3.72-6.94,5.77-14.32,7.56-21.85,.52-2.19,.95-4.44,1.6-6.57,1.06-3.45-.37-6.31-1.41-9.32-.24-.69-.66-1.57-1.51-1.45-1.02,.14-.69,1.17-.76,1.86-.07,.75-.02,1.5-.02,2.26-.06,6.93-1.79,8.68-8.82,8.87-.92-.41-1.03-1.21-1.01-2.07,.38-1.82,.76-3.45,3.31-2.1,1.45,.77,2.28-.38,2.46-1.65,.9-6.56,1.58-13.14,.91-19.73-1.16-.2-1.77,.43-2.09,1.01-3.09,5.56-8.56,8.61-13.35,12.23-5.53,4.17-9.81,8.93-12.4,15.44-1.79,4.51-7.36,7.54-11.67,7.04-4.87-.57-10.46-3.45-11.91-9.34-.32,1.39-.09,2.83-.8,4.07-.3,.39-.7,.64-1.13,.83-3.13,.61-2.42,3.76-3.68,5.6-.92-2.17-1.95-3.26-4.87-2.67-4.08,.82-8.01-3.01-9.87-8.43-.73-2.12-.43-4.41-1.34-6.52-.46-1.07,.27-1.61,1.54-1.73,3.83-.34,4.68-1.62,3.47-5.32-.38-1.16-.68-2.26-.54-3.43,.55-4.7-.63-9.22-1.32-13.8Z"/><path class="cls-153" d="M429.63,249.26c-1.1,1-2.25,1.95-3.26,3.03-.43,.46-1.52,.88-.87,1.77,.49,.67,1.42,.46,2.11,.28,1.84-.5,3.71-.99,5.44-1.77,1.89-.85,3.67-.94,5.52-.06,1,1.01,1.08,2.35,1.14,3.61,.23,4.49,2.51,7.91,5.5,10.99,.9,.93,1.64,2.07,2.68,2.79,6.84,4.7,5.56,11.42,4.61,18.06-.17,1.18-.52,2.38-2.11,2.4-4.09-1.45-8.34-2.05-12.64-2.36-2.74-.8-5.54-.43-8.33-.4-1.41,.01-2.47,.83-3.24,1.88-.93,1.26,.24,1.35,1.08,1.55,7.5,1.54,15.04,2.33,22.68,1.52,1.09,.26,1.82,1.09,1.61,2.07-.74,3.5,.63,7.28-1.46,10.6-.63,.99-.8,2.2-1.19,3.31-.27,.79-.46,1.9-1.39,1.98-1.18,.1-1.29-1.15-1.68-1.98-.28-1.46-.59-2.92-.85-4.39-.62-3.59-1.27-4.53-4.8-4.8-6.36-.5-12.55-1.93-18.79-3.05-.7-.26-1.32-.63-1.69-1.32-.03-.21-.11-.48-.01-.63,3.16-4.57,2.24-9.68,2.32-14.78,.09-5.8,.58-11.64,1.57-17.48-.62,1.79-.6,3.67-.68,5.44-.27,6.16-1.96,12.3-.42,18.51,.29,1.18-.14,2.32-.67,3.41-1.55,3.17-2.87,6.45-4.61,9.52-.84,2.05-1.75,4.06-2.93,5.95,1.18-1.73,1.95-3.66,2.83-5.55q1.24-2.64,2.51-2.73c.38,3.76-1.84,6.96-2.3,10.56-.2,1.59-.86,3.11-1.02,4.71-.23,2.25-1.71,3.04-3.61,2.6-2.86-.67-5.78-.3-8.65-.8-2.55-.44-4.76,.9-6.9,2.16-1.39,.77-2.35,2.02-3.39,3.17-.27,.18-.57,.26-.89,.27-1.68-.74-.19-1.79-.19-2.66,0-1.13,.41-2.27,.6-3.41,3-6.22,6.83-11.94,10.69-17.65,2.58-3.82,4.39-8,5.9-12.33,1.05-2.04,.85-4.47,2.02-6.48,.13-2.51,1.31-4.82,1.34-7.35,.85-3.03,2.01-5.98,2.6-9.09,.72-1.49,1.23-3.05,1.49-4.69,1.42-4.1,4.88-6.4,7.99-9,.93-.41,1.84-.84,2.4-1.75,.2-.09,.4-.17,.6-.26,.79-.5,1.71-.75,2.51-1.23,.22-.23,.45-.46,.67-.69,.94-.33,1.96-.49,2.67-1.29l-.05,.04c.58-.36,1.19-.38,1.83-.21,.49,.46,.41,1.03,.05,1.42-2.07,2.24-3.78,4.83-6.35,6.58Z"/><path class="cls-61" d="M389.29,324.75c.51-1.03,1.21-1.88,2.23-2.44-.31-1.7,.8-2.53,2-3.32h-.02c.86-1.47,2.34-2.31,3.59-3.39,4.47-3.13,9.5-2.31,14.14-1.22,3.85,.91,4,4.77,3.73,8.23-.06,.54-.22,1.04-.54,1.48-.94,.68-1.6,.27-2.08-.6-.42-.76-.57-1.62-.89-2.42-.67-1.68-1.59-3.39-3.68-2.77-2.02,.6-1.23,2.45-.96,3.86,.44,2.32,.7,4.67,1.18,6.99,.62,2.96-.35,3.71-3.34,2.82-2.47-.73-4.94-1.44-7.44-2.05-3.6-.88-6.58-.27-8.8,2.88-1.81,2.33-2.45,5.18-3.51,7.85-2.5,2.55-2.8,5.42-1.21,8.55,.74,1.45,.6,2.87-.07,4.33-2.28,4.96-.26,8.75,4.21,9.79,2.39,.56,4.14,1.73,4.05,4.58-.03,.93,.63,1.64,1.34,2.11,2.46,1.63,2.64,4.04,2.27,6.58-.48,3.3-.8,6.63-1.46,9.88-1.72,8.48-9.98,14.3-19,13.17-1.28-.16-2.6-.45-3.62-1.27-11.59-9.37-16.47-21.66-9.07-35.15,3.25-5.91,8.67-10.31,13.77-14.72,.07-.17,.23-.3,.43-.37-.45-.2-.34,.36-.59,.45-.85,.62-1.63,1.77-2.78,.94-1.08-.78-.08-1.74,.2-2.58,1.78-5.29,5.68-9.22,8.82-13.63,1.79-1.82,3.16-3.96,4.63-6.02,.88-.79,1.54-1.78,2.45-2.53Z"/><path class="cls-12" d="M376.98,348.12c-3.67,3.89-7.32,7.8-11.01,11.67-7.06,7.41-8.28,19.05-2.95,27.82,1.56,2.58,3.48,4.86,5.48,7.08,5.46,6.06,15.32,5.27,20.85-.77,3.8-4.15,3.73-9.05,4.77-13.83,.2-.93,.45-1.88,.47-2.83,.06-2.52,1.13-5.37-2.24-6.86-.81-.36-1.64-1.28-1.47-2.33,.48-2.92-1.44-3.36-3.58-4.01-5.32-1.61-7.21-6-4.54-10.75,.86-1.54,.8-2.52,.08-4.01-2.04-4.24-1.55-6.32,1.68-9,.55-.57,1.19-1.02,1.89-1.37,.9-.37,1.99-.88,2.5,.29,.39,.89-.61,1.48-1.26,2.03-4.48,3.81-4.57,3.96-1.89,9.29,.7,1.39,.05,2.18-.56,3.19-2.23,3.71-1.04,6.77,3.03,7.92,5.04,1.43,5.85,.97,7.09-4.09,.65-2.65,2.22-4.87,3.38-7.28,.68-1.41,2.18-1.49,3.62-1.76-.92-1.39-2.22-1.65-3.36-2.16-1.08-.48-2.21-.85-3.19-1.53-.87-.6-2.08-1.31-1.51-2.49,.48-1.01,1.69-.4,2.64-.3,6.28,.62,12.49,1.88,18.82,1.91,.91,0,2.2,.31,2.52-.84,.3-1.1-.89-1.6-1.66-2.11-5.77-3.75-11.6-7.33-18.42-8.97-3.51-.84-6.78-.82-9.82,1.34-.55-.06-.97-.23-.7-.91,3.44-5.28,6.35-4.07,12.66-2.67,1.94,.43,3.81,1.22,5.67,1.94,1.6,.61,2-.04,1.56-1.43-.95-3.05-1.16-6.23-1.85-9.33-.38-1.73-.58-3.36,1.42-3.85,2-.49,3.86,.22,4.69,2.32,.54,1.36,.76,2.86,1.17,4.28,.16,.56,.71,.28,1.09,.35,.91,.6,.91,1.73,1.52,2.51,3.75,6.28,9.51,10.41,15.44,14.29,2.82,1.84,5.82,1.14,7.46-1.82,3.24-5.83,5.97-11.91,5.76-18.82-.17-5.55,.56-11.13-.88-16.66-.6-2.31-1.66-3.06-3.98-3.15-6.11-.25-12.11-1.35-17.99-3.08-.45-.41-.49-.88-.18-1.39,3.49-1.48,6.5,1.03,9.81,1.33,3.75,.34,7.6,.77,11.35,1.59,1.9,.42,2.85,1.49,3.17,3.13,.44,2.18,.6,4.42,.88,6.63,2.47,6.79,2.08,13.55-.2,20.29-1.38,4.19-3.35,8.12-5.51,11.96-2.61,4.64-5.93,5.71-10.8,3.52-6.28-2.82-12.05-6.21-14.88-12.93q-.21,3.77,3.06,5.97c.53,.36,1.06,.73,1.6,1.09,1.94,1.31,3.1,3.07,2.58,5.45-.5,2.3-2.31,3.22-4.49,3.52-.31,.04-.65,.04-.95,.45,2.31,1.44,5.75-1.3,7.54,1.95,.17,.25,.29,.53,.36,.83-.3,2.19-2.19,3.7-2.51,5.86,1.08,.66,2.1,.38,3.12-.12,1.58-1.41,2.57-3.24,3.57-5.04,.35-.83-.37-1.58-.16-2.4,3.74-1.78,7.52-1.39,9.63,1,.1,.32,.13,.64,.1,.97-.49,2.45-2.15,4.13-3.94,5.9-.24,.11,.38,.49,.11,.16-1.1-1.36,6.11-.88,9.76,.65,.82,.56,.62,1.02-.14,1.42-1.17,1.03-2.62,.84-4,.84-10.42-.02-20.84,.13-31.27-.08-2.92-.06-5.73,.84-8.64,.88-1.92,.03-2,1.55-2.04,3.03-.17,5.5,.1,10.91,1.91,16.23,1.06,3.11,2.41,6.24,2.23,9.67-.16,.54-.41,1-1.02,1.12-2.82-2.49-3.01-5.95-3.44-8.53,.5,6.17,.07,13.17,.3,20.15,.05,1.6-.63,3.94,2.27,4.11,.33-.03,.64,.02,.94,.14,1.26,.85,1.68,2.22,2.1,3.54,.7,2.17,1.89,2.8,4.14,2.1,3.73-1.16,7.16-.09,10.35,1.97,.16,.32,.17,.65,.04,.98-.49,.27-.96,.31-1.42-.06-3.72-1.07-7.34-1.32-11.01,.43-1.53,.73-2.78,.09-3.27-1.91-.41-1.68-1.06-3.04-3-4.22-3.35-2.04-6.51-4.74-7.66-9.04-.65-2.44,1.12-4.59,.19-6.95-1.05-.15-1.28,.87-1.78,1.48-6.3,7.66-16.48,8.14-23.14,.93-5.31-5.74-9.52-12.02-9.06-20.41,.37-6.84,2.32-13.03,7.47-17.73,3.47-3.17,5.78-6.89,7.41-11.25,1.92-5.14,5.33-9.37,9.04-13.35,.34-.27,.65-.24,.94,.08-3.41,5.15-7.83,9.67-9.69,15.86,1.28,.79,1.79-.97,2.83-1.14,.37-.25,.7-.21,1,.13Z"/><path class="cls-14" d="M582.79,360.39l-.77-.07c-7.49-3.64-15.31-6.07-23.62-7.14-5.21-.67-10.28,.29-15.4,.59-4.4,.26-8.78,.6-13.17,.06-1.58-.2-2.51-.02-2.48,1.84,.08,5.25-.31,10.52,.96,15.72,.49,2.03,1.42,2.96,3.51,2.87,1.61-.06,3.21-.17,4.81-.42,1.92-.3,3.85-.39,5.77,0,.58,.12,1.38,.24,1.31,1.1-.05,.6-.66,.81-1.15,.96-2.47,.76-4.99,1.29-7.58,1.45-18.76,1.2-36.97,5.04-54.66,11.43-1.34,.48-2.67,1.59-4.23,.53-.22-.19-.44-.39-.66-.58,12.37-5.71,25.42-9.17,38.77-11.59,3.35-.61,6.75-.95,10.13-1.31,1.85-.19,2.52-.83,2-2.81-1.26-4.86-2.06-9.79-1.93-14.87,.09-3.29,.29-6.6-.46-9.91-.4-1.76-.61-3.89,1.24-5.32,.55-.09,.87,.02,.62,.67-1.75,4.79-.2,7.11,4.66,7.1,7.39-.02,14.73-.83,22.09-1.24,10.33-.57,20.11,2.14,29.33,6.69,2.52,1.25,3.63,1.1,4.45-1.85,3.47-12.45,5.01-25.11,4.66-38.02-.04-1.55-.51-1.3-1.33-.53h.03c.7-2.39,.71-5.03,2.46-7.06,.47,.92-.67,1.56-.24,2.7,2.96,7.87,1.51,15.88,.64,23.91-.79,7.22-3.22,13.96-5.01,20.89-.89,3.43-3.06,3.02-4.75,4.23Z"/><path class="cls-99" d="M509.73,158.88c-.44-.02-.87-.03-1.31-.05-.82-5.17-3.38-9.91-3.74-15.17-.09-1.34-.89-.93-1.52-1.03-1.69-.26-3.47-.21-5.05-.75-2.02-.69-3.11-2.5-3.97-5.04-.76,1.8-1.71,3.01-3.33,3.17-1.68,.16-2.94-.78-4.33-1.68-3.75-2.46-8.02-4.38-12.43-3.18-2.86,.78-5.47,2.78-8.61,2.97-2.17,.14-4.2,.75-6.27,1.27-2.25,.57-3.89,2.17-5.85,3.23,.8-2.75,2.9-4.2,5.41-4.98,5.21-1.63,10.72-1.95,15.9-3.92,4.22-1.6,8.03,.68,11.66,2.68,2.25,1.24,4.66,4.39,6.12-.85,.12-.45,2.68-.37,2.84,.44,1.09,5.34,5.52,4.61,9.05,4.97,3.78,.39,3.94,.15,2.01,3.23-1.08,1.73,.09,2.91,.59,4.12,1.23,2.98,2.09,5.99,2.1,9.23,.5,.32,1.04,.62,.75,1.38l-.03-.03Z"/><path class="cls-98" d="M564.65,667.04c-2.54-7.23-5.08-14.46-7.62-21.69-1.86-5.29-5.16-9.85-7.58-14.92,1.59-.21,1.78,1.69,3.01,1.95,.58-1.12-1.43-2.15-.22-3.11,.53-.42,1,.54,1.38,1.03,.88,.35,.77,1.26,1.1,1.92,2.82,8.75,5.69,17.48,8.45,26.25,.82,2.6,1.34,5.3,1.99,7.95,.38,.66-.01,.69-.52,.63Z"/><path class="cls-152" d="M594.76,289.96c.41,3.25-.18,6.37-1.1,9.48-.32,1.08-.03,2.33-.03,3.51-.05,.39-.1,.78-.15,1.17-.81,1.16-.76,2.58-1.15,3.86,0,0-.06,.08-.06,.08-.45-.02-.89-.05-1.34-.07-1.25-1.44-.67-3.22-.89-4.85-.25-1.82-1.28-3.32-1.86-5,1.34-3.06,3.23-5.78,5.27-8.41,.48-.2,.93-.19,1.32,.22Z"/><path class="cls-138" d="M410.28,283.46c-1.46,5.78-4.56,10.72-7.76,15.65-3.06,4.71-5.97,9.51-8.95,14.27-.36-.28-.41-.6-.14-.97,.82-3.94,3.26-7.11,5.38-10.31,4.4-6.63,8.63-13.31,11.34-20.84,.63,.7,.52,1.45,.12,2.21Z"/><path class="cls-69" d="M442.93,145.91c.39,1.65-1.06,2.24-1.91,3.04-2.68,2.52-4.91,5.3-6.33,8.73-1.05,2.53-1.66,5.05-.81,7.76,.32,1.02,.6,2.07-.23,3.02-3.15-5.83-1.13-11.04,2.2-15.9,1.77-2.58,4.04-4.83,6.65-6.66,.14,0,.29,0,.43,.01Z"/><path class="cls-77" d="M442.93,145.91c-.14,0-.29,0-.43-.01,2.43-1.6,4.65-3.8,8.02-2.54,1.06,.4,2.07-.04,2.88-.84,.04,1.16,.42,1.81,1.74,2.22,2.07,.64,4.01,1.74,5.21,3.94-5.52-3.03-11.1-5.39-17.42-2.77Z"/><path class="cls-57" d="M448.35,219.47c-.26-2.81-.27-5.5,3.24-6.4,1.32,3.09,.74,6.84-1.37,8.88-1.37-.26-.97-1.86-1.87-2.48Z"/><path class="cls-129" d="M441.86,236.89c1.11-1.91,3.07-3.03,4.75-4.12,2.52-1.62,5.05-3.06,6.72-5.63,.29,.12,.5,.31,.64,.59,.14,1.43,1.27,2.68,.8,4.23-3.31-.58-5.54,1.35-7.84,3.27-1.48,1.23-2.71,3.16-5.14,2.48-.17-.29-.15-.56,.07-.81Z"/><path class="cls-141" d="M429.63,249.26c1.46-3.16,4.56-4.95,6.42-7.77,0-.56,.31-.98,.64-1.38,.43-.2,.85-.41,1.28-.61,.61,.34,.88,.89,.95,1.56-1.7,3.51-4.85,5.69-7.61,8.22-.47,.43-1.16,.47-1.73-.05l.03,.03Z"/><path class="cls-155" d="M450.23,221.95c.9-2.89,1.44-5.84,1.37-8.88,.39,0,.77,0,1.16,0,.84,3.97,.17,7.93,0,11.9-.09,.35-.27,.65-.53,.9-2.38-.43-.48-3.04-1.99-3.91Z"/><path class="cls-91" d="M393.44,312.41c.05,.32,.09,.65,.14,.97,.15,1.29-.2,2.47-.61,3.68-.21,.62-.89,1.67,.56,1.94-.67,1.11-1.33,2.21-2,3.32-.73-3.57,.63-6.73,1.92-9.91Z"/><path class="cls-23" d="M554.83,614.77c.28,2.35-.61,4.78,.52,7.07-1,2.56-.27,5.25-.57,7.86-.15,.18-.33,.26-.56,.22,.14-5.05-.47-10.13,.61-15.14Z"/><path class="cls-167" d="M452.22,225.86c.02-.23,.05-.47,.07-.7,2.09-.69,4.18-1.34,6.3-1.94,1.19,.72,1.07,1.54,.2,2.42-1.75,.59-3.05,2.62-5.28,1.66,0,0-.17-.16-.17-.16-.37-.43-.74-.85-1.12-1.28Z"/><path class="cls-94" d="M413.57,269.37c.08,2.66-.47,5.19-1.52,7.62-.22,.19-.43,.18-.63-.04-.15-2.9,1.1-5.54,1.5-8.34,.59-.07,.96,.06,.65,.76Z"/><path class="cls-92" d="M413.57,269.37c-.22-.25-.43-.5-.65-.76,.88-2.8,1.76-5.59,2.64-8.38,.2-.2,.4-.19,.59,.02-.51,3.14-1.3,6.2-2.58,9.12Z"/><path class="cls-174" d="M416.7,415.22c.42,0,.83,0,1.25,0,.71-.75,1.67-.77,2.6-.85,.46-.05,.92-.12,1.39-.12,1.15,.27,2.06,.75,1.9,2.16,0,.51,.06,1.04-.47,1.37-1.79-1.96-4.53-1.48-6.66-2.56Z"/><path class="cls-133" d="M382.83,333.28c-.31-.03-.63-.05-.94-.08,1.5-1.94,2.99-3.88,4.49-5.83,.34-.27,.65-.24,.95,.07-1.37,2.05-2.72,4.11-4.49,5.84Z"/><path class="cls-80" d="M438.69,240.85c-.56-.28-.67-.8-.71-1.36,1.3-.87,2.59-1.74,3.89-2.61,.02,.28,.04,.55,.06,.83-.22,1.93-1.21,3.07-3.24,3.13Z"/><path class="cls-136" d="M411.43,276.96c.21,.02,.42,.03,.63,.04-.59,2.16-1.19,4.31-1.78,6.47-.04-.74-.08-1.47-.12-2.21,.05-1.54,.18-3.06,1.27-4.3Z"/><path class="cls-151" d="M564.65,667.04c.17-.21,.34-.42,.52-.63,1.1,1.54,1.27,3.33,1.43,5.13-.22,.22-.44,.24-.68,.03-.42-1.51-.84-3.02-1.27-4.53Z"/><path class="cls-49" d="M416.16,260.25c-.2,0-.39-.02-.59-.02,.35-1.61,.78-3.2,1.74-4.58,.12,1.66,.09,3.28-1.15,4.6Z"/><path class="cls-84" d="M565.92,671.57c.23-.01,.45-.02,.68-.03,.72,.98,.94,2.1,.97,3.28-1.71-.49-1.28-2.07-1.65-3.25Z"/><path class="cls-157" d="M592.33,307.98c-.14-1.44-.56-2.97,1.15-3.86,.27,1.48-.37,2.69-1.15,3.86Z"/><path class="cls-163" d="M387.32,327.44c-.32-.02-.63-.04-.95-.07,.86-.99,1.12-2.66,2.91-2.62-.39,1.09-1.12,1.93-1.96,2.68Z"/><path class="cls-143" d="M427.7,244.9c-.17,1.45-1.15,1.8-2.4,1.75,.64-.81,1.39-1.46,2.4-1.75Z"/><path class="cls-168" d="M436.7,240.11c0,.56-.07,1.09-.64,1.38-.65,0-1.3-.01-1.95-.02,.77-.63,1.47-1.42,2.6-1.36Z"/><path class="cls-52" d="M554.23,629.92c.2-.04,.39-.11,.57-.22-.02,.84-.04,1.67-.06,2.51-.37-.64-.74-1.28-1.11-1.92,.2-.12,.4-.25,.6-.37Z"/><path class="cls-168" d="M434.15,241.43c-.45,1.34-1.53,1.37-2.67,1.29,.85-.51,1.49-1.44,2.67-1.29Z"/><path class="cls-160" d="M509.75,158.92c-.25-.46-.5-.92-.75-1.38,.87,.06,.36-1.08,1.18-1.22,.11,.92,.56,1.84-.43,2.6Z"/><path class="cls-117" d="M430.81,243.41c-.65,.79-1.39,1.4-2.51,1.23,.55-.99,1.49-1.21,2.51-1.23Z"/><path class="cls-73" d="M496.79,744.49c1.05,2.1,.5,4.34,.57,6.53-.1,.04-.2,.1-.3,.1-.09,0-.19-.07-.28-.1-.04,2.34,1.2,4.37,1.64,6.6,.16,.81,.62,1.56,.62,2.42-.8,3.26-1.2,6.48,.91,9.47-.3,2.59-1.8,4.7-2.91,6.96-.31,.63-.79,1.13-1.73,1.12-1.19,0,.22,.71-.16,1.02,.09,4.45,.7,8.83,1.55,13.18-1.74,.38-2.3,2.08-3.41,3.14-1.63,1.56-2.77,1.84-3.93-.43-3.43-6.72-3.94-13.72-1.93-20.89,.87-3.09,2.1-6.05,4.03-8.72,1.21-1.67,1.5-3.78,1.38-5.84-.45-8.22-1.65-16.36-2.79-24.51-.97-6.87-2.16-13.69-2.49-20.68-.42-8.92-.12-17.84-.64-26.74-.54-9.35-3.11-18.27-6.55-27-2.94-7.46-6.39-14.77-8.31-22.6-1.38-5.61-1.82-11.28-1.11-17.12,1.17-9.61,1.1-19.27-.11-28.9-1.69-13.4-5.33-26.38-8.37-39.49-.71-3.08-1.58-6.12-2.39-9.26,1.72-.2,1.94,1.05,2.53,1.86,5.5,7.59,7.92,16.57,11.28,25.13,.42,1.07,.46,2.34,1.56,3.06,1.71,.55,1.12,2.05,1.23,3.18,.18,1.8,0,3.61,.58,5.41,2.34,7.29,1.4,14.84,1.73,21.52,.39-2.64-.56-6.14,.37-9.54,1.22,1.83,.28,3.91,.67,5.84,1.21,1.62,.56,3.56,.9,5.32,.11,.79-.07,1.52-.47,2.2-.15,.22-.36,.4-.59,.54-.99,.84-.12,1.6,.12,2.4,.21,.44,.33,.89,.34,1.37,.12,6.89-1.18,13.67-1.45,20.52-.13,3.22,.66,6.12,2.21,8.92,2.02,3.66,3.84,7.43,5.38,11.33,.07,1.44,.82,2.68,1.16,4.04,1.96,8.58,2.65,17.35,4.01,26.01,.61,3.88,.78,7.88,2.27,11.6,.37,.93,.36,1.89,.2,2.86-.38,8.28-1.17,16.56,.63,24.78,1.68,8.39,.37,16.95,1.63,25.22,.4-.38-.36-1.32,.4-1.81Z"/><path class="cls-73" d="M436.64,503.03c-1.21-3.65-.11-7.71-2.41-11.38,9.68-1.89,19.07-2.97,28.55-3.48,11.53-.62,23.1-.9,34.58-2.08,9.24-.95,18.1-4.02,26.92-6.95,3.31-1.1,6.71-1.96,10.58-3.08-1.4,3.42-1.29,6.64-2.08,9.71-5.87,1.96-11.59,4.4-17.69,5.62-8.92,1.78-17.93,2.72-27,3.39-12.9,.95-25.85,1.28-38.69,3-2.75,.37-5.53,.61-8.3,.72-4.34,.18-4.34,.11-4.46,4.54Z"/><path class="cls-73" d="M538,576.73c-5.11,1.05-10.23,2.01-15.32,3.16-10.18,2.3-20.37,3.8-30.67,.72-.29-.09-.64,.05-.96,.08-.93-1.17-.99-2.55-.99-3.96,0-2.22,.89-3.32,3.28-3.32,11.71,0,23.32-1.06,34.89-2.94,2.63-.43,5.24-.76,7.81-1.51,2.78-.81,3.13-.49,2.92,2.55-.12,1.76,.54,3.7-.96,5.22Z"/><path class="cls-11" d="M479.95,607.03c.22-.66,.43-1.32,.65-1.97-.52-1.94-.4-3.89-.07-5.84,.23-.67,.68-1.85,1.17-.44,.62,1.78,.85,3.8,.76,5.69-.28,5.87-.2,11.84-1.35,17.55-1.85,9.23,.1,17.38,4.62,25.36,3.27,5.78,3.47,12.48,4.5,18.87,1.31,8.11,1.85,16.37,3.62,24.36,.78,3.52,3.02,6.86,4.15,10.48,1.33,4.29,2.86,8.52,4.28,12.78,.33,.99,.43,2-.05,3.21-2.63-3.49-2.84-7.89-5.45-12.2,0,13.78,0,26.7,0,39.61,0,1.27,0,2.55,0,3.82-2.88-8.87-1.46-18.09-2.67-27.08-1.08-5.04-.52-10.15-.56-15.23-.03-3.27-.31-6.54-.07-9.81,.23-2.84-.99-5.45-1.47-8.16-1.6-9.04-2.94-18.1-3.72-27.25-.15-1.79-.8-3.53-1.22-5.29-.56-1.11-.81-2.34-1.31-3.47-2.11-4.04-3.67-8.35-6.12-12.24-2.19-3.47-1.87-7.44-1.55-11.23,.47-5.51,1.34-10.98,1.28-16.54,0-.61,.36-1.21,.56-1.82-.57-1.06-.83-2.11,.02-3.16Z"/><path class="cls-73" d="M543.32,483.18c-.11-2.56-.09-5.13-.38-7.67-.14-1.27,.32-1.44,1.33-1.54,6.82-.63,13.64-1.22,20.44-1.97,2.97-.33,4.08,.74,3.72,3.71-.22,1.79-.07,3.63-.09,5.45-1.99,1.73-4.34,2.39-6.85,1.78-3.7-.89-7.42-.51-11.13-.5-1.36-1.21-.2-2.46-.05-3.52-.82,.94-.21,2.59-1.37,3.57-1.8,.83-3.77,.3-5.62,.68Z"/><path class="cls-15" d="M538,576.73c.16-2.44-.22-4.9,.45-7.23-.74-.72-1.34-.15-1.86,.04-7.75,2.88-15.98,2.75-24.01,3.84-6.38,.86-12.83,.84-19.26,.67-1.84-.05-2.54,.65-2.39,2.45,.12,1.39,.09,2.79,.13,4.19,.9,7.94,1.51,15.89,.92,23.9-1.35-8.15-1.41-16.4-1.73-24.62-.41-.51-.69-1.09-.71-1.75-.07-2.32-.29-4.25-3.05-1.6-.65,.63-1.69,.36-1.53-.64,.19-1.21-.67-2.96,1.31-3.53,.32,0,.61,.11,.86,.31,12.84,.51,25.52-1.39,38.23-2.64,6.91-.68,13.58-2.68,19.89-5.69,.65-.5,1.3-.47,1.95,0-.01,.39-.02,.78-.03,1.17-.87,1.96-3.08,1.27-4.49,2.26-1.05,.74-2.36,1.09-2.48,2.64-.07,.86-.77,2.13,1.26,1.38,.95-.35,2.05,.4,2.46,1.58-.01,.43-.02,.85-.03,1.28-4.98,2.42-3.57,6.9-3.47,10.92,.04,1.58,.78,3.19-.37,4.67-.21,1.13,.26,2.35-.82,4.18-.6-6.38-1.3-12.03-1.22-17.76Z"/><path class="cls-63" d="M539.3,738.66c2.07-3.66,1.52-7.57,1.13-11.3-.32-3.11-.36-6.21-.43-9.3-.08-3.56,6.77-7.35,9.91-5.6,.75,.42,1.02,1.08,1.02,1.87,.04,6.96-.48,13.88-1.29,20.78-.12,.98-.69,1.52-1.56,1.85-2.8,1.06-5.61,2.08-8.79,1.7Z"/><path class="cls-15" d="M479.39,593.35v10.89c-.24,0-.47,.02-.71,.02,0-1.03,.01-2.06,0-3.08-.1-7.04-.18-14.08-2.34-20.89-.78-2.45,.6-5.14-.87-7.5,.24-10.47-4.07-19.52-8.86-28.43-.47-.87-1.86-1.87-.76-2.7,.97-.73,2.15,.21,2.85,1.26,.53,.8,1.34,1.51,1.58,2.38,2.45,8.88,7.4,17.06,6.64,26.84-.47,6.17,2.42,12.09,2.44,18.31,0,.97,.02,1.93,.03,2.9Z"/><path class="cls-71" d="M538.84,596.62c1.74,.47,1.11,1.31,.48,2.35-1.79,2.97-4.86,4.44-7.41,6.51-3.48,2.83-7.15,5.43-11.26,7.3-1.16,.53-2.57,1.74-3.33-.54,4.52-4.42,9.64-8.07,14.83-11.61,2.14-1.46,3.92-3.59,6.69-4.01Z"/><path class="cls-22" d="M494.81,778.15c-.76-.51-1.69-.88-1.65-2.37,2.88,2.17,3.81,.44,4.51-1.97,.41-1.42,1.53-2.58,1.67-4.12,.56-2.13-.71-4.03-.76-6.08-.03-1.13-.53-2.26,.03-3.39-1.11-2.84-2.15-5.71-2.5-8.77-.21-1.86,.63-.91,1.26-.42,1.43,4.9,3.16,9.71,3.31,14.94,.12,4.41,.43,4.47-2.42,9.62-1.08,1.95-.8,2.92,.99,4.13,3.18,2.15,6.18,4.56,9.23,6.91,.8,.62,1.78,1.14,2.08,2.62-3.42-1.07-5.69-3.5-8.35-5.31-1.83-1.24-3.17-3.19-5.44-3.81-.6-.08-1.01-.45-1.39-.87-.28-.32-.3-.77-.56-1.1Z"/><path class="cls-71" d="M540.04,590.31c-.2-3.27-.6-6.53-.82-9.8-.24-3.74,1-5.55,4.65-5.78,1.4,4.52,.54,8.9-.98,13.17-.41,1.15-1.5,2.09-2.86,2.42Z"/><path class="cls-73" d="M543.91,573.45c-1.46-.54-2.9-2.32-4.35,.41-.49-5.62,1.45-7.61,7.6-8.28,2.86,.66,3.2,2.16,1.36,4.28-1.29,1.49-2.3,3.39-4.62,3.58Z"/><path class="cls-81" d="M558.69,724.06c-.08,.93-.03,1.5-.2,1.99-.67,1.95-.78,4.65-3.71,4.42-2.72-.21-2.25-2.94-2.4-4.56-.3-3.13-.1-6.34,.25-9.48,.18-1.61,2.1-1.85,3.35-2.02,1.29-.16,2.01,1.04,2.06,2.37,.1,2.56-.28,5.16,.65,7.27Z"/><path class="cls-73" d="M486.42,572.78c-1.92,.79-.27,2.41-1.18,3.51,1.51,.08,1.09-1.08,1.58-1.55,.71-.69,1.51-.73,2.37-.6,1.19,.18,1.09,1.14,1.09,1.98,.01,1.28-.02,2.56-.04,3.84-6.56-2.56-6.55-2.85-5.26-10.03,.54-3.02,1.28-6.04,2.71-8.81,.87,.88,.75,1.97,.5,3-.69,2.87-1.26,5.76-1.77,8.67Z"/><path class="cls-110" d="M538.84,596.62c-7.18,5.21-14.35,10.41-21.53,15.62-.4-.16-1.39-.21-.56-.85,6.59-5.09,12.82-10.67,20.17-14.72,.63-.35,1.26-.98,1.92-.04Z"/><path class="cls-109" d="M525.15,618.63c-3.63-.25-6.51-2.44-9.64-3.89-5.08-2.35-10.52-4.04-14.96-7.67l.13-.16c6.78,3.1,13.59,6.17,20.34,9.34,1.42,.67,3.02,1.12,4.12,2.38h0Z"/><path class="cls-114" d="M492.88,561.12h22.75c-7.57,1.76-15.15,1.66-22.75,.55-.15-.12-.19-.24-.15-.37,.05-.12,.09-.19,.14-.19Z"/><path class="cls-16" d="M548.94,482.5c.2-2.21,.31-4.47,2.92-6.14-.68,2.31-1.86,4.04-1.5,6.09-1.3,4.25-.28,8.68-.95,13.79-.87-5.1-1.58-9.39-.47-13.74Z"/><path class="cls-102" d="M492.88,561.12c0,.18,0,.37,0,.55-2.95-.86-4.14,.23-4.31,3.32-.14,2.6-.93,5.17-1.44,7.76-.24,.01-.48,.02-.72,.03-.56-4,1.39-7.72,1.27-11.66,0-.88,.39-2.07,1.24-1.39,1.25,1,2.93,.18,3.95,1.4Z"/><path class="cls-101" d="M494.81,778.15c.22,.21,.43,.43,.65,.64,.99,1.17,.37,2.59,.62,3.87-.41,3.97,1.46,7.68,1.35,11.61-.23,0-.46,0-.69,.01,0-.84-.01-1.67-.02-2.51-1.32-4.45-2.58-8.91-1.91-13.63Z"/><path class="cls-123" d="M500.55,607.07c-2.08-.11-3.44-1.44-5.52-3.41,2.64,1.01,4.34,1.78,5.65,3.25,0,0-.13,.16-.13,.16Z"/><path class="cls-73" d="M496.08,782.66c-1.13-1.14-.42-2.58-.62-3.87,.62,.26,1.07,.69,1.3,1.33-.23,.85-.46,1.69-.68,2.54Z"/><path class="cls-140" d="M480.54,599.21c.02,1.95,.04,3.89,.07,5.84-1.26-1.85-.41-3.9-.55-5.86,.16,.03,.32,.04,.48,.02Z"/><path class="cls-122" d="M545.16,563.08c-1.48-.65-1.55-2.29-2.43-3.35,1.47,.66,2.31,1.76,2.41,3.37l.02-.02Z"/><path class="cls-121" d="M547.2,564.41c-.65,0-1.3,0-1.95,0-.03-.44-.06-.89-.09-1.33,0,0-.02,.02-.02,.02,1.12,.73,2.31,.81,3.61,.16-.02,1.45-.95,1.02-1.55,1.15Z"/><path class="cls-146" d="M525.14,618.64c1.09-.04,1.89,.57,2.64,1.25l-.09,.11c-1.07-.04-2.16-.05-2.55-1.36,0,0,0,0,0,0Z"/><path class="cls-135" d="M527.78,619.88c.9-.07,1.46,.42,2.06,1.12-1.18,.34-1.73-.21-2.15-1.01,0,0,.09-.11,.09-.11Z"/><path class="cls-100" d="M553.08,563.47c-.25-1.25,.15-1.7,.83-2.12,.43,1.05-.32,1.42-.83,2.12Z"/><path class="cls-107" d="M541.09,557.14c-.85-.44-1.12-.96-1.02-1.72,.96,.23,1.14,.8,1.02,1.72Z"/><path class="cls-73" d="M450.98,337.8c-.75-4.78,.75-9.38,1.43-13.98,1.22-8.2,2.88-16.36,6.46-24,3.66-7.81,9.27-13.74,17.22-16.79,8.96-3.43,16.53-8.34,21.95-16.34q.94,1.19,0,3.78c4.18-4.35,7.78-8.85,12-12.79,3.44-3.22,7.18-5.67,11.78-6.81,2.82-.7,5.52-1.67,7.54-3.97,.54-.62,1.24-1.22,2.23-.9,5.1,1.68,9.39,4.95,14.2,7.23,1.44,.68,2.95,1.09,4.38,1.74-1.74,3.17-4.38,3.85-7.65,2.74-3.85-1.31-7.83-2.34-11.5-4.03-5.22-2.4-9.6-.32-12.83,3.57-4.6,5.53-9.02,11.24-14.29,16.13-8.1,7.52-16.45,14.78-26.77,19.24-12.95,5.6-19.65,15.9-22.51,29.34-1.13,5.29-1.72,10.72-3.62,15.84Z"/><path class="cls-8" d="M477.39,309.42c0-5.77,2.75-9.03,8.45-9.9,1.44-.22,1.77-.73,1.98-2.17,.55-3.7,2.99-4.92,7.54-4.13,3.29,.57,5.05,2.81,4.28,6.18-.47,2.05,.95,2.1,1.93,2.69,5.7,3.41,7.37,9.97,3.41,15.12-2.77,3.61-7.06,4.78-11.45,4.78-3.87,0-7.66-.98-11-3.05-3.54-2.19-5.4-5.41-5.14-9.52Z"/><path class="cls-73" d="M495.32,357.03c1.34-3,3.93-5.02,5.87-7.54,4.28-5.55,6.23-12.11,7.74-18.79,1.54-6.84,2.85-13.74,4.15-20.64,.22-1.16,.95-1.54,1.75-2.02,1.29,.74,.72,1.8,.53,2.84-.97,5.39-2,10.76-1.6,16.29,.3,4.04-1.09,7.85-1.9,11.71-.57,2.71-.63,5.52-1.79,8.15-1.01,2.29-2.44,3.92-4.57,5.16-2.41,1.4-4.76,2.92-7.23,4.23-.93,.5-1.8,1.26-2.96,.61Z"/><path class="cls-19" d="M588.63,297.71c2.52,3.03,2.62,6.61,2.3,10.28-3,8.7-8.75,15.49-14.99,22-2.17,2.26-3.69,2-5.87,.08-4.94-4.33-10.1-8.57-12.17-15.02-2.31-7.19-2.52-14.41,2.66-20.78,.27,.21,.43,.48,.49,.82-.15,3.33-1.59,6.39-1.62,9.81-.06,5.91,1.76,10.96,5.52,15.41,2.08,2.47,4.49,4.63,6.75,6.93,.9,.92,1.91,1.57,3.01,.32,4.17-4.76,8.72-9.21,11.46-15.09,1.8-3.85,2.68-7.69,1.33-11.85-.26-.81-.43-1.68-.09-2.53,.3-.46,.67-.71,1.22-.38Z"/><path class="cls-4" d="M495.32,357.03c3.81-2.14,7.66-4.2,11.39-6.46,1.26-.76,2.2-1.97,2.53-3.58,1.45-7.07,3.8-14,3.6-21.33-.15-5.61,.75-11.03,2.24-16.39,.1-.36-.15-.82-.24-1.23,.77-.62,.88-2.52,2.58-1.36,.39,3.14-.78,6.08-1.25,9.1-.3,1.92-.59,3.8,.02,5.71,.3,.94,.3,1.9,.1,2.86-1.55,7.52-2.46,15.19-5.35,22.39-.65,2.58-2.36,4.37-4.44,5.87-3.09,2.21-6.31,4.21-9.66,6.01-.86,.47-2.13,.84-1.35,2.33,.56,.47,1.12,.94,2.4,2.01-3.37-.62-5.29-3.71-8.21-2.04-.02-1.21-.75-1.83-1.76-2.36-2.99-1.58-5.7-3.6-8.58-5.37-1.66-1.6-4.27-2.1-5.23-4.53,3.2-.74,5.13,1.97,7.71,2.93,1.66,.61,2.96,2.01,4.5,2.93,1.43,.91,2.99,1.66,4.25,2.77,1.79,1.58,3.24,1.11,4.74-.27Z"/><path class="cls-112" d="M588.63,297.71c-.31,.24-.62,.48-.94,.72-1.63-.56-.76-1.52-.27-2.24,1.03-1.52,1.73-3.22,2.66-4.79,1.33-2.26,.61-3.83-1.38-5.16-1.81-1.21-3.79-2.02-5.86-2.62-5.28-1.54-10.68-2.52-16.18-2.48-5.3,.04-6.64,1.93-5.47,7.14,.33,1.47,.92,2.87,1.09,4.38,.13,1.23,.14,2.45-1.61,2.52-.04-.3-.07-.6-.11-.9,.07-2.12-1.24-3.78-1.89-5.66-2.28-6.54,.18-10.19,7.04-10.33,6.88-.14,13.59,.75,20.08,3.11,3.05,1.11,5.87,2.54,7.82,5.26,.37,1.09,.77,2.19,0,3.28-1.24,2.86-2.84,5.49-4.99,7.76Z"/><path class="cls-73" d="M510.94,346.74c.95-4.89,1.92-9.77,2.85-14.67,.77-4.08,1.88-7.96,1.24-12.37-.62-4.31,.92-8.79,2.4-13.02,3.08,3.94,1.56,8.36,1.24,12.63-.65,8.57-2.61,16.83-6.1,24.7-.43,.96-1.08,1.82-1.62,2.73Z"/><path class="cls-9" d="M525.82,343.57c-.21-.22-.41-.44-.62-.67-.35-3.64-.71-7.29-1.05-10.93-.65-6.96,.29-13.71,2.75-20.26-.73,4.73-1.14,9.47-1.18,14.26-.04,5.15,.47,10.26,.77,15.39,.05,.89,.27,1.69-.68,2.21Z"/><path class="cls-73" d="M471.64,319.79c-.15,7.17,1.32,14.32,.45,21.5-.28,.03-.57,.06-.85,.09-.33-2.94-.66-5.87-.99-8.81-1.32-1.68-.9-3.67-.81-5.52,.11-2.22,.17-4.44,.24-6.67,.12-.73,.21-1.49,1.17-1.56,.68-.05,.89,.35,.78,.98Z"/><path class="cls-74" d="M486.33,354.53c-4.07-1.95-8.14-3.91-12.21-5.86,.14-1.47-1.62-1.95-1.82-3.91,5.65,2.29,10.03,5.74,14.03,9.77Z"/><path class="cls-111" d="M471.64,319.79c-1-1.2-1.2-.38-1.37,.54-.18,.18-.39,.28-.64,.31-.25-.05-.45-.17-.61-.37-.02-.95-.03-1.92-1.33-2.02-.15-.16-.2-.31-.13-.45,.07-.13,.13-.2,.19-.2,1.36-.49,1.1-1.68,1.11-2.71,.03-2.54,.41-5.02,1.23-7.47,.41,3.24,.14,6.47-.27,9.79-.19-1.68,2.37-1.17,2.1-3.04,0,2.74,.24,5.12,3.51,5.46-.69,.46-1.39,.35-2.1,.06-.56,.03-1.12,.07-1.68,.1Z"/><path class="cls-13" d="M469.02,320.28c.24,.01,.47,.02,.71,.03,.36,4.09,.37,8.18-.01,12.27v8.29c-2.19-6.83-1.13-13.71-.7-20.59Z"/><path class="cls-71" d="M495.49,360.95c-.93-.68-2.78-1.04-.2-2.3,3.81-1.85,7.17-4.58,11.21-6.04-2.03,2.7-4.75,4.5-7.7,6.05-1.18,.62-2.73,.78-3.31,2.29Z"/><path class="cls-72" d="M479.35,353.2c3.63,1.12,6.6,3.48,9.87,5.29,1.17,.64,.99,1.5,.46,2.44-3.5-2.5-7.47-4.37-10.33-7.72Z"/><path class="cls-97" d="M469.72,332.58c0-4.09,0-8.18,.01-12.27,.18,0,.36,0,.54,.02,0,4.08-.01,8.16-.02,12.23,0,0-.27,0-.27,0l-.26,.02Z"/><path class="cls-25" d="M467.74,317.61c-.02,.22-.04,.43-.06,.65-1.37-3.18-.29-6.45,.06-9.69v9.04Z"/><path class="cls-97" d="M593.62,289.95c0-1.09,0-2.19-.01-3.28,.17,.02,.34,.01,.51,0,.22,1.1,.96,2.09,.65,3.29-.38,0-.76,0-1.14,0Z"/><path class="cls-76" d="M589.67,315.72c.12,1.26-.04,2.43-1.24,3.85,.01-1.78,.51-2.85,1.26-3.84,0,0-.03-.01-.03-.01Z"/><path class="cls-113" d="M473.32,319.69c.7-.02,1.4-.04,2.1-.06,.32,.17,.8,.27,.94,.54,.18,.36-.27,.54-.55,.43-.83-.32-1.84-.12-2.49-.91Z"/><path class="cls-34" d="M554.01,847.79c-3.66,.89-7.28,2-11.11,2.11-.16-1.22,1.33-1.32,.95-2.48-4.84,.72-8.94,3.64-13.69,4.69-8.74,1.93-17.53,2.02-26.38,1.07-5.93-.64-11.91-.56-17.85-.19-5.29,.33-10.36-1.17-15.57-1.4-2.27-.1-3.34-1.96-3.79-3.82-.67-2.78-.91-5.66-1.39-8.9,4.18,2.76,8.82,3.04,13.27,3.62,12.59,1.63,25.2,.81,37.78-.39,5.92-.56,11.91-.63,17.74-1.99,1.14-.27,2.39-.34,3.37-.9,6.39-3.66,13.39-1.15,20.03-2.1,.96-.14,.78,.7,.65,.98-1.06,2.28-.05,4.9-1.21,7.14,.15,.16,.21,.32,.2,.51-.01,.19-.04,.28-.07,.28-.78,.91-1.8,1.43-2.93,1.76Z"/><path class="cls-36" d="M463.49,837.88c.12,2.56,.21,5,.37,7.43,.12,1.81-1.29,2.11-2.47,2.37-3.74,.83-7.43,1.09-11.33,.43-4.48-.76-9.1-.66-13.63-1.42-5.45-.91-6.5-1.94-6.51-7.35,0-.54,0-1.07,0-1.82,11.09,4.06,22.2,5.94,33.58,.36Z"/><path class="cls-40" d="M575.91,829.25c.72,2.97-.39,5.05-2.1,7.15-2.86,3.5-6.05,6.51-9.89,8.93-1.68,1.06-2.8,.55-3.87-.59-1.67-1.76-.13-8.02,2.17-8.81,4.83-1.65,9.57-3.44,13.7-6.68Z"/><path class="cls-47" d="M556.75,846c.02-.25,.04-.51,.06-.76,.79,.03,1.47,.22,1.31,1.23-.25,1.6-1.53,1.37-2.64,1.41-.4-1.18,.71-1.35,1.27-1.88Z"/><path class="cls-161" d="M556.75,846c-.41,.64-1.24,.99-1.27,1.88-.54,.7-.99,.01-1.47-.09,.57-1.13,1.52-1.66,2.74-1.79Z"/><path class="cls-95" d="M580.68,447.53c.82-.23,1.64-.49,2.47-.69,8.44-2,12.68,2.14,10.88,10.63-1.41,6.67-4.87,9.27-13.25,10.02-2.23,.2-4.45,.51-6.68,.8-.31,.04-.72,.41-.89,.31-3.69-2.25-6.5,1.47-9.91,1.47-2.28,0-4.44-.62-6.7-.61-8.87,.04-17.26,2.27-25.59,5.11-12.75,4.36-25.58,8.36-39.19,9.2-2.87,.18-5.75,.4-8.63,.58-.92,.46-1.9,.26-2.85,.25-9.1-.08-18.21,.02-27.28,.74-5.94,.47-11.87,1.26-17.67,2.81-4.02,1.73-8.52,1.96-12.43,4.02-.87,.46-1.56,.51-1.82-.81-.61-3.14-1.76-6.21-.98-9.48,.51-2.14-1.09-4.11-.48-6.24,1.61-5.64,1.64-11.3,1.02-17.12-.42-3.99,.13-8.11,1.52-12.01,.31-.87,.23-1.88,.4-3.55-3.19,4.21-3.56,8.55-3.92,12.8-.22,2.54-.11,5.09,.47,7.67,1.01,4.45-.92,8.52-2.19,12.9-3.63-4.04-5.62-8.39-5.49-13.77,.13-5.58,.21-11.11,1.83-16.53,1.71-5.73,5.6-8.22,11.29-6.94,.98,.22,1.03,.93,1.3,1.61,1.09,2.68,2.21,5.34,3.64,7.89,.14-2.52-.62-4.77-1.52-6.99-.29-.7-.67-1.46-.07-2.11,.65-.71,1.38-.12,2.07,.1,11.38,3.7,22.3,2.06,33.07-2.56,4.32-1.85,9.05-2.4,13.69-3.1,1.68-.26,2.32,.31,2.66,2.17,.45,2.47,.53,4.9,.46,7.35-.37,11.72,1.38,23.3,2.03,34.96,.08,1.34,.55,2.68,1.84,3.73,1.27-2.21,.8-4.54,.59-6.66-.89-9.03-2.07-18.02-3.06-27.04-.36-3.29-.55-6.61-.67-9.93-.19-5.6-.14-5.62,5.37-5.84,4.49-.19,8.98-.18,13.49-.56,7.36-.63,14.8-.31,22.17-.87,6.37-.49,12.73-1.38,19-2.61,2.85-.56,3.63,.44,4.22,2.72,.2,.75,.07,1.79,1.26,2.26,.62-1.94-1.49-3.7-.36-5.57,4.45-2.15,9.35-2.66,14.08-3.76,.92-.21,1.89-.2,2.76-.64,.86,0,1.72-.02,2.57-.03,5.31,0,5.97,.74,4.97,5.97-.24,1.27-.59,2.49-.34,3.8,2.74-1.93,3.83-7.52,2.24-11.4,5.01,.28,6.63,1.86,7.12,8.07,.37,4.7,1,9.33,2.18,13.87,.41,1.6,.04,2.4-1.35,2.96-.12,.24-.46,.52-.29,.72,.26,.31,.64,.11,.95-.07Z"/><path class="cls-61" d="M476.09,389.31c8.63-3,17.26-5.93,26.18-8.01,10.7-2.49,21.51-4.06,32.45-4.92,3.01-.24,5.98-.84,8.94-1.49-4.51-.84-8.94,.19-13.4,.33-1.88,.06-2.54-.41-2.84-2.34-.97-6.14-1.48-12.29-1.26-18.5,.04-1.06-.46-2.36,1.69-1.88,6.9,1.53,13.91,.6,20.77-.1,9.53-.98,18.41,.9,27.17,4.19,1.8,.68,3.5,1.62,5.3,2.3,.79,.3,.94,.75,.93,1.43-1.88,3.05-3.42,6.25-4.64,9.62-.19,1.43-.89,2.65-1.57,3.86-.16,.24-.46,.39-.51,.73,.1-.16,.21-.3,.34-.44,.69-.43,.5-2.2,2.02-1.32,.07,.62,.14,1.24-.15,1.83-1.13,10.23-1.51,20.61-5.87,30.22-.99,2.18-2.37,4.15-3.17,6.47-.69,2-3.2,1.86-4.88,2.56-12.53,5.19-25.6,4.39-38.74,3.43-7.77-.57-15.51-1.38-23.27-2.06-7.31-.64-14.61-1.3-21.92-1.95-.74-.07-1.69,.03-1.48-1.11,1.18-6.57-2.11-12.18-3.92-18.09-.7-2.29-1.25-4.11,1.83-4.76Z"/><path class="cls-153" d="M514.73,429.37c-10.48,.07-20.94,.75-31.34,2.02-8.78,1.07-17.38,3.19-25.92,5.46-8.59,2.28-17.05,2.63-25.96,1.34-5.12-.74-6.1-3.14-7.03-7.04-1.06-4.47-1.1-8.86,0-13.29,.8-.7,1.75-.86,2.71-.54,4.75,1.58,9.3,.1,13.89-.86,.11-.73,.23-1.46,.42-2.67,4.75,4.54,9.35,2.59,13.65-.11,1.99-1.25,4.07-.63,6-1.3,.2-.07,.67,.07,.74,.23,2.25,5.23,7.06,3.22,10.92,3.88,.51,.09,1.25,.13,1.56-.16,4.81-4.35,10.12-1.35,15.16-.95,9.33,.74,18.6,2.23,27.92,3.22,8.11,.86,16.19,1.06,24.31,1.21-.3,1.92-2,1.62-3.2,1.87-6.08,1.27-12.08,2.83-18.04,4.52-2.16,.61-4.35,1.23-5.79,3.18Z"/><path class="cls-61" d="M437.4,367.36c6.59,2.08,9.12,7.74,11.74,13.34,1.71,3.66,2.13,8.18,6.55,10.08,1.21,.52,.46,1.37,.35,2.14-.46,3.26-.96,6.53-1.29,9.8-.24,2.36-.04,4.75,1.3,6.78,1.06,1.61,.38,2.14-1.07,2.65-1.1,.39-2.12,1.01-3.18,1.52-2.64,1.28-5,1.28-7.76-.31-4.17-2.41-8.93-3.25-13.77-3.29-2.54-.57-5.06-.51-7.63-.05-2.71,.49-5.39,.3-7.56-1.67-1.31-1.19-1.45-2.51,.51-3.12,5.42-1.66,10.57-5.06,16.65-2.7,.79,.31,1.74,.3,2.53-.01,1.34-.53,3.6,.16,3.91-1.51,.31-1.7-2.09-1.73-3.12-2.71-2.59-1.98-5.4-1.98-8.18-.65-4.36,2.09-8.97,1.76-13.54,1.54-3.62-.17-4.94-1.43-5.48-4.54,.06-.34,.18-.65,.36-.94,.63-.83,1.54-1.15,2.52-1.2,5.21-.28,10.08-1.89,14.77-3.99,4.29-1.92,8.11-1.02,11.91,1.19,1.48,.86,2.81,1.96,4.35,2.74-1.44-.84-2.69-1.93-3.48-3.39-2.43-4.42-5.9-6.23-10.86-4.55-.81,.27-1.65,.46-2.52,.52-2.87-.26-5.42,.9-7.99,1.84-2.69,.99-5.43,.9-8.18,.71-1.35-.09-2.45-.68-3.01-2.02-.23-.94,.19-1.64,.86-2.24,1-.66,2.21-.95,3.11-1.78,.22-.2,.45-.37,.68-.54,1.33-.86,2.77-1.55,4.01-2.56,1.84-1.24,3.77-2.34,5.7-3.43,2.36-1.34,4.73-2.37,7.52-1.67,.28,.07,.3,.02-.08-.9-2.28-2.78-4.19-1.06-6.12,.49-1.76,.92-3.52,1.83-5.3,2.73-1.12,.35-2.25,.66-3.33,1.13-.96,.42-2.05,1.02-2.91-.1-.77-1.01-.28-2.11,.29-2.99,1.08-1.71,2.19-3.42,3.47-4.99,2.11-2.59,4.86-4.47,7.57-6.37,1.55-1.09,3.16-.86,4.86-.13,2.83,1.22,5.47,2.93,8.6,3.38,.93,.35,1.64,.99,2.24,1.77Z"/><path class="cls-34" d="M407.51,383.57c-.82,.07-.58,.85-.84,1.28-.89,2.14,.83,2.5,2.13,2.77,2.42,.5,4.96,.62,7.3-.26,3.81-1.43,7.62-2.71,11.72-2.89,1.3,.1,2.55-.09,3.79-.52,1.24-.43,2.34-.03,3.24,.85,.83,.81,2.03,1.71,1.31,2.97-.59,1.05-1.76,.25-2.62-.02-2.76-.87-5.25,.11-7.79,.96-5.03,1.68-9.85,4.12-15.35,4.06-.72,0-1.07,.63-1.48,1.13l.04-.05c-.45,3.4,.88,5.06,4.58,5.18,4.89,.16,9.82,.46,14.46-1.84,2.46-1.22,4.98-.99,7.27,.66,1.02,1.08,3.67,1.05,3,3.15-.63,1.97-3.02,1.5-4.71,1.91-.18,.04-.3,0-.32,0-7.65-3.05-13.88,.76-20.44,3.86-2.34,1.1-5,1.51-6.86,3.39,5.48-4.17,12.91-1.8,13.99,4.57-.66,.17-1.31,.32-1.9-.17-4.07-1.17-8.07-3.21-12.39-.71-.73,.42-1.49,.09-1.87-1.04-.69-2.05-1.68-4-2.55-6-.84-.88-1.23-1.94-1.3-3.14-.02-.33,0-.65,.05-.98,.39-2.97,1.73-5.75,1.79-8.79,.03-.29,.08-.58,.15-.86,.23-1.07,.14-2.15,.08-3.23-1.17-4.3-2.07-8.69-3.58-12.87-1.9-5.29-.61-10.63-.89-15.93-.07-1.43,1.4-1.24,2.26-1.29,4.08-.2,8.11-.89,12.25-.79,10.73,.26,21.47,.14,32.21,.18,.05,2.55,.1,5.1,.15,7.65-.39,.73,.09,2.4-1.83,1.4-1.37-.71-2.97-.98-4.47-1.45-.83-.28-1.79-.2-2.48-.9-3.3-.61-6.24-2.17-9.23-3.56-1.84-.86-3.35-.88-5.07,.35-4.23,3.03-7.89,6.59-10.58,11.06-1.5,2.49-.95,3.43,1.8,3.47,.65-.03,1.23,.12,1.66,.65,.12,.3,.12,.59,0,.89-.74,1.41-2.61,1.54-3.35,2.95l.07-.06c-1.13,.68-2.31,1.28-3.42,2Z"/><path class="cls-73" d="M514.73,429.37c-.58-2.61,1.66-2.69,3.09-3.17,7.37-2.49,14.94-4.21,22.55-5.79,.52-.11,1.08-.06,1.39-.6,5.98-.06,12.03,.3,17.58-2.66,.93,.68,1.78,.18,2.66-.16,2.2-.84,4.33-.87,6.19,.7-1.04-1.47-.66-2.94,.16-4.39,1.37,1.95,.63,4.12,.55,6.18-.06,1.56-1.5,1.43-2.7,1.58-6.23,.74-12.53,.49-18.75,1.77-2.62,.54-3.92,2.81-6.48,3.23-7.04,1.15-14.1,2.02-21.19,2.73-1.69,.17-3.37,.4-5.06,.6Z"/><path class="cls-38" d="M541.29,483.64c.98,4.54,.83,9.11,.17,13.67-.23,1.6-.7,3.12-2.32,3.89-3.54,1.69-5.3,.6-5.24-3.32,.06-4.27,.23-8.54,.36-12.81,2.11-1.62,4.37-2.51,7.04-1.43Z"/><path class="cls-75" d="M420.21,414.45c-1.46-2.45-3.85-3.9-6.12-5.36-1.8-1.15-3.91-1.69-5.83,.16-.99,.95-2.2,1.55-3.58,1.95,2.33-3.45,3.36-3.89,7.54-4.61,1.17-.2,1.92-1.82,3.41-2.12,1.11-.23,2.17-.85,3.18-1.42,4.35-2.48,8.86-2.92,13.55-1.11,1.16,.45,2.36,.64,3.37-.04,.76-.52,2.22,.47,2.32-1,.09-1.2-1.28-1.24-1.96-1.84-.24-.2-.47-.41-.71-.61,.09-.36,.33-.57,.7-.63,.39,.18,.77,.37,1.16,.53,1.52,.65,3.24,1.46,2.76,3.34-.28,1.1-2.07,.96-3.24,1.28-2.21,.6-4.3,.73-6.55,0-5.89-1.9-10.4,2.49-16.15,3.37,2.63,3.47,5.78,3.06,8.99,2.82,2.43-.18,5.06-1.34,7.22,.89,0,.16,.01,.32,.01,.49-1.84,1.58-4.2,1.34-6.36,1.74-1.31,.24-2.25,.58-1.98,2.15-.31,.23-.62,.45-.93,.68-.23-.27-.74-.21-.81-.67Z"/><path class="cls-61" d="M421.95,414.45c-.59-.72-1.18-1.44-1.98-2.42,3.57-.51,6.94-.99,10.31-1.47,2.48,1.27,5.14,2.45,7.86,2.37,2.65-.08,2.68,1.09,2.47,2.93-2.86,2.28-6.34,1.92-9.64,2.08-1.98,.09-4-.48-5.89-1.25-.41-.09-.82-.18-1.23-.27-.63-.65-1.26-1.31-1.89-1.96Z"/><path class="cls-128" d="M435.39,488.16c4.17-2.43,8.93-2.53,13.5-3.15,11.39-1.54,22.86-.36,34.29-.64-.88,.92-2.02,.58-3.05,.58-13.6-.02-27.14,.81-40.56,3.16-1.36,.24-2.79,.05-4.19,.05Z"/><path class="cls-44" d="M541.29,483.64c-2.35,.48-4.69,.95-7.04,1.43,.39-2.4,.89-4.78,1.13-7.19,.12-1.26,.56-1.82,1.73-2.26,4.04-1.51,4.2-1.44,4.2,2.9,0,1.71-.02,3.41-.03,5.12Z"/><path class="cls-96" d="M433.08,582.9c1.54,7.6,3.08,15.19,4.71,23.2-3.42-2.08-5-9.58-4.71-23.2Z"/><path class="cls-127" d="M562.63,423.64c-4.05,2.34-8.69,2.62-13.08,3.77-1.22,.32-2.5,.43-3.76,.63,.35-.72,1-1.08,1.69-1.4,2.35-1.11,.93-1.62-.69-2.06,5.45-1.4,10.65-.92,15.83-.94Z"/><path class="cls-83" d="M425.07,416.69c4.41,.58,8.8,.54,13.21-.15,.83-.13,1.67-.02,2.32-.68,.16,.2,.32,.39,.49,.59-3.23,2.28-6.93,2.61-10.68,2.37-1.98-.13-3.86-1.18-5.92-.96,.2-.39,.39-.78,.59-1.17Z"/><path class="cls-43" d="M431.53,498.42c-1.01-1.31-.39-3.42-2.29-4.38-.56-.28-.12-1.13,.62-1.35,1.11-.33,2.22-.64,3.44-.99,.3,2.4,.57,4.6,.85,6.81-.9,.77-1.78,.73-2.62-.09Z"/><path class="cls-1" d="M431.53,498.42l2.62,.09c1.49,2.84,.2,5.84,.36,8.84-1.49-2.82-2.8-5.67-2.99-8.93Z"/><path class="cls-95" d="M430.62,570.08c.53,2.48,1.13,4.94,1.54,7.43,.14,.87,.5,1.95-.37,2.71-.4,.35-.83-.02-1.13-.31-.81-.78-1.73-1.33-1.32-2.92,.58-2.25,1.14-4.55,1.28-6.92Z"/><path class="cls-179" d="M568.36,413.29v5.12c-2.96-2.66-6.12,.17-9.02-1.27,3.3-.61,6.15-2.24,9.02-3.85Z"/><path class="cls-165" d="M577.42,372.59c-.62,.73-1.24,1.46-1.85,2.19-.36-.29-.41-.63-.15-1.01,.43-1.39,1.05-2.69,1.97-3.83,.03,.31,.06,.62,.09,.93,.35,.59,.38,1.16-.05,1.72Z"/><path class="cls-119" d="M580.68,447.53c-.65,.66-1.34,1.26-2.4,1.42,.08-1.21,.91-1.64,1.74-2.08,.22,.22,.44,.44,.66,.65Z"/><path class="cls-154" d="M436.06,365.61c.69,.35,1.6,.31,2.05,1.12-.23,.21-.47,.42-.7,.64-.97,.13-1.45-.62-2.05-1.16,.05-.42,.41-.48,.71-.6Z"/><path class="cls-10" d="M438.42,624.99c-.44-.86-.55-1.67-.15-2.53,.78,.88,.15,1.76,.15,2.53Z"/><path class="cls-148" d="M577.42,372.59c.02-.58,.03-1.15,.05-1.73,1.02,1.23,.89,2.47,.05,3.72-.03-.67-.06-1.33-.1-2Z"/><path class="cls-60" d="M457.8,393.82c-.69-.23-.63-.67-.63-1.06,0-.48,.22-.8,.73-.81,.42,0,.91,.03,.67,.64-.18,.46-.53,.85-.78,1.24Z"/><path class="cls-61" d="M456.06,198.12c-2.43,1.76-5.03,1.51-7.61,.49-.87-.35-1.58-1.11-2.64-.92-1.1,.27-1.48-.66-2.06-1.26-1.55-.93-3.16-1.07-4.8-.12-.69-5.51-1.35-10.8-.39-16.14,.04-.22,.08-.43,.12-.65,1.2-3.18,4.03-4.55,6.89-5.18,5.06-1.13,9.97-3.36,15.36-2.72,.64,.08,1.29-.25,1.79-.64,4.59-3.53,9.26-2.99,13.99-.34,1.25,1.51,2.45,3.07,4.76,1.57,.6-.39,1.71-.36,2.02,.39,1.34,3.23,4.73,4.06,6.99,6.2,.31,.3,.2-.15,.23,.18,.32,3.72,4.1,4.18,5.97,6.42,.16,.5,1.17,.75,.08,1.54-5.43,3.93-10.78,7.97-16.14,12-1.05,.79-2.13,.64-3.31,.61-3.21-.1-6.42-.05-9.63-.07-.15-.18-.22-.37-.21-.57,.02-.21,.04-.31,.08-.31,.26-.43,.62-.74,1.06-.97,2.16-1.07,4.48-1.58,6.82-2.05,1.23-.08,2.43-.67,3-.51-1.05,.11-2.8,.11-4.55,.13-2.61,.05-5.16-1.21-7.8-.36-2.73,.54-5.56,.74-8.02,2.27-.63,.44-1.21,.97-2.04,1Z"/><path class="cls-124" d="M476.65,171.37c-2.97-2.07-6.26-2.4-9.72-1.81-.2,.03-.5-.15-.63-.05-6.37,4.36-14.25,2.9-21.05,5.5-2.45,.93-4.63,2.64-6.56,4.53-1.17-1.13-.78-2.01,.41-2.83,1.39-.97,2.74-2,4.1-3l-.02,.02c1.55-.65,3.33-.99,3.99-3.64,.13,3.44,1.46,2.55,2.73,1.7,1.2-.8,1.8-2.46,3.58-2.54,.65,1.08-.92,1.34-.74,2.24,1.22,.76,2.14-.25,3.19-.59,1.38-.44,2.6-1.16,4.25-.41,2.04,.92,3.26-1.14,4.68-2.08,2.43-1.62,6.91-1.6,9.3,.34,.75,.61,1.63,.39,2.47,.48,.77,.09,1.68,.11,.81,1.27-.27,.29-.36,.74-.78,.9Z"/><path class="cls-88" d="M476.65,171.37c.26-.3,.52-.6,.78-.9,1.8,2.09,2.79,2.16,6.91,.34-.5,4.56,3.96,4.86,6.04,7.26,.32,.37,1.3,.51,1.31,.77,.06,3.39,3.8,3.54,5.05,5.84-.01,.24-.03,.49-.04,.73-4.51-.5-5.53-4.86-8.17-7.43-1.77-1.72-4.74-2.16-5.39-5.14-.14-.66-1.19-.69-1.65-.22-2.41,2.47-3.45-.02-4.85-1.26Z"/><path class="cls-66" d="M457.09,165.91c-.65-5.75,3.56-10.92,11.47-14.08-.73,2.47-3.3,2.55-4.62,4.02-1.35,1.51-3.31,2.27-4.4,4.17-1.06,1.87-2.15,3.65-2.45,5.89Z"/><path class="cls-65" d="M449.66,149.14c-3.67,4.77-9.83,7.32-8.41,14.35-2.57-5,1.09-11.42,8.41-14.35Z"/><path class="cls-104" d="M436.38,168.54c-.95-5.55,1.46-10.25,4.15-14.88l-4.15,14.88Z"/><path class="cls-68" d="M446.69,163.52c1.29-5.22,5.21-8.2,9.46-10.89-2.75,3.97-7.02,6.65-9.46,10.89Z"/><path class="cls-132" d="M469.41,161.93c.68-3.93,3.45-4.99,10.18-3.96-3.26,2.88-8.13-.26-10.18,3.96Z"/><path class="cls-85" d="M493.99,178.96c-2.4-4.42-3.67-8.85-8.01-11.83,4.31,.88,7.22,5.3,8.01,11.83Z"/><path class="cls-125" d="M483.16,167.57c-2.29,.3-2.85-2.35-5.66-1.49,2.81-1.78,3.68-1.44,5.66,1.49Z"/><path class="cls-175" d="M443.2,173.68q-.88-2.32,.99-4.67c.98,1.88-1.54,2.96-1.02,4.68,0,0,.02-.02,.02-.02Z"/><path class="cls-153" d="M470.22,280.16c1.37-2.89,4.43-3.95,6.57-6.03,8.53-8.29,15.14-18.11,21.87-27.77,4.64-6.65,8.72-13.81,11.05-21.7,1.75-5.93,3.08-11.98,4.57-17.99,.15-.62,.05-1.36,.73-1.68,.74-.35,1.2,.2,1.59,.72,4.99,6.59,10.88,12.41,16.23,18.7,5.96,7.01,9.98,15.13,13.68,23.45,.18,.63-.19,.93-.69,1.15-3.15,.02-5.5-2.3-8.44-2.91-2.45-1.01-4.87-2.09-7.35-3.02-7.92-2.99-11.82-1.69-18.09,5.11-6.52,7.07-12.42,14.7-19.12,21.62-5.78,5.63-13.15,8.4-20.39,11.4-.5,.21-1.05,.22-1.58,.08-.48-.23-.84-.52-.63-1.13Z"/><path class="cls-61" d="M458.71,223.57c-2.04,.94-3.92,2.51-6.42,1.58-.36-4.05-.28-8.09,.46-12.09,.07-2.11,.27-4.2,1.13-6.73,1.36,6.02,4.52,9.49,10.31,10.81,4.61,1.06,8.06-.63,10.98-3.56,1.73-1.74,3.41-4.19,3.75-6.52,.6-4.06,3.26-6.18,6.07-8.16,4.77-3.37,8.72-7.76,13.93-10.62,1.74-.95,2.49-3.63,3.83-5.42,.61-.81,1.39-2.04,2.56-1.55,1.01,.43,1.02,1.73,1.04,2.82,.09,6.11-.09,12.2-1.02,18.25-.18,1.14,.01,2.46-1.53,2.84-1.52,.38-2.71-.02-3.49-1.64-.35,.93-.65,1.71-.94,2.49-.46,3.27-.09,6.55,.23,9.78,.48,4.84-1.17,8.79-3.91,12.54-2.47,3.38-4.6,7.09-7.5,10.04-3.32,3.37-7.03,6.64-12.34,6.54-.43,0,.09-.09-.32,.02-8.08,2.26-12.91-1.6-16.14-8.52-.37-.78-.93-1.44-1.52-2.07-.43-.55-.75-1.13-.7-1.86,.26-.69,.79-1.06,1.46-1.28,.64-.17,1.29-.17,1.93,.01,.46,.16,.82,.43,1.07,.85,.46,1.06,.38,2.38,1.55,3.07,.66,.64,1.65,.18,2.36,.68,1.09,.44,2.18,.35,3.27,.02,.76-.22,1.58-.3,2.23-.83,.22-.18,.45-.33,.7-.47,1.4-.53,2.45-1.5,3.35-2.65,.82-1.13,1.96-1.79,2.97-2.28-.76,.12-1.55,.88-2.55,1.07-1.01,.2-2.05,.69-2.81-.5-.07-.5,.15-.9,.44-1.27,.31-.35,.67-.63,1.09-.85,2.38-.73,4.56-1.79,6.34-4.2-1.76,.06-3.09,.68-4.48,.87-.77,.11-1.51,.29-2.23,.57-4.09,1.54-7.65-.29-11.25-1.79-.49-.67-.02-1.11,.39-1.57-.52,.27-.77,.83-1.26,1.14-.97,.45-1.98,.64-3.04,.43Z"/><path class="cls-61" d="M499.9,207.89c.16-.14,.29-.37,.48-.42,7.08-1.78,7.06-1.78,7.55-9.2,.11-1.67-.46-3.43,.48-5.04,2.81,1.55,5.64,7.68,5.16,10.73-3.26,20.93-12.8,38.84-25.87,55.2-4.28,5.36-8.55,10.6-14.03,14.76-.58,.44-.97,1.17-2.09,1-.12-3.21,.17-6.54-1.42-9.55-1.51-1.37-2.01-3.28-2.51-5.12-1.03-3.77-3.13-6.7-6.2-9.09-3.54-2.77-5.28-6.71-6.02-11-.37-2.13-.57-4.54,1.82-5.97,2,.96,2.68,2.98,3.67,4.71,4.46,7.81,11.03,9.63,18.98,5.42,4.33-2.29,8.13-4.97,10.79-9.26,1.68-2.71,3.4-5.47,5.52-7.87,3.82-4.34,3.19-9.53,3.12-14.63-.02-1.59-.35-3.21,.58-4.67Z"/><path class="cls-153" d="M438.69,240.85c1.32-.8,2.39-1.85,3.24-3.13,2.85-.91,4.61-3.37,6.97-4.99,1.98-1.35,3.67-2.74,6-.89,.35-.2,.63-.14,.87,.18,.73,1.21,.42,2.51,.22,3.75-1.01,6.33,.71,11.74,5.8,15.68,4.64,3.6,6.21,8.74,7.82,13.95,.13,.73,.3,1.46,.37,2.2,.44,4.6,.89,9.02-3.11,12.77-2.36,2.21-3.83,5.35-5.7,8.08-.86,.92-1.36,2.11-2.2,3.04-.76,.85-1.52,1.84-2.9,1.06,1.31-4.94,2.16-10.09,4.19-14.72,.75-1.71,2.05-2.78,.93-4.7-.24-3.25-1.88-5.84-4.05-8.1-3.03-3.17-6.23-6.18-9.1-9.49-2.18-2.52-4.97-3.96-8.08-4.94-2.39-1.76-4.88-.77-7.13,.09-1.92,.74-2.72,.3-3.23-1.46,3.85-1.9,6.16-5.48,9.1-8.37Z"/><path class="cls-73" d="M445.18,329.47c2.62-6.81,1.97-13.82,1.24-20.83,.29,.43,.53,1.17,.87,1.22,.74,.11,.5-.75,.62-1.15,.57-1.96,1.96-3.8,2.11-5.64,.26-3.29,1.13-6.65,.27-9.99-.07-1.08-.17-2.15,.02-3.23,2.23-.89,1.5-3.06,1.72-4.61,.39-2.73,.14-5.56,.22-8.34,.04-1.19-.45-2.01-1.28-2.79-1.87-1.75-3.62-3.63-5.51-5.36-4.76-4.38-7.11-9.75-6.89-16.24,2.79,.87,4.49,3.25,6.6,4.99,3.87,3.2,7.37,6.84,11.06,10.27,1.15,1.07,1.73,2.23,1.87,3.88,.4,4.78-.5,9.34-1.79,13.86-.93,3.28-1.1,6.97-2.41,9.84-2.43,5.3,.5,10.43-.93,15.59-1.38,5-1.6,10.31-2.75,15.39-1.66,7.33-2.88,14.66-2.62,22.2,0,.27-.29,.55-.45,.83-2.14-2.55-2.05-5.72-2.31-8.75-.32-3.71,.09-7.43,.32-11.15Z"/><path class="cls-153" d="M445.18,329.47c.88,.9,.5,2.04,.47,3.05-.17,5.68,.21,11.3,1.52,16.84-.15,.44-.3,.89-.46,1.33-.09,.51-.37,.79-.91,.75-1.06-.74-2.07-1.85-3.39-.4-.36,.28-.74,.47-1.21,.37-.94-.81-1.75-1.89-3.24-1.54-1.58-1.08-3.14-2.33-4.96-.38-.72,.77-1.25,.31-1.84-.26-.73-.72-1.49-.69-2.14,.17-1.07,2.03-3.33-.3-4.54,1.24-1.6-1.51-3.03-2.81-5.49-.98-.65,.49-2.89-.68-4.05-1.55-.68-.5,.13-1.33,1.05-1.32,2.47,.05,5.1-.12,5.65-3.01,.57-3.01-1.92-4.35-4.14-5.76-2.06-1.31-4.99-2.3-3.42-5.92,.33-.76-.12-1.87-.22-2.87,1.2,.05,1.4,1.08,1.76,1.87,3.32,7.32,9.85,10.69,16.77,13.43,2.9,1.15,6-.66,7.56-3.78,1.85-3.72,3.87-7.35,5.22-11.29Z"/><path class="cls-142" d="M531.6,245.99c-3.12,3.47-7.16,5.08-11.59,6.22-5.63,1.45-9.2,5.93-13.19,9.75-3.37,3.22-5.89,7.26-9.6,10.2-1.7-2.28,2.08-3.42,.82-5.47,2.22-2.3,3.7-5.28,6.44-7.12,4.09-2.88,6.59-7.3,10.27-10.58,1.04-.93,1.89-2.06,3.23-2.62,1.5-1.9,3.87-2.06,5.88-2.94,2.91-.14,5.39,1.03,7.74,2.57Z"/><path class="cls-130" d="M499.9,207.89c.08,3.75,.14,7.5,.24,11.26,.09,3.46-2,6.01-3.67,8.67-2.15,3.43-4.47,6.76-6.94,9.97-4.45,5.79-10.6,8.86-17.68,9.68-4.1,.48-7.26-2.17-9.65-5.25-1.87-2.42-3.23-5.23-4.81-7.86-.12-.53,.03-.79,.61-.61,1.98,1.43,2.94,3.59,4.06,5.64,2.51,4.57,6.14,5.61,11.26,5.16,4.49-.4,8.22-1.71,11.78-4.28,1.16-.83,2.23-1.59,2.96-2.8,.22-.36,.36-.79,.65-1.09,7.65-7.91,11.52-17.16,10.05-28.32-.09-.66-.31-1.54,.6-1.98,0,.66-.14,1.36,.54,1.82Z"/><path class="cls-73" d="M470.99,280.94c7.71-2.86,14.97-6.62,21.84-11.13-3.21,4.82-7.84,8.13-13.06,10.01-6.37,2.29-11.55,5.97-16.19,10.67-.37,.37-.78,.7-1.81,1.61,1.51-4.09,3.92-6.62,5.98-9.36,1.09-.58,1.86-1.72,3.23-1.81Z"/><path class="cls-71" d="M439.95,250.6c2.83-.15,5.19,.79,7.16,2.85,3.69,3.86,7.48,7.63,11.13,11.53,2.12,2.26,3.43,4.9,2.93,8.15-2.54-6.54-8.17-10.5-12.98-15.03-2.69-2.53-5.13-5.41-8.25-7.5Z"/><path class="cls-171" d="M475.49,196.19c-2.31,.69-4.62,1.37-6.92,2.06-.77,.41-1.56,.25-2.31,.26,.39,.21,1.11-.15,1.48,.39-.09,.19-.1,.39-.03,.59-3.87-.58-7.87-.05-11.64-1.38,.37-.41,.74-.82,1.11-1.22,4.13-1.16,8.32-2.06,12.61-2.38-1.36,0-2.7,.9-4.03-.19,2.85-1.31,5.64,.22,8.47,.15,.26,.69,3.25-.63,1.27,1.72Z"/><path class="cls-131" d="M458,233.75c-.2,.2-.41,.41-.61,.61-2.29,4.75-1.27,11.3,3.52,15.1,5.33,4.23,7.63,9.77,9.24,15.93-.18,0-.37,0-.55,.02-.8-.49-1.13-1.31-1.3-2.13-1.08-5.21-4.41-8.83-8.19-12.28-3.29-3.01-5.1-6.76-4.73-11.44,.2-2.54-.1-5.13-.18-7.69,.95-.62,1.84-.98,2.19,.6,.2,.43,.4,.86,.6,1.29Z"/><path class="cls-73" d="M456.06,292.55c2.48-.4,3.06-3.16,5.1-4.1-2.56,5.01-2.96,10.85-6.22,15.89-.5-4.17-.75-8.07,1.12-11.79Z"/><path class="cls-2" d="M444.39,357.7c-3.48,.32-6.83-1.27-11.06-.23,2.07-2.6,3.83-4.5,4.65-6.96,2.14,.53,2.28,.63,1.08,3.02-1.05,2.1,.74,.11,.75,.58,.29,0,.57,.06,.83,.18,2.19,1.95,2.92-1.11,4.48-1.32,.3-.02,.57,.07,.8,.27,.2,1.73-3.2,2.23-1.53,4.46Z"/><path class="cls-173" d="M443.76,196.43c1.08-.23,1.29,.97,2.06,1.26,.5,.83,.69,1.67-.48,2.03-2.09,.63-4.14-.2-6.16-.53-.78-.13-.57-1.25,.39-1.56,1.39-.44,2.8-.8,4.2-1.19Z"/><path class="cls-70" d="M518.04,246.66c-4.35,3.21-7.14,7.93-11.17,11.44-.68,.59-.92,2.11-2.39,1.47,3.68-4.24,7.31-8.52,11.4-12.37,.63-.59,1.22-1.2,2.16-1.2,.2,.15,.27,.29,.2,.44-.07,.15-.13,.22-.2,.22Z"/><path class="cls-74" d="M537.4,246.1c3.12-.25,5.47,1.96,8.32,2.59,.81,.18,1.49,.56,2.03,1.19,.66,.58,1.15,1.23,.88,2.71-3.86-2.23-7.55-4.36-11.23-6.5Z"/><path class="cls-169" d="M473.97,202.3c1.15,.22,2.2,.77,2,2.05-.19,1.19-.47,2.94-2.08,2.8-1.82-.16-.74-2.14-1.33-3.21-.61-1.12,.64-1.31,1.41-1.63Z"/><path class="cls-70" d="M518.04,246.66c0-.22,0-.44,0-.66,1.31-2.29,3.53-2.51,5.81-2.57-1.64,1.61-4.2,1.56-5.81,3.23Z"/><path class="cls-86" d="M470.99,280.94c-1,.75-1.87,1.71-3.23,1.81,.58-1.09,1.46-1.9,2.46-2.59,.26,.26,.51,.52,.77,.78Z"/><path class="cls-55" d="M445.92,353.24c-.23,0-.45,0-.68,0-.58-.91-.12-1.5,.61-2.01,.28-.17,.56-.35,.85-.52,.25,1,.02,1.86-.78,2.54Z"/><path class="cls-90" d="M547.75,249.89c-.93,.03-1.54-.48-2.03-1.2,.27-.28,.54-.55,.81-.83,.72,.49,1.18,1.13,1.23,2.03Z"/><path class="cls-108" d="M421.21,295.95c.03,.43,.07,.86,.1,1.3,.46,2.41-1.3,4.22-1.78,6.39-1.16,5.21-2.56,10.37-3.34,15.67-.17,1.16-.4,2.32-1.05,3.34-.25,.32-.55,.39-.91,.21,0-1.06,.03-2.12,0-3.18-.09-2.5-1.6-4.77-3.67-4.94-4.64-.39-9.56-1.54-13.84,1.66-.59,.26-.66-.06-.59-.54,2.63-2.46,5.53-3.59,9.27-2.85,2.58,.51,5.31,.11,7.94,.71,.74,.17,1.87,.36,2.01-.93,.62-5.64,2.79-10.89,3.94-16.4,.05-.54-.61-1.46,.71-1.33,.59,.05,1.04,.27,1.23,.88Z"/><path class="cls-18" d="M450.3,289.84c1.51,1.09,.93,2.16-.02,3.23-8.06,1.66-15.95,.23-23.85-1.27,.2-1.61,1.56-1.22,2.54-1.48,5.83,.29,11.65,.98,17.44,.58-3.39-1.02-7.04-1.19-10.58-1.92-1.11-.23-2.43,.02-3.1-1.28,1.51-1.27,3.19-.61,4.83-.44,4.37,.27,8.81,.2,12.75,2.58Z"/><path class="cls-17" d="M419.98,295.07c-.23,.44-.47,.88-.71,1.33-.66,1.06-1.33,2.12-1.99,3.18-.2,.22-.41,.23-.63,.02,1.51-3.42,3-6.85,4.55-10.24,.51-1.1,.88-2.21,.64-3.41-1.48-7.38,.24-14.66,.74-21.97,.06-.89,.54-1.75,1.08-3.38,.49,5.18-.25,9.52-.72,13.8-.33,3.01-.84,6.12-.21,8.91,.79,3.52-.25,6.23-1.71,9.11-.42,.83-1.2,1.56-1.03,2.63Z"/><path class="cls-118" d="M429.04,291.19c-.89,.13-1.9-.27-2.61,.61-2.4-.42-2.73-1.49-.92-3.13,3.67-3.32,7.9-2.04,12.04-1.41-1.54,.39-3.28-.52-4.7,.69-1.83,1.58-4.73,.34-6.37,2.4-.41,.12,.02,.18,.05,.16,1.13-.96,2.01-.79,2.51,.67Z"/><path class="cls-137" d="M416.65,299.61c.21,0,.42-.01,.63-.02-.5,2.19-1.86,3.96-3.17,6.69,.25-3.05,1.4-4.86,2.54-6.66Z"/><path class="cls-93" d="M396.12,315.86c.2,.18,.39,.36,.59,.54-.71,1.31-2.12,1.76-3.21,2.62,0-1.78,1.33-2.45,2.62-3.15Z"/><path class="cls-165" d="M387.64,332.47c.21,.24,.43,.47,.64,.71,.63,2.56-1.95,4.23-1.86,6.64-.5,.67-1.23,.48-1.9,.49,.4-2.87,1.39-5.5,3.12-7.84Z"/><path class="cls-164" d="M376.98,348.12c-.33-.04-.67-.08-1-.13,.2-.25,.38-.51,.61-.74,.55-.56,1.33-1.04,1.76-.17,.21,.43-.78,.82-1.37,1.04Z"/><path class="cls-5" d="M414.22,322.86c.15,0,.29,0,.44,0,1.2,1.32,1.28,2.62-.08,3.88-.68-.8-.35-1.78-.51-2.68,.05-.4,.11-.8,.16-1.21Z"/><path class="cls-153" d="M414.58,326.74c.03-1.29,.06-2.59,.08-3.88,1.74-8.66,2.4-17.6,6.65-25.61,4.73-.18,9.16,1.73,13.83,1.99,.52,.03,1.03,.26,1.56,.33,2.19,.32,5.21-.9,6.44,.82,1.65,2.32,1.97,5.58,2.07,8.55,.15,4.61,.37,9.26-.04,13.84-.57,6.47-3.22,12.37-6.52,17.88-1.53,2.55-5.13,2.88-8.01,1.01-6.21-4.03-12.15-8.4-16.05-14.93Z"/><path class="cls-61" d="M386.41,339.82c-1.43-2.79,1.57-4.33,1.86-6.64,2.89-4.08,6.93-2.78,10.55-1.87,7.24,1.8,13.52,5.71,19.58,9.94,.9,.63,1.84,1.42,1.41,2.63-.43,1.21-1.69,1.22-2.76,1.16-7.6-.44-15.19-1.02-22.82-2.58,1.06,1.85,2.93,2.31,4.64,3,1.38,.55,2.89,.86,3.98,1.96,.48,.48,1.72,.55,1.3,1.5-.31,.69-1.14,1.47-2.11,.84-1.7-1.09-2.51,.19-2.99,1.29-1.28,3-3.45,5.75-3.42,9.15,.02,2.98-2,3.12-3.88,3.03-1.88-.09-3.79-.63-5.56-1.31-2.94-1.13-3.98-5.45-1.93-8.21,1.04-1.4,1.22-2.06,.28-3.89-2.58-5.07-2.09-7.07,2.39-9.04,.67-.29,1.24-.8,1.91-1.24-1.04-1.1-1.68-.05-2.42,.26Z"/><path class="cls-31" d="M402.53,392.87l.03,.18c-.35,3.34-2.6,6.29-1.99,9.82,0,.23,.02,.47,.03,.7-.78,1.08,.3,2.16-.02,3.24-.05,.52,.1,1.26-.19,1.52-.48,.44-.84-.28-1.16-.57-1.14-1.01-1.89-2.18-1.88-3.85,.06-8.12,.03-16.24,.03-25.3,1.5,4.58,2.72,8.31,3.94,12.03,.51,.68,1.1,1.32,1.21,2.22Z"/><path class="cls-6" d="M424.49,350.65c.17-1.49,.85-2.32,2.25-1.21,.92,.73,1.53,.25,2.29-.03,.17,.66,1.79,.73,.76,1.88-2.08,1.45-3.62,3.27-4.02,5.88-1.73,.91-3.47,.82-5.22,.07,2.25-1.65,3.52-3.87,3.9-6.62l.05,.04Z"/><path class="cls-29" d="M400.98,358.27c1.48-2.21,2.41-4.08,2.18-6.3-.15-1.45,.94-1.91,1.96-1.92,1.31,0,1.24,1.17,1.24,2.15,0,2.94-1.78,5.15-5.39,6.07Z"/><path class="cls-28" d="M410.68,357.49c.69-1.75,2.12-3.08,2.26-5.15,.1-1.48,1.73-2.36,3-1.94,1.67,.55,.54,1.95,.13,2.91-1.49,3.41-2.71,4.33-5.38,4.18Z"/><path class="cls-29" d="M428.54,356.87c1.46-2.02,2.72-3.81,4.03-5.56,.55-.73,1.45-1.19,2.15-.5,.53,.52,.11,1.33-.43,1.94-1.58,1.77-1.66,5.47-5.76,4.12Z"/><path class="cls-120" d="M439.94,354.5c-1.13,.37-1.44,2.1-3.39,1.77,.8-1.31,1.61-2.43,2.17-3.66,.34-.74,1.42-2.09-.73-2.1,0-.21,0-.43-.02-.64,1.94-2.08,2.66-.23,3.54,1.1,.91,1.81-.09,2.78-1.57,3.52Z"/><path class="cls-27" d="M414.85,357.64c1.11-1.65,2.84-2.49,3.17-4.28,.33-1.75,1.25-2.85,2.99-3.3-.08,3.75-2.98,7.46-6.17,7.58Z"/><path class="cls-35" d="M395.2,402.59c-3.07-3.98-1.36-8.21-.57-12.4,.12,4.13,.41,8.24,.57,12.4Z"/><path class="cls-3" d="M406.22,357.43c1.32-1.83,2.4-3.43,2.13-5.53-.07-.56,.16-1.05,.78-1.24,.44-.13,.97-.15,1.12,.3,.5,1.51,.1,2.92-.65,4.27-.68,1.22-.88,3.09-3.37,2.2Z"/><path class="cls-149" d="M425.77,357.16c-.43-.35-2.02,.21-1.31-.79,1.23-1.74,2.57-3.36,3.48-5.33,.35-.75,1.31-.52,1.85,.25-1.04,2.17-2.22,4.23-4.02,5.88Z"/><path class="cls-26" d="M394.9,370.47c-1.95-1.54-2.67-2.86-2.6-4.58,.04-.95,.34-1.63,1.43-1.71,1.38-.11,1.18,.82,1.17,1.67-.01,1.35,0,2.69,0,4.63Z"/><path class="cls-32" d="M399.33,358.89c-1.37-3.19-1.13-4.49,1.3-6.97,.58,1.93,.27,3.6-1.3,6.97Z"/><path class="cls-27" d="M408.91,349.44c-2.15-1.29-4.17-2.5-6.59-3.95,6.33,.03,6.61,.19,6.59,3.95Z"/><path class="cls-152" d="M424.45,350.61c.2,.04,.57,.05,.59,.13,.44,1.97-2.39,6.03-4.48,6.49,1.3-2.21,2.6-4.41,3.9-6.62Z"/><path class="cls-20" d="M400.58,406.82c-.66-1.08-1.23-2.17,.02-3.24-.17,1.16,1.07,2.03,.63,3.24-.22,0-.43,0-.65,0Z"/><path class="cls-162" d="M402.53,392.87c-.78-.54-1.33-1.19-1.21-2.22,.23-.27,.46-.55,.69-.82,.48,.96,1.39,1.85,.52,3.04Z"/><path class="cls-37" d="M420.21,414.45c.38,.09,.83,.11,.81,.67-1.02,.03-2.04,.06-3.06,.09,.06-.14,.13-.28,.17-.43,.02-.07-.05-.16-.09-.23,.72-.04,1.45-.07,2.17-.11Z"/><path class="cls-180" d="M457.4,232.46c-.55-.85-1.4-.62-2.19-.6,0,0-.16,.02-.16,.02,0,0-.16-.04-.16-.04-1.27-1.27-1.59-2.83-1.39-4.55,1.96,.03,3.06-2.26,5.14-1.92,3.2-1.85,6.39-.55,9.54,.14,2.13,.46,4.07,.48,5.83-.96,.59-.76,1.37-.48,2.12-.41,.6,.51,1.92-.22,2.01,1.08,.07,1.06-.55,1.75-1.48,2.27-.82,.45-1.85,.5-2.5,1.28-.13,.16-.25,.32-.38,.48-4.11,1.23-8.21,2.55-12.6,1.98-.89-.12-1.71,.05-2.48,.48-.44,.25-.87,.5-1.31,.75Z"/><path class="cls-64" d="M474.02,224.55c-1.52,2.22-3.81,2.01-5.95,1.62-3.13-.56-6.24-1.05-9.42-.8,.32-.59,.54-1.18,.06-1.8,.87-.78,1.94-.9,3.04-.92,.35-.24,.66-.2,.93,.13,3.67,1.33,7.22,3.35,11.34,1.77Z"/><path class="cls-153" d="M493.49,696.19c1.39,8.32,.38,16.7,.63,25.04-1.08-1.18-1.15-2.76-1.18-4.13-.13-6.62-.06-13.24-.02-19.86,0-.35,.37-.7,.57-1.05Z"/><path class="cls-178" d="M498.61,760.21c.44,2.07,.99,4.13,1.26,6.22,.14,1.06,.7,2.35-.53,3.25-2.44-2.99-2.34-6.17-.73-9.47Z"/><path class="cls-95" d="M485.77,652.01c1,.94,1.32,2.14,1.31,3.47-1.08-.91-1.45-2.09-1.31-3.47Z"/><path class="cls-15" d="M479.21,609.56c-.52-.88-1.18-1.76,.11-2.56,.43,.87,.59,1.73-.11,2.56Z"/><path class="cls-95" d="M479.21,609.56c.04-.85,.07-1.7,.11-2.56,.21-.02,.43-.01,.64,.03,0,1.05-.01,2.11-.02,3.16-.24-.21-.49-.42-.73-.63Z"/><path class="cls-41" d="M541.67,726.52c0-2.58,.02-5.16,0-7.73-.02-2.36,4.61-5.74,6.8-4.97,.81,.29,.77,.94,.8,1.55,.29,6.21-1.2,12.33-.95,18.56,.08,1.95-1.94,1.66-3.13,2.11-2.6,.99-4.36,1.04-3.58-2.77,.44-2.16,.08-4.49,.08-6.75h-.02Z"/><path class="cls-30" d="M557.11,724.47c0,1.08,.09,1.74-.02,2.36-.18,.98,.01,2.28-1.54,2.37-1.68,.1-1.91-1.18-1.96-2.33-.14-2.88-.15-5.76-.17-8.64,0-1.07,.36-1.85,1.64-1.89,1.37-.05,1.57,.99,1.66,1.88,.23,2.22,.29,4.46,.39,6.25Z"/><path class="cls-42" d="M495.85,299.98c1.68,2.61,3.83,3.08,5.35,4.41,2.62,2.29,4.75,4.87,3.78,8.58-.96,3.68-3.77,5.39-7.38,6.19-4.28,.96-8.27,.09-12.17-1.5-3.68-1.5-6.28-5.62-6.03-9.31,.24-3.62,2.79-6.42,7.2-7.44,2.14-.49,2.08-2.24,2.61-3.62,1.14-2.96,3.62-2.16,5.74-2.15,1.72,.01,3.26,.87,3.54,2.65,.2,1.27,1.27,3.9-2.64,2.2Z"/><path class="cls-42" d="M560.67,295.18c1.01-.64,1.15-1.27,.82-2.6-.67-2.64-1.75-5.2-1.73-8.06,.01-2.07,.76-3.09,2.64-3.63,3.91-1.14,7.78-.51,11.69-.02,5.08,.63,10.06,1.65,14.54,4.24,3.79,2.19,4.12,3.32,2.07,7.07-.95,1.73-1.48,3.76-3.26,5-.55,.39-.25,.93,.26,1.27,3.65,8.6-.62,15.28-5.42,21.72-2.23,2.99-4.84,5.7-7.32,8.49-.67,.75-1.38,1.79-2.55,.51-2.83-3.07-6.06-5.74-8.67-9.04-6.13-7.73-6.58-16.07-3.06-24.94Z"/><path class="cls-126" d="M539.99,448.13c6.22,1.64,12.3-.05,18.41-.85,3.7-.49,7.36-1.21,11.06-1.66,1.46-.18,2.99-.26,4.44,.4,1.03,.46,2.6,.33,2.74,1.79,.12,1.19-.76,2.11-1.7,2.94-5.37,4.75-11.95,6.59-18.76,7.67-3.35,.53-6.65,1.33-10.13,1.43-15.38,.42-19.98-16.01-15.2-25.32,.32-.62,.25-1.67,1.32-1.39,.74,.2,1.22,.87,1.31,1.69,.15,1.48,.23,2.99,1.3,4.19,.65,1.26,.7,2.67,.9,4.03,.9,6.03,5.01,9.75,11.09,10.04,6.92,.33,13.55-1.27,20.17-2.97-5.02,.26-9.89,1.6-14.88,1.98-3,.23-6.01,.44-8.92-.53-1.62-.54-3.29-1.18-3.15-3.42Z"/><path class="cls-126" d="M450.3,448.12c2.39,3.49,5.68,6.14,8.54,9.19,3.74,3.99,2.12,9.12,1.48,13.82-.25,1.82-.11,3.88-1.62,5.43-.53,.54-.86,1.32-1.73,1.19-1.03-.16-1.39-1.12-1.42-1.92-.1-2.56-1.2-5.03-.67-7.64,.48-.39,1.22,.45,1.15,.21-1.27-4.2-2.21-8.55-4.95-12.15-.93-1.23-2.25-1.97-3.62-2.63-.75-.57-1.53-.94-2.53-1-2.27-.13-2.63-1.29-1.42-3.1,2.16-.95,4.45-1.31,6.79-1.4Z"/><path class="cls-24" d="M539.99,448.13c2.97,4.5,7.64,3.38,11.71,3.1,6.02-.42,11.95-1.91,18.31-2.23-1.54,1.98-3.75,2.22-5.65,2.68-5.71,1.38-11.47,2.42-17.43,2.33-8.32-.12-13.27-7.21-12.15-15.01,.11-4.17,.3-4.7,2.47-6.68-1.37,5.8-2.31,11.37,2.74,15.8Z"/><path class="cls-7" d="M450.3,448.12c-1.77,1.93-4.5,.63-6.46,1.91-.49,.5-1.53,.67-1.2,1.66,.27,.84,1.1,.94,1.87,.96,1.07,.02,2.17-.15,3.09,.61,3.22,.33,4.66,2.7,5.82,5.25,1.7,3.71,3.02,7.54,3.87,11.87-1.73-.21-1.54-1.75-2.4-2.21-.69-4.85-3.49-8.58-6.53-12.17-.91-1.08-2.21-1.13-3.46-1.36-1.99-.37-4.48,0-4.52-3.22-.01-.88-.93-.68-1.53-.69-1.58-.02-3.16,0-4.8-.5,3.82-.71,7.69-1.23,11.44-2.21,1.73-.45,3.22-1.76,4.82,.09Z"/><path class="cls-21" d="M472.36,436.14c-1.7,5.15-8.73,9.93-13.18,8.63,5.88-1.22,9.5-4.93,13.18-8.63Z"/><path class="cls-115" d="M480.03,468.18c-2.4-5.44-3.99-10.91-2.9-16.81,.97,5.6,1.93,11.21,2.9,16.81Z"/><path class="cls-118" d="M485.94,463.17v-12.42c1.58,2.43,1.49,8.03,0,12.42Z"/><path class="cls-150" d="M575.41,373.77c.05,.34,.1,.67,.15,1.01-.14,.49-.29,.97-.43,1.46-.26-.08-.74-.15-.74-.23-.03-.9,.5-1.57,1.02-2.24Z"/><path class="cls-105" d="M408.91,393.89c-.14-1.06,.52-1.83,1.38-1.78,5.82,.32,10.69-2.84,16-4.32,3.33-.93,6.45-1.66,10.37,.67-1.73-3.07-3.14-4.87-6.05-3.52-1.08,.5-1.97,.64-2.93-.09-.76,.26-1.63,.89-1.91-.55,2.28-.48,4.55-1,6.84-1.44,2.02-.39,3.18,1,4.27,2.32,2.46,2.99,4.49,6.37,8.72,8.48-3.05,.39-4.71-.98-6.28-2.1-4.89-3.5-9.69-3.96-15.29-1.3-4.67,2.22-9.9,3.13-15.12,3.63Z"/><path class="cls-79" d="M436.06,365.61c-.24,.2-.47,.4-.71,.6-3.5,.16-6.18-2.06-9.19-3.28-1.36-.55-2.53-1.06-3.87-.12-4.33,3-8.05,6.61-10.89,11.07-.58,.9-1.01,1.87-.33,3.05,1.85-.75,3.58-1.8,5.6-2.06,.43,.39,.49,.88,.35,1.41-.95,1.66-2.81,.81-4.11,1.5-1.11-.08-2.46,.7-3.25-.52-.87-1.34-.08-2.64,.61-3.83,2.83-4.9,6.85-8.65,11.39-11.93,1.22-.88,2.46-.87,3.64-.4,3.62,1.43,7.18,3,10.77,4.52Z"/><path class="cls-78" d="M425.78,384.31c.5,.67,1.23,.52,1.91,.55-6.21,.44-11.55,4.91-18.09,3.9-1.75-.27-3.34-.71-4.01-2.55-.33-.91-.38-1.78,1.08-1.35,1.51,2.18,5.5,2.68,9.56,1.46,3.11-.94,6.06-2.83,9.55-2Z"/><path class="cls-106" d="M436.07,397.82c-.23,.21-.47,.42-.7,.63-3.01-1.92-5.93-1.36-9.01,0-4.43,1.95-9.17,1.67-13.82,1.21-3.54-.35-4.79-2.61-3.58-5.81,.7,3.79,1.53,4.42,5.54,4.53,4.9,.13,9.71,.05,14.31-2.13,2.61-1.24,5.17-.46,7.26,1.58Z"/><path class="cls-166" d="M416.7,376.52c-.01-.55-.03-1.1-.04-1.66,1.54-1.11,3.09-2.19,5.08-2.33,.43-.28,.89-.51,1.4-.6,1.18-.24,2.34-.25,3.48,.16,.76,1.35,1.11-1.06,1.82-.2,.95,.51,1.8,1.12,2.14,2.24-.13,.12-.31,.38-.38,.35-6.2-2.11-10.37,2.38-15.21,4.66-.72,.3-.83-.11-.8-.68l-.11-.2c.61-.99,1.61-1.38,2.63-1.74Z"/><path class="cls-87" d="M439.21,377.53c5.98,1.03,8.1,4.11,7.56,10.53-1.37-4.33-3.29-8.27-7.56-10.53Z"/><path class="cls-51" d="M423.27,372.55c-.51,0-1.02-.01-1.53-.02,2.19-3.12,4.35-3.33,6.7-.64-.62-.13-.52,1.4-1.42,.61-1.26-.88-2.5-.73-3.74,.05Z"/><path class="cls-159" d="M414.17,378.46c.27,.23,.54,.45,.8,.68-1.16,1.19-2.52,2.03-4.12,2.48,.06-2.15,2.24-2.09,3.32-3.17Z"/><path class="cls-62" d="M445.64,394.99v4.98c-.67-1.66-.66-3.32,0-4.98Z"/><path class="cls-50" d="M407.51,383.57c.84-1.17,1.69-2.34,3.42-2-.74,1.36-1.86,2.05-3.42,2Z"/><path class="cls-158" d="M400.57,402.87c-.81,.13-1.48-.41-1.19-1.02,1.34-2.84,1.29-6.18,3.18-8.81,.45,3.5-1.07,6.6-1.99,9.82Z"/><path class="cls-59" d="M416.7,376.52c-.65,.92-1.69,1.26-2.63,1.74-.39-.16-.78-.32-1.17-.49,1.21-.59,2.31-1.53,3.8-1.25Z"/><path class="cls-87" d="M442.97,185.42c10.01,2.07,17.59-3.65,26.14-8.38-4.62,6.82-19.14,11.49-26.14,8.38Z"/><path class="cls-89" d="M465.75,194.32h3.8c-4.13,1-8,3.16-12.38,2.57,2.41-2.37,5.57-2.21,8.58-2.57Z"/><path class="cls-177" d="M475.49,196.19c.89-1.54-1.07-.98-1.27-1.72,1.95-.06,3.97-.67,6.12,.97-1.84,.21-3.19,1.16-4.85,.75Z"/><path class="cls-145" d="M458.02,194.21c.44-.75,.9-1.33,2.13-1.32-.56,1.02-.98,1.67-2.13,1.32Z"/><path class="cls-12" d="M467.74,198.9c-.67-.07-1.34-.15-2.01-.22,.01-.14,.03-.28,.04-.43,.93,0,1.86,0,2.8,0-.28,.22-.55,.43-.83,.65Z"/><path class="cls-67" d="M458.72,231.7c.32-.6,.8-1.18,1.45-1.11,4.64,.51,9-1.75,13.63-1.34-.29,.21-.59,.41-.88,.62-.86,.93,1.76,1.31,.38,2.33-2.3,1.18-4.8,1.71-7.31,2.21-1.03,.21-2.16,.15-2.8,1.23-2.22-.17-2.42-1.55-1.99-3.31,.54-.76,1.31-.94,1.93-.86-.7,.06-1.66-.04-2.58,.28-.61-.02-1.22-.04-1.83-.05Z"/><path class="cls-56" d="M463.18,235.65c-.03-.68-1.64-1.97,.46-1.85,3.51,.19,6.56-1.41,9.83-2.15,.67-.36,1.17-.17,1.53,.48-.66,1.47-1.79,2.38-3.35,2.77-.06,.32-.12,.64-.18,.95-1.08,.33-2.34-.18-3.29,.73-.99,0-2,.29-2.95-.22-.68-.24-1.36-.47-2.05-.71Z"/><path class="cls-147" d="M494.79,198.11c-1.41,3.18-2.88,6.32-4.62,9.35-1.61,2.8-1.77,6.05-1.97,9.24-1.53-5.47,.57-10.12,3.2-14.67,1.17-2.02,2.19-4.12,2.84-6.39,0-.39,.18-.67,.53-.85l.7,.2c.58,1.21,.71,2.33-.67,3.12Z"/><path class="cls-82" d="M474.17,228.77c.46-1.08,1.66-1.16,2.43-1.82,1.36-1.17,1.31-2.14-.46-2.81,1.62-.45,3.24-.91,4.9-1.37-.24,3.34-2.25,5.06-6.86,6Z"/><path class="cls-144" d="M502.49,189.71c.04-.86-.01-1.91,1.21-1.84,1.05,.07,1.27,1.2,1.32,1.93,.2,2.85,.36,5.72-.88,8.68-1.09-2.7,.35-5.49-.86-7.96-.66,.12-1.03-.05-.79-.81Z"/><path class="cls-156" d="M474.68,232.42c-.05-.8-.75-.6-1.21-.77-.24-.58-1.91-.7-.56-1.78,1.61,1.4,2.81-.27,4.18-.59,1.08-.25,2.09-.77,4.03-1.52-1.85,2.55-4.62,2.64-5.64,4.69-.28,.3-.55,.28-.8-.04Z"/><path class="cls-54" d="M494.79,198.11c.22-1.04,.45-2.08,.67-3.12,1.23,.77,2.27,1.62,1.41,3.29-.7,.14-.22,1.64-1.4,1.22-.23-.46-.46-.92-.69-1.39Z"/><path class="cls-48" d="M502.49,189.71c.26,.27,.53,.54,.79,.81-.95,1.5-.58,3.51-1.96,4.99-.32-2.16,.09-4.04,1.17-5.8Z"/><path class="cls-172" d="M474.68,232.42c.27,.01,.53,.02,.8,.04-1.04,1.19-1.74,2.9-3.83,2.44,1.01-.83,2.02-1.65,3.03-2.48Z"/><path class="cls-45" d="M495.47,199.5c.47-.41,.93-.81,1.4-1.22-.36,.89,1.28,2.08-.21,2.66-.79,.31-.8-.93-1.19-1.45Z"/><path class="cls-53" d="M494.76,194.79c.04,.42-.12,.71-.53,.85-.5-.16-1.44-.07-.92-.97,.32-.55,1.01-.52,1.45,.12Z"/><path class="cls-46" d="M460.54,231.76c.82-1.05,1.85-.39,3-.62-.66,1.17-1.73,.65-2.35,1.2-.22-.19-.43-.39-.65-.58Z"/><path class="cls-116" d="M465.22,236.36c1-.03,2-.07,3-.1,.28-.19,.53-.17,.77,.07-1.25,1.02-2.51,.99-3.77,.03Z"/><path class="cls-176" d="M500.95,199.12c-.3-.91-.59-1.71,.08-2.44,.72,.9-.01,1.72-.08,2.44Z"/><path class="cls-170" d="M462.68,222.78c-.31-.04-.62-.08-.93-.13,.45-.73,.98-1.89,1.85-1.36,.59,.36-.29,1.14-.91,1.49Z"/><path class="cls-103" d="M469,236.32c-.26-.02-.51-.05-.77-.07,.99-.89,2.11-.68,3.24-.4-.7,.8-1.63,.4-2.47,.47Z"/><path class="cls-134" d="M445.86,351.22c-.2,.67-.41,1.34-.61,2.01-.89,1.13-1.82,2.21-3.21,2.78-1.42,.59-1.41,.61-1.36-1.49,.5-1.23,2.34-2.09,1.07-3.82,1.62-1.86,3.07-2.35,4.11,.51Z"/><path class="cls-39" d="M441.75,350.71c.6,.02,1.4-.19,1.77,.12,.61,.51-.08,1.17-.43,1.52-.77,.75-1.05,2.08-2.4,2.18-.25-.01-.49-.02-.74-.03,.74-1.07,1.48-2.15,1.57-3.52,0,0,.2-.05,.2-.05,0,0,.04-.22,.04-.22Z"/><path class="cls-58" d="M413.07,314.75c.4-.14,.64-.28,.9-.31,.7-.08,.95,.3,.83,.94-.05,.23,.03,.8-.47,.51-.43-.24-.75-.67-1.25-1.15Z"/><path class="cls-152" d="M429.04,291.19c-.87-1.15-2.25-.24-3.32-.87,1.65-3.02,4.56-2.21,7.14-2.37,5.53,.54,11.13,.74,16.22,3.43-6.72,1-13.37,.11-20.04-.2Z"/><path class="cls-87" d="M387.87,352.16c3.45,1.37,5.37,3.4,7.43,5.23-3.02-.41-5.06-2.26-7.43-5.23Z"/><path class="cls-139" d="M447.6,453.26c-1.36-.05-2.76,.07-4.05-.23-.7-.16-2.16,.12-1.98-1.41,.16-1.31,1.1-1.66,2.28-1.59-.7,1.42-.46,2.46,1.29,1.82,1.66-.61,2.04,.25,2.47,1.4Z"/><path class="cls-33" d="M423.27,372.55c1.23-1.39,2.46-2.59,3.74-.05-1.25,.02-2.49,.03-3.74,.05Z"/></svg>