<?xml version="1.0" encoding="UTF-8"?><svg id="Layer_1" xmlns="http://www.w3.org/2000/svg" viewBox="0 0 1000 1000"><defs><style>.cls-1{fill:#f3f3f2;}.cls-2{fill:#f2f2f2;}.cls-3{fill:#f2f1f0;}.cls-4{fill:#f9f9f9;}.cls-5{fill:#010100;}.cls-6{fill:#030303;}.cls-7{fill:#060505;}.cls-8{fill:#060607;}.cls-9{fill:#020201;}.cls-10{fill:#020203;}.cls-11{fill:#eef0f1;}.cls-12{fill:#e6e8e9;}.cls-13{fill:#e6e6e6;}.cls-14{fill:#e6e9ea;}.cls-15{fill:#e9ebec;}.cls-16{fill:#f5f5f4;}.cls-17{fill:#fafdff;}.cls-18{fill:#fcfcfd;}.cls-19{fill:#e86224;}.cls-20{fill:#e3eaed;}.cls-21{fill:#e8f2f7;}.cls-22{fill:#edebea;}.cls-23{fill:#ededed;}.cls-24{fill:#e2e5e6;}.cls-25{fill:#f1f1f2;}.cls-26{fill:#fbfcfc;}.cls-27{fill:#fbfbfb;}.cls-28{fill:#e76224;}.cls-29{fill:#e2e3e4;}.cls-30{fill:#e66124;}.cls-31{fill:#e4e6e7;}.cls-32{fill:#eff6f9;}.cls-33{fill:#fdfdfd;}.cls-34{fill:#7e7472;}.cls-35{fill:#7d8082;}.cls-36{fill:#6b6a6b;}.cls-37{fill:#734b32;}.cls-38{fill:#685a53;}.cls-39{fill:#656565;}.cls-40{fill:#6c6d6d;}.cls-41{fill:#857f7e;}.cls-42{fill:#858383;}.cls-43{fill:#875435;}.cls-44{fill:#b4b1b0;}.cls-45{fill:#8c9ba2;}.cls-46{fill:#c2bcd6;}.cls-47{fill:#918e8f;}.cls-48{fill:#b3afae;}.cls-49{fill:#b6b5b6;}.cls-50{fill:#322e2f;}.cls-51{fill:#302e3c;}.cls-52{fill:#312824;}.cls-53{fill:#31241c;}.cls-54{fill:#865435;}.cls-55{fill:#858282;}.cls-56{fill:#acadaf;}.cls-57{fill:#aeafb0;}.cls-58{fill:#bebbba;}.cls-59{fill:#cccaca;}.cls-60{fill:#c9c7c7;}.cls-61{fill:#dedfdf;}.cls-62{fill:#dbdada;}.cls-63{fill:#dadada;}.cls-64{fill:#d4d4d4;}.cls-65{fill:#d4d6d7;}.cls-66{fill:#e1e6e9;}.cls-67{fill:#a8a5a5;}.cls-68{fill:#15100e;}.cls-69{fill:#130e0c;}.cls-70{fill:#19120f;}.cls-71{fill:#242327;}.cls-72{fill:#1f1f23;}.cls-73{fill:#1f1f22;}.cls-74{fill:#1f1e23;}.cls-75{fill:#1f1e22;}.cls-76{fill:#1e1f22;}.cls-77{fill:#1e1c1f;}.cls-78{fill:#1e1e22;}.cls-79{fill:#222124;}.cls-80{fill:#222125;}.cls-81{fill:#212024;}.cls-82{fill:#202125;}.cls-83{fill:#202023;}.cls-84{fill:#201f23;}.cls-85{fill:#201f22;}.cls-86{fill:#232326;}.cls-87{fill:#423d3b;}.cls-88{fill:#424041;}.cls-89{fill:#43332b;}.cls-90{fill:#403d3c;}.cls-91{fill:#403f3e;}.cls-92{fill:#070402;}.cls-93{fill:#141416;}.cls-94{fill:#16110f;}.cls-95{fill:#0d0c0d;}.cls-96{fill:#1d140e;}.cls-97{fill:#1d1d20;}.cls-98{fill:#1c1d1f;}.cls-99{fill:#372922;}.cls-100{fill:#362e2a;}.cls-101{fill:#372b24;}.cls-102{fill:#191312;}.cls-103{fill:#0a0604;}.cls-104{fill:#3e3e3e;}.cls-105{fill:#3e3d3d;}.cls-106{fill:#1a1b1b;}.cls-107{fill:#6f7375;}.cls-108{fill:#879094;}.cls-109{fill:#9a8983;}.cls-110{fill:#88898a;}.cls-111{fill:#808c91;}.cls-112{fill:#807c78;}.cls-113{fill:#292625;}.cls-114{fill:#2b2a2c;}.cls-115{fill:#474646;}.cls-116{fill:#2a282b;}.cls-117{fill:#2a282a;}.cls-118{fill:#484647;}.cls-119{fill:#474340;}.cls-120{fill:#3a291f;}.cls-121{fill:#302c2b;}.cls-122{fill:#2f2d2c;}.cls-123{fill:#3b3b3b;}.cls-124{fill:#383838;}.cls-125{fill:#262525;}.cls-126{fill:#313133;}.cls-127{fill:#3a3330;}.cls-128{fill:#3a3a3a;}.cls-129{fill:#3a383b;}.cls-130{fill:#3a3838;}.cls-131{fill:#3b3a3a;}.cls-132{fill:#3b3a39;}.cls-133{fill:#3b3835;}.cls-134{fill:#3b3c3c;}.cls-135{fill:#3b3734;}.cls-136{fill:#352720;}.cls-137{fill:#352b23;}.cls-138{fill:#353635;}.cls-139{fill:#3d3b3d;}.cls-140{fill:#342f2b;}.cls-141{fill:#272527;}.cls-142{fill:#272628;}.cls-143{fill:#5a5857;}.cls-144{fill:#39312c;}.cls-145{fill:#393939;}.cls-146{fill:#575257;}.cls-147{fill:#3c3c3b;}.cls-148{fill:#3c3d3d;}.cls-149{fill:#3c3736;}.cls-150{fill:#3c3331;}.cls-151{fill:#3c322d;}.cls-152{fill:#714930;}.cls-153{fill:#494545;}.cls-154{fill:#754c32;}.cls-155{fill:#5d5858;}.cls-156{fill:#797879;}.cls-157{fill:#796f6d;}.cls-158{fill:#4e3627;}.cls-159{fill:#757577;}.cls-160{fill:#261b14;}</style></defs><path class="cls-5" d="M503.45,830.72c-.18,.68-.69,1.12-1.26,1.38-4.29,1.9-8.56,4-13.3,4.41-3.44,.3-6.81,.83-10.2,1.5-7.77,1.55-10.84-1.18-12.79-7.44-.45-1.46-.68-2.99-1.24-4.41-2.4-6.15-1.7-12.29,.02-18.39,1.27-4.48,4.29-7.83,7.72-10.79,1.03-.88,1.92-1.59,1.79-3.09-.04-.46,.3-.97,.49-1.44,1.6-3.92,2-7.51-2.46-9.95-.98-.54-1.16-1.55-1.21-2.65-.09-1.97,.15-3.89,1.07-5.58,1.83-3.39,1.84-6.44-.66-9.58-2.02-2.54-1.24-5.67-.64-8.44,1.87-8.61,3.24-17.27,3.33-26.09,.05-4.73-1.29-9.31-1.85-13.97-1.16-9.72-3.75-19.2-4.52-29.01-.71-9.02-1.24-18.07-2.18-27.07-.45-4.36-.47-8.68-.5-13.02,0-1.19-.34-2.22-.87-3.29-3.92-7.92-4.39-16.13-1.96-24.57,1.16-4.03,1.51-8.22,2.56-12.29,.78-3-.47-6.08-.95-9.05-.7-4.3-.73-8.63-1.33-12.92-.92-6.55-1.49-13.16-2.11-19.75-.66-7.11-1.16-14.24-1.82-21.35-.79-8.45-.51-16.9-.53-25.36-.01-7.83,.89-15.53,2.67-23.14,.6-2.59,.58-2.59-2.18-3.52-5-1.68-6.86-3.86-6.98-8.86-.1-4.46,.08-8.93,1.73-13.18,.48-.23,.86-.13,1.17,.3,1.24,3.04,.42,6.23,.64,9.35,.12,1.74-.28,3.55,.8,5.14,1.29,2.15,3.35,2.99,5.67,3.53,9.09,2.13,18.29,1.47,27.46,1,1.91-.1,3.8-.48,5.72-.27,1.31-.09,2.74,1.39,3.93-.3,1.23-2.19-.3-5.2,2.11-7.03,.97-.55,2-.84,3.13-.69,1.47,.34,2.79,1.11,3.06,2.6,.48,2.69,2.13,2.82,4.25,2.39,4.67-.94,9.46-.85,14.17-1.46,2.11-.28,3.26-1.15,3.1-3.48-.99-14.51,1.44-28.67,4.58-42.73,3.04-13.63,1.98-27.26,.52-40.97-1.47-13.8-1.94-27.64-.74-41.52,.49-5.71-.71-11.24-2.77-16.57-2.49-6.45-6.17-12.46-7.21-19.45-.3-1.99-1.12-4.06,.78-5.75,2.76-.19,1.94,2.35,2.79,3.63,.58,1.59,1.13,3.19,1.84,4.72,1.49,5.18,3.73,10.08,5.78,15.04,3.31,8.01,3.39,16.31,2.49,24.59-.91,8.38-.13,16.65,.67,24.91,.36,3.68-.26,7.46,.94,11.06,.31,1.96,0,4,.73,5.91,1.68,16.46-.25,32.62-3.99,48.65-2.61,11.22-1.9,22.59-1.41,33.94-.97-6.42-.22-12.9-.4-19.36-.04-1.41,.07-2.82,.68-4.13,1-1.48,.95-3.18,1-4.86,.14-.88,.33-1.74,1.19-2.23,2.56,1.73,1.54,4.3,1.51,6.61-.09,7.15-.04,14.31,.68,21.42,.41,4.05,.99,4.39,4.93,3.77,3.23-.51,6.41-.53,9.48,.53,4.25,1.47,8.51,1.6,12.86,.7,2,.09,4.03-.26,5.98,.45,.43,.21,.7,.55,.81,1.02-.09,.45-.32,.83-.66,1.13-2.7,1.45-4.71,3.22-4.98,6.68-.22,2.78-2.33,4.17-5.12,4.24-2.72,.07-3.98-1.63-4.29-4.02-.32-2.47-1.77-3.39-4-3.95-3.17-.79-6.27-1.14-9.51-.45-2.63,.56-5.29,1.04-8.02,.89-2.18-.12-4.27-.7-5.24-2.68-1.37-2.8-3.43-2.99-6.07-2.54-5.06,.86-10.14,1.74-15.31,1.39-1.81-.12-2.98,.4-3.23,2.38-.15,1.16-.66,2.21-1.32,3.17-2.46,3.57-4.55,3.54-6.69-.28-.75-1.34-1.58-1.85-3.04-1.68-4.86,.57-9.75,.25-14.63,.29-2.62,.02-4.16,.94-4.22,3.75-.02,1.02-.3,2.03-.67,3-.77,2.03-2.19,3.12-4.4,3.05-2.21-.07-3.49-1.32-4.29-3.29-.69-1.7-.05-3.57-1.01-6.08-1.33,4.29-2.36,7.88-2.65,11.71-1.34,17.58-.16,35.06,1.2,52.62,.85,10.99,2.48,21.91,2.82,32.96,.19,6.25,1.8,12.41,1.47,18.77-.24,4.78-1.49,9.37-2.05,14.08-.62,5.24-.25,10.25,1.73,15.12,1.06,2.62,1.83,5.34,2.85,7.98,.87,2.24,1.32,4.37-.42,6.52-.93,1.14-.62,2.7-.67,4.11-.34,10.68,1.41,21.24,1.88,31.86,.42,9.48,3.28,18.66,3.24,26.9-.31-3.36-.41-8,.51-12.59,.25-1.26,.4-2.54,.96-3.72,.26-.54,.49-1.24,1.32-1.09,.59,.11,.74,.67,.92,1.13,.37,.98,.37,2.01,.4,3.04,.21,8.86-.63,17.68-1.08,26.51-.44,8.64-2.19,17.03-3.31,25.53-.36,2.72-.65,5.29,1.79,7.81,2.2,2.26,1.06,5.62,.1,8.44-2.65,7.72-2.69,7.56,5.61,7.26,7.43-.27,14.88-.63,22.25,1.03,3.16,.71,6.38,.61,9.55-.21,2.44-.62,3.72-2.08,3.71-4.66,0-1.94-.02-3.87-.59-5.73-1.79-5.82-2.44-11.8-2.73-17.84-.08-.63-.18-1.26-.35-1.87-2.42-7.09-3.2-14.46-4.13-21.86-2.22-17.74-1.5-35.6-2.8-53.38-.55-7.53-.15-15.14-.95-22.68-.5-4.76,1.86-9,2.42-13.58,.46-3.78,.27-7.42-.68-11.05-.42-1.62-.9-3.23-.91-4.91-.05-13.42-.32-26.82,.49-40.26,.76-12.55,.23-25.16,.16-37.74,0-1.71-.57-3.27-1.48-4.72-.61-.98-1.31-1.92-1.72-3-.53-1.4-1.5-3.02,.21-4.13,1.43-.93,2.75,.09,3.73,1.12,4.69,4.94,9.08,9.99,11.49,16.63,7.2,19.81,12.5,40.18,18.07,60.48,.85,3.08,1.39,6.24,1.28,9.6,2.65-1.55,3.73-.4,3.52,2.12-.24,2.81-1,5.58-2.02,8.2-2.58,6.67-2.12,13.17,1.31,19.3,2.03,3.61,2.57,7.51,1.87,11.16-1.75,9.16-.23,18.16,.37,27.22,.08,1.28,.37,2.55,.33,3.83-.35,11.46,1.26,22.78,2.11,34.16,.77,10.36,.35,20.8,.15,31.19-.1,5.48,.9,10.43,4,14.94,1.4,2.03,1.31,3.95-.04,6.07-2.35,3.67-.48,7.36,3.88,8.04,2.13,.33,4.07-.18,5.96-1.1,4.05-1.96,8.02-4.06,11.99-6.17,5.48-2.91,11.34-4.01,17.44-4.13,6.37-.13,6.38-.09,7.46-6.1,.14-.38,.24-.77,.3-1.17,.01-.21,.05-.45-.12-.64,.11,.21,.14,.44,.08,.72-.1,.42-.22,.81-.38,1.21-.78,1.82-1.92,3.35-3.62,4.38-.76,.45-1.64,.92-2.49,.26-.81-.63-.8-1.59-.58-2.47,.53-2.18,1.94-3.91,3.19-5.67,2.47-3.48,2.89-6.88,1.67-11.17-5.27-18.64-9.95-37.43-12.13-56.75-.17-1.53-.26-3.07-.24-4.61,.17-19.12-1.17-38.17-2.08-57.25-.63-13.07-1.6-26.1-2.59-39.13-1.74-22.87-2.71-45.81-6.04-68.55-.69-4.7-2.85-9.04-3.03-13.83,.32-.43,.71-.52,1.19-.29,2.11,.31,2.82,2,3.49,3.65,2.56,6.3,3.9,12.89,4.82,19.61,1.09,7.95,1.88,15.93,2.47,23.93,.24,3.19,.2,6.38,.48,9.58,.59,6.87,.57,13.79,1.19,20.66,.7,7.76,1.13,15.53,1.57,23.31,.35,6.23,.83,12.47,1.27,18.7,.63,8.82,.69,17.64,1.04,26.46,.29,7.19,.02,14.38,.47,21.54,.69,10.81,.67,21.68,3.09,32.35,2.95,13.02,5.35,26.16,8.64,39.11,.41,1.6,.81,3.21,1.26,4.8,.32,1.14,.64,2.37,0,3.37-1.55,2.45-.62,4.81-.15,7.27,.31,1.63,.98,3.14,1.17,4.83,.34,3.05,.19,5.62-3.35,6.65,1.7,3.27,3.35,6.25,4.54,9.48,1.18,3.21,3.54,5.6,6.23,7.63,2.84,2.14,5.51,4.46,7.98,7.04,5.05,5.27,4.28,14.32,.83,19.24-1.59,2.27-4.16,3.63-6.9,3.59-6.61-.1-12.88,1.57-19.23,2.99-5.24,1.17-9.43-1.24-13.32-4.38-4.72-3.81-7.82-8.79-10.01-14.32-1.01-2.56-2.18-4.3-5.28-4.27-3.25,.03-5.08-1.97-5.96-4.98-.43-1.46-1.14-2.84-1.12-4.43,.03-2.73-.46-4.89-3.94-5.23-1.75-.17-3.07-1.72-4.17-3.2-1.47-1.96-2.52-4.15-3.47-6.38-1.31-3.11-1.13-4.1,1.74-6.17,1.25-.9,1.42-1.34,.59-2.65-2.24-3.55-3.69-7.35-3.12-11.73,.26-2.02-.03-4.11,.06-6.16,.37-8.47-.47-16.91-1.06-25.32-.6-8.64-1.46-17.28-2.13-25.92-.47-6.12-.59-12.26-1.07-18.37-.5-6.37-1.2-12.7-1.2-19.1,0-2.08,.49-4.04,.7-6.06,.44-4.33-.44-8.5-1.65-12.59-1.4-4.72-1.86-9.5-1.46-14.39,.63-7.7,.32-15.44-2.01-22.76-3.28-10.35-5.89-20.88-9.09-31.24-2.71-8.77-5.82-17.41-8.84-26.08-.43-1.24-.55-2.68-2.1-4.44,0,1.56,.01,2.37,0,3.18-.14,9.24,.08,18.5-.52,27.7-.73,11.37-.89,22.75-1.44,34.12-.04,.91-.11,1.78-.56,2.59-1.08,1.91-.83,4-.63,6.01,.24,2.39,.63,4.79,1.23,7.11,1.09,4.17-.33,8.11-.96,12.1-.25,1.57-.31,2.93,.11,4.46,.91,3.33,1.28,6.75,1.25,10.24-.09,11.04,.09,22.08-.08,33.12-.11,6.8,1.25,13.47,1.35,20.25,.07,4.6,1.05,9.15,.84,13.76-.22,4.89,.08,9.93,1.2,14.5,1.69,6.94,2,14.08,3.87,20.95,.67,2.44,.92,5.01,1.22,7.54,.21,1.83,1.86,3.04,1.92,4.9,.09,2.82-.66,5.55-.93,8.34-.05,.48-.24,1.12-.59,1.39-3.58,2.71-2.3,6.33-1.91,9.78,.16,1.39,.43,2.76,.6,4.15,.09,.78-.05,1.6-.53,2.21-2.95,3.73-3.37,8.36-4.59,12.71-.24,.85-.75,1.62-1.13,2.42-.41,.25-.77,.19-1.08-.17-.24-.35-.39-.73-.48-1.13,0-2.84,.45-5.64,.9-8.44,.59-1.21,1.07-2.46,1.09-3.84,.01-.38,.26-.96,.1-1.11-3.56-3.29-1.35-6.39,.27-9.5,.4-.78,1.25-1.5,.72-2.44-.65-1.16-1.79-.65-2.78-.55-7.88,.78-11.49,8.51-7.14,15.32,.55,.85,.95,1.81,1.89,2.67,1.03-2.2,1.94-4.47,3.96-5.87,1.48-1.02,2.99-1.52,2.96,1.27,.05,1-.3,1.91-.58,2.83-.93,1.56-1.59,3.18-1.6,5.06-.02,11.73-9.03,19.79-20.65,18.67-7.1-.69-14.21-1.3-21.26-2.35-.68-.25-.89-.03-.61,.69,.43,1.09,.59,2.24,.94,3.33,1.35,4.23,2.94,5.23,7.29,4.79,4.17-.43,8.31-1.21,12.54-1.01,1.98,.09,3.72-.64,5.4-1.64,1.87-1.11,3.86-1.95,6.1-2.02,1.01,.24,2.31,.15,2.11,1.81Z"/><path d="M486.29,166.67c.04-.76-.11-1.58,.14-2.27,1.13-3.22,1.31-3.29,3.89-2.19,1.88,.8,3.81,1.48,5.65,2.35,2.18,1.03,4.25,.97,6.15-.46,2.92-2.21,5.55-2.01,8.32,.35,1.54,1.31,3.26,2.28,5.63,1.59,1.77-.52,3.45,.12,4.5,2.01,.8,1.44,1.96,2.68,2.96,4.01,.69,1.21,2.06,1.42,3.12,2.08,3.23,2.02,5.47,4.68,5.19,8.69-.19,2.7,.77,5.18,1.9,7.3,2.26,4.25,2.23,8.53,1.6,12.99,.07,1.14,.16,2.31-.93,3.1-1.53,1.1-1.71,2.68-1.61,4.38-1.69,1.36-2.54,0-3.34-1.11-1.14-1.59-1.65-3.47-2.02-5.35-.5-2.58-2.2-4.54-3.28-6.8-3.32-6.96-10.26-7.76-16.22-9.2-3.18-.77-7.37,.34-11.14,2.37-6.25,3.37-8.88,10-14.45,13.84-2.68,1.85-1.97,5.3-1.56,8.25,.42,3.03,2.09,5.8,1.84,8.97-.13,.77-.4,1.47-1.11,1.91-1.11,.09-2.62-.3-2.15,1.75-.28,.81-.74,1.38-1.69,1.32-2.83-6.61-7.3-12.67-6.87-20.39,.04-.4,.14-.78,.27-1.16,.2-.54,.49-1.03,.8-1.5,1.57-3.15,2.59-6.41,2.03-9.99-.13-.34-.16-.69-.12-1.05,5.11-6.28,7.48-14.58,14.44-19.51,.91-.64,1.47-1.75,1.69-2.92-.06-1.23-1.09-1.2-1.89-1.51-.85-.33-2.15-.31-1.77-1.85Z"/><path class="cls-69" d="M570.61,515.22c-.29,.02-.57,.04-.86,.07-1.42,1.62-3.24,1.95-5.24,1.58-3.81-.7-5.33-3.94-3.14-7.14,2.9-4.25,4.95-8.87,6.58-13.71,.76-2.25,1.92-4.17,4.03-5.4l-.02,.02c.41-.38,.38-.91,.44-1.4,.28-1.73,.15-3.43-.32-5.11-.13-1.75,.21-3.39,1.11-4.9,.3-.27,.63-.34,1.01-.21,1.44,4.7,2.29,9.28-.82,13.81-2.69,3.91-2.92,8.98-5.72,12.94-1.01,1.43-1.71,3.13-2.7,4.64-1.11,1.69-.26,2.32,1.45,2.32,2.34,0,3.87-1.32,4.87-3.23,1.31-2.5,3.02-4.67,4.72-6.91,1.4-1.85,2.28-1.47,3.72-.74,2.82,1.41,4.96,3.56,6.96,5.96,2.73,3.26,5.9,5.98,10.49,6.31-4.45-2.75-7.35-7.09-11.06-10.59-.8-.75-2.03-1.61-.93-2.86,.92-1.05,2.14-.55,3.18,.04,1.13,.64,2.04,1.59,2.85,2.57,2.31,2.8,5.09,5.07,7.93,7.27,1.85,1.43,3.61,2.82,3.82,5.47,.13,1.64,1.38,2.19,3.9,2.49-3.08-3.86-4.31-7.81-7.21-10.77-1.81-1.85-3.32-3.92-4.36-6.3-.34-.79-.83-1.82,.13-2.44,.87-.56,1.82-.03,2.43,.63,2.44,2.63,5.4,5.11,6.66,8.39,1.59,4.14,5.27,7,6.23,11.41,.26,1.19,1.21,.48,1.89,.29,.82-.18,1.43,.16,1.94,.76,.28,.5,.34,1.04,.22,1.6-.4,1.02-1.01,1.9-1.83,2.63-.35,.17-.67,.13-.97-.11-1.84-1.4-3.73-2.53-6.21-2.51-2.58,.03-4.38-1.93-6.53-3-.78-.39-1.16-1.37-2.18-1.47-5.12-.49-8.32-4.07-11.7-7.35-1.29-1.24-2.43-2.68-3.87-3.71-2.95-2.11-5.13-1.43-6.49,2.14-.98,2.58-2.47,4.69-4.44,6.53Z"/><path class="cls-71" d="M554.27,273.26c0,.49,0,.98,0,1.46,1.37,2.48,3.98,3.02,6.31,3.98,6.13,2.53,12.65,3.89,18.85,6.28,10.73,4.14,15.47,12.29,16.81,23.08,.06,.5,.01,1.02,.43,1.4h0c.57,.94,.39,1.95,.22,2.95-1.11,6.23-1.34,12.6-2.8,18.78-.28,1.19-.06,2.35-.02,3.53,.28,.5,.71-.33,.3-.03-.57-1.56-1.01-3.09,.81-4.19,.47-.11,.93-.11,1.4,0,1.97,1.28,1.57,3.34,1.59,5.17,.06,8.33,.11,16.67,0,25-.09,7.18,.45,14.35,.99,21.47,1.26,16.83,2.46,33.64,2.09,50.52-.07,3.19-.29,6.38-.83,9.54-.39,2.27-.65,4.54,.09,6.8,.15,.16,.18,.34,.1,.54,.61,3.28-1.85,1.09-2.75,1.6-.56-.15-.15,.7-.19,.19-.01-.13,.1-.12,.36-.09,2.68,.4,3.79,2.07,4.25,4.65,1.18,6.72-.46,13.18-1.66,19.67-.22,1.2-.42,3.28-2.78,2.44-.72-3.78,.89-7.31,1.15-11,.2-2.82,.34-5.63,.38-8.45,.04-2.73-.95-4.41-3.92-4.59-1.35-.08-3.15,.04-3.56-1.64-.46-1.9,1.23-2.7,2.63-3.27,2.23-.9,2.97-2.55,3.19-4.78,1.21-12.04,1.15-24.06,.34-36.13-.71-10.49-1.14-21.01-1.9-31.49-.84-11.56-.35-23.1-.64-34.64-.06-2.17,.33-4.31,.17-6.47-.03-.51-.92,.09-.42-.04,.22-.06,.28,.03,.31,.24,.2,1.57-.19,3.05-1.87,3.2-1.71,.15-1.71-1.6-1.98-2.79-1.32-5.8-.25-11.53,.94-17.16,1.18-5.57,.94-10.85-.72-16.3-1.96-6.47-5.82-10.95-11.87-13.84-6.54-3.12-13.66-4.48-20.37-7.05-2.63-1.01-5.42-1.77-6.87-4.56-.2-1.57-1.01-3.36,1.45-3.95Z"/><path class="cls-105" d="M595.26,330.96c-1.66,1.18-.5,3.12-1.68,4.57,0-2.42-.29-4.89,.06-7.26,.78-5.28,.97-10.65,2.62-15.79,.31-.95,.28-2.01,.4-3.02,.7,.32,.78,.95,.79,1.6,.01,1.54,.3,3.15-.05,4.61-1.35,5.65,.29,11.09,.94,16.59,.78,6.62,1.01,13.25,.65,19.92-.28,5.36,.02,10.72,.57,16.07,.13,1.27,.25,2.56,.21,3.83-.29,8.08,.24,16.16,1.06,24.16,1.28,12.39,1.21,24.78,1.07,37.18-.06,5.2-.9,10.39-1.39,15.58-1.48-2.66-.82-5.47-.42-8.19,.21-1.4,.39-2.78,.4-4.18,.01-8.47,.64-16.99-.17-25.38-.67-6.87-.15-13.76-1.13-20.63-.62-4.36-.79-8.89-1.1-13.34-1.01-14.46-.47-28.93-.66-43.39-.02-1.29,.11-2.67-1.7-2.91-.35-.83-.21-1.68-.18-2.53-.2,.83,.11,1.72-.28,2.53Z"/><path class="cls-81" d="M454.81,485.22c-1.18-.99-.74-2.34-.76-3.56-.05-3.93-.03-7.87-.04-11.8-1.77-10.24-1.83-20.56-1.34-30.89,.51-10.7,1.57-21.37,2.11-32.08,.12-2.31,.99-4.48,.98-6.79,.26-.66,.17-1.38,.34-2.06,.4-6.87,.39-13.75,0-20.62-.15-4.22-.17-8.42,.14-12.66,.55-7.47-.67-14.76-2.92-21.89-1.08-3.41-2.1-6.84-3.08-10.29-.13-.22-.21-.46-.23-.72,.19-2.75-2.33-3.8-3.67-5.51-2.01-2.57-3.1-5.97-6.32-7.53h.02c-.17-.37-.26-.76-.27-1.17,.08-.43,.32-.74,.72-.94,.41-.14,.83-.19,1.26-.15,.44,.08,.85,.23,1.24,.46,4.29,4.6,7.98,9.68,11.7,14.73,.46,.62,.94,1.36,.91,2.1-.36,7.79,3.74,15.01,3.27,22.68-.81,13.2,1.3,26.4-.02,39.51-1.19,11.74-1.8,23.51-2.58,35.26-.81,12.26-.8,24.61,.17,36.91,.46,5.74,.23,11.45-1.65,16.98Z"/><path class="cls-132" d="M386.8,230.68c2.47-5.04,6.61-8.7,10.6-12.43,2.68-2.51,5.37-4.95,7.78-7.78,3.59-4.2,8.22-7.27,12.98-10.08,5.29-3.12,10.73-5.93,16.51-8.04,3.99-1.46,7.46-3.87,10.88-6.34,3.69-2.66,7.54-3.58,11.65-.88,.36,.49,.42,1.01,.17,1.56-.24,.31-.62,.69-.93,.59-6.75-2.1-11.09,2.06-15.55,5.93-.28,.24-.59,.44-.9,.63-5.36,2.8-11.17,4.6-16.49,7.49-6.07,3.71-12.87,6.35-17.55,12.07-.42,1.36-1.44,2.27-2.37,3.26-.87,.84-1.71,1.71-2.69,2.43-4.17,3.14-7.44,7.21-11.22,10.76-.87,.54-1.55,1.8-2.86,.83Z"/><path class="cls-123" d="M433.14,311.97c-5.98-3.14-10.92-7.62-15.35-12.58-6.55-7.33-13.18-14.6-19.19-22.4-6.17-8.01-12.16-16.12-16.52-25.33-1.45-3.06-1.73-6.35-2.49-9.54-.17-.73,.52-1.08,1.21-1.21,.29,.24,.52,.53,.67,.88,1.4,7.97,6.44,14.12,10.45,20.78,1.16,1.54,2.06,3.28,3.49,4.62,.25,.25,.47,.53,.66,.82,.86,1.72,2.01,3.23,3.37,4.58,.24,.27,.44,.56,.64,.85,6.06,9.79,14.41,17.65,22.12,26.03,.29,.21,.56,.45,.82,.7,2.95,2.84,5.94,5.63,9.38,7.89,.31,.23,.57,.49,.81,.79,.65,1.06,1.02,2.11-.07,3.13Z"/><path class="cls-7" d="M554.27,273.26c-1.38,1.06-.58,2.57-.79,3.86-2.92,4.31-7.75,5.66-12.12,7.62-1.91,.86-2.56-.44-2.06-2.24,.28-1.01,1.07-1.72,1.78-2.47,1.52-1.61,3.43-2.65,5.3-3.77,6.16-3.69,7.34-6.48,5.86-13.54-.59-2.82-2.32-4.35-4.95-5.29-4.19-1.5-8.65-2.51-11.9-5.91-.86-1.23-2.61-2.3-.75-4.04,.41-.07,.8,0,1.16,.23,5.71,2.21,11.43,4.43,16.73,7.5,3.23,1.87,3.67,5.42,4.04,8.67,.37,3.29-.07,6.6-2.28,9.37Z"/><path class="cls-105" d="M456.31,399.67c-1.38,6.52,0,13.24-1.45,19.75-.14,.61-.07,1.27-.07,1.91,0,6.37-1.06,12.67-1.35,18.99-.32,6.98-.71,14,.36,21.01,.42,2.77,.8,5.67,.21,8.53-.24-.02-.49-.03-.73-.05-.97-4.75-1.41-9.58-1.56-14.4-.21-6.77-.41-13.58,.03-20.34,.68-10.63,.71-21.35,3.05-31.83,.27-1.21-.43-2.57,.57-3.66,.35-.37,.67-.34,.95,.08Z"/><path class="cls-68" d="M598.06,483.69c3.74,4.69,7.21,9.57,9.84,14.97,.85,1.74,2.1,2.87,3.62,3.79,2.39,1.45,3.48,3.43,3.51,6.31,.02,2.68,.26,5.36,.13,8.05,.2,.93-.33,1-1.02,.86-2.51-1.95-.99-4.94-1.88-7.3-.29-2.4-1.27-4.36-3.35-5.76-2.42-1.63-3.91-4.06-4.99-6.68-2.06-5.01-5.38-8.95-9.77-12.04-.21-.15-.41-.31-.6-.48-3.37-2.81-3.32-3.44,.42-5.6,.31-.19,.65-.29,1.01-.31,.9,.06,1.75,.28,2.5,.81,.38,.39,.56,.87,.63,1.4,.08,.66-.37,1.31-.04,1.97Z"/><path class="cls-101" d="M534.96,247.82c-1.58,1.48,.72,2,.76,3.08,.18,1.42,.42,2.86-.87,3.95-1.8-.41-1.05,2.88-3.09,2.12-1.67-3.06-1-6.21-.33-9.35,.05-.57,.25-1.09,.62-1.53,.11-.33,.31-.6,.63-.78-.33,.14-.53,.4-.63,.74-.23,.29-.41,.6-.55,.94-1.54,5.96-4.37,11.2-8.75,15.53-2.42,2.4-5.3,3.5-8.74,2.72-1.62-2.38,.84-2.13,1.76-2.36,2.13-.53,3.69-1.48,4.24-3.71,5.32-6.68,8.9-14.34,12.5-21.99,1.07-2.27,.33-4.85,.99-7.19,.53-1.85,1.36-2.16,2.12-.04-.58,2.13,.12,4.36-.56,6.48,.1,.48,.14,.94-.22,1.35-.34,.44-.15,1.12-.65,1.48,.13,1.37-1.05,2.54-.58,3.96,.31,.65,.07,1.42,.41,2.07,.11,.36,.22,.71,.32,1.07,.19,.17,.32,.37,.41,.61l.21,.2c.19,.14,.25,.28,.19,.42-.06,.14-.12,.21-.19,.21Z"/><path class="cls-90" d="M596.67,309.47c-1.37-1.77-1.8-4.03-2.04-6.03-.39-3.24-2.13-5.71-3.55-8.36-2.5-4.65-6.86-7.2-11.53-9.09-3.65-1.48-7.39-2.71-11.23-3.75-4.14-1.12-8.34-2.46-12.2-4.55-1.25-.68-2.13-1.41-1.85-2.96,6.54,3.98,14,5.49,21.13,7.88,3.52,1.18,6.92,2.64,10.1,4.58,7.5,4.56,10.24,11.73,11.05,19.97,.08,.77,.07,1.54,.11,2.31Z"/><path class="cls-124" d="M597.42,482.15c0-.51,0-1.02,0-1.54-.59-.66-.7-1.39-.28-2.18,.3-.35,.64-.4,1.02-.13,1.99-1.66,2.01-4.16,2.21-6.32,.28-2.93,1.13-5.77,1.32-8.66,.19-3-.24-6.07-.68-9.06-.19-1.31-1.42-2.1-2.86-2.14-1.27-.04-2.54,0-3.84-.27,1.64-.97,2.99-2.68,5.29-1.21,.84,.54,.83-.56,1.01-1.1l.68,.34c1.28,.69,2.29,1.66,2.95,2.97,.23,.17,.29,.39,.16,.65,.54,3.7,.49,7.41,.03,11.12,.11,.73,.24,1.46-.2,2.14-.5,.7-.02,1.65-.61,2.33v-.03c-.74,.68-.25,1.69-.64,2.46l.06-.08c-1.1,.52-.32,1.73-.91,2.44l-.11,1.33c-.79,.93,0,2.2-.68,3.16l.04-.05c-.64,.41-.49,1.18-.78,1.75,.07,.25,0,.43-.24,.55-.18,.27-.38,.53-.61,.76h0c-.27,.24-.52,.49-.76,.75l-.03,.02c-.51,.42-1.02,.45-1.53-.01Z"/><path class="cls-104" d="M456.31,399.67c-.32-.03-.63-.05-.95-.08,.69-12.25,.42-24.5,.26-36.76-.11-8.26-1.98-16.09-4.48-23.85-.66-2.05-1.34-4.15-.89-6.37,1.02,.87,1.49,2.1,1.89,3.28,2.97,8.69,5.49,17.53,4.87,26.81-.33,4.84-.61,9.66-.54,14.51,.35,6.99,.53,13.98-.1,20.97-.02,.5-.03,1-.05,1.49Z"/><path class="cls-133" d="M535.05,236.45c-.01-2.42-.02-4.84-.03-7.26,1.84-5.11,2.44-10.37,2.01-15.78-.3-3.8-.69-4.14-4.43-3.34-.92-1.85-.7-3.2,1.08-4.54,.63-.48,1.26-.76,1.28-1.64,.24-.35,.47-.36,.71,0,2.88,1.07,3.94,3.47,4.41,6.21,.69,4.06,.51,8.16,.45,12.25-.04,2.54-1.25,4.81-2.83,6.55-1.63,1.79-2.28,3.55-2.02,5.83,.07,.63-.06,1.28-.61,1.73Z"/><path class="cls-144" d="M457.11,186.92c.03-.6,.05-1.19,.08-1.79,.46,0,.92,0,1.37,0,7.12-.77,13.11-3.5,17.03-9.82,3.01-3.56,5.94-7.24,10.7-8.64,.86,1.5,2.49,.73,3.7,1.24,1.07,.45,1.75,.96,.96,2.17-.48,.18,.18,.2-.31,.2-7.78,.05-11.99,5.34-16.15,10.82-2.04,2.69-4.45,5.03-8.12,5.32-.52,.12-1.05,.22-1.56,.34-2.67,.18-.43,2.39-1.35,3.29-2.92,1.16-3.9-2.03-6.02-2.68-.11-.15-.22-.3-.32-.44Z"/><path class="cls-91" d="M535.66,203.88c-.24,0-.47,0-.71,0,0-2.04-.06-4.08,.02-6.11,.08-1.97-.48-3.75-1.29-5.51-1.43-3.12-2.66-6.33-2.51-9.83,.16-3.65-1.82-5.94-4.61-7.79-1.12-.74-2.76-.88-3.04-2.6,3.07,1.51,6.35,2.71,7.94,6.16,.59,1.28,1.19,2.49,1.18,3.96-.02,2.58,.65,5.07,1.86,7.3,2.33,4.29,2.56,8.68,1.22,13.27-.1,.36-.04,.76-.06,1.15Z"/><path class="cls-132" d="M475.59,175.31c-2.37,4.69-5.09,8.93-11.1,9.39-1.48,.11-2.93,.69-4.38,1.1-.74,.21-1.21-.04-1.55-.66,1.29-1.51,3.04-2.28,4.9-2.64,4.13-.8,7.39-3.04,10.35-5.86,.54-.51,.96-1.19,1.78-1.33Z"/><path class="cls-148" d="M440.03,318.85c1.02-.72,1.89-.56,2.57,.48,2.41,3.7,5,7.26,8.02,10.5,.62,.66,1.32,1.87-.6,2.05-4.13-3.73-7.47-8.07-9.99-13.03Z"/><path class="cls-122" d="M503.45,830.72c-.56-1-1.6-.76-2.47-.97,4.25-3.44,7.14-7.86,9.31-12.81,.31-.62,.57-1.26,.84-1.9,.15-.32,.36-.6,.61-.84,.35-.16,.65-.1,.92,.17,.23,0,.47,0,.7,0-.04,.26-.08,.52-.13,.78-.17,.32-.46,.59-.51,.97-.08,.45-.16,.89-.25,1.34-.2,.35-.52,.65-.45,1.11-1.08,4.7-4.15,8.21-7.14,11.75-.27,.32-.95,.28-1.44,.41Z"/><path class="cls-98" d="M433.14,311.97c.24-1.19-.17-2.24-.7-3.26,4.15-.18,9.39,4.59,9.29,8.48-.27,0-.54,0-.8,0-.24-.27-.49-.29-.75-.03,0,.26-.01,.52-.02,.77-.26,.3-.54,.3-.83,.06-1.72-2.35-4.01-4.13-6.19-6.02Z"/><path class="cls-50" d="M380.83,241.66c0-.25,0-.5-.02-.75,0,0,.06-.04,.06-.04,.42-.38,.2-1.09,.73-1.41,.69-1.75,1.47-3.45,2.75-4.86,1.28-1.02,1.78-2.53,2.47-3.92,0,0,0,0,0,0,1.08,0,1.55-1.07,2.46-1.37,.59,.15,.96,.51,1.05,1.12-2.36,4.22-4.73,8.44-8.5,11.62-.38,0-.7-.14-.98-.39Z"/><path class="cls-127" d="M614.47,517.56c.23-.25,.46-.49,.69-.74,.95,2.08,1.38,4.29,1.38,6.55,0,3.04-1.09,3.6-3.72,2.01-.31-.19-.53-.53-.79-.8,.26-.03,.52-.05,.77-.08,.76-.63,1.64-1.18,1.54-2.37,.01-.46,.03-.92,.04-1.39-.65-1.08-1.02-2.15,.09-3.18Z"/><path class="cls-147" d="M604.43,464.61c0-3.71-.02-7.41-.03-11.12,1.04,3.7,1.02,7.41,.03,11.12Z"/><path class="cls-132" d="M386.8,230.68c-.03,1.81-.5,3.34-2.47,3.92,.37-1.59,1.28-2.84,2.47-3.92Z"/><path class="cls-147" d="M604.24,452.84c-1.2-.77-2.19-1.75-2.95-2.97,1.69,.29,2.72,1.23,2.95,2.97Z"/><path class="cls-147" d="M601.34,478.38c.01-1.1-.43-2.3,.68-3.16-.21,1.06,.45,2.3-.68,3.16Z"/><path class="cls-147" d="M602.97,471.52c-.16-.92-.35-1.85,.65-2.46-.12,.85,.13,1.79-.65,2.46Z"/><path class="cls-147" d="M602.12,473.89c-.03-.94-.32-1.97,.91-2.44-.13,.88-.09,1.82-.91,2.44Z"/><path class="cls-147" d="M603.61,469.08c-.03-.84-.19-1.71,.61-2.33-.08,.81,.12,1.69-.61,2.33Z"/><path class="cls-54" d="M534.01,245.31c-.75-.57-.54-1.33-.41-2.07,.93,.53,.52,1.33,.41,2.07Z"/><path class="cls-147" d="M597.42,482.15c.51,0,1.02,0,1.53,.01-.29,.51-.59,1.02-.88,1.53-.63-.34-.69-.92-.65-1.54Z"/><path class="cls-133" d="M534.18,239.28c-.02-.6,.08-1.14,.65-1.48,.04,.61-.02,1.17-.65,1.48Z"/><path class="cls-51" d="M381.59,239.46c-.02,.58-.16,1.11-.73,1.41,.14-.52,.09-1.15,.73-1.41Z"/><path class="cls-147" d="M600.6,480.08c-.07-.73,0-1.4,.78-1.75-.04,.68,.04,1.41-.78,1.75Z"/><path class="cls-54" d="M534.96,247.82c-.03-.21-.04-.42,0-.63,.42-.04,.71,.11,.83,.53-.28,.03-.55,.07-.82,.1Z"/><path class="cls-147" d="M599.74,481.39c.2-.25,.41-.51,.61-.76,.07,.48-.19,.68-.61,.76Z"/><path class="cls-54" d="M534.75,246.99c-.35-.06-.5-.26-.41-.61,.41,.02,.46,.29,.41,.61Z"/><path class="cls-147" d="M598.97,482.14c.25-.25,.51-.5,.76-.75-.05,.45-.28,.74-.76,.75Z"/><path class="cls-153" d="M512.72,816.12c-.04-.44,.14-.76,.51-.97,.09,.46-.11,.77-.51,.97Z"/><path class="cls-153" d="M512.02,818.57c-.08-.46,.1-.82,.45-1.11,.14,.49-.02,.85-.45,1.11Z"/><path class="cls-148" d="M439.32,317.99c.28-.02,.56-.04,.83-.05-.03,.3-.07,.6-.1,.91-.47-.09-.66-.42-.73-.85Z"/><path class="cls-126" d="M571.99,490.62c-1.94,2.75-3.54,5.64-3.86,9.07-.08,.83-.37,1.47-1.1,1.9-.99,.58-1.29,1.62-1.45,2.61-.38,2.39-1.68,4.13-3.31,5.86-2.19,2.32-1.24,4.99,1.82,5.84,1.96,.54,3.79-.16,5.65-.61,1.78,4.6,2.92,9.36,3.87,14.21,1.4,7.15,1.39,14.46,2.88,21.59,.18,.87,.11,1.79,.1,2.69-.12,6.4,.81,12.72,1.36,19.08,.36,4.18,1.17,8.35,.99,12.6-.25,5.75,.48,11.46,1.39,17.14,.14,.88,.12,1.79,.11,2.69-.08,5.89,.56,11.72,1.46,17.53,.1,.63,.11,1.28,.08,1.92-.5,8.21,.47,16.39,.99,24.54,.37,5.89-.03,11.81,.68,17.62,1.17,9.61,.4,19.21,.62,28.8,.05,2.46,.68,4.8,.91,7.21,.61,6.47,1.75,12.88,3.2,19.22,2.02,8.82,3.97,17.65,6.09,26.44,.78,3.22,1.77,6.43,3.02,9.49,.77,1.88,.59,3.37-.24,5.1-1.34,2.79-3.18,5.26-4.82,7.86-.68,1.08-1.65,2.03-.79,3.55,3.22-.61,3.89-3.81,5.8-5.71,.23-.33,.47-.33,.72-.02,.02,1.93-.02,3.85,.07,5.78,.1,1.92-.59,2.89-2.64,2.78-1.79-.09-3.59-.05-5.39,0-5.94,.13-11.68,1.03-16.99,3.95-3.92,2.16-7.91,4.2-11.91,6.2-1.36,.68-2.97,.89-4.28,1.64-1.47,.83-2.75-1.62-4.15-.06-.04,.05-.8-.52-1.19-.83-1.33-1.07-2.15-2.54-3.06-3.93-1.56-2.37-1.51-2.4,.49-4.54,2.7-2.89,2.53-2.8,.47-6.11-2.21-3.56-4.04-7.21-3.89-11.75,.29-8.85,.04-17.72,.1-26.57,.04-6.28-.84-12.46-1.41-18.69-.64-6.99-1.2-14.02-.98-21.08,.17-5.49-1.02-10.93-1.25-16.38-.23-5.56-1.27-11.26,.89-16.73-1.11-3.37,.9-7.17-2.04-10.48-1.65-1.85-2.5-4.88-2.71-7.45-.36-4.39-.92-8.87,1.32-13.18,1.26-2.43,1.59-5.35,2.23-8.08,.15-.65,.37-1.56-.61-2-1.85,.48-1.11,2.75-2.43,3.56-.52,.04-.73-.31-.71-.68,.52-7.46-1.94-14.37-3.86-21.39-2.15-7.88-4.18-15.79-6.21-23.69-.64-2.49-1.92-4.7-2.64-7.18-2.42-8.22-5.1-16.37-8.27-24.34-.42-1.06-1.02-2.08-1.74-2.97-2.54-3.13-5.17-6.2-7.78-9.27-.33-.39-.72-.73-1.13-1.04-.54-.4-1.15-.62-1.74-.14-.51,.41-.17,.92-.08,1.41,.3,1.71,1.34,3.07,2.34,4.36,1.42,1.85,1.85,3.82,1.83,6.1-.06,11.81,.42,23.65-.18,35.43-.42,8.32-.45,16.63-.65,24.95-.02,.88-.38,1.74-.5,2.62-.12,.88-.52,2.06-.12,2.63,2.11,3,.92,6.19,.58,9.22-.43,3.87,1.05,7.36,1.82,10.92,.8,3.72,0,7.14-.64,10.56-.82,4.35-2.54,8.57-1.82,13.09,1.08,6.75,.12,13.6,.89,20.31,.76,6.68,.02,13.34,.69,19.94,.74,7.29,0,14.65,.86,21.85,1.13,9.48,1.48,19.08,3.71,28.42,.45,1.88,1.07,3.66,2.29,5.2-.24,.24-.5,.48-.76,.71,.3,.84,.76,1.62,.74,2.57-.12,5.69,1.04,11.18,2.67,16.58,.77,2.54,.38,5.1,.39,7.65,0,2.05-1.77,2.71-3.32,3.23-3.34,1.13-6.94,1.49-10.25,.68-7.59-1.85-15.24-1.28-22.89-1.34-1.17,0-2.28,.19-3.39,.57-.85,.29-1.77,.3-2.65,0-3.24-1.07-3.9-2.58-2.3-5.65,1.62-3.13,2.82-6.32,2.46-9.93-.08-.82-.09-1.35-1.22-1.42-2.05-.13-1.98-1.51-1.99-3.29-.01-6.34,1.52-12.41,2.74-18.54,.23-1.14,.45-2.25,.44-3.41-.05-6.4,.9-12.73,1.39-19.08,.49-6.37,.11-12.82-.09-19.25-1.92,6.45-2.23,13.09-2.72,19.82-.81-4.73-1.52-9.48-2.46-14.19-1.1-5.52-1.37-11.13-2.14-16.68-.46-3.29-.42-6.62-.72-9.93-.74-8.15-1.35-16.34-.95-24.55,.04-.73-.24-1.89,.64-2.01,2.43-.34,1.63-1.71,1.17-3.02-1.18-3.37-2.26-6.79-3.61-10.1-2.09-5.13-2.35-10.27-1.55-15.76,1.03-7.04,2.66-14.05,1.88-21.3-.23-2.16-.58-4.33-.98-6.42-.63-3.32-.64-6.62-.63-9.94,0-2.7-.6-5.34-.93-7.98-.78-6.22-1.52-12.42-1.42-18.7,.04-2.55-.53-5.1-.92-7.59-.49-3.08-.51-6.12-.59-9.18-.21-7.68-1.17-15.33-.78-23.03,.27-5.36,.78-10.71,.95-16.09,.1-3.25,1.44-6.45,2.24-9.68,.34-1.39,1.47-1.27,2.48-1.13,1.21,.17,1.38,1.05,.99,2.01-.6,1.49-.57,3.04-.35,4.56,.34,2.3,1.45,3.3,3.46,3.39,2.34,.11,2.84-.34,3.72-2.94,.34-1,.39-2,.44-3.02,.16-3.9,.25-3.99,4.28-4.04,2.7-.03,5.4,.04,8.09-.04,2.93-.09,5.88,.3,8.79-.64,1.54-.5,2.81,.05,2.72,2.08-.03,.76-.04,1.56,.41,2.24,.71,1.06,1.43,1.84,2.72,.59,1.71-1.65,3.15-3.38,3.06-5.95-.02-.74-.22-1.55,.53-2.39,7.44,1.03,14.83-.65,22.27-1.64,1.5-.2,2.29-.46,2.68,1.44,.69,3.38,1.92,4.09,5.25,4.32,2.87,.2,5.66-.44,8.35-1.03,2.9-.63,5.56-.45,8.3,.28,.74,.2,1.47,.47,2.22,.63,3.31,.7,3.31,.69,3.6,4.04,.26,3.02,.9,3.76,3.22,3.76,2.63-.01,4.67-1.34,4.33-3.78-.6-4.37,2.17-5.53,5.19-6.78,.35-.14,.75-.16,1.13-.23Z"/><path class="cls-51" d="M381.58,241.65c2.15-1.51,2.73-4.18,4.47-6.04,1.54-1.64,2.68-3.67,3.99-5.52,.1-2.31,2.17-3.18,3.48-4.56,2.33-2.46,4.64-4.97,7.32-7.09,.52-.96,1.26-1.71,2.23-2.23,1.38-.79,2.54-1.79,3.07-3.36,2.58-4.19,7.18-5.77,10.99-8.34,1.86-1.25,3.85-2.4,5.91-3.34,5.42-3.29,11.75-4.68,17.11-8.1h-.01c1.9-1.15,2.79,.7,3.8,1.52,2.06,1.66,3.87,3.63,5.65,5.59,.23,.28,.43,.59,.61,.91,.76,1.15,.74,2.75,2.09,3.58,.21-3.59-1.78-6.74-5.82-9.22-.77-.47-1.6-.81-2.41-1.21-2.02-1.01-2.7-1.67-.49-3.76,7.66-7.24,15.61-4.07,20.2,4.03,.58,1.57,1.54,2.95,2.27,4.44,1.9,3.84,1.57,6.36-1.98,8.64-4.19,2.7-8.2,5.74-12.8,7.73-1.55,.67-3.15,1.83-4.99,.29-1.2-1-1.87,.38-2.38,1.09-1.27,1.76-2.35,3.66-3.19,5.69-2.37,3.88-4.33,8-6.89,11.76-5.2,8.56-11.52,16.05-20.34,21.13-.31,.21-.71,.36-.92,.66-.52,.77,.11,.86,.61,.79,1.95-.26,3.53-1.36,5.19-2.3,1.82-1.03,3.54-3.84,5.53-2.48,2.17,1.48,.53,4.22-.09,6.4-.91,3.23-2.41,6.2-4.11,9.91,2.1-4.17,3.93-7.62,5.27-11.34,1.14-3.16,2.84-3.38,4.91-.75,1.86,2.35,2.84,5.13,3.56,8.02,1.17,4.71,2.5,9.38,3.16,12.54-1.18-4.05-1.83-9.91-3.78-15.45-.39-1.11-.64-2.39,.36-3.24,1.05-.89,2.19-.11,3.23,.32,2.05,.83,3.71,2.27,5.45,3.58,2.24,2.28,3.22,5.22,4.28,8.12,.24,.72,.39,1.46,.54,2.2,.42,.88,.37,1.99,1.59,2.97-.92-5.62-1.72-10.85-5.32-15.16-.71-.86-1.84-1.74-1.15-2.98,.53-.95,1.76-.87,2.78-.99,5.75-.71,10.82,1.38,15.81,3.81,4.65,2.22,7.36,6.65,11.13,9.88,4.88,4.19,10.09,7.83,15.94,10.53,1.26,.58,2.57,1.16,4.7,.92-10.33-7.3-22.4-11.82-28.36-23.53,.61-4.64,3.43-7.83,6.97-10.51,1.17-.89,2.51-1.28,3.93-.46,.84,1.7-.93,2.09-1.67,3.36,4.48-1.74,9.2-1.9,13.37-4.06,.92-.48,1.96-.61,2.99-.24,.55,.25,.98,.64,1.31,1.14,.5,.9,.8,1.87,1.07,2.85,.29,1.47,.38,2.92-.46,4.27-2.98,1.69-6.2,3.03-8.19,6.1-1.95,3.01-1.77,4.69,1.21,6.76,8.06,5.62,14.69,12.68,20.77,20.31,2.15,2.71,3.14,5.76,3.18,9.25,.15,11.78-1.81,23.4-2.74,35.09-.2,2.55-.28,5.09-.35,7.65-.4,7.81-1.63,15.54-2.79,23.24-.81,5.34-1.38,10.72-1.57,16.02-.33,9.45-3.13,18.4-4.27,27.64-.8,6.44-.91,12.94-.86,19.46,.06,7.98,1.39,15.81,1.76,23.74,.11,2.33,.66,4.56,.94,6.85,.9,7.33,1.62,14.63-.12,21.93-.54,2.26-.85,4.53-.83,6.85,.01,1.84-.36,3.58-1.81,4.9-8.27,.87-16.57,.8-24.87,.82-4.02,0-7.79-1.22-11.67-1.88-1.93-.33-3.34-1.8-4.31-3.56,.1-3.32-.05-6.6,.61-9.94,.5-2.56,.58-5.37-.31-8-.43-1.26-.3-2.54-.3-3.82-.01-9.89-.28-19.79,.11-29.66,.19-4.93,.31-9.94,1.24-14.85,.26-1.37,.2-2.82,.16-4.22-.15-5.39,.7-10.67,1.29-16,.44-3.95,1.5-8.05,.32-12.12-.17-.59-.1-1.28-.04-1.92,.41-4.12-.54-8.15-.8-12.23-.24-3.74,.9-7.33,.86-11.08-.08-8.13-1.37-16-4.06-23.65-.32-.92-.73-1.67,.6-2.09,.97-.3,.47-.99,.28-1.56-.58-1.76-1.94-3-3-4.43-2.81-3.8-6.06-7.26-8.58-11.28-.32-.51-.97-.8-1.47-1.2-1.52-3.53-5.03-6.72-9.29-8.48,0,0,.01,.01,.01,.01-3.54-2.6-6.77-5.56-10.03-8.49h0c-8.13-8.63-16.41-17.13-23.14-26.98h.01c-1.33-1.76-2.8-3.43-3.87-5.4h0c-1.45-1.61-2.66-3.4-3.78-5.26-3.24-5.29-7.04-10.26-9.2-16.16-.56-1.54-1.25-3.07-.88-4.78Z"/><path class="cls-51" d="M598.15,478.3c-.24,0-.48,0-.72,0-1.66-.37-2.83-1.6-4.24-2.41-4.39-3.55-9.3-2.92-14.28-1.84-5.02,1.09-7.06-.14-7.93-5.18-1.77-10.2-2.99-20.48-4.42-30.72-1.57-11.2-.98-22.45-1.09-33.69-.03-3.09,.83-6.07,1.45-9.07,1.94-15.06,2.92-30.17,3.32-45.35,.15-5.61,1.82-11.04,2.94-16.5-.02-.1-.02-.22-.04-.34-.06-.32-.29-.49-.41-.32-1.13,1.65-1.28,3.65-1.93,5.49-2.27,7.8-4.04,15.73-3.06,23.84,1.12,9.25-.86,18.32-.84,27.49-.66,8.66-1.65,17.27-1.58,26,.12,16.94,2.21,33.63,4.98,50.3,.75,4.47,.71,9.07,3.23,13.08,.32,1.88-.88,3.54-.77,5.39,.57,1.8,.59,3.59-.01,5.38-.26,.26-.52,.53-.78,.79,0-.26,0-.52,0-.78-2.05-.66-4.1-.61-6.15-.03-4.58,1.18-9.04,1.04-13.56-.63-3.01-1.11-6.24-1.39-9.44-.31-.71,.24-1.52,.17-2.29,.19-2.99,.05-2.78,0-3.3-2.82-.93-5.09-.25-10.26-.88-15.31-.49-4,.14-7.85,.11-11.77,0-1.11,.4-2.34-.69-3.24-1.32-1.48-.68-2.86,.2-4.23,2.66-5.2,3.38-10.9,4.04-16.58,.28-2.41,.13-4.86,.92-7.21-.1-9.16,.63-18.29-.96-27.47-2.19-12.64-2.94-25.35-.93-38.22,1.8-11.51-1.62-22.38-6.13-32.85-7.13-16.55-7.64-33.24-1.49-50.17,1.96-5.39,5.52-9.48,9.78-13.12,2.62-2.24,2.58-3.09-.05-5.38-1.48-1.28-3.28-2-4.95-2.94-1.11-.62-2.93-.94-1.96-2.99,1.38-.95,.03-2.94,1.47-3.86,3.52,2.91,7.76,4.31,12.01,5.59,3.58,1.08,5.35,2.98,5.79,7.95,.51,5.77-.15,10.63-6.66,12.8-2.52,.84-4.64,2.65-6.36,4.78-.48,.6-1.02,1.16-.57,2.4,4.85-1.85,9.25-4.46,13.55-7.29,1.76,1.77,3.91,2.83,6.28,3.51,3.93,1.14,7.75,2.6,11.72,3.67,4.56,1.24,8.9,3.12,12.95,5.66,4.49,2.82,7.01,6.92,8.38,11.89,.47,1.72,.97,3.44,1.5,5.15,1.55,5.03-.37,9.8-1.08,14.66-.81,5.52-1.64,11.04,.07,16.78,2.25-1.04,1.65-3.16,1.92-5.37,1.23,2.26,1.44,4.21,1.43,6.25-.03,8.34-.12,16.68,.03,25.02,.14,7.65,.44,15.3,1.46,22.91,.07,.51,.08,1.03,.03,1.54-.51,6.29,.39,12.56,.97,18.75,.9,9.49,.39,18.94,.5,28.41,.04,3.89-.99,7.79-.98,11.73,0,.83-.34,1.12-1.01,1.34-1.21,.41-2.43,.8-3.6,1.31-.77,.34-1.88,.65-1.6,1.81,.24,.97,1.25,.64,1.97,.7,.64,.05,1.28,0,1.92,.02,3.15,.13,4.06,1.01,4.14,4.2,.16,6.67-.29,13.27-2.17,19.71-.14,.48-.11,1.02-.16,1.53Z"/><path class="cls-46" d="M524,314.02c-1.02,4.45,.62,8.55,1.95,12.58,1.4,4.23,3.56,8.21,5.2,12.37,2.42,6.13,3.03,12.41,2.45,19.07-.76,8.79-.78,17.7-.06,26.51,.72,8.76,1.74,17.51,2.33,26.29,.16,2.43,.81,4.77,.74,7.23-.26,8.45-1.41,16.79-3.36,24.97-3.01,12.63-4.14,25.4-3.6,38.35,.05,1.13,.24,2.24,.39,3.57-8.13,.87-16.17,1.73-24.38,2.6,.1-2.54,1.82-5.5-2.17-6.26-.99-.95-.71-2.15-.55-3.27,1.49-10.65,1.34-21.23-1.37-31.7-.16-3.54-1.18-6.95-1.55-10.46-.04-1.14-.04-2.28-.05-3.43,0-4.47,0-8.94,0-13.41,.38-11.52,1.7-22.92,3.36-34.33,1.39-9.6,2.37-19.28,3.69-28.88,2.09-15.27,1.69-30.64,2.89-45.94,.31-3.97-.82-7.88-.97-11.83-.48-3.14-.67-6.33-2.5-9.16-.92-1.43-.47-2.85,1.48-3.05,7.78-.8,14.42-4.25,20.67-8.67,.42-.3,.96-.32,1.49-.3,.41,.17,.68,.46,.82,.87,.06,4.56-2.04,8.63-2.96,12.98-1.35,6.4-2.28,12.82-2.74,19.32-.1,1.42-.27,2.8-1.19,3.97Z"/><path class="cls-6" d="M530.39,277.14c-1.09-.19-1.51,.78-2.18,1.29-6.38,4.89-13.41,8.08-21.95,8.3,1.99,3.23,3.91,6.4,3.36,10.29,.36,3.8,.61,7.6,.41,11.42-.12,1.93-.9,3.75-.95,5.7,0,.43-.02,.86-.04,1.29-1.3,6.12-.92,12.45-2.29,18.56-.94,1.4-.63,3.22-1.52,4.64-.32,.35-.69,.39-1.08,.13-.09-4.74,.57-9.4,1.39-14.05,.22-1.25,.15-2.56,.12-3.83-.08-3.97,.43-7.84,1.18-11.77,1.01-5.27,.58-10.71,.14-16.07-.16-1.95-1.25-3.71-2.54-5.08-5.13-5.45-9.19-11.93-15.72-16.07-2.22-1.4-3.8-3.65-6.34-4.82-1.96-.91-2.39-3.34-1.38-5.29,2.13-4.12,4.94-7.48,10.04-7.83,3.32,1.73,2.96,4.92,3.15,7.9-.11,.56-.33,1.07-.67,1.53-.58,.77-1.42,1.35-1.78,2.29-.07,.61,.14,1.15,.42,1.68,.08,.13,.15,.27,.23,.4,.17,.27,.33,.54,.49,.81,1.07,1.45,2.09,2.93,3.3,4.28,.6,.62,1.22,1.22,1.83,1.83,6.12,9.68,10.29,8.99,22.23,5.04,5.48-1.81,9.15-6.48,13.43-10.12,.78-.66,1.28-1.62,.97-2.76-.58-1.16-1.6-2.02-2.21-3.16-.85-2.21-1.37-4.4,.18-6.54,.17-.94-.19-2,.41-2.84,.81-1.13,1.06-.32,1.26,.46-.04,1.45,1.2,1.43,2.09,1.83,2.95,1.31,5.77,2.79,7.81,5.42,1.48,1.91,1.54,2.27-.42,3.57-8.76,5.81-12.44,14.49-14.27,24.4-.56,3.02-.28,6.13-1.31,9.07-.24,.69-.17,1.53-.1,2.29,.54,5.57,.81,11.2,1.81,16.7,.63,3.46,2.13,6.83,3.68,10.03,3.22,6.61,4.9,13.7,6.54,20.75,1.04,4.44,.66,9.24,.06,13.79-.93,6.98-1.94,14-1.17,20.97,.78,7.07,1.41,14.17,2.57,21.22,.67,4.04,1.86,8.16,.55,12.49-.71,2.35-.54,5.12,.2,7.6,.37,1.26,.19,2.24-.4,3.27-1.9-.12-1.62-1.66-1.73-2.82-.15-1.51-.05-3.05-.76-4.47-.32-6.03,.24-12.11-1.17-18.08-.39-2.38,.19-4.87-.86-7.17-.26-13.18-.99-26.34,.19-39.53,.65-7.25-1.72-14.18-4.33-20.86-1.91-4.87-3.73-9.78-5.76-14.61-1.38-3.3-.91-6.77-.95-10.1-.45,2.4,.8,5.08-.81,7.45-1.44-.93-.02-3.11-1.7-3.94,.29-11.34,2.09-22.43,5.54-33.25,.38-1.19,.98-2.37,.77-3.7l.07,.07Z"/><path class="cls-19" d="M504.96,813.51c.8,1.37,1.35,2.66-.05,4.09-1.24,1.27-2.23,2.8-3.44,4.12-.82,.89-2,1.11-3.19,1.13-8.59,.1-17.15-.37-25.66-1.52-.13-.02-.26,0-.38-.03-6-1.35-5.76-1.52-5.78-7.62,0-3.88,.15-6.98,3.72-9.5,2.21-1.56,3.63-4.25,5.4-6.44,2.73,.77,5.54,.44,8.32,.55,.26,0,.51,0,.77,.01,8.22,1.11,13.81,6.4,19.16,12.08,.83,.89,.33,2.25,1.14,3.14Z"/><path class="cls-19" d="M578.21,813.67c2.69-4.88,5.63-9.57,10.82-12.41,2.63-1.44,5.52-1.68,8.31-2.44,5.76-1.57,8.88,2.23,12.42,5.2,3.29,2.76,3.12,3.42-.63,5.73-4.02,2.48-8.16,4.73-12.52,6.58-4.97,2.12-9.86,2.62-14.64-.44-1.17-.75-2.72-.8-3.76-2.23Z"/><path class="cls-33" d="M512,814.4c-.11,.23-.17,.47-.16,.73-.46,.42-.33,1.07-.6,1.56-1.25,3.34-3.08,6.33-5.14,9.25-1.36,1.94-2.84,3.32-5.13,3.81-1.7,.15-3.32,.82-4.61,1.75-2.54,1.84-5.25,2.4-8.28,2.16-4.12-.33-8.1,.76-12.13,1.29-3.22,.42-4.24,0-5.8-2.89-1.3-2.4-1.41-5.13-2.29-7.64-.21-.79,.09-1.08,.87-.89,3.2,.79,6.42,1.15,9.75,1.25,4.67,.14,9.31,1.2,13.98,1.65,4.89,.47,9.38-.47,12.49-4.78,2.13-2.95,4.92-5.51,5.6-9.34,.11-.61,.6-1.18,.29-1.83-1.44-3.03,.12-5.37,1.76-7.69,1.46-.07,1.18,.77,.85,1.63,.39,3.05-.68,5.94-1.01,8.92,.01,.42-.25,.72-.46,1.04Z"/><path class="cls-18" d="M579.02,808.34c0,.22-.06,.41-.19,.58-1.45,.05-1.04-.79-.76-1.58,1.72-7.12-1.53-12.87-5.17-18.49-1.52-2.35-1.55-2.34,.84-3.56,4.49-2.29,9.09-4.02,14.3-3.51,1.98,.2,4.44-.78,5.89,.08,1.28,.77,1.45,3.36,2.35,5.07,1.59,3.04,3,6.17,4.68,9.67-9.29-.27-16.36,3.3-21.34,10.8-.23,.29-.51,.55-.6,.92Z"/><path class="cls-33" d="M574.3,815.16c2.31,1.33,4.61,2.68,6.98,3.9,6.09,3.15,12.09,2.68,18.04-.15,5.29-2.51,10.62-5.01,15-9,1.35,.35,1.52,1.42,1.65,2.38,.16,1.13,.08,2.3,.15,3.45,.44,7.28-2.78,7.64-7.56,8-5.01,.38-9.77,1.47-14.52,2.93-1.58,.48-3.24,.72-4.8,1.26-1.75,.61-3.3,.21-4.75-.68-4.85-2.96-9.09-6.51-11.06-12.11,.29-.29,.58-.3,.86,.02Z"/><path class="cls-4" d="M501.02,482.13c-1.04,1.07-.46,2.4-.5,3.61-.05,1.43-.19,2.78-1.07,3.97-2.85,1.22-2.84-.33-2.64-2.52,.49-5.34,1.75-10.55,2.08-15.94,.38-6.19-.11-12.25-1.1-18.28-3.33-20.21-4.1-40.34,1.31-60.34,.4-1.47,.04-3.11,1.01-4.44,2.54,.27,1.69,2.34,2.01,3.79-.75,6.07-.77,12.2-1.49,18.27-.64,7.39-.51,14.79,.02,22.18,0,1.14,0,2.27,0,3.41,.13,3.62,1.32,7.08,1.54,10.69,1.35,10.69,1.14,21.38,.05,32.07-.13,1.29-.3,2.54-1.23,3.54Z"/><path class="cls-26" d="M486.42,797.38c-2.29-1-4.73-.73-7.12-.7-1.66,.02-2.3-.61-2.23-2.26,.11-2.57,1-4.98,1.42-7.48,.19-1.15,1.03-1.69,2.14-1.87,4.92-.78,9.83-1.35,14.8-.26,2.92,.64,6.02,.24,9.08,1.32-1.89,2.66-3.42,5.24-4.39,8.17-1.05,3.17-.77,5.98,1.18,8.68,.59,.82,.96,1.79,1.43,2.69,.29,.69-.09,1.08-.63,1.4-1.74,.59-2.51-.91-3.59-1.69-3.91-2.85-8.01-5.42-12.09-8.01Z"/><path class="cls-28" d="M575.01,811.99c-2.93-.42-4.78-1.93-5.86-4.48-.65-1.53-1.36-3.03-2.09-4.52-.21-.44-.55-.9-1.18-.68-.57,.2-.77,.7-.72,1.21,.08,.85,.29,1.68,.47,2.65-3.61-.18-5.36-2.06-5.94-5.34-.42-2.37-1.83-4.97-1.23-7.01,.57-1.93,3.82-2.03,5.74-3.24,1.62-1.02,3.34-1.88,5.3-2.98,2.33,3.62,3.87,7.64,5.63,11.53,1.91,4.22,.22,8.49-.11,12.84Z"/><path class="cls-93" d="M500.5,388.19c-.77,7.34-2.87,14.44-3.72,21.78-.98,8.41-1.1,16.76-.41,25.22,.69,8.39,2.62,16.61,3.05,25.01,.45,8.82,.33,17.62-1.71,26.29-.15,.62-.19,1.26-.33,1.88-.49,2.28,1.1,1.33,2.07,1.34-1.2,1.71-2.51,.68-3.8,.15,.85-8.48,2.61-16.85,3.2-25.28-.9-.48-1.26,.58-1.9,.31-.78-.32-1.52-1.24-.66-1.63,2.14-.96,1.96-2.74,1.57-4.21-1.83-6.96-1.07-14.24-2.81-21.21-.55-2.18-.14-4.6-.19-6.91-.06-2.55,.31-5.14-.63-7.62-.13-.34-.16-.79-.08-1.14,1.49-6.14,.18-12.49,1.57-18.69,1.39-6.19,3.16-12.33,3.71-18.7,.27-3.05,.32-6.12,.55-9.16,.4-5.23,1.21-10.39,1.72-15.58,.3-3.05,.77-6.08,1.12-9.11,.47-4.04,1.17-8.06,1.32-12.14,.2,0,.39-.02,.59-.03,.41,.26,.71,.62,.9,1.07,.99,5.86,.36,11.69-.53,17.48-.78,5.03-1.44,10.07-1.65,15.16-.64,3.75-1.3,7.49-1.35,11.31-.02,1.65,.04,3.36-1.6,4.44Z"/><path class="cls-16" d="M538.78,402.77c1.13,5.15,2.62,10.28,1.05,15.63-.19,.66-.25,1.53,.43,2.13,1.3,6.01,.36,12.05-.3,17.98-.4,3.57-1.33,7.18-2.03,10.77-.19,.59-.35,1.2-.61,1.77-.18,.36-.4,.71-.64,1.04-.8,1.16-.91,2.48-.89,3.83-.37,.72-.27,1.46-.12,2.2-.86,1.47,.32,3.27-.77,4.7-.97,7.46-1.61,14.92,.1,22.38,.23,.99,.43,2,.56,3.01,.07,.56,.58,1.35-.32,1.62-.9,.27-1.87,.13-2.26-.91-.62-1.67-1.02-3.37-1.05-5.2-.23-12.77,.14-25.45,3.04-38,1.25-5.4,2.45-10.86,3.04-16.41,.91-8.56,.12-17.11-.04-25.67-.34-.86,.08-1.01,.81-.88Z"/><path class="cls-1" d="M528.14,320.22c3.53,7.9,6.71,15.95,9.05,24.29,1.49,5.3,2.16,10.65,1.07,16.22-.61,3.1-.39,6.37-.4,9.57-.02,8.45-.12,16.9,.3,25.34,.09,.95,1.04,2.2-.85,2.47-1.21-1.73-.48-3.74-.71-5.6-1.13-9.24-1.75-18.53-1.35-27.85,.13-3.05,.27-6.11,.47-9.16,.57-8.49-1.47-16.36-5.07-23.97-1.46-3.08-2.98-6.18-3.41-9.64-.43-.96-.61-1.77,.91-1.67Z"/><path class="cls-30" d="M513.77,800.3c-1.27-1.97-2.56-.86-3.33,.27-1.46,2.14-3.7,4.09-2.89,7.38-1.61-2.22-3.36-4.36-4.78-6.7-1.17-1.92-1.19-4.13-.57-6.32,.82-2.88,2.54-5.28,4.04-7.8,.33-.56,.8-1.18,1.5-.9,1.81,.71,3.48,.13,5.25-.17,.97-.17,2.5-.96,3.06,.47,.43,1.09,.64,2.49-.59,3.53-1.79,1.51-1.97,3.79-2.56,5.84-.23,.81-.56,1.77,1.17,2.15,1.53,.34,.19,1.51-.3,2.26h0Z"/><path class="cls-88" d="M501.02,482.13c.13-8.64,1.41-17.23,1.07-25.9-.13-3.42-.74-6.85-.14-10.29,.17,0,.34,0,.51,0,2.95,9.91,3.08,19.96,1.74,30.13-.23,1.75-.24,3.52-.73,5.23-.81,.3-1.51,.93-2.46,.83Z"/><path class="cls-136" d="M486.42,797.38c2.9,.63,5.23,2.35,7.62,3.97,2.59,1.75,4.85,3.97,7.68,5.39,2.22,.67,3.18,2.53,4.16,4.38,.14,.35,.09,.66-.16,.94-.63,.29-.73,.85-.75,1.46-5.11-7.27-12.18-11.94-20.29-15.21,.68-.12,1.39-.2,1.76-.92Z"/><path class="cls-15" d="M469.53,493.99c4.44-.63,3.62-.26,3.73,2.82,.04,1.05-.29,1.97-.59,2.95-.25,.81,.04,1.97-1.33,1.73-1.07-.19-1.21-1.13-1.22-2.09-.02-1.77,.23-3.57-.6-5.41Z"/><path class="cls-13" d="M528.14,320.22c-.71,.33-.82,1-.91,1.67-.91-1.15-1-2.63-1.53-3.93-.26-2.91-.47-5.82,.81-8.8,.54,3.69,1.09,7.38,1.63,11.06Z"/><path class="cls-29" d="M563.58,495.74c0,.32,0,.7,0,1.08,.01,.92-.43,1.33-1.36,1.43-1.24,.13-1.07-.72-1.13-1.45-.03-.38,.03-.79-.1-1.13-.53-1.41,.2-1.84,1.42-1.96,1.77-.18,1.29,1.01,1.17,2.03Z"/><path class="cls-60" d="M537.31,398.12c1-.58,.62-1.63,.85-2.47,1.39,2.27,.45,4.75,.62,7.13l-.81,.88c-1.38-1.71-.49-3.68-.66-5.53Z"/><path class="cls-64" d="M505.64,811.32c-1.31-1.53-2.61-3.05-3.92-4.58,.34-.35,.67-.7,1.01-1.05,1.92,1.43,3.06,3.4,3.91,5.58-.31,.37-.65,.39-1,.06Z"/><path class="cls-66" d="M501.2,496.04c-.6-1.2-.45-2.23-.29-3.19,.13-.76,.91-.71,1.54-.63,.73,.09,.63,.59,.44,1.06-.37,.95,.07,2.37-1.69,2.75Z"/><path class="cls-3" d="M504.12,487.46c-1.54-.55-1.91-1.55-2.07-2.79,2.21-.29,2.55,.81,2.07,2.79Z"/><path class="cls-126" d="M565.82,489.82c2.06-1.11,4.11-1.15,6.15,.03-2.05-.01-4.1-.02-6.15-.03Z"/><path class="cls-61" d="M516.49,798.17c-.03-.12-.1-.25-.08-.37,.2-1.16-2.12-1.82-.64-3.21,.16-.15,.54-.31,.64-.23,1.16,.92,.94,2.21,.88,3.46,0,.12-.04,.25-.06,.37-.26,.35-.51,.35-.75-.02Z"/><path class="cls-48" d="M578.07,807.35c.17,.57,.05,1.27,.76,1.58-.27,.75-.53,1.5-.8,2.25-.14,.35-.34,.4-.59,.11,.36-1.29-.73-2.81,.63-3.93Z"/><path class="cls-49" d="M513.77,800.3s0,0,0,0c.54,1.43,.9,2.85-.32,4.15-.23-.57,0-1.38-.85-1.63,.07-.98,.76-1.68,1.16-2.52Z"/><path class="cls-51" d="M534.89,462.82c.3-1.56-.4-3.28,.77-4.7-.02,1.61,.73,3.34-.77,4.7Z"/><path class="cls-44" d="M505.64,811.32c.33-.02,.67-.04,1-.06,.63,.48,1.14,1.18,.4,1.72-.49,.36-.78-.72-1.33-.93,.01-.25-.01-.49-.07-.74Z"/><path class="cls-159" d="M468.73,823.53c-.29,.3-.58,.59-.87,.89-.44-.28-.87-.78-.6-1.17,.52-.72,1.03-.13,1.47,.28Z"/><path class="cls-155" d="M577.44,811.28c.19-.07,.39-.1,.59-.11,.12,.59-.17,.98-.68,1.18-.13,.05-.49-.14-.51-.27-.09-.43,.2-.68,.6-.8Z"/><path class="cls-111" d="M574.3,815.16c-.29,0-.58-.01-.86-.02-.37-.03-.69-.34-.41-.55,.61-.46,1,.02,1.27,.57Z"/><path class="cls-34" d="M516.49,798.17c.25,.11,.5,.12,.75,.02,.1,.38,.13,.96-.21,.99-.73,.08-.51-.58-.54-1.01Z"/><path class="cls-57" d="M502.59,489.85c.15,.33,.07,.56-.23,.6-.41,.05-.63-.16-.47-.58,.07-.2,.25-.37,.38-.56,.12,.2,.23,.39,.32,.54Z"/><polygon class="cls-38" points="517.02 790.87 516.81 790.95 516.83 790.75 517.02 790.87"/><path class="cls-48" d="M579.02,808.34c-.13-.52,.09-.82,.6-.92,.02,.45-.2,.75-.6,.92Z"/><path class="cls-126" d="M597.42,768.13c.27-.61,.52-.58,.75,.02-.26,.26-.51,.25-.75-.02Z"/><path class="cls-55" d="M514.95,751.87c.09-.4,.29-.7,.76-.71-.03,.47-.27,.72-.76,.71Z"/><path class="cls-153" d="M512,814.4c-.15-.48,0-.82,.46-1.04,.07,.34,.14,.68,.2,1.01-.22,0-.44,.01-.66,.02Z"/><path class="cls-35" d="M537.88,628.22c-.08,.07-.16,.15-.24,.22-.07-.09-.19-.18-.18-.26,0-.08,.14-.15,.22-.22,.07,.09,.13,.17,.2,.26Z"/><path class="cls-39" d="M597.42,768.13c.25-.02,.5-.01,.75,.02,.02,.24,.01,.47-.02,.71,0,0-.36,.03-.36,.03,0,0-.36,0-.36-.01-.03-.25-.03-.5-.01-.75Z"/><path class="cls-43" d="M532.6,210.07c.85-1.07,1.53-2.69,3.21-2.16,1.65,.52,2.07,2.24,2.13,3.75,.14,3.82,.19,7.66,.03,11.48-.1,2.35-1.92,4.06-2.95,6.06-1.38-.12-.92,.98-.85,1.53,.57,4.56-1.13,8.43-3.24,12.33-2.55,4.72-5.07,9.45-7.9,14.02-.68,1.11-1.25,2.26-2.7,2.49-.48,.29-.86,.72-1.37,.97-.51,.27-1.03,.52-1.55,.78-.27,.14-.55,.25-.84,.35-1.05,.33-2.09,.68-3.17,.92-.65,.16-1.29,.38-1.92,.61-4.74,1.71-8.41,.24-11.48-3.6-2.88-3.61-5.31-7.51-7.98-11.25-.21-.28-.39-.57-.56-.87-.26-.43-.46-.9-.76-1.31-.22-.26-.43-.52-.66-.78-.26-.24-.5-.5-.75-.75-.13-.13-.25-.27-.38-.4-6.01-6.43-6.25-14.64-7.02-22.69-.04-2.74-1.24-5.22-1.85-7.83-.45-1.93-.52-3.81-.44-5.7,.1-2.37,.86-4.23,3.24-5.61,2.86-1.66,5.2-4.15,6.49-7.36,.66-1.65,1.48-2.71,3.56-2.87,1.94-.15,3.31-1.84,4.52-3.31,.92-1.11,1.75-1.64,3.27-1.26,1.08,.26,2.53,.39,3.39-.13,2.76-1.65,5.04-.84,7.38,.74,1.31,.89,2.82,1.13,4.4,1.18,2.68,.07,4.41,1.19,6.16,3.57,3.34,4.54,6.69,8.89,7.58,14.65,.17,1.11,.87,2.16,1.8,2.9,.45,.36,.96,.15,1.22-.41Z"/><path class="cls-43" d="M463.43,189.98c-.05-1.45-1.59-1.9-2.17-3.24,1.09-.91,2.49-.39,3.63-.8,.28-.15,.53-.32,.77-.52,2.36,.21,4.27-.74,5.81-2.43,1.89-2.08,3.93-4.08,5.47-6.4,3.39-5.1,7.87-7.49,14-6.51-.54,2.2-1.79,3.75-3.71,5.03-2.12,1.41-3.95,3.27-5.03,5.64-2.07,4.54-4.94,8.54-8.1,12.35-.31,.25-.59,.55-.85,.78,.05-.04,.05-.05,.09-.08,.29-.24,.51-.49,.72-.74,.62,.12,1.51,.29,1.32,1.01-.85,3.3-.32,7.02-2.84,9.84-.9-.06-1.78,.16-2.67,.26-1.77,.2-2.64-.41-2.6-2.31,.07-3.42-1.13-6.51-2.77-9.45-.45-.77-1.06-1.47-1.06-2.43Z"/><path class="cls-141" d="M464.78,191.54c2.67,3.42,3.72,7.33,3.42,11.64,1.46,.42,3.14-.79,4.33,.73-.26,.28-.52,.56-.78,.84-1.18,.48-2.38,.29-3.58,.13-6.15,5.22-12.57,10-20.18,12.93-1.31,.59-2.18,.17-2.63-1.07-2.07,1.85-2.09,5.41-5.24,6.51-.21-.21-.28-.41-.2-.6,.08-.19,.15-.29,.23-.29,.67-3.35,2.43-6.08,4.93-8.35,.74-.67,1.54-.56,1.77,.37,.36,1.46,1.01,1.46,2.17,.89,2.5-1.21,5.11-2.13,7.33-3.92,1.57-1.27,3.44-2.18,5.23-3.15,5.26-2.83,5.97-5.06,2.99-10.09-.65-1.1-1.5-2.08-1.3-3.48-.22-.2-.29-.4-.22-.6,.07-.2,.14-.3,.21-.3,2.7,.83,2.16,3.52,3.17,4.82-.25-1.38-1.23-3.02-1.98-4.75-.32-.74-1.47-1.76,.33-2.26Z"/><path class="cls-151" d="M483.88,244.62c1.03-1.05,2.5-.06,3.75-.87-.99-3.2-3.69-5.61-4.46-8.95-.07-.3-.48-.6-.8-.74-3.38-1.53-3.98-4.64-4.48-7.8,.65-.33,.79-.94,.86-1.59,2.3,.31,1.08,2.7,2.17,3.46-.44-1.48-1.38-3.22,.04-4.94,.67-.36,.82-.99,.91-1.67,1.86,2.64,1.95,5.89,2.02,8.78,.1,4.13,1.83,7.34,3.8,10.61,.79,1.31,1.67,2.56,2.51,3.83-2.13,.98-4.26,1.71-6.33-.13Z"/><path class="cls-152" d="M480.97,223.19c-.29,2.7,1.19,5.12,1.51,8.24-2.59-1.92-2.51-4.7-3.73-6.76-.5-2.35,1.03-1.65,2.22-1.48Z"/><path class="cls-43" d="M468.17,204.88c1.18-.49,2.38-.21,3.58-.13,0,.25-.09,.47-.26,.65-1.09-.29-2.3,.2-3.32-.51Z"/><path class="cls-43" d="M594.19,479.85c.88,2.71-1.72,1.18-2.5,1.95,.32,1.93,2,2.64,3.26,3.54,4.25,3.02,7.52,6.76,9.53,11.6,1.23,2.97,2.73,5.77,5.65,7.45,2.13,1.22,2.96,3.04,2.75,5.42,.51,1.55,.5,3.1,.03,4.65-1.35,.62-1.93-.34-2.29-1.29-1.54-4.01-4.4-7.18-5.7-9.19,2.62,3.41,5.82,8.57,7.97,14.33,.08,.54,0,1.06-.09,1.59,.07,1.8-1.17,1.69-2.36,1.59-1.17-.1-.94-.92-.83-1.7,.35-2.65-1.72-4.16-3.04-5.93-.69-.93-1.4-1.76-1.72-2.89-1.43-5.05-5.81-7.84-8.84-11.7,.38,3.05,2.03,5.37,4.08,7.37,3.26,3.19,4.5,7.66,7.33,11.13,.86,1.05,.16,2.18-1.04,2.08-1.31-.11-2.36-.92-3.51-1.47-1.45-.7-1.06-1.77-.8-2.92,.26-1.17-.49-1.96-1.35-2.56-4.43-3.08-8.41-6.65-11.88-10.8-.83-.99-1.91-1.67-3.77-1.15,4.67,4.96,8.83,9.96,15.03,13.95-2.53,.5-4.13,.65-5.68-.03-3.09-1.36-6-3.15-7.99-5.84-2.43-3.28-5.49-5.61-8.96-7.5-1.12,.51,1.2,1.9-.78,2.28-1.78,.35-2.64,1.9-3.2,3.55-.54,1.6-1.44,3.02-2.44,4.35-1.38,1.84-5.34,2.83-7.4,2.02-.73-.29-.9-.86-.79-1.53,.06-.37,.17-.83,.43-1.05,2.82-2.45,2.9-6.53,5.44-9.14,.67-.69,.8-1.53,.98-2.43,.66-3.29,1.58-6.48,4.23-8.84,.6-.53,.81-1.15,.65-2.04-.54-3.18-.13-6.4-.25-9.6,.12-.14,.23-.29,.35-.43,.77-.55,1.67-.84,2.53-1.2,2.03-.72,4.12-1.22,6.19-1.79,4.1-1.12,8.14,.48,10.8,4.18Z"/><path class="cls-86" d="M568.1,395.81c-.91,2.8-1.53,5.65-1.52,8.62,.02,6.93,.15,13.86-.05,20.79-.17,5.93,.72,11.69,1.63,17.51,.86,5.52,1.99,11.01,2.35,16.62,.22,3.42,.86,6.83,1.62,10.18,.32,1.43,1.39,2.7,2.17,4.02,.69,1.17,1.52,.4,2.33,.12,3.16-1.09,6.41-1.82,9.76-1.5,3.07,.29,6.15,.79,7.96,3.81-.15,.11-.29,.22-.44,.33-.51,.13-1.06,.15-1.5-.13-4.52-2.91-9.25-2.67-14.04-.88-3.1,1.16-5.56,.77-7-2.74,.62,2.3,2.89,3.37,3.37,5.56-.03,.38-.16,.72-.39,1.03,0,0-.02-.03-.02-.03-.27,0-.53-.01-.8-.02-2.76-2.08-4.18-4.81-3.85-8.28,.27-2.75-.49-5.35-.98-7.97-1.51-8.16-2.71-16.32-3.03-24.65-.14-3.77-.3-7.64-1.2-11.39-.27-1.1-.19-2.29-.2-3.45-.02-5.01,.06-10.02-.03-15.02-.08-4.75,.62-9.4,1.39-14.07,.25-1.5,.13-3.07,.17-4.61,.33-.23,.66-.24,.98,0,1.05,1.47,.27,3.19,.65,4.75,.17,.49,.28,1.01,.65,1.41Z"/><path class="cls-37" d="M612.8,519.91c-.22-.3-.45-.6-.67-.91,1.18-1.5-.91-2.99-.01-4.49,1.33-1.39,.44-3.14,.77-4.69,1.17,1.11,.64,2.56,.71,3.86,.07,1.36-.1,2.74,.88,3.88-.03,1.06-.06,2.12-.09,3.18-.53-.28-1.05-.55-1.58-.83Z"/><path class="cls-154" d="M614.34,522.12c1.04,2.02,.95,2.15-1.54,2.37,.06-1.08,.58-1.87,1.54-2.37Z"/><path class="cls-126" d="M572.75,489.84c0-1.79,0-3.59,0-5.38,1.19,1.8,1.2,3.59,0,5.38Z"/><path class="cls-47" d="M595.26,330.96c-.07-.81-.43-1.65,.21-2.55,.74,.84,.39,1.71,.25,2.55,0,0-.23,.01-.23,.01l-.23-.02Z"/><path class="cls-105" d="M456.36,398.17c.03-6.99,.07-13.98,.1-20.97,.2,.46,.56,.92,.56,1.38,.04,6.09,.04,12.19,0,18.28,0,.44-.43,.88-.66,1.31Z"/><path class="cls-148" d="M440.17,317.16c.27-.44,.52-.39,.75,.03-.25,0-.5,0-.75-.03Z"/><path class="cls-84" d="M463.28,193.85c0,.26,0,.53,0,.79-1.76-.96-2.37-2.93-3.78-4.25-4.5-4.22-8.26-4.63-13.31-1.07-1.22,.86-2.32,1.89-3.87,3.16,3.8,1.32,6.68,3.28,9.04,6.01,1.58,1.83,2.22,3.99,2.61,6.26,.14,.8-.28,1.57-1.07,1.85-.74,.27-1.06-.43-1.47-.92-1.19-1.42-1.64-3.14-2.02-4.89,1.15-.42,1.59,.34,2.05,1.13-.71-1.39-1.61-2.65-2.74-3.76-.29-.43-.58,.13-.17-.18,.02-.01,.07,.08,.2,.25,.59,.76,1.67,1.4,.66,2.57-2.36-1.57-4.05-3.86-6.12-5.75-.93-.85-1.66-1.99-3.14-1.97,1.55-2.62,4.23-3.93,6.6-5.56,3.28-2.27,6.81-2.21,10.37-.6,0,0,0,0,0,0,2.71,1.73,6.1,2.86,6.18,6.93Z"/><path class="cls-85" d="M423.19,201.56c-3.71,2.24-7.45,4.43-11.13,6.73-2.15,1.34-4.24,2.79-5.81,4.84-.27,.38-.53,.36-.79-.01-.11-1.42,.97-2.29,1.85-2.9,5.07-3.51,10.11-7.1,15.87-9.46,.23,.17,.3,.35,.23,.53-.07,.18-.15,.27-.22,.27Z"/><path class="cls-79" d="M423.19,201.56c0-.26,0-.53,0-.79,3.1-2.61,7.06-3.49,10.63-5.12,2.05-.93,3.99-2.32,6.34-2.58-.9,1.8-2.78,2.21-4.38,2.87-4.25,1.75-8.5,3.5-12.58,5.61Z"/><path class="cls-75" d="M400.84,218.44c-1.9,2.88-4.71,4.91-6.99,7.45-1.26,1.41-2.87,2.5-3.81,4.2-.26-.26-.52-.52-.78-.79,2.93-3.72,6.53-6.8,9.86-10.14,.41-.41,1.14-.49,1.72-.73Z"/><path class="cls-97" d="M405.47,213.12c.26,0,.52,0,.79,.01-.26,1.85-1.3,2.9-3.19,3.08,.8-1.03,1.6-2.06,2.4-3.09Z"/><path class="cls-72" d="M399.29,273.25c.87,.35,1.48,1.01,1.99,1.74,5.83,8.36,12.89,15.67,19.89,23.02,.64,.67,1.26,1.25,1.26,2.23-.98,0-1.69-.51-2.31-1.21-4.92-5.54-9.89-11.03-14.73-16.63-2.4-2.78-4.79-5.62-6.1-9.16Z"/><path class="cls-114" d="M381.58,241.65c1.94,7.79,6.54,14.2,10.76,20.82-.22,.29-.3,.74-.78,.78-2.98-3.88-5.57-8-7.82-12.34-1.51-2.92-2.97-5.84-2.92-9.25,.25,0,.51-.01,.76,0Z"/><path class="cls-76" d="M422.41,300.23c3.83,2.26,7.05,5.23,10.03,8.49-4.12-1.91-7.38-4.84-10.03-8.49Z"/><path class="cls-83" d="M391.56,263.25c.26-.26,.52-.52,.78-.78,.54,2.08,2.82,3.16,3.1,5.4-2.34-.65-2.75-2.93-3.88-4.61Z"/><path class="cls-78" d="M395.43,267.85c1.62,1.57,3.27,3.11,3.87,5.41-2.04-1.27-3.51-2.94-3.87-5.41Z"/><path class="cls-137" d="M594.19,479.85c-1.08-.68-2.12-1.43-3.25-2.03-2.53-1.35-5.07-2.24-8.02-1.06-1.99,.8-4.08,1.46-6.28,1.6-.06-.2-.12-.39-.19-.59,5.83-5.03,15.35-4.35,18.81,1.49-.06,.2-.11,.4-.17,.6-.3,0-.6,0-.9,0Z"/><path class="cls-71" d="M594.34,475.97c1.56,.07,2.39,1.12,3.09,2.33,0,.77-.02,1.54-.03,2.31-.84-.04-1.75,.13-2.31-.76,0,0,0-.03,0-.03,.89-1.51-2.34-2.18-.78-3.83l.02-.02Z"/><path class="cls-54" d="M492.64,263.24c.22-.28,.45-.55,.67-.83,1.46-3.02-.82-5.66-.87-8.54-.02-1.1-.75-2.54,.55-3.11,1.51-.67,1.88,1.11,2.4,1.92,1.59,2.48,3.38,4.79,5.14,7.14,1.5,2,3.37,3.49,5.81,4.19,2.5,1.41,5.23,.62,7.86,.81,4.85,.12,8.13-2.43,10.8-6.2,1.95-2.74,3.24-5.8,4.76-8.76,.63-1.24,.95-2.68,2.16-3.58l-.04-.03c0,2.67-.02,5.35,0,8.02,0,1.01-.13,2.06,.73,2.86,.16,2.31-.49,4.73,.95,6.85,.34,2.98-2.12,4.13-3.82,5.73-1.39,1.31-3.08,2.26-4.68,3.31-2.57,1.34-5.42,2-8.05,3.2-10.06,2.86-17.36-1.6-23.6-8.89-1.05-1.22-1.84-2.5-.75-4.11Z"/><path class="cls-135" d="M514.19,264.82c-2.59,1.06-5.19,1.87-7.81,.07,1.07-2.49,4.02-.79,5.46-2.46,.38-.57,.95-.68,1.57-.67,1.5,.66,2.58-.42,3.81-.91h-.02c.39-.48,1.32,.05,1.51-.8,.42-.54,.98-.66,1.62-.51,.19,2.19-.39,3.69-2.97,3.8-1.08,.05-2.15,.52-3.22,.82-.07,.02-.13,.21-.12,.31,.01,.11,.11,.22,.18,.33Z"/><path class="cls-54" d="M531.91,246.29c.03-.27,.06-.54,.09-.8,.17,0,.35,0,.52,.01-.22,.25-.43,.5-.65,.76,0,0,.04,.03,.04,.03Z"/><path class="cls-112" d="M532.52,245.51l-.26-.02s-.26,0-.26,0c.09-.19,.18-.38,.27-.57,.08,.19,.17,.39,.25,.58Z"/><path class="cls-132" d="M463.28,193.85c-1.21-3.06-3.82-4.89-6.18-6.93,1.31-.12,2.37,.34,3.26,1.31,.82,.89,1.64,1.87,3.06,1.75,.67,.33,1.13,.85,1.36,1.56-.78,1.45,.66,2.27,.98,3.4,.4,1.42,.96,2.8,1.19,4.31-1.8-1.45-2.03-3.9-3.67-5.4Z"/><path class="cls-132" d="M465.66,185.42c-.26,.17-.51,.35-.77,.52,.26-.18,.51-.35,.77-.52Z"/><path class="cls-153" d="M511.24,816.69c-.1-.63,.02-1.19,.6-1.56,.07,.62,0,1.19-.6,1.56Z"/><path class="cls-8" d="M479.48,756.33c10.29,5.69,19.22,12.26,30.36,14.64-1.13,1.44-2.64,1.15-3.9,.89-5.81-1.18-11.11-3.64-16.05-6.86-2.24-1.46-4.38-3.07-6.59-4.58-1.33-.91-2.54-1.92-3.82-4.09Z"/><path class="cls-8" d="M498.14,778.48c-7.01-.93-14.07,.06-21.56-.54,1.32-1.66,2.7-2.17,4.25-2.08,5.84,.32,12-1.42,17.31,2.62Z"/><path class="cls-106" d="M509.36,768.75c-2.38-1.93-2.06-4.17-2.34-6.3,1.1,1.47,1.79,3.26,2.34,6.3Z"/><path class="cls-10" d="M463.31,257.71c.17-.13,.36-.14,.54-.03,.91,.29,2,.05,2.47,1.39,1.4,4.01,4.21,6.89,7.68,9.22,5.42,3.64,10.76,7.4,16.52,10.51,1.01,.54,1.97,1.22,2.81,2,.72,.66,.62,1.43-.47,1.62-1.14,.2-2.26,.05-3.41-.29-4-1.18-7.47-3.4-10.87-5.66-5.02-3.33-9.57-7.25-13.53-11.83-1.35-1.56-2.87-2.94-4.82-3.73-.35-.5-.04-.82,.3-1.14,.48-.33,.99-.61,1.4-1.04,.38-.44,.78-.86,1.38-1.01Z"/><path class="cls-81" d="M426.29,250.9c.61,1.34,2.08,1.47,3.13,2.21,1.77,3.09,5.29,3.2,8.01,4.65,.32,.14,.63,.32,.93,.49,1.46,.97,3.11,1.77,3.53,3.73-.07,.16-.13,.33-.2,.49-1.89-.01-2.63-1.95-4.22-2.51-1.31-.46-2.4-1.49-4.37-1.6,2.16,7.51,4.15,14.91,4.47,22.63-1.61-2.37-2-5.15-2.81-7.78-1.34-4.39-2.01-8.97-3.81-13.23-.84-1.98-1.74-3.94-4.1-5.21-2.18,5.75-4.3,11.35-8.41,15.88,1.34-6.26,5.4-11.68,5.54-18.4-2.48,.37-3.64,2.29-5.41,3.24-.27-.28-.41-.62-.42-1.01,.87-2.68,2.99-3.78,5.51-4.39,.38-.05,.76-.04,1.14,0,.59,.09,1.06,.4,1.49,.79Z"/><path class="cls-117" d="M461.02,260.11c-.26,.26-.52,.52-.78,.79-5.58-2.77-11.29-4.89-17.79-3.57-.16,.21-.2,.63,.1,.88,3.88,3.29,4.89,7.96,6.03,12.54,.4,1.6,.61,3.25,.79,4.89,.08,.71,.19,1.69-.84,1.85-.68,.11-1.13-.52-1.39-1.12-.55-1.29-1.05-2.61-1.58-3.91,.28-.29,.4-.69,.71-.95,.19-.11,.39-.11,.53,0,.02-.06,.05-.08,.05-.08-.13-.13-.23-.27-.34-.45-1.41-3.13-1.29-6.84-3.98-9.44-1.38-1.34-2.61-2.79-4.7-2.93h.01c-.74-.6-1.57-1.39-.03-1.8,1.33-.36,2.65-.66,3.84-1.37,2.62-1.26,5.48-1.08,8.12-.68,4.55,.69,9.24,.98,13.53,2.95-.29,.58-.58,1.16-.86,1.74-.49,.18-1.15,.02-1.43,.66Z"/><path class="cls-102" d="M483.88,244.62c2.11,.04,4.22,.09,6.33,.13,0,0,.03,.04,.03,.04,.28,.2,.51,.45,.7,.74l.05,.06c.53,.33,.36,1.08,.84,1.44h0c.37,.98,.06,1.74-.78,2.32-.91-.56-.73-1.48-.78-2.32-.25-.25-.49-.5-.74-.76-.63,.07-1.35-.03-1.87,.25-4.98,2.68-10.69,2.93-16.04,5.07-.03-2.56,1.99-3.26,3.21-4.53,3.18-.22,5.86-2.33,9.07-2.45Z"/><path class="cls-99" d="M491.04,249.36c-.05-.88,.45-1.57,.78-2.32,2.26,1.77,3.44,4.4,5.09,6.64,1.21,1.64,2.41,3.3,3.56,4.98,2.68,3.89,6.15,5.08,10.6,3.82,.24-.07,.51-.02,.77-.03-1.54,1.24-1.53,1.29-3.16,1.53-.86,.13-1.77,.02-2.3,.93-3.35-.34-4.88-3.09-6.71-5.28-2.19-2.62-4.03-5.53-6.34-8.76,0,1.45,0,2.46,0,3.47,0,1.03,.16,2.01,.4,3.02,.4,1.7,.96,3.49-.42,5.07,.17-3.07-.76-5.85-2.28-8.47,0-1.53,0-3.06,0-4.6Z"/><path class="cls-73" d="M430.24,242.64c-.11,.6-.52,.97-1.01,1.28-1.25,.02-2.05,.64-2.72,1.7-2.28,3.62-5.85,5.89-9.15,8.42-1.08,.83-2.26,1.71-3.81,1.08-.13-.12-.26-.25-.39-.37,2.71-2.06,5.72-3.83,8.05-6.26,3.65-3.81,7.58-7.45,10.15-12.19,.47-.87,1.22-1.59,1.85-2.38,.3,.27,.49,.6,.56,.99-.32,2.97-2.96,4.87-3.54,7.73Z"/><path class="cls-77" d="M495.1,283.49c1.82,.09,3.72,2.34,3.63,4.24-.08,1.59-.87,2.72-2.37,3.06-1.65,.37-2.11-1.07-2.64-2.21-.56-1.2-.47-2.49-.23-3.74,.15-.79,.71-1.34,1.61-1.35Z"/><path class="cls-82" d="M433.22,234.72c0-.27,0-.53-.01-.8,2.19-3.93,3.99-8.09,6.94-11.56,0,.27,0,.53,.01,.8,.62,.64,.61,1.46,.22,2.1-2.08,3.38-2.96,7.69-7.16,9.46Z"/><path class="cls-74" d="M418.56,254.73c0,.26,0,.52,0,.78-1.96,.84-3.66,2.36-5.96,2.32-.73-.01-1.69,.28-2.05-.54-.48-1.05,.51-1.58,1.19-2.09,.38-.28,.94-.31,1.42-.45,0,0,.02,.02,.02,.02,.61,1.48,1.56,.65,2.39,.32,.98-.39,1.86-1.34,2.99-.35Z"/><path class="cls-83" d="M445.55,270.17c-1.29-2.57-2.58-5.13-3.86-7.7,0,0,.02-.03,.02-.03,1.97-.95,2.36,.79,2.9,1.87,.84,1.66,1.61,3.4,1.31,5.37-.12,.16-.25,.32-.37,.48Z"/><path class="cls-83" d="M446.33,271.7c-.26,.26-.51,.52-.77,.78,0-.77,0-1.54-.01-2.3h0c1.4-.07,1.25,.64,.78,1.53Z"/><path class="cls-99" d="M489.51,246.28c.25,.25,.49,.5,.74,.76-.25-.25-.49-.5-.74-.76Z"/><path class="cls-95" d="M542.64,329.49c-1.44-.65-1.48-1.92-1.48-3.25-.02-6.48-2.06-12.54-4.02-18.61-2.1-6.54-5.1-12.88-4.49-20.03,.09-1.02-.07-2.08,.64-2.94,.49-.59,1-1.27,1.88-1.07,.84,.19,1.31,.92,1.25,1.71-.14,1.97,.87,3.73,.87,5.66,.21,.32,.18,.6-.09,.87-.34,.12-.65,.06-.94-.14-.57-.64-.47-1.55-.89-2.23-.15-.15-.2-.36-.12-.56,0,.04-.21,.23-.21,.23,0,0,.16,.24,.17,.27,.84,2.19,.57,4.65,1.79,6.71,.19,.5,.3,1.02,.35,1.55,.06,.52,.08,1.04,.09,1.55,.01,.85,.25,1.63,.79,2.31,.92,1.72,1.18,3.66,1.91,5.44,.17,.51,.29,1.03,.39,1.55,.21,1.4,.76,2.71,1.18,4.06,.2,.67,.29,1.36,.32,2.06,.03,.99,.06,1.98,.31,2.92,.19,.16-.18,.69,.4,.6,.31-.61,.53-1.32,1.45-1,0,5.03,0,10.05,0,15.08,0,.1-.09,.28-.16,.3-.2,.05-.42,.03-.64,.03-.92-.87,.33-2.29-.78-3.11Z"/><path class="cls-80" d="M568.1,395.81c-.25-.26-.5-.52-.76-.78-.48-4.69-.58-9.37,.34-14.02,1.02-5.17,.66-10.43,.97-15.64,.51-8.64,.27-17.36,2.26-25.87,.58-2.48,1.29-4.93,2.16-7.34,.31-.45,.72-.55,1.21-.32,.18,2.2-.1,4.34-.92,6.38-1.56,3.85-1.93,8.02-1.97,11.97-.08,6.77-1.21,13.46-.93,20.23,.18,4.36-.59,8.59-1.29,12.87-.68,4.12-.73,8.35-1.06,12.53Z"/><path class="cls-142" d="M541.78,317.98c-.95-.9-.65-2.05-.62-3.14,.65-.72,.32-1.56,.3-2.37-.49-1.28-.93-2.58-1.38-3.87-.1-.53-.06-1.07-.24-1.59-1.13-2.15-1.05-4.74-2.45-6.8-.22-1.34,.13-2.74-.47-4.03-.41-1.46-1.87-2.85-.31-4.45,.23-.25,.47-.5,.7-.75,1.71,3.53,2.1,7.46,3.45,11.12,1.48,4,2.22,8.28,3.23,12.45,.21,.85,.16,1.76,.23,2.64-1,.46-.56,1.81-1.45,2.33-.56-.32-.4-.89-.47-1.36,0,.03,.09-.24,.09-.24,0,0-.21-.18-.21-.18-.04,.23-.18,.31-.4,.23Z"/><path class="cls-72" d="M566.57,389.65h-.38s-.38,0-.38,0c-.06-6,.72-11.93,1.41-17.87,.12-1.01,.29-2.1,.05-3.06-1.34-5.19-.87-10.48-.56-15.66,.32-5.4,1.42-10.8,3.72-15.83,.15,.18,.3,.35,.45,.53,.34,4.77-1.55,9.23-1.96,13.91-.4,4.47-.61,8.92-.16,13.39,.58,5.78-.17,11.5-1.06,17.16-.39,2.47,.41,5.15-1.13,7.44Z"/><path class="cls-116" d="M537.22,450.42c.79-5.14,1.82-10.26,2.31-15.42,.46-4.8,1.49-9.6,.72-14.47,1.45,.97,.71,2.49,.92,3.76,.21,1.29-.53,2.76,.71,3.86-.08,1.4-.92,2.65-.75,4.11,.71,5.99-2.08,11.45-2.67,17.26-.1,.96-.2,2.43-1.8,2.58,.01-.27,.03-.54,.04-.81,.17-.28,.34-.57,.5-.86Z"/><path class="cls-72" d="M574.28,331.83c-.26,0-.52,0-.78,.01-1.26,1.66-.03,4.74-3.06,5.39,0,0,0,0,0,0,.1-2.17,.74-4.22,1.97-5.97,.83-1.19,1.67-.99,1.88,.58Z"/><path class="cls-115" d="M542.63,329.49c.71-.39,.8,.13,.81,.6,.03,.84-.02,1.68-.03,2.52,0,0-.37,0-.37,0h-.37c-.02-1.04-.03-2.08-.05-3.12Z"/><polygon class="cls-115" points="542.68 332.61 542.51 332.93 542.36 332.79 542.68 332.61"/><path class="cls-139" d="M500.15,410.09c-.47-6,.85-11.9,1.05-17.87,.25-5.32,.46-10.64,1.53-15.89,1.05-11.15,2.7-22.23,3.54-33.42,.62-8.36,1.32-16.74,2.06-25.1,.46-2.97,.97-5.93,.53-8.95,1.1-2.5,.56-5.15,.68-7.74,.06-1.37,.05-2.73,.08-4.1,.15,.21,.41,.42,.42,.63,.21,4.81,1.63,9.54,.61,14.43-.65,3.15-.29,6.39-.23,9.58,.24,11.64-.97,23.17-2.43,34.69-1.28,10.09-2.49,20.2-3.9,30.27-1.45,10.35-2.65,20.7-2.86,31.16,0,.37-.19,.74-.3,1.1-2.19-2.76-.65-5.86-.77-8.8Z"/><path class="cls-118" d="M500.15,410.09c.6,2.9-.66,5.97,.77,8.8,.04,4.64,.07,9.28,.11,13.92-.26,.34-.51,.36-.76,0-1.61-7.21-.62-14.52-.7-21.78,0-.31,.38-.62,.58-.94Z"/><path class="cls-146" d="M502.47,445.94l-.26,.02-.26-.02c-.97-3.29-1.47-6.64-1.55-10.07,.22-.34,.43-.31,.63,.02,.79,3.31,1.36,6.65,1.44,10.05Z"/><path class="cls-129" d="M501.03,435.89l-.32-.03-.32,.02c-.43-1-.38-2.03-.13-3.06,.25,0,.51,0,.76,0,.34,1.02,.31,2.05,0,3.07Z"/><path class="cls-27" d="M535.73,266.3c.2,.51,1.18,.71,.59,1.53-.44,.62-.79,1.34-1.33,1.86-5.45,5.2-10.91,10.56-18.45,12.49-3.48,.89-7.12,1.69-10.92,.79-2.16-.51-3.69-1.42-4.91-3.15-1.17-1.66-2.41-3.26-3.63-4.89-.28-.39-.23-.75,.13-1.06,1.21-.34,2.29,.13,3.28,.7,5.2,2.98,10.62,3.14,16.23,1.48,2.58-1.02,5.25-1.82,7.72-3.1,.53-.17,.95-.52,1.39-.85,2.31-1.48,4.59-3.01,6.66-4.81,.94-.82,1.8-1.86,3.24-.98Z"/><path class="cls-2" d="M508.78,317.21c-.02,3.08-.18,6.17-.02,9.24,.28,5.79-.86,11.45-1.37,17.15-.96,10.67-2.29,21.31-3.5,31.96-.04,.34-.34,.66-.52,.98-2.16-.96-.92-2.64-.87-4.07-.51-4.36,.54-8.62,1.1-12.87,.88-6.68,1.44-13.33,1.33-20.05,.94-1.72-.11-3.67,.64-5.41,1.23-1.93,.75-4.18,.99-6.25,.51-4.33,.62-8.72,1.42-13.03,.36-.29,.7-.27,1.01,.07,.15,.77,.33,1.55-.21,2.26Z"/><path class="cls-94" d="M517.24,276.32c-7.25,3.58-13.8,1.84-20-2.61-.78-.01-1.19-.63-1.73-1.04-1.02-1.14-1.58-2.65-2.84-3.6-.36-.37-.53-.86-.88-1.24l.05,.06c-.53-.76-.4-1.95-1.54-2.3,.78-.78,1.57-1.57,2.35-2.35-.07,.77-.17,1.53,.41,2.19,4.38,4.91,8.79,9.62,15.89,10.69,2.96,.44,5.53-1.01,8.34-.74,.24,.32,.21,.63-.04,.93Z"/><path class="cls-140" d="M535.73,266.3c-1.25-.31-1.79,.74-2.55,1.36-2.39,1.91-4.74,3.87-7.64,5-.13,.05-.26,.1-.39,.15-.06-.12-.13-.25-.19-.37,1.43-2.02,3.85-2.83,5.54-4.58,1.17-1.21,2.29-2.37,3.05-3.87,.73,.77,1.46,1.54,2.19,2.31Z"/><path class="cls-67" d="M508.78,317.21c-.01-.78-.02-1.55-.04-2.33-.25-.23-.49-.47-.7-.74-.44-1.87,1.09-3.43,.81-5.27,.94,2.79,1.3,5.57-.07,8.34Z"/><path class="cls-143" d="M492.5,268.63c1.57,.82,2.55,2.13,3.15,3.75,.39,.32,.37,.62-.04,.9-1.66-1.24-2.63-3.02-3.77-4.68,.23-.25,.45-.24,.66,.03Z"/><path class="cls-51" d="M505.57,334.15c-.08,1.82,.69,3.74-.64,5.41-.06-.27-.13-.55-.2-.82,.55-1.48-.48-3.25,.84-4.59Z"/><path class="cls-56" d="M495.61,273.28c.01-.3,.03-.6,.04-.9,.66,.29,1.34,.54,1.58,1.32-.05,.41-.1,.81-.16,1.22-.75-.32-1.04-1.04-1.47-1.64Z"/><path class="cls-110" d="M490.29,265.6c2.21-.37,1.18,1.43,1.54,2.3-.8-.57-1.35-1.31-1.54-2.3Z"/><path class="cls-156" d="M492.5,268.63l-.33-.03s-.33,0-.33,0c-.02-.26-.04-.52-.06-.77,.49,.04,.76,.28,.72,.8Z"/><path class="cls-46" d="M530.39,277.14c.06-.2,.12-.41,.17-.61l.34,.33c-.2,.07-.39,.14-.59,.21l.07,.07Z"/><path class="cls-25" d="M508.04,314.14c.43,.06,.7,.28,.7,.74-.26,0-.51,0-.76,0,.02-.25,.04-.49,.06-.74Z"/><path class="cls-113" d="M581.74,799.25c4.69-3.73,9.76-6.55,16.04-6.16-4.94,3.06-10.78,3.84-16.04,6.16Z"/><path class="cls-121" d="M579.53,796.05c2.46-4.29,9.59-7.29,14.92-6.76-1.61,2.8-4.52,2.43-6.85,3.24-2.49,.87-4.93,1.85-8.06,3.53Z"/><path class="cls-149" d="M579.72,789.02c3.89-2.35,8.03-3.95,13-4.51-1.44,2.67-3.94,2.18-5.76,3.04-1.84,.87-3.7,1.68-5.67,2.2-.81,.37-1.59,.68-1.57-.73Z"/><path class="cls-107" d="M579.72,789.02c.29,.74,.99,.6,1.57,.73-.4,.26-.79,.69-1.21,.73-.61,.05-1.56,.93-1.82-.2-.18-.77,.7-1.12,1.45-1.25Z"/><path class="cls-62" d="M502.5,372.48c.41,1.33-.46,2.94,.87,4.07-.46,5.26-1.08,10.5-2.17,15.68-.37-1.32,.3-2.82-.69-4.04,.39-4.54,1.3-9.02,1.35-13.6,0-.76,0-1.54,.64-2.11Z"/><path class="cls-125" d="M497.16,789.61c-1.76,0-3.52,.02-5.28,.03-1.85-.17-3.86,1.02-5.53-.66-1.16-.48-2.53,.29-3.64-.61,2.32-1.58,9.93-1.33,14.56,.47,.24,.21,.31,.4,.19,.55-.1,.15-.21,.22-.31,.22Z"/><path class="cls-131" d="M482.57,793.58c4.84-.55,9.48,.04,13.78,2.55-4.68-.07-9.3-.6-13.82-1.85-.25-.17-.33-.33-.23-.48,.09-.15,.18-.22,.27-.22Z"/><path class="cls-150" d="M491.05,790.39c1.6,.18,3.18,.38,4.53,2.14-3.49,.9-6.44-.52-9.44-.8-.81-.08-1.86-.13-2.52-.59-.81-.56,.24-.53,.48-.76,2.32-.31,4.64-1.34,6.95,.02Z"/><path class="cls-45" d="M491.05,790.39c-2.32-.28-4.63-.29-6.95-.02,.39-1.06,1.86-.36,2.26-1.4,1.84,.27,3.81-.59,5.52,.66-.28,.25-.56,.5-.84,.75Z"/><path class="cls-109" d="M482.57,793.58c-.1,.23-.11,.47-.03,.71-.37,.14-.92,.1-.95-.21-.06-.69,.56-.5,.98-.5Z"/><path class="cls-157" d="M497.16,789.61c.04-.26,.08-.52,.11-.77,.49-.03,1.14,.11,1.09,.54-.04,.37-.74,.41-1.21,.23Z"/><path class="cls-51" d="M537.22,450.42c-.17,.29-.33,.57-.5,.86-.16-.48,.1-.71,.5-.86Z"/><path class="cls-92" d="M525.41,209.08c-1.53,3.79-3.31,5.02-6.23,4.68-1.01-.12-2.04-.32-2.98-.68-2.91-1.1-5.74-1.1-8.55,.28-.43,.21-.95,.24-1.48,.37-1.51-3.03,.09-4.98,2.06-6.74,1.79-1.6,3.83-1.97,6.03-.82,1.36,.71,2.71,1.45,4.09,2.13,2.14,1.05,4.17,2.64,7.06,.77Z"/><path class="cls-70" d="M503.13,247.94c3.19,3.06,3.16,3.01,6.84,1.27,2-.95,3.55-2.49,5.26-3.81,.88-.68,1.52-1.73,2.07-2.73,.8-1.44-1.01-1.84-1.33-2.87-.15-.49-.4-.95,.24-1.65,2.03,2.46,5.09,3.33,7.73,4.73-.24,1.17-.98,1.07-1.57,1.08-1.22,0-1.69,.51-2,1.76-1.62,6.51-6.36,8.9-12.85,6.96-1.32-.39-2.97-2.68-4.54-.02-.26,.43-.83-.32-.93-.79-.31-1.36,.43-2.46,1.08-3.92Z"/><path class="cls-103" d="M484.47,220.25c2.06-2.36,3.56-4.98,4.92-7.69,.78-1.56,1.89-2.78,3.87-2.48,2.01,.3,2.52,1.99,3.01,3.56,.47,1.51,.05,2.86-1.57,3.42-2.54,.88-4.97,1.91-7.18,3.49-.81,.58-1.89,.43-3.05-.29Z"/><path class="cls-52" d="M512.52,224.7c-1.73,.07-3.44,.01-4.24-1.87-.48-1.13,1.11-3.83,2.69-4.66,1.35-.71,2.64-1.33,4.34-.71,1.77,.64,3.72,.8,5.58,1.21,.78,.17,1.43,.59,1.64,1.42,.23,.93-.42,1.32-1.05,1.8-2.66,2.04-5.75,2.62-8.96,2.81Z"/><path class="cls-100" d="M496.5,227.08c-1.75,3.17-5.03,2.55-7.74,2.76-2.11,.16-2.78-1.56-1.66-3.41,.91-1.5,1.89-3.04,3.89-3.31,1.56-.54,3.13-.53,4.69,0h.01c.17,.21,.24,.42,.2,.64-.04,.22-.09,.33-.14,.33-2.19,.11-2.66,2.5-4.32,3.28-.25-.06-.46-.1-.6-.12,.11,.08,.31,.13,.63,.16,1.7,.12,2.61-1.85,4.34-1.56,.57,.23,.99,.54,.67,1.25Z"/><path class="cls-160" d="M497.55,218.38c4.95,5.12,4.29,12.05,6.78,18.02-1.1,.26-1.54,.17-1.66-.19-2.07-5.83-2.72-12.08-5.12-17.83Z"/><path class="cls-96" d="M501.45,237.49c1.73,.48,2.43,3.4,4.77,2.17,2.21-1.16,1.95-3.28,1.39-5.5,2.59,1.56,2.86,2.21,2.08,4.44-.78,2.24-2.64,3.77-4.34,3.58-2.03-.23-3.63-2.12-3.9-4.69Z"/><path class="cls-9" d="M506.1,217.16c.84,4.14-.15,8.3,.96,12.36-1.7-2.37-1.95-6.19-.96-12.36Z"/><path class="cls-89" d="M496.5,227.08c-.27-.28-.53-.56-.8-.84-.68-.61-.67-1.28-.18-2,.06-.38,.12-.75,.18-1.13,.71,1.23,1.92,2.36,.8,3.96Z"/><path class="cls-89" d="M495.69,223.11c-1.56,0-3.13,0-4.69,0,1.56-1.01,3.13-1.16,4.69,0Z"/><path class="cls-99" d="M517.23,260.87c-1.12,.95-2.13,2.34-3.81,.91,1.28-.27,2.43-1.08,3.81-.91Z"/><path class="cls-101" d="M518.71,260.07c.27,1.71-1.05,.46-1.51,.81,.31-.63,.9-.74,1.51-.81Z"/><path class="cls-99" d="M491.82,247.04c-.61-.29-.78-.84-.84-1.44,.66,.26,.8,.82,.84,1.44Z"/><path class="cls-99" d="M490.94,245.53c-.23-.25-.46-.49-.7-.74,.23,.25,.46,.49,.7,.74Z"/><path class="cls-134" d="M433.22,234.72c2.74-3.6,5.67-7.08,6.94-11.56,1.9-2.09,2.38-5.14,5.14-7.05,.65,.58,1.33,1.8,2.7,1.7-2.42,.72-3.52,2.71-4.48,4.77-3.43,7.34-8.27,13.75-13.27,20.05-.4-2.06,.88-3.6,1.71-5.26,.44-.88,1.32-1.54,1.28-2.66Z"/><path class="cls-128" d="M418.56,254.73c-2.21,.35-4.01,2.04-6.35,2.02-.1-.88,.82-1.25,.97-1.98,3.37-.42,5.66-2.74,8.12-4.72,2.2-1.77,3.92-4.03,5.58-6.3,.93-1.28,1.63-.72,2.35,.17-.73,1.01-1.35,2.12-2.22,2.99-1.23,1.22-.98,2.58-.72,3.99-.53,0-1.05-.01-1.58-.02-.39-.36-.34-.83-.33-1.29-.05,.45,0,.94-.38,1.29-2.47,.36-4.15,1.82-5.43,3.85Z"/><path class="cls-130" d="M441.66,255.43c-.74,1.15-1.89,1.54-3.17,1.62-1.3,.09-.85,.86-.64,1.55-2.16-.26-3.95-2.29-6.4-1.24-.48,.21-1.03-.42-.84-.91,.59-1.52-.97-2.19-1.19-3.36,2-.06,3.66,1.09,5.37,1.82,2.33,.99,4.49,1.5,6.88,.52Z"/><path d="M473.27,193.84c-.19,.3-.32,.67-.58,.9-.33,.3-.78,.77-1.14,.07-.05-.1,.41-.57,.7-.73,.31-.16,.7-.14,1.06-.2l-.04-.04Z"/><path d="M474.06,193.06c-.11,.41-.36,.68-.78,.78,0,0,.04,.04,.04,.04,.1-.42,.37-.66,.78-.78,0,0-.04-.04-.04-.04Z"/><path class="cls-69" d="M612.11,514.51c.43,1.5,1.44,2.99,.01,4.49-1.51-4.21-3.38-8.2-6.08-11.82-1.54-2.06-3.57-3.96-4.1-7.44,5.24,4.22,7.65,9.53,10.16,14.76Z"/><path class="cls-120" d="M589.58,495.13q-1.62-1.53-1.96-3.42c1.34,.64,2.07,1.43,1.96,3.42Z"/><path class="cls-53" d="M599.36,494.95c-.95-.48-1.58-1.03-1.79-1.99,.73-.7,1.05,.09,1.44,.41,.37,.31,.72,.69,.35,1.58Z"/><path class="cls-158" d="M583.62,493.19c.56,.05,.96,.38,1.16,.86,.16,.39-.04,.8-.52,.68-.58-.14-1.34-.26-1.2-1.16,.02-.15,.37-.26,.56-.39Z"/><path class="cls-137" d="M574.34,479.13l-.05-.84c.77-.65,1.54-.65,2.31,0,0,0,.05,.07,.05,.07-.58,.82-1.49,.64-2.31,.77Z"/><path class="cls-124" d="M570.44,337.23c1.84-1.33,1.23-4.05,3.06-5.39-.02,1.4,0,2.76-.47,4.15-1.93,5.71-2.41,11.65-2.63,17.64-.27,7.25-.42,14.53-.96,21.74-.4,5.25-.95,10.59-1.93,15.83-.23,1.24-.12,2.54-.16,3.82-1.46-1.62-.47-3.59-.78-5.38,.08-5.49,.8-10.92,1.41-16.37,.27-2.41,.42-4.93-.02-7.29-1.48-8-.34-15.77,1.67-23.48,.46-1.75,.99-3.44,.82-5.27Z"/><path class="cls-145" d="M576.6,478.29c-.77,0-1.54,0-2.31,0-.74-.87-1.5-1.73-2.21-2.63-1.19-1.51-2.04-3.12-1.37-5.28,3.4,4.88,3.42,4.95,9.07,3.37,4.82-1.36,9.33-1.21,13.44,2,.27,.21,.74,.17,1.11,.25-.01,.94,.54,1.6,1.08,2.29,.46,.59,.34,1.13-.29,1.54-3.38-3.75-7.37-5.53-12.45-3.93-1.19,.37-2.34,.94-3.66,.88-1.12-.06-1.92,.5-2.4,1.52Z"/><path class="cls-124" d="M566.73,399.37c-1.33-1.2-.65-2.03-1.04-3.28,1.31,1.21,.64,2.03,1.04,3.28Z"/><path class="cls-138" d="M449.41,200.8c-.07-2.34-2.6-3-3.36-4.91,3.91,1.54,6.22,4.64,6.1,8.26-1.71-.5-.92-3.02-2.74-3.35,0,0,0,0,0,0Z"/><path class="cls-119" d="M517.24,276.32c.01-.31,.03-.62,.04-.93,2.29-1.69,5.05-2.12,7.67-2.95,0,0,.05,.04,.05,.04,.06,.17,.12,.33,.18,.5-2.5,1.47-4.97,3-7.94,3.34Z"/><path class="cls-40" d="M461.02,260.11c-.18-.43-.59-1.16-.5-1.24,.84-.65,1.27,.38,1.93,.58-.27,.66-.85,.67-1.43,.66Z"/><path class="cls-130" d="M446.33,271.7c-.02-.63-.16-1.21-.78-1.53-.1-3.16-.87-5.99-3.84-7.72-.8-1.78-2.59-2.55-3.87-3.84,.8-.33,1.51-.87,2.48-.21,2.7,1.84,4.79,4.16,5.66,7.35,.53,1.95,.76,3.98,1.12,5.97h0c-.25,0-.51,0-.76-.02Z"/><path class="cls-36" d="M424,250.88c.06-.37-.17-.93,.5-.88,.09,0,.14,.57,.21,.88,0,0-.36,.04-.36,.04l-.35-.04Z"/><path class="cls-130" d="M447.09,271.71c.22,.26,.51,.5,.63,.8,.13,.32,.12,.71-.33,.84-.03,0-.23-.37-.26-.58-.05-.35-.03-.71-.04-1.06,0,0,0,0,0,0Z"/><path class="cls-11" d="M495.29,285.33c1.68,1.06,1.44,2.09,.86,3.21-1.62-.66-1.55-1.75-.86-3.21Z"/><path class="cls-63" d="M536.6,291.73c-.36,1.64,.79,3.07,.67,4.68-.1,.1-.2,.2-.31,.29-.29-.02-.55-.1-.8-.25-1.41-2.42-1.14-5.23-1.86-7.81,.44-.43,.12-1.2,.69-1.56,.77,.61,.34,1.7,.95,2.38,.4,.68-.2,1.64,.62,2.19l.04,.08Z"/><path class="cls-58" d="M537.99,300.21c1.32,2.15,1.66,4.61,2.3,6.98-.25,.36-.48,.35-.71-.02-1.54-1.49-1.09-3.78-2.2-5.43-.53-.39-.47-.91-.32-1.45,.29-.27,.6-.3,.94-.08Z"/><path class="cls-42" d="M540.44,308.71c1.11,1.09,1.1,2.56,1.36,3.95-.3,.27-.56,.24-.79-.09-1.13-1.07-.95-2.59-1.33-3.92,.28-.3,.54-.29,.76,.07Z"/><path class="cls-23" d="M537.99,300.21l-.34,.02h-.34c-.5-.12-.55-.58-.72-.95,0-.46,.02-.92,.03-1.38,.27-.33,.27-.79,.52-1.12,.11-.1,.15-.22,.13-.37,.92,1.14,.71,2.49,.72,3.8Z"/><path class="cls-41" d="M541.78,317.98c.05-.27,.1-.53,.14-.8,.2-.32,.43-.34,.68-.05,.06,.8,.11,1.59,.17,2.39-1.54,.27-.51-1.12-.99-1.54Z"/><path class="cls-12" d="M541.02,312.56c.26,.03,.52,.06,.79,.09,.04,.8,.7,1.79-.65,2.18-.05-.76-.09-1.52-.14-2.27Z"/><path class="cls-22" d="M534.99,287.08c-.12,.57-.12,1.2-.69,1.56-.03-.61-.26-1.3-.04-1.8,.36-.81,.6-.24,.73,.23Z"/><path class="cls-142" d="M536.59,299.28c.24,.31,.48,.63,.72,.94,.02,.51,.04,1.01,.07,1.52-1.01-.58-.9-1.52-.78-2.46Z"/><path class="cls-142" d="M536.56,291.65c-.84-.55-.52-1.43-.62-2.19,.78,.57,.62,1.4,.62,2.19Z"/><path class="cls-17" d="M537.15,296.77c.08,.49-.08,.87-.52,1.12-.15-.48-.31-.96-.46-1.44,.33,.11,.65,.21,.98,.32Z"/><path class="cls-24" d="M540.44,308.71c-.25-.04-.51-.06-.76-.07-.03-.49-.07-.98-.1-1.47,.24-.02,.48-.01,.71,.02,.05,.51,.1,1.01,.15,1.52Z"/><path class="cls-59" d="M542.6,317.13l-.34,.07h-.34c-.04-.53-.56-1.34,.39-1.35,.55,0,.27,.82,.29,1.29Z"/><path class="cls-54" d="M525.18,272.98c-.11-.15-.17-.31-.18-.5,.21-.01,.39,.05,.54,.18,0,0-.08,.27-.08,.27l-.28,.04Z"/><path class="cls-65" d="M511.77,250.85c2.02-1.54,4.04-3.08,6.05-4.62,.24-.18,.49-.19,.73,0-.73,3.2-3.21,4.41-5.98,5.28-.35-.12-.62-.34-.8-.67Z"/><path class="cls-21" d="M511.77,250.85c.27,.22,.53,.45,.8,.67-.46,.22-1.02,.35-1.34-.04-.22-.26,.17-.57,.54-.63Z"/><path class="cls-32" d="M518.55,246.24l-.36-.08s-.36,.07-.36,.07c.18-.27,.35-.55,.53-.82,.31,.22,.38,.5,.2,.83Z"/><path class="cls-14" d="M517.25,219.29c1.01,.27,2.02,.54,3.03,.81,.28,.14,.38,.3,.31,.47-.08,.18-.16,.27-.24,.27-2.78,1.78-6.12,1.39-9.13,2.3-.42,.13-1.14-.02-1.41-.32-.45-.49-.32-1.24,.13-1.74,.58-.66,1.27-1.23,1.91-1.83,1.8,.4,3.61-.98,5.4,.03Z"/><path class="cls-87" d="M517.25,219.29c-1.05,.17-3-1.04-2.41,1.64,.14,.65-.59,.72-1.05,.68-.66-.07-1.29-.38-.82-1.19,1.03-1.78-.54-.97-1.11-1.17,1.81-1.17,3.61-1.25,5.4,.03Z"/><path class="cls-108" d="M520.35,220.85c.08-.26,.06-.51-.07-.75,.39,.01,.92-.2,.96,.45,0,.08-.58,.2-.89,.3Z"/><path class="cls-31" d="M495.52,224.24c.06,.67,.12,1.33,.18,2-1.31,1.28-2.97,1.4-4.67,1.4-.17-.14-.23-.27-.17-.41,.06-.14,.11-.21,.17-.21,.71,.1,1.42-.08,1.41-.86-.02-2.29-.08-2.3,1.97-2.23,.37,.01,.74,.2,1.11,.31Z"/><path class="cls-20" d="M491.03,227.03c0,.21,0,.41,0,.62-.82,.43-1.79,.64-2.41-.07-.4-.46,.17-1.18,.68-1.55,1.28-.93,1.3,.41,1.73,1Z"/></svg>