<?xml version="1.0" encoding="UTF-8"?><svg id="Layer_1" xmlns="http://www.w3.org/2000/svg" viewBox="0 0 1000 1000"><defs><style>.cls-1{fill:#f7f5f4;}.cls-2{fill:#f7f8f9;}.cls-3{fill:#f7fcfe;}.cls-4{fill:#f9f7f7;}.cls-5{fill:#040404;}.cls-6{fill:#060402;}.cls-7{fill:#020101;}.cls-8{fill:#eeeded;}.cls-9{fill:#eaebed;}.cls-10{fill:#eae9e9;}.cls-11{fill:#e6e9eb;}.cls-12{fill:#f4f5f5;}.cls-13{fill:#f4f4f4;}.cls-14{fill:#f4f3f3;}.cls-15{fill:#f5f5f6;}.cls-16{fill:#fafbfb;}.cls-17{fill:#fcfcfc;}.cls-18{fill:#e7e7e7;}.cls-19{fill:#e7eaec;}.cls-20{fill:#e86224;}.cls-21{fill:#e2e1e1;}.cls-22{fill:#e8e3e1;}.cls-23{fill:#f1f2f2;}.cls-24{fill:#f1f0f0;}.cls-25{fill:#fefefe;}.cls-26{fill:#e5e6e7;}.cls-27{fill:#fcfeff;}.cls-28{fill:#989595;}.cls-29{fill:#969596;}.cls-30{fill:#989797;}.cls-31{fill:#875435;}.cls-32{fill:#8a898d;}.cls-33{fill:#b5b6b7;}.cls-34{fill:#b7b9bb;}.cls-35{fill:#c2bcd6;}.cls-36{fill:#918f8f;}.cls-37{fill:#302e3c;}.cls-38{fill:#34251c;}.cls-39{fill:#8c8c8d;}.cls-40{fill:#b1c6ce;}.cls-41{fill:#aaaeb0;}.cls-42{fill:#a4a1a1;}.cls-43{fill:#a7abad;}.cls-44{fill:#c0bebe;}.cls-45{fill:#cccaca;}.cls-46{fill:#cbc9c9;}.cls-47{fill:#c6c2c2;}.cls-48{fill:#c7c8ca;}.cls-49{fill:#cbcaca;}.cls-50{fill:#cfcccc;}.cls-51{fill:#d3d7d9;}.cls-52{fill:#dbdada;}.cls-53{fill:#dbdbdb;}.cls-54{fill:#dadcde;}.cls-55{fill:#d9d9d9;}.cls-56{fill:#b0abaa;}.cls-57{fill:#dfe3e5;}.cls-58{fill:#acb1b4;}.cls-59{fill:#c5c4c4;}.cls-60{fill:#dbd8d7;}.cls-61{fill:#c8c8c9;}.cls-62{fill:#c7c5c4;}.cls-63{fill:#d5d5d5;}.cls-64{fill:#150f0e;}.cls-65{fill:#241e1b;}.cls-66{fill:#1f1e20;}.cls-67{fill:#1e1713;}.cls-68{fill:#1e2121;}.cls-69{fill:#211713;}.cls-70{fill:#201813;}.cls-71{fill:#0b0807;}.cls-72{fill:#403834;}.cls-73{fill:#080504;}.cls-74{fill:#070606;}.cls-75{fill:#0f0301;}.cls-76{fill:#1c1b1d;}.cls-77{fill:#1c1a1a;}.cls-78{fill:#373534;}.cls-79{fill:#37261b;}.cls-80{fill:#181616;}.cls-81{fill:#0a0808;}.cls-82{fill:#0a0503;}.cls-83{fill:#3e3129;}.cls-84{fill:#3e2d25;}.cls-85{fill:#a3a9ad;}.cls-86{fill:#959293;}.cls-87{fill:#868c8f;}.cls-88{fill:#888484;}.cls-89{fill:#878696;}.cls-90{fill:#5b5b5c;}.cls-91{fill:#5b5858;}.cls-92{fill:#29221e;}.cls-93{fill:#2a1a11;}.cls-94{fill:#2c2724;}.cls-95{fill:#302721;}.cls-96{fill:#2f2d3a;}.cls-97{fill:#313133;}.cls-98{fill:#3b3939;}.cls-99{fill:#352920;}.cls-100{fill:#35261d;}.cls-101{fill:#2e2018;}.cls-102{fill:#2e221b;}.cls-103{fill:#2e2c38;}.cls-104{fill:#575757;}.cls-105{fill:#4c4c4c;}.cls-106{fill:#603621;}.cls-107{fill:#757373;}.cls-108{fill:#757b7d;}.cls-109{fill:#261f1c;}.cls-110{fill:#271b16;}</style></defs><path class="cls-97" d="M524.1,759.16c-1.22-1.28-1.47-3.15-2.76-4.41-.91-.89-1.06-1.95-.3-3.05,.71-1.02,.44-2.48,1.51-3.33,2.39-4.27,3.74-8.93,5.18-13.56,.51-1.66-.4-2.75-1.35-3.76-3.52-3.75-5.3-8.41-7.19-13.05-1.23-3.02-.96-6.13-.37-9.1,2.09-10.41,1.88-20.93,1.86-31.45-.02-10-.29-19.89-5.69-28.89-2.2-3.66-2.92-7.8-2.52-12.22,1.18-13.24-2.16-25.74-7.29-37.74-3.92-9.16-6.26-18.74-8.09-28.42-1.97-10.41-5.49-20.28-8.93-30.22-.55-1.6-1.88-2.66-2.39-3.83,5.62,7.94,6.29,17.27,5.3,26.87-1.12,10.89-.62,21.81-.39,32.7,.17,7.8,.18,15.6,.63,23.39,.05,.9-.27,1.91,.06,2.68,3.36,7.97,1.46,16.55,2.92,24.73,.3,1.66,.59,3.28,1.31,4.79,7,14.69,8.54,30.01,6.35,46.07-1.86,13.68-3.95,27.38-4.1,41.24,0,.64-.06,1.28-.28,1.9-.17,1.27-.2,2.52,.17,3.76,.12,1.03,.16,2.07,.35,3.09,.03,1.22,.12,2.43,.56,3.59,.75,3.03,1.4,6.07,.78,9.22-.1,.59-.27,1.17-.4,1.76-.19,1.76-.19,3.52,0,5.27,.15,.6,.31,1.19,.43,1.79,.34,2.14,.25,4.27-.04,6.4,.65,2.97-.6,5.71-1.03,8.55-.47,3.13-.09,6.28,0,9.43-1.1,2.5-3.3,2.54-5.52,2.34-4.43-.4-8.56-1.86-12.02-4.6-4.63-3.66-9.73-5.93-15.58-6.55-5.26-1.51-10.68-1.93-15.54-2.56,.35-.1,1.27-.28,1.2,1.13-1.54,1.44-3.66,.67-5.38,1.4-1.48,.32-2.91,.12-4.28-.5-2.37-1.17-1.43-3.02-.79-4.63,1.56-3.95,3.89-7.52,6-11.18,2.5-4.34,5.15-8.58,7.11-13.21,.48-1.13,.87-2.87,2.36-2.6,1.42,.26,1.19,2.04,1.44,3.26,.06,.3-.05,.65,.38,1.01-1.14-7.11-.74-14.16-1.2-21.16,.67-3.14-1.02-5.76-2-8.47-2.13-5.91-3.18-11.82-1.79-18.09,2.43-10.96,2.66-22.09,2.4-33.26-.11-4.62-.1-9.24,.04-13.86,.04-1.33-.25-3.23,1.5-3.51,1.48-.23,1.86,1.49,2.36,2.65,.79,1.81,1.48,3.65,2.3,5.42-4.27-10.66-10.21-20.85-8.66-33.01,.24-1.91-.03-3.62-.82-5.2-6.11-12.15-8.9-25.36-12.42-38.35-4.56-16.88-7.96-34.03-8.75-51.41-.37-8.03-3.96-14.53-5.88-21.77-.87-3.26-1.11-5.93,1.32-8.51,.98-1.04,1.46-2.42,1.11-3.92-.07-.4-.09-.8-.06-1.2,.49-2.98,.27-5.93-.92-8.7-1.29-3.01-.68-5.73,.69-8.49,2.74-5.49,7.4-9.25,12.06-9.53,1.13-1.15-1.1-2.92,.41-3.77,1.56-.88,3.27,.06,4.84,.53,6.76,1.99,13.06,5.64,20.21,6.16,12.41,.91,24.85,1.97,37.09-1.55,3.46-.99,7-1.62,10.49-2.49,2.18-.54,3.47,.38,4.02,2.46,.96,3.61,.56,6.5-1.9,9.91-4.53,6.28-11.27,10.52-15.11,17.28-.67,1.19-2.89,2.07-1.44,3.85,1.53,1.88,3.35,3.61,6.17,3.04,.49-.1,.96-.35,1.41-.59,2.15-1.02,3.7-2.69,4.98-4.65,.69-1.05,1.14-2.34,2.57-2.68,.37,.02,.67,.17,.88,.47,1.13,1.5-.65,3.28,.46,4.79,10.01,5.37,20.83,6.5,31.92,6.15,1.91-.06,2.8-.59,2.68-3.14-.19-4.45,1.89-8.61,3.28-12.8,.66-2.01,2.44-3.58,5.07-2.99-1,2.24,.67,4.14,.8,6.24,0,3.69,1.89,6.89,2.79,10.34,1.69,6.43,.55,12.82-.4,19.05-2.67,17.37-2.06,34.74-1.35,52.17,.49,11.92,.37,23.86,0,35.78-.15,4.88-.42,9.71,.87,14.5,.88,3.25,1.32,6.54,0,9.82-.47,1.16-.22,2.25,.45,3.28,5.45,8.38,7.02,18,9.01,27.53,.99,4.74,1.64,9.55,3.08,14.23,1.25,4.07,1.17,8.45,.15,12.57-1.85,7.51-2.65,15.11-2.97,22.8-.04,1.04-.12,2.11-.51,3.02-2.28,5.23-3.07,10.44-.91,15.97,.93,2.39-.58,4.74-.98,7.11-.07,6.32-1.1,12.77,2.35,18.65,4.06,6.94,3.76,14.78,4.61,22.38,.1,.91-.03,1.9-1.02,2.29-1.18,.47-1.95-.41-2.6-1.19-6.92-8.34-16.73-10.9-26.61-13.33-4.62-1.14-8,.52-10.58,4.33-1.97,2.9-3.71,5.85-3.64,9.54,.02,.99-.08,2.07-1.48,2.9-1.91-2.16-1.63-4.82-.86-7.04,1.66-4.78,.54-9.06-1.38-13.36-1.31-2.94-2.33-6-2.54-9.21-.11-1.62,.13-3.78,1.78-4.3,1.81-.56,2.29,1.59,2.8,2.41,.51,.9,.88,.1,.51,.46-1.6-1.93-2.41-4.43-4.41-6.07Z"/><path class="cls-7" d="M557.12,496.26c-3.45,1.22-5.1,3.73-5.29,7.32-.03,.62-.06,1.41-.43,1.81-1.14,1.21-1.46,2.44-1.22,4.12,.15,1.02-.57,2.15-.9,3.22,.42,.85,1.53,.22,2.04,1.04-.19,.26-.35,.64-.63,.81-2,1.22-4.12,1.72-6.52,1.83-8.39,.39-16.41-1.6-24.45-3.46-2.65-.61-4.71-2.51-7.16-3.57-.34-1.21,.68-1.04,1.3-1.29,6.73,1.61,13.71,1.99,20.33,4.09,3.15,1,6.33,.87,9.54,.86,1.75,0,3.28-.7,3.26-2.53-.04-4.24,2.48-7.73,3.12-11.78,.33-2.08,.36-3.74-.94-5.39-4.26-5.38-9.44-9.78-14.87-13.9-.82-.62-1.66-.8-2.47-.17-3.6,2.8-8.24,3.54-11.98,6.11-1.49,1.03-3.13,1.93-4.13,3.41-3.54,5.24-7.78,9.81-12.45,14.06-1.43,1.3-3.51,2.84-2.91,5.08,.65,2.47,3.43,1.73,5.26,2.43,.53,.29,.94,.65,.73,1.34-1.5,.57-2.74,2-4.64,1.16-2.28-1.01-4.31-2.3-5.74-4.37-.48-.69-.42-1.43,.29-2.05,2.14-1.89,3.57-4.29,5.02-6.71,.92-1.53,2.28-2.76,3.9-3.64,1.96-1.07,3.55-2.7,4.57-4.56,1.39-2.54,3.21-4.62,5.25-6.57,.91-.87,1.09-1.7,.87-3.04-1.05-6.38-.94-6.28-7.34-4.9-4.75,1.02-9.35,2.61-14.15,3.43-1.53,.26-3.03,.46-4.57,.46-6.94,0-13.88,.22-20.81-.1-6.01-.28-11.86-1.68-17.43-4.13-3.82-1.68-7.8-2.91-11.97-3.83,0,1.5,1.2,1.92,1.61,2.83,.55,1.22,.15,2.37-1.17,2.04-6.99-1.73-8.81,4.29-11.83,8.07-1.87,2.33-2.42,5.39-.82,8.63,1.34,2.71,1.97,5.82,.38,8.83-2.01-1.32-2.61-3.5-2.96-5.59-1.2-7.04-.65-13.67,4.58-19.3,3.25-3.49,3-3.57,.05-7.12-3.23-3.88-5.46-8.29-6.14-13.37,.09-.34,.27-.61,.6-.77-.36,.02-.61,.21-.78,.52-.94,1.46-2.43,2.22-3.8,3.17-3.92,2.69-4.42,5.56-1.64,9.29,1.63,2.19,2.98,4.47,3.18,7.28-.22,1.57-.16,3.33-2.39,3.54-.17-1.82-.36-2.85-2.95-3.23-8.73-1.28-13.93-5.16-13.89-15.04,.03-8.56,1.59-16.97,4.21-25.15,.19-.6,.52-1.26,.42-1.83-1.03-6.12,.94-11.85,2.28-17.65,1.05-4.55,2.63-8.87,1.69-13.82-.48-2.55,0-5.65,.65-8.3,.67-2.67,.43-5.09-.27-7.51-1.04-3.6-.74-7.11,.34-10.53,1.64-5.22,3.46-10.4,5.42-15.52,.53-1.4,.76-2.62,.53-4.06-1.18-7.32-1.9-14.68-1.77-22.12,.17-9.25,2.23-17.91,7.68-25.57,.07-.1,.23-.17,.26-.28,1.92-6.88,7.96-9.32,13.43-12.3,2.24-1.22,4.58-2.33,7-3.11,1.98-.64,2.38-1.59,1.74-3.39-1.06-2.96-.85-5.96-.35-9.02,1.05-6.47,5.43-10.22,10.63-13.31,4.09-2.43,8.51-4.03,13.23-4.74,1.27-.19,2.56-.27,3.82,.1,1.89,.56,3.77,.4,5.62,.16,.21-4.11-2.43-6.43-5.05-8.76-.53-.93-.29-1.58,.69-1.99,4.83,1.4,9.41,3.42,13.51,6.29,5.72,4,11.28,4.85,18.42,3.22,6.88-1.57,10.07-5.23,12.32-11,1.12-2.87,2.41-5.67,3.75-8.45,2.36-4.88,3.67-9.87,1.76-15.24-.26-.72-.31-1.51-.21-2.29,.14-1.08,.53-2.04,1.72-2.27,1.02-.2,1.74,.47,2.23,1.23,1.81,2.77,1.98,5.75,.89,8.83,.14,4.43-.69,8.67-2.69,12.61-1.2,2.36-1.64,4.6-1.32,7.31,.61,5.1,.35,5.21,5.08,6.78,4.66,1.55,8.85,4,12.81,6.77,5.1,3.57,5.51,8.64,4.61,14.04-.13,.75-.46,1.46-.77,2.41,3.72-.02,6.83,1.66,10,3.3,5.44,2.81,10.88,5.66,16.6,7.87,4.7,1.81,8.42,4.57,10.88,9.08,1.71,3.13,3.68,6.08,4.97,9.47,.95,2.49,.54,5.01,.98,7.5,1.71,9.66,4.18,19.13,6.5,28.64,.24,.99,.67,1.94,1.1,2.87,.44,.96,.93,2.06,.51,2.96-1.55,3.38,.09,6.63,.27,9.92,.19,3.58,.47,7.12-.11,10.69-.39,2.43-.17,4.63,1.74,6.68,2.88,3.11,4.69,6.7,2.67,11.14-.5,1.1,.05,2.19,.52,3.29,2.07,4.91,2.63,10.05,1.69,15.29-.3,1.67-.39,3.36-.16,4.97,.54,3.76-.03,7.31-1.04,10.92-.52,1.87-.58,3.81-.27,5.9,.69,4.52,1.07,9.07,2.13,13.54,.43,1.83,.26,3.74-.41,5.65-1.24,3.52-3.22,6.67-4.82,10.01-.74,1.54-2.18,2.53-3.64,3.34-4.12,2.29-8.27,4.52-12.08,7.33-.68,.5-1.65,.72-2.51,.86-5.76,.96-10.03,3.97-13.2,8.87-3,4.64-6.93,8.5-11.18,12.03Z"/><path class="cls-31" d="M528.25,234.23c-.43-1.12-.23-2.28-.24-3.43-.02-1.83-.57-3.53-1.35-5.15-.28-.57-.83-1.17-1.48-1.05-.91,.17-1.09,1.06-.99,1.84,.19,1.39,.41,2.79,.83,4.12,.96,3.06,.89,6.15-.29,9.03-2.67,6.5-5.29,13.04-8.63,19.24-1.55,2.88-3.76,4.77-7.32,4.69-1.94-.04-3.73,.84-5.54,1.48-3.66,1.29-7.22,1.39-10.71-.69-3.85-2.29-7.75-4.5-11.68-6.63-2.24-1.21-4.85-1.7-6.8-3.48-2.67-1.46-3.37-4.21-4.4-6.74-.38-.5-.68-1.05-.9-1.64-.16-.4-.29-.8-.44-1.2-.11-.24-.21-.49-.31-.74-.16-.34-.32-.69-.49-1.02-.12-.19-.22-.4-.31-.61-.09-.2-.21-.38-.39-.51,0,.02-.29,.13-.27,.17,.19,.24,.25,.47,.19,.75-.08,.32-.22,.57-.44,.8-.51,.3-.99,.21-1.47-.05-3.52-2.91-5.87-6.75-8.31-10.5-.56-.86-.91-1.85-.99-2.89-.08-1.04-.08-2.17,.95-2.73,.85-.45,1.75,.03,2.54,.49,1.08,.63,2.01,1.47,2.83,2.28-2.73-7.22-5.64-14.52-3.47-22.54,1.15-4.25,2.46-8.09,6.15-11.43,7.75-7,16.88-8.11,26.39-7.72,3.25,.13,6.33,1.38,9.52-.42,1.28-.72,2.45,.41,3.46,1.15,5.35,3.9,11.29,7.13,14.2,13.64,.83,1.85,2.67,3.09,4.06,4.6,1.34,1.45,2.42,3,1.87,5.15,1.08-1.11,1.32-3.41,3.39-3.17,2.18,.25,2.43,2.4,3,4.05,1.46,4.23,1.78,8.44,.13,12.78-.89,2.34-1.63,4.84-1.11,7.46-.13,.71-.61,.73-1.17,.6Z"/><path d="M469.26,245.02c.29,.53,.58,1.05,.86,1.58,.31,.96,1.15,2.1-.79,2.28-1.92-2.19-4.78-3.14-6.75-5.37-3.4-3.85-6.64-7.7-8.04-12.8-.24-.89-.6-1.79-.35-2.61,.69-2.27,.17-3.89-1.52-5.67-2.15-2.27-2.74-5.21-.99-8.12,.68-1.14,.77-1.9-.13-3-1.98-2.44-2.18-5.14-.41-7.81,1-1.5,.97-2.87,.56-4.66-2.74-11.76,3.21-20.18,11.99-24.71,2.16-1.12,4.2-2.46,5.76-4.36,3.9-4.75,9.33-6.32,15.05-7.11,2.58-.35,5.06,.68,7.19,2.04,1.48,.95,2.88,1.07,4.33,.61,6.37-2,13.31,1.86,16.13,7.31,.51,1,1.13,1.43,2.09,1.93,2.25,1.19,4.41,2.58,6.44,4.12,1.75,1.32,3.11,3.04,3.55,5.32,.74,3.84,1.96,7.62,.75,11.6-.49,1.63-.37,3.19,.89,4.58,1.22,1.35,2.13,2.88,1.89,4.85-.08,.64-.06,1.36,.54,1.75,4.16,2.73,3.61,7.25,4.16,11.25,.76,5.48-1.63,10.47-3.05,15.6-1.57-2.61-.79-5.26,.19-7.73,1.92-4.87,.92-9.49-.73-14.12-.3-.83-.45-1.87-1.57-1.92-.93-.04-1.18,.89-1.51,1.54-.58,1.11-1.2,2.16-2.74,3.74,1.21-4.38-.8-6.59-3.19-8.68-.96-.84-2.1-1.73-2.54-2.84-2.58-6.52-8.53-9.52-13.58-13.5-2-1.58-3.97-1.63-5.71-.22-1.74,1.41-3.09,1.42-4.76,.12-1.15-.89-2.4-1.09-3.95-.74-1.72,.39-3.58,.31-5.36,.22-3.01-.16-6-.78-8.3,2.15-.73,.92-2.27,1.25-3.59,1.03-2.55-.43-4.14,.74-5.25,2.87-.18,.34-.37,.83-.66,.92-4.09,1.33-4.97,5.24-6.15,8.47-1.38,3.77-1.79,7.92-1.09,12.03,.84,4.9,2.48,9.54,4.55,14.05,.26,.57,.66,1.12,.17,2.08-2.4-1.69-3.86-4.63-7.15-5.51-.68,2.81,.68,4.86,2.04,6.77,2.22,3.12,4.64,6.09,6.98,9.13,.84,.35,1.12,.07,.9-.79-.09-.22-.15-.45-.18-.69-.36-.54-.41-1.07,.07-1.58,.42,.05,.65,.32,.76,.71,.23,.25,.44,.52,.63,.81,.09,.22,.14,.44,.17,.68,.18,.32,.44,.57,.65,.86,.08,.21,.12,.43,.13,.66,.2,.3,.4,.59,.6,.88Z"/><path class="cls-5" d="M497.12,740.65c0-3.98,.13-7.97-.03-11.94-.09-2.11,.56-4.06,.86-6.06,.84-5.55,.78-11.18,2.02-16.7,.74-3.32,.06-6.91,1.02-10.27,1.14-3.98,.33-8.15,1.33-12.16,.63-2.51-.35-5.12-.82-7.56-1.03-5.26-2.05-10.51-2.95-15.79-.34-1.98-1.21-3.9-2.38-5.6-1.76-2.57-2.59-5.37-3.03-8.51-.67-4.86-.53-9.7-.68-14.56-.08-2.42-.47-4.86-1.5-7.08-.74-1.59-.89-3.21-.78-4.88,.46-6.88,.42-13.82-.2-20.61-.85-9.37-.5-18.71-.49-28.05,0-6.38,.78-12.76,.86-19.16,0-.76,.23-1.53-.08-2.26-1.69-4.08-2.15-8.65-4.95-12.31-1.07-1.4-1.78-3.07-2.61-4.52,.28-.56,.78-.72,.99-.47,2.38,2.83,4.84,5.57,5.98,9.25,1.13,3.67,2.51,7.25,4.03,10.79,2.17,5.06,3.03,10.57,4.06,15.95,1.09,5.65,2.65,11.17,3.84,16.78,1.44,6.82,4.93,12.88,7.08,19.42,2.19,6.66,3.8,13.46,4.76,20.46,.54,3.89,.07,7.61-.19,11.38-.26,3.83,.6,7.32,2.13,10.78,2.17,4.92,4.2,9.9,6.28,14.86,.28,.68,.97,1.44,.39,2.14-1.75,2.11-1.02,4.29-.45,6.54,.25,.97,.16,2.04,.16,3.07,.01,4.5-.06,8.99,.02,13.49,.15,8.48-.65,16.84-2.74,25.07-.3,1.19-.34,2.21,.17,3.34,2.55,5.68,4.27,11.82,9.24,16.11,.59,.51,.93,1.13,.69,2.04-1.41,5.34-3.74,10.33-5.87,15.39-.32,.75-.51-.35-.72-.64,1.2-4,2.3-8.04,3.64-12,.65-1.91,.35-3.44-.95-4.82-2.96-3.14-4.61-7-6.2-10.91-.63-1.55-1.07-3.14-1.16-4.81-.34-6.27,.41-12.49,1.19-18.68,.16-1.27,.31-2.52,.31-3.79,.03-5.26-.11-10.52,.04-15.77,.19-6.67-1.1-13.2-1.67-19.79-.25-2.92-2.49-5.26-3.59-7.98-.67-1.65-1.42-3.28-2.29-4.84-.73-1.32-.92-2.74-.66-4.1,1.8-9.32-.39-18.2-2.56-27.17-1.81-7.48-4.73-14.52-7.49-21.64-1.23-3.18-1.89-6.59-2.7-9.92-1.77-7.28-3.48-14.58-5.21-21.87-.53-.46-.32-1.11-.42-1.68-.02,.58,.17,1.21-.44,1.63-1.14,5.44-.72,10.95-.74,16.43-.04,9.76,.09,19.52-.05,29.27-.07,4.75,1.07,9.41,.72,14.17-.04,.62,.08,1.32,.36,1.87,2.24,4.53,2.26,9.36,2.2,14.26-.08,6.84,.83,13.42,4.79,19.37,2.16,3.23,2.09,7.32,2.65,11.05,.54,3.64,1.55,7.19,1.92,10.87,.33,3.2,.38,6.31-.01,9.51-.72,5.81-1.13,11.66-1.81,17.47-.8,6.81-1.82,13.6-2.62,20.41-.52,4.42-.81,8.87-1.23,13.31-.08,.86,.33,1.81-.44,2.55-.39,.35-.73,.31-1.04-.11Z"/><path class="cls-73" d="M465.52,783.81c2.16,.13,4.23,.81,6.43,.92,1.9,.1,3.54,1.3,5.1,2.48,4.09,3.07,8.22,6.11,13.42,7.12,2.52,.49,5.03,.96,7.41-.5,.39-.39,.59-1.11,1.39-.74,1.56,1.77-2.01,3.15-.28,5.18,1.17,1.37,.51,3.47,.7,5.23,.41,3.84-1.22,7.25-2.06,10.82-.34,1.43-1.6,2.03-2.79,2.42-5.4,1.76-10.84,1.27-16.27,.11-.41-2.17-2.12-1.67-3.49-1.58-1.52,.11-3.03,.42-4.53,.72-6.76,1.35-13.12,4.08-19.77,5.85-7.75,2.07-15.57,3.65-23.58,4.18-4.93,.33-9.5-.89-14.04-2.8-4.24-1.78-8.57-3.32-12.54-5.66-5.55-3.27-6.94-7.16-4.97-13.29,1.99-6.19,6.46-9.92,12.09-12.55,.55-.26,1.26-.4,1.85-.3,3.95,.68,7.94,.09,11.89,.34,3.7,.23,7.11-.87,10.41-2.24,1.57-.65,3.66-1.18,3.66-3.67,0-.39,.76-.59,1.31-.57,1.45-1.04,2.99-1.88,4.76-2.25,1.22,.7,2.51,1,3.91,.74,1.74-.94,3.45,.19,5.17,.06,2.08,.34,3.82,1.37,5.32,2.8,.64,.61,1.38,1.42,.94,2.32-.57,1.16-1.76,.89-2.71,.52-2.73-1.06-5.39-2.3-8.28-2.92-.62-.13-1.24-.27-1.83-.23,2.94,1.75,6.9,2.41,7.66,6.73-1.89,1.43-3.39,.08-4.91-.76-2.46-1.35-4.81-2.95-7.68-3.23,2.82,1.01,6.22,1.19,7.42,4.8-.15,.85-.74,1.22-1.51,1.4-2.5,.28-4.21-1.54-6.28-2.4-1.51-.63-2.9-1.62-4.66-1.3-.08,.01-.19,.1-.2,.17-.02,.12,.03,.25,.05,.38-.41,.91-1.23,1.36-2.05,1.81-6.02,1.49-12.24,1.64-18.29,1.24-4.52-.3-7.73,1.26-10.77,3.9-2.31,2.01-2.05,2.99,.78,4.51,3.07,1.66,6.5,2.42,9.67,3.79,8.76,3.79,17.54,2.8,26.32,.43,10.93-2.95,21.9-1.71,32.89-.67,7.38,.7,14.23-1.29,20.89-4.23,1.37-.61,1.45-1.71,1.5-2.83,.07-1.54-1.3-1.32-2.21-1.54-4.14-.98-8-2.6-11.87-4.39-4.49-2.08-9.58-2.51-14.32-4.09-2.64-.88-4.85,2.19-7.65,2.04-.61-.12-1.1-.41-1.37-1,.8-3.71,4.47-3.56,6.88-5.11,1.02-.37,1.93,.33,3.07,.32-1.15-.09-2.05-.61-3.07-.64-.55-.3-.8-.76-.75-1.39,.42-.9,1.04-1.08,1.86-.51Z"/><path class="cls-7" d="M427.67,503.94c.66,.11,1.24,.23,1.05,1.17-.4,1.95-1.24,3.63-2.75,4.95-1.34,1.17-1.47,2.48-.84,4.15,2.47,6.58,4.83,13.21,7.23,19.82,.26,.71,.32,.85-.96,1.45-.74,.34-.45,.72-.4,1.11,.71,5.68,1.43,11.37,2.18,17.04,.15,1.13,.49,2.24,.7,3.37,1.59,8.91,3.09,17.84,4.78,26.73,.43,2.24,1.46,4.36,2.18,6.54,2.17,6.55,2.95,13.46,5.2,20.01,1.29,3.75,2.33,7.6,4.21,11.1,2.72,5.06,3.76,10.42,3.74,16.1,0,3.18-.5,6.43,.68,9.53,.76,2,1.33,4.11,2.32,6,2.5,4.78,3.78,9.96,5.32,15.08-2.8-2.51-3.51-6.16-5.14-9.32-1.45,.42-.86,1.49-.86,2.22-.04,10.53-.03,21.06-.05,31.6,0,1.53-.23,3.03-.47,4.56-.94,5.91-2.18,11.79-2.59,17.78-.28,4.06,1.01,7.83,2.21,11.6,.85,2.67,1.89,5.29,2.78,7.95,.51,1.5-.47,.97-1.16,.77-.15-.04-.3-.07-.45-.11-.25-.18-.45-.4-.58-.69-.11-.44-.1-.89-.1-1.34-.02-.58,.08-1.18-.26-1.71-3.35-6.58-5.52-13.37-4.11-20.91,2.84-15.15,2.84-30.46,2.66-45.79-.04-3.7-.34-7.42,.23-11.13,.12-.81-.18-1.8-.59-2.55-2.96-5.47-2.55-11.44-2.07-17.23,.2-2.41-.35-4.22-1.35-6.07-1.89-3.5-3.47-7.12-4.97-10.78-2.29-5.56-3.42-11.45-4.99-17.23-2.62-9.69-5.62-19.28-6.93-29.26-.86-6.55-2.33-12.99-2.81-19.6-.43-5.94-1.47-11.8-1.15-17.85,.14-2.55-1.74-5.25-2.88-7.81-1.24-2.8-2.2-5.7-3.15-8.6-.31-.96-.85-1.99-.74-2.93,.17-1.36,.18-2.12-1.49-2.02-.41,.02-.85-.5-1.28-.78-.25-.33-.26-.65,0-.98,3.64-.58,5.08-3.97,7.63-5.95Z"/><path class="cls-74" d="M566.51,751.45c.04-.77-.17-1.66,.15-2.28,1.66-3.14,1.03-6.17-.25-9.18-1.44-3.37-.47-6.57,.71-9.68,1.1-2.91,1.67-5.84,1.75-8.96,.15-6.25,.9-12.43,2.35-18.55,1.24-5.28,1.02-10.58-.32-15.92-1.7-6.79-2.84-13.71-4.4-20.53-1.34-5.84-2.74-11.71-6.07-16.83-1.35-2.08-1.88-3.97-1.19-6.47,.68-2.44,.6-5.06-.19-7.58-.89-2.83-1.07-5.75-1.05-8.72,.07-11.55,.41-23.11-.07-34.64-.58-13.96-.63-27.91-.67-41.87-.01-5.89,1-11.67,1.83-17.48,1.22-8.6,2.33-17.18-1.12-25.58-.62-1.5-1.41-3.11-.04-4.68,3.47,7.1,5.57,14.34,4.18,22.47-.63,3.71-.84,7.59-1.06,11.4-1.43,24.62-.24,49.25-.65,73.88-.06,3.83,.08,7.64-.5,11.49-.73,4.82,.09,9.71,1.26,14.41,.65,2.61,.58,5.04-.15,7.52-.33,1.12-.73,2.07,.06,3.24,5.78,8.58,7.26,18.57,9.29,28.41,1.05,5.09,1.62,10.3,3.28,15.26,1.55,4.61,.47,9.13-.54,13.57-1.48,6.49-2,13.07-2.48,19.66-.22,2.99-.87,5.84-2.04,8.55-1.11,2.57-1.32,5.13-.38,7.69,1.47,3.97,1.04,7.75-.67,11.5-.38,.39-.72,.35-1.02-.1Z"/><path class="cls-71" d="M566.51,751.45c.34,.03,.68,.07,1.02,.1-.69,4.33,1.03,8.57,.47,12.9-.11,.85,.58,1.38,.99,2,5.38,8.13,6.2,17.29,5.88,26.67-.06,1.66-.41,3.41-2.8,3.2-.19-.04-.37-.07-.56-.11-2.6-1.19-3.88-3.93-6.48-5.64-.77,2.93-1.09,5.66-.28,8.37,.62,2.07,.03,3.02-2.12,2.71-7.64-1.08-15.23-1.13-22.77,.7-.87,.21-1.78,.13-2.64-.18-.55-.25-.94-.62-1.02-1.25,2.47-2.75,2.67-5.89,1.79-9.32-.63-2.46-1.03-4.98-1.13-7.95-4.28,2.27-4.51,6.4-5.6,9.85-.71,2.24-.76,4.91,.05,7.21,1.1,3.13,.71,6.11-1.32,8.34-2.98,3.28-3.67,6.1-.11,9.23,0,.59-.25,1.05-.76,1.36-1.85,.67-3.44-.76-5.22-.67-.36-.07-.66-.25-.9-.53,.15-4.49,1.59-8.35,4.71-11.75,2.04-2.23,1.27-5.27,.04-7.61-2.1-3.99-2.55-7.77-.95-12.06,1.44-3.88-.62-7.46-1.93-11.02-.57-1.56-1.21-3.07-1.65-4.69-1-3.6-.73-7.01,.9-10.33,.33-.67,.12-1.23-.01-1.84,.14-.42,.41-1.36,.72-.91,2.08,2.97,4.13,5.99,5.46,10.05-2.4-1.71-2.75-4.35-4.93-5.66-1.28,2.2-1.32,4.21-.66,6.59,1.07,3.83,2.76,7.41,3.9,11.2,.7,2.31,.92,4.44,.11,6.72-.96,2.7-.96,5.48-.24,8.34-.36-4.62,1.33-8.47,3.91-12.13,2.83-4.02,6.16-6.24,11.33-4.97,4.46,1.1,9.1,1.53,13,4.3,.2,.14,.46,.25,.71,.29,6.68,1.13,11.03,5.6,14.9,10.49,.63-.06,1.04-.29,1-.68-.47-5.2-.68-10.45-1.62-15.57-.54-2.95-2.14-5.75-3.54-8.47-1.22-2.36-1.78-4.74-1.69-7.38,.12-3.3,.04-6.61,.05-9.91Z"/><path class="cls-81" d="M456.27,733.09c0,.46,0,.92-.01,1.38,.26,.26,.5,.56,.79,.79,0,0-.02-.02-.02-.02,.9,5.4,.51,10.91,1.34,16.33,.43,2.8,.08,5.73-.32,8.64-1.43-2.26-1.72-4.76-1.93-7.69-1.6,1.63-1.73,3.51-2.48,5.06-2.7,5.52-6.1,10.62-9.07,15.98-1.42,2.57-2.91,5.1-3.81,7.92-.29,.89-.25,1.49,.85,1.56-1.33,1.28-2.91,2.06-4.76,2.25,1.29-1.61,1.55-3.68,2.23-5.53,2.56-6.87,6.06-13.25,9.68-19.56,2.48-4.33,4.32-8.93,6.48-13.39,1.43-2.93,.39-6.08,.93-9.08-.31-.53-.21-1.21-.59-1.72-.21-1.03-.36-2.05,.12-3.05,.26-.29,.44-.25,.56,.12Z"/><path class="cls-77" d="M572.67,828.52c-2.73,5.45-7.57,7.78-13.24,8.25-4.83,.4-9.72-.08-14.55,.54-4.68,.6-8.68-1.7-12.91-2.95-2.43-.72-4.71-1.94-7.01-3.04-.89-.43-2.23-.53-2.17-2.04,.27-.94,.28-2.18,1.86-1.55,4.33,2.24,8.98,3.75,13.48,5.57,1.65,.67,3.48,.87,5.3,.63,3.7-.48,7.44-.44,11.13-.24,7.16,.39,13.1-1.69,17.41-7.65,1.59,.44,1.11,1.47,.7,2.47Z"/><path class="cls-69" d="M572.08,796.32c.04,2.38,.37,4.8-1.05,6.97-.19,.29-.37,.93-.26,1.01,2.32,1.75,.53,4.78,2.21,6.89,.62,.77-.27,2.75-.47,4.18-.6,.29-1.29,.38-1.83,.81-4.48,3.55-9.38,6.04-15.24,6.17-.82-.2-1.48-.57-1.6-1.51,.39-1.77,2.01-1.77,3.28-2.19,3.15-1.06,6.25-2.18,9.06-4.03,2.32-1.53,3.2-3.34,2.38-6.15-1.13-3.85-.31-7.58,1.49-11.09,.34-.67,.81-1.33,1.73-1.28l.29,.23Z"/><path class="cls-80" d="M499.27,793.09c-.46,.25-.92,.5-1.39,.74-1.16-4.55-1.33-9.1,.3-13.57,.6-1.64,.42-3.28,.5-4.93,1.12-2.28,.95-4.73,.64-7.09-.66-4.96,.48-9.86,.2-14.79-.03-.51,.34-.94,.73-1.28,.16,.19,.47,.37,.47,.56-.04,7.28,.35,14.57-.19,21.85-.22,3,.65,6.07-.27,9.05-.96,3.1-1.08,6.27-.98,9.47Z"/><path class="cls-5" d="M500.24,752.17c-.02,6.1-.05,12.19-.06,18.29,0,1.79,.07,3.59-1.51,4.88,0-2.3-.02-4.6-.03-6.9-.25-.27-.46-.57-.74-.8,0-2.05,0-4.11,0-6.16,.28-.23,.49-.54,.74-.8,.32-3.37-.38-6.65-.77-9.97-.79-.9,.11-2.22-.75-3.11,0-1.03,0-2.06,0-3.09,1.47-.52,.84,1.28,1.65,1.5l-.03-.05c.29,.51,.23,1.14,.57,1.64,.39,.39,.35,.85,.21,1.32,.65,1.01-.19,2.35,.73,3.29v-.03Z"/><path class="cls-83" d="M418.5,480.89c1.2-1.02,1.52-2.39,1.55-3.88,1.56,.01,1.4,1.2,1.42,2.18,.02,.9-.34,1.76-.69,2.57-2.45,5.73-4.16,11.44-.48,17.38,.58,.94,.63,2.21-.05,3.31-.34,.32-.71,.35-1.1,.1l.02,.02c-.29-.51-.21-1.17-.61-1.64-.94-2.07-1.93-4.11-2.82-6.2-.84-1.96-.76-4.03-.14-6,.84-2.65,1.92-5.23,2.9-7.84Z"/><path class="cls-98" d="M570.94,814.79c.52,.19,1.05,.39,1.57,.58-.58,1.67,.35,3.16,.57,4.73,.41,2.83,1,5.68-.42,8.42-.13-.79,.22-1.73-.69-2.29-1.71-3.69-2.11-7.5-1.04-11.44Z"/><path class="cls-78" d="M524.09,827.76c-.44,.51-.87,1.01-1.31,1.52-.13-3.61-.71-7.24,.23-10.83,.36,.02,.71,.03,1.07,.05,1.83,3.08,1.82,6.17,.01,9.26Z"/><path class="cls-94" d="M469.33,248.88c.93-.53,.77-1.44,.79-2.28,.94,2.73,2.55,5.11,3.92,7.61-.69,.36-.8,1.01-.87,1.69-1.56-2.19-3.02-4.43-3.84-7.02Z"/><path class="cls-72" d="M419.16,502.55c.31-.02,.61-.05,.92-.07,2.37,2.71,2.37,4.44,0,7.73,.02,.22,0,.44-.03,.66-1.29-.57-.68-1.73-.75-2.62-.13-1.89-.1-3.8-.14-5.7Z"/><path class="cls-80" d="M498.77,746c-.55-.5-1.1-1-1.65-1.5,0-1.28,0-2.57,0-3.85,.35,.04,.69,.07,1.04,.11-.69,1.85,.5,3.48,.61,5.24Z"/><path class="cls-80" d="M500.25,752.2c-1.22-.88-.73-2.14-.73-3.29,1.08,.91,.71,2.14,.73,3.29Z"/><path class="cls-41" d="M492.42,560.23c-.3-.74-.43-1.46,.32-2.04,.66,.58,.58,1.34,.53,2.09-.29-.01-.57-.03-.86-.04Z"/><path class="cls-80" d="M499.31,747.58c-.59-.41-.66-.99-.57-1.64,.63,.39,.59,1.02,.57,1.64Z"/><path class="cls-97" d="M455.59,736.03c.62,.43,.84,.99,.59,1.72-.33-.53-.78-1.01-.59-1.72Z"/><path class="cls-97" d="M456.27,733.09c-.19-.02-.38-.06-.56-.12-.03-.53-.06-1.05-.09-1.58,.69,.39,.74,1.01,.64,1.7Z"/><path class="cls-72" d="M418.56,500.92c.62,.4,.69,.99,.61,1.64-.7-.37-.55-1.04-.61-1.64Z"/><path class="cls-31" d="M420.07,510.21c.62-2.58,1.35-5.16,0-7.73-.21-2.87-1.24-5.55-2.57-7.98-1.34-2.45-1.39-4.59,.06-6.79,1.66-2.53,1.6-5.65,3.04-8.25,.43-.77,.26-1.77-.54-2.45-.45-2.42-1.56-4.52-3.11-6.4-3.08-3.73-2.56-7.83,1.52-10.46,1.6-1.03,3.17-2.08,4.69-3.22,.25-.18,.48-.18,.71,.04,1.6,6.12,3.84,11.88,8.82,16.17,1.58,1.36,.57,2.5-.44,3.54-2.23,2.3-4.06,4.87-5.64,7.67-.8,1.41-1.12,2.78-1.21,4.34-.27,5.03,.14,9.94,2.4,14.55-.06,.23-.1,.47-.12,.71-.28,.41-.76,.79-.82,1.23-.53,4.05-3.5,4.74-6.78,5.04Z"/><path class="cls-70" d="M506.36,511.7l-.83-.79c1.47-3.82,4.26-6.72,6.84-9.75,.66-.78,1.75-1.05,2.8-.58,1.12,.49,1.34,1.54,1.17,2.56-.32,1.95-.12,4.13-2.08,5.47-.67,.04-1.31,.11-1.69,.78-.33-.21-.68-.68-.45-.88,1.41-1.26,1.17-2.9,1.19-4.5h0c-1.21,.44-1.54,1.6-2.07,2.58-1.16,2.16-2.87,3.78-4.89,5.11Z"/><path class="cls-68" d="M465.52,783.81c-.69,.04-1.3,.23-1.61,.93-2.56,1.19-5.07-.11-7.6-.15-1.73-.82-3.96,.05-5.44-1.62-.48-.89-1.66-.38-2.44-1.31,6-.57,11.62,.15,17.09,2.15Z"/><path class="cls-40" d="M450.88,782.97c1.8,.67,3.82-.25,5.58,.74-1.63,1.98-3.77,.45-5.63,.8-1.82,.15-3.45-1.13-5.31-.71,1.57-1.65,3.61-.31,5.35-.83Z"/><path class="cls-80" d="M497.12,747.59c1.12,.82,.67,2.03,.75,3.11-1.08-.84-.65-2.03-.75-3.11Z"/><path class="cls-80" d="M497.91,767.63c.25,.27,.49,.53,.74,.8-.25-.27-.49-.54-.74-.8Z"/><path class="cls-80" d="M498.64,760.66c-.25,.27-.49,.54-.74,.8,.25-.27,.49-.54,.74-.8Z"/><path class="cls-37" d="M511.02,414.57c-.16-5.27,.97-10.4,1.63-15.59,.87-6.83,3.06-13.45,2.98-20.41,0-.38-.05-.79,.05-1.15,1.97-7.29,2.24-14.86,3.54-22.27,.8-4.59,.55-9.42-.18-14.16-1.1-7.08-.99-14.13,.74-21.2,1.61-6.55,3.51-13.25,2.65-20.03-.64-5.02,.79-9.23,2.63-13.59,.94-2.24,1.49-4.64,2.4-6.89,.87-2.14-.17-4.08-.56-5.98-.74-3.58-.34-7.08-.36-11.12,4.3,1.94,8.23,3.75,11.9,6.05,1.5,.94,3.28,1.48,4.45,2.97,2.94,3.74,2.87,9.93-.32,13.52-2.96,3.34-6.1,6.53-9.04,9.89-2.7,3.09-4.81,6.52-5.3,10.72,1.45,.62,1.79-.43,2.11-1.16,2.75-6.39,7.95-10.93,12.13-16.25,1.22-1.55,2.56-1.55,4.36-1.14,6.44,1.44,12.07,4.85,18.12,7.24,2.97,1.17,5.7,2.92,8.76,3.95,4.75,1.6,6.55,5.89,8.68,9.81,.6,1.11,1.03,2.32,1.77,3.37,2.57,3.65,2.28,8.05,3.08,12.14,1.28,6.52,2.84,12.97,4.59,19.37,.91,3.32,1.27,6.79,2.91,9.92,.38,.73,.31,1.76,.29,2.64-.09,4.11,.13,8.14,1.26,12.17,.71,2.55,.59,5.34-.12,8-.3,1.11-.87,2.25-.8,3.34,.38,5.98-4.89,6.8-8.33,9.29-.58,.42-1.23-.13-1.84-.18-1.63-.13-3.27-.17-4.97,.15,4.83,4.92,11.39,3.59,17.53,5.39-1.46-3.57-4.68-2.97-7.1-4.27,2.12-2.18,5.02-3.08,6.35-5.97,1.15,1.47,2.22,2.58,3,3.86,1.97,3.24,.98,6.47-.55,9.48-2.1,4.13-2.64,8.68-3.88,13.06,3.56-2.91,3.22-7.65,5.44-11.59,.87,3.28,2.11,6.21,2.32,9.2,.3,4.46-.26,8.94-3.62,12.46-1.85,1.94-3.05,4.3-4.32,6.67,2.74-1.39,4.31-4,6.47-6.23,1.15,.94,1.31,2.07,1.14,3.17-.33,2.14-.73,4.29-1.29,6.38-.41,1.55-1.25,2.74-3.17,2.86-1.1,.07-2.23,.47-2.96,1.73,1.74,1.09,3.47-.07,5.3,.1,.63,2.73,.29,5.56,.99,8.29,.37,1.46,.49,3.05,1.05,4.46,1.03,2.62,.66,5-.76,7.34-.79,1.31-1.47,2.68-2.18,4.03-1.58,3-3.28,5.67-6.81,7.3-3.74,1.73-7.63,3.51-10.82,6.41-1.83,1.67-4.58,1.4-6.86,2.22-3.23,1.16-5.47,3.27-7.56,5.69-1.25,1.45-2.37,3.03-3.33,4.68-2.27,3.88-5.96,6.2-9.14,8.97-1.09-.45-1.54-1.22-2.05-1.97-3.42-5.05-7.56-9.35-12.85-12.47-.99-.59-1.96-1.23-2.86-1.95-1.43-1.15-1.96-3.2-1.01-4.69,1.51-2.37,3.19-4.63,4.82-6.93,.48-.68,1.23-.82,2-.99,1.36-.29,2.7-.7,4.02-1.06-.04-.35,.01-.74-.1-.79-2.7-1.39-3.13-2.78-1.61-5.26,.93-1.52,2.36-2.25,3.96-2.86,2.25-.86,3.84-2.4,4.56-4.8,.96-3.23,2.31-6.24,4.99-8.5,.99-.84,1.74-2.05,1.71-3.35-.05-2.66,1.01-5.02,1.81-7.43,.66-1.96,.62-3.42-.82-5.23-3.54-4.43-3.37-9.49-1.22-14.48,.6-1.39,1.44-2.64,1.52-4.19-1.34-.7-1.25,1.08-2.35,1.08-1.28-1.52-1.45-3.66-1.71-5.52-.61-4.32-2.28-8.16-4.69-11.63-2.23-3.21-2.94-6.76-3.22-10.47-.13-1.67-.16-3.31-1.21-5-.76,1.34-.1,2.73-.53,4.05-.44,.58-1.31-1.45-1.56,.07-.11,.68,.35,1.48,.62,2.19,.27,.72,.92,1.43,.88,2.11-.26,4.17,1.57,7.99,1.92,12.08,.37,4.34,1.03,8.7,.54,13.01-.51,4.54-.41,9.08-.65,13.61-.28,5.44,1.11,10.65,2.37,15.85,.53,2.16,.87,4.3,.65,6.45-.34,3.3-1.42,6.06-5.07,7.37-3.88,1.39-5.72,4.49-5.39,8.7,.02,.25,.19,.51,.15,.74-.23,1.48-6.43,7.79-7.97,7.86-5.49,.25-10.82,2.11-16.37,1.57-1.72-3.11-1.7-6.64-2.31-9.99-1.28-7.06-3.01-14.11-3.64-21.18-.65-7.19-3.22-14.33-1.42-21.71,.25-1.04,.36-2.3-.32-3.37Z"/><path class="cls-35" d="M518.83,300.63c-2.61,8.66-4.31,17.53-5.44,26.48-.87,6.86-.36,13.77,.46,20.66,.37,3.11-.19,6.36-.6,9.52-1.41,10.83-2.44,21.71-5.1,32.37-1.85,7.4-3.21,14.99-3.09,22.67,.08,4.83,.27,9.72,1.44,14.46,2.68,10.76,4.08,21.77,6.46,32.59,.71,3.21,.88,6.55,1.57,9.8,.49,2.29-.04,2.71-2.38,3.26-4.47,1.04-8.95,2.09-13.36,3.37-5.56,1.61-11.18,2.76-16.97,2.54-6-.24-12-.72-17.99-1.21-3.2-.26-6.3-1.36-9.18-2.57-4.76-1.98-9.67-3.27-14.66-4.31-1.62-.34-2.16-.91-2.2-2.45-.09-3.87,.32-7.67,1.67-11.29,1.51-4.07,3.1-8.13,4.89-12.09,2.62-5.83,3.65-11.96,3.6-18.26-.1-12.81,1.17-25.47,3.3-38.08,.42-2.51,.39-5.11,.42-7.67,.06-5.39-.16-10.8,.06-16.18,.35-8.74,1.62-17.38,5.66-25.23,2.96-5.76,5.56-11.67,8.44-17.45,.66-1.32,1.47-2.66,2.74-3.61,5.26-3.94,9.74-8.41,9.83-15.97,3.19,2.19,5.47,4.57,8.75,5.64,11.14,3.63,20.83,1.3,29.35-6.55,.47-.43,.97-.84,1.45-1.26,.73-.17,1.12,.02,.86,.85Z"/><path class="cls-37" d="M440.1,440.06c-.06,2.48-1.09,4.76-1.83,7.03-1.39,4.24-3.13,8.35-4.24,12.7-.69,2.69-1.07,2.75-3.42,1.74-5.05-2.16-6.34-4.9-5.03-11.46,1.4-7.01,2.99-13.97,4.51-20.95,.08-.37,.09-.91,.33-1.08,2.78-1.91,1.64-4.8,1.98-7.35,1.27-9.73,.66-19.58,2.7-29.32,1.58-7.55,2-15.47,.49-23.27-.24-1.24-.09-2.56-.13-3.84-.21-6.48-.77-12.93-1.77-19.27-1.24-.13-1.33,.57-1.3,1.18,.14,3.57-.42,7.15,.54,10.72,.45,1.69,.16,3.57,.21,5.37,.24,.2,.3,.37,.19,.52-.1,.13-.2,.2-.3,.2-1.65-4.09-2.63-8.44-4.86-12.34-.93,3.89,.67,7.4,1.68,10.93,.47,1.67,1.08,3.41,2.24,4.86,.63,.79,.88,1.8,1.04,2.85,1.19,7.54,.75,15.02-.78,22.45-1.41,6.82-1.68,13.7-1.54,20.62,.06,2.81-.26,5.48-1.21,8.26-1.55,4.58-2.39,9.41-4.01,14.01-.54,1.52,.35,3.35-1.14,5.18-1.05-2.17-1.75-4.4-3.91-5.45-.17,2.52-.17,2.51-2.61,2.02-.49-.1-1.01-.09-1.52-.1-.11,0-.22,.12-.51,.28,.68,1.61,2.74,1.74,3.66,3.46-3.92,1.3-8.18,1.82-11.35,4.76,.65,1.09,1.52,.73,2.09,.45,3.08-1.51,6.5-1.32,9.75-1.98,3.38-.69,4.45,.71,3.77,4.07-.33,1.61-1.43,1.77-2.79,2.06-4.32,.92-7.66,3.41-10.06,7.08-1.56,2.37-1.27,8.58,.35,10.58,.26,.33,.6,.47,.96,.11,.74-.73,1.33-.14,1.37,.44,.22,3.21,2.46,5.46,4.21,8.62-3.65-.88-6.84-1.31-9.49-3.1-3.7-2.51-4.71-6.56-5.23-10.67-.27-2.14,.04-4.29,.57-6.46,.97-3.96,1.48-8.02,2.34-12.01,.26-1.21-.54-3.29,2.1-3.16,.61,.03,.23-1.1,.31-1.69,.39-2.92-.34-5.8-.19-8.75,.25-5.07,1.53-9.85,3.1-14.56,1.05-3.15,1.94-6.06,1.08-9.51-.6-2.42-.12-5.11-.11-7.68,0-.51-.15-1.24,.13-1.5,2.61-2.51,1.17-5.41,.48-7.92-1.41-5.15-.17-9.88,1.35-14.66,.58-1.82,.99-3.78,1.97-5.36,.67-1.09-.21-3.77,2.68-3.13,.48,.11,.27-.84,.31-1.31,.35-3.49-.68-6.87-1.05-10.29-.19-1.77-.43-3.54-.5-5.33-.12-3.06-.48-6.15-.57-9.17-.2-6.74,.07-13.59,2.87-19.94,.64-1.46,.8-3.43,3.24-3.73,.96-.12,1.25-1.93,1.26-2.98,.05-6.64,4.47-9.67,9.74-11.93,4.11-1.76,8.35-3.22,12.47-4.95,2.48-1.04,4.82-2.39,7.07-3.88,1.68-1.11,2.41-.84,2.37,1.06-.06,3.41,1.5,6.47,1.77,9.8,.09,1.05,.51,2.22,1.94,2.89,.41-1.97,.4-3.71-.07-5.43-.98-3.58-1.62-7.22-2.05-10.9-.26-2.19-2.2-3.88-4.45-4-.51-.03-1.36,.04-1.26,.52,.32,1.59-1.11,2.42-1.34,3.72,0,.05,.65,.22,1,.33,.34-.33,.57-.25,.72,.18-.54,.33-1.06,.71-1.63,.99-3.33,1.65-3.1,1.46-3.92-2.05-.92-3.95,.19-7.19,1.85-10.58,2.75-5.6,11.75-7.7,16.01-6.89,2.19,.42,4.04,1.49,5.3,3.48,1.44,2.26,2.94,4.5,4.57,6.62,1.17,1.53,1.09,3.15,.62,4.74-.46,1.55-.42,2.94-.07,4.51,.72,3.15,.28,6.38,.37,9.58,.04,1.63-1.17,2.5-2.17,3.47-4.48,4.38-8.93,8.76-12.52,13.96-.97,1.41-1.54,2.91-2.29,4.38,.45,4.55-2.16,8.16-4.19,11.71-4.98,8.68-6.74,18.12-7.61,27.84-.2,2.25,.5,4.54,.56,6.85,.44,15.8-1.81,31.35-4.24,46.88-.78,4.97-.1,9.98-.45,14.95-.23,3.14-.03,6.45-2.54,8.96Z"/><path class="cls-31" d="M521.38,257.14c1.36,6.2,2.01,12.28,2.7,18.35,.34,3.01-.3,5.85-1.46,8.6-.3,.72-.69,1.34-1.41,1.75-4.02,2.26-7.42,5.42-11.45,7.71-6.97,3.96-14.21,4.7-21.82,2.69-2.35-.62-4.67-1.37-6.95-2.21-3.37-1.24-3.85-2.82-2.51-6.12,1.24-3.05,3.07-5.89,3.35-9.29,.38-4.58,.29-9.11-1.22-13.51-.44-1.29-1.05-2.56-1.1-4.01,1.82-.19,2.77,1.03,3.91,1.74,2.5,1.55,4.99,3.1,7.56,4.55,5.45,3.05,10.88,3.35,16.51,.67,.46-.22,.95-.48,1.44-.51,5.28-.27,8.18-3.7,10.58-7.85,.49-.85,.63-1.97,1.88-2.54Z"/><path class="cls-31" d="M514.26,508.6c.42-1.97,.88-3.93,1.23-5.91,.08-.44-.05-1.1-.35-1.4-.49-.49-1.19-.31-1.73,.09-.92,.67-1.94,1.29-2.39,2.39-1.17,2.9-3.35,5-5.49,7.14-3.15,.65-5.5-.5-7.36-3.45,2.99-3.27,5.22-7.35,9.24-9.82,1.7-1.05,2.82-2.64,3.77-4.3,3.38-5.93,8.29-9.85,14.79-11.96,1.9-.62,3.74-1.55,5.3-3.02,1.75-1.63,2.1-1.5,3.88,.57,.95,1.11,2.2,1.76,3.33,2.58,4.7,3.43,8.64,7.59,12.14,12.21,1.12,1.48,1.52,2.79,.61,4.57-1.5,2.93-1.01,6.53-3.22,9.36-.56,.71,.2,2.58-.13,3.91-.37,1.51-1.12,2.39-2.89,2.46-3.86,.16-7.66,.26-11.41-1.01-3.51-1.19-7.16-1.89-10.88-2.1-2.98-.17-5.66-1.48-8.46-2.32Z"/><path class="cls-17" d="M479.09,295.9c15.1,8.62,28.46,4.57,41.02-5.68,.56,3.55-.29,5.92-3.25,7.57-1.86,1.04-3.3,2.81-5.12,3.95-5.08,3.17-10.71,4.75-16.66,4.97-3.1,.12-6.01-.96-8.78-2.31-1.49-.72-2.85-1.73-4.38-2.33-2.8-1.1-4.11-2.82-2.83-6.17Z"/><path class="cls-76" d="M440.1,440.06c1.06-4.23,1.75-8.49,1.54-12.89-.34-7.06,.9-13.96,1.92-20.92,.83-5.64,1.57-11.35,2.02-17.08,.5-6.4,.62-12.78,.62-19.17,0-2.04,.26-4.09-.54-6.09-.63-1.55,.51-2.97,.57-4.51,.3-8.01,2.14-15.58,6-22.71,2.41-4.44,4.6-9.03,6.34-13.8,.3,.27,.61,.55,.91,.82,1.53,3.01-1.21,4.97-1.82,7.46-.46,.79-.93,1.59-1.16,2.49-1.29,1.78-2.25,3.73-3.01,5.8-1.06,2.77-1.92,5.61-3,8.38-1.52,5.47-2,11.13-1.85,16.7,.39,13.84-1.1,27.52-2.54,41.23-1.81,6.36-1.52,12.93-1.64,19.42-.05,2.57-.09,5.09-.53,7.61-.59,3.14-1.11,6.3-2.05,9.37-.29,.43-.64,.49-1.06,.19-.05-.82,.14-1.72-.74-2.27Z"/><path class="cls-13" d="M445.45,406.06c.56-6.43,1.03-12.87,1.77-19.27,.16-1.38,.37-2.76,.38-4.15,.02-6.89-.15-13.79,.06-20.68,.15-5.15,.4-10.34,2.42-15.22,1.88,.3,1,1.57,.91,2.57-.49,4.66-.99,9.32-1.45,13.98-.12,1.27-.18,2.56-.13,3.83,.45,11.87-.38,23.67-2.39,35.37-.25,1.48,.31,3.09-.65,4.46-.77,.19-1.15-.02-.91-.88Z"/><path class="cls-66" d="M511.02,414.57c1.14,1.03,.75,2.39,.72,3.63-.08,4.5,.45,8.9,1.36,13.31,.72,3.48-.01,7.13,.97,10.67,2.19,7.87,2.3,16.15,4.45,24.04,.39,1.44,.14,3.06,.19,4.6-.03,1.09-.06,2.18-.09,3.27-.83,.07-1-.48-1.05-1.12-.14-.13,.28-.49-.2-.49,0,0-.3,.06-.3,.06l-.26-.16c-.81-1.17-.38-2.5-.45-3.76,.7-.78,.32-1.73,.42-2.6-.43-1.73-.7-3.51-1.2-5.23l.03,.07c-.97-2.08,.19-4.38-.67-6.47-.61-1.69-.77-3.49-1.18-5.23-.02-.07-.22-.15-.32-.13-.1,.02-.17,.17-.25,.26-1.11-1.14-.54-2.56-.66-3.87,.45-.4,.39-.94,.4-1.46-.12-2.33-1.36-4.38-1.59-6.68-.4-1.03-.25-2.16-.55-3.22-.12-.37-.18-.74-.18-1.12-.03-1.19,.08-2.39-.1-3.58-.06-3.37-2.57-6.63-.45-10.09,1.62-1.3,.64-3.13,.95-4.7Z"/><path class="cls-10" d="M510.07,419.27c.24,3.58,.49,7.16,.73,10.75-.16,0-.32,0-.48,0-1.86-3.96-2.15-8.23-2.47-12.49-.77-10.23,1.04-20.19,3.4-30.08,.05-.23,.3-.41,.46-.61,.19-.28,.44-.37,.77-.29,.1,.12,.2,.24,.29,.35-1.05,6.63-2.06,13.26-3.16,19.88-.7,4.2-.32,8.34,.46,12.47Z"/><path class="cls-96" d="M519.72,473.75c4.96,.36,9.79,.45,14.66-2.23-.42,2.82-1.5,4.53-3.9,5.35-2.65,.91-5.29,1.85-7.91,2.84-1.4,.53-2.42,.28-2.26-1.36,.14-1.55-.89-2.91-.58-4.6Z"/><path class="cls-37" d="M412.77,465.07c-2.65-4.47-2.1-5.43,1.11-8.4,1.87-1.74,4.22-2.84,6.48-3.98,1.04-.52,2.27-.71,2.75,.93,.27,.91,.53,1.69-.83,1.98-5.09,1.09-7.98,4.53-9.5,9.48Z"/><path class="cls-52" d="M445.45,406.06c.3,.29,.61,.59,.91,.88-.53,7.72-1.24,15.43-1.08,23.19,.04,2.1-.27,4.25-1.29,6.18-1.24-.84-.39-2.18-.78-3.22,.28-8.59,.34-17.18,1.55-25.71,.08-.53,.28-.97,.68-1.32Z"/><path class="cls-21" d="M515.7,358.33c0-2.4-.16-4.76,.46-7.18,.45-1.78,.21-3.72-.34-5.63-.44-1.54-.16-3.28-.2-4.93,.29-.42,.62-.45,.97-.07,1.65,5.95,2.12,11.89-.18,17.8-.23,.36-.47,.34-.71,.01Z"/><path class="cls-18" d="M438.74,474.4c-4.18,.35-5.72-1.13-5.38-4.46,.23-2.19,.66-4.38,1.91-6.84,.62,4.02-.6,8.06,3.47,11.3Z"/><path class="cls-52" d="M456.94,331.31c.82-2.55,2.28-4.89,2.55-7.62,1.19-1.19,1.46-3.03,2.86-4.08,.5,.11,.57,.58,.79,.93-1.12,3.75-2.82,7.25-4.6,10.72-.2,.26-.47,.42-.8,.46-.34,0-.6-.13-.8-.4Z"/><path class="cls-103" d="M432.23,471.08c-2.24-2.89-3.88-5.04-4.41-7.67,.3-.5,.59-.61,.76-.37,1.08,1.53,4.13-.16,4.28,2.2,.1,1.51-.48,3.22-.63,5.84Z"/><path class="cls-55" d="M450.99,349.31c-.25-.87,.09-1.96-.91-2.57,.65-2.73,1.77-5.27,3.16-7.69,.34-.24,.66-.23,.97,.06-.78,3.49-2.06,6.82-3.21,10.2Z"/><path class="cls-63" d="M515.65,337.51c-.44-.44-.94-.84-.72-1.57,.54-1.77,.45-3.55,.04-5.33,.71-1.88,.2-3.89,.62-5.81,.15-.71,0-1.5,.77-1.95,.24-.37,.47-.37,.71,0-.94,4.85-.81,9.77-.85,14.67-.2,.34-.39,.32-.58-.01Z"/><path class="cls-53" d="M443.21,433.1c1.08,.87,.59,2.13,.78,3.22,.37,2.25-1.12,3.98-1.67,5.97-.26,.35-.54,.35-.84,.04,.44-3.1,.81-6.22,1.72-9.23Z"/><path class="cls-28" d="M517.81,472.35c.27,.58,.54,1.16,.81,1.74,.01,.99,.03,1.98,.04,2.97-.9,1.48,.18,3.26-.72,4.73-1.42,.34-.75-.83-.78-1.24-.22-2.72,.27-5.47-.34-8.18,0,0,.23-.13,.23-.13l.21,.17c.14-.33,.32-.37,.54-.07Z"/><path class="cls-61" d="M511.8,385.31c.29-1.95,.58-3.89,.87-5.84,.56,2.51,.87,4.98,.11,7.44,0,0-.25,.02-.25,.02l-.23-.1c-.17-.5-.04-1.1-.49-1.51Z"/><path class="cls-49" d="M454.2,339.12c-.32-.02-.64-.04-.97-.06,.59-1.98,1.22-3.94,2.73-5.46,.32-.36,.63-.35,.93,.03-.62,1.97-1.46,3.83-2.69,5.49Z"/><path class="cls-39" d="M511.64,436.85c.59,2.6,1.88,5.06,1.58,7.85l-.3,.21-.3-.22c-.62-2.61-1.24-5.21-1.86-7.82,.15-.07,.29-.14,.44-.22,.15,.06,.3,.13,.44,.19Z"/><path class="cls-33" d="M469.38,312.87c-1.24,1.81-2.76,3.36-4.57,4.61-.21,.25-.42,.25-.63,.01,1.1-2.41,3.06-4.03,5.11-5.57,.42,.28,.46,.59,.1,.95Z"/><path class="cls-30" d="M513.2,449.29c.12-.58-.22-1.24,.48-1.96,.79,2.19,1.05,4.35,1.33,6.51,.23,.41,.17,.77-.18,1.09-1.22-1.68-1.23-3.71-1.63-5.63Z"/><path class="cls-36" d="M513.36,376.08c-.33-2.17,.2-4.21,.84-6.25,.2-.29,.39-.3,.57,.02,.54,2.18-.49,4.16-.76,6.24-.22,.31-.44,.32-.65,0Z"/><path class="cls-51" d="M469.38,312.87l-.1-.95c1.08-1.53,2.47-2.77,3.91-3.95,.38,.34,.41,.7,.09,1.1-.95,1.63-2.04,3.11-3.9,3.81Z"/><path class="cls-46" d="M518.02,315.38c.08,1.78,.55,3.61-.76,5.18-.21,.35-.44,.33-.67,.02,.62-2.05,.09-4.34,1.32-6.26,.34,.32,.38,.67,.1,1.06Z"/><path class="cls-91" d="M514.83,454.93c.06-.36,.12-.72,.18-1.09,1.37,2.24,.25,4.7,.61,7.02-1.27-1.84-.85-3.91-.79-5.94Z"/><path class="cls-86" d="M515.59,460.8c1.01,1.7,1.29,3.6,1.47,5.52-.21,.27-.4,.28-.59-.02-.96-1.72-.91-3.61-.88-5.5Z"/><path class="cls-56" d="M516.38,359.85c.13,1.18,0,2.27-.95,3.12h-.37c.3-1.31-.19-2.72,.45-3.99,.49,.08,.57,.59,.86,.87Z"/><path class="cls-42" d="M518.78,309.01c-.47-1.65,.78-3.03,.72-4.61,.74-.22,1.06,.05,.95,.82-.49,1.23,.23,2.8-1.05,3.8-.21,.33-.41,.33-.61,0Z"/><path class="cls-4" d="M514.97,330.61c.84,1.78,.9,3.56-.04,5.33-.2-1.78-.27-3.56,.04-5.33Z"/><path class="cls-89" d="M518.83,300.63c-.29-.28-.57-.57-.86-.85,.32-.97,.9-1.69,1.99-1.99,.42,1.29-.29,2.09-1.13,2.84Z"/><path class="cls-27" d="M517.95,481.8c.24-1.58-.85-3.36,.72-4.73-.23,1.58,.97,3.38-.72,4.73Z"/><path class="cls-47" d="M518.78,309.01c.2,.02,.41,.02,.61,0,0,1.06,.66,2.26-.59,3.09-.23,.34-.44,.34-.65-.02,.21-1.02,.42-2.05,.63-3.07Z"/><path class="cls-3" d="M510.32,430.02c.16,.03,.32,.03,.48,0,.76,1.26-.28,2.62,.23,3.89-.37,.26-.6,.15-.71-.27,.57-1.21-.69-2.41,0-3.62Z"/><path class="cls-9" d="M456.89,333.62c-.31,0-.62-.02-.93-.03,.28-.79,.2-1.72,.98-2.29,.34,.03,.68,.06,1.01,.08,.18,.23,.2,.46,.05,.71-.37,.51-.74,1.02-1.11,1.52Z"/><path class="cls-44" d="M515.07,362.97s.37,0,.37,0c.35,.98,.37,1.93-.18,2.94-.7-1.02-.61-1.97-.19-2.94Z"/><path class="cls-62" d="M514.77,369.85l-.28-.03h-.28c-.14-.86-.42-1.74,.4-2.7,.75,.94,.57,1.82,.16,2.73Z"/><path class="cls-88" d="M441.49,442.33l.84-.04c-.03,.12-.04,.25-.1,.35-.3,.51-.45,1.44-1.04,1.31-.52-.12-.37-1.03-.34-1.62,.22-.07,.43-.07,.65,0Z"/><path class="cls-32" d="M452.44,290.66c-.22-.14-.46-.2-.72-.18,.05-.57,.47-.81,.92-.97,.38-.14,.84-.79,1.18-.1,.23,.48-.23,.85-.69,1.05-.22,.09-.46,.14-.69,.21Z"/><path class="cls-66" d="M510.32,433.64c.26,.04,.49,.13,.71,.27,0,0-.07-.1-.07-.1,.68,.99,.41,2.06,.23,3.12l-.2-.19s-.23,.14-.23,.14c-.86-.98-.51-2.13-.44-3.24Z"/><path class="cls-26" d="M515.65,337.51c.19,.04,.38,.04,.58,.01,.6,.94,.35,1.99,.36,3-.32,.02-.64,.05-.97,.07-.34-1.03-.34-2.06,.03-3.08Z"/><path class="cls-104" d="M520.44,305.21c-.12-.5-.4-.81-.95-.82,.21-.6,.59-1.5,1.17-1.13,.69,.44,.45,1.36-.23,1.95Z"/><path class="cls-50" d="M518.15,312.08c.22,.02,.43,.03,.65,.02-.27,1.09,.61,2.46-.78,3.28-.03-.35-.07-.7-.1-1.06,.08-.75,.16-1.5,.23-2.25Z"/><path class="cls-57" d="M463.14,320.54c-.26-.31-.53-.62-.79-.93,.24-.78,.66-1.37,1.53-1.52,.1,.09,.2,.17,.3,.26,.11,.95-.4,1.6-1.03,2.19Z"/><path class="cls-8" d="M516.59,320.59c.22,.06,.45,.05,.67-.02-.06,.76-.12,1.52-.18,2.28h-.36s-.36,0-.36,0c-.02-.77-.2-1.55,.23-2.27Z"/><path class="cls-14" d="M516.47,466.29c.2,0,.39,0,.59,.02,0,.84,.69,1.88-.69,2.31,.03-.78,.07-1.55,.1-2.33Z"/><path class="cls-87" d="M433.03,362.96c.07-.23,.11-.47,.11-.72,.68-.02,.9,.41,.63,.91-.26,.48-.54,.1-.74-.19Z"/><path class="cls-45" d="M513.36,376.08c.22-.05,.44-.05,.65,0,.12,.42,0,.96-.35,.95-.34,0-.46-.54-.31-.96Z"/><path class="cls-1" d="M511.8,385.31c.65,.35,.65,.9,.49,1.51,0,0-.29,0-.29,0l-.29,.02c-.17-.52-.19-1.04,.09-1.53Z"/><path class="cls-2" d="M516.38,359.85c-.29-.29-.58-.58-.86-.87-.07-.25,0-.47,.18-.65,.24,.02,.47,.01,.71-.01,.21,.52,.22,1.03-.03,1.53Z"/><path class="cls-43" d="M473.28,309.06c-.03-.37-.06-.73-.09-1.1,.15-.35,.51-.54,.69-.22,.34,.6,0,1.06-.6,1.31Z"/><path class="cls-48" d="M464.17,317.49c.21,.04,.42,.03,.63-.01,.05,.48-.13,.79-.64,.86-.18,.01-.28-.07-.3-.25-.08-.29,.02-.49,.3-.59Z"/><path class="cls-37" d="M423.85,456.97c-.24,0-.47-.01-.71-.04,.26-.43,.5-.38,.71,.04Z"/><path class="cls-59" d="M512.62,444.69c.2-.04,.4-.04,.6,0,.07,.52-.13,.79-.68,.72-.04-.25-.01-.49,.08-.73Z"/><path class="cls-76" d="M458,332.1c0-.24-.02-.48-.05-.71,.2-.03,.39-.08,.59-.14,0,.39-.18,.68-.54,.85Z"/><path class="cls-6" d="M498.35,215.68c-1.36,.01-2.09-.3-2.44-1.05-.39-.84,.18-1.49,.76-2,2.77-2.42,6.12-3.75,9.61-4.54,2.83-.64,5.78-1.04,8.7-.14,.24,.07,.51,.04,.76,.1,1.56,.38,3.31,1.1,3.22,2.75-.09,1.61-1.92,1.68-3.39,1.8-5.11,.4-10.04,1.89-15.09,2.66-.88,.13-1.75,.34-2.13,.41Z"/><path class="cls-82" d="M467.04,224.18c1.96-5.54,6.28-8.11,11.73-9,2.63-.43,5.35-.39,7.99,.13,.95,.19,2.24,.54,2.33,1.68,.1,1.27-1.25,1.46-2.18,1.7-1.97,.5-3.96,.92-5.96,1.25-3.72,.61-6.86,2.54-10.13,4.21-.33,.43-.8,.41-1.26,.39-.67-.44-1.39-.26-2.11-.16-.14-.07-.27-.14-.4-.21Z"/><path class="cls-92" d="M509.62,215.77c1.71-.28,3.33,.14,4.9,.71,2.11,.76,2.42,2.14,.81,3.7-.45,.44-1.05,.72-1.58,1.07-3.05,2.06-6.65,2.59-10.07,3.62-1.45,.44-2.8,.02-3.72-1.33-.84-1.24-.49-2.43,.12-3.62,.91-1.79,2.11-3.14,4.25-3.51,1.76-.3,3.47-.94,5.29-.64Z"/><path class="cls-109" d="M476.71,232.56c-.38,0-.77,.05-1.15,0-1.64-.27-3.64-.54-4.2-2.1-.49-1.38,1.39-2.19,2.33-3.17,1.84-1.91,4.22-2.81,6.65-3.59,.71-.23,1.54-.37,2.25-.23,1.76,.33,3.66,.86,4.39,2.6,.88,2.11-1.29,2.93-2.49,3.76-2.29,1.59-4.91,2.66-7.79,2.75Z"/><path class="cls-67" d="M514.01,246.56c-.16,6.1-5.1,10.33-10.69,11.37-5.72,1.07-10.96-.16-14.67-5.22-.2-.74,.25-1.01,.85-1.17,2.05,.02,3.47,1.46,5.13,2.33,5.56,2.91,11.8,1.36,15.37-3.84,.91-1.33,1.27-3.11,2.99-3.81,.39-.04,.73,.08,1.03,.34Z"/><path class="cls-95" d="M489.53,251.9c-.29,.27-.58,.53-.88,.8-1.52-.66-2.13-2.08-2.74-3.42-1.27-.29-1.13,1.34-2.37,1.41,.17-2.46,2.02-3.76,3.79-5.88-.15,1.91-.18,2.91,1.84,3.43,4.79,1.24,9.01-.4,13.39-1.57,.63,.21,1.01,.58,.84,1.31-3.71,3.15-7.98,4.04-12.63,2.81-1.37-.36-1.68-.23-1.24,1.11Z"/><path class="cls-65" d="M503.32,247.35c-.25-.23-.51-.46-.76-.68,2.84-1.71,5.58-3.6,8.54-5.07,1.56-.77,.47-1.61,.58-2.55,2.12,.55,3.95,1.57,6.25,3.03-2.96,.47-3.54,2.4-3.92,4.47-.24,0-.48,0-.72-.01-.73-.67-.82-1.51-.64-2.42,.24-.59,.54-1.15,.83-1.71-.08-.25,.59-.13,.27-.51-.48,.59-.78,1.29-1.24,1.9-2.95,1.47-5.26,4.62-9.19,3.55Z"/><path class="cls-100" d="M499.16,234.31c-2.59-4.64-4.5-9.46-4.03-14.93,2.37,4.69,2.59,9.98,4.03,14.93Z"/><path class="cls-101" d="M501.57,235.78c1.5,3.78,1.22,4.61-1.62,5.94-2.74,1.28-3.9,.82-5.55-2.22,4.67,1.78,5.85,1.29,7.17-3.72Z"/><path class="cls-38" d="M490.34,223.37c1.51,1.01,1.82,2.68,2.37,4.24,.87,2.48,1.82,4.93,2.4,7.54-2.8-3.47-4.06-7.66-5.57-11.73,.25-.38,.52-.41,.81-.05Z"/><path class="cls-99" d="M469.3,224.19c.5-.01,1.01-.03,1.51-.04-.61,.98-1.69,1.39-2.56,2.05-.52,.39-1.24,.41-1.66-.15-.53-.71-.26-1.38,.45-1.87,0,0,.01,0,.01,0,.74,.79,1.51-.58,2.25,.02Z"/><path class="cls-102" d="M490.34,223.37c-.27,.02-.54,.03-.81,.05-.13-.22-.28-.43-.37-.66-.18-.44-.59-1,.05-1.29,.59-.27,.85,.25,.95,.78,.07,.37,.12,.75,.19,1.12Z"/><path class="cls-79" d="M466.41,242.69c.23,.27,.52,.52,.66,.83,.18,.4,.58,.92-.03,1.23-.2,.1-.67-.17-.93-.39-.26-.22-.41-.58-.61-.88,.3-.26,.6-.53,.9-.79Z"/><path class="cls-79" d="M466.3,240.42c-.02,.53-.05,1.05-.07,1.58-.64-.56-.95-1.1,.07-1.58Z"/><path class="cls-79" d="M469.26,245.02c-.2-.29-.4-.59-.6-.88,.2,.29,.4,.59,.6,.88Z"/><path class="cls-79" d="M468.52,243.48c-.22-.29-.43-.57-.65-.86,.22,.29,.43,.57,.65,.86Z"/><path class="cls-79" d="M467.7,241.94c-.21-.27-.42-.54-.63-.81,.21,.27,.42,.54,.63,.81Z"/><path class="cls-20" d="M458.75,791.63c1.45-.19,2.74-.9,3.81-1.74,2.28-1.79,4.86-1.54,6.85-.33,3.03,1.84,6.27,1.98,9.53,2.44,.64,.09,1.26,.07,1.79,.48,4.29,3.28,9.19,4.83,14.55,5.14,1.72,.1,2.22,1.45,1.03,2.94-.65,.82-2.13,1.24-.32,2.31-.97,.94-2.32,1.02-3.46,1.58-1.03,.51-2.07,1.03-3.15,1.41-7.13,2.47-14.36,3.24-21.89,1.99-4.64-.77-9.38-1.25-14.12-.97-7.29,.43-14.4,2.07-21.49,3.67-3.32,.75-6.48,1.1-9.8,.25-6.43-1.64-12.86-3.27-18.88-6.18-.35-.17-.71-.3-1.05-.47-3.54-1.88-3.65-2.85-.71-5.5,2.02-1.81,4.47-2.97,6.67-4.5,1.39-.97,2.98-.1,4.48-.12,6.61-.09,13.25,.4,19.78-1.04,3.45-.58,5.43,2.36,8.16,3.5,1.86,.78,3.43,2.2,5.27,3.11,.46,.23,.85,.23,.38,.02,0,0,.07-.2,.08-.33-.12-.28-.2-.54-.27-.82-.01-.34,.08-.64,.26-.92,3.95-2.43,8.12-4.39,12.5-5.91Z"/><path class="cls-25" d="M398.06,804.45c6.39,3.79,13.29,5.44,20.1,7.43,5.79,1.69,11.31,1.61,17.14,.16,4.78-1.19,9.75-1.73,14.61-2.74,4.82-1,9.63-.22,14.44,.54,11.24,1.78,22.1,.33,32.69-4.28,.5,2.4-.57,4.35-1.38,6.29-.83,1.97-2.84,2.01-4.57,2.06-3.43,.09-6.83-.05-10.28-.42-6.48-.71-12.95,.03-19.17,2.27-7.2,2.59-14.64,4.48-22.15,5.63-5.76,.88-11.68,1.45-17.58,1.06-1.36-.09-2.78-.71-4.07,.33-.5,.4-.87-.06-1.32-.3-6.08-3.21-12.18-6.41-18.29-9.56-.93-.48-1.26-1.1-1.25-2.12,0-2.17,.55-4.2,1.1-6.35Z"/><path class="cls-12" d="M450.83,784.51c1.74-1.25,3.81-.15,5.63-.8,2.56-.2,5,.45,7.45,1.03,.28,.25,.56,.49,.83,.74,.28,.16,.38,.34,.31,.53-.07,.2-.15,.3-.24,.3-1.96,2.09-5.16,2.17-7.03,4.39-1.45,1.62-3.08,2.93-5.41,2.94-.39-.1-.71-.32-.94-.65-1.74-3.72-5.27-4.84-8.76-5.98-.59-.19-1.43-.1-1.4-.91,.04-1.11,1.07-.95,1.74-.87,3.56,.41,7,1.27,10.27,2.79,1.1,.51,2.08,1.58,3.51,.99-1.23-2.53-3.65-3.43-5.96-4.48Z"/><path class="cls-93" d="M446.87,799.27c.75,.48,1.46,.98,1.61,2.63-5.86-2.61-10.69-6.32-16.11-8.9,.51-.47,1.02-.94,1.52-1.41,3.98,.22,7.07,2.44,10.21,4.55,.81,.68,1.73,1.26,2.11,2.33h.01c.26,.23,.48,.49,.64,.79Z"/><path class="cls-19" d="M451.43,792.99c.36,.04,.71,.08,1.07,.12-.44,2.44-2.7,2.19-4.3,2.91-.37-.02-.73-.11-1.07-.27-.74-.43-.48-1.33-.9-1.91-2.43-3.11-6.44-3.08-9.77-4.66,.82-.75,1.24-1.26,2.39-1.05,2.66,.49,5.09,1.37,7.45,2.68,1.61,.89,3,2.45,5.13,2.17Z"/><path class="cls-54" d="M446.9,795.34c.34,.04,.69,.08,1.03,.12-.69,2.16-2.27,2.04-3.99,1.57-1.63-1.4-3.61-2.18-5.48-3.17-1.5-.79-3.04-1.52-4.56-2.28-.07-1.62,.65-1.91,1.99-1.21,1.67,.86,3.33,1.72,5.01,2.56,1.23,.61,2.48,1.17,3.72,1.76,.65,.6,1.66-.03,2.28,.66Z"/><path class="cls-84" d="M443.94,797.03c1.56,.05,2.71-.94,3.99-1.57,1.62-.59,3.17-1.32,4.57-2.35,1.94-.42,3.13-2.46,5.28-2.42,.32,.31,.65,.62,.97,.94-3.29,2.89-7.49,4.08-11.27,6.06-.44,.23-.85,.52-1.27,.78-.79-.43-1.72-.65-2.28-1.44Z"/><path class="cls-22" d="M464.81,786.3c-.02-.28-.05-.55-.07-.83,.5,.04,.99,.07,1.49,.11,.55,.04,1.15,.4,1.06,.83-.16,.84-.92,.57-1.49,.39-.35-.11-.66-.34-.99-.51Z"/><path class="cls-29" d="M472.44,786.92c.84-.07,1.45,.29,1.87,1q-1.36,.47-2.74-.13c.08-.5,.59-.58,.87-.88Z"/><path class="cls-84" d="M446.9,795.34c-.85,.09-1.75,.36-2.28-.66,.64-.09,1.26-.2,1.62-.84,.86,.22,.62,.92,.66,1.5Z"/><path class="cls-60" d="M472.44,786.92c-.05,.53-.45,.72-.87,.88-.56-.18-1.34-.04-1.4-.95l-.08,.08c.78-.25,1.56-.33,2.35,0Z"/><path class="cls-58" d="M470.17,786.85c-.5,.2-.96,.18-1.29-.29-.02-.02,.26-.36,.43-.39,.58-.11,.93,.1,.79,.76,0,0,.08-.08,.08-.08Z"/><path class="cls-108" d="M476.92,789.6c-.1,.08-.18,.19-.26,.18-.07,0-.14-.13-.21-.2,.08-.06,.16-.17,.24-.17,.08,0,.15,.12,.23,.19Z"/><path class="cls-90" d="M456.12,655.74c-.09,.19-.18,.37-.28,.56-.08-.09-.23-.19-.21-.25,.06-.2,.17-.38,.27-.57,.07,.09,.15,.17,.22,.26Z"/><path class="cls-97" d="M457.05,735.27c-.26-.26-.53-.53-.79-.79,.26,.26,.53,.53,.79,.79Z"/><path class="cls-20" d="M571.79,796.09c-2.17,2.5-2.26,5.7-2.85,8.7-.35,1.8,.65,3.47,1.12,5.15,.6,2.15-.14,3.13-1.76,4.42-4.21,3.37-9.26,4.67-14.14,6.44-5.75,2.9-11.79,2.46-17.72,1.03-2.41-.58-5.44-.55-6.95-3.31-.42-.86-1.22-1.24-1.98-1.73-2.39-1.54-2.69-3.18-.73-5.2,1.45-1.5,2.69-3.08,3.55-4.96,.86-1.89,1.28-3.63,.05-5.73-1.22-2.09-.6-4.75-.29-6.99,.39-2.84,1.73-5.6,2.93-8.27,.79-1.75,2.31-3,4.55-3.87,.17,4.97,1.69,9.56,1.82,14.39,.07,2.42-.71,3.86-2.94,4.61-.21,.24-.52,.57-.31,.82,.31,.38,.83,.21,1.27,.14,4.9-.83,9.75-1.9,14.8-1.79,4.05,.08,8.11-.27,11.94,1.14,.76-.9,.13-1.39-.38-1.62-.85-.38-1.05-.74-.87-1.72,.54-2.99,.89-6.01,1.36-9.38,3.33,1.97,5.06,5.23,7.54,7.71Z"/><path class="cls-25" d="M524.09,827.76c0-3.09,0-6.17-.01-9.26,.37-.53,.74-.98,1.5-.54,.96,.55,1.85,1.27,3.01,1.39,5.69,1.63,11.21,3.93,17.35,3.48,3.38-.25,6.64-1.55,10.09-1.14,5.61-.91,10.69-2.98,14.91-6.91,.08,3.84,1.19,7.58,1.04,11.44-1.49,4.68-6.58,8.05-12.55,8.23-4.36,.13-8.73,.35-13.08,.22-1.99-.06-3.77,.74-5.97,.29-5.34-1.09-9.9-4.03-15.06-5.42-.94-.25-.91-1.13-1.22-1.79Z"/><path class="cls-15" d="M550.61,782.62c-2.13,1.28-4.14,1-5.9,2.24,1.11,.24,2.25,.75,3.34,.66,3.31-.26,6.55,1.12,9.89,.22,1.61-.43,2.85,.92,4.26,1.45,.5,.19,.52,.84,.33,1.35-1.18,3.07-.52,6.31-.8,9.41-.73,.92-1.7,.5-2.53,.5-5.62-.04-11.24-.15-16.86,.19-1.24,.08-2.25-.34-1.75-1.68,1.37-3.64-.19-7.02-.68-10.49-.09-.62-.33-1.22-.47-1.84-.9-3.97,.05-4.87,4.13-3.89,1.11,.27,2.18,.7,3.28,1,1.09,.3,2.21,.52,3.75,.87Z"/><path class="cls-110" d="M556.03,821.7c-9.52,3.57-18.67,2.83-27.44-2.34,.3-.28,.6-.56,.9-.84,5.97,2.48,12.1,3.86,18.64,3.1,2.02-.23,3.95-1.09,6.03-.82,.42,.72,1.15,.8,1.87,.9Z"/><path class="cls-106" d="M537.41,801.75c-.67,.89-1.65,.93-2.69,1.27-.08-1.54,.53-2.14,1.73-2.23l.96,.96Z"/><path class="cls-97" d="M513.31,504.01c.06-.11,.14-.31,.17-.31,.26,.06,.19,.17-.17,.3,0,0,0,0,0,0Z"/><path class="cls-24" d="M511.19,436.92c-.48-1.01-.04-2.09-.23-3.12,1.09,.82,.91,1.93,.68,3.05,0,0-.23-.02-.23-.02l-.22,.09Z"/><path class="cls-45" d="M517.81,472.35c-.18,0-.37,.02-.54,.07-.1-.36-.27-.71-.28-1.07,0-.42-.14-1.08,.54-1.05,.42,.02,.39,.57,.39,.93,0,.37-.07,.75-.1,1.12Z"/><path class="cls-105" d="M469.3,224.19c-.75,.19-1.51,1.27-2.25-.02,.39-.25,.79-.5,1.18-.76,1.15-.81,1.05,.07,1.07,.79Z"/><path class="cls-23" d="M514.3,217.88c-.8,2.37-2.56,2.57-4.01,3.21-2.44,1.09-4.98,1.91-7.63,2.29-1.55,.22-2.16-.64-1.61-2.07,.27-.7,.72-1.35,1.16-1.97,1.12-1.58,1.14-1.57,2.31,.21,1.09,1.66,2.62,1.83,3.05,.16,.5-1.96,1.62-1.87,3.03-1.84,1.13,.03,2.27,0,3.7,0Z"/><path class="cls-107" d="M505.99,219.18c-.09-.21-.21-.41-.26-.62-.01-.06,.19-.25,.25-.23,.29,.09,.38,.31,.26,.59-.05,.1-.16,.18-.24,.27Z"/><path class="cls-11" d="M472.31,230.02c1.9-1.13,2.81-3.09,5.16-1.42,1.22,.87,1.94-.2,2.42-1.46,.86-2.27,2.09-2.69,3.98-1.63,1.27,.71,1.34,1.44,.11,2.24-3.38,2.2-6.98,3.45-11.67,2.27Z"/><path class="cls-34" d="M478.53,226.88c-.18,.13-.35,.33-.54,.35-.18,.02-.52-.13-.54-.25-.07-.43,.29-.53,.61-.49,.17,.02,.32,.25,.47,.39Z"/><path class="cls-16" d="M503.32,247.35c3.58-.56,6.25-2.99,9.33-4.56,.71-.18,1.08-.02,.79,.79-.05,.99-.1,1.97-.15,2.96-.5,.73-1.05,1.42-1.48,2.18-4.48,8.08-12.58,9.96-20.11,4.65-.72-.51-1.45-.98-2.18-1.47-.21-.87-1.47-1.02-1.38-2.48,5.4,1.81,10.48,1.05,15.18-2.07Z"/><path class="cls-85" d="M513.45,243.59c-.26-.26-.53-.53-.79-.79,.41-.66,.55-1.61,1.67-1.46,.04,.14,.09,.28,.14,.42-.39,.58-.07,1.56-1.01,1.84Z"/><path class="cls-31" d="M514.46,241.75c-.12-.12-.17-.26-.14-.42,0,0,.31,.14,.31,.14l-.17,.28Z"/><path class="cls-84" d="M446.87,799.27c-.21-.26-.43-.52-.64-.78,.44,.07,.55,.42,.64,.78Z"/><path class="cls-64" d="M543.84,791.03c.24-1.48,1.49-1.56,2.54-1.95,3.48-1.32,7.05-.87,10.61-.61,.92,.07,1.84,.49,1.64,1.62-.16,.94-1.12,.92-1.87,.92-4.3,.02-8.6,.01-12.92,.01Z"/><path class="cls-75" d="M559.53,794.68c-5.11,1.13-10.36-.11-16.12,2.06,3.35-3.73,10.4-4.49,16.12-2.06Z"/></svg>