<?xml version="1.0" encoding="UTF-8"?><svg id="Layer_1" xmlns="http://www.w3.org/2000/svg" viewBox="0 0 1000 1000"><defs><style>.cls-1{fill:#f9fafa;}.cls-2{fill:#040405;}.cls-3{fill:#040304;}.cls-4{fill:#060302;}.cls-5{fill:#6a6b6c;}.cls-6{fill:#696461;}.cls-7{fill:#674230;}.cls-8{fill:#eeedec;}.cls-9{fill:#ebeced;}.cls-10{fill:#f4f5f5;}.cls-11{fill:#f4f4f4;}.cls-12{fill:#fcfcfc;}.cls-13{fill:#e86224;}.cls-14{fill:#fff;}.cls-15{fill:#fefefe;}.cls-16{fill:#fafafa;}.cls-17{fill:#e5e5e6;}.cls-18{fill:#7f8080;}.cls-19{fill:#6c6766;}.cls-20{fill:#7d7878;}.cls-21{fill:#a09e9f;}.cls-22{fill:#93999c;}.cls-23{fill:#875435;}.cls-24{fill:#9e9b9d;}.cls-25{fill:#a19e9e;}.cls-26{fill:#c2bfbf;}.cls-27{fill:#c2bcd6;}.cls-28{fill:#908e8e;}.cls-29{fill:#c1bcd6;}.cls-30{fill:#bab9ba;}.cls-31{fill:#302e3b;}.cls-32{fill:#302e3c;}.cls-33{fill:#312b27;}.cls-34{fill:#332c28;}.cls-35{fill:#342822;}.cls-36{fill:#acadae;}.cls-37{fill:#b2b1b1;}.cls-38{fill:#bdbbbb;}.cls-39{fill:#bfbcbc;}.cls-40{fill:#dededf;}.cls-41{fill:#dddbdb;}.cls-42{fill:#ddddde;}.cls-43{fill:#d4d4d4;}.cls-44{fill:#c6c4c4;}.cls-45{fill:#e1e0e1;}.cls-46{fill:#c7c5c5;}.cls-47{fill:#dfdede;}.cls-48{fill:#140b09;}.cls-49{fill:#121213;}.cls-50{fill:#131314;}.cls-51{fill:#161414;}.cls-52{fill:#252424;}.cls-53{fill:#242425;}.cls-54{fill:#241b14;}.cls-55{fill:#1e1610;}.cls-56{fill:#221710;}.cls-57{fill:#201c1d;}.cls-58{fill:#232223;}.cls-59{fill:#232326;}.cls-60{fill:#403e41;}.cls-61{fill:#120e0d;}.cls-62{fill:#121013;}.cls-63{fill:#080709;}.cls-64{fill:#111112;}.cls-65{fill:#111011;}.cls-66{fill:#0f0b0b;}.cls-67{fill:#1c1715;}.cls-68{fill:#363434;}.cls-69{fill:#412e24;}.cls-70{fill:#372821;}.cls-71{fill:#191311;}.cls-72{fill:#181311;}.cls-73{fill:#181819;}.cls-74{fill:#0a0a0b;}.cls-75{fill:#0a0706;}.cls-76{fill:#1a1919;}.cls-77{fill:#a2aaad;}.cls-78{fill:#a2a4a5;}.cls-79{fill:#a2a6a9;}.cls-80{fill:#6d6e6e;}.cls-81{fill:#646467;}.cls-82{fill:#634232;}.cls-83{fill:#292732;}.cls-84{fill:#29282b;}.cls-85{fill:#595958;}.cls-86{fill:#2d221e;}.cls-87{fill:#2f2d2f;}.cls-88{fill:#313133;}.cls-89{fill:#3a3a39;}.cls-90{fill:#3b2a1f;}.cls-91{fill:#34302d;}.cls-92{fill:#2e2c2b;}.cls-93{fill:#272527;}.cls-94{fill:#574e4b;}.cls-95{fill:#575357;}.cls-96{fill:#3c3a3c;}.cls-97{fill:#2f2119;}.cls-98{fill:#4a4848;}.cls-99{fill:#606061;}.cls-100{fill:#494c4d;}.cls-101{fill:#615f5f;}.cls-102{fill:#7a7877;}.cls-103{fill:#4b474b;}.cls-104{fill:#525657;}.cls-105{fill:#525054;}.cls-106{fill:#7b7a79;}.cls-107{fill:#514e4e;}</style></defs><path class="cls-88" d="M407.82,491.19c.04-2.82-.02-5.64,.16-8.45,.11-1.78-.38-2.66-2.25-2.58-.29,.01-.6-.4-.91-.62,.16-.13,.33-.27,.49-.4,2.9-.87,4.08,.39,4.04,3.22-.03,2.13,.15,4.27-.5,6.1,.77-1.79,.55-3.95,.49-6.04-.08-2.45,1-3.93,3.31-4.44,4.93-1.09,9.28-3.55,13.74-5.72,4.6-2.23,9.22-3.6,14.39-2.26,1.69,.44,3.55,.34,5.32-.11,.54-.3,1.05-.66,1.57-1.01,.58-.35,1.21-.44,1.87-.34,5.07,.73,10.17,1.24,15.28,1.61,1.56,.11,3.35,.24,3.86,1.97,1.22,4.08,4.67,4.61,7.92,4.83,5.23,.35,10.48,.47,15.73-.3,4.58-.67,9.27-.65,13.83-.11,6.41,.76,12.81,.64,19.22,.51,2.34-.05,3.76,.62,4.2,2.88,2.06,10.72,6.27,20.82,8.94,31.38,2.78,10.99,3.95,22.16,5.3,33.35,3.26,27.1,1.93,54.3,2.19,81.47,.01,1.38-1.51,4.06,2.07,3.62,.28-.04,.57,.53,.65,.89,1.99,9.13,6.38,17.56,7.91,26.81,.36,2.18,.03,4.47,.22,6.7,.25,.5,.67-.31,.25,0-.17,.12-.31,.04-.29-.25,.3-3.5-.97-7.05,.28-10.52,1.1,1.56,.78,3.38,.84,5.1,.1,3.16,0,6.32-.02,9.48-.28,13.7-1.04,27.38-.98,41.09,.01,3.06,1.53,6.02,.46,9.11,.17-.08,.07-.28,.16-.39,.59-.74,1.26-.39,1.49,.18,1.16,2.94,3.35,5.64,3.23,8.9-.22,5.87-.91,11.72-1.49,17.57-.58,5.96-.91,11.94-2.5,17.77,.36-2.6,.74-3.54,1.66-3.44,1.56,.17,1.26,1.7,1.78,2.64,1.14,2.06,1.18,4.8,3.7,6.01,.75,2,2.22,3.4,3.88,4.65-.38,2.03-2.04,2.5-3.68,2.88-4.4,1.02-8.61,2.51-12.51,4.85,6.83-4.11,14.35-5.04,22.1-4.78,1.21,.04,2.96-.23,3.17,1.4,.15,1.21-1.35,1.8-2.41,2.16-13.98,4.67-22.06,16.2-31.05,26.67-.92,1.07-1.69,2.27-2.73,3.22-2.49,2.29-4.58,5.61-8.8,3.65-4.79-2.22-6.56-5.36-6.1-10.59-.97-3.16-.72-3.39,3.54-3.36-3.45-.18-4.41-2.67-5.46-5.28-4.21-10.53-4.34-21.65-3.62-32.58,.43-6.47-.5-12.42-1.78-18.55-1.46-6.99-3.27-13.95-2.78-21.22,.14-2-1.11-3.66-1.93-5.37-4.37-9.09-7.1-18.54-8.07-28.68-1.03-10.81-2.09-21.64-3.79-32.38-.14-.89-.54-1.92-.18-2.65,1.81-3.63-.17-6.69-1.43-9.77-3.33-8.19-6.1-16.61-8.8-24.99-1.86-5.77-2.98-11.92-3.87-18.01-1.08-7.41-3.41-14.37-6.5-21.2-3.95-8.74-7.31-17.76-10.21-26.88-2-6.26-4.62-11.6-10.14-15.29-.53-.35-.96-.85-.81-.67,3.12,2.44,6.93,5.43,8.92,10.07,.66,1.55,1.52,3.09,1.35,4.76-.57,5.93,.44,11.74,.9,17.61,.56,7.17,.03,14.38-.38,21.54-.2,3.52-1.77,6.92-2.9,10.32-2.94,8.79-2.13,17.81-1.02,26.67,1,7.94,1.28,15.82,.84,23.77-.04,.65-.12,1.27,.23,1.86,.43,.42,.83,.86,1.16,1.35,5.92,15.16,12.85,30.06,14.53,46.47,.84,8.26,1.31,16.62,1.04,24.96-.11,3.65,.68,7.15,1.64,10.56,1.3,4.6,.27,8.93-.91,13.22-1.06,3.82-1.79,7.72-3.09,11.47-.31,.9,.12,2.49-1.16,2.49-1.39,0-1.39-1.54-1.58-2.68-.7,4.78,.68,8.68,4.33,11.95,2.35,2.11,2.07,2.66-1.11,3.93,2.57,.61,2.59-1.61,3.3-3.09,1.03,.78,2.06,1.56,3.09,2.34,1.04,7.64,.97,7.44-6.37,10.07-5.52,1.98-10.84,1.88-16.14-.25-3.79-1.52-7.68-2.78-11.46-4.35-4.01-1.67-7.49,1.16-10.32,4.14-.65,.99-1.24,2.05-2.57,2.27-.26-.02-.66-.07-.7-.23-1.88-9.39-5.21-18.75-.61-28.29,1.19-2.46,1.11-2.5,4.31-1.16-5.94-8.02-3.46-17.09-4.6-25.55-.44-3.26,.08-6.65-.79-9.91-2.14-9.56-6.91-18.2-9.72-27.53-4.32-14.36-8.67-28.69-8.72-43.89,0-2.03-1.18-3.98-.45-6.06,.18-.38,.49-.59,.9-.64,2.01,.93,1.84,3.13,2.84,4.68-2.91-6.29-4.64-12.91-5.53-19.76-2.54-14.68-7.96-28.6-11.3-43.06-3.6-15.59-7.57-31.11-7.08-47.32,.11-3.6,.63-7.14,.91-10.72,1.35-9.32,2.49-18.68,3.75-28.01,.33-2.46,1.65-4.84,.86-7.43Z"/><path class="cls-32" d="M536.52,416.59c-2.08,2.62-4.94,1.57-7.57,1.58-.02-1.85,1.39-.9,1.99-1.09-12.02-.76-22.95-5.4-33.29-11.53-7.83-4.64-15.9-8.83-23.88-13.18-1.78-.97-3.66-1.91-5.84-1.37-2.58-.08-5.06-.43-6.92-2.49-.6-2.9-.62-2.94,2.29-4.7,7.68-4.65,15.68-8.68,23.79-12.51,1.69-.8,3.35-.87,5.21-.63,8.52,1.08,16.81,3.31,25.29,4.96-.53-1-2.16-1.52-1.63-2.75,.59-1.37,2.16-1.2,3.41-1.14,3.97,.22,7.8,1.48,12.14,1.52-2.51-.66-4.76-.95-6.96-1.5-3.76-.94-4.13-1.61-2.29-4.94,2.16-3.91,4.88-7.43,7.75-10.85,.46-.55,1.68-.95,.7-2.04-.51-.11-.92-.32-1.14-.81,.86-3.22,1.5-6.48,1.7-9.85-1.56,3.18-1.49,6.73-1.7,10.02-.27,4.21-3.12,6.61-4.99,9.69-1.12,1.84-2.17,.24-2.76-.87-2.1-3.97-4.66-7.62-7.51-11.09-3.99-4.86-9.09-7.39-15.32-7.42-4.46-.02-8.95-.47-13.4,.36-3.14-.04-3.18-2.21-2.64-4.31,.99-3.83,1.91-7.7,3.84-11.24,3.01-5.5,4.5-11.28,4.04-17.69-.54-7.42,2.67-12.41,9.73-14.74,8.77-2.89,16.91-7.26,25.66-10.16,3.66-1.21,7.33-2.26,11.3-2.64-6.47-5.08-13.49-8.09-21.8-7.22-2.05,.21-2.77-1.02-2.89-2.75-.18-2.56-.17-5.11,.25-7.66,.49-2.92,1.97-4,4.8-2.85,.84,.34,1.73,.48,2.58,.74,1.64,.11,3.08,.89,4.61,1.37,7.3,3.07,14.91,5.47,21.86,9.26,7.81,4.25,13.99,10.01,14.26,19.86,.04,1.54,.7,3,.86,4.53,.34,3.26-1.47,4.87-4.38,3.41-6.09-3.06-12.39-4.48-18.58-3.63,4.54,.58,9.86-.49,14.81,2.1,4.54,2.38,9.04,4.83,13.45,7.42,3.88,2.27,5.59,5.65,5.82,10.46,.58,12.06-1.69,23.7-4.11,35.36-.68,3.26-2.1,6.36-3.63,9.29-7.52,14.44-13.92,29.44-21.94,43.64-2.04,3.61-5.09,6.41-7,10.06Z"/><path d="M454.29,219.27c-3.85-6.25-4.53-12.88-2.36-19.83,1.07-3.43,2.56-6.67,4.65-9.63,1.7-2.4,1.7-5.6,3.66-7.92,.82-.97,1.26-2.49,2.41-2.93,2.99-1.13,3.9-3.84,5.38-6.2,4.02-6.38,10.06-8.73,17.38-8.37,3.85,.19,7.64,.55,11.06,2.58,.82,.49,1.58,.78,2.4-.06,2.36-2.44,5.43-1.89,8.21-1.52,6.5,.88,12.1,3.81,16.73,8.48,1.47,1.49,2.38,3.25,2.39,5.46,0,1.77,.72,2.99,2.54,3.85,2.14,1.02,2.65,3.59,3.63,5.53,2.08,4.16,2.35,8.88,2.82,13.42,.25,2.46-1.2,4.94-2.59,7.12-1.6,2.49-2.43,5.03-1.3,7.97,.75,1.96-.3,3.5-1.54,4.84-1.12,1.21-2.43,2.25-3.66,3.37-.96,.5-1.16,1.8-2.27,2.16-.48,.19-.93,.44-1.36,.72-4.06,2.58-5.34,2.03-6.25-2.69-.29-1.53-.33-3.09,.07-4.59,1.16-4.43-.67-7.82-3.81-10.6-2.37-2.1-4.67-4.31-7.8-5.49-2.65-.99-3.85-3.64-5.22-5.97-.97-1.65-1.66-3.49-3.06-4.87-1.23-1.22-2.5-2.07-4.44-1.52-3.65,1.04-7.35,.97-11.01-.04-1.96-.54-3.51,.02-4.87,1.44-4.02,4.19-8.71,7.49-13.56,10.66-3.23,2.11-3.77,6.25-5.55,9.45-.64,1.16,.7,1.41,1.65,1.21,3.06-.64,5.45,.86,7.9,2.32,1.9,1.12,2.32,2.72,1.61,4.59-.75,1.99-2.49,1.61-3.92,1.06-2.76-1.07-5.57-.53-8.37-.6-1.78-.55-.14-2.67-1.56-3.39Z"/><path class="cls-3" d="M468.09,390.35c.5-.79,1.22-.86,2.01-.56,1.43,.56,2.91,1.03,4.25,1.77,8.29,4.58,16.74,8.85,24.83,13.81,8,4.91,16.85,8.01,25.94,10.27,2.25,.56,4.71,.3,7,1.35-.96,.84-2.47-.08-3.16,1.18-.54,1.95,.98,3.62,.63,5.63-.34,2-.08,4.1-.09,6.15,0,1.93-.02,3.85,0,5.78,.02,2.05,.08,4.11,.11,6.16,.19,10.78-.11,21.55-.49,32.31-.03,.97,.23,1.72,.44,2.55,1.69,6.84,3.95,13.51,6.17,20.18,4.41,13.25,7.43,26.8,8.65,40.73,.68,7.75,1.37,15.5,2.14,23.24,1.41,14.32,1.43,28.65,1.3,42.99-.04,4.72-.57,9.44-.89,14.16-.14,2.08,.29,4.03,.91,6.02,2.1,6.72,4,13.5,6.07,20.22,.94,3.05,2.1,6.03,3.16,9.04,0,3.82-.01,7.64-.02,11.89-.45-.62-.71-.82-.69-.98,.79-6.52-1.6-12.39-3.94-18.19-2.07-5.13-3.09-10.53-4.84-16.02-.92,1.02-.05,2.57-1.39,3.39-1.52-1.54-1.39-3.53-1.39-5.47,.02-13.99,.05-27.99,.07-41.98,0-4.75,.32-9.53-.09-14.24-.43-4.95-.28-9.95-1.26-14.85-.2-.99-.16-2.05-.13-3.07,.14-4.37-.81-8.62-1.27-12.93-.5-4.69-1.1-9.37-1.64-14.05-.71-6.14-2.58-11.96-3.89-17.94-1.86-8.51-5.28-16.55-7.33-24.99-.34-1.4-.21-2.82-.6-4.16-.37-1.3-.92-1.88-2.71-1.78-6.38,.34-12.74,.43-19.16-.28-5.15-.57-10.43-.36-15.7,.24-6.2,.71-12.55,.84-18.74-.59-2.09-.48-3.9-1.68-4.26-3.93-.31-1.89-1.3-2.19-2.9-2.19-4.99,0-9.91-.83-14.83-1.54-.66-.1-1.25-.23-1.69-.77,.22-2.03,1.88-1.68,3.13-1.79,1.86-.17,3.74-.04,5.61-.07,2.89-.22,5.7,.38,8.5,.89,2.09-2.17,.49-4.84,1.03-7.2,.36-1.56-.71-3.79,1.99-4.26,1.51,.86,1.33,2.34,1.34,3.73,.04,3.78-.27,7.57,.77,11.64-2.78-19.58,1.4-38.7,.8-57.92,.62-1.68,.51-3.49,.84-5.22,.37-1.23,.61-2.49,.79-3.77,.06-.36,.16-.72,.27-1.07,.3-.9,.34-1.86,.64-2.76,.28-.57,.59-1.09,1.38-.77,1.38,1.4,1.05,3.09,.74,4.72-1.07,5.71-1.53,11.48-1.13,17.25,.8,11.72-2.09,23.25-1.68,34.95,.21,5.81,.08,5.64,5.75,7.05,10.72,2.67,21.41,1.41,32.08-.05,3.43-.47,6.83-1.18,10.27-1.57,2.48-.28,3.65-1.25,3.64-3.86-.02-12.19,.03-24.39,.04-36.58,0-2.29-.99-3.57-3.21-4.07-17.16-3.87-31.26-14-46.1-22.61-.67-.42-1.34-.84-1.99-1.3-.62-.41-1.28-.72-1.99-.95-1.46-.86-3.85-.46-4.12-2.97Z"/><path class="cls-49" d="M487.52,771.86c-.18,1.15,.31,2.24,.52,3.45-2.04,.75-3.94,.33-5.94,.46,.62-2.27,3.07-.89,4.14-2.56-2.36-2.28-5.3-4.38-6.1-7.83-.74-3.2-.42-6.49-.08-10.31,1.96,1.94,1.85,4.04,2.4,6.62,1.73-6.96,3.34-13.26,4.85-19.58,.51-2.14,.7-4.46,.03-6.48-2.11-6.33-1.75-12.84-2.16-19.34-.6-9.52-.29-19.2-3-28.48-1.72-5.87-3.95-11.59-5.94-17.38-1.91-5.56-3.86-11.1-6.14-16.52-.19-.45-.1-1.01-.14-1.52-.44-.55-.89-.51-1.35-.02-1.04-.5-.97-1.38-.82-2.3,1.04-6.49,.91-12.96,.06-19.48-.5-3.78-1.32-7.58-.94-11.46,.09-.89,.18-1.87-.11-2.68-1.57-4.51-.27-8.95,.63-13.24,.97-4.58,2.14-9.17,3.85-13.58,.36-.92,.32-2.02,.32-3.03,.03-6.17,.19-12.34-.02-18.5-.14-4.19-.83-8.36-1.26-12.55-.09-.89-.39-1.88-.12-2.67,1.92-5.7-1.35-9.58-4.7-13.32-1.86-2.08-4.2-3.74-6.27-5.64-.64-.59-1.46-1.09-1.65-2.12,1.08-.85,2.05-.07,2.71,.48,4.39,3.68,9.29,6.89,11.32,12.73,.59,1.7,1.05,3.43,1.51,5.14,1.54,5.7,4.74,10.78,6.1,16.51,1.53,6.45,5.06,12.02,7.58,18.03,1.66,3.97,2.27,8.15,3.08,12.22,.72,3.61,1.6,7.22,2.16,10.88,.35,2.26,1.3,4.42,1.15,6.79-.04,.6,.19,1.28,.46,1.84,2.86,5.9,4.11,12.36,6.51,18.42,1.65,4.17,3.31,8.33,4.96,12.5,.55,1.38,.54,1.41-.97,2.83-.33,.31-.3,.64-.3,1,0,.9-.2,1.87,.05,2.69,1.97,6.28,1.82,12.88,2.63,19.31,.69,5.42,1.77,10.83,1.91,16.34,.14,5.56,1.97,10.79,3.75,15.98,1.45,4.23,3.08,8.4,5.19,12.37,.67,1.27,.8,2.74,.62,4.41-.31,2.86-.11,5.9,.56,8.7,1.42,5.96,2.16,12.07,3.98,17.94,.93,2.99,.68,6.16,.19,9.17-.77,4.74-.89,9.39,.05,14.1,.22,1.12,.18,2.31,.11,3.46-.44,6.72,1.66,12.88,4.04,18.99,.44,1.12,1.08,1.84,2.44,2.13,1.66,.35,3.47,.68,5.16,2.37-2.73,.91-5.28-1.3-7.45,.42,.22,1.22,1.64,.83,1.96,1.74-.45,.44-.9,.87-1.52,1.02-.65,.1-.21,.64-.35,.95-1.38,1.59,1.29,3.58-.52,5.12-2.03-2.38-2.81-4.95-1.67-8.07,.83-2.27,.61-4.49-.35-6.9-2.22-5.6-3.54-11.4-3.74-17.55-.16-4.86-.32-9.72-.4-14.58-.03-2.05,.02-4.08,.54-6.1,.49-1.89,.18-3.75-.32-5.66-2.46-9.39-4.54-18.86-4.53-28.65,0-1.47-.5-2.71-1.18-3.99-5.66-10.53-8.41-21.81-9.28-33.72-.72-9.92-2.11-19.79-3.29-29.67-.25-2.14-.38-4.33-.55-6.45-.25-3.18-1.38-5.92-2.44-8.79-2.54-6.83-5.38-13.59-7.26-20.61-1.41-5.26-2.97-10.53-3.72-15.98-1.23-8.92-3.5-17.51-7.71-25.59-2.36-4.52-3.06-9.75-5.27-14.4-.81-1.69-1.3-3.53-2.8-5.61,.18,3.26,.15,5.89,.51,8.46,.82,5.87,.79,11.71-.01,17.57-.14,1.01-.12,2.05-.1,3.08,.07,3.23-.37,6.34-1.43,9.44-2.5,7.32-3.97,14.84-3.22,22.62,.61,6.35,1.41,12.68,2.19,19.02,.3,2.43,.48,4.87-.07,7.26-.45,1.96-.22,3.74,.47,5.6,3.68,9.96,7.35,19.92,10.92,29.92,2.72,7.65,3.8,15.55,4.24,23.68,.33,5.99,.53,12.01,.7,17.99,.18,6.15,1.27,12.03,2.37,18.01,.57,3.09-.72,6.2-1.52,9.24-1.29,4.95-2.46,9.94-4.06,14.79-.96,2.89-.16,4.92,1.78,6.87,.71,.72,1.36,1.5,2.04,2.26Z"/><path class="cls-2" d="M458.07,468.09c-2.18,.01-4.37,.02-6.55,.05-1.01,.01-2.09-.2-2.84,.77-.26,.26-.51,.51-.77,.77-.37,.27-.79,.39-1.24,.36-.43-.15-.78-.41-1.05-.77-2.08-6.9-1.29-13.72,.54-20.51,.32-.97,.44-1.96,.29-2.98,.3-2.57-.84-5.29,.81-7.71,1.77,.19,.77,1.57,1.08,2.51,.06-1.17,.15-2.23-.83-3-.96-1.97-.02-4.03-.28-6.03,.02-.6,.05-1.21,.36-1.75,.25-.31,.59-.45,.97-.44,.25,.1,.47,.3,.43,.55-.08,.5,.4,.74,.2,.33-.98-2.03-.22-4.24-.77-6.3,0-.73-.12-1.47,.02-2.2-.33,1.75,.48,3.53-.13,5.28-.11,.82-.29,1.61-.76,2.31-.39,4.83-1.25,9.62-1.16,14.49,.02,1.18,.5,3.18-.99,3.26-1.87,.1-1.36-2.03-1.57-3.3-.12-.76-.25-1.51-.42-2.26-.59-7,1.36-13.73,2.26-20.57,.64-4.88,.83-9.71-.48-14.51-.72-2.63-.51-5.32-.21-8.74-10.77,6.75-21.38,12.32-33.81,12.88-3.51,.23-6.91-.64-10.35-1.03-8.95-.85-14.19-6.46-17.38-14.17-3.04-7.34-3.01-15.2-2.53-22.98,.26-4.13,.32-8.32,1.45-12.37,1.55-1.84-.12-4.2,.98-6.11h0c.84-.93,.1-2.2,.66-3.2l-.03,.07c1.26-1.09,.05-2.71,.85-3.89v.02c1.55-.16,1.5,1.07,1.76,2.03,.07,.8-.02,1.6-.2,2.38-.35,1.07-.52,2.19-.65,3.31-.05,.37-.13,.73-.23,1.1-.44,1.26-.37,2.57-.36,3.87-1.2,7.91-.72,15.88-.79,23.83-.07,7.05,2.41,13.03,7.71,17.78,5.22,4.68,11.45,6.18,18.21,5.37,11.19-1.33,21.24-5.76,30.55-11.97,10.36-6.91,21-13.38,31.7-19.76,4.09-2.44,8.4-4.44,12.87-6.08,2.74-1.01,5.52-2.48,8.18,.22,.16,.17,.48,.22,.73,.2,7.39-.55,14.73,2.3,22.17,.19,3.68-1.04,5-3.46,3.17-6.86-3.64-6.79-8.3-12.63-15.32-16.21-.15-.31-.61-.37-.64-.76,.03,.25,.11,.43,.31,.6,.03,.34-.03,.62-.17,.91-1.45,1.43-3.06,.79-4.62,.37-3.65-.98-7.24-2.2-11.07-2.35-.98-.29-2.28-.21-2.21-1.79,.2-.16,.38-.45,.59-.47,5.48-.47,10.97-.6,16.43,.17,6.11,.86,10.36,4.61,13.87,9.35,2.49,3.37,4.97,6.76,6.59,10.91,.74-1.14,1.21-2.32,2.06-3.07,3.1-2.74,3.49-6.41,3.57-10.11,.06-2.99,.73-5.81,1.63-8.61,.22-.7,.4-1.69,1.43-1.32,.93,.33,.63,1.19,.43,1.96-.63,2.34-.29,4.79-.92,7.2-.4,1.51-1,2.84-1.62,4.21,.56,.57,1.01,.21,1.47-.16,.41-.64,.85-1.56,1.71-1.08,.74,.41,.11,1.08-.24,1.6-2.34,3.51-5.54,6.33-7.82,9.92-1.24,1.94-1.94,4.1-3.59,5.95,4.25,1.96,8.82,1.33,13.19,3.85-6.54,1.94-12.23-1.71-18.37-.69,.73,1.5,2.15,1.63,3.12,2.32,.55,.39,1.07,.87,.68,1.56-.26,.46-.87,.44-1.39,.29-2.09-.59-4.22-.99-6.33-1.47-6.83-1.55-13.67-3.03-20.61-4.05-1.68-.25-2.95-.02-4.36,.65-8.55,4.07-16.96,8.41-25.08,13.29-.89,.53-.89,.52-.44,2.29,0,0-.46,.13-.71,.2-1.66,1.51-3.92,1.83-5.78,2.97-2.39,1.46-3.78,3.37-3.85,6.21-.05,2.05-.3,4.15,.26,6.13,1.69,5.98,.9,11.87,.15,17.9-1.06,8.63-1.46,17.35-2.01,26.03-.3,4.75-1.84,9.31-1.67,14.11,.16,4.4,.38,4.64,4.86,4.94,1.77,.12,3.99-.65,4.92,1.83Z"/><path class="cls-75" d="M526.75,802.03c.78-.25,1.55-.51,2.33-.76-1.91,4.57-1.64,4.86,2.47,8.42,3.39,2.94,4.91,2.85,8.46-.37,3.17-2.88,4.97-6.81,8.08-9.7,3.83-3.58,6.98-7.79,10.69-11.51,4.52-4.54,9.73-7.75,15.66-9.94,1.16-.43,2.37-.81,3.53-2.11-9.86-.55-19.02,.36-27.86,6.27,.73-1.91,1.66-2.7,2.71-3.24,3.74-1.9,7.28-4.25,11.59-4.85,1.78-.25,3.52-.84,4.84-2.22,3.01,2.52,6.6,1.37,9.96,1.49,1.34,.05,2.56-.68,4.04,.21,1.1,.67,2.33-.61,3.43-1.14,4.8-2.31,9.75-3.7,15.16-3.6,11.06,.2,17.69,10.1,17.47,18.7-.13,5.12-2.74,9.24-7.7,11.45-.28,.22-.56,.44-.83,.68l-.06,.04c-.34,.48-1.14,.28-1.38,.92h.02c-.39,.03-.6,.37-.9,.56l-.09,.05c-.34,.5-1.09,.32-1.41,.84h0c-.27,.21-.55,.42-.82,.62-.09,.22-.25,.31-.48,.27-.41,.09-.82,.16-1.14-.22-.13-.25-.17-.52-.11-.8,.11-.25,.26-.48,.43-.69,.09-.1,.18-.2,.27-.3,.18-.19,.38-.37,.59-.54,.2-.17,.42-.31,.65-.44,.22-.14,.45-.26,.68-.39,.22-.16,.43-.3,.65-.46,.2-.19,.42-.36,.63-.54,.21-.21,.42-.41,.63-.62,.43-.48,.78-1,1.2-1.49,1.85-1.93,4.2-3.38,5.17-6.08,1.32-3.67-.24-6.12-4.15-6.24-1.41-.05-2.87,.08-4.18,.51-8.27,2.75-16.59,5.45-22.16,12.86-.69,.92-1.42,1.85-2.79,1.72-.84-.29-1.14-.96-1.25-1.77,.58-4.06,3.49-6.46,6.49-8.67,7.45-5.49,14.91-8.4,24.19-9.91-10.15-.79-19.52,.98-27.21,8.4-1.08,1.04-1.74,2.62-3.54,2.73-.62-.12-1.02-.5-1.23-1.08-.18-2.78,1.64-4.53,3.43-6.13,5.85-5.22,12.59-8.28,20.61-8.02,1.53,.05,3.07,.12,4.61-.36-5.76-2.13-11.54-2.48-17.32,.19-1.01,.31-2.08,0-3.1,.27-1.13,.25-2.22,.59-3.18,1.25-.26,.2-.54,.39-.81,.57-.27,.2-.56,.36-.85,.52-1.06,.51-2.12,1.03-3.13,1.63-3,2.28-6.7,2.99-10.06,4.47-.7,.15-1.28,.59-1.97,.79,1.25-.35,2.39-.99,3.62-1.4,1.58-.3,3.14-.38,4.7,.07,.58,.24,1.01,.61,1.19,1.23-.12,1.81-1.61,1.77-2.82,1.99-2.53,.46-5.02,1.09-7.52,1.67-4.55,1.06-7.74,3.78-10.86,7.36-5.38,6.16-9.97,13.1-16.47,18.22-1.95,1.53-2.85,3.21-2.42,5.61,.3,1.03,1.08,1.88,1.22,2.98,.08,1.6,.75,3.12,.69,4.75-.14,.72,.48,2.18-1.23,1.46-1.11-.47-1.52-1.53-1.98-2.65-1.31-3.14-1.62-6.45-2.06-9.74-.17-1.25-.58-1.98-1.66-2.71-1.99-1.33-4.13-2.57-5.41-4.74,.02-2.11-1.03-4.23,.07-6.33h0Z"/><path class="cls-66" d="M386.44,334.62c-.19-3.15,.89-6.11,1.81-8.97,3.17-9.87,6.72-19.62,12.99-28.07,2.81-3.78,5.58-7.64,10.01-9.8,2.79-1.36,5.78-2.03,8.79-2.53,8.71-1.43,17.28-3.39,25.75-5.87,1.54-.45,1.96-1.01,1.47-2.32-.7-1.85-.71-3.76-.68-5.68,.08-4.91,1.72-7.01,6.41-8.14,1.08-.26,2.19-.38,3.38-.57-.67-1.8-1.59-3.54-1.25-5.54-.4-3.14-.54-6.28,.08-9.41,1.91-.49,2.06,1.02,2.38,2.19,.34,1.24,.21,2.54,.23,3.82,.06,7.55,2.75,10.53,10.42,11.3,12.76,1.29,24.21-2.94,35.21-8.7,2.68-1.4,3.76-4.44,5.14-7.04,1.61-3.03,3.71-5.22,7.46-4.99,.44,.03,.79,.23,1.06,.58-.72,1.3-2.12,2.13-2.51,3.66-.55,.54-1.18,1.01-1.4,1.81-.16,.51-.32,1-.53,1.49-3.13,7.55-9.91,10.44-16.86,12.81-8.11,2.76-16.28,5.62-25.1,4.9-2.78-.23-3.76,1.27-4.2,3.82-.71,4.08-.79,8.13-.24,12.22-.14,1.42,.1,2.98-1.36,3.94-2,.23-2.24-1.41-2.65-2.68-1.34-4.13-1.68-8.26,.14-12.41,.92-2.1,2.03-4.5-.21-6.36-1.76-1.47-3.8-2.51-6.37-1.24-2.64,1.31-5.83,1.99-5.68,5.84,.16,4.31,1.34,8.36,3.94,11.87,1.93,2.6,3.47,5.4,4.65,8.39,.5,1.26,1.52,3.09,.06,3.83-1.55,.78-2.28-1.19-2.91-2.37-1.94-3.63-4.13-7.08-6.55-10.41-1.32-1.81-2.45-2.15-4.48-1.28-7.01,3.02-14.34,4.79-21.97,5.37-2.04,.15-4.03,.8-6.05,1.16-4.96,.86-8.46,3.52-11.46,7.64-7.68,10.58-12.14,22.53-15.81,34.88-.55,1.84-.96,3.73-1.76,5.5-.22,.37-.55,.58-.97,.63-1.25-.96-.8-2.13-.4-3.29Z"/><path class="cls-74" d="M536.52,416.59c-.35-.09-1-.14-.87-.5,.31-.81,.77-1.61,1.33-2.27,5.87-7.03,9.93-15.08,13.68-23.38,3.43-7.59,7.46-14.91,11.15-22.39,1.87-3.79,3.63-7.64,5.35-11.5,.78-1.75,1.45-3.59,1.22-5.57-.2-1.73,.38-3.35,.89-4.88,3.35-9.9,3.13-20.13,2.98-30.34-.05-3.57-2.78-5.72-5.48-7.36-4.36-2.65-8.97-4.89-13.5-7.25-2.31-1.21-4.76-1.76-7.4-1.68-3.19,.11-6.41,.14-9.51-.85-.48-.15-.99-.27-1.17-1.29,2.06-.41,4.18,.05,6.22-.22,6.02-.8,11.3,1.44,16.52,3.89,.97,.46,1.79,1.1,2.78,.29,.98-.79,.66-1.76,.37-2.8-.7-2.46-1.12-4.95-1.11-7.55,.01-2.8-1.52-5.16-3.15-7.28-3.3-4.3-7.31-7.84-12.36-9.98-6.59-2.79-13.23-5.47-19.85-8.2-.01-1.51,.89-1.06,1.7-.8,7,2.39,13.92,5.06,20.56,8.26,8.04,3.86,14.07,9.79,15.96,18.97,.46,2.24,.46,4.53,1.56,6.67,.53,1.04,.61,2.56-.51,3.58-1.73,1.58-.68,2.22,.82,2.98,3.08,1.56,6.01,3.33,7.93,6.39,.91,1.45,1.5,2.9,1.51,4.65,.03,9.6-.71,19.06-2.2,28.61-1.93,12.32-7.18,23.11-12.71,33.89-2.98,5.81-5.85,11.67-8.7,17.54-2.24,4.61-4.81,9.02-7.64,13.29-1.78,2.69-3.78,5.13-6.37,7.07Z"/><path class="cls-12" d="M539.03,826.73c-1.17-1.36-1.81-2.88-1.53-4.71,1.85-4.82,5.78-7.63,9.96-10.11,4.33-2.58,9.23-3.75,13.99-5.22,2.7-.83,5.32-1.83,7.85-3.06,3.2-1.55,5.68-3.74,7.21-7.1,1.09-2.4,1.97-5.05,4.32-6.68,7.97-10.21,18.7-13.06,31.02-11.56,1.81,.22,1.8,.35,2.88,2.51-5.1-1.27-9.69,.2-14.24,2.07-3.8,1.56-7.53,3.24-10.94,5.53-3.43,2.31-6.49,5-8.13,8.96-.36,3.22-2.16,5.92-3.23,8.88-.82,2.27-3,2.95-5.14,3.48-2.72,.8-5.54,.94-8.33,1.35-8.21,1.22-14.9,5.19-20.28,11.47-.9,1.05-1.54,2.41-3.13,2.65-.76,.52-1.52,1.03-2.28,1.55Z"/><path class="cls-61" d="M445.96,783.46c-.54-.4-.51-.88-.03-1.25,2.47-1.87,5.2-3.34,8.19-4.08,1.43-.36,3.32-.76,4.18,1.41,.14,.35,.86,.55,1.34,.67,5.21,1.3,10.05,3.78,15.39,4.63,1.27,.2,2.54,.23,3.8-.16,2.93-.92,5.87-1.8,8.82-2.66,2.97-.87,3.45-1.66,2.51-4.65-.36-1.17-1.46-2.35,.44-3.17,2.69,1.68,2.64,4.24,1.71,6.68-.74,1.94-.76,3.65-.22,5.57,.58,2.07,.85,4.23,1.37,6.33,.72,2.89,1.04,5.74,.19,8.69-.28,.96-1.34,2.48,.88,3,.75,.18,.39,1.04,.08,1.62-.69,1.29-2,1.51-3.21,1.89-7.18,2.28-14.37,4.51-21.54,6.82-1.56,.5-3.04,1.25-4.56,1.88-.84,.33-1.59,.37-2.06-.58,.15-2.49,2.35-2.85,4-3.57,6.1-2.69,12.55-4.41,18.82-6.63,.36-.13,.76-.17,1.1-.33,1.09-.49,3.13-.4,2.76-2-.38-1.65-2.16-.76-3.32-.51-7.89,1.7-15.72,3.6-23.32,6.37-1.19,.43-2.36,1.04-3.71,.69-.6-.25-.97-.67-1.02-1.34,1.89-3.37,5.48-4,8.66-5.12,6.56-2.31,13.32-3.88,20.21-4.75,2.45-.31,3.09-1.32,2.59-3.52-.43-1.88-.49-3.82-.81-5.72-.63-3.73-.86-3.97-4.44-2.78-6.14,2.04-12.11,1.98-17.96-.95-1.02-.46-1.82-1.36-3-1.49-1.39-.25-2.66-.85-3.99-1.28-3.81-1.22-7.61-2.18-11.38,.25-.73,.47-1.66,.7-2.5,.03Z"/><path class="cls-62" d="M485.89,343.3c.56,.92,1.5,.76,2.36,.82-.12,1.79-1.49,1.38-2.57,1.47-1.54-.68-3.17,1.03-4.7-.17-.52-1.54,.21-2.96,.43-4.42,.53-2.58,1.14-5.14,1.96-7.65,.2-.91,.58-1.75,1.03-2.55,1.03-2.75,3.04-5.03,3.76-7.92,.07-.3,.17-.6,.29-.89,.22-.53,.47-1.06,.64-1.61,.07-.25,.18-.49,.31-.72,.09-.61-.62-.12-.7-.5-.38-.56-.51-1.19-.58-1.84-.27-4.95,.76-9.7,2.36-14.31,1.39-4,4.72-6.27,8.29-8.14,3.76-1.97,7.77-3.37,11.9-4.28,4.97-1.1,7.57-5.03,10.57-8.44,1.46-1.66,.62-3.16-1.4-3.77-1.61-.48-3.31-.27-4.96-.21-1.24,.13-2.04,1.16-3.16,1.54-.69,.21-1.34,.23-1.87-.37-.14-.31-.17-.64-.07-.97,.14-.29,.33-.56,.54-.81,.19-.25,.39-.5,.58-.75,.64-1.1,.11-2.16-.13-3.23-.23-1.07-.21-2.12,.03-3.18,.48-1.37,.48-2.81,.69-4.23,.06-.35,.14-.7,.24-1.04,.54-1.54,.22-3.18,.54-4.75,.1-.35,.25-.67,.46-.96,.28-.23,.61-.33,.97-.28,.46,.35,.46,.87,.47,1.37,.15,1.16,1.43,.52,1.9,1.18h.03c.72,.67,1.75,.16,2.51,.69,.23-.15,.43-.12,.59,.11,.49,.43,1.13,.4,1.71,.56l-.02-.02c.23,.36,.19,.68-.15,.95-1.87-.35-3.75-.7-5.68-1.06-1.67,3.41-1.22,7.01-1.28,10.53-.02,1.17,.2,1.88,1.77,1.64,8.25-1.26,15.3,1.48,21.48,6.79,.71,.61,1.69,.4,2.41,1.01-1.24,1.27-2.84,1.52-4.28,1.78-6.96,1.26-13.51,3.48-19.76,6.89-3.43,1.87-7.43,2.67-11.13,4.04-2.85,1.05-5.69,1.97-8.2,3.97-3.94,3.14-4.38,7.44-4.08,11.66,.37,5.17-.56,9.97-2.72,14.47-2.17,4.52-4.07,9.09-5.33,13.93-.7,2.69-.55,2.99,1.96,3.68Z"/><path class="cls-31" d="M404.82,479.54c-1.3-.58-1.22-1.94-1.33-2.93-.65-5.74-.99-11.5,.4-17.2,1.47,2.91,1.56,5.17,.26,8.88,1.59-1.11,3.08-.55,4.52-.03,4.14,1.52,8.02,.95,11.82-1.14,6.02-3.32,12.4-5.42,19.32-5.78,1.57-.08,3.09-.45,4.08,1.21,.55,2.26,1.03,4.53,.59,6.87-.67,1.01-1.78,1.17-2.73,.89-6.07-1.81-11.65-.22-16.9,2.62-6.24,3.37-12.8,5.52-19.81,6.38l-.23,.22Z"/><path class="cls-76" d="M442.11,720.94c.68,.54,.79,1.29,.74,2.07-.48,7.67,1.22,15.27,.75,22.93-.1,1.7,.23,3.18,1.24,4.68,1.42,2.11,2.44,4.49,3.14,6.97,.17,.6,.34,1.32-.53,1.56-.58,.16-.93-.29-1.24-.7-.61-.79-.74-1.92-2-2.6-2.26,4.5-3.1,9.22-3.17,14.2-.05,3.66,1.5,6.95,1.99,10.48,.2,1.39,.63,2.7,.29,4.13-.24,1.02,.57,.89,1.18,.93,4.32-1.67,8.44-1.62,12.21,1.43,.11,2.04-1.54,1.71-2.71,2.02-2.59,.17-5.05-.54-7.53-1.17-1.51-.38-3.02-.45-4.5,.14-.34,.16-.66,.37-1.02,.49,.53,.14,.8-.4,1.26-.48,1.97-.51,3.86-.16,5.68,.53,1.29,.49,3.05,.94,2.72,2.7-.35,1.82-2.16,1.56-3.51,1.36-2.94-.44-5.87-.51-8.83-.22,2.32-.1,4.64-.21,6.85,.65,1.34,.52,2.89,1.22,2.43,2.94-.41,1.54-2.01,1.27-3.29,1.17-.51-.04-1.02-.13-1.52-.26-4.45-1.19-8.81-1.6-12.77,1.48-.69-.07-1.23-.3-1.11-1.15,.98-2.49,3.28-3.86,4.95-5.75,1.36-1.53,2.86-2.94,4.39-4.3,2.8-2.49,4.09-5.05,2.39-8.98-3.22-7.45-1.4-14.81,1.44-21.97,.78-1.97,1.49-3.81,.28-5.87-.3-.51-.32-1.24-.3-1.86,.28-7.31-.69-14.57-.8-21.86-.03-1.9-.46-3.79-.71-5.68,1.74-.12,.96,1.02,1.18,1.68,.28-.36-.21-1.25,.42-1.7Z"/><path class="cls-65" d="M565.39,767.37c-.14,.6,.12,1.3-.61,1.97-2.38-2.99-4.14-6.21-4.83-10.47-1.39,2.43,.07,5.47-2.35,7.09-.33-1.15-.22-5.23,.37-7.47,.95-3.61,1.5-7.26,1.27-11-.15-2.46,.53-4.85,.91-7.2,.68-4.18,.13-8.44,1.2-12.55,.27-1.05,.22-2.02-.3-2.97-1.16-2.14-1.98-4.42-2.7-6.78-1.07,.57-.21,1.74-1.28,2.55,.02-4.25-1.04-8.12-.92-12.17,.21-6.93,.28-13.87,.03-20.79-.22-6.05,1.23-11.98,.88-18.01-.04-.67,.27-1.24,.83-1.64,.19,.46,.54,.93,.54,1.39-.12,7.69,.22,15.37-.36,23.07-.46,6.12-.85,12.39-.02,18.43,.51,3.7,1.79,7.78,3.8,11.04,1.92,3.11,1.64,6.17,1.29,9.15-.63,5.33-.45,10.71-1.32,16.01-.02,.13-.03,.26,0,.38,.61,2.89-1.95,5.59-.08,8.75,1.52,2.57,1.67,5.84,2.92,8.65,.36,.8,.49,1.71,.72,2.57Z"/><path class="cls-50" d="M403.9,526.64c.42,3.61-.77,7.1-.78,10.67-.02,7.54,.99,14.96,1.96,22.43,1.33,10.17,4.22,19.95,6.67,29.81,2.05,8.25,3.98,16.6,7.06,24.61,1.73,4.5,2.2,9.41,2.63,14.24,.45,.52,.39,1.08,.12,1.66-.37,.25-.73,.25-1.09-.02-1.81-5.83-2.57-11.92-4.47-17.74-3.82-11.66-6.79-23.57-9.57-35.51-2.16-9.31-3.78-18.72-4.73-28.28-.82-8.25,.28-16.32,.82-24.47,.01-.2,.31-.37,.47-.56,.4-.28,.77-.24,1.1,.11,.17,1.03,.42,2.07-.2,3.04Z"/><path class="cls-51" d="M541.31,825.18c2.65-3.75,5.59-7.19,9.4-9.88,4.17-2.94,8.92-4.26,13.81-5.16,2.74-.51,5.52-.81,8.29-1.2,.98-.3,1.96-.6,2.73,.43-.11,2.77-2.42,3.02-4.3,3.49-2.22,.56-4.51,.96-6.79,1.26-7.38,.97-13.05,4.94-18.03,10.14-.97,1.01-2.15,2.03-1.49,3.65,.65,1.58,2.02,2.26,3.66,2.38,4.56,.33,8.92-.7,13.17-2.17,4.98-1.72,9.61-4.2,13.98-7.14,.46-.3,.94-.57,1.42-.86,.63-.38,1.28-.72,2.05-.66,.55,.18,.98,.45,.72,1.14l-.02,.02c-.25,.25-.51,.5-.76,.75l-.02,.02c-.25,.26-.5,.51-.76,.76-4.42,4.45-10.05,6.76-15.72,9.05-4.05,1.64-8.31,2.4-12.56,2.9-2.67,.32-5.19-.58-7.47-2.76-2.14-2.06-2.19-3.82-1.32-6.15Z"/><path class="cls-73" d="M421.44,629.96c0-.51,0-1.03,0-1.54,.16,.19,.47,.38,.47,.57,.14,6.77,3.38,12.7,5.1,19.04,.19,.7,.81,1.36,.05,2.33-2.03-2.11-2.4-4.91-3.4-7.4-.26-.14-.32-.67-.75-.43-.06,.03,.04,.41,.02,.64,1.11,8.82,1.03,17.81,3.2,26.46,1.45,5.78,2.25,11.75,4.69,17.3,.96,2.19,1.31,4.65,1.94,6.98,1.51,5.57,4.29,10.65,6.15,16.08,1.23,3.6,2.8,7.11,3.17,10.96v2.65c-1.1-.89-.55-2.26-1.6-2.64-1.95-7.43-5.34-14.33-7.8-21.57-4.27-12.57-8.41-25.17-9.76-38.49-.64-6.34-1.43-12.66-1.96-19-.18-2.13,.26-4.3,.41-6.46-.49-1.83-.57-3.67,.05-5.49Z"/><path class="cls-67" d="M434.94,831.04c-3.57,2.05-7.43,3.4-11.39,4.38-2.83,.7-5.63-.4-8.22-1.37-5.5-2.07-10.85-4.51-16.31-6.7-1.67-.67-3.13-1.69-3.5-3.31-1.19-5.13-1.75-10.27,2.6-14.46,.84-.02,1.02,.57,1.12,1.23-.89,5.74,.5,7.8,6.41,9.44,3.25,.9,6.58,.5,9.88,.55,3.95,.07,7.89,.02,11.84,0,1.63,.24,3.52-.35,4.69,1.4-.46,2.2-2.29,2.2-3.9,2.22-7.17,.11-14.33,.58-21.5,.02-2.66-.21-4.79-1.69-7.68-2.62,.77,2.06,2.31,2.6,3.71,3.2,4.36,1.87,8.76,3.68,13.08,5.63,4.47,2.02,8.9,2.18,13.41,.16,1.28-.57,2.58-1.16,4.05-1.16,.83,.15,1.72,.22,1.72,1.39Z"/><path class="cls-63" d="M443.31,462.71c-.43-.55-1.01-.77-1.68-.7-6.98,.81-13.85,2.03-19.99,5.73-4.83,2.91-9.75,3.45-14.91,.97-.43-.21-.95-.31-1.43-.3-.33,0-.65,.28-1.12,.51-.65-3.23,.22-6.4-.29-9.51,.6-3.54,.72-7.16,1.67-10.65,.81-.65-.1-2,1.04-2.52,.43,0,.75,.18,.97,.55,1.15,4.12-.31,8.09-.78,12.09-.61,5.29,.25,6.59,5.57,7.25,2.9,.36,5.56-.3,8.11-1.68,3.84-2.06,7.74-3.96,12.16-4.46,.58-.14,1.17-.26,1.75-.38,2.37-.34,4.74-.43,7.11,0,.54,.14,1.05,.35,1.61,.45,.38,.03,.72,.15,1.03,.36,.53,1.05,1.18,2.14-.82,2.28Z"/><path class="cls-97" d="M398.84,810.45c-.24-.29-.47-.59-.71-.88,2.77-3.62,6.73-5.45,10.88-6.75,4.98-1.56,10.08-2.77,15.14-4.07,1.61-.41,3.24-.71,4.71-1.54,.27,.28,.54,.56,.81,.83,.63,.26-.94,.82,.16,1.04,3.98,.79,8.06,1.28,11.61,3.53,1.11,.7,2.37,1.05,3.59,1.49,1.71,.69,3.01,1.93,4.28,3.2,.77,.77,1.27,1.73,.51,2.73-.7,.93-1.7,.46-2.44,.06-2.47-1.36-5.08-2.43-7.6-3.67-4.41-2.16-9.12-3.34-13.87-4.42-1.68-.38-3.31-.08-4.93,.34-6.81,1.74-13.77,3.06-19.62,7.38-.71,.53-1.54,.94-2.51,.72Z"/><path class="cls-84" d="M407.1,446.47c-.26,0-.51,0-.77,0-.23,.38-.46,.36-.7,0-.53-1.45-.76-2.93-.74-4.49,.11-7.63-.01-15.25-.91-22.84-.27-2.31,.26-4.58,.71-6.8,.41-2.02-.27-2.51-2.04-2.5-.61,0-1.23-.2-1.85-.31,3.66-.02,7.31-.04,10.97-.05,0,.26,.02,.68-.1,.72-4.56,1.37-4.2,5.02-4.13,8.64,.13,6.5-.18,13.01,.61,19.51,.32,2.68,.88,5.63-1.06,8.12Z"/><path class="cls-92" d="M434.94,831.04c-.41-.57-1.07-.6-1.67-.73,.29-1.75,1.93-1.86,3.1-2.45,7.7-3.91,15.87-6.88,23.22-11.5,1.13-.71,2.41-1.57,3.89-.64,.37,.77,1.13,.81,1.82,.97-9.8,5.48-19.66,10.8-30.37,14.35Z"/><path class="cls-34" d="M455.97,247.69c-1.22,1.4-.54,3.08-.67,4.63-.13,1.6-.13,3.21-.18,4.82-.98-1.25-.5-2.71-.49-4.06,.03-5.6-.1-11.14-1.47-16.65-.93-3.72,.6-7.45,1.16-11.14,.31-2.05,.46-4.01-.04-6.01,1.61,.39,.58,2.36,1.79,2.99,2.21,1.17,5.22-.6,7.07,1.9-1.19,2-2.94,1.28-4.6,.92-.12-.02-.23-.09-.34-.14-.12,.32,.24,.19,.32,.34,.1,.32,.09,.61-.04,.92-1.52,.8-2.26,2.02-2.09,3.75-.13,.54-.33,1.05-.55,1.55-.63,4.53,1.13,8.89,.97,13.39-.1,.66-.4,1.27-.44,1.95-.03,.33-.16,.6-.39,.84Z"/><path class="cls-52" d="M403.9,526.64c0-1.03,0-2.06,0-3.09-.27-.23-.52-.49-.75-.77-.22-.78-.26-1.55,.05-2.32,.76-1.27-.04-2.79,.62-4.07,.04-4.1,.99-8.07,1.63-12.09,.7-4.39,.99-8.85,2.38-13.11,1.35,1.59,.83,3.4,.44,5.09-1.2,5.22-1.65,10.52-2.04,15.84-.07,.89-.11,1.79-.3,2.65-.68,3.11-1.49,6.19-1.27,9.42,.06,.89,.07,1.81-.75,2.45Z"/><path class="cls-33" d="M523.91,226.98c.8-.42,.99-1.7,2.19-1.55-.59,1.04-.57,2.17-.6,3.32-.17,5.58-2.43,10.34-5.88,14.59-.62,.76-1.37,1.53-2.52,1.55,0,0-.21-.18-.21-.18-.4-.77-.26-1.61,.22-2.17,3.46-4.05,4.55-9.05,5.79-14,.16-.62,.46-1.19,1.01-1.58Z"/><path class="cls-68" d="M604.46,802.02c.41,.36,.81,.72,1.22,1.08-2.38,2.52-5.59,3.71-8.52,5.37-.72,.35-1.06-.09-1.33-.66,1.89-3.39,4.96-5.03,8.63-5.79Z"/><path class="cls-107" d="M596.12,807.51c.35,.32,.7,.64,1.04,.96-3.16,2.01-6.32,4.02-9.48,6.03-.78,.29-1.02-.2-1.18-.81,2.17-3.68,5.41-5.68,9.61-6.18Z"/><path class="cls-91" d="M513.81,260.85c0-.5,0-1.01,0-1.51-.42-.33-.99-.49-1.22-1.03-.32-2.24,.35-4.48,.01-6.71-.02-.73,.54-1.54-.25-2.19,.48-1.01,1.4-.83,2.25-.85,.49,4.09,.48,8.18,.09,12.28-.29,.33-.58,.35-.88,.02Z"/><path class="cls-93" d="M385.71,349.32c-.04-.9,.06-1.85-.9-2.41,.3-2.52,.48-5.07,1.55-7.43-.42-.94,.28-1.32,.88-1.74h-.02c.26,0,.62-.05,.71,.1,1.35,2.33-.07,9.57-2.23,11.49Z"/><path class="cls-98" d="M579.93,820.61c-.33-.3-.66-.6-.99-.9,.77-2.92,2.96-3.95,5.68-4.28,.4,.1,.72,.31,.97,.64-1.66,1.8-3.42,3.47-5.66,4.54Z"/><path class="cls-72" d="M520.73,263.97c.05-.32,.1-.64,.15-.95,1.94,.13,3.69,.89,5.43,1.67-.65,.09-1.32,.14-1.71,.8-1.31-.45-2.42-1.44-3.88-1.51Z"/><path class="cls-93" d="M383.1,354.11c-.24,2.05,.91,4.32-.97,6.11-.12-2.11,.15-4.15,.97-6.11Z"/><path class="cls-32" d="M386.97,337.93c-.29,.58-.58,1.16-.88,1.75-.83-1.63-1.13-3.26,.06-4.86,.29,1.03-.33,2.31,.81,3.12Z"/><path class="cls-88" d="M421.44,629.96c-.02,1.83-.03,3.66-.05,5.49-1.15-1.66-.72-3.58-.91-5.4,.32-.03,.64-.06,.96-.09Z"/><path class="cls-19" d="M585.59,816.07c-.43-.08-.86-.17-1.28-.25,.22-1.46,.88-2.4,2.54-2.18,.28,.29,.56,.58,.83,.87-.7,.52-1.39,1.04-2.09,1.56Z"/><path class="cls-93" d="M384.56,347.09c.05,1.37,.68,2.86-.84,3.89-.09-1.38,.11-2.69,.84-3.89Z"/><path class="cls-88" d="M403.81,516.39c0,1.39,.6,2.87-.62,4.07,.19-1.36-.27-2.82,.62-4.07Z"/><path class="cls-93" d="M383.75,350.91c.14,1.14,.48,2.33-.65,3.22,0-1.12-.26-2.29,.65-3.22Z"/><path class="cls-72" d="M518.61,262.37c-.91,.04-1.86,.23-2.51-.68,.89,.01,1.8,0,2.51,.68Z"/><path class="cls-72" d="M513.81,260.85l.88-.02c.52,.19,1.1,.27,1.39,.84-.84-.04-1.75,.12-2.27-.82Z"/><path class="cls-32" d="M405.64,446.48c.23,0,.46,0,.7,0-.05,.83,.15,1.75-.78,2.28,.03-.76,.05-1.52,.08-2.29Z"/><path class="cls-68" d="M606.98,802.21c.23-.69,.74-.9,1.41-.84-.28,.6-.78,.84-1.41,.84Z"/><path class="cls-68" d="M609.35,800.76c.17-.74,.68-.97,1.38-.92-.24,.63-.73,.9-1.38,.92Z"/><path class="cls-72" d="M520.91,263.04c-.68,.15-1.3,.1-1.71-.56,.67-.11,1.28-.06,1.71,.56Z"/><path class="cls-68" d="M610.79,799.8c.11-.44,.38-.67,.84-.68-.15,.38-.36,.7-.84,.68Z"/><path class="cls-68" d="M608.47,801.32c.16-.41,.44-.63,.9-.57-.12,.47-.46,.59-.9,.57Z"/><path class="cls-68" d="M606.16,802.83c.11-.43,.37-.65,.82-.62-.09,.45-.36,.66-.82,.62Z"/><path class="cls-98" d="M579.15,821.37c.03-.47,.29-.72,.76-.75-.07,.44-.29,.72-.76,.75Z"/><path class="cls-98" d="M578.38,822.15c.04-.47,.28-.72,.76-.76-.04,.47-.3,.7-.76,.76Z"/><path class="cls-88" d="M403.14,522.78c.25,.26,.5,.51,.75,.77-.3-.02-.6-.04-.9-.06-.07-.26-.02-.5,.15-.71Z"/><path class="cls-64" d="M405.05,479.32c-.04-.48-.8-1.21,.39-1.29,5.21-.34,10.29-1.36,14.83-3.94,2.7-1.54,5.52-2.64,8.35-3.79,4.3-1.74,8.67-1.98,13.16-.8,.73,.19,1.53,.1,2.29,.14,.78-.16,1.57-.13,2.35,.02,.25,0,.5,0,.74,.01,.19,.17,.25,.33,.2,.51-.06,.17-.12,.26-.18,.26-2.39,1.49-5.01,1.02-7.41,.41-3.44-.88-6.66-.32-9.75,.91-3.2,1.27-6.25,2.92-9.31,4.52-2.18,1.14-4.54,1.78-6.86,2.47-3.64,1.09-3.72,1.01-3.7,4.53,.01,2.19-.27,4.27-1.52,7.12,0-2.82,.03-4.79,0-6.76-.06-4.11,.36-3.66-3.59-4.31Z"/><path class="cls-11" d="M456.63,787.31c-3.89-1.68-7.98-1.88-12.13-1.71-.41-1.32,1.15-1.3,1.46-2.14,5.12-3.69,10.39-3.14,15.75-.58,.81,.39,1.64,.75,2.58,.63,1.34,.63,1.22,1.61,.31,2.38-2.19,1.86-4.05,4.23-7.1,4.84-1.1-.18-2.21-.35-2.61-1.64,.05-1.1,2.3-.07,1.73-1.78Z"/><path class="cls-28" d="M422.94,643.17c-1.17-.72-.87-1.7-.48-2.74,1.1,.53,1.31,1.46,1.2,2.53-.25,.06-.49,.13-.72,.21Z"/><path class="cls-5" d="M468.61,652.35c.02-.55,.3-1.04,.81-1.05,.67-.01,.55,.61,.53,1.07-.45,0-.9-.02-1.35-.02Z"/><path class="cls-83" d="M447.17,470.44c-.01-.25-.02-.51-.01-.76,.25,0,.51,0,.76,0-.25,.25-.5,.5-.75,.76Z"/><path class="cls-29" d="M458.07,468.09c-2.18-1.05-4.53-.32-6.79-.62-3.95-.52-3.83-.42-4.01-4.22-.23-4.76,.65-9.39,1.27-14.06,1.11-8.36,1.08-16.8,1.88-25.18,.22-2.28,.31-4.6,.84-6.8,.99-4.09,.69-8.12-.3-12.09-.54-2.15-.64-4.29-.57-6.44,.08-2.35-.54-5.19,1.57-6.79,2.67-2.04,5.38-4.49,9.25-3.92,2.18,1.15,4.47,1.96,6.9,2.38,1.35,1.12,2.99,1.67,4.58,2.3,.75,2.52,.49,5.11,.15,7.61-2.39,17.34-4.78,34.65-4.65,52.24,.04,5.19-.63,10.44-.61,15.68,0,.73,.08,1.63-1.12,1.49-2.58-1.6-5.49-1.5-8.36-1.59Z"/><path class="cls-81" d="M531.41,353.35c-.07,.68-.45,1.32-1.08,1.33-.59,0-.45-.7-.39-1.16,.49-.05,.98-.11,1.47-.16Z"/><path class="cls-23" d="M523.91,226.98c-.88,5.52-1.6,11.09-5.71,15.43-.59,.63-.88,1.53-1.31,2.31-4.66,.19-6.85,3.32-8.42,7.13-2.51,6.06-8.38,7.56-13.59,9.73-4.35,1.81-8.94,3.33-13.58,4.14-6.98,1.23-14.05,1.44-20.68-1.97-2.21-1.13-3.62-2.89-3.8-5.41-.15-2.17-.13-4.36-.16-6.54-.02-1.41,.1-2.84-.7-4.11,0-.27,0-.53,0-.8-.16-.16-.22-.32-.16-.48,.05-.16,.11-.24,.16-.24,.07-3.45-.74-6.81-1.15-10.21-.21-1.75-.84-3.49,.36-5.13,2.27,.44,4.49,.52,6.75-.23,3.32-1.1,3.61-1.78,1.69-4.71-.28-.43-.53-.86-.53-1.39-1.5-1.31-3.31-.55-4.97-.69-1.09-.09-1.97-.2-2.02-1.54,2.86-1.52,5.68-.86,8.52,.1,.99,.33,2.32,1.45,2.86-.19,.4-1.19,1.17-3.07-1.28-3.57-.58-.12-1.12-.6-1.62-1-2.58-2.05-5.28-2.19-8.07-.5-1.39-2.05-1.38-3.73,.42-5.53,1.36-1.35,1.85-3.32,2.53-5.12,.45-1.18,.91-2.31,2.28-2.91,5.47-2.39,9.78-6.37,13.9-10.56,1.87-1.91,3.34-2.02,5.94-1.29,3.45,.97,7.05,1.27,10.4-.43,1.23-.63,2.08-.59,3.1,.27,1.77,1.49,3.43,2.98,4.35,5.22,.67,1.64,1.71,3.14,2.67,4.65,.69,1.08,1.51,2.52,2.65,2.67,4.19,.57,6.37,3.96,9.17,6.34,3.01,2.56,4.7,6.02,3.49,10.2-.92,3.17-.25,6.04,1.36,8.99,1.56-.48,2.5-1.7,3.59-2.69,.6-.54,1.07-.58,1.57,.07Z"/><path class="cls-32" d="M475.77,394.19c6.97,4.04,14.02,7.95,20.9,12.15,8.49,5.18,17.54,8.94,27.25,10.99,2.12,.45,2.76,1.38,2.75,3.34-.05,13.48-.08,26.95-.06,40.43,0,1.76-.61,2.5-2.45,2.57-4.47,.15-8.84,1.15-13.24,1.89-3.39,.56-6.83,.83-10.26,1.1-1.66,.13-3.29,.13-4.93,.59-3.2,.88-6.34-.45-9.5-.73-3.92-.35-7.75-1.49-11.65-2.13-1.47-.24-1.96-.9-1.95-2.26,.07-7.92-.49-15.88,1.3-23.71,.22-.99,.23-2.03,.24-3.05,.04-5.78,.14-11.55,.06-17.33-.07-4.63,.44-9.17,1.37-13.68,.28-1.33,.66-2.8-.5-4.01-.95-2.18-.6-4.21,.69-6.14Z"/><path class="cls-32" d="M519.33,475.92c-7.89-.91-15.81-.77-23.74-.79-3.47,0-6.91,.49-10.23,1.14-3.32,.65-6.33-.13-9.46-.51-.99-.12-1.55-.8-1.74-1.78-.15-.75-.35-1.49-.52-2.24-1.04-4.62-.4-5.34,4.09-4.02,10.44,3.06,20.89,2.36,31.48,.87,5.17-.72,10.29-1.67,15.44-2.43,1.61-.24,2.72,.91,2.55,2.92-.15,1.77-.74,3.48-.7,5.3,.02,1.1-.76,1.54-1.78,1.55-1.79,0-3.59,0-5.38,0Z"/><path class="cls-58" d="M466.43,469.68c1.15-.4,.95-1.35,.9-2.24-.57-11.16-.71-22.35,.28-33.46,.97-11.04,2.19-22.08,3.98-33.04,.45-2.75-.28-5.65,1.08-8.29,.64-.04,1.22,.06,1.6,.65,.91,2.95-.09,5.86-.18,8.8-.88,1.93-.39,4.06-.9,6.05-.13,1.53-.22,3.06-.6,4.55-.98,9.24-1.51,18.52-1.84,27.79-.16,4.46-.67,8.88-.88,13.33-.05,1.03-.26,2.03-1.08,2.77-1.19,.97-.76,2.32-.78,3.53-.05,2.9,.03,5.8-.02,8.71-.02,.97-.29,1.94-1.55,.84Z"/><path class="cls-8" d="M468.78,456.6c.54-11.98,.73-23.98,2.43-35.89,.41-2.89,.54-5.82,.79-8.73,1.48-.08,.99,.81,.78,1.57-.31,5.24,.21,10.48,.03,15.73-.21,6-1.13,11.92-1.59,17.87-.38,4.84-.17,9.74-.04,14.61,.04,1.23,.89,2.42-.34,3.53-.46,.42-.09,.77,.18,1.25,1.27,2.26,.8,4.94,1.58,7.35,.09,.28-.15,.95-.34,1-.46,.1-1.04,.07-1.46-.14-.74-.36-.98-1.14-1.1-1.91-.62-3.87-.5-7.78-.53-11.68-.01-1.52,.32-3.08-.4-4.55Z"/><path class="cls-40" d="M473.41,401.76c.08-2.7,.15-5.39,.27-8.09,0-.13,.38-.25,.59-.37,.5,.3,1,.59,1.5,.89,.63,2.14-.72,4.07-.69,6.14-.07,.43-.15,.87-.22,1.3-.37,.81-.01,1.79-.59,2.55v.06c-.4,.25-.74,.2-1.04-.15-.15-.79-.26-1.58,.19-2.33Z"/><path class="cls-25" d="M472.79,413.54c-.24-.53-.04-1.28-.78-1.57,.21-1.3,.42-2.6,.63-3.91,.16-.24,.38-.36,.68-.34,.11,.08,.22,.16,.33,.24-.64,1.8,.53,3.89-.87,5.58Z"/><path class="cls-58" d="M473.51,404.34c.25-.03,.5-.06,.75-.09-.11,1.26,.46,2.63-.62,3.73,0,0-.33,.1-.33,.1-.26-1.26-.55-2.52,.19-3.73Z"/><path class="cls-32" d="M474.27,404.19c.1-.87-.32-1.87,.59-2.55,.17,.93,.35,1.87-.59,2.55Z"/><path class="cls-88" d="M547.05,627.13c.88,.48,.86,.97,.03,1.49-.41-.49-.42-.98-.03-1.49Z"/><path class="cls-99" d="M547.05,627.13c0,.5,.02,.99,.03,1.49-.92-.48-.88-.97-.03-1.49Z"/><path class="cls-85" d="M526.76,802.02c-.12-.12-.25-.24-.37-.36,.08,.02,.19,0,.23,.06,.07,.08,.09,.2,.14,.31,0,0,0,0,0,0Z"/><path class="cls-32" d="M385.71,349.32c1.16-3.59,1.52-7.32,2.01-11.03,.02-.16-.32-.37-.49-.55-.08-3.13,1.04-6.11,2.01-8.91,2.62-7.59,5.09-15.28,8.91-22.4,2.54-4.73,5.64-9.11,8.88-13.38,2.99-3.96,7.67-4.33,11.97-5.27,5.22-1.15,10.62-1.24,15.82-2.62,3.71-.99,7.28-2.37,10.82-3.83,2.5-1.03,2.3-.95,3.83,1.08,3.37,4.48,6.22,9.26,9,14.13-.6-3.99-2.27-7.48-4.72-10.58-3.05-3.86-4.44-8.31-4.65-13.11-.16-3.69,.9-4.87,4.47-6.02,.12-.04,.28-.03,.36-.11,3.21-3.07,6.24-1.14,9.31,.29,.65,.3,1.15,.65,1.13,1.36-.05,1.89,.5,3.83-.53,5.64-2.98,5.21-1.9,10.28,.58,15.3,1.2,.49,1.8,1.47,2.2,2.64,.38,1.36,.33,2.73,.04,4.1-.61,1.67-.42,3.45-.7,5.17-.05,.4-.15,.79-.27,1.17-.02,6.6-3.01,12.04-6.87,17.05-2.38,3.09-3.18,6.33-2.93,10.26,.37,5.75,1.54,11.81-2.84,16.82-1.53,.95-3,.29-4.42-.25-4.12-1.58-8.47-2.01-12.78-2.64-2.38-.35-4.58,.34-6.65,1.47-1.7,.93-3.16,2.17-4.63,3.42-1.29,1.09-2.4,3.32-4.43,2.19-2.13-1.18-.74-3.3-.74-5.15,0-4.79,1.89-9.32,1.44-14.12,.29,4.22-1.43,8.21-1.24,12.43,.04,.87,.12,2.02-.93,2.29-1.18,.31-1.32-1.05-1.99-1.79,1.01,4.09,2.84,7.8,3.31,11.95,.31,2.72-.53,4.18-3.13,4.73-6,1.25-11.27,4.07-16.25,7.57,9.27-6.87,20.19-8.1,31.16-9.53,10.9-1.43,21.81-2.96,32.56-5.35,1.3-.29,2.37-.91,3.34-1.79,8.05-7.3,18.83-4.18,24.1,.94,2.99,2.9,3.83,6.54,2.84,10.58,1.35-6.26-.26-10.04-5.69-13.35-1.43-.87-2.94-1.57-4.42-2.35-.77-.4-1.84-.86-1.6-1.88,.24-1.02,1.4-.89,2.27-1,1.07-.11,2.27,.31,3.09-.78,4.24-.03,8.12,1.55,12.12,2.62,1.33,.36,2.76,1.11,3.24-1.06l.03-.03c5.5,.72,8.45,5.01,11.84,8.61,2.54,2.7,3.99,6.2,6.14,9.2,.48,.68,.65,1.49,.33,2.19-.59,1.27-1.38,2.44-2.06,3.67-.81,1.47-2.23,.91-3.44,1.08-.88,.13-1.74,.4-2.62,.53-3.26,.45-6.44,.89-9.77-.2-3.18-1.03-6.62-.27-9.95-.45-1.03-.05-2.25,.47-2.46-1.46-.14-1.31-1.38-.59-2.19-.34-5.55,1.66-10.88,3.9-15.83,6.87-11.5,6.91-22.9,13.98-34.14,21.31-6.3,4.12-13.05,7.62-20.54,9.27-3.11,.69-6.22,1.77-9.36,1.88-10.84,.37-18.76-3.1-24.09-13.54-1.51-2.97-2.39-6.43-2.26-10.01,.18-5.13,.21-10.27,.02-15.4-.12-3.24,.97-6.32,.86-9.53,.94-1.15-.12-2.7,.76-3.86,.01-.25,.02-.51,.03-.76,.83-.89-.05-2.19,.74-3.1,.02-.77,.03-1.53,.05-2.3Z"/><path class="cls-32" d="M407.1,446.47c-.02-10.38-1.23-20.73-.73-31.11,.04-.77,.06-1.54,0-2.31-.15-1.88,.46-2.96,2.57-2.81,.99,.07,2.09,.23,2.84-.74,6.61-.74,12.98-2.17,19.05-5.14,5.14-2.52,10.06-5.4,14.81-8.57,1.19,1.02,.78,1.99,.5,2.95-.64,2.26-.74,4.59-.05,6.81,2.08,6.71,1.16,13.41-.04,20.07-.92,5.15-1.6,10.3-1.92,15.51,1,5.63,.89,11.28,.24,16.94-.1,.89-.32,1.75-1.06,2.37h0c-.26,.24-.53,.24-.8,.01-2.81,0-5.63-.02-8.44-.02-.26,.24-.52,.48-.79,.71-4.94,.06-9.01,2.59-13.2,4.71-1.99,1.01-3.98,1.48-6.22,1.55-2.85,.09-5.17-1.25-7.67-2.14-.73-.26-1.22-.75-1.07-1.75,.54-3.65,1-7.31,1.48-10.96,.27-2.03,.44-4.03,.5-6.07Z"/><path class="cls-83" d="M443.32,460.42c-.33-6.46,1.33-12.83,.82-19.3,1.55,1.52,.09,3.68,1.51,6.07,0-3.17-.02-5.6,.02-8.03,.06-3.5,.55-6.95,1.37-10.36,1.05,.44,.15,1.67,.89,2.23,0,2.34,.02,4.68,.03,7.03h0c-1.6,2.71-.38,5.68-.76,8.5,.42,.51,.42,1.02-.01,1.53-1.11,5.12-1.84,10.27-1.6,15.54,.09,2.05,.11,4.08,.82,6.03-.79,.96-1.58,.99-2.35-.02-.16-2.32-1.16-4.55-.75-6.93,1-.76,.97-1.53,0-2.29Z"/><path class="cls-38" d="M448.77,394.11c.78,3.11-.71,6.24,.19,9.39,.48,1.67,.52,3.47,.76,5.21-.06,.83,1.07,2.1-.83,2.26-1.23-4.12-2.06-8.3-1.61-12.63,.16-1.5-.16-3.23,1.56-4.16l-.07-.07Z"/><path class="cls-106" d="M448.74,429.54c-.19,.07-.39,.14-.59,.2-1.1-.83-.16-2.14-.72-3.09,.28-2.1,.56-4.21,.9-6.8,.84,1.72,.65,3.06,.61,4.39,.21,1.78,.54,3.56-.19,5.3Z"/><path class="cls-101" d="M448.89,410.97c1.09-.46,.59-1.49,.83-2.26,1.17,2.08,.55,4.18,.3,6.82-1.6-1.63-.91-3.2-1.13-4.56Z"/><path class="cls-3" d="M448.74,429.54c.15-1.76-.26-3.55,.19-5.3,1.2,2.21,.35,4.54,.57,6.91-1.05-.35-.6-1.1-.76-1.61Z"/><path class="cls-37" d="M447.43,426.65c.85,.89,.45,2.07,.72,3.09-.07,.43-.15,.86-.22,1.29-1.28-.35-.63-1.48-.89-2.23,.13-.71,.26-1.43,.39-2.14Z"/><path class="cls-32" d="M503.62,345.68c-.26-.01-.53-.03-.79-.04-.2-.26-.42-.28-.65-.05-.49-.14-1.05-.35-1.05-.91,.01-.78,.72-.51,1.16-.51,.96,0,1.29,.63,1.36,1.48,0,0-.03,.03-.03,.03Z"/><path class="cls-93" d="M384.64,355.67c-.16,1.3,.52,2.77-.75,3.86,.18-1.3-.5-2.77,.75-3.86Z"/><path class="cls-3" d="M447.97,438.05c1.08,.87,.84,1.94,.42,3.5-.63-1.4-.31-2.48-.42-3.5,0,0,0,0,0,0Z"/><path class="cls-93" d="M385.41,351.81c-.08,1.07,.35,2.26-.74,3.1,.07-1.07-.36-2.27,.74-3.1Z"/><path class="cls-80" d="M449.57,417.51c-.03,.35-.07,.72-.49,.76-.08,0-.27-.39-.3-.61-.04-.34,.05-.72,.47-.75,.09,0,.21,.39,.31,.6Z"/><path class="cls-3" d="M447.2,448.08c0-.51,0-1.02,.01-1.53,.77,.52,.76,1.03-.01,1.53Z"/><path class="cls-32" d="M514.66,373.14c-.1,.04-.21,.13-.3,.11-.32-.08-.36-.26-.09-.43,.07-.04,.23,0,.32,.06,.06,.04,.05,.17,.07,.26Z"/><path class="cls-18" d="M502.18,345.59c.12-.16,.23-.32,.35-.49,.1,.18,.2,.36,.3,.53,0,0-.33,0-.33,0l-.32-.05Z"/><path class="cls-29" d="M448.84,394.18c.24-.45-.43-.13,.04-.33,.28-.12,.37-.04,.23,.24-.23,.46,.13-.2-.33,.02,0,0,.07,.07,.07,.07Z"/><path class="cls-14" d="M586.85,813.64c-1.08,.45-1.71,1.43-2.54,2.18-1.98,1.04-3.91,2.13-5.37,3.89-.43,.36-.87,.72-1.3,1.09-.31,.14-.57,.33-.79,.6-6.24,4.34-13.02,7.48-20.41,9.35-2.79,.71-5.57,.74-8.38,.66-2.21-.06-4.64-2.14-4.98-4.09-.18-1.02,.57-1.66,1.12-2.31,4.72-5.64,10.51-9.67,17.74-11.35,2.72-.63,5.5-1.02,8.25-1.51,1.89-.34,3.78-.7,5.23-2.12,3.28-3.02,3.61-7.93,6.99-10.89,6.8-9.82,16.94-13.86,28.08-15.92,5.07-.94,7.74,2.79,5.91,7.62-1.21,3.18-3.89,4.97-6.33,7-.51,.44-1.03,.86-1.56,1.27h-.01c-.28,.25-.5,.58-.9,.66l.03-.03c-.22,.62-1.07,.38-1.32,.97l-.07,.06c-.31,.16-.57,.39-.77,.68l-.03,.02c-.3,.21-.55,.51-.94,.57,0,0-.02,0-.02,0-2.78,1.83-5.56,3.66-8.34,5.49-3.14,1.96-6.72,3.26-9.27,6.13Z"/><path class="cls-13" d="M536.08,819.45c-.56-3.03,.22-5.17,3.07-7,4.22-2.71,6.81-7.17,10.02-10.94,1.08-1.26,2.17-2.52,3.41-3.6,1.36-1.18,2.25-2.53,3.19-4.07,2.49-4.1,6.63-6.08,11.25-7.12,3.33-.75,6.76-1.05,9.99-2.27,.13-2.77,2.74-3.52,4.21-5.21,2.74-1.98,5.29-4.31,8.84-4.82,5.71-3.98,15.48-3.65,21.27,1.13-2.52,.27-4.6,.2-6.64,.13-7.97-.27-14.78,2.65-20.78,7.63-1.76,1.46-3.35,3.17-4.06,5.47-2.58,11.05-10.22,16.4-20.76,18.75-7.73,1.73-14.76,4.91-20.03,11.2-.71,.85-1.54,2.37-2.98,.72Z"/><path class="cls-86" d="M536.08,819.45c.69,.21,1.25,0,1.67-.57,5.16-7.06,12.71-10.04,20.77-12.07,3.61-.91,7.05-2.24,10.43-3.74,3.05-1.35,5.11-3.63,6.62-6.63,1.31-2.6,2.07-5.54,4.26-7.64,.33,.36,.66,.71,1,1.07-1.55,3.76-3.29,7.47-5.72,10.69-2.53,3.36-6.56,4.74-10.36,6.15-3.45,1.28-7.06,2.12-10.58,3.24-6.88,2.2-12.41,6.28-16.68,12.09,.11-1.18-1.35-1.5-1.43-2.57Z"/><path class="cls-42" d="M569.28,782.95c1.38-.85,2.5-2.22,4.45-1.8,.95,.2,1.57-.74,2.34-1.17,1.22-.68,2.21-1.8,3.7-1.95,.61-.21,.99,.06,1.23,.61,.02,.36-.07,.69-.26,.99-1.4,1.51-2.88,2.92-4.72,3.9-1.71,.09-3.43,.17-5.14,.26-.72,.08-1.69,.66-1.6-.83Z"/><path class="cls-89" d="M582.4,799.11c-.97,2.75-2.41,5.28-3.74,7.86-.73,1.4-1.77,2.44-3.24,3.03-.57-1.07-1.73-.71-2.6-1.06,2.86-.4,4.38-2.11,5.2-4.84,.72-2.42,1.86-4.72,3.41-6.76,.13,.7,.19,1.43,.98,1.76Z"/><path class="cls-69" d="M590.05,774.42c-2.83,1.8-5.65,3.61-8.48,5.41-.75,.22-.95-.12-.8-.8l-.08-.17c.65-.92,1.54-1.57,2.43-2.21l-.07,.05c.53-.35,1.14-.57,1.6-1.02,1-.48,2.07-.78,3.07-1.25,.78-1.31,1.56-.26,2.34,0Z"/><path class="cls-7" d="M580.76,779.03c.27,.27,.54,.53,.8,.8-1.22,1.84-3.53,2.6-4.57,4.62-.32-.31-.65-.62-.97-.93,1.63-1.45,2.67-3.51,4.74-4.49Z"/><path class="cls-77" d="M569.28,782.95c.36,.61,1.04,.61,1.6,.83-1.66,.88-3.39,1.49-5.71,1.42,1.29-1.47,2.69-1.88,4.11-2.25Z"/><path class="cls-104" d="M587.7,774.42c-.86,.98-1.94,1.51-3.26,1.54-.26,.28-.48,.26-.64-.1,1.13-.94,2.33-1.67,3.9-1.43Z"/><path class="cls-78" d="M583.11,776.65c-.38,1.21-1.4,1.71-2.43,2.21-.3-.28-.6-.56-.9-.84,.92-.92,2.03-1.37,3.33-1.37Z"/><path class="cls-68" d="M608.5,799.09c.34-.64,.86-1.08,1.56-1.27-.11,.93-.66,1.32-1.56,1.27Z"/><path class="cls-22" d="M583.81,775.85c.2,.13,.41,.16,.64,.1-.17,.82-.78,.79-1.41,.74-.09-.59,.32-.74,.77-.84Z"/><path class="cls-68" d="M606.29,800.68c.22-.62,.7-.9,1.32-.97-.14,.74-.64,.97-1.32,.97Z"/><path class="cls-68" d="M607.58,799.74c.1-.49,.44-.66,.9-.65-.17,.4-.44,.65-.9,.65Z"/><path class="cls-68" d="M605.45,801.42c.1-.4,.3-.69,.77-.68-.08,.43-.33,.66-.77,.68Z"/><path class="cls-68" d="M604.48,802.01c.15-.46,.51-.57,.94-.57-.18,.42-.47,.64-.94,.57Z"/><path class="cls-23" d="M512.92,250.82c1.37,2.56,.47,5.18,.18,7.78,.18,.18,.23,.35,.16,.51-.07,.16-.14,.24-.21,.24-.09,.21-.11,.42-.06,.64-.94,1.74,.27,3.78-.76,5.52v-.02c-.96,1.43,.2,3.21-.75,4.64,0,1.28-.02,2.57-.03,3.85,.45,1.3,.89,2.6-.24,3.81h-.27s-.26,.09-.26,.09c-.27,.24-.51,.51-.82,.71v-.03c-1.76,2.47-4.54,3.39-7.13,4.28-10.82,3.72-21.89,6.12-33.46,5.25-1.91-.14-3.57-.4-4.07-2.61-1.2-4.99,.14-9.85,.64-14.77,.19-1.92,.97-2.4,2.7-2.21,9.73,1.03,18.74-2.09,27.75-5.02,2.91-.95,5.52-2.64,8.45-3.65,1.93-.66,3.16-2.55,4.36-4.23,1.11-1.57,2.17-3.17,3.26-4.76,.18-.35,.37-.34,.57-.02Z"/><path class="cls-72" d="M465.19,285.47c.91,1.21,2.1,1.54,3.62,1.64,11.38,.74,22.29-1.51,33-5.01,2.78-.91,5.18-2.76,8.03-3.55,.33,.6,.86,.81,1.51,.78,.07,.19,.14,.38,.21,.56-.86,1.99-2.79,2.52-4.53,3.28-11.11,4.87-22.76,6.84-34.85,6.49-1.44-.04-3.52-.97-4.09,1.57-.05,.38-.18,.73-.37,1.06-.93,.69-1.32-.09-1.79-.66-.83-.56-1.08-1.5-1.52-2.32,1.27-1.08,.59-2.55,.78-3.85Z"/><path class="cls-6" d="M512.92,250.82c-.19,.02-.38,.02-.57,.02,0-.48,0-.95,0-1.43,1.59-.1,1.06,.66,.57,1.41Z"/><path class="cls-13" d="M398.84,810.45c3.89-3.2,8.14-5.68,13.14-6.71,1.62-.34,3.29-.67,4.79-1.34,5.27-2.35,10.41-1.59,15.62,.18,5.08,1.72,10.1,3.55,14.69,6.4,.72,.45,1.42,1.07,2.72,.72-1-2.64-3.41-3.52-5.41-4.82-1.29-1.65,.17-2.49,1.12-3.28,1.24-1.04,2.51-2.04,3.62-3.21,5.89-4.41,11.46-9.25,17.56-13.38,1.32,.46,2.64,.96,3.97,1.39,4.69,1.52,9.32,1.07,13.89-.55,1.55-.55,3.04-1.32,5.2-1.51-.33,5.16,2,9.94,1.48,15.23-9.87,.82-19.29,3.29-28.41,6.97-1.43,.57-2.81,1.2-4.02,2.17-1.2,2.04-3.45,2.53-5.33,3.55-3.82,2.07-7.65,4.11-11.47,6.17-4.75,2.57-9.72,3.59-15.03,3.36-2.04-.2-4.07-.17-6.11,.07-4.85,.55-9.69-.08-14.52-.37-3.29-.19-5.85-2.35-8.36-4.35-.82-.65-.94-1.43-.72-2.38,.35-1.49,.83-2.94,1.56-4.29Z"/><path class="cls-15" d="M463.49,815.71c-4.47,1.61-8.25,4.53-12.54,6.49-5.9,2.69-11.79,5.4-17.68,8.1-2.76,.98-5.51,2-8.29,2.94-1.62,.55-3.28,.66-4.9,0-6.63-2.71-13.28-5.4-19.88-8.19-2.33-.98-3.6-2.72-2.93-5.42,.22-.02,.38-.08,.45-.03,8.06,5.99,17.34,4.25,26.3,3.89,2.59-.1,5.41,.61,7.89-.86,8.16-2.89,15.59-7.27,23.2-11.3,1.46-.77,2.94-1.46,4.6-1.68,4.45-1.58,8.87-3.22,13.46-4.36,4.82-1.2,9.56-2.72,14.5-3.45,3.32-.49,3.31-.58,4.17,2.89-2.85,1.96-6.38,2.22-9.53,3.46-5,1.97-10.28,3.15-15.17,5.43-1.27,.59-2.6,1.07-3.64,2.08Z"/><path class="cls-35" d="M459.71,809.66c-4.12,2.28-8.23,4.6-12.37,6.84-3.03,1.64-6.14,3.15-9.17,4.79-1.97,1.07-4,1.72-6.26,1.35-1.44-1.39-3.3-.41-4.91-.86,.71-.68,1.61-.77,2.5-.72,3.85,.23,7.26-1.1,10.57-2.85,4.97-2.62,9.92-5.28,14.9-7.87,1.23-.64,2.57-1.1,3.85-1.64,.29,.32,.59,.64,.88,.96Z"/><path class="cls-70" d="M466.71,785.01c-2.91,3.77-7,6.18-10.6,9.14-2.05,1.68-4.22,3.21-6.33,4.8-.7,.22-1.02-.19-1.22-.77,2.01-3.67,4.97-6.26,8.89-7.73,2.23-1.74,4.42-3.54,6.72-5.19,.94-.67,.61-1.13,.13-1.75,1.31-.31,1.59,1.05,2.42,1.5Z"/><path class="cls-27" d="M514.02,277.15c1.79-.03,3.58-.1,5.38-.09,1.64,0,3.04,.59,3.82,2.12,.8,1.55-.19,2.78-1.04,3.83-3.85,4.69-8.28,8.33-14.57,9.62-5.11,1.05-9.83,3.24-13.83,6.98-2.96,2.76-2.9,6.41-4,9.72-.89,2.67-.75,5.54-.86,8.35-.63,4.77-3.81,8.5-5.21,12.96-.68,2.16-1.92,4.14-2.2,6.45-.07,.57-.19,1.12-.33,1.67-.39,1.1-.42,2.25-.41,3.4,.11,3.4-1.44,5.02-4.91,5.46-3.02,.38-6.02,1.46-8.22,3.72-2.42,2.48-4.82,2.55-7.48,.65-1.64-1.17-3.68-1.83-4.76-3.72-.7-2.98,2.1-5.14,1.89-8.01,.05-.4,.14-.79,.24-1.18,.21-.6,.41-1.23,.33-1.86-.94-7.62,1.58-14.19,6.06-20.18,.6-.8,.91-1.81,1.21-2.78,.64-1.42,1.39-2.81,1.39-4.44,.06-.62,.17-1.22,.33-1.82,.93-3.74-.45-7.67,.94-11.37,.89-1.21,2.18-1.03,3.47-1.09,12.51-.55,24.63-2.83,36-8.31,4.2-2.02,6.92-5.1,6.75-10.08Z"/><path class="cls-2" d="M455.8,347.9c2.02,1.33,3.98,2.75,6.07,3.96,2.46,1.43,2.66,1.35,4.48-.67,2.64-2.9,6.15-3.98,9.81-4.69,3.01-.58,3.01-.51,3.28-3.66,.03-.37,.19-.73,.29-1.1,.34-.23,.68-.24,1.01,.02,1.07,1.16-.32,2.6,.43,3.79,1.36-.02,2.35-2.24,3.98-.68-.52,.34-1.04,.67-1.9,1.23,2.93,1.13,5.49,2.6,8,4.16,5.4,3.35,6.53,11.7,1.89,16.75,.21-1.66,.31-2.93,.53-4.17,.9-5.06-.8-8.72-5.11-11.27-5.3-3.14-10.74-3.92-16.54-1.51-1.3,.54-2.66,.75-3.26,2.35-.5,1.32-1.94,1.74-3.12,2.03-4.45,1.08-8.9,2.4-13.49,2.59-3.36,.14-6.57,.85-9.82,1.54-5.62,1.2-11.33,1.84-17.04,2.34-9.95,.87-18.86,4.32-26.96,10.42-.71-1.92,.68-2.79,1.68-3.51,5.01-3.58,10.29-6.65,16.5-7.72,2.59-.45,2.52-.65,2.38-3.52-.18-3.81-1.96-7.13-2.9-10.71-.37-1.43-1.5-2.77-.75-4.41q1.91,1.39,3.31,4.43c.63-3.32,0-6.33,.89-9.23,.83-2.72-.74-5.91,1.36-8.45,1.28,.1,1.09,1.01,1.12,1.72,.11,3.21,.08,6.43-.94,9.51-.94,2.83-.44,5.85-1.34,8.68-.27,.84-.03,1.8,1.03,2.4,2.45-1.32,3.93-3.86,6.34-5.37,3.42-2.15,6.74-2.77,10.87-2.31,5.16,.57,9.87,2.47,14.85,3.47,.45,.02,.85,.2,1.25,.4,.66,.31,1.34,.58,1.81,1.18Z"/><path class="cls-57" d="M514.02,277.15c1.54,2.65,1.47,3.77-.38,6.17-2.43,3.15-5.69,5.23-9.3,6.61-10.21,3.89-20.86,5.9-31.74,6.73-1.41,.11-2.75-.79-4.18-.27-.19-.06-.38-.12-.57-.18-1.26-1.11-1.38-2.36-.49-3.75l.17-.07c3.77,1.72,7.64,1.6,11.58,.75,8.15-1.75,16.47-2.89,24.08-6.54,3.37-1.61,6.94-3.18,8.27-7.21,0,0-.1-.06-.1-.06,.92-.69,1.54-1.74,2.66-2.17Z"/><path class="cls-32" d="M525.98,277.63c3.09,1.44,6.26,2.23,8.93,4.51-4.21,1.55-8.22,3.02-12.74,4.68,3.26-3.31,3.55-4.01,3.82-9.2Z"/><path class="cls-96" d="M480.6,337.15c.27-3.64,2.13-6.72,3.55-9.94,1.44-3.25,3.16-6.36,4.76-9.54,.23,.61,.19,1.34,.87,1.73l.06,.06c-.02,.26-.04,.53-.06,.79-.48,.4-.32,1.1-.74,1.53l.03-.07c-1.02,2.93-2.81,5.5-3.91,8.4-.12,.32-.27,.62-.45,.91-.7,.62-.7,1.49-.84,2.31-.73,1.34-.92,3-2.31,3.96-.35,.15-.67,.09-.96-.14Z"/><path class="cls-21" d="M484.51,330.29c1.23-3.01,2.31-6.11,4.56-8.58,.06,3.66-2.42,6.26-3.9,9.28,0,0-.33-.09-.33-.09-.07-.22-.18-.42-.32-.61Z"/><path class="cls-30" d="M481.31,337.14c.71-1.29,1.43-2.59,2.14-3.88,.27-.33,.54-.34,.8,0-.75,2.58-.99,5.3-2.15,7.77-.12-.08-.24-.17-.36-.25-.34-.49-.52-1.04-.7-1.6-.06-.29-.1-.58-.12-.87,0-.43-.05-.88,.38-1.18Z"/><path class="cls-39" d="M481.18,345.57c-1.35-1.07-.48-2.53-.66-3.8,.05-.32,.19-.58,.41-.81,.27-.18,.56-.24,.88-.16,.1,.08,.2,.17,.3,.24,.2,1.62-.23,3.1-.93,4.53Z"/><path class="cls-72" d="M512.23,265.5c.1-1.86-.5-3.81,.76-5.52-.21,1.84,.75,3.85-.76,5.52Z"/><path class="cls-72" d="M511.48,270.13c.26-1.55-.48-3.26,.76-4.64-.21,1.55,.63,3.28-.76,4.64Z"/><path class="cls-72" d="M511.21,277.78c.43-1.25,.25-2.53,.24-3.81,1.07,1.34,1.36,2.63-.24,3.81Z"/><path class="cls-41" d="M484.25,333.26c-.27,0-.53,0-.8,0,.13-.85,.07-1.78,1.02-2.26l.3-.02c.13,.13,.26,.13,.38,0-.3,.76-.6,1.52-.9,2.28Z"/><path class="cls-20" d="M489.04,321.77c0-.63,0-1.26,.74-1.53,0,.63,.09,1.3-.74,1.53Z"/><path class="cls-72" d="M513.05,259.34c-.02-.25,0-.5,.05-.75,.24,.25,.47,.5,.71,.75-.25,0-.5,0-.76,0Z"/><path class="cls-72" d="M509.86,278.58c.13-.4,.41-.63,.82-.71-.27,.24-.55,.47-.82,.71Z"/><path class="cls-96" d="M489.78,319.4c.12-.1,.25-.21,.37-.31-.11,.12-.21,.25-.32,.37,0,0-.06-.06-.06-.06Z"/><path class="cls-16" d="M457.44,790.45c-2.85,2.54-5.7,5.07-8.55,7.61-2.02,2.57-3.51,5.87-7.68,5.37-3.9-2.48-8.63-2.35-12.84-4.19,.42-.39,.86-.78,1.29-1.18,.12-.04,.31-.03,.36-.11,2.49-4,6.12-3.45,9.96-2.7,2.31,.45,4.56,1.66,7.09,1.07q-1.07-1.92-11.19-3.59c4.77-3.91,9.93-.31,15.33-1.32-3.5-2.65-6.79-2.42-10-2.53-.37-.31-.41-.66-.13-1.04,1.11-2.13,3.1-1.51,4.63-1.11,2.53,.66,5.06,1.09,7.64,1.42,.54,.32,1.28,.13,1.72,.68,.49,.96,1.93,.56,2.35,1.62Z"/><path class="cls-100" d="M455.09,788.83c-.57-.23-1.15-.46-1.72-.68,1.01-.59,2.42,.41,3.26-.83,.66,0,1.29,.25,1.27,.92-.02,.89-.87,.52-1.38,.59-.47,.07-.95,0-1.43,0Z"/><path class="cls-26" d="M441.1,787.83c.04,.35,.08,.7,.13,1.04-.42,.45-1.11,1.03-1.42,.32-.3-.71,.62-1.11,1.29-1.36Z"/><path class="cls-98" d="M576.85,821.39c.09-.43,.34-.64,.79-.6-.07,.45-.35,.64-.79,.6Z"/><path class="cls-83" d="M442.52,460.43c.27,0,.53,0,.8-.01-.26,.54-.52,.51-.8,.01Z"/><path class="cls-83" d="M433.29,461.12c.26-.24,.53-.48,.79-.71-.26,.24-.53,.48-.79,.71Z"/><path class="cls-82" d="M441.21,803.43c1.05,.19,1.8-.13,2.68-.85,1.75-1.43,2.96-3.44,5-4.52,.29,.3,.59,.59,.88,.89-.91,1.23-2.06,2.17-3.3,3.05-1,.7-2.2,1.34-2.07,2.88-1-.63-2.41-.33-3.19-1.45Z"/><path d="M463.07,224.5c.81,.62,1.73,1.13,2.39,1.87,1.05,1.19,.87,3.3-.51,4.01-2.71,1.4-5.59,2.48-8.74,1.51-.42-.13-.7-.7-1.04-1.06,.27-.29,.54-.57,.81-.86,1.34-.81,2.95-.31,4.33-.92,.96-.42,2.44-.43,1.61-2.16-.98-.94-2.62-.41-3.49-1.57-.74-.05-1.48-.1-2.22-.15,0-.23-.01-.46-.02-.69h6.87Z"/><path class="cls-45" d="M462.94,226.18c1.26,2.45,1.3,2.57-.77,3.25-1.99,.65-4.02,1.68-6.19,.54-1.56-3.56-1.34-3.93,2.4-3.94,1.5,.75,3.09-1.39,4.56,.15Z"/><path class="cls-48" d="M462.94,226.18c-.74-.05-1.48-.13-2.22-.14-.34,0-.94,.34-.63,.55,1.7,1.17,.61,1.49-.48,1.58-1.69,.13-.89-1.38-1.23-2.14,.03-.23,.05-.47,.06-.7,1.51,.27,3.24-.68,4.51,.86Z"/><path class="cls-66" d="M455.96,246.17c.07,.24,.07,.48,0,.72-.09-.17-.2-.34-.26-.52-.01-.03,.17-.13,.26-.2Z"/><path class="cls-4" d="M492.49,215.12c5.24,.6,9.54,1.12,13.86,1.37,1.11,.06,3.07,.08,3.1,1.61,.03,1.61-1.98,1.24-3.07,1.68-1.52,.62-3.29,.47-4.9,.56-5.89,.32-11.6,1.11-17.14,3.3-2.36,.93-3.43-.04-3.74-2.35-.05-.35-.36-.78,.09-1.04,4.01-2.25,7.46-5.94,11.8-5.13Z"/><path class="cls-71" d="M480.83,225.72c2.1,.92,3.55-.31,5.11-1.06,4.99-2.4,9.63-1.85,13.99,1.5,2.09,1.61,2.13,3.02-.09,4.43-2.28,1.46-4.86,2.25-7.55,2.45-2.42,.18-4.86,.23-7.28,.12-4.05-.19-4.8-1.19-4.38-5.31,.06-.62,.11-1.24,.19-2.14Z"/><path class="cls-55" d="M473.51,239.41c-.82,3.49-3.1,6.02-4.99,5.83-2.22-.23-3.38-2.4-3.18-5.96,1.2,.07,.8,1.21,1.16,1.82,1.27,2.17,2.34,2.39,4.23,.78,.85-.72,1.18-1.98,2.78-2.46Z"/><path class="cls-56" d="M469.49,250.83c.88,0,1.77-.02,2.65,.01,.66,.02,1.31,.25,1.4,.98,.1,.83-.36,1.52-1.13,1.76-.7,.21-1.49,.28-2.21,.2-.99-.11-1.95-.45-2.93-.62-.87-.15-1.99-.15-1.82-1.36,.16-1.14,1.3-.95,2.16-.98,.63-.03,1.26,0,1.89,0v.02Z"/><path class="cls-54" d="M468.67,237.07c-.91-4.5,.1-7.78,1.81-11.52,.74,4.15-.75,7.35-1.81,11.52Z"/><path class="cls-90" d="M476.08,227.67c0,3.89-1.35,7.56-3.75,9.25,1.23-3.43,1.39-6.74,3.76-9.24h0Z"/><path class="cls-90" d="M476.09,227.68c-.11-1.27,.05-2.43,1.4-3.5,.14,1.63-.33,2.68-1.41,3.5h0Z"/><path class="cls-44" d="M473.51,404.34c.09,1.25,.27,2.51-.19,3.73l-.34-.03s-.34,.03-.34,.03c.4-2.08-.3-4.3,.77-6.31,.03,.86,.07,1.72,.1,2.57Z"/><path class="cls-59" d="M453.38,347.13c-.21-.27-.42-.54-.63-.81,2.94-5.83,2.66-11.93,1.87-18.2-.43-3.43,.9-6.66,3.31-9.32,2.24-2.48,3.74-5.44,5.13-8.43,.86-1.85,1.45-3.79,1.35-5.9-.05-.99-.22-2.07,.75-2.82h0c.26-1.81-.64-3.77,.74-5.42,.79,2.12,1.47-.4,2.22-.05,0,0,.29,.22,.29,.22-.21,4.11,.75,8.3-.89,12.31-.35-.07-.65-.22-.91-.46-.22-.27-.37-.57-.45-.91,.02-.97,.31-1.93,.12-2.84,.04,.58,.06,1.22-.1,1.85-.34,.84-.18,1.72-.21,2.58-.27,1.65-.86,3.2-1.52,4.73-2.31,4.89-6.66,8.76-7.19,14.52-.77,2.55,.63,4.97,.45,7.51-.18,2.4-.15,4.81-1.19,7.05-.33,.65-.46,1.37-.68,2.06-.1,.33-.23,.65-.41,.96-.4,.57-.88,1.04-1.54,1.29-.16,.03-.33,.05-.5,.08Z"/><path class="cls-66" d="M468.13,296.18c-1.2,1.17-.1,2.97-1.27,4.4-1.64-1.22-.59-2.96-.94-4.35,0-1.53,.02-3.06,.03-4.59,.47,.28,.94,.55,1.41,.83,.06,1.28,.18,2.54,.78,3.71Z"/><path class="cls-1" d="M511.46,279.39c1.92,.41,.9,1.6,.4,2.23-1.85,2.32-4.19,4.16-6.85,5.42-5.81,2.74-12.01,4.28-18.28,5.59-4.11,.86-8.19,1.88-12.4,2.11-1.15,.06-2.33-.02-3.44,.2-2.16,.43-2.82-.94-3.38-2.54,.08-1.36-1.19-2.2-1.42-4.03,3.06,.61,6.02,.59,8.98,.52,11.17-.26,21.97-2.3,32.22-6.87,1.52-.68,2.9-1.55,4.16-2.63Z"/><path class="cls-60" d="M466.03,314.18c-.46,2.86-2.12,5.17-3.71,7.42-2.46,3.47-3.72,7.09-3.45,11.39,.14,2.19,.72,4.55-.56,6.67-1.55-1.41-.73-3.26-.89-4.91-.13-1.35,.1-2.74-.51-4.02-.27-.81-.27-1.63-.12-2.46,.83-5.53,5.08-9.32,7.2-14.2,.31-.52,.71-.92,1.32-1.08,.66,.14,1.09,.43,.72,1.19Z"/><path class="cls-103" d="M455.8,347.9c-.89,0-1.77-.02-2.43-.77,.13-.09,.28-.13,.44-.15,.6-.33,.89-.92,1.26-1.45l-.04,.08c.72-.65,.27-1.6,.58-2.36,.66-1,1.11-2.11,1.65-3.18,.33-.19,.64-.14,.91,.12,.29,2.9-1.56,5.15-2.36,7.71Z"/><path class="cls-53" d="M458.17,340.19c-.21-.05-.42-.08-.64-.08-1.14-2.84-.11-5.84-.61-8.73,.03-.48,.22-.88,.56-1.21,1.24,1.4,.53,3.09,.66,4.65,.13,1.61,.12,3.22,.18,4.83,.06,.21,.01,.39-.14,.54Z"/><path class="cls-105" d="M466.03,314.18c-.26-.31-.51-.62-.77-.93-.92-1.61,.06-2.8,.87-4.03,.74-.15,.98,.39,1.26,.89,.08,1.54-.57,2.83-1.36,4.08Z"/><path class="cls-95" d="M481.36,340.96c-.28,.27-.56,.54-.84,.81-.26,0-.53,0-.79-.01,.13-1.05-.5-2.26,.64-3.1,.28-.35,.53-.34,.76,.05h.37c.18,.77,.32,1.53-.14,2.26Z"/><path class="cls-66" d="M467.39,310.1c-.27-.27-.54-.55-.81-.82-.31-.6-.29-1.12,.36-1.49,.19,.3,.39,.61,.58,.91-.04,.46-.09,.93-.13,1.39Z"/><path class="cls-87" d="M481.13,338.7c-.25-.05-.5-.06-.76-.05,.07-.5,.15-1,.22-1.51,.24,0,.48,0,.71,0-.06,.52-.12,1.04-.18,1.56Z"/><path class="cls-23" d="M460.68,353.69c-6.76,2.23-13.86,1.54-20.42,3.55-6.01,1.83-12.22,.91-18.25,1.98-.55,.1-1-.05-1.3-.55-.59-.98-.27-5.59,.61-6.21,3.22-2.29,5.87-5.35,9.65-6.89,1.48-.6,2.94-.94,4.49-.69,6.48,1.01,12.77,2.76,18.68,5.62,2.14,1.04,4.64,1.43,6.56,3.2Z"/><path class="cls-17" d="M484.78,330.99l-.3,.02c-.13-.24-.12-.48,.03-.71,.12,.14,.26,.26,.36,.42,.03,.06-.06,.18-.09,.28Z"/><path class="cls-9" d="M481.36,340.96c-.13-.76-.21-1.52,.14-2.25,.66,.61,.46,1.35,.31,2.09-.14,.08-.28,.14-.44,.17Z"/><path class="cls-10" d="M499.4,228.58c-5.36,2.82-10.46,2.86-15.65,2.24-.96-.11-1.78-.55-1.96-1.52-.2-1.1,.63-1.48,1.57-1.78,3.72-1.19,7.36-2.52,11.42-1.55,1.7,.41,2.93,1.28,4.62,2.61Z"/><path class="cls-43" d="M464.51,314.11c-.87,2.97-2.55,5.52-4.31,8-1.26,1.78-2.32,3.63-2.87,5.75-.15,.09-.3,.18-.45,.27-.16-.08-.31-.16-.47-.24,.49-3.14,1.54-6,3.53-8.57,1.44-1.86,2.47-4.05,3.68-6.08,.74-.16,1.12,.05,.89,.88Z"/><path class="cls-102" d="M457.26,330.77c.09,3.11,.18,6.23,.27,9.34-.48,1.11-.51,2.48-1.76,3.16-.16,.03-.33,.06-.49,.09,1.78-3.97,1.74-8.07,.85-12.23-.23-1.1-.58-2.23,.29-3.25,.1-.18,.24-.2,.4-.07,.46,.94-.09,2.03,.44,2.96Z"/><path class="cls-24" d="M464.51,314.11c-.16-.43-.36-.81-.89-.88,.53-1.53,1.05-3.06,1.58-4.58,.24-.35,.36-.77,.68-1.07,.3-.09,.53,0,.7,.26,.1-.15,.22-.17,.36-.05-.12,.5-.24,.99-.36,1.49-.9,1.17-.98,2.61-1.33,3.96-.25,.29-.5,.58-.74,.86Z"/><path class="cls-46" d="M466.58,307.84l-.33-.02h-.33c-.45-.48-.4-1.01-.15-1.56,.33-.63-.21-1.57,.77-2.05,.44,1.23,.4,2.43,.04,3.63Z"/><path class="cls-79" d="M455.07,345.53c.09,.92,.02,1.71-1.26,1.45,.27-.62,.29-1.45,1.26-1.45Z"/><path class="cls-36" d="M455.28,343.37c.18,.03,.34,0,.49-.09,.14,.9,.33,1.81-.74,2.33-.14-.77-.04-1.52,.25-2.24Z"/><path class="cls-105" d="M465.77,306.26c.05,.52,.1,1.04,.15,1.56-.24,.28-.48,.55-.72,.83-.11-.87-.22-1.74,.57-2.39Z"/><path class="cls-66" d="M465.17,301.65c.33,.17,.7,.7,.53,.76-.85,.33-.33-.5-.54-.76h0Z"/><path class="cls-47" d="M457.26,330.77c-.77-.89-.75-1.91-.44-2.96,.17,.02,.35,.04,.52,.04,.05,.77,.09,1.54,.14,2.32-.16,.17-.23,.37-.22,.6Z"/><path class="cls-94" d="M489.54,227.51c.68,.06,1.11,.42,1.2,1.14,.06,.48-.27,.68-.66,.76-.87,.18-1.06-.44-1.18-1.1-.08-.47,.21-.68,.63-.81Z"/></svg>