<?xml version="1.0" encoding="UTF-8"?><svg id="Layer_1" xmlns="http://www.w3.org/2000/svg" viewBox="0 0 1000 1000"><defs><style>.cls-1{fill:#050505;}.cls-2{fill:#69676c;}.cls-3{fill:#674530;}.cls-4{fill:#e9ebec;}.cls-5{fill:#f5f5f5;}.cls-6{fill:#fcfcfc;}.cls-7{fill:#e86224;}.cls-8{fill:#edecec;}.cls-9{fill:#fdfdfd;}.cls-10{fill:#7e8283;}.cls-11{fill:#99a0a3;}.cls-12{fill:#999c9e;}.cls-13{fill:#a1a5a6;}.cls-14{fill:#875435;}.cls-15{fill:#b5b6b7;}.cls-16{fill:#c2c1c1;}.cls-17{fill:#c1bbd5;}.cls-18{fill:#c1bcd6;}.cls-19{fill:#666b6b;}.cls-20{fill:#323131;}.cls-21{fill:#302e3b;}.cls-22{fill:#302e3c;}.cls-23{fill:#b9bec1;}.cls-24{fill:#b1b7b9;}.cls-25{fill:#aeb2b4;}.cls-26{fill:#c7ccce;}.cls-27{fill:#dddfe0;}.cls-28{fill:#d1d2d2;}.cls-29{fill:#cfd2d3;}.cls-30{fill:#c4c4c5;}.cls-31{fill:#dcdcdc;}.cls-32{fill:#dbdad9;}.cls-33{fill:#141313;}.cls-34{fill:#141319;}.cls-35{fill:#131313;}.cls-36{fill:#171311;}.cls-37{fill:#161617;}.cls-38{fill:#252528;}.cls-39{fill:#170e0a;}.cls-40{fill:#251d1d;}.cls-41{fill:#242329;}.cls-42{fill:#242323;}.cls-43{fill:#241912;}.cls-44{fill:#241b17;}.cls-45{fill:#241a12;}.cls-46{fill:#1f1f23;}.cls-47{fill:#1f1e24;}.cls-48{fill:#1f1e25;}.cls-49{fill:#1e1c1e;}.cls-50{fill:#1e1e22;}.cls-51{fill:#1e1e1e;}.cls-52{fill:#222226;}.cls-53{fill:#232124;}.cls-54{fill:#403e3d;}.cls-55{fill:#404547;}.cls-56{fill:#403f44;}.cls-57{fill:#414141;}.cls-58{fill:#080503;}.cls-59{fill:#151516;}.cls-60{fill:#070708;}.cls-61{fill:#141418;}.cls-62{fill:#1b1817;}.cls-63{fill:#1b191d;}.cls-64{fill:#0d0c0f;}.cls-65{fill:#0d0d0e;}.cls-66{fill:#110c0b;}.cls-67{fill:#111112;}.cls-68{fill:#111;}.cls-69{fill:#1d1714;}.cls-70{fill:#100e0f;}.cls-71{fill:#1d1d1d;}.cls-72{fill:#1d1c23;}.cls-73{fill:#1c1c1c;}.cls-74{fill:#1c1b1b;}.cls-75{fill:#382922;}.cls-76{fill:#191412;}.cls-77{fill:#191614;}.cls-78{fill:#181919;}.cls-79{fill:#181718;}.cls-80{fill:#3f4042;}.cls-81{fill:#0e0a0a;}.cls-82{fill:#1b1b1d;}.cls-83{fill:#707272;}.cls-84{fill:#6f7677;}.cls-85{fill:#a29cae;}.cls-86{fill:#959899;}.cls-87{fill:#464648;}.cls-88{fill:#555556;}.cls-89{fill:#646565;}.cls-90{fill:#29272c;}.cls-91{fill:#281c12;}.cls-92{fill:#563423;}.cls-93{fill:#4a4a51;}.cls-94{fill:#4a4a49;}.cls-95{fill:#4a4b4f;}.cls-96{fill:#48332a;}.cls-97{fill:#2f2d3b;}.cls-98{fill:#39291e;}.cls-99{fill:#262325;}.cls-100{fill:#313133;}.cls-101{fill:#313232;}.cls-102{fill:#353333;}.cls-103{fill:#3b3837;}.cls-104{fill:#35261b;}.cls-105{fill:#34302f;}.cls-106{fill:#343334;}.cls-107{fill:#272629;}.cls-108{fill:#5a5554;}.cls-109{fill:#39302a;}.cls-110{fill:#2f2f32;}.cls-111{fill:#838284;}.cls-112{fill:#828080;}.cls-113{fill:#615e61;}.cls-114{fill:#616369;}.cls-115{fill:#797b7b;}.cls-116{fill:#4b4b4c;}.cls-117{fill:#72787a;}.cls-118{fill:#4f4e54;}.cls-119{fill:#818080;}.cls-120{fill:#31302f;}.cls-121{fill:#271c16;}.cls-122{fill:#343433;}.cls-123{fill:#4e4e50;}</style></defs><path class="cls-100" d="M430.5,771.39c.55-1.9-1.46-3.43-.78-5.35,1.55-4.28-.1-8.44-.51-12.64-1.03-10.71-2.51-21.37-2.92-32.16-.56-14.74-1.81-29.44-1.57-44.23,.13-8.16,1.77-15.76,5.47-22.98,2.56-5,4.98-10.08,7.91-14.88-.83,1.4-1.46,2.96-3.15,3.62-2.09-1.06-1.18-2.8-.9-4.32,1.42-7.64,4.13-14.73,9.14-20.8,.64-.77,1.37-1.53,1.59-2.58,.04-.38,.08-.76,.11-1.13,.13-1.5,.02-3.02,.26-4.51,.05-.37,.14-.73,.24-1.09,.59-2.69,.44-5.39,.1-8.08-.12-.34-.2-.69-.27-1.04-.33-1.75-.01-3.56-.53-5.29-.11-.34-.19-.69-.26-1.04-.32-1.75,0-3.57-.56-5.29-.12-.35-.2-.71-.26-1.07-.25-1.65-.11-3.35-.7-4.95-.26-1.13-.29-2.29-.3-3.44-.04-1.71,.21-3.44-.32-5.13-.12-.38-.21-.76-.27-1.16-.28-2-.08-4.06-.77-6.01-.92-7.75-.85-15.54-.98-23.32-.07-4.3-1.69-8.33-2.99-12.3-3.32-10.14-3.7-20.37-2.21-30.8,.32-2.27,.11-4.63,1.25-6.75,.64-1.04,.95-2.17,.92-3.4,.03-.78,.13-1.55,.31-2.3,.95-3.06,1.02-6.28,1.67-9.39,.16-.32,.39-.58,.69-.79,.33-.09,.66-.07,.99,.05,.14,.08,.28,.17,.42,.25,.25,.18,.48,.38,.7,.59,.11,.09,.21,.2,.32,.3,.33,.26,.68,.5,1.04,.71,.24,.13,.47,.28,.69,.44,.22,.15,.44,.3,.67,.45,.12,.06,.24,.12,.36,.18,.52,.2,1.06,.28,1.61,.38,.3,.06,.58,.14,.86,.25,.44,.17,.86,.36,1.3,.54,.33,.1,.65,.2,.97,.3,.74,.17,1.49,.25,2.23,.39,7.15,.72,14.35,.73,21.5,.98,12.6,.42,25.05,1.91,37.49,3.75,2.61,.39,4.73,.19,7.09-1.63,2.67-2.05,6.12-3.3,9.76-1.79,1.84,.95,3.68,.54,5.59,.15,3.43-.71,4.18-.16,4.51,3.2,.61,6.22,1.67,12.35,3.34,18.39,1.62,5.86,1.36,11.87,1.29,17.86-.92,8.38-2.92,16.59-4.06,24.94-1.11,8.13-1.02,16.32-2.01,24.44-1,8.23-1.82,16.48-3.22,24.65-2.19,8.82-4.07,17.72-6.67,26.44-1.65,5.55-3.41,11.03-6.59,15.95-.77,1.18-1.58,2.45-1.8,3.82-1.17,7.27-2.44,14.57-3.06,21.87-.4,4.73,.26,9.67,.18,14.54-.18,10.65,1.19,21.21,2.87,31.71,.37,2.29,.17,4.62,.73,6.86,2.15,10.13,5.44,20.03,6.44,30.41,.04,.38,.08,.92,.34,1.08,4.73,2.87,3.34,8.55,5.7,12.54,.81,1.38,1.32,2.55,2.94,3.1,2.25,.77,2.46,2.34,.6,3.62-3.26,2.25-6.83,4.04-10.24,6.08-.22,.13-.54,.29-.73,.2-4.35-1.98-6.5,1.86-9.21,3.7-5.57,3.78-11.75,5.7-18.23,6.79-3.18,.53-5.05-.99-5.98-4.07-.95-3.15-.85-6.29-.21-9.45-.53,2.94-.77,5.88-.03,8.85,.25,1,.44,2.07-.91,2.55-2.92-3.04-3.21-10.1-.63-15.02,1.11-1.58,.07-2.91-.49-4.3-6.03-14.77-9.55-30.18-11.97-45.91-1.24-8.1-1.45-16.28-2.65-24.36-.66-6.41-.21-12.83-.23-19.24,0-2.6,1.47-4.6,2.97-6.55,1.86-2.42,3.07-5.04,2.72-8.18-.22-1.95,.68-3.55,1.78-4.95,6.42-8.14,9.33-17.5,10.1-27.7,.47-6.26,1.56-12.45,2.72-18.62,2.12-13.13,7.04-25.38,11.8-37.69,3.42-8.82,5.36-18,6.59-27.34-2.4,12.53-5.94,24.71-10.5,36.64-3.57,9.34-6.47,18.91-8.01,28.83-1.68,6.98-2.7,14.13-3.19,21.22-.62,8.98-3.89,16.57-8.95,23.69-2.08,2.92-3.53,5.81-3.57,9.78-.04,4.11-3.96,6.97-6.06,10.45-.78,1.28-1.87,2.42-2.74,3.68-1.06,1.52-2.79,2.94-.25,4.74,.54,.38,.43,1.44,.42,2.21-.04,8.71,.24,17.42-.13,26.13-.05,.41-.14,.81-.25,1.2-.72,8.32-.11,16.65-.31,24.97-.06,2.42,.16,4.86-.9,7.19-.75,1.64,0,3.29,.43,4.88,1.82,6.78,4.85,13.29,4.37,20.56-.07,1.1,.53,1.8,1.52,2.42,4.36,2.76,6.99,9.32,5.94,14.29-.51,2.42-2.14,3.74-4.28,4.52-3.01,1.09-6.12,1.91-9.23,2.66-.37,.14-.75,.25-1.13,.35-.93,.24-1.86,.51-2.75,.86-8.04,2.08-15.84,4.93-23.77,7.38-4.6,1.42-5.02,.89-6.52-3.6-1.13-3.38-2.53-6.68-3.51-10.12-1.33-4.67-1.8-9.27,.97-13.67,.58-.91,1.39-1.9,.72-3.15Z"/><path class="cls-22" d="M417.37,311.2c.13-2.06-.11-4.17,.83-6.12,.98-.79,1.28-1.9,1.27-3.07-.02-4.69,2.23-8.54,4.55-12.36,.17-.3,.36-.59,.57-.86,.2-.27,.42-.52,.64-.76,.11-.12,.23-.23,.34-.35,.33-.34,.67-.67,1-1.01,.2-.24,.41-.47,.6-.71,.28-.39,.56-.78,.9-1.13,.28-.21,.58-.35,.9-.46,1.52-.38,3.11-.06,4.63-.49,.31-.13,.63-.25,.95-.37,.63-.28,1.22-.64,1.79-1.02,2.54-1.98,5.57-3.15,8.16-5.06,1.6-1.18,3.37-.83,5.17-.59,2.65,.35,5.3,.65,7.92,1.22-9.33-2.27-11.8-2.35-17.9,1.37-1.95,1.19-4.04,2.23-6.25,2.92-2.39,.74-4.57,.63-6.16-1.65-3.25-4.8-4.86-10.13-4.88-15.9-.02-7.06,3.78-10.6,10.82-10.98,4.08-.22,8.08,1.52,12.14,.26,.34-.15,.7-.21,1.05-.2,.28-.27,.76,1.27,1.02-.15,.34-1.82,1.65-2.66,3.42-2.88,2.4,1.11,.47,4.67,3.17,5.61,.23,.52,.27,1.06,.16,1.61-.2,.86-.7,1.63-.87,2.49-1.24,6.27-3.04,7.93-9.57,8.76-.22,.21-.57-.14-.77,.16,.37,.24,.63-.19,.98-.15,9.44-1.33,15.93,4.45,22.76,9.41,.56,.63,1.06,1.32,1.74,1.85,.27,.2,.53,.41,.78,.63,1.7,1.32,3.32,2.74,4.75,4.35,.24,.19,.46,.41,.67,.64,.28,.34,.5,.71,.73,1.08,.17,.21,.32,.44,.49,.66,.18,.2,.35,.4,.53,.61,.28,.29,.56,.58,.84,.86,.21,.18,.4,.38,.59,.58,.1,.1,.19,.2,.3,.31,.21,.21,.4,.44,.58,.67,.19,.24,.36,.49,.53,.75,.35,.51,.72,.99,1.13,1.45,.21,.21,.41,.44,.61,.66,.21,.21,.4,.43,.59,.65,.1,.1,.19,.21,.29,.32,.2,.2,.39,.43,.57,.65,.18,.23,.34,.47,.49,.71,.31,.5,.66,.96,1.07,1.39,.23,.22,.44,.44,.66,.67,.24,.23,.47,.48,.69,.73,.12,.13,.22,.27,.34,.4,4.22,5.19,7.28,10.97,9.09,17.41,1.08,7.8,3.59,14.98,8.12,21.54,4.37,6.34,6.69,13.7,9.29,20.89,.63,1.2,1.34,2.36,1.65,3.69,.25,1.56,.32,3.11-.08,4.66-.13,.38-.35,.71-.65,.98-.53,.31-1.11,.4-1.71,.35-1.37-.27-2.52-.94-3.49-1.93-1.13-3.54-2.02-7.23-2.61-10.82-.41-2.46-2.08-4.39-1.96-6.24,1.91,3.37,1.62,7.99,3.56,11.98,.68,1.4,.5,2.55-1.46,2.57-5.55-9.31-11.27-18.52-18-27.04-1.8-2.28-2.42-4.95-2.89-7.7-2.89-4.11-3.35-9.3-6.03-13.52-.81-1.27-1.42-2.67-2.13-3.47,1.78,3.28,4.17,6.74,5.17,10.89,.54,2.25,1.56,4.31,3.01,6.14,.68,.98,.26,1.77-.59,2.24-1.02,.57-1.66-.2-2.19-.96-1.82-2.62-3.79-5.1-5.26-6.31,10.05,11.88,20.1,25.33,28.88,39.71,.52,.29,1,.62,.96,1.32-.18,.39-.46,.67-.85,.85-2.44,.67-4.91,.45-7.37,.17-2.8-.88-5.71-1.33-8.53-2.22-2.68-.85-4.1,.47-3.93,3.35,.21,3.48,2.63,5.93,6.96,7.04,3.47,.89,3.53,1.18,.88,3.95-.94,.66-1.93,1.37-3.05,1.52-4.6,.63-8.34,2.85-11.73,5.9-1.01,.91-2.17,1.82-3.73,1.62-.92-.82-1.92-1.54-2.94-2.23-1.24-1.91-3.71-2.31-5.09-4.06-.25-.22-.48-.46-.71-.69-.25-.21-.5-.44-.75-.65-.14-.09-.27-.2-.41-.29-.3-.17-.58-.36-.87-.55-2.84-1.99-5.49-4.33-7.51-7.05-7.08-9.5-16.17-17-24.42-25.34,3.06,3.48,6.22,6.83,9.71,9.9,.97,.85,3.16,2.61-.53,2.92-2.37-1.51-5.21-2.01-7.6-3.48-.15-.09-.22-.45-.52-.23,.31,.42,.43,.81,.18,1.36-.26,.58,.25,.14,.34,.14,2.61-.04,4.84,1.28,7.24,1.97,4.73,.21,7.13,3.79,9.89,6.85,4.08,4.55,7.6,9.63,12.68,13.21,.41,.32,.81,.65,1.23,.95,.57,.37,1.12,.77,1.66,1.19,1.29,1.33,3.15,1.82,4.52,3.04,.26,.4,.45,.85,.72,1.25,.89,.69,2.26,.61,2.86,1.76-1.74,2.36-.29,4.87-.23,7.28,.07,2.64,.16,5.49,3.47,6.55,.48,.15,.89,.64,.98,1.13,.89,5.17,5.63,5.87,9.22,7.65,3.17,1.57,6.32-.32,9.05-1.78,3.06-1.64,6.12-1.44,9.29-1.26,.9,.05,1.78,.24,2.34,1.09,.38,1.2-.19,2.39,0,3.58-.17,1.44,.35,2.94,.02,3.69,0-.72,0-2.13,0-3.54,.19-.99-.56-2.58,1.26-2.59,1.27,0,1.51,1.28,1.55,2.26,.08,1.83,.57,3.43,1.88,4.76-1.19,6.99,.98,13.84,.73,20.84-.34,9.17-1.52,18.34-.71,27.54,.33,.97,.48,1.98,.7,2.97,.07,.39,.08,.78,.03,1.18-.14,.77-.37,1.53-.44,2.32-.41,6.78-.43,6.24-7.31,6.59-10.99,.57-21.28-2.65-31.8-4.73-2.03-.4-3.95-.72-6.04-.16-3.96,1.06-8.01,1.69-12.09,2.04-9.39,2.02-17.3-2.82-21.29-12.41-1.95-7.91-.62-15.66,1.34-23.32,.33-1.27-.39-.97-.82-1.29,.38-1.75,.42-3.67,1.22-5.2,1.85-3.52,1.79-7.11,1.18-10.83,2.16-1.07,2.67,.65,3.23,2.01,1.25,3.03,1.65,6.36,3.38,9.67-4.83-14.43-10.95-27.93-15.89-41.87-1.63-4.59-2.15-9.52-4.42-13.89-1.07-3.27-1.79-6.52-1.54-10.07,.25-3.55-1.08-6.86-3.26-9.74-1.11-1.39-1.28-3.05-1.45-4.73,.42-4.93-.8-9.74-1.37-14.57-1.01-8.61,.1-17.03,.89-25.51,.08-.82,.75-1.75-.41-2.36Z"/><path d="M439.48,224.28c-1.35-.75-1.42-2.18-1.38-3.37,.09-2.54-.57-5.05-.11-7.59,.22-1.19-.4-2.22-.93-3.26-2.28-4.48-2.82-9.02-1.04-13.9,1.08-2.97,1.56-6.17,2.27-9.27,.7-3.07,2.05-5.82,4.49-7.82,1.35-1.12,2-2.65,2.93-3.98,2.89-4.11,6.54-6.7,11.64-7.2,1.84-.18,3.55-1.39,5.5-.11,.85,.56,1.54-.26,2.23-.95,5.26-5.31,11.8-6.2,18.49-4.17,3.23,.98,6.37,2.7,9.53,4.11,2.87,1.27,4.84,4.12,5.89,7.29,.66,1.97,1.61,3.64,3.22,5.1,1.58,1.43,2.69,3.29,3.39,5.46,.8,2.48,2.58,4.65,2.05,7.51-.06,.3,.18,.8,.44,1,2.41,1.86,2.17,4.5,2.06,7.05-.36,8.57-1.05,17.09-4.09,25.23-.4,1.07-.53,2.23-.79,3.35-.35,.29-.75,.39-1.2,.31-3.2-2.33-1.74-5.78-2.1-8.78-.02-.56,0-1.12,.01-1.68-.02-.68-.13-1.34-.48-1.94-.94-1.87-2.84-2.08-4.54-2.66-.34-.11-.66-.25-.98-.4-2.83-1.32-5.2-3.3-7.37-5.47-1.39-1.39-2.46-3.23-.98-5.15,1.38-1.78,3.42-1.56,5.3-.86,2.71,1,3.97,3.51,5.97,6.29,.03-2.63,.52-4.62,.74-6.66,.37-3.52-2.08-7.38-5.46-8.18-3.11-.74-5.81-2.04-7.84-4.49-1.29-1.56-2.69-1.73-4.42-.94-2.49,1.13-5.03,1.91-7.81,1.03-1.35-.43-2.09,.61-2.96,1.35-3.03,2.57-6.06,5.06-9.96,6.37-7.33,2.45-11.91,9.07-11.94,16.8,0,1.03,.07,2.05,.16,3.07,.12,1.45,.94,3.37-1.21,3.87-2,.47-2.19-1.66-3.12-2.79-.76-.93-.41-4.24-3.15-1.82-.57,1.83-.1,3.72-.4,5.54-.2,1.21,.06,2.93-2.08,2.73Z"/><path class="cls-70" d="M508.4,366.74c1.03,.52,2.06,1.04,3.09,1.56,.52,.46,1.04,.46,1.54-.03h0c.12-.1,.24-.21,.35-.31,.3,.03,.56,.16,.76,.37,.23,.28,.4,.62,.68,.83,.23-.06,.38-.18,.44-.42,.07-.4,.12-.79,.22-1.18,.15-.47,.39-.85,.88-1.03,.84,.03,.73,.81,1.02,1.28-.2-.44-.14-.9-.04-1.34,.09-.38,.42-.59,.8-.7,.58,.13,.83,.57,1.05,1.05,.22,.47,.4,.96,.55,1.45,.11,.33,.19,.67,.24,1.01,.24,.44-.21,1.23,.7,1.28,1.86-4.86,2.76-9.94,3.67-14.97,.73-4.06-.93-7.82-3.1-11.26-1.65-2.6-3.51-5.07-4.52-8.04-.37-1.1-.76-2.19-.57-3.38,.1-.64,.26-1.35,.94-1.56,.72-.23,1.17,.37,1.55,.86,1.39,1.84,2.06,4.12,3.83,6.54-.41-6.86-1.8-12.84-4.07-18.64-1.03-2.63-2.14-5.25-2.39-8.1-.12-1.37-.48-3.26,1.08-3.75,1.74-.54,2.11,1.43,2.7,2.62,3.78,7.69,5.91,15.78,6.63,24.35,.8,9.47,2.66,18.79,5.15,27.97,.94,3.47,2.02,6.74,6.56,6.78,.87,0,1.69,.6,2.36,1.22,.65,.61,1.38,1.28,1.07,2.29-.29,.95-1.19,1.31-2.07,1.55-1.55,.42-3.06-.16-4.58-.27-1.72-.13-2.54,.48-1.73,2.24,2.61,5.69,2.84,11.67,2.18,17.75-.18,1.65,.4,2.71,1.87,3.39,2.6,1.21,4.81,3.03,6.83,4.97,3.8,3.63,7.95,3.28,12.1,1.24,8.05-3.95,11.98-11.31,15.17-19.17,.67-1.64,.1-3.31-.65-4.84-3.34-6.8-6.35-13.77-10.22-20.3-3.03-5.1-5.65-5.76-10.76-2.76-2.34,1.38-4.31,3.21-6.22,5.13-.87,.87-1.95,2.26-3.21,1.14-1.11-1-.12-2.41,.52-3.48,1.39-2.35,3.4-4.21,5.47-5.92,1.94-1.6,2.45-3.07,.84-5.19-3.32-4.41-4.65-10.04-8.62-14.07-.27-.27-.57-.65-.56-.99,.22-5.81-3.51-10.35-4.97-15.62-.12-.7-.18-1.4-.38-2.09-.11-.33-.2-.66-.28-.99-.19-.67-.41-1.32-.57-2-.09-.55-.05-1.08,.16-1.59,.32-.49,.71-.83,1.35-.54l-.02-.03c.21,.57,.11,1.28,.74,1.66l-.02-.07c.56,.68-.19,1.88,.93,2.35,2.43,3.64,3.68,7.83,5.31,11.83,.7,1.7,.28,3.51,.31,5.28,.02,1.77,2.74,1.65,3.58,3.52,2.03,4.54,4.49,8.88,6.81,13.28,.84,1.59,1.48,2.75,4.04,2.32,3.02-.51,5.41,1.63,7.2,4.22,3.37,4.85,5.73,10.24,8.49,15.41,.78,1.46,1.24,3.09,2.07,4.51,3.46,5.9,2.38,11.41-.83,17.06-4.11,7.23-9.53,12.92-17.09,16.52-2.94,1.4-7.2,.81-9.88-1.07-3.54-2.49-7.02-5.04-10.34-7.81-.57-.9-1.69-.6-2.44-1.1-.65-.06-1.28,.09-1.93,.18-.91,.1-1.82,.1-2.69-.24-.35-.18-.6-.44-.77-.79,.09-1.22,.93-1.86,1.94-2.12,3.27-.82,3.69-3.2,3.35-5.97-.48-3.96-1.2-7.86-3.46-11.3-1.08-1.64-2.41-2.71-4.46-2.27-3.29,.71-6.09-.55-8.72-2.21-4.71-2.97-9.36-5.62-15.4-4.66-2.86,.45-5.76-.99-8.58-1.9-.81-.26-1.92-.86-2.46,.06-.66,1.11,.43,1.97,1.21,2.49,3.28,2.19,6.94,2.29,10.66,1.51,.86-.18,1.62-.79,2.51-.95,1.03-.18,2.2-.35,2.71,.79,.42,.94-.35,1.71-1.02,2.29-2.63,2.26-5.54,4.13-8.6,5.78-.69,.22-1.41,.35-2.12,.47-.36,.05-.71,.01-1.05-.09-.66-.5-.85-1.07-.24-1.75,.31-.85,1.67-.75,1.69-1.97-.98-.67-2.16-.21-3.23-.44-4.18-.91-7.42-5.2-6.92-9.22,.43-3.46,2.5-4.71,5.6-3.05,2.38,1.27,5.29,.65,7.48,2.35,2.82,.6,5.64,.74,8.46-.02,0-.25,0-.5,0-.75,1.36-.36,1.34,1.35,2.32,1.55Z"/><path class="cls-22" d="M526.99,398.36c.26,.02,.52,.04,.78,.06,.85,.61,1.83,.2,2.74,.32,.92,.11,1.37-.51,1.8-1.16,.74,.83,1.79,1.4,2.24,2.5-1.29,.17-1.8,.9-.97,1.93,.64,.8,.49,1.56,.49,2.38-.33,1.77-.3,3.54-.02,5.31,.14,1.32-.01,2.67,.44,3.96,.09,1.34,.3,2.68-.04,4.16,.67-1.43-.5-3.18,1.03-4.24,1.15,2.76-.03,5.74,.78,8.53-1.18,4.24-.01,8.6-.59,12.87,.48-4.27-.52-8.62,.6-12.86,1.06,1.06,.58,2.42,.57,3.62-.06,7.66,.02,15.32,.9,22.93,.5,4.26,1.25,8.49,2.19,12.69,1.05,4.7,1.8,9.48,2.51,14.26,.27,1.85,.37,3.88-1.66,5.08-1.16-.45-2.38,.44-3.54-.14-1.61-.35-1.47,1.66-2.61,1.95-1.43,1.12-3.07,1.53-4.86,1.35-2.32-.16-3.57-1.79-4.76-3.49,.85-6.22,.57-12.54,1.77-18.74,1.08-5.58,.86-11.3,.3-16.89-.89-8.8-2.08-17.58-3.19-26.36-.69-5.46,.18-11.08-1.8-16.39-.17-.42-.26-.85-.26-1.3,.92-2.53,2.63-3.34,5.16-2.35Z"/><path class="cls-66" d="M503.74,805.42c.75,.13,1.5,.28,2.25,.4,5.06,.8,8.49,3.38,10.4,8.35,.99,2.59,2.49,5.01,3.21,7.74,1.16,4.37,.16,6.98-3.89,8.79-4.88,2.18-9.87,4.19-14.92,5.96-8.78,3.08-17.34,1.73-25.66-1.94-1.03-.45-2.25-.59-2.98-1.61-.98-.6-2.18-.76-3.07-1.52h-.02c-.41-.52-1.08-.41-1.58-.7h0c-.31-.62-1.06-.44-1.49-.84h-.01c-.23-.32-.45-.64-.89-.65l.03,.02c-.27-.75-1.01-.57-1.56-.78l.14-.17-.12,.18c-.25-.75-1.01-.56-1.52-.83h0c-.48-.69-1.56-1.38,0-2.07,.29-.05,.58-.03,.87,.04,.4,.13,.77,.32,1.15,.5,.24,.1,.47,.23,.7,.36,.23,.11,.46,.23,.68,.35,.23,.1,.45,.22,.66,.35,.32,.18,.64,.36,.98,.51,.23,.08,.45,.2,.67,.32,.33,.17,.66,.34,1,.5,.24,.09,.46,.22,.67,.37,.22,.14,.42,.31,.62,.47,.11,.07,.21,.16,.32,.23,.35,.21,.72,.38,1.1,.53,.29,.08,.57,.17,.86,.25,.81,.18,1.65,.17,2.47,.31,2.41,.47,4.62,1.54,6.96,2.22,6.56,1.92,12.95,1.18,19.23-1.07,4.22-1.52,8.13-3.79,12.46-5.08,1.77-.53,2.85-1.73,2.37-3.78-.43-1.82-1.16-2.91-3.14-1.45-2.6,1.92-5.57,3.15-8.49,4.48-6.96,3.18-14.1,3.7-21.3,1.03-8.31-3.09-17.2-4.11-25.48-7.33-2.28-.89-4.86-.11-7.25-.66-1.26-.41-2.59-.53-3.88-.81-1.05-.25-2.06-.7-3.17-.72-.53-.02-1.06-.04-1.58-.21-.48-.21-.89-.52-1.31-.82-.2-.16-.42-.28-.64-.4-.39-.21-.46-.21-.18,.02,.35,.15,.63,.35,.9,.58,.24,.17,.46,.34,.68,.51,.38,.26,.82,.33,1.26,.36,.32,.01,.63,.05,.95,.11,.33,.06,.65,.16,.97,.26,.52,.14,1.02,.3,1.54,.45,2.88,1.13,6,1.19,8.94,2.02,1.58,.45,3.28,.71,4.27,2.27,.79,2.57-.68,2.36-2.34,1.89-5.46-.94-10.96-1.71-16.12-3.92-1.87-.8-3.61-1.68-4.63-3.55-1.51-2.63-2.9-5.28-1.1-8.34,1.94-.75,3.14,.56,4.39,1.63,2.74,2.34,6,3.57,9.5,3.7,7.78,.29,15.07,2.74,22.54,4.49,6.49,1.52,12.54,4.63,19.21,5.27,7.88,.75,14.33-3.06,20.59-7.16,1.19-.78,.81-2.01,.15-3.09-1.01-1.64-2.56-2.45-4.37-2.87-4.05-.94-8.14-.74-12.23-.33-1.27,.13-2.52,.46-3.81,.39-3.95-.23-4.79-1.74-3.02-5.37-.01-1.07-1.15-1.03-1.63-1.63-.2-.26-.33-.55-.41-.86-.13-1.12-1.05-1.46-1.89-1.88-1.36-.78-2.16-1.96-2.54-3.45-.33-1.59-1.35-2.93-1.7-4.49-.37-1.62-.39-3.17,2.09-2.45,3.18,2.59,4.62,6.8,8.3,8.93,2.7,3.52,6.13,5.3,10.68,4.67,1.12-.15,2.33,0,3.16,1.04Z"/><path class="cls-37" d="M434.4,642.7c2.29-2.06,2.91-5.35,5.36-7.47,1.21,.94,.54,1.85,.1,2.68-2.31,4.42-4.71,8.8-6.97,13.25-1.57,3.08-3.31,6.08-4.35,9.4-1.33,4.26-2.64,8.51-2.62,13.04,.02,8.33-.3,16.68,.12,25,.25,5.06,.53,10.16,1.22,15.22,.53,3.91,.19,7.93,.21,11.91,.02,4.09,.81,8.1,1.28,12.14,.38,3.29,.6,6.6,.91,9.89,.33,3.44,.82,6.82,1.41,10.21,.54,3.16,.15,6.34,.3,9.53-1.15-.01-.81-1.34-1.64-1.46-1.37-2.98-1.17-6.28-1.51-9.39-.69-6.2-1.86-12.34-2.27-18.57-.27-4.09-.16-8.23-.76-12.27-.91-6.2-.1-12.51-1.5-18.66-.08-.37-.05-.77-.06-1.15-.24-9.87-.71-19.75-.64-29.62,.06-7.73,1.88-15.19,5.5-22.11,1.53-2.92,2.78-6,4.9-8.58,1.28-.62,.04-1.86,.65-2.64,.12-.12,.23-.24,.35-.35Z"/><path class="cls-81" d="M442.89,269.62c.41-.87,1.08-1.63,2.02-1.47,3.06,.5,4.53-1.76,6.41-3.4,.73-.63,1.18-1.07,.93-2.17-.39-1.68,.06-3.27,1.33-4.54,1.71,1.75,1.09,3.87,.96,5.91-.07,.36-.2,.72-.35,1.05-.08,.14-.18,.3-.26,.44-.17,.26-.38,.5-.59,.72-.09,.1-.19,.21-.28,.31-.15,.19-.25,.42-.27,.67,.09,.24,.22,.43,.44,.56,.38,.18,.76,.3,1.16,.41,.47,.11,.92,.26,1.36,.44,.5,.19,.98,.4,1.47,.62,1.86,.86,3.67,1.81,5.37,2.96,7.46,5.05,15.56,6.02,24.19,3.79,2.57-.67,3.41-1.98,3.19-4.7-.22-2.8-1.62-5.77,.31-8.53,.98-.58,1.47,.12,2.01,.74,3.57,2.72,5.93,6.22,6.95,10.61,.56,.73-.12,1.87,.81,2.48l-.04-.06c.47,1.33,.36,2.15-1.37,1.56-.3-.19-.55-.43-.78-.71-.42-.56-.8-1.15-1.21-1.72-1.04-1.46-1.68-3.14-2.84-4.57,.6,3.18,1.97,6.12,3.61,8.85,.97,1.61,1.68,3.05,1.31,4.95-.57,2.95,.75,5.78,.69,8.72,.02,1.26,.08,2.51-.03,3.75-.11,1.18,.16,2.9-1.43,3.03-1.3,.11-1.25-1.6-1.74-2.54-.54-2.98-.8-6.01-1.45-8.99-.44-2-1.22-3.02-3.37-2.03-3.43,1.58-7.11,1.7-10.78,1.72-.42,.14-.79,.33-.72,.88,.13,.25,.25,.49,.41,.72,.19,.22,.37,.44,.56,.65,.1,.11,.2,.22,.3,.32,.21,.22,.4,.45,.59,.69,.19,.24,.36,.49,.53,.75,.34,.5,.7,.99,1.11,1.44,.21,.21,.41,.44,.6,.66,.2,.21,.39,.44,.57,.68,.19,.22,.37,.46,.55,.7,.38,.47,.84,.88,1.19,1.39,.12,.31,.16,.63,.12,.96-.41,.95-1.01,1.33-1.94,.61h0c-.25-.27-.5-.53-.77-.77h0c-.55-.74-.93-1.6-1.55-2.3h0c-.23-.28-.49-.54-.77-.77h0c-.23-.28-.49-.54-.77-.78h0c-.66-1.11-1.59-2.02-2.31-3.09h0c-.24-.27-.5-.53-.77-.77h0c-.24-.27-.52-.5-.77-.77-.26-.26-.52-.51-.77-.77-.27-.24-.5-.53-.76-.77h0c-.45-.41-.29-1.14-.79-1.52h0c-.77-.63-1.44-1.27-.06-1.96,.34-.07,.69-.07,1.03-.02,1.17,.33,2.31,.09,3.43-.28,3.95-.32,7.85-.86,11.61-2.16,.67-.23,1.72-.31,1.46-1.34-.21-.84-1.13-.98-1.91-.91-1.64,.16-3.22,.8-4.9,.77-5.61,.09-11.22-.17-16.8,.49h0c-.63-.39-1.13-.92-1.56-1.52-4.45-2.97-8.77-6.14-13.64-8.46-1.42-.68-2.64-1.06-4.26-.89-1.98,.21-4.1,.5-5.98-.7h.01Z"/><path class="cls-62" d="M489.85,783.12c0-.89,.25-1.87-.03-2.67-1.15-3.32-.54-6.49,.86-9.69,0,2.2,.02,4.41,0,6.61-.02,1.42,.11,2.78,.77,4.1,1.28,2.55,2.87,3.52,5.54,2.88,5.32-1.29,10.71-2.48,15.44-5.41,2.48-1.53,4.76-3.4,7.1-5.15,.71-.53,1.22-1.32,2.17-1.52,1.99-.41,1.54,.77,1.06,2.36,4.55-2.66,8.77-5.12,13.64-7.97-1.66-.62-2.63-1.11-3.66-1.33-1.46-.3-3.08-.29-1.73-2.5,.13-.22-.06-.75-.25-1.03-1.66-2.4-2.17-5.09-2.48-7.94-.12-1.04-.17-3.42-2.75-2.18-.77,.37-.87-.68-.91-1.28-.56-9.61-3.14-18.82-5.7-28.01-.39-1.4-.44-2.76-.48-4.16,.24-.2,.51-.27,.81-.21,.34,.27,.51,.72,.95,.89,1.94,6.94,3.88,13.89,4.95,21.03,.33,2.23,1.36,4.38,.93,6.73-.18,1.01,.38,1.51,1.38,1.92,2.1,.85,2.97,2.65,2.93,4.87-.05,2.75,.85,5.25,1.9,7.71,.65,1.52,1.62,2.6,3.49,2.3,.25-.04,.51-.02,.77-.01,4.06,.21,4.67,1.32,2.55,5.12,1.03,.76,2.65,.75,3.35,2.03-1.15,1.11-2.5,.16-3.74,.38-.8,0-1.44-.53-2.2-.67-.63,.07-1.12,.43-1.64,.74-.66,.41-1.31,.81-1.95,1.25-.25,.17-.52,.32-.79,.46-.26,.15-.53,.29-.8,.42-.26,.15-.53,.29-.81,.42-.55,.28-1.1,.57-1.64,.86-1.32,.66-2.63,1.33-4.04,1.77-1.6,1.16-3.72-.75-5.24,.91-5.97,5.84-13.2,9.11-21.36,10.49-1.34,.22-2.97,.09-3.3,1.99-.32,1.87,.84,2.82,2.33,3.52,.76,.54,2.05,.77,1.8,1.99-.19,.92-1.26,.99-2.11,1.12-1.49,.09-2.92-.14-4.3-.72-.8-.32-1.44-.81-1.79-1.62,.34-3.66-1.18-7.16-1.02-10.81Z"/><path class="cls-73" d="M519.2,718.24c-.26,0-.51,0-.77,0-.54-.44-.78-1.02-.74-1.69,.26-4.91-1.33-9.58-1.77-14.41-.46-5.07-1.11-10.13-1.3-15.22-.18-5-.15-10.01,0-15.01,.1-3.35-1.22-6.55-.81-9.92,.12-1.01-.25-2.17,.47-2.98,2.1-2.36,2.05-5.2,1.82-8.01-.45-5.37,1.15-10.06,4.14-14.45,2.48-3.64,3.72-7.88,4.89-12.06,2.19-7.86,4.07-15.81,6.18-23.69,.39-1.45-.38-3.16,1-4.36,1.03,1.01,.23,2.01,.32,2.95,.48-.11-.16-2.07,1.39-1.34-.26,5.55-2.21,10.74-3.4,16.09-1.08,4.84-2.67,9.56-4.09,14.32-1.2,4.06-2.98,7.87-5.2,11.46-2.02,3.25-2.77,6.79-2.85,10.56-.07,3.39,.71,6.9-1.68,9.96-.46,.59-.24,1.74-.25,2.63-.03,2.44,.08,4.88-.04,7.31-.52,10.12,.69,20.14,1.63,30.18,.17,1.78,.19,3.58,.28,5.37,.22,4.11,1.58,8.14,.77,12.31Z"/><path class="cls-36" d="M435.34,809.13c-1.61,1.8-1.19,3.75-.27,5.63,.4,.81,.89,1.53,.77,2.48-3.18-2.9-2.87-6.69-2.29-10.34,.25-1.56,.32-2.68-.9-3.76-.58-.51-1.01-1.18-1.11-1.98-.57-4.25-2.86-7.9-4.11-11.91-1.71-5.45-2.52-10.74,1.71-15.51,.22-.28,.4-.57,.55-.89l-.03,.06c.64-.31,.47-1.08,.87-1.53,0,0-.02,.02-.02,.02,.49-.32,1.13-1.02,1.45-.89,.86,.33,.31,.93,.01,1.51-.57,1.13-.87,2.42-1.55,3.47-2.47,3.79-1.77,7.74-.87,11.75,1.03,4.58,3.7,8.64,4.22,13.4,.12,1.09,.99,1.27,2.05,1.01,2.23-.54,4.45-.99,6.61-1.82,6.67-2.55,13.47-4.68,20.48-6.06,.64-.67,1.71-.02,2.33-.76h0c1.28-.31,1.74,.46,1.98,1.51-.03,.38-.15,.73-.37,1.04-2.96,1.77-6.5,2.02-9.84,3.58,2.89,3.58,6.79,5.99,9.06,9.86,.42,.97,1.04,1.74,1.91,2.35,.82,.57,2.15,1.13,1.83,2.21-.39,1.31-1.82,1.11-2.98,.98-5.41-2.31-8.85-6.92-12.56-11.12-1.94-2.19-3.65-2.89-6.3-1.74-2,.87-4.12,1.48-6.27,1.87-3.29,.59-5.73,2.01-6.35,5.57Z"/><path class="cls-35" d="M534.01,598.04c-.86,.12-.7,1.21-1.71,1.62,0-1.16,0-2.19,0-3.23,1.45-3.1,.98-6.52,1.38-9.76,.83-6.67,1.73-13.34,2.4-20.03,.18-1.77,.1-3.58,.08-5.37-.07-6.14,1.32-12.11,1.93-18.17,.7-6.97,2.71-13.7,3.46-20.65,1.01-1.02,.65-2.35,.81-3.56,.13-.95,.04-2.15,1.62-1.89,1.04,1.34,.87,2.85,.7,4.41-.51,4.7-1.82,9.25-2.68,13.88-1.21,6.51-1.87,13.08-2.37,19.7-.5,6.57-.72,13.19-1.93,19.74-.76,4.1-1.06,8.36-1.54,12.55-.42,3.64-1.18,7.23-2.15,10.77Z"/><path class="cls-68" d="M437.49,492.38c-1.54,2.24-.96,4.86-1.25,7.31-.88,7.21-1.73,14.47-.14,21.66,1.15,5.21,2.83,10.31,4.29,15.46,1.08,3.8,1.53,7.62,1.07,11.6-.31,2.65-.5,5.46,.04,8.04,.7,3.32,.52,6.61,.63,9.91-.13,1.27-.29,2.48-1.9,1.03-.32-8.35-1.2-16.68-.81-25.05,.03-.53-.09-1-.53-1.34-2.4-4.17-3.18-8.89-4.33-13.45-1.72-6.84-3.16-13.82-1.94-20.91,.55-3.22,.32-6.58,1.65-9.67,1.75-4.18,1.54-8.86,3.35-13.34,1.36,1.09,1.13,2.2,.63,3.36,0,.77-.01,1.54-.02,2.3-.85,.88,.07,2.2-.76,3.08Z"/><path class="cls-39" d="M538.52,770.54c1.33-1.48,2.61,.38,3.92,.07,5.71,2.63,11.99,3.29,17.91,5.18,1.01,.32,2.01-.12,3.01-.18,5.22-.3,10.47-.86,15.63,.57,1.32,.37,2.82,.47,3.54,1.95,.26,1.08,.69,2.2-.7,2.87-9.07-1.67-18.01-1.44-26.78,1.71-.48,.17-.98,.33-1.49,.36-1.87,.12-4.39,.89-5.13-1.24-.87-2.52,1.64-3.28,3.54-4.02,.93-.25,1.86-.23,2.79,.08-.64-.46-1.44-.25-2.13-.52-1.88-.53-3.9-.25-5.75-.94-1.17-.24-2.31-.64-3.49-.82-.92-.2-1.97,.24-2.79-.52-.16-.27-.23-.56-.22-.87-.18-.33,.84-.39,.18-.83-.27-.14-.52-.31-.77-.49-.66-.48-1.19-1.04-1.31-1.89,0-.16,.01-.32,.02-.48Z"/><path class="cls-74" d="M582.44,797.66c-3.03,2.98-6.67,4.55-10.91,4.72-1.79,.07-3.57,.25-5.36,.24-10.35-.09-20.68,.83-31.03,.42-1.25-.05-2.58,.28-3.66-.7-1.06-1.11-2.8,.2-4.1-1.4,2.69-2.11,5.82-.92,8.63-1.35,5.48,0,10.94-.62,16.36-1.26,5.72-.68,11.39,.93,17.14-.14,2.74-.51,5.54-.65,8.14-1.75,1.12-.39,2.4-.47,3.11-1.65,.15-.28,.3-.56,.44-.85,.37-.92,.3-1.89,.29-2.86,0-.9,.07-1.79,.3-2.66,.2-.76,.41-1.52,.73-2.24,.19-.39,.48-.69,.86-.9,1.82,2.49,.78,5.22,.63,7.87,.07,.23,.03,.45-.12,.64-.63,.66-.07,1.67-.69,2.33h0c-.52,.38-.34,1.12-.77,1.54Z"/><path class="cls-121" d="M492.29,263.42c-.53-.25-1.05-.49-1.58-.74-1.17-1.48-2.62-2.46-4.58-2.27-6.93,.68-12.69-2.73-18.42-5.69-4.32-2.23-8.68-4.32-13.3-6.42-.72,1.34,.36,2.78-.26,4.02-.64,.54-.46,1.05,.07,1.55,.25,1.02,.3,1.97-.72,2.64-1.34-.37-2.61-.71-2.18-2.66,.2-.92,.27-2.03-.72-2.74-.41-.51-.47-1.02,0-1.54,.14-.19,.32-.23,.53-.12,2.01-1.99-1.11-4.14,.19-6.15-.04-.46-.08-.93-.12-1.39,.47-.99,.81-2.09,1.97-2.56,5.55,8.16,14.89,10.7,22.91,15.07,4.11,2.24,9.26,1.48,13.97,1.64,2.02,.07,3.1-1.59,3.73-3.39,.59-1.69,.88-3.49,1.94-5,.27-.44,.56-.87,.8-1.32,.19-.45,.39-.91,.59-1.36,.28-.61,.59-1.19,1.1-1.65,.32-.15,.64-.14,.95,.02,.64,.77,.51,1.53,0,2.3l-.02,.05c-.79,.96-.02,2.25-.67,3.24,.14,.24,.09,.44-.13,.6-.44,.45-.29,1.15-.67,1.63-1.21,2.85-1.52,6.17-4.63,7.98-1.72,1-.71,2.78-.75,4.23Z"/><path class="cls-63" d="M498.38,277.33c.98,.52,1.57,.31,1.63-.88,.93,3.98,3.62,5.74,7.51,6.28,1.33,.18,2.72,.67,3.88,1.56,7.31,5.67,14.34,11.61,19.03,19.77,1.26,2.19,2.45,4.47,2.82,7.04-.32,.31-.64,.62-.96,.93-1.94,.03-2.09-1.66-2.58-2.86-4.11-10.21-12.43-16.47-21.11-22.28-3.25-2.17-4.24-1.37-4.83,2.59-.32,2.16-.35,4.37-.86,6.48-.36,1.46-.38,3.61-2.98,3.02-1.46-2.2-.48-4.66-.77-6.99-.6-4.15,.06-8.42-1.25-12.5-.23-.73-.07-1.53,.47-2.16Z"/><path class="cls-79" d="M450.59,249.58c0,.51,0,1.02,0,1.54-.58,.46-1.17,.92-1.74,1.4-.76,.63-1.2,1.22-.19,2.1,.48,.42,.49,1.23-.21,1.59-.86,.44-1.43,0-1.63-.88-.08-.36-.06-.75-.09-1.12-.28-.46-.54-.43-.77,.04-.48,1.39-1.21,2.04-2.85,1.55-3.34-.99-6.84-.51-10.23-.9-6.94-.81-9.65,4.9-9.5,10.09,.16,5.54,1.44,10.85,4.83,15.43-.39,.44-.89,.6-1.47,.55-.35-.12-.67-.28-.97-.49-2.74-5.56-6.05-10.97-5.23-17.56,.56-4.52,1.64-8.79,6.79-10.35,5.67-.76,11.48,.44,17.07-1.33l1.31-.26c.26-.04,.51-.1,.75-.2,.4-.03,.76-.15,1.04-.44v-.03c.34-.26,.74-.33,1.17-.33,.42,0,.83-.04,1.15-.35,.26-.01,.51-.03,.77-.04Z"/><path class="cls-52" d="M425.17,377.55c1.46,2.02,1.96,4.44,2.55,6.75,2.33,9.16,6,17.83,9.47,26.58,2.78,7.02,5.38,14.1,8.04,21.17,.53,1.41,1.19,2.84,.38,4.32-.99,.24-1.36-.43-1.48-.98-.68-3.06-2.68-5.67-2.61-9.07,.03-1.62-.77-3.9-3.33-4.06,.02-5.1-2.55-9.45-4.26-14.01-2.36-6.25-5.16-12.34-7.68-18.54-.66-1.63-1.19-3.36-1.13-5.18-.27-1.72-1.19-3.29-1.11-5.08-.02-.88,.37-1.51,1.16-1.88Z"/><path class="cls-71" d="M544,516.99c-1.27,.87-.84,2.2-.88,3.38-.04,1.09-.26,1.95-1.54,2.08,.24-7.8-.69-15.37-2.69-23-1.29-4.91-2.58-10.11-1.85-15.66-1.66-.1-2.94,.26-4.27,.57-1.69,.4-3.5,.89-5.08-.46,.6-.74,1.68-.02,2.29-.75,1.87,.32,3.32-.57,4.72-1.61,.88-.33,1.79-.61,2.32-1.47,.86-.07,1.74-.04,2.56-.24,.87-.21,1.08,.2,1.2,.88-.78,.83-1.82,1.2-1.64,2.92,.69,6.67,1.66,13.25,3.46,19.72,.78,2.81,1.26,5.71,1.15,8.68-.06,1.65,.16,3.3,.25,4.96Z"/><path class="cls-33" d="M445.96,614.94c-.15,2.11-1.86,3.34-3,4.77-5.36,6.77-7.3,14.74-8.56,22.99,0,0,.01-.01,.01-.01-.96,.54-1.73,.37-1.84-.79-.12-1.31-.34-2.67,.23-3.96,.67-3.24,.93-6.55,2.2-9.69,1.61-3.97,3.69-7.62,6.73-10.6,1.53-1.51,1.96-3.04,1.98-5.08,.08-7.06-.28-14.11-1.05-21.1-.44-4.03-.95-8.08-1.4-12.12-.15-1.39-.05-2.81-.06-4.21-.28-.49-.19-.89,.29-1.19,1.12,.23,1.31,1.12,1.33,2.03,.14,8.41,2.04,16.64,2.61,25.01,.2,2.93,0,5.85-.19,8.78-.11,1.72-.52,3.59,.7,5.18Z"/><path class="cls-107" d="M417.37,311.2c.97-.26,.61-1.67,1.65-1.9,1.01,.48,.59,1.23,.36,1.93-.99,3.06-1.43,6.2-1.14,9.4,.23,2.59-.86,4.97-.84,7.56,.03,6.11,.57,12.14,1.49,18.18,.34,2.24-.05,4.59,1.29,6.65,.34,.52,.52,1.34-.15,1.68-.95,.48-1.07-.86-1.77-1.06-1.55-2.33-1.59-5.13-1.99-7.7-1.1-7.04-1.6-14.22-.86-21.28,.47-4.47,.19-9.14,1.96-13.46Z"/><path class="cls-42" d="M536.35,800.62h-8.11c1.01,1.36,2.77,.35,3.25,1.71-4.55-.3-9.1-.34-13.65,.1-.87,.08-1.79-.18-2.55,.47-6.02,.34-11.96,2.1-18.06,1.17-2.67-.41-5.35-.88-6.43-3.92,.05-1.01,.26-1.91,1.53-1.98,7.15,2.4,14.52,1.58,21.76,1.03,6.16-.46,12.27-.92,18.42-.38,1.46,.13,3.2-.16,3.84,1.8Z"/><path class="cls-82" d="M438.27,486.99c-.03-.64-.04-1.27-.08-1.91,0-.1-.12-.2-.44-.66-.25,3.36-1.9,6.05-1.94,9.2-.01,1.14-.3,2.55-1.52,3.34,.39-4.67,1.46-9.23,2.85-13.66,.76-2.42,.19-5.13,1.8-7.34,.35-.48-.25-1.17-.49-1.76-1.03-2.57-2.11-5.12-2.59-7.87-.32-.53-.16-1.27-.75-1.67h0c-.17-.24-.22-.52-.16-.82,.19-.43,.52-.7,.99-.76,2.1,3.12,4.11,6.23,7.14,8.66,3.92,3.15,8.3,3.2,12.88,2.88,1.54-.61,3.05-.42,4.86-.12-.64,1.89-2.17,1.74-3.31,2.19-.39,.14-.79,.23-1.2,.3-1.99,.26-3.98,.27-5.97,0-3.14,.02-6.14-.46-8.68-2.49-.29-.25-.54-.54-.73-.86,0,.03-.25-.03-.25-.03,0,0-.09,.24-.09,.27,.03,.26,.04,.5,.07,.76,.06,.8,.39,1.59-.11,2.33-1.43,2.62-.55,5.66-1.51,8.38-.21,.59-.25,1.22-.79,1.64Z"/><path class="cls-77" d="M452.94,239.48c0,1.22-.13,2.37-1.75,2.45-.73-.74-.39-1.69-.43-2.54-.04-.89-.38-1.3-1.25-1.6-3.68-1.25-5.06-4.85-6.85-7.68-1.13-1.78-2.05-3.92-3.19-5.84,1.62-1.02,.89-2.66,1.08-4.07,.25-1.78-.67-3.74,.8-5.33,1.15,1.11,1.09,2.59,.96,3.95-.37,3.87,1.39,6.61,4.32,8.82,2.58,1.94,4.84,4.17,6.13,7.2,.64,1.51,1.51,3.04,.16,4.63Z"/><path class="cls-76" d="M502.33,216.41c.58,.41,.68,1,.64,1.65-.41,.43-.41,.86-.02,1.29,.02,1.77,.08,3.53,.06,5.3-.01,1.57,.25,3.01,1.52,4.09,.3,.31,.36,.67,.16,1.06,.15,.69,.22,1.38-.13,2.04-1.41,.2-1.77-.92-2.32-1.82-.4-5.18-1.98-8.53-8.4-7.39-2.95,.52-5.3-3.41-4.68-6.52,.61-3.07,3.28-4.03,7.71-2.77l-.05-.03c2.03,.68,3.78,1.85,5.49,3.09Z"/><path class="cls-29" d="M491.31,800.22c.45,1.18,1.48,1.8,2.55,2.06,3.19,.77,6.46,1.65,9.71,1.33,3.91-.38,7.82-.36,11.72-.71-1.13,1.6-2.81,.86-4.25,.92-2.54,.11-5.08,.09-7.3,1.59-.75-.02-1.55-.2-2.26-.02-5.53,1.38-9.39-1.11-12.55-5.3,.26-1.75-.92-4.04,1.82-4.87,1.64,1.5-.18,3.39,.55,4.99Z"/><path class="cls-53" d="M425.17,288.89c0,.96-.71,1.58-1.1,2.36-1.73,3.47-4.05,6.75-3.58,10.97,.18,1.61-.51,2.72-2.29,2.85-.54-6.41,1.51-12.01,5.28-17.08,.15,.05,.3,.1,.46,.15,.42,.23,.85,.44,1.23,.75Z"/><path class="cls-110" d="M425.17,377.55c-.27,.51-.53,1.02-.8,1.53-.24,.33-.48,.35-.71,0-.61-3.21-1.84-6.34-1.6-9.67,.29-3.93-1.74-7.33-2.36-11.04,.19-.3,.23-1.37,.64-.75,1.71,2.52,2.78,5.38,3.65,8.31,.18,.62,.43,1.25,.18,1.86-1.47,3.45,.19,6.57,1,9.77Z"/><path class="cls-59" d="M435.95,463.09c-.2,.25-.4,.5-.6,.75-1.05-.4-.04-1.81-1.09-2.21v.04c-.22-.54-.14-1.2-.61-1.66-.35-3.1-.51-6.19,.09-9.28,.5-1.24,.81-2.51,.52-3.87-.04-1.04-.15-2.08,.31-3.07,.19-.27,.37-.55,.54-.84l-.02,.03c1.1-1.44,.06-3.2,.72-4.71,0,0,0,0,0,0,1.29-.24,.65-2.22,2.62-2.47-2.45,9.1-4.39,18.05-2.47,27.28Z"/><path class="cls-109" d="M503.07,230.29c.5,.52,1,1.04,1.5,1.56-1.01,4.92-2.79,9.54-5.4,13.83-.13-.79,.14-1.71-.73-2.27,.16-4.86,1.93-9.16,4.64-13.13Z"/><path class="cls-106" d="M438.9,541c1.5,.99,1.02,2.56,.95,3.87-.41,7.7,.68,15.33,.88,23,.38,.67,.3,1.27-.27,1.79-.63-1.29-.95-2.64-.95-4.08,.02-6.79-.95-13.57-.32-20.38,.13-1.38-.18-2.8-.29-4.2Z"/><path class="cls-20" d="M535.48,413.58v5.24c-2.08-1.61-1.51-3.45-1.64-5.08-.87-1.11,.15-2.6-.72-3.71,.26-1.88-.88-4.01,.95-5.63,1.47,2.91,.98,6.12,1.41,9.19Z"/><path class="cls-103" d="M584.03,793.14c-.09-2.33-.19-4.66-.29-6.99,0-.04-.21-.1-.31-.08-.11,.02-.22,.11-.33,.18-.72,.58-1.41,1.23-2.42,.56-.29-.5-.31-1.02-.15-1.57,1.1-1.32-.12-3.19,1.07-4.48,.98-.64,.69-1.72,.93-2.63,1.11,4.29,2.72,8.49,2.35,13.05-.06,.76-.11,1.51-.86,1.97Z"/><path class="cls-22" d="M444.4,251.23c-1.76,1.09-3.74,1.38-5.73,1.4-3.78,.05-7.56-.04-11.34-.07,1.64-1.25,3.63-1.12,5.43-.94,3.92,.4,7.77-.08,11.64-.39Z"/><path class="cls-33" d="M440.46,569.66c.09-.6,.18-1.2,.27-1.79,.67-.31,1.13-.82,1.4-1.51,1.5,1.91,.43,4.13,.76,6.18-.32,.64-.94,.84-1.56,1.04-.34,.11-.61,0-.83-.26-.36-1.22-.3-2.44-.04-3.67Z"/><path class="cls-100" d="M519.2,718.24c-.28-4.1-1.18-8.16-.77-12.31,1.39,4.22,1.53,8.61,1.77,12.99-.47-.03-.78-.29-1-.68Z"/><path class="cls-102" d="M456.59,824.7c.88-.3,2.6,.25,1.77-1.77,2.54-.39,3.98,.8,4.58,3.2-1.28,.05-1.1,.86-.89,1.7-2.06-.62-3.57-2.2-5.47-3.13Z"/><path class="cls-100" d="M432.8,637.94c.06,.99,.16,1.98,.16,2.98,0,1.03,.37,1.67,1.45,1.77-.06,1.09,.53,2.41-1.02,3.01-1.67-2.47-1.37-5.1-.59-7.76Z"/><path class="cls-53" d="M425.77,280.47c.31-.02,.62-.04,.92-.07,2.48,1.61,2.86,3.22-.02,4.82-.38,.06-.69-.06-.93-.37,1.26-1.45,.82-2.92,.03-4.38Z"/><path class="cls-22" d="M451.31,243.31c.27,1.22,.62,2.42,.77,3.65,.12,.94,.38,2.07-.97,2.5,.33-.86,.2-1.69-.04-2.56-.32-1.2-.61-2.44,.23-3.58Z"/><path class="cls-22" d="M434.25,446.87c1.82,1.55,.37,2.67-.52,3.87,.18-1.29-.37-2.67,.52-3.87Z"/><path class="cls-22" d="M423.66,379.08c.24,0,.48,0,.71,0-.15,1.87,1.27,3.52,.75,5.44-.52-1.81-1.86-3.39-1.46-5.44Z"/><path class="cls-22" d="M435.79,438.29c.06,1.61,.81,3.34-.72,4.71,.05-1.6-.29-3.26,.72-4.71Z"/><path class="cls-102" d="M469.08,831.59c1.25,.05,2.37,.36,3.07,1.52-1.2-.16-2.43-.23-3.07-1.52Z"/><path class="cls-53" d="M423.48,288c.14-1.02,.87-1.65,1.55-2.31,.14,.12,.27,.25,.41,.37,.29,1.38-.21,2.14-1.68,2.15l-.28-.22Z"/><path class="cls-109" d="M498.47,248.97c-.07-1.14-.53-2.36,.67-3.24-.04,1.12,.16,2.29-.67,3.24Z"/><path class="cls-22" d="M434.26,461.63c1.1,.38,.85,1.41,1.09,2.21-.07,.28-.15,.56-.23,.84-.97-.83-1.07-1.9-.86-3.06Z"/><path class="cls-63" d="M534.87,315c-1.21-.43-1.02-1.4-.93-2.35,.59,.67,.87,1.46,.93,2.35Z"/><path class="cls-63" d="M500.05,276.51c-1.13-.55-.9-1.54-.81-2.48,.61,.71,.68,1.6,.81,2.48Z"/><path class="cls-103" d="M583.22,796.11c-.16-.89-.14-1.73,.69-2.33,.21,.91,.04,1.7-.69,2.33Z"/><path class="cls-103" d="M582.44,797.66c-.05-.67,.11-1.23,.77-1.54,.08,.68,.05,1.31-.77,1.54Z"/><path class="cls-100" d="M430.52,771.38c.07,.71-.1,1.29-.87,1.53-.03-.69,.1-1.29,.87-1.53Z"/><path class="cls-22" d="M433.65,460.02c.67,.38,.86,.94,.62,1.66-.54-.43-.8-.96-.62-1.66Z"/><path class="cls-22" d="M449.13,250.31c-.55,0-1.1-.01-1.64-.02,.42-.48,.97-.55,1.56-.53l.27,.24-.18,.31Z"/><path class="cls-109" d="M497.67,251.21c-.12-.69,.04-1.26,.67-1.63,.15,.7-.25,1.17-.67,1.63Z"/><path class="cls-102" d="M462.04,827.82c.73-.14,1.32,0,1.52,.83-.65-.01-1.24-.14-1.52-.83Z"/><path class="cls-22" d="M435.11,464.67c.72,.35,.83,.97,.75,1.67-.82-.3-.82-.97-.75-1.67Z"/><path class="cls-102" d="M463.55,828.65c.74-.18,1.34-.09,1.56,.78-.64-.02-1.23-.12-1.56-.78Z"/><path class="cls-102" d="M465.99,830.05c.71-.1,1.24,.13,1.49,.84-.74,.15-1.22-.16-1.49-.84Z"/><path class="cls-106" d="M440.5,573.33c.27,0,.55,.02,.82,.03,.18,.15,.26,.31,.24,.49-.03,.19-.07,.28-.12,.28-.08,.33-.15,.67-.23,1-.57-.47-.9-1.03-.71-1.8Z"/><path class="cls-102" d="M467.48,830.89c.72-.22,1.28-.06,1.58,.69-.64,.03-1.19-.14-1.58-.69Z"/><path class="cls-63" d="M533.97,312.73c-.78-.32-.88-.94-.74-1.66,.62,.39,.87,.94,.74,1.66Z"/><path class="cls-121" d="M447.51,250.33c-.26,.26-.52,.52-.78,.78-.17-.15-.22-.3-.16-.45,.06-.15,.12-.22,.18-.22,.26-.03,.51-.07,.77-.1Z"/><path class="cls-22" d="M446.74,250.43c0,.23,0,.45-.01,.67-.34-.05-.68-.09-1.02-.14,.2-.45,.52-.67,1.03-.54Z"/><path class="cls-121" d="M449.13,250.31c-.01-.18-.04-.37-.08-.54,.26-.05,.52-.1,.77-.15-.23,.23-.46,.46-.69,.69Z"/><path class="cls-53" d="M425.03,285.69c-.02-.5,.27-.74,.72-.83l.25,.25c.11,.57-.15,.81-.7,.8l-.27-.22Z"/><path class="cls-100" d="M429.68,772.84c.05,.44-.14,.74-.55,.89-.04-.44,.13-.74,.55-.89Z"/><path class="cls-109" d="M504.69,229.81c-.05-.35-.1-.7-.16-1.05,.25-.02,.5-.02,.75,0,.15,.54-.13,.85-.59,1.05Z"/><path class="cls-22" d="M435.1,442.96c.05,.43-.14,.7-.54,.84-.11-.47,.13-.71,.54-.84Z"/><path class="cls-102" d="M465.08,829.4c.48-.04,.77,.19,.89,.64-.48,.05-.79-.15-.89-.64Z"/><path class="cls-51" d="M470.7,704.37c-.91,11.74-1.31,23.5-.97,35.28,.13,4.35,.47,8.69,.9,13.02,.2,2.02,1.35,3.83,2.02,5.75,.98,2.86,1.54,5.7,1.26,8.66-.15,1.57-.08,2.7,1.66,3.34,1.65,.6,2.68,2.03,3.23,3.63,1.62,4.68,3.79,9.31,2.15,14.46-.37,1.16,.47,1.94,.55,2.93-1-.33-1.89-.45-1.4,1.09,.57,1.81,2.11,3.26,1.99,5.33-1.93-.12-2.38-1.76-3.05-3.09-.64-1.26-1.36-2.19-2.95-1.74-1.09,.17-2.1,.55-3.09,1.01-2.01,.62-3.94,2.07-6.16,.61-.29-.79-.82-1.35-1.59-1.67,2.11-1.25,4.56-1.47,6.81-2.28,.36-.13,.77-.1,1.13-.21,6.68-2.13,6.21-2.89,5.79-9.2-.15-2.17-1.41-4.31-2.41-6.34-.52-1.05-1.43-2.73-2.76-2.15-2.47,1.07-2.47-.51-2.35-1.9,.65-7.51-2-14.32-4.31-21.21-.56-1.68-.4-3.56-1.38-5.14-.2-.33-.16-.91,.23-1,2.47-.61,1.52-2.58,1.53-4.02,.07-8.08,0-16.15,.05-24.23,0-1.35-.52-2.85,.76-3.98,.28,.29,.28,.69,.4,1.04,.04,.11,.16-.25,.25-.39,.57-.92,.52-1.96,.52-2.99-.01-7.42,.01-14.83-.03-22.25,.04,7.56,0,15.13-.02,22.69,0,.75,.44,1.97-1.11,1.89v-29.13c-1.36-.92-1.66,1.12-2.81,.7-.47-.61-.41-1.41,.02-2.05,1.34-2.02,2.56-4.18,4.23-5.9,2.72-2.79,4.01-6.52,6.64-9.35,1.02-1.1,1.72-2.63,.3-4.13-.8-.84-.3-1.56,.22-2.38,2.32-3.66,4.56-7.37,7-10.95,2.99-4.38,4.77-9.32,5.18-14.64,.61-8,2.14-15.86,3.23-23.79,.05-.33,.42-.62,.64-.92,.74,.21,.59-1.42,1.56-.75,.01,1.92-.05,3.79-.66,5.67-1.24,3.78-.95,7.81-1.6,11.7-.73,4.38-1.27,8.81-1.86,13.21-.47,3.56-2.39,6.96-4.49,10.08-1.78,2.65-3.39,5.41-5.13,8.08-.51,.78-1.1,1.51-.7,2.45,1.23,2.9,.1,5.59-1.66,7.46-3.8,4.05-4.21,8.74-3.99,13.84,.19,4.35,.04,8.71,.05,13.06-.21,2.25,.41,4.55-.45,6.76-.31,.37-.68,.43-1.09,.16h0c-1.09-3.53,.3-7.25-.77-10.8,.02-.24-.01-.48-.11-.7-1.48-3.46-.3-7.04-.63-10.56-.1,8.66-.33,17.3-.76,25.95Z"/><path class="cls-65" d="M440.57,476.98c-.49-.96-.87-1.96-.76-3.07,.15-.27,.39-.38,.69-.33,.38,.2,.66,.53,.99,.79,.2,.19,.37,.4,.53,.62,.19,.19,.37,.38,.58,.56,.23,.15,.45,.31,.66,.48,.23,.16,.43,.35,.64,.54,.11,.09,.2,.19,.31,.29,.22,.18,.42,.38,.62,.57,.11,.09,.21,.19,.32,.27,.34,.25,.71,.47,1.11,.62,.3,.06,.58,.14,.88,.2,.32,.05,.62,.13,.93,.21,.33,.09,.65,.2,.97,.32,.71,.24,1.45,.32,2.19,.38,7.41,.5,14.82,.2,22.22,.24,10.49,.05,20.88,1.17,31.23,2.73,1.9,.29,3.76,.75,5.53,1.5,1.72,.75,3.51,.63,5.3,.43,.28-.16,.55-.33,.79-.54,.76-.9,.39-2.35,1.48-3.08,.33-.1,.65-.09,.97,.04,1.2,.82,2.4,.71,3.61-.02,1.01-.46,2.01-.83,2.98,.07,1,.1,2.03,.03,2.4,1.36,.31,1.11,1.37,.92,2.23,1.01-.56,.89-1.46,.71-2.29,.75-3.51-1.7-6.83-.09-9.13,1.9-2.22,1.91-4.26,2.14-6.64,1.86-5.94-.71-11.84-1.71-17.8-2.36-7.77-.84-15.53-1.11-23.31-1.58-5.37-.32-10.73-.53-16.09-.55-1.47,0-2.73-.65-4.12-.82-.4-.49-1.14-.29-1.55-.76-.25,0-.51,0-.76-.02-.23-.28-.54-.49-.79-.75-.25,0-.5,0-.75-.01-.61-.73-1.68-.09-2.31-.77h0c-.25-.26-.5-.52-.78-.76h0c-.4-.48-1.11-.34-1.54-.77h0c-.24-.27-.5-.53-.78-.76h0c-.24-.27-.47-.56-.77-.78h0Z"/><path class="cls-78" d="M473.59,700.79c.59-2.37-.66-4.98,.92-7.22,.24,.44,.7,.89,.68,1.3-.28,4.24,1.27,8.35,.84,12.58-.19,1.85,.6,3.51,.82,5.28,1.11,8.96,2.35,17.89,4.99,26.59,1.88,6.2,3,12.62,5.24,18.75,.84,2.3,1.9,4.47,2.95,6.66,.63,1.31,1.18,2.63-.25,3.81,0,0,0-.02,0-.02,.02-.46-.38-.64-.61-.93-1.95-2.09-3.07-4.64-4.02-7.28-3.84-10.69-6.52-21.68-8.65-32.82-1.22-6.38-1.84-12.84-2.79-19.26-.61-2.47-.45-4.95-.11-7.44Z"/><path class="cls-67" d="M494.53,608.01c-.47,.25-.65,.68-.79,1.16-.05,.19-.29,.51-.35,.49-.42-.14-.37-.55-.42-.9,.04-5.97,1.96-11.59,3.71-17.16,3.02-9.62,6.91-18.98,9.76-28.65,1.53-5.2,3.35-10.46,3.58-16.01,.08-2.04,1.57-3.63,2.19-6.09,1.26,2.44,1.01,4.54,.58,6.53-.77,3.57-.5,7.44-2.87,10.57-.02,7.75-3.95,14.35-6.56,21.27-3.47,9.2-6.47,18.48-8.52,28.08-.05,.25-.21,.47-.31,.7Z"/><path class="cls-68" d="M441.43,574.14c-.04-.26-.08-.52-.12-.78,.34-.63,.92-.79,1.57-.81,1,1.69-.27,3.71,.77,5.39,0,1.28,.01,2.55,.02,3.83,.98,1.7-.29,3.73,.77,5.42h0c.99,1.96-.29,4.21,.77,6.17h0c1.02,1.96-.3,4.21,.77,6.17h0c.62,3.08,.6,6.17,0,9.26h0c-.67,1.79-.62,3.58-.03,5.38,0,.26,0,.52,0,.78-1.35-.16-1.54-1.09-1.53-2.21,.02-2.17-.05-4.34,0-6.51,.16-5.99-.67-11.89-1.37-17.83-.43-3.64-1.32-7.27-.99-11,.1-1.09,.35-2.33-.65-3.25Z"/><path class="cls-33" d="M445.98,608.79c0-3.09,0-6.17,0-9.26,1.21,3.09,1.21,6.17,0,9.26Z"/><path class="cls-33" d="M445.2,593.36c-1.55-1.9-.44-4.13-.77-6.18,1.52,1.9,.43,4.13,.77,6.18Z"/><path class="cls-33" d="M445.97,599.53c-1.55-1.9-.44-4.12-.77-6.17,1.52,1.9,.42,4.13,.77,6.17Z"/><path class="cls-33" d="M445.95,614.17c-1.18-1.8-1.22-3.6,.02-5.39,0,1.8-.02,3.59-.02,5.39Z"/><path class="cls-33" d="M444.44,587.19c-1.47-1.63-.5-3.61-.77-5.42,1.43,1.64,.49,3.62,.77,5.42Z"/><path class="cls-33" d="M443.65,577.94c-1.45-1.63-.49-3.6-.77-5.39,1.43,1.63,.48,3.6,.77,5.39Z"/><path class="cls-82" d="M437.49,492.38c.11-1.06-.35-2.27,.76-3.08-.09,1.07,.36,2.27-.76,3.08Z"/><path class="cls-51" d="M465.24,793c-.56,.91-1.47,.75-2.33,.76,.57-.87,1.48-.73,2.33-.76Z"/><path class="cls-82" d="M444.43,480.05c.85,.02,1.76-.13,2.31,.77-.85-.02-1.75,.13-2.31-.77Z"/><path class="cls-82" d="M442.11,478.51c.64,0,1.21,.14,1.54,.78-.63-.02-1.2-.16-1.54-.78Z"/><path class="cls-82" d="M449.04,481.6c.64,0,1.21,.14,1.55,.76-.64,0-1.21-.15-1.55-.76Z"/><path class="cls-82" d="M440.56,476.97c.26,.26,.51,.52,.77,.78-.26-.26-.51-.52-.77-.78Z"/><path class="cls-82" d="M441.33,477.75c.26,.25,.52,.51,.78,.76-.26-.25-.52-.51-.78-.76Z"/><path class="cls-82" d="M443.65,479.29c.26,.25,.52,.51,.78,.76-.26-.25-.52-.51-.78-.76Z"/><path class="cls-82" d="M447.49,480.83c.26,.25,.53,.5,.79,.75-.26-.25-.53-.5-.79-.75Z"/><path class="cls-14" d="M453.5,256.52c0-1.05,0-2.1,0-3.15-.14-.22-.14-.43,0-.65,.4-2.15-1.36-4.19-.32-6.37,7.63,3.8,15.28,7.58,22.89,11.4,3.8,1.91,7.93,1.65,11.95,1.79,2.39,.09,2.79,1.23,2.68,3.13-.83,3.01-.08,6.02,.27,8.97,.43,3.57,.22,3.93-3.25,5.07-7.39,2.42-14.55,1.25-21.66-1.08-.94-.31-1.84-.91-2.59-1.58-2.24-1.97-4.89-3.2-7.51-4.52-.21-.21-.43-.39-.67-.55-.53-.09-1.06-.17-1.59-.26-.23-.17-.47-.33-.72-.45-.61-.15-1.22-.29-1.5-.95,.18-.27,.38-.54,.59-.79l.1-.12c.26-.17,.46-.39,.61-.67l.15-.15c.26-.12,.45-.31,.57-.58,.41-2.33,.31-4.67,.1-7.01-.03-.5-.05-1.01-.08-1.51Z"/><path class="cls-40" d="M522.31,400.77c-.02,.2-.02,.4,.01,.6,0,.18,0,.36,0,.54-.06,.35-.18,.69-.33,1.01-1.47,2.15-3.52,3.44-6.01,4.07-.5,.14-1,.28-1.5,.41-.94,.31-2.03,.18-2.8,.97-.21,.27-.45,.51-.7,.74-1.16,.8-1.92,.2-2.58-.75-.38,0-.77,.03-1.15-.01-4.23-.44-8.16,.33-12.02,2.28-3.54,1.79-7.3,2.44-10.57-.88-.47-.48-1.12-.56-1.77-.63-2-.24-3.5-1.71-3.99-3.23-.7-2.18-1.31-3.88-3.79-4.39-.47-.1-1.05-.89-1.14-1.44-.35-2.24-.67-4.5-.71-6.76-.02-.93,1.09-2.01-.92-2-.19,0-.07-.94,.25-1.36,.62-.81,1.26-1.6,1.89-2.39,0,0-.01,.01-.01,.01,2.08-.46,3.59-1.83,5.12-3.18,2.73-2.41,5.74-4.26,9.49-4.54,1.47-.11,2.6-1.02,3.89-1.54,.03,.66,.2,1.25,.83,1.6-.31,2.81-2.68,2.89-4.57,3.11-5.88,.67-8.77,5.63-13.75,8.48,2.37,1.29,3.59,.15,4.83-.56,3.92-2.25,8.12-3.82,12.38-5.23,.73-.24,1.48-.49,2.25-.52,1.62-.06,3.84-.69,4.34,1.3,.54,2.12-1.78,2.56-3.28,2.99-5.43,1.56-10.92,2.92-15.7,6.11-.92,.61-2.73,.99-2.29,2.19,.6,1.66,2.47,1.08,3.72,.65,3.39-1.16,6.53-2.95,9.95-4.08,2.93-.96,5.88-1.86,8.94-2.24,1.25-.16,2.84-.24,3.29,1.27,.54,1.78-1.02,2.44-2.33,2.96-2.04,.8-4.17,1.34-6.35,1.46-4.57,.26-8.18,2.82-12.03,4.82-.59,.31-1.15,.74-1.01,1.46,.16,.84,.86,1.24,1.64,1.42,2.03,.46,3.79-.39,5.5-1.28,4.05-2.11,8.22-3.61,12.89-3.01,1.12,.14,2.73-.02,2.93,1.25,.22,1.37-1.41,1.58-2.45,1.97-3.48,1.31-7.44,.75-10.76,2.72-.65,.38-1.45,.49-1.96,1.1,.13,.54,.62,.46,.88,.35,6.69-2.82,13.84-3.53,20.9-4.65,2.18-.34,4.11-1.34,6.03-2.43,1.35-.77,2.75-2.09,4.5-.74Z"/><path class="cls-48" d="M456.76,476.2c.68-1.22,2.13-.38,3.59-1.56-1.84,0-3.11,0-4.38,0,.44-.23,.9-.71,1.31-.67,4.06,.39,7.83-1.16,11.71-1.82,1.69-.29,3.15-.37,4.85,.03,6.64,1.59,13.34,2.91,20,4.45,1.67,.39,3.31,.3,4.97,.32,4.57,.06,9.14-.22,14.07,.83-.79-2.67,.03-4.8,.16-6.99,2.09,.28,1.44,1.94,1.67,3.2,.08,.42-1.12,1.41,.47,1.31,.86,.54,1.02,1.42,1.22,2.31,.93,4.11,.05,5.19-3.98,3.95-5.93-1.83-11.96-1.83-18.04-2.03-6.84-.22-13.33-2.56-20.04-3.64-4.52-.73-8.89-.11-13.24,.96-1.54,.38-3.03,.59-4.32-.64Z"/><path class="cls-61" d="M463.68,380.62c-5.63-3.16-8.95-8.63-13.1-13.25-1.8-2-3.81-3.78-5.54-5.83-1.02-1.21-2.8-.48-3.69-1.75v.02c1.59-.25,1.75-1.08,.54-1.95-3.79-2.72-6.76-6.25-9.85-9.67-.82-.91-1.72-1.8-2.18-3.37,3.64,1.19,5.7,3.96,7.94,6.2,4.06,4.06,8.48,7.74,12.31,12.01,1.79,1.99,3.54,4.03,5.16,6.16,2.87,3.78,6.24,7.02,9.98,9.91,.26,.24,.51,.49,.75,.74h.02c.26,.26,.51,.51,.76,.77h0c.52,.92,.56,1.57-.77,1.55-.51-.26-1.02-.53-1.54-.79-.23-.29-.53-.49-.79-.75Z"/><path class="cls-72" d="M505.33,364.42c-2.15-.96-3.16-3.11-4.19-4.86-5.83-9.94-13.23-18.72-20.04-27.94-1.88-2.54-3.77-5.15-6.2-7.28-.73-.64-1.69-1.23-1.67-2.41,.42-.55,.96-.48,1.32-.11,2.65,2.74,5.93,4.93,7.59,8.55,.26,.57,.55,1.3,1.3,1.17,.93-.16,.99-1.04,1.07-1.81h0c2.87,7.03,8.05,12.55,12.15,18.78,2.86,4.34,5.43,8.87,8.13,13.32,.48,.8,.53,1.69,.53,2.6h0Z"/><path class="cls-48" d="M513.04,466.2c-1.27-1.12-.7-2.62-.78-3.97-.54-9.2,1.18-18.34,.77-27.53-.13-3.05,.07-6.07-.65-9.13-.73-3.12-.81-6.42,.65-9.49,.23,.01,.46,.03,.69,.04,1.94,3.47,1.63,7.4,1.8,11.1,.4,8.41,.36,16.85-.01,25.26-.16,3.65-.28,7.22,.07,10.85,.18,1.86,.38,3.84-.6,5.63-.32,.43-.72,.54-1.21,.31,0-.27-.02-.54-.03-.81-.63-.63,0-1.65-.72-2.25Z"/><path class="cls-64" d="M425.3,285.9c.23-.27,.47-.54,.7-.8q2.37-2.11,.7-4.7c.5,0,1.01,0,1.51,0,1.17,2.02,2.91,1.78,4.7,1.13,3.23-1.17,6.22-2.86,9.21-4.54,3.97-2.24,13.68-1.55,17.24,1.25,.58,.46,1.43,.94,.69,1.79-.49,.56-1.37,.36-1.69-.16-1.26-2.07-3.47-1.02-5.17-1.61-1.61-.56-3.51-.26-5.25-.82-.95-.3-1.87,.05-2.82,.71-2.71,1.87-5.58,3.49-8.41,5.2-.2,.12-.5,.1-.75,.14-.41,.46-1.14,.29-1.55,.76h0c-2,.68-4.22-.38-6.16,.79h0c-.49,.39-.33,1.11-.8,1.51h0c-.62,.41-1.16,.9-1.51,1.57h0c-.27,.25-.55,.48-.77,.77,0,0,0,0,0,0-.66,.17-1.59,.89-1.41-.68,.82-.57,1.38-1.31,1.54-2.31Z"/><path class="cls-90" d="M511.5,359.8c-.89-.54-.91-1.54-1.15-2.36-2.31-8.08-6.2-15.41-10.56-22.51-2.36-3.84-4.61-7.6-4.76-12.34-.06-1.98-1.14-3.9-1.24-5.97,.19-.24,.43-.32,.73-.22,.44,.37,.93,.63,1.52,.71,.31,.12,.57,.3,.81,.52,.37,.4,.59,.86,.75,1.37,.51,9.33,6.17,16.59,9.98,24.58,.93,1.94,2.08,3.8,3.05,5.74,.47,1.45,1.26,2.81,1.29,4.39-.53,2,1.29,4.17-.41,6.09Z"/><path class="cls-49" d="M494.55,316.64c-.25,0-.51-.02-.76-.02-1.91-5.52-4.11-10.88-7.99-15.39-.57-.66-.86-1.54-1.29-2.32,1.02-.02,1.5-.59,1.56-1.57,.72-.19,1.27,.16,1.65,.67,3.75,5.02,7.09,10.26,8.44,16.52-.2,.96-.03,2.21-1.61,2.11Z"/><path class="cls-60" d="M511.5,359.8c.05-1.24-.1-2.42-.57-3.59-.37-.94-.32-1.94,.63-2.65,0,0,.32,.11,.32,.1,.23-.08,.44-.18,.65-.31,0,0,.38,.02,.38,.02,.25,.12,.44,.29,.6,.51,.16,.21,.33,.42,.52,.6,.25,.12,.5,.22,.77,.28,.14,.04,.28,.08,.42,.12,.13,.08,.25,.17,.37,.25,.09,.13,.17,.25,.26,.38,.28,.57,.48,1.17,.69,1.77,.11,.32,.16,.65,.19,.98,.19,1.49-2.91,3.55,.77,4.44,.31,.17,.52,.41,.65,.73,.44,1.8-1.1,2.37-2.04,3.31,0,.52,0,1.03,0,1.55-.77,.63-1.54,.63-2.31,0h0c-1.02-1.68,.28-3.71-.78-5.39-.51-1.03-1.02-2.06-1.53-3.09Z"/><path class="cls-72" d="M484.52,329.73c-1.37-.52-2.52-1.33-2.88-2.82-1.29-5.33-3.7-10.13-6.63-14.72-.33-.52-.64-1.12-.24-1.77,3.11,1.73,8.64,12.69,9.75,19.32,0,0,0,0,0,0Z"/><path class="cls-72" d="M508.4,366.74c-1.19,.11-1.51-1.1-2.32-1.55-.25-.26-.5-.51-.75-.77,0,0,0,0,0,0,.96-.53,1.72-1.08,1.05-2.39-1.2-2.36-1.7-4.9-2.16-7.52-.37-2.12-2.05-4-2.39-6.31-.09-.62-.41-1.21,.07-1.79,1.12-.36,1.36,.62,1.55,1.22,.91,2.83,1.78,5.66,2.47,8.56,.83,3.49,1.2,7.14,2.49,10.54Z"/><path class="cls-99" d="M475.31,284.99c-1.25,.02-1.28,.69-.84,1.59-2.55-1.24-4.27-3.41-6.14-5.41,1.94-1.26,3.99-1.74,6.37-1.6,3.8,.24,7.62,.09,11.43,.11-2.46,3.17-6.04,1.63-9.11,2.06-1.46,.2-3.04-.28-4.56-.44,1.08,1.08,3.04,1.57,2.85,3.68Z"/><path class="cls-61" d="M441.35,359.79c-3.67,.58-6.67-1.95-10.53-1.94,.74-1.35,1.5-.38,2.16-.63,.33-1.29-1.52-1.56-1.4-2.74,.18-.08,.49-.29,.54-.24,1.67,1.71,3.98,2.19,6.06,3.06,1.36,.57,2.52,1.14,3.16,2.5,0,0,.01-.02,.01-.02Z"/><path class="cls-48" d="M508.4,408.37c.78,.22,1.57,1.21,2.34-.03,3.02,2.05,3.69,4.29,2.29,7.73,0,0,0,0,0,0-1.09,.5-2.22,1.05-2.29-.92-.04-1.12-.01-2.25-.04-3.37-.02-.61-.02-1.51-.78-1.42-.95,.12-.67,1.14-.75,1.84-.24,.36-.5,.37-.77,.03,0-1.29,0-2.57-.01-3.86Z"/><path class="cls-40" d="M466,382.16c.61-.33,.76-.9,.77-1.54,1.69,1.67,4.23,2.34,5.4,4.62-.11,.1-.23,.21-.34,.31-.48,.15-.9,.09-1.19-.37-1.78-.64-3.56-1.29-4.63-3.02Z"/><path class="cls-80" d="M513.79,469.26c.26,.01,.52,.03,.78,.04,1.49,2.05,1.44,4.1,.02,6.16-.16,.3-.33,1.32-.68,.43-.62-1.59,.56-3.57-.88-5.1,.02-.62,.15-1.19,.76-1.53Z"/><path class="cls-72" d="M506.08,365.94c-.06,.24-.12,.69-.19,.69-2.77,.02-5.61,.76-8.27-.67,2.82,0,5.64-.01,8.46-.02Z"/><path class="cls-40" d="M472.17,385.24c1.49,.06,2.25,.83,2.31,2.31,0,0,.01-.01,.01-.01-1.3-.21-2.79,.56-3.86-.79,.52-.49,1.02-.99,1.52-1.5h.01Z"/><path class="cls-53" d="M428.25,285.04c1.87-1.73,4.03-1.13,6.16-.78-1.89,1.54-4.12,.43-6.16,.78Z"/><path class="cls-95" d="M508.41,412.22c.26-.02,.51-.03,.77-.03,0,1.51,0,3.01,0,4.52-1.04-1.44-.65-2.99-.77-4.5Z"/><path class="cls-50" d="M513.03,362.88c1.46,1.62,.48,3.6,.78,5.39-.26,0-.52,0-.79-.01,0-1.79,0-3.59,0-5.38Z"/><path class="cls-49" d="M478.34,291.2c1.25,.67,2.27,1.52,2.31,3.09-1.22-.69-2.23-1.54-2.31-3.09Z"/><path class="cls-49" d="M482.18,295.83c1.05,.41,1.56,1.18,1.55,2.3-1.02-.43-1.52-1.21-1.55-2.3Z"/><path class="cls-87" d="M472.16,385.26c-.03,.98-.51,1.51-1.52,1.5,0-.52,0-1.05,0-1.57,.51,.02,1.01,.05,1.52,.07Z"/><path class="cls-123" d="M445.96,254.23c-.46-.43-.89-1.05-.02-1.28,.77-.2,.78,.65,.79,1.24-.26,.01-.51,.03-.77,.04Z"/><path class="cls-80" d="M513.04,466.2c.92,.53,.73,1.42,.72,2.25-.87-.55-.7-1.43-.72-2.25Z"/><path class="cls-99" d="M466.76,279.65c.75,.27,1.26,.78,1.56,1.52-.99-.02-1.51-.53-1.56-1.52Z"/><path class="cls-53" d="M425.94,288.12c0-1,.51-1.52,1.51-1.57-.27,.75-.78,1.26-1.51,1.57Z"/><path class="cls-50" d="M513.03,368.27c-.49,.8-1.01,.8-1.54,.03,.51-.01,1.02-.02,1.54-.03Z"/><path class="cls-99" d="M474.47,286.59c.64,.31,.77,.88,.79,1.52-.62-.32-.76-.89-.79-1.52Z"/><path class="cls-53" d="M427.45,286.55c.03-.63,.17-1.2,.8-1.51-.03,.63-.16,1.2-.8,1.51Z"/><path class="cls-53" d="M434.4,284.26c.34-.62,.91-.76,1.55-.76-.34,.61-.91,.76-1.55,.76Z"/><path class="cls-81" d="M442.88,269.6c-.06,.11-.14,.32-.17,.31-.26-.06-.2-.18,.18-.3,0,0-.01-.01-.01-.01Z"/><path class="cls-53" d="M425.16,288.89c.26-.26,.51-.51,.77-.77-.26,.26-.51,.51-.77,.77Z"/><path class="cls-99" d="M475.27,288.11c.25,.26,.51,.51,.76,.77-.25-.26-.51-.51-.76-.77Z"/><path class="cls-49" d="M476.8,289.65c.26,.26,.51,.51,.77,.77-.26-.26-.51-.51-.77-.77Z"/><path class="cls-49" d="M477.57,290.43c.26,.26,.51,.52,.77,.77-.26-.26-.51-.52-.77-.77Z"/><path class="cls-49" d="M480.65,294.29c.26,.26,.51,.52,.77,.78-.26-.26-.51-.52-.77-.78Z"/><path class="cls-40" d="M465.99,379.84c-.25-.25-.5-.49-.75-.74,.25,.25,.5,.49,.75,.74Z"/><path class="cls-49" d="M481.42,295.06c.26,.26,.51,.51,.77,.77-.26-.26-.51-.51-.77-.77Z"/><path class="cls-40" d="M466.77,380.61c-.25-.25-.51-.5-.76-.76,.25,.25,.51,.5,.76,.76Z"/><path class="cls-40" d="M463.68,380.62c.26,.25,.52,.5,.79,.75-.26-.25-.52-.5-.79-.75Z"/><path class="cls-49" d="M483.74,298.14c.26,.26,.52,.51,.77,.77-.26-.26-.52-.51-.77-.77Z"/><path class="cls-14" d="M503.07,230.29c-1.22,4.49-2.96,8.8-4.64,13.13,0,0-.02,.03-.02,.03-.52,.36-.32,1.07-.72,1.49l-.12,1.46c-.2,.29-.42,.58-.64,.85-1.21,1.71-1.52,3.76-2.16,5.69-1.18,3.62-2.07,4.34-5.76,4.25-3.68-.08-7.36-.52-11-.92-3.26-.36-6.05-2.6-8.96-4.16-4.03-2.17-7.73-4.96-12.12-6.47-1.31-.45-2.04-1.37-2.46-2.7-.38-1.19-.6-2.49-1.51-3.46-.09-3.97-1.96-7.27-5.04-9.32-5.67-3.78-7.64-8.78-6.53-15.27,.15-.89,.24-1.92,1.33-2.08,.86-.13,1.38,.61,1.71,1.31,.84,1.73,1.62,3.48,2.42,5.23,.24,.52,.65,.87,1.17,.79,.76-.13,1.06-.78,.86-1.45-1.13-3.82-.45-7.58,.13-11.38,.21-1.38,.68-2.28,1.79-3.15,1.59-1.24,3.15-2.61,3.79-4.72,.45-1.49,1.69-2.12,3.16-2.49,5.61-1.41,10.4-4.22,14.2-8.62,.49-.56,.94-.83,1.62-.46,2.84,1.53,5.45,.41,8.1-.66,3.23-1.31,3.24-1.29,5.5,1.27,2.1,2.39,4.54,4.2,7.9,4.12,1.37-.03,2.14,.58,2.67,1.74,.26,.58,.49,1.43,.96,1.63,3.14,1.35,2.28,3.98,1.88,6.21-.5,2.73-.61,5.48-.77,8.69-2.09-1.72-2.83-3.81-4.11-5.48-1.51-1.97-3.3-3.22-5.9-2.77-1.78,.31-2.36,1.35-1.74,3.06,.45,1.25,1.34,2.14,2.41,2.92,2.17,1.56,4.29,3.18,6.44,4.78-1.16,.02-2.32-.07-3.46,.07-2.28,.29-3.38,1.45-3.43,3.4-.05,2.58,1.55,4.94,3.64,5.07,2.81,.16,5.64,.26,8.41-1.36,.43,3.44,.07,6.68,1.02,9.76Z"/><path class="cls-3" d="M502.33,216.41c-2.3-.2-3.66-2.05-5.49-3.09,2.37,.08,4.45,.66,5.49,3.09Z"/><path class="cls-14" d="M502.96,219.36c-.73-.44-.75-.88,.02-1.3,0,.43-.01,.86-.02,1.3Z"/><path class="cls-22" d="M500.72,298.92c1.01-.93,1.42-2.3,1.39-3.46-.09-3.69,1.67-7.2,.59-10.9,4.41-.19,7.6,1.76,10.58,4.21,1.47,1.21,2.93,2.45,4.44,3.62,6.09,4.69,10.78,10.42,13.33,17.76,.25,.71,.55,1.44,1.25,1.88,.01,.51,.02,1.01,.03,1.52,.45,.42,.27,1.15,.74,1.56,0,.25,0,.5,.02,.75,.47,.41,.27,1.15,.76,1.55,.02,2.86,1.84,5.01,2.99,7.41,1.01,2.12,1.91,4.18,1.64,6.61-.18,1.6,.05,3.07,1.79,3.87,1.14,.52,1.47,1.74,1.99,2.76,2.15,4.22,4.11,8.55,7.12,12.28,1.06,1.31,.68,2.38-.66,3.18-2.25,1.34-3.77,3.47-5.65,5.19-1.34,1.22-2.11,2.76-2.79,5.22,2.77-1.92,4.23-4.16,6.28-5.76,1.86-1.46,3.88-2.53,6-3.39,3.1-1.25,5.48-.51,7.3,2.4,2.24,3.56,4.28,7.26,6.22,11,1.94,3.74,3.55,7.66,5.48,11.41,1.47,2.86,1.49,5.49-.05,8.35-2.67,4.96-5.04,10.13-9.47,13.83-3.8,3.17-7.94,5.67-13.26,5.09-1.33-.14-2.43-.39-3.48-1.31-3.17-2.76-6.1-5.89-10.27-7.25-.89-.29-1.25-.96-1.05-1.79,1.81-7.69,.5-14.97-2.86-21.99-.04-.08,.08-.24,.12-.36,3.11-2.04,6.75,1.82,9.97-.9-1.14-1.9-2.83-2.83-4.83-2.62-2.64,.28-3.68-1.19-4.46-3.26-1.45-3.84-2.79-7.8-3.23-11.82-.4-3.71-1.91-7.1-2.1-10.86-.27-5.46-1.76-10.82-1.95-16.31-.09-2.59-.84-5.09-1.68-7.46-1.46-4.17-3.43-8.16-5.51-12.99-1.12,3.71-.19,6.44,.87,9.03,1.89,4.63,3.45,9.34,4.4,14.26,.46,2.38,.29,4.84,1.07,7.19,.25,.77,.18,1.74-.59,2.69-2.94-2.55-3.69-6.23-6.04-9.73-.67,3.42,1.07,5.55,2.03,7.82,.59,1.39,1.53,2.69,2.51,3.86,2.6,3.09,3.19,6.92,4.08,10.64,.47,1.99-.97,3.64-1.17,5.55-.41,3.82-1.61,7.49-2.65,11.17-.29,1.01-.28,2.45-1.94,2.46-.91-1.16,.16-2.71-.77-3.86,0-.25,0-.5-.03-.76-.26-.25-.48-.54-.75-.78,0-.51,0-1.02-.01-1.53-.92-.87,.15-2.22-.76-3.09-2.37-1.27-.5-3.75-1.55-5.39h0c-.66-.65-.05-1.7-.75-2.33h0c-2.41-5.93-3.95-12.15-5.98-18.2-3.42-10.22-5.3-20.87-8.32-31.2-.4-1.37-.79-2.7-1.64-3.86-1.24-1.69-.43-2.55,1.29-2.98Z"/><path class="cls-14" d="M522.31,400.77c-1.26-.2-2.25,.5-3.19,1.11-4.77,3.11-10.05,4.21-15.66,4.21-3.16,0-5.94,1.42-8.79,2.55-2.36,.93-4.77,2.08-7.47,.13,4.95-4.57,11.61-3.92,17.67-6.02-5.34-1.3-9.09-.7-15.13,2.43-1.04,.54-2.08,1.02-3.18,1.32-3.73,1.02-5.12,.15-6.43-3.97,2.59-.73,4.87-2.11,7.22-3.38,2.45-1.32,5.07-2.39,7.99-2.4,2.19,0,4.26-.79,6.32-1.47,.84-.28,1.99-.52,1.65-1.66-.33-1.1-1.56-.75-2.35-.61-5.57,.99-10.96,2.58-15.95,5.29-2.09,1.13-4.21,1.81-6.59,1.59-1.09-.1-2.01-.43-2.29-1.66-.32-1.42,.5-2.04,1.63-2.64,5.4-2.91,10.87-5.6,16.98-6.8,1.39-.27,3.09-.45,4.17-2.13-1.46-1.3-3.18-.86-4.61-.4-4.87,1.57-9.77,3.12-14.12,5.94-.97,.63-1.93,1.3-3.11,1.44-.87,.11-1.97,.35-2.38-.66-.44-1.07-.6-2.46,.69-3.06,3.08-1.45,5.42-3.81,7.99-5.92,1.35-1.11,3.08-1.74,4.97-1.87,2.02-.13,4.09-.43,5.46-2.25,0,0-.03,0-.03,0,.36-.51,1.12-.33,1.49-.84,3.85-1.73,7.07-4.39,10.79-7.03-1.88-1.13-3.12-.31-4.16,.4-1.51,1.03-2.96,1.25-4.72,.78-1.21-.33-2.55-.19-3.82-.3-2.88-.27-5.6-2.47-6.22-4.98-.33-1.33,.18-1.93,1.51-2,1.21-.07,2.26,.46,3.33,.85,3.76,1.34,7.48,2.26,11.59,1.72,4.19-.55,7.59,1.99,10.93,4.05,3.23,1.99,6.28,3.94,10.34,2.84,1.81-.49,2.95,.4,4.05,2.02,3.33,4.92,4.16,10.36,4.13,16.1,0,1.82-1.16,2.41-2.52,2.95-1.25,.5-2.92,.23-3.52,1.92-1.68,.57-3.77,.34-4.68,2.41Z"/><path class="cls-97" d="M523.07,372.31c1.88-3.79,2.19-8.03,4.12-12.35,.73,2.42,1.43,4.25,2.45,5.96,2.12,3.56,1.97,4.01-1.69,5.77q-2.41,1.16-4.87,.63Z"/><path class="cls-50" d="M517.66,362.88c1.12,.82,.67,2.02,.76,3.09-1.61,1.19-.05,2.74-.47,4.37-1.79-.75-.41-2.95-1.84-3.61,.06-1.46,2.05-2.16,1.54-3.85Z"/><path class="cls-50" d="M513.81,368.27c.77,0,1.54,0,2.31,0-.01,.53-.02,1.07-.03,1.6-.95-.66-1.16,.25-1.58,.74-.84-.6-.68-1.49-.71-2.34Z"/><path class="cls-50" d="M519.21,369.04c1.25,1.09,.59,2.56,.77,3.86-1.29-1.08-.61-2.56-.77-3.86Z"/><path class="cls-84" d="M530.84,398.97c-1.07,.07-2.22,.58-3.07-.55,1.01,0,2.03,0,3.04,0,.23,.11,.31,.22,.25,.35-.07,.13-.14,.19-.22,.19Z"/><path class="cls-86" d="M530.84,398.97c-.01-.18-.02-.36-.03-.54,.52-.25,.77-.96,1.5-.84,.09,1.08-.2,1.75-1.47,1.39Z"/><path class="cls-117" d="M514.51,370.61c.01-1.35,.73-1.17,1.58-.74-.28,.77-.87,.88-1.58,.74Z"/><path class="cls-40" d="M495.28,379.06c-.32,.59-.85,.8-1.49,.84,.28-.66,.85-.81,1.49-.84Z"/><path class="cls-63" d="M533.85,317.41c-.61-.34-.76-.91-.76-1.55,.61,.34,.75,.91,.76,1.55Z"/><path class="cls-63" d="M533.07,315.11c-.61-.35-.74-.92-.74-1.56,.61,.35,.74,.92,.74,1.56Z"/><path class="cls-50" d="M518.44,367.5c.25,.26,.5,.52,.75,.78-.25-.26-.5-.52-.75-.78Z"/><path class="cls-18" d="M515.69,406.21c2.48-.71,4.75-1.72,6.01-4.19,.17-.16,.33-.33,.49-.49,0,0,.13-.16,.13-.16,.61,.13,1.3,.18,1.35,1.03,.14,2.42,.95,4.74,.96,7.2,0,6.65,.79,13.22,1.73,19.81,1.39,9.69,2.61,19.42,2.2,29.26-.04,.89-.04,1.76-.3,2.65-1.06,3.56-1.46,7.22-1.38,10.93,.07,2.95-.36,5.81-1.53,8.54-1.09,.02-2.2-.04-3.07,.79-1.44,.54-2.84,.9-3.76-.86h.01c-1.51-1.42-1.12-3.31-1.25-5.07-.96-13.42-.61-26.83-.02-40.25,.18-3.95,.35-7.95-.42-11.88-.54-3.05,.13-6.19-.6-9.23-.31-1.2-.47-2.44-.84-3.63-.13-1.5-1.3-3.06,.28-4.45Z"/><path class="cls-56" d="M533.12,470.11c-.01-.3-.03-.6-.04-.9,1.09-2.99-.34-6.2,.81-9.19,1.88,.29,1.47,1.76,1.48,2.95,.03,3.89,.01,7.78,.02,11.67h0c-1.4-.57-1.69-1.95-2.28-3.12,.44-.47,.49-.94,.02-1.41Z"/><path class="cls-46" d="M533.89,460.03c0,2.14,0,4.28-.04,6.42-.01,.98,.22,2.05-.77,2.77-.15-9,.32-18-.02-27.02,1.33,1.71,.66,3.69,.76,5.55,.11,2.04,.03,4.09,.04,6.14,0,2.05,.02,4.09,.04,6.14Z"/><path class="cls-68" d="M536.27,422.13v13.76c-.28,0-.55-.01-.83-.02,.34-4.58-1.01-9.21,.82-13.75,0,0,0,0,0,0Z"/><path class="cls-47" d="M529.29,411.2c.65,2.15,.15,4.31,.41,6.45-1.73-2.06-1.37-4.25-.41-6.45Z"/><path class="cls-38" d="M532.61,438.73c-1.63-2.19-.98-4.01-1.01-5.64-.01-.96-1.55-2.7,.15-2.81,1.96-.12,.24,1.72,.48,2.66,.4,1.61,.26,3.35,.38,5.78Z"/><path class="cls-113" d="M528.66,408.98v-6.09c.18,0,.37,0,.55,0v6.18c-.18-.03-.37-.06-.55-.1Z"/><path class="cls-93" d="M531.19,424.43c-.53-1.17-.51-2.38-.02-3.61,.47,1.16,.41,2.36,.02,3.61Z"/><path class="cls-118" d="M535.39,474.65c1.01,.91,1.15,2.09,.94,3.39-1.3-.81-.89-2.17-.95-3.38,0,0,0,0,0,0Z"/><path class="cls-2" d="M533.12,410.02c1.29,1.03,.56,2.46,.72,3.71-1.34-1.02-.52-2.47-.72-3.71Z"/><path class="cls-118" d="M537.01,480.08c-.15,1.47-1.15,1.61-2.32,1.47,.84-.39,.94-1.94,2.32-1.47Z"/><path class="cls-114" d="M533.12,470.11c.77,.48,.81,.96-.02,1.42,0-.47,.01-.94,.02-1.42Z"/><path class="cls-7" d="M435.34,809.13c-.06-.51-.17-1.01-.19-1.52-.09-3.03-.07-3,2.81-3.86,3.9-1.17,7.83-2.3,11.67-3.65,1.9-.67,3.09-.24,4.23,1.32,2.64,3.64,5.97,6.65,9.26,9.67,1.12,1.03,2.19,2.17,3.67,2.73,1.38,.66,2.53,.58,3.8-.54,4.27-3.78,9.54-5.95,14.5-8.62,1.26-.68,2.68-.8,4.04-.09,.86,1.42-.53,1.65-1.18,2.3-1.51,1.51-1.28,2.16,.81,2.82,1.55,.49,3.05,.09,4.58-.04,4.86-.44,9.72-.73,14.54,.36,1.54,.35,2.77,1.04,3.78,2.39,2.55,3.43,2.51,3.62-1.12,6.04-4.75,3.18-10.05,5.08-15.42,6.8-3.38,1.08-6.54-.63-9.76-1.2-1.99-.35-3.85-1.4-5.81-1.95-4.43-1.24-8.93-2.21-13.32-3.58-6.02-1.89-12.14-2.92-18.43-3.42-3.64-.29-7.38-1.1-9.94-4.31-.62-.77-1.39-1.53-2.51-1.66Z"/><path class="cls-6" d="M462.95,826.13c-1.84-.62-2.57-2.83-4.58-3.2-2.89-1.89-6.31-1.8-9.52-2.54-1.49-.35-2.96-.83-4.43-1.25-.28-.25-.54-.54-.95-.57h-.31s-.27-.15-.27-.15c-.27-.38-.23-.72,.14-1.01,.79-.13,1.57-.23,2.33,.14,1.35,1.12,3.14-.03,4.54,.86,4.14-.3,8.09,.36,12,1.81,3.2,1.19,6.52,2.22,9.87,2.77,5.09,.83,9.71,3.09,14.64,4.27,5.74,1.37,11.41,.48,16.86-1.87,4.21-1.82,8.41-3.58,11.53-7.07,.37,.27,.66,.38,.75,.57,3.25,6.62,2.91,7.35-4.02,9.75-4.45,1.54-8.59,3.85-13.15,5.2-7.19,2.12-14.11,1.71-20.99-1.05-1.18-.47-2.4-.85-3.6-1.28-.63-.68-1.73-.02-2.33-.81l.02,.02c-.44-.39-1.22-.21-1.5-.88l.05,.03c-.33-.13-.64-.31-.92-.53-.1-.23-.26-.31-.5-.24-.43-.05-.74-.32-1.04-.59l-.2-.21-.29,.03c-.43-.04-.73-.31-1.05-.56l-.21-.21h-.3c-.46-.05-.76-.32-1-.68h.02c-.46-.38-1.15-.27-1.58-.74h0Z"/><path class="cls-5" d="M476.07,792.25c1.58-.81,2.84-1.27,3.48,1.22,.41,1.6,.78,3.47,2.54,4.39,.49,1.24,1.03,2.44,2.46,2.87,.53,.66,1.97,.78,1.3,2.16l.04-.04c-4.51,3.93-9.91,6.44-15.13,9.15-2.29,1.19-4.26-.75-5.48-2.91-2.87-3.99-6.94-6.81-11.03-10.87,4.83-.49,8.45-2.34,12.43-2.96,.9-.46,1.77-.57,2.55,.23,.12,2.32-2.37,2.61-3.25,4.16-.5,.11,.42,.52,.25,.03,0-.03,.11-.06,.35-.13,.36-.11,.72-.19,1.1-.22,.77,.03,1.42,.28,1.74,1.06,.13,.64-.1,1.2-.36,1.78-.22,.52-.99,.75-.77,1.48,.57-.23,1.15-.45,1.78-.46,.78,.06,1.41,.35,1.68,1.15,.14,.65-.2,1.22-.39,2.07,1.95-.94,3.91-1.61,5.35-3,1.7-1.64-.63-.69-.87-1.13-.72-.16-1.35-.44-1.67-1.16-.41-1.78,1.52-2.35,1.9-3.7-.15-.74-.97-1.09-1.06-1.86-.19-.79,1.5-1.05,.58-2.06-.08-.51,.04-.93,.46-1.25Z"/><path class="cls-75" d="M465.28,809.1c.46,.43,.91,.86,1.37,1.29,1.92,1.81,2.68,1.92,4.96,.39,4.54-3.04,9.11-6.01,14.27-7.92,.66,1.36,2.56,.39,3.24,1.72-1.18-.21-2.24,0-3.29,.64-4.59,2.78-9.49,5.01-13.95,8.03-1.53,1.04-3.18,2.41-5.09,.57,.75,0,1.51,0,2.72,0-1.55-1.85-4.37-2.05-4.23-4.72Z"/><path class="cls-10" d="M439.01,816.91c-1.21-.41-1.79-1.37-2.06-2.8,1.22,.67,2.44,1.33,3.66,2-.34,.66-1.16,.34-1.6,.8Z"/><path class="cls-26" d="M449.89,818.42c-1.66,.18-3.33,.5-4.84-.55,.22-.52,.54-.59,.95-.21,1.27,.4,2.73-.18,3.89,.76Z"/><path class="cls-75" d="M485.84,802.91c-.04-.96-1.01-1.36-1.3-2.17,2.09,.5,2.36,.95,1.3,2.17Z"/><path class="cls-24" d="M439.01,816.91c.22-.89,.99-.67,1.6-.8,.3,.23,.59,.47,.89,.7-.12,.5-.44,.79-.95,.88-.51-.26-1.02-.52-1.54-.77Z"/><path class="cls-26" d="M440.55,817.68c.32-.29,.63-.58,.95-.88,.46,.06,.91,.11,1.37,.17,.28,.15,.38,.3,.29,.46-.09,.16-.18,.25-.27,.25-.02,.25-.02,.49-.01,.74-.26-.01-.52-.02-.78-.03-.42-.44-1.11-.28-1.53-.7,0,0-.02-.01-.02-.01Z"/><path class="cls-24" d="M442.89,817.68c0-.24-.02-.47-.03-.71,1.1-.04,2.26-.37,3.13,.68-.32,.07-.63,.14-.95,.21-.72-.06-1.43-.12-2.15-.18Z"/><path class="cls-102" d="M471.45,830.71c.85,.05,1.78-.11,2.33,.81-.9,.1-1.81,.21-2.33-.81Z"/><path class="cls-24" d="M440.57,817.69c.65-.08,1.18,.11,1.53,.7-.67,.12-1.17-.14-1.53-.7Z"/><path class="cls-102" d="M462.95,826.13c.67-.06,1.26,.06,1.58,.75-.7,.12-1.27-.02-1.58-.75Z"/><path class="cls-102" d="M469.97,829.84c.69-.02,1.22,.21,1.5,.88-.73,.09-1.3-.08-1.5-.88Z"/><path class="cls-26" d="M443.46,818.57c.48-.09,.78,.13,.95,.57-.53,.16-.79-.12-.95-.57Z"/><path class="cls-102" d="M464.51,826.87c.52-.04,.83,.24,1,.69-.52,.03-.84-.21-1-.69Z"/><path class="cls-102" d="M466.01,827.76c.49-.08,.85,.1,1.05,.56-.49,.08-.83-.13-1.05-.56Z"/><path class="cls-102" d="M467.55,828.51c.52-.1,.85,.11,1.04,.59-.49,.06-.82-.16-1.04-.59Z"/><path class="cls-102" d="M469.09,829.34c.45-.08,.78,.06,.92,.53-.46,.08-.75-.11-.92-.53Z"/><path class="cls-17" d="M495.4,314.17c-2.16-6.14-5.01-11.89-9.33-16.83,0,0,0,0,0,0-.63-.4-1.2-.87-1.53-1.56h0c-.3-.24-.62-.49-.68-.92l.06,.08c-1.02-.84-1.74-1.93-2.48-3h0c-.29-.24-.58-.48-.74-.84l.04,.04c-.36-.19-.64-.46-.81-.83l.06,.06c-.47-.92-2.13-1.62-.55-2.92,5.32,.76,10.21-.79,15.23-3.07,1.43,4.37,1.78,8.7,2.26,13,.14,2.48,1.22,4.72,1.89,7.06,.32,1.03,.42,2.12,.76,3.15,.13,.33,.23,.67,.33,1,.44,1.52,.92,3.02,1.52,4.49,1.27,2.29,1.18,5.21,3.35,7.08,.38,.33,.55,.95,.42,1.43-1.64,6.09,2.29,11.1,3.23,16.68,.27,1.49,.65,2.96,1.03,4.42,.12,.3,.23,.61,.34,.92,.27,.62,.63,1.18,.98,1.75,.58,.97,.81,2.01,.64,3.13-.24,.71-.42,1.51-1.48,1.28-1.89-3.45-3.87-6.86-5.65-10.37-1.09-2.17-2.1-4.36-3.53-6.33-2.92-4.02-3.09-8.81-3.82-13.44-.08-.5-.21-.98-.32-1.48-.15-.28-.32-.54-.53-.77l-.02-.03c-.94-.9,0-2.22-.72-3.17Z"/><path class="cls-50" d="M507.78,338.87c-1.17-3.49-2.37-6.97-3.49-10.47-.61-1.92-1.37-3.84,.08-5.82,.36-.49,.06-1.48,.06-2.23-.92,.32-1.42-.02-1.68-.95-.3-1.1-.63-2.21-1.07-3.25-.45-1.06-1-2.07-1.05-3.25-1.08-1.38,1.62-3.97-1.5-4.7h0c-.41-.99,.11-2.22-.81-3.07-1.44-2.4-1.59-5.03-1.37-7.72,.82,.51,.55,1.55,1.45,2.22v-6.88c.43-.42,.65-1.22,1.52-.77,.33,2.32-.71,4.79,.8,6.97-.23,.78-2.63,1.41-.19,2.39,1.09,.44,.93,1.44,1.08,2.28,1.1,6.3,3.9,12.17,4.84,18.48,.97,6.5,3.42,12.57,5.27,18.79,.96,3.24,1.67,6.66,3.22,9.75,.72,1.44,.32,3.03,.42,4.56-.27,0-.54,0-.82-.01-.6-.32-.79-.94-1.1-1.47-.29-.41-.72-.63-1.1-.93-1.46-1.25-1.09-3.08-1.53-4.66l-.89-2.92c-.48-.44,.66-1.55-.68-1.63l-.03,.04c-.79-1.47,.02-3.44-1.44-4.71Z"/><path class="cls-8" d="M475.31,284.99c-.92-1.84-3.59-2.02-4.08-4.51,5.01,.08,10.06,1.16,14.91-.8,.8,.14,1.46-.23,2.19-.49,3.36-1.23,3.75-1.04,6.08,2.68-5.19,2.04-10.51,3.19-16.06,3.26-1.04,.34-2.07,.55-3.06-.15h.02Z"/><path class="cls-22" d="M499.92,291.94c-.51,.26-1.01,.52-1.52,.77-.08-3.28-1.63-6.51-.28-9.84,.08-.2,.01-.63-.13-.72-2.7-1.67-2.35-5.11-4.24-7.23-.36-.4-.78-.8-.69-1.3,.32-1.75-1.95-4.21-.21-4.91,1.99-.8,2.06,2.29,3.03,3.62,.74,1.02,1.18,2.27,1.75,3.42,.47,.41,.27,1.15,.76,1.55,0,0,0,0,0,0,1.04,4.82,1.8,9.66,1.54,14.62Z"/><path class="cls-49" d="M481.46,291.94c1.07,.8,2.04,1.68,2.48,3-1.51-.44-2.42-1.37-2.48-3Z"/><path class="cls-49" d="M479.47,287.44c-.67,1.13,.43,1.94,.54,2.92-2-1.34-2.05-1.6-.54-2.92Z"/><path class="cls-99" d="M475.28,284.98c1.02,.05,2.04,.1,3.06,.15-1.07,.96-2.09,1.08-3.06-.15Z"/><path class="cls-49" d="M484.54,295.79c.71,.33,1.28,.79,1.53,1.56-1.03,0-1.56-.52-1.53-1.56Z"/><path class="cls-63" d="M498.38,277.33c-.61-.34-.75-.91-.76-1.55,.62,.34,.75,.91,.76,1.55Z"/><path class="cls-22" d="M453.48,265.04c-.03,.35-.23,.53-.57,.58,.19-.19,.38-.39,.57-.58Z"/><path class="cls-22" d="M452.76,265.77c-.2,.22-.41,.45-.61,.67,.2-.22,.41-.44,.61-.67Z"/><path class="cls-22" d="M452.06,266.55c-.2,.26-.39,.52-.59,.79,.2-.26,.39-.52,.59-.79Z"/><path class="cls-22" d="M452.97,268.29c.24,.15,.48,.3,.72,.45-.24-.15-.48-.3-.72-.45Z"/><path class="cls-22" d="M455.29,269c.22,.18,.45,.37,.67,.55-.22-.18-.45-.37-.67-.55Z"/><path class="cls-49" d="M479.95,290.31c.48,.07,.74,.36,.81,.83-.45-.11-.71-.38-.81-.83Z"/><path class="cls-49" d="M480.72,291.1c.47,.08,.7,.38,.74,.85-.41-.14-.66-.42-.74-.85Z"/><path class="cls-49" d="M483.88,294.86c.47,.14,.65,.48,.68,.94-.43-.16-.67-.47-.68-.94Z"/><path class="cls-7" d="M581.61,780.76c-.26,1.07,.35,1.98,.54,2.96,.19,.99-.29,1.4-1.2,1.49-7.04,3.67-14.81,4.77-22.44,6.36-7.17,1.49-14.45,2.47-21.73,1.59-7-.84-13.74,.26-20.54,1.37-1.32,.32-2.67,.27-4.01,.4-5.24,1.22-10.39,1.18-15.36-1.14-.98-.5-2.49-.14-2.97-1.39-.55-1.44-.3-3.02-.13-4.53,.11-1.02,1.03-.93,1.78-.98,8.38-.6,15.69-3.86,22.25-8.98,.61-.48,1.14-1.01,1.47-1.72,1.76-1.06,3.2,.39,4.37,1.02,3.74,2.04,7.92,2.96,11.63,5.01,1.07,.59,2.18,.73,3.28,.04,1.97-.94,3.87-2.04,5.52-3.43,2.41-2.03,5.06-2.82,8.14-2.3,.61,.47,1.32,.88,1,1.85-1.17,.47-2.39,.87-3.5,1.46-.64,.34-1.24,.99-.9,1.88,.28,.72,1,.68,1.61,.72,1.68,.1,3.33-.13,4.87-.77,7.5-3.11,15.34-3.11,23.25-2.69,1.35,.07,2.49,.43,3.08,1.78Z"/><path class="cls-9" d="M580.85,786.68c.76-.11,1.35-1.06,2.25-.43-.14,.14-.13,.28,0,.42-.34,.53-.22,1.23-.65,1.72-.29,.97-.24,1.96-.1,2.95-.76,.93,.2,2.3-.83,3.16v-.06c-.35,1.16-1.26,1.81-2.23,2.41-5.71,3.21-12.05,2.86-18.2,2.79-6.25-.07-12.44-.08-18.63,.85-2,.3-4.07,.11-6.11,.14-4.49-.78-9-1.27-13.57-1.01-8.14,.45-16.25,1.5-24.43,1.21-2.34-.08-4.64-.18-6.11-2.42-1.15-1.58-.97-2.87,.85-3.8,1.17,.67,2.44,.86,3.76,.74,1.2,.9,2.46-.05,3.68,.11,.38,.05,.75,.13,1.12,.23,4.17,.38,8.24-.34,12.32-1.05,.43-.04,.86-.07,1.29-.08,8.1-1.54,16.23-2.11,24.47-1.57,12.75,.85,24.95-2.06,37.01-5.77,1.33-.41,2.64-1.08,4.11-.54Z"/><path class="cls-43" d="M538.58,783.11c-.44,.71-1.08,1.26-1.9,.84-4.01-2.03-8.34-3.3-12.35-5.23-1.67-.81-3.52-1.46-5.09-2.53,.35-.88,.78-1.82,1.86-.89,1.23,1.05,2.32,.62,3.47,0,3.38,1.44,7.23,1.26,10.49,3.1,1.01,.45,1.97,.97,2.76,1.77,.24,.27,.44,.57,.62,.9,.3,.67,.55,1.34,.14,2.06Z"/><path class="cls-32" d="M535.25,779.2c-3.13-1.02-6.29-1.97-9.57-2.39-.98-.13-1.33-.58-1.11-1.51,1.52-.53,3.03-1.06,4.55-1.59,.48-.39,1.2-.23,1.63-.74h0c.23-.24,.49-.42,.8-.52,.16-.22,.37-.32,.64-.32,.52-.37,.81-.05,1.08,.34,.07,.26,.05,.53-.03,.78-.08,.2-.19,.39-.32,.55,.02-.02,0,.23,0,.23,0,0,.21-.14,.22-.16,.18-.19,.36-.33,.57-.47,.22-.15,.45-.28,.68-.41,.23-.16,.46-.31,.69-.46,.11-.09,.23-.17,.35-.26,.24-.18,.5-.32,.78-.43,.31-.07,.61-.08,.92-.02,.49,.21,.75,.56,.72,1.1-.12,.48-.36,.89-.67,1.26-.45,.56-1.02,.99-1.56,1.43-.18,.1-.26,.26-.2,.46,.22-.04,.41-.09,.62-.18,.27-.1,.52-.09,.78,.02,.12,.09,.23,.18,.35,.28,.41,.56,.51,1.19,.46,1.86-.09,.56-.3,1.03-.77,1.37-.56,.11-1.1,.09-1.6-.22Z"/><path class="cls-44" d="M500.51,796.18c-1.32,.16-2.66,.39-3.66-.84,.56-.09,1.19,.13,1.66-.35-.55-.4-1.11-.8-1.66-1.2,3.14,.25,6.23,.94,9.41,.74,2.02-.12,4.05-.04,5.99-.72,.42,.75,1.46,.82,1.8,1.65-4.44,1.15-8.92,1.5-13.47,.74,.21-.1,.34-.24,.4-.45-.12,.18-.28,.32-.47,.42Z"/><path class="cls-57" d="M493.09,794.6c-1.22,1.06-.42,2.56-.85,3.8-.72,.4-.75,1.15-.93,1.82-1.28-1.48-.48-3.29-.75-4.92,.26-.57,.52-1.14,.78-1.7,.38,.7,1.1,.8,1.76,1.01Z"/><path class="cls-89" d="M536.82,772.1c-.22,.05-.43,.13-.62,.25-.31,.15-.58,.35-.81,.6h-.01c-.27,.29-.55,.57-.96,.64-.2,.06-.38,.16-.53,.31-.3,.12-.58,.07-.84-.13-.19-.27-.22-.55-.08-.84l.11,.03c.32-1.03,1.1-1.6,1.99-2.08,.64-.5,1.21-1.08,1.81-1.62,.54,.43,1.09,.86,1.63,1.29,0,0-.05,.13-.05,.13,.18,.17,.26,.35,.25,.56,0,.21-.04,.32-.08,.32-.49,.55-1.25,.24-1.82,.56Z"/><path class="cls-12" d="M535.42,771.43c-.78,.51-1.56,1.02-2.34,1.53-.29-.28-.59-.56-.88-.84,.57-.79,1.36-1.28,2.25-1.63,.8-.18,1.07,.2,.97,.94Z"/><path class="cls-115" d="M535.42,771.43c-.15-.5-.53-.75-.97-.94,.68-.67,1.36-1.35,2.44-1.24,.1,1.12-.6,1.71-1.47,2.18Z"/><path class="cls-23" d="M530.76,772.96c-.34,.7-.92,.85-1.63,.74,.4-.57,.95-.78,1.63-.74Z"/><path class="cls-23" d="M531.56,772.43c-.13,.39-.39,.56-.8,.52,.14-.37,.39-.57,.8-.52Z"/><path class="cls-11" d="M469.08,796c-.54-1.1-1.6-.49-2.4-.73,.05-.2,.1-.4,.15-.6,2.05-.51,4.1-1.03,6.15-1.54,.58,.17,.97,.48,.9,1.16-1.31,1.4-2.79,2.3-4.81,1.71Z"/><path class="cls-31" d="M537.79,781.26c-.04-.19-.07-.37-.1-.56-.43-.45-.42-.97-.27-1.53,1.03-2.67,3.56-3.45,5.8-4.59,1.15,.29,2.3,.57,3.45,.86-.8,3.05-5.7,6.25-8.88,5.81Z"/><path class="cls-96" d="M537.79,781.26c3.46-1.18,6.39-3.16,8.88-5.82,2.03,1.11,4.52-.09,6.49,1.31-.25,.39-.53,.4-.84,.08-2.36-.31-4.34,.21-6.29,1.82-2.22,1.83-4.63,3.53-7.45,4.46-.26-.62-.53-1.23-.79-1.85Z"/><path class="cls-94" d="M543.22,774.59l-5.52,4.48c-.21,.41-.39,.37-.52-.05-.06-.43-.13-.86-.19-1.29,.68-1.74,.68-4.21,3.7-3.36,.74,1.21,1.72-.27,2.53,.22Z"/><path class="cls-28" d="M540.7,774.37c-1.85,.44-2.66,2.03-3.7,3.36-.08-.63-.14-1.26-.74-1.65-.66-1.09,.53-1.25,.91-1.82,.34-.33,.69-.64,1.04-.96,.36-.33,.76-.59,1.25-.68,.48,0,.97-.02,1.29,.45h-.02c.2,.11,.3,.25,.29,.43,0,.19-.04,.29-.09,.29-.12,.18-.2,.38-.22,.6Z"/><path class="cls-92" d="M552.32,776.83c.28-.02,.56-.05,.84-.07,.87,.17,1.74,.34,2.44,1.24-.77,.58-1.62,.36-2.42,.38-.29-.52-.57-1.03-.86-1.55Z"/><path class="cls-94" d="M540.73,773.05c-.49,.04-.98,.07-1.47,.11-.16,.05-.31,.1-.47,.15-.33-.09-.56-.3-.69-.61-.05-.49-.1-.97,.39-1.3,0-.24,0-.49-.02-.73,.75,.8,1.51,1.59,2.26,2.39Z"/><path class="cls-94" d="M540.92,773.76c-.07-.24-.14-.49-.21-.73,.74,.05,.83,.29,.21,.73Z"/><path class="cls-103" d="M579.29,796.84c.75-.8,1.5-1.6,2.25-2.41,.16,1.65-.73,2.32-2.25,2.41Z"/><path class="cls-103" d="M581.53,794.49c0-1.12,.25-2.19,.83-3.16,.15,1.16,.49,2.38-.83,3.16Z"/><path class="cls-103" d="M582.45,788.38c-.22-.74,.25-1.22,.65-1.72,.22,.74-.01,1.3-.65,1.72Z"/><path class="cls-109" d="M497.69,244.93c-.06-.64,.11-1.17,.72-1.49-.02,.6-.16,1.15-.72,1.49Z"/><path class="cls-22" d="M453.5,252.72c.09,.22,.09,.43,0,.65-.07-.15-.16-.3-.2-.46-.01-.04,.13-.12,.2-.19Z"/><path class="cls-109" d="M496.92,247.25c.21-.28,.43-.57,.64-.85-.21,.28-.43,.57-.64,.85Z"/><path class="cls-21" d="M517.03,413.52c1.29,3.06,.54,6.29,.79,9.44-.56,.29-1.19,.5-1.07,1.35,1.72,12.75-.38,25.51,.13,38.27,.27,6.88,.85,13.76,.39,20.66-.03,.52-.05,1.02-.38,1.44h0c-1.96,1.08-4.23-.35-6.19,.75-2.45-1.56-5.29-1.87-8.04-2.22-7.06-.9-14.14-1.77-21.23-2.28-4.97-.36-9.99-.08-14.98-.13-5.11-.05-10.21-.15-15.32-.2-.55,0-.99-.08-1.32-.54-.4-.48-1.11-.34-1.53-.78h0c-.52-.48-1.04-.47-1.57-.03-.24,0-.47,0-.71,0-.41-.63-.92-1.15-1.56-1.54h0c-.26-.24-.51-.51-.79-.75h0c-.24-.27-.49-.52-.76-.75-.25-.02-.49-.04-.74-.05-.27-.25-.53-.51-.78-.78-.01-.25-.03-.5-.05-.74-.1-.13-.19-.26-.29-.39,.11-.12,.21-.25,.32-.37,1.67,.12,3.17,.94,4.37,1.88,1.44,1.14,2.94-1.15,4.12,.42,2.31,.62,4.63,.62,6.94,0,0,0,0,0,0,0,1.84-.37,4.08,1,5.46-1.29,5.45,.29,10.83-.93,16.39,.56,6.7,1.79,13.51,3.83,20.66,3.08,.72-.08,1.51,.18,2.23,.41,.94,.29,1.63,.47,2.05-.81,.2-.61,1.42-.65,1.68-.25,1.51,2.25,3.91,1.84,6.04,2.26,1.46,.29,2.78,1.2,4.68,1.06-.3-2.04-.25-4-1.36-5.75,0-2.05-.02-4.1-.02-6.16,0-2.57-.17-5.15,.05-7.7,.15-1.75-1.68-2.83-1.36-4.23,.26-1.15,1.41-1.95,1.39-3.53-.14-8.98,.18-17.98-.2-26.95-.15-3.58-.03-7.35-1.42-10.83,.31-2.9-.92-5.34-2.3-7.73,0-.24,0-.48,0-.72,1.09-.96,2.64,.18,3.73-.81,.31-.41,.71-.64,1.23-.6-.24,1.51,.55,2.9,.54,4.39-.67,1.45-1.23,2.9-.13,4.46,.13-.68,.33-1.23,.92-1.55Z"/><path class="cls-48" d="M456.76,476.2c-2.31,1.21-4.63,1.22-6.94,0,2.31,0,4.63,0,6.94,0Z"/><path class="cls-21" d="M440.57,473.92c-.26-.01-.51-.02-.77-.01,0-.24-.01-.49-.01-.74,.47-.41,.33-1.1,.71-1.55,1.01,.48,.8,1.42,.84,2.26,0,0,.01-.01,.01-.01-.25,.27-.51,.29-.78,.04Z"/><path class="cls-111" d="M440.5,471.62c.08,.66,.05,1.27-.71,1.55-.21-.72-.24-1.36,.71-1.55Z"/><path class="cls-27" d="M493.02,219.72c-.61-1.17-2.02-2.48-.89-3.66,1.13-1.17,2.83-.44,4.22,.23,.68,.33,1.39,.6,2.01,1.02,1.37,.93,1.27,1.19-.76,2.29-1.55-.85-3.04,.62-4.58,.11Z"/><path class="cls-101" d="M493.02,219.72c.25,0,.53,.07,.74-.02,1.18-.47,2.98-.53,3.84-.09-1.5,1.14-3.03,1.06-4.58,.11Z"/><path class="cls-44" d="M580.85,786.68c-6.27,2.56-12.78,4.26-19.41,5.67-6.42,1.36-12.89,1.67-19.41,1.81-2.58,.05-5.1-.33-7.65-.47-5.15-.28-10.2,.37-15.22,1.32-1.54,.29-3.03,.42-4.57,.31-.3-1.55,.91-.97,1.59-1.13,.26-.06,.47,.02,.61,.12-.16-.34-.66-.23-.81-.6,3.26-1.23,6.79-.96,10.1-1.77,5.62-1.38,11.18,.16,16.76,.17,6.7,0,13.14-1.42,19.66-2.44,5.42-.85,10.64-2.62,15.87-4.25,.83-.26,1.65-.78,2.56-.2-.03,.49-.06,.98-.09,1.47Z"/><path class="cls-16" d="M470.7,704.37c-.06-6.15-.11-12.3-.19-18.45-.03-2.16-.02-4.26-.9-6.39-.92-2.23,1.62-2.97,2.73-4.44,1.25,4.75-.57,9.31-.25,13.91-1.41,3.2-.29,6.55-.6,9.82-.18,1.87,.55,3.86-.79,5.57Z"/><path class="cls-16" d="M472.2,689.69c.95,.71,.95,1.75,.94,2.78-.04,2.68-.11,5.35-.16,8.03-.95-.75-.73-1.82-.74-2.82-.03-2.66-.03-5.33-.04-7.99Z"/><path class="cls-16" d="M473.59,700.79c.04,2.48,.08,4.96,.11,7.44-1.6-2.45-.58-5.15-.73-7.74,.21,.1,.41,.2,.62,.3Z"/><path class="cls-100" d="M489.16,767.58c.45,.15,.66,.46,.61,.93-.43-.16-.58-.51-.61-.93Z"/><path class="cls-1" d="M468.33,711.3c1.17-1.01,.74-2.38,.75-3.62,.04-6.8,0-13.61,.04-20.41,0-1.22-.38-2.5,.8-4.41-.51,11.25,.87,21.78-1.58,32.22,0-1.26,0-2.51,0-3.77,0,0,0,0,0,0Z"/><path class="cls-13" d="M474.04,793.98c-.35-.28-.7-.57-1.05-.85,.94-.6,1.93-1.01,3.08-.88,0,.5-.02,.99-.02,1.49-.6,.69-1.28,.68-2.01,.24Z"/><path class="cls-100" d="M490.61,630.75c-.1,.19-.21,.38-.31,.57-.11-.19-.3-.37-.31-.56,0-.19,.18-.38,.28-.57,.11,.19,.22,.37,.33,.56Z"/><path class="cls-41" d="M516.88,484.67c-1.05-11.24-.72-22.51-.77-33.77-.02-3.7-.21-7.41,.05-11.09,.38-5.47,.32-10.87-.76-16.27-.2-1.02-.35-2.25,.45-3.22,1.57,.36,.58,2.32,1.95,2.63,.63,.57,.69,1.34,.68,2.11-.1,7.76-.13,15.5-.65,23.27-.43,6.41-.7,12.9,.47,19.4,.76,4.2,.19,8.65,.22,12.98-1.58,.89-.19,3.02-1.65,3.95Z"/><path class="cls-41" d="M510.7,485.42c.14-.68,.35-1.07,1.25-.97,1.63,.19,3.29,.16,4.94,.22-1.91,1.54-4.13,.45-6.19,.75Z"/><path class="cls-41" d="M518.52,480.72c1,1.4,2.5,.59,3.76,.86-2.4,1.23-2.86,1.12-3.76-.86Z"/><path class="cls-82" d="M444.44,477.72c.99,.03,1.5,.57,1.56,1.54-.77-.27-1.28-.79-1.56-1.54Z"/><path class="cls-82" d="M446.71,479.25c.54-.76,1.06-.76,1.57,.03-.52,0-1.05-.02-1.57-.03Z"/><path class="cls-82" d="M448.28,479.28c.63,.02,1.21,.15,1.53,.78-.63-.02-1.2-.16-1.53-.78Z"/><path class="cls-82" d="M440.57,473.92c.26-.01,.52-.03,.78-.04-.01,.26-.02,.52-.04,.78-.25-.25-.5-.49-.74-.74Z"/><path class="cls-82" d="M441.36,475.4c.26,.26,.52,.52,.78,.78-.26-.26-.52-.52-.78-.78Z"/><path class="cls-82" d="M442.88,476.22c.25,.25,.51,.5,.76,.75-.25-.25-.51-.5-.76-.75Z"/><path class="cls-82" d="M443.65,476.98c.26,.25,.52,.5,.79,.75-.26-.25-.52-.5-.79-.75Z"/><path class="cls-48" d="M514.46,406.81c-1,1.37-2.48,.54-3.73,.81,1.02-1.31,2.47-.6,3.73-.81Z"/><path class="cls-14" d="M522.19,401.53c-.02,.31-.13,.53-.49,.5-.02-.35,.15-.51,.49-.5Z"/><path class="cls-85" d="M510.82,348.09c.71,1.58,1.43,3.17,2.14,4.75-.14,.35-.38,.61-.72,.77h0c-.26,.24-.49,.21-.7-.07,0,0,.01,0,.01,0-.38-1.32-1.49-2.34-1.58-3.79,.73-.33,.68-1.06,.84-1.68Z"/><path class="cls-22" d="M495.4,314.17c.9,.91,.74,2.05,.72,3.17-.81,.4-1.59,.75-1.57-.7,.94-.59,.64-1.62,.85-2.47Z"/><path class="cls-22" d="M496.13,317.37c.39,.12,.6,.35,.53,.78-.18-.26-.35-.52-.53-.78Z"/><path class="cls-50" d="M516.11,357.49c1.28,1.58,.71,3.69,1.55,5.39-.62,.07-.91,1.83-1.89,.22-.93-1.53-2.2-2.83,.19-4.17,.24-.14,.11-.94,.15-1.43Z"/><path class="cls-88" d="M513.8,353.58c.61,.35,.74,.93,.74,1.57,0,0,.02,0,.02,0-.51,.48-1.01,.48-1.51-.01-.1-.5-.2-1-.3-1.49,.34-.34,.69-.36,1.06-.05Z"/><path class="cls-50" d="M515.36,355.17c.9,.57,.74,1.47,.75,2.32-.9-.57-.74-1.47-.75-2.32Z"/><path class="cls-50" d="M513.05,355.13c.5,0,1.01,0,1.51,.01-.51,.84-1.02,.83-1.51-.01Z"/><path class="cls-90" d="M513.8,353.58c-.35,.02-.7,.04-1.05,.05,0,0-.26,.02-.26,.02,0,0-.25-.05-.25-.05,.24-.26,.48-.51,.72-.77,.28,.25,.56,.5,.84,.74Z"/><path class="cls-90" d="M511.55,353.54c.24-.02,.47,0,.7,.06-.29,.57-.52,.54-.7-.06Z"/><path class="cls-58" d="M459.58,214.57c-.48-1,.04-1.42,.58-1.74,3.63-2.19,6.88-4.84,9.93-7.77,1-.96,2.24-1.71,3.47-2.38,2.21-1.21,4.59-.54,5.57,1.45,.79,1.59-.12,3.52-2.44,4.47-3.89,1.6-7.85,3.05-11.81,4.47-1.74,.63-3.57,1.02-5.31,1.51Z"/><path class="cls-69" d="M462.31,216.2c3.36-1.96,7.13-2.24,10.63-3.37,1.78-.57,3.56,.31,5.04,1.36,1.4,.99,1.57,3.33,.47,4.85-.93,1.29-2.19,2.27-3.74,2.56-3.51,.65-6.9,.22-10.01-1.66-1.4-.84-2.14-2.13-2.4-3.74Z"/><path class="cls-91" d="M480.38,242.84c.79-1.45,2.31-1.06,3.41-1.3,3.23-.71,6.56-.47,9.86-.5,.48,0,1.04,.03,1.26,.61,.29,.75-.26,1.17-.7,1.61-.46,.46-1.03,.77-1.69,.77-3.55,0-7.11,.27-10.65-.16-.56-.07-1.19-.33-1.49-1.02Z"/><path class="cls-45" d="M482.3,230.77c.81,.57,1.27,.99,1.81,1.25,2.88,1.38,4.55,.66,5.84-2.53,.23-.58,.22-1.37,1.09-1.17,.66,.15,1.05,.79,1.01,1.46-.11,2.09-1.34,3.59-2.98,4.62-1.47,.92-3.21,.88-4.69-.12-1.03-.7-2.1-1.5-2.07-3.5Z"/><path class="cls-98" d="M484.84,229.41c-2.47-3.84-2.78-7.86-3.93-12.26,2.06,2.26,4.13,8.9,3.93,12.26Z"/><path class="cls-104" d="M485.62,216.2c2.43,3.01,3.02,6.61,3.31,10.3-2.64-2.94-2.83-6.67-3.31-10.3Z"/><path class="cls-34" d="M543.33,395.53c-1.32-1.95-1.84-3.99-1.78-6.2,.08-3.07,.02-6.15,.04-9.22,0-.64,.08-1.39,.92-1.39,.72,0,1.19,.62,1.22,1.25,.26,5.17,.17,10.35-.4,15.56Z"/><path class="cls-107" d="M517.03,413.52c-.4,1.42,.24,3.01-.78,4.83-1.38-2.07-1.61-4.16-1.89-6.14-.14-1,1.15-1.17,1.87-1.61,1.01,.77,.49,1.95,.79,2.92Z"/><path class="cls-120" d="M469.79,803.75c-.98,.52-1.74,1.49-3.13,1.55-.59-2.37,1.83-2.95,2.59-4.45,.26-1.79,1.76-2.35,3.07-3.09,.28-.19,.57-.36,.86-.54,.14-.1,.29-.19,.43-.28,.44-.3,.91-.52,1.45-.57,.76,.34,1.83-.36,2.36,.71,.01,2.01-2.12,2.24-2.95,3.55-1.04,1.8-2.69,2.7-4.66,3.12Z"/><path class="cls-54" d="M474.04,793.98c.67-.08,1.34-.16,2.01-.24,.99,1.06-.38,1.15-.69,1.68-2.19,2.21-4.83,3.65-7.79,4.55-1,.47-2,.94-3.34,1.58,.37-3.26,2.99-4.08,4.86-5.54,1.65-.67,3.3-1.35,4.95-2.02Z"/><path class="cls-122" d="M475.96,801.46c1.21-.16,2.45-.75,3.81,.3-2.4,3.83-6.78,4.45-10.46,6.98-.31-2.37,1.51-2.89,2.17-4.06,.95-1.82,2.62-2.65,4.47-3.22Z"/><path class="cls-25" d="M467.57,799.97c2.27-2.07,5.22-2.99,7.79-4.55,.34,.98,1.91,.45,2.05,1.67-1.12-.03-2.25-.06-3.37-.09,0,0,.06-.1,.06-.1-.13,.22-.27,.44-.4,.67-.24,.37-.55,.64-.99,.73-1.15,.85-2.3,1.71-3.45,2.56-.28-.83-1.03-.76-1.68-.89Z"/><path class="cls-30" d="M475.96,801.46c-1.29,1.35-2.87,2.3-4.47,3.22-.32-.75-1.01-.86-1.7-.93,1.4-1.26,2.78-2.56,4.66-3.12,.26,.73,.92,.71,1.52,.83Z"/><path class="cls-116" d="M499.13,308.17c.76,.17,1.83-1.03,2.23,.3,.23,.77,1.72,2-.37,2.65-.28,.09-.25,1.15-.36,1.76-.72-1.5-1.6-2.94-1.5-4.7Z"/><path class="cls-112" d="M507.78,338.87c.9,.45,3.07-.09,1.55,2.21-.39,.6-.09,1.65-.11,2.5-1.31-1.32-1.25-3.05-1.44-4.71Z"/><path class="cls-83" d="M509.25,343.54c.61-.05,.6-1.46,1.28-.87,1.12,.98-.07,1.73-.6,2.5-.53-.42-.74-.97-.68-1.63Z"/><path class="cls-116" d="M498.32,305.1c1.11,.8,1.59,1.77,.81,3.07-1.05-.82-.75-1.99-.81-3.07Z"/><polygon class="cls-19" points="502.62 313.78 502.71 313.99 502.49 313.97 502.62 313.78"/><path class="cls-62" d="M515.99,793.71c.56,.14,1.22-.12,1.72,.44-.87,.87-2.43-.12-3.11,1.16,0,0-.23,.22-.23,.22,0,0-.31-.07-.31-.07-.79-.35-2.65,.48-1.8-1.65,1.24-.3,2.48-.22,3.73-.1Z"/><path class="cls-28" d="M537.18,779.02c.19-.12,.36-.1,.52,.05,0,.55,0,1.09-.01,1.64-.81-.5-1.63-1-2.44-1.51,.64-.06,1.29-.12,1.93-.18Z"/><path class="cls-119" d="M537.69,774.48c-.48,.53-.96,1.06-1.44,1.6,0,0-.07,.07-.07,.07-.29,.19-.55,.41-.77,.67l-.03,.02c-1.33,0-1.34-.61-.71-1.53,1.04-.3,1.43-1.38,2.29-1.9,.13,.08,.26,.16,.39,.24,.2,.24,.31,.52,.34,.83Z"/><path class="cls-23" d="M533.21,774.72c-.51,.51-1.04,1.43-1.79,.62-.73-.78,.22-1.28,.73-1.78,.14,.04,.27,.08,.41,.12,.22,.18,.42,.39,.59,.61,.02,.14,.04,.28,.06,.42Z"/><path class="cls-28" d="M534.67,775.3c-.12,.68-.08,1.28,.71,1.53-.31,.45-.78,.74-1.17,.28-.6-.71-.26-1.34,.46-1.81Z"/><path class="cls-15" d="M538.49,771.39c0,.53,0,1.06,0,1.58-.17,.08-.33,.15-.5,.23-.14-.12-.28-.24-.41-.36-.25-.25-.51-.5-.76-.75,.36-.7,.94-.89,1.67-.7Z"/><path class="cls-28" d="M535.41,776.81c.26-.22,.52-.45,.77-.67-.26,.22-.52,.45-.77,.67Z"/><path class="cls-15" d="M533.08,773.75c.27,.05,.54,.1,.81,.15-.23,.27-.45,.54-.68,.82,0,0-.14-.24-.14-.24-.09-.12-.19-.25-.28-.37,.1-.12,.2-.24,.29-.36Z"/><path class="cls-15" d="M536.96,773.4c.21-.19,.41-.37,.62-.56,.1,.11,.21,.22,.3,.33-.06,.58-.31,.88-.93,.63,.05-.13,.05-.26,0-.4Z"/><path class="cls-15" d="M534.42,773.59c.32-.21,.64-.42,.96-.63-.21,.38-.52,.61-.96,.63Z"/><path class="cls-23" d="M532.97,772.93c.04,.27,.07,.55,.11,.82,0,0,.02-.05,.02-.05-.26,.27-.53,.27-.81,.02,0,0-.14-.16-.14-.16,.27-.21,.55-.42,.82-.63Z"/><path class="cls-15" d="M535.39,772.95c.15-.36,.38-.61,.81-.6-.27,.2-.54,.4-.81,.6Z"/><path class="cls-62" d="M500.51,796.18c.29-.23,.55-.52,.88-.67,.33-.15,.75-.22,.91,.27,0,.03-.38,.23-.6,.28-.37,.08-.75,.1-1.12,.15,0,0-.07-.03-.07-.03Z"/><path class="cls-105" d="M536.95,773.8c.31-.21,.62-.42,.93-.63,.25,.09,.45,.02,.61-.2,0,0-.06-.03-.06-.03,.22,.16,.3,.33,.25,.51-.05,.19-.11,.28-.18,.28-.27,.24-.54,.49-.81,.73-.33-.13-.72-.2-.73-.67Z"/><path class="cls-15" d="M538.5,773.74c-.02-.27-.05-.53-.07-.8,.28,.07,.55,.14,.83,.21-.12,.37-.38,.56-.76,.59Z"/><path class="cls-4" d="M464.75,217.35c3.07-1.41,6.2-1.81,9.31-2.15,1.25-.14,2.91,.23,3.1,1.67,.23,1.69-1.45,2.42-2.78,2.67-3.36,.65-6.58,.16-9.63-2.19Z"/><path class="cls-5" d="M474.09,796.9s-.06,.1-.06,.1c0,0,.06-.1,.06-.1Z"/><path class="cls-54" d="M472.69,798.29c.17-.46,.49-.72,.99-.73-.19,.43-.51,.68-.99,.73Z"/><path class="cls-108" d="M532.29,773.72c.27,0,.54-.01,.81-.02-.01,.26-.02,.52-.03,.78-.54,.03-.81-.21-.77-.76Z"/><path class="cls-55" d="M471.47,216.7c.49-.15,.61,.22,.74,.55,.2,.52-.23,.59-.56,.66-.36,.07-.71-.06-.78-.46-.08-.43,.26-.61,.6-.74Z"/></svg>