<?xml version="1.0" encoding="UTF-8"?><svg id="Layer_1" xmlns="http://www.w3.org/2000/svg" viewBox="0 0 1000 1000"><defs><style>.cls-1{fill:#010309;}.cls-2{fill:#010101;}.cls-3{fill:#060709;}.cls-4{fill:#020202;}.cls-5{fill:#689682;}.cls-6{fill:#695d52;}.cls-7{fill:#676666;}.cls-8{fill:#6a5e52;}.cls-9{fill:#ebe9e8;}.cls-10{fill:#f6d30c;}.cls-11{fill:#e8e6e6;}.cls-12{fill:#fff;}.cls-13{fill:#ffd900;}.cls-14{fill:#ecebea;}.cls-15{fill:#fefefe;}.cls-16{fill:#fdfdfd;}.cls-17{fill:#fdfcfc;}.cls-18{fill:#9197a3;}.cls-19{fill:#7dc6cd;}.cls-20{fill:#99999a;}.cls-21{fill:#b6a18c;}.cls-22{fill:#c2c1c1;}.cls-23{fill:#302e2b;}.cls-24{fill:#8d8279;}.cls-25{fill:#cecdcd;}.cls-26{fill:#acacad;}.cls-27{fill:#a89480;}.cls-28{fill:#bcbbbb;}.cls-29{fill:#c3af9a;}.cls-30{fill:#c7c6c6;}.cls-31{fill:#cbaf2d;}.cls-32{fill:#d1b9a0;}.cls-33{fill:#dcdbdb;}.cls-34{fill:#dbdada;}.cls-35{fill:#dac1a7;}.cls-36{fill:#d9c1a7;}.cls-37{fill:#e0dfdf;}.cls-38{fill:#25211d;}.cls-39{fill:#252c3c;}.cls-40{fill:#1f1f1e;}.cls-41{fill:#1f1d1b;}.cls-42{fill:#1e1b18;}.cls-43{fill:#224a89;}.cls-44{fill:#0c0a08;}.cls-45{fill:#0b0a08;}.cls-46{fill:#0b0b0a;}.cls-47{fill:#090804;}.cls-48{fill:#1b1916;}.cls-49{fill:#0f1b31;}.cls-50{fill:#0f1c33;}.cls-51{fill:#100f0d;}.cls-52{fill:#1d1c1b;}.cls-53{fill:#1c1a18;}.cls-54{fill:#191715;}.cls-55{fill:#3e3e3f;}.cls-56{fill:#1b1e24;}.cls-57{fill:#463e36;}.cls-58{fill:#554c2e;}.cls-59{fill:#595551;}.cls-60{fill:#2c2823;}.cls-61{fill:#564c43;}.cls-62{fill:#5c5147;}.cls-63{fill:#2f333b;}.cls-64{fill:#2f2d2a;}.cls-65{fill:#383532;}.cls-66{fill:#3a3b3f;}.cls-67{fill:#35312c;}.cls-68{fill:#27221e;}.cls-69{fill:#5a5046;}.cls-70{fill:#393531;}.cls-71{fill:#4c433b;}.cls-72{fill:#4b423a;}.cls-73{fill:#616161;}.cls-74{fill:#5d5c5c;}.cls-75{fill:#4d453c;}.cls-76{fill:#4d4844;}.cls-77{fill:#7b726b;}.cls-78{fill:#4e463d;}.cls-79{fill:#51483e;}</style></defs><path class="cls-2" d="M434.55,506.8c-1.26,.67-2.64,.48-1.47-1.05,3.04-3.96,1.6-8.44,2.15-12.68,.22-1.71-.44-2.16-1.97-1.92-2.56,.4-3.35-1.03-3.75-3.28-1.24-6.93,.19-13.83,.17-20.74-.02-7,.97-14,1.12-21,.18-8.6-.76-17.2,0-25.82,.26-2.96,.96-5.95,.22-9.42-2.86,3.98-6.25,5.31-10.63,3.04-1.07-.55-3.18,2.39-3.07,3.99,.72,10.56,1.31,21.12,1.2,31.71-.05,5.56-2.94,10.36-4.73,15.45-1.38,3.91-2.92,7.76-4.39,11.64-.85,.38,.05,1.98-1.07,1.89-1.16-.09-1.01-1.33-1.13-2.22,0-.83,.16-1.63,.62-2.34,1.23-1.32,1.63-3.03,2.16-4.68,.09-.27,.2-.53,.32-.78,.55-.97,.87-2.01,.89-3.14,.06-.71,.22-1.39,.68-1.97,.79-.81,1.21-1.82,1.47-2.91,.08-.29,.17-.56,.27-.84,.61-1.46,.79-2.98,.73-4.55,1.97-7.76,.67-15.51,.04-23.27-.18-2.17-.08-4.34-.12-6.51-.03-1.39,.61-2.9-1.83-3.29-1.35-.22-.51-1.86-.12-2.78,1.53-3.61,3.96-6.73,5.81-10.16,1.03-1.91,1.96-3.88,3.09-5.73,1.33-2.17,.83-3.84-.9-5.46-5.12-4.8-11.35-6.73-18.04-5.45-9.76,1.86-8.68,.28-10.39,10.12-.97,5.58-2.33,11.04-4.37,16.31-1.97,5.07-3.67,10.21-4.99,15.48-.38,1.5-.65,2.98-.39,4.5,1.47,8.49,.86,17.11,1.18,25.64,.53,14.25,1.38,28.36,5.14,42.17,2.97,10.91,1.32,21.74-.55,32.57-.78,2.05-.52,4.22-.61,6.34-.02,.43-.1-.1,0,.32,.06,.23,.29,.17,.42-.13,1.92-1.59,2.7-.18,2.66,1.32-.18,6.74,3.17,11.98,6.91,17.09,.43,.86,1.08,1.62,1.15,2.64-.22,.49-.52,.82-1.1,.51-2.97-1.4-5.03-3.61-6.27-6.69-1.29-3.22-2.88-6.26-4.86-9.16-2.78-4.06-1.88-8.86-1.37-13.29,1.19-10.19,2.75-20.31-.26-30.46-1.08-3.62-1.72-7.38-2.56-11.07-1.97-8.61-1.69-17.42-2.18-26.15-.5-8.86-.87-17.72-1.35-26.57-.47-8.74,1.84-17.29,5.45-25.17,3.25-7.1,3.38-14.65,4.99-21.98,.12-.54,.14-1.44-.35-1.4-2.65,.2-4.57-1.9-7.03-2.1-3.75-.31-4.8-1.72-3.95-5.47,1.41-6.23,3.58-12.23,5.45-18.32,2.93-9.51,4.75-19.28,6.81-28.99,3.27-15.44,10.5-28.94,22.1-39.35,8.28-7.42,18.57-11.98,29.63-14.87,10.11-2.65,20.19-5.78,29.53-10.74,2.34-1.24,2.08-3.38,2.01-5.39-.09-2.48-.45-4.96-.62-7.44-.05-.73-.13-1.86,.28-2.14,1.56-1.08,.65-1.86-.2-2.49-4.41-3.2-6.81-7.48-7.17-12.91-.04-.58-.4-.93-.84-1.3-5.46-4.6-5.59-10.68-4.44-16.97,.27-1.48,.13-2.63-.37-4.01-3.37-9.18-3.53-18.22,1.82-26.79,.77-1.23,.26-2.31,.35-3.43,1.03-12.18,8.33-19.32,18.99-23.75,5.74-2.38,11.8-2.68,17.9-2.44,3.05,.12,5.48-1.09,7.49-3.27,.58-.63,1.29-1.39,.93-2.3-.43-1.07-1.56-1.04-2.53-1-1.19,.04-2.37,.27-3.55,.25-1.57-.03-2.28-1.15-2.55-2.51-.31-1.56,.6-2.5,1.97-2.92,4.17-1.31,8.15-1.24,11.58,1.95,1.98,1.22,1.7,3.15,1.59,5.02-2.19,7.71-7.15,11.57-15.21,11.45-6.79-.1-13.45,.06-19.61,3.47-7.97,4.41-13.55,10.42-13.98,20.06-.03,.76-.14,1.53-.48,2.21-2.98,5.94-2.05,12.23-1.9,16.3-2.14-9.77,2.84-19.21,10.72-27.44,4.56-4.76,10.64-6.54,17.09-7.03,3.29-.25,6.4-.96,9.42-2.34,1.87-.85,3.82-1.37,4.48,1.64,.31,1.41,1.69,1.04,2.73,1.17,2.92,.36,5.79-1.17,8.72-.22,.5,.22,1.22,.54,1.22,.98,0,3.88,2.87,6.6,3.97,10.05,2.18,6.87,3.05,13.92,3.43,21.07,.11,2.02-.25,4.08,.45,6.07,.41-3.84,.6-7.67-.11-11.5-.37-2.02-.93-4.02-.84-6.1,.24-1.02-.08-2.39,1.55-2.56,2.86,6.16,3.47,12.69,3.27,19.36-.04,1.53-.02,2.86,1.34,4.07,1.84,1.64,1.38,3.99,1.06,6.13-.54,3.56-1.59,7.09-3.34,10.15-1.89,3.29-2.18,6.66-2.34,10.21-.12,2.66-.67,5.46-2.9,6.99-5.35,3.66-4.21,8.93-4.06,14.04,.18,5.79,4.75,7.18,8.94,8.8,9.04,3.5,18.62,4.61,28.1,6.28,11.49,2.02,22.11,6.3,30.38,15,7,7.37,10.54,16.53,13.29,26.09,2.16,7.49,2.82,15.37,5.21,22.75,3.15,9.75,7.08,19.25,10.83,28.79,2.52,6.43,2.67,6.41-2.16,11.19-1.38,1.37-2.89,2.64-4.49,3.74-3.64,2.49-4.19,4.1-2.49,8.25,.58,1.41,1.33,2.7,2.29,3.9,4.6,5.77,8.52,12.02,12.37,18.3,2.06,3.36,.8,7.1,1.19,10.64,1.1,9.92,.93,19.92,.55,29.88-.45,11.76-1.61,23.5-2.04,35.26-.44,12.02-2.7,23.81-3.74,35.75-.14,1.62-.36,3.32-.01,4.87,2.34,10.49-4.32,17.69-9.22,25.52-.26,.42-.82,.64-1.25,.96-.1-.15-.19-.29-.29-.44,.42-5.78,3.5-10.41,6.77-14.84,1.29-1.75,1.62-3.19,1.44-5.29-.52-6.05-.67-12.13,.16-18.19,1.11-8.06,1.8-16.14,2.24-24.28,.58-10.6,.82-21.23,1.74-31.81,.04-.43,.08-.87,.08-1.3-.15-13.02,1.09-26.02,.71-39.05-.08-2.72-.68-5.03-2.31-7.26-4.74-6.49-8.53-13.61-13.2-20.16-1.44-2.01-2.53-4.27-1.85-7.01,.36-1.46-.48-2.62-2.08-2.68-3.46-.14-6.96-.5-10.38,.34-5.65,1.39-8.48,5.71-10.71,10.57-.67,1.47,.16,2.76,.94,3.94,1.98,2.99,4.26,5.76,6.4,8.63,1.03,1.38,3.11,3.17,1.22,4.71-1.63,1.33-2.91-1.05-4.19-2.08-.42-.34-.72-.82-1.19-1.08,.97,8.16,.83,16.38,1.7,24.54,.83,7.78,3.08,15.15,6.99,21.87,6.33,10.87,7.13,22.83,7.57,34.92,.03,.93-.08,1.86-.4,2.98,.98-1.67,1.62-3.3,2.8-4.59,.67-.73,1.41-1.48,2.52-.93,1.1,.54,1.03,1.56,.8,2.55-.37,1.59-1.04,3.09-1.7,4.57-2,4.48-4.44,8.74-7.5,12.56-2.34,2.91-4.28,5.99-5.67,9.43-.26,.47-.57,.91-.83,1.38-.26,.47-.61,1-1.21,.79-.53-.18-.73-.78-.77-1.32-.12-1.86,.57-3.56,1.11-5.3,.76-2.48,2.61-4.43,3.34-6.92,4.11-6.39,2.26-13.48,2.2-20.3-.03-3.53-.93-7.08-1.28-10.64-.43-4.45-1.61-8.71-3.71-12.73-5.89-11.31-9.24-23.25-9.88-36.09-.33-6.7-.4-13.42-1.05-20.13-.32-3.36-1.72-5.87-3.86-8.83-1.48,6.59-1.26,12.8-.75,18.89,1.4,16.76,2.46,33.49,1.14,50.33-.4,5.12-.64,10-2.9,14.77-1.36,2.88-.27,6.43-1,9.63-.24,1.05-.1,2.21-.53,3.2-2.82,6.59-1.25,12.97,.77,19.37,1.83,5.81,4.46,11.31,6.35,17.08,.43,1.32,1.15,2.61,.67,4.09-.13,4.7,.87,9.21,2.09,13.71,1.42,5.26,.69,10.73,1.3,16.1,1.47,13,2.57,26.05,2.14,39.16-.24,7.56-1,15.11-1.07,22.67-.11,11.89,1.25,23.71,2.3,35.53,.62,7.03,.72,14.04,.1,21.04-.45,5.04,.36,9.79,1.69,14.66,2.59,9.49,3.7,19.3,5.46,28.97,1.16,6.4,.96,12.91,1.63,19.34,.83,7.9,3.82,15.28,5.93,22.86,3.32,11.89,4.74,23.75-.36,35.51-2.16,4.97-2.66,10.4-4.79,15.39-2.21,5.18-5.76,7.73-11.31,8.9-11.77,2.49-23.65,2.52-35.55,2.68-3.44,.05-5.45-1.33-6.49-4.61-2.03-6.4-3.02-12.87-1.57-19.49,.35-1.61-.23-1.77-1.46-2.08-3.97-1.02-5.6-3.23-5.88-7.43-.25-3.78,.73-7.29,2.1-10.74,1.11-2.8,1.64-5.52,1.37-8.71-.54-6.35-.2-12.79-.17-19.19,.05-10.72-.47-21.42-1.29-32.11-.38-5.03-.65-10.11-.8-15.18-.14-4.88-1.91-9.74-3.12-14.57-3.18-12.71-5.52-25.55-6.79-38.59-.23-2.37-.81-4.81-.44-7.1,1.13-6.99-2.4-12.29-5.9-17.61-2.89-4.39-4.99-9.08-6.37-14.15-2.45-8.98-4.98-17.94-7.5-26.91-.18-.63,.07-1.79-1.1-1.54-.83,.18-.86,1.09-.92,1.89-.26,3.34-.59,6.67-.86,10-.52,6.37-3.3,12.12-4.9,18.2-1.62-.08-1.27-1.38-1.46-2.35,.01-.85,.2-1.66,.63-2.41,1.06-1.59,1.2-3.44,1.5-5.25,.05-.31,.13-.62,.21-.93,.38-1.29,.19-2.6,.18-3.91,.27-4.33,.79-8.64,.74-12.99-.01-.98,.07-2.08,.59-2.85,2.24-3.34,2.55-6.94,1.89-10.78-.17-.98,.09-2.06,1.24-2.37,1.33-.36,2.06,.6,2.44,1.64,1.1,2.95,1.87,6.01,2.7,9.04,3.35,12.25,7.51,24.25,11.13,36.42,.62,2.09,1.76,3.97,2.98,5.77,3.48,5.14,5.53,10.77,6.05,16.98,1.54,18.21,5.32,36.04,9.22,53.85,.98,4.46,1.67,8.96,2.44,13.46,.11,.64,.23,1.31,.13,1.94-1.55,10.15,1.82,19.99,1.88,30.05,.03,4.99,.2,9.98,0,14.96-.56,2.33-.73,4.73-1.14,6.65-.02-.1,0-.63,.24-1.14,.51-.57,1.06-.9,1.78-.33,1.66,2.18,1.45,4.75,1.26,7.2-.34,4.25-1.46,8.32-3.4,12.15-1.56,3.09-1.98,6.43-1.71,9.82,.21,2.7,1.48,3.58,4.16,3.24,2.39-.3,4.64-1.1,6.82-2.11,4.84-2.25,9.82-2.63,15.2-2.39,9.03,.41,18.02-.61,26.12-5.34,1.22-.71,2.43-1.44,3.68-2.1,4.08-2.15,4.14-2.5,3.4-7.2-1.27-8.05-3.51-15.9-4.85-23.93-.18-1.08-.42-2.19-1.05-3.06-2.66-3.67-2.87-7.83-2.73-12.13,.38-11.84-1.66-23.5-2.95-35.23,.24,1.71,.38,3.42-.44,5.02-.79,1.55-1.74,1.48-2.66,.17-.78-1.1-.89-2.42-1.07-3.71-1.42-10.3-.32-20.56,.17-30.85,.56-11.79,1.46-23.6-1.02-35.33-2.18-10.32-1.17-20.74-.39-31.13,.68-8.99,1.05-17.99-.19-26.95-.91-6.58-.39-13.22-1.17-19.8-.76-6.46-2.39-12.84-2.58-19.31-.32-10.7-6.46-19.45-9.01-29.37-.92-3.59-1.42-7.24-2.19-10.84-.8-3.74-1.28-4.25-5.06-3.74-8.82,1.2-17.61,2.63-26.13,5.35-6.82,2.18-13.66,4.33-20.78,5.4-11.43,1.71-22.78,1.67-33.76-2.28-11.5-4.13-23.33-6.8-35.35-8.78-1.71-.28-3.42-.61-5.08-1.14-.73-.18-1.38-.58-2.09-.79Z"/><path class="cls-4" d="M492.1,635.72c-5.92,14.85-6.8,30.61-8.53,46.25-.81,7.33-.26,14.69-.95,22.04-.37,3.97,1.53,7.98,1.91,12.09,1.28,13.88,2.63,27.75,3.08,41.69,.34,10.33,1.7,20.46,5.59,30.12,1.07,2.65,1.44,5.44,1.7,8.22,.33,3.52-1.38,6.35-3.98,8.48-1.64,1.34-2.92,2.81-3.93,4.64-1.54,2.79-3.53,5.39-6.25,6.93-2.53,1.43-3.11,3.24-2.74,5.73,.49,3.32-.56,6.54-.58,9.87-.02,4.78-7.02,10.73-12.21,11.24-10.11,.99-20.12,3-30.31,2.95-3.34-.02-6.72-.33-10-.97-5.34-1.04-7.97-4.19-8.49-9.6-.23-2.37-.47-4.75-.41-7.12,.06-2.23,.5-4.45,.79-6.81-.53-.06-1.05-.15-1.58-.17-7.77-.23-11.46-3.66-10.52-11.34,1.24-10.16,2.64-20.41,7.76-29.62,2.26-6.63,3.6-13.48,5-20.31,1.62-7.91,3.19-15.84,4.45-23.81,1.01-6.36,1.93-12.74,2.19-19.24,.48-12.1,.32-24.24,1.9-36.27,.43-3.25,.91-6.51,1.6-10.11,1.65,1.14,1.58,2.54,1.4,3.85-.88,6.45-.72,12.98-1.33,19.41-.75,7.9-.54,15.8-.88,23.68-.53,12.19-2.99,24.01-5.07,35.92-.23,1.29-.39,2.56-.37,3.87-.17,6.24-2.12,12.15-3.56,18.13-1.65,6.85-2.8,13.78-4.2,20.67-.3,1.46-.42,3.04-1.84,4-.54,.15-.99,.02-1.37-.39-.82-1.31-.38-2.69-.28-3.9-.4,1.66-1.57,3.32-1.21,5.33-.5,3.34-.84,6.69-.48,10.06,.45,4.26,2.31,5.75,6.53,5.25,2.93-.35,5.84-1.07,8.39-2.49,8.88-4.93,18.46-4.31,27.97-3.54,4.63,.37,9.07-.28,13.58-.81l12.15-6.13c1.93-1.92,4.07-2.91,6.97-2.77,3.52,.17,5.28-2.37,4.57-5.83-.35-1.71-1.09-3.29-1.74-4.9-.77-1.92-1.47-3.88-.65-5.98,.39-1,.02-1.92-.28-2.85-2.33-7.08-2.88-14.38-3.28-21.79-.42-7.78-1.08-15.56-1.63-23.34-.53-7.46-.87-14.92-1.41-22.38-.3-4.08-1.04-7.94-2.81-11.61-.38-.78-.7-1.59-.94-2.43-.23-.82-.73-1.78,.05-2.43,.85-.71,1.56,.19,2.27,.61,.44,.27,.69,.86,1.43,.79-.57-14.89-.04-29.75,2.98-44.36,1.26-6.1,2.75-12.29,6.19-17.71,.51-.49,.95-1.11,1.52-1.48,.75-.48,1.75-.99,1.84,.66Z"/><path class="cls-12" d="M576.61,543.91c-3.26-9.37-7.78-18.3-9.78-28.1-.77-3.79-.69-7.37,.61-11.27,1.28-3.85,2.04-8.09,1.38-12.41-.35-2.28,1.56-4.16,2.36-6.26,.37-.99,1.14-1.81,1.1-2.98-.29-8.64,.98-17.22,.98-25.85,0-10.39-1.35-20.69-2.1-31.03-.49-6.79-.23-13.63,.45-20.43,.04-.39-.11-.9,.49-1.05,.61-.15,1.14,.07,1.35,.6,1.42,3.5,4.15,6.17,4.39,10.51,.75,13.34,.2,26.86,4.12,39.88,1.28,4.27,2.76,8.51,5.03,12.33,4.29,7.22,5.39,15.21,6.22,23.31,.48,4.63,.68,9.27,.81,13.92,.1,3.89-.21,7.5-2.89,10.55-4.6,5.46-4.88,12.16-5.58,18.81-.57,5.47-2.58,10.66-3.96,15.97-.16,.62-.51,1.2-1.26,1.32-1.47,.66-.48,2.16-1.2,3.43-1.21-2.86-1.3-5.67-1.61-8.43-.11-1,.43-2.21-.89-2.84Z"/><path class="cls-3" d="M420.47,757.75c-.03-5.99,2.02-11.65,2.79-17.52,.97-7.33,2.26-14.57,2.5-22.04,.36-11.34,.86-22.68,1.23-34.03,.14-4.16,.88-8.3,1.06-12.48-1.01,6.07-2.41,12.03-2.5,18.26-.16,11.02-.63,22.06-1.44,33.04-.8,10.7-3.16,21.28-5.22,31.85-1.47,7.51-3.05,14.99-5.01,22.38-.3,1.12-.32,2.38-1.42,3.15,2.39-10.88,4.72-21.77,6.96-32.68,3.28-15.98,4.53-32.06,4.78-48.33,.24-15.4,2.3-30.61,7.09-45.34,.37-1.13,.24-2.12-.03-3.17-2.23-8.75-3.04-17.71-3.4-26.67-.35-8.76,1.38-17.45,1.86-26.19,.19-3.46,.59-6.91,.61-10.37,.08-17.13-.27-34.27,.78-51.39,.48-7.74,1.2-15.47,2.9-23.06,2.16,.32,1.3,2.17,1.71,3.38-.59,10.82-.51,21.65-1.12,32.48-.52,9.2-.37,18.44-.08,27.65,.28,9.05-1.19,17.94-1.66,26.92-.88,16.87-.57,33.59,3.34,50.11,.53,2.22,1.15,4.42,1.32,6.7,.11,1.55,.6,3.7-1.45,4.12-1.75,.37-2.34-1.57-2.92-2.97-.25-.6-.41-1.23-.62-2.15-1.57,8.38-2.53,16.56-3.42,24.78-1.69,15.66-.07,31.46-2.5,47.05-1.2,7.71-2.47,15.43-4.2,23.04-.29,1.29-.2,2.92-1.92,3.47Z"/><path class="cls-46" d="M580.31,551.74c2.53-8.38,4.36-16.91,5.66-25.57,.6-3.97,2.02-7.72,5.15-10.54-1.11,3.44-3.7,6.25-4.19,9.97-.11,.85-.39,1.66-.16,2.59,.91-.35,.26-1.67,1.24-1.92,1.12,1.26,.63,2.68,.32,4.03-1.54,6.77-3.06,13.54-3.15,20.53-.01,1-.85,2.44,.63,2.77,1.25,.28,2.2-.85,2.59-2.06,.92-2.78,1.61-5.63,1.97-8.55,.37-2.97,1.35-5.7,3.59-7.83,.56-.53,1.27-.94,2.07-.64,.84,.31,1.18,1.18,.92,1.88-1.73,4.65,.25,9.05,1.16,13.39,1.05,5.02-.87,9.15-2.42,13.52-1.42,4.01-3.11,7.71-8.01,8.41-.44,.06-1.23,.22-1.01,.91,.17,.52,.93,.43,1.44,.59,1.05,.35,2.14,.29,3.21,.41,1,.11,2.29-.13,2.46,1.45-3.4,1.17-6.9,1.09-10.28,.26-2.03-.5-2.38-3.28-.67-5.06,1.09-1.14,1.85-2.22,1.83-3.83,0-.89,.46-1.89,1.23-2.17,3.13-1.13,4.62-4.41,7.6-5.65,1.96-.81,2.37-2.4,2.18-4.16-.3-2.67-.85-5.31-1.3-7.96-.32-.47-.43-.94,.03-1.39-.58,.55-.73,1.38-1.2,2-1.05,2.61-2.16,5.2-3.14,7.83-.4,1.07-1.02,1.94-1.92,2.56-1.88,1.29-3.95,2.83-6.26,1.67-2.33-1.17-1.77-3.68-1.68-5.83,.02-.54,.07-1.08,.11-1.62Z"/><path class="cls-47" d="M513.5,156.16c1.67-1.69,2.81-.01,3.81,.82,4.31,3.58,5.85,8.39,4.74,13.72-.98,4.7-.59,8.73,2.02,12.95,2.44,3.94,2.31,8.48,.22,12.78-1.05-.28-1.63-1.07-1.89-2.02-1.43-5.3-4.15-10.07-6.16-15.14-.43-2.56-.59-5.18-.08-7.68,.97-4.7,.2-8.92-2.47-12.84-.19-.85-.7-1.69-.18-2.59Z"/><path class="cls-51" d="M404.83,506.21c-.54,4.74,1.87,7.65,5.85,9.75,3.13,1.65,5.86,3.87,6.81,7.47,2.64,9.92,5.13,19.88,5.09,30.26,0,1.08-.14,2.15-.22,3.23-.17,0-.34,.02-.51,.03-1.48-1.34-1.67-3.25-2.04-5-1.5-7.08-3.15-14.15-4.15-21.32-.63-4.53-2.48-7.87-6.46-10.2-4.44-2.59-6.91-6.44-6.64-11.77,.03-.96-.08-1.93,0-2.89,.11-1.44,.83-2.14,2.35-1.66,.23,.71,.24,1.4-.07,2.09Z"/><path class="cls-53" d="M415.57,556.97c-2.9-2.18-3.99-5.29-4.35-8.72-.14-1.32-.24-2.56-1.5-3.56-1.1,3.31-2.33,6.49-3.19,9.76-.91,3.49,1.33,6.43,2.1,9.64,.96,4,4.16,4.82,7.39,5.73-.14,.55-.49,.93-.98,1.19-3.18,.96-5.7-.19-7.22-2.9-3.16-5.64-5.79-11.43-3.4-18.19,1.19-3.38,1.93-6.89,2.24-10.49,.1-1.16,.22-2.69,1.73-2.75,1.27-.05,1.58,1.31,1.81,2.38,.3,1.43,.95,2.63,1.97,3.68,1.02,1.05,1.62,2.37,1.72,3.79,.27,3.58,1.4,6.78,3.74,9.53,.35,.42,.5,.96,.47,1.52-1.47,2.38-1.67-.45-2.52-.61Z"/><path class="cls-10" d="M516.93,179.44c3.33,5.28,4.77,11.39,7.36,16.99,.13,.16,.09,.31-.13,.45,.86,1.55-.33,3.31,.52,4.86,.64,5.36,1.93,10.65,1.46,16.11-.08,.86-.02,1.74-.16,2.59-.1,.6-.31,1.37-1.08,1.41-.83,.03-.9-.83-1.12-1.39-.19-.49-.25-1.07-.21-1.59,.5-6.54-.97-12.9-1.67-19.34-.43-3.94-2.14-7.45-3.48-11.1-.67-1.83-3.48-3.08-1.64-5.68,.03-.05-.88-.76-1.36-1.16,.28-.87,.7-1.63,1.5-2.14Z"/><path class="cls-54" d="M415.18,570.45c.28-.21,.56-.42,.83-.63,1.02-.15,2.01-.12,2.49,.97,.54,1.24-.57,1.62-1.26,2.26-1.08,1.01-1.19,2.87-2.79,3.44-3.62,1.31-6.15,1.42-8.24-1.2-2.48-3.11-5.68-5.54-8.91-7.87,.31-.26,.61-.51,.92-.77-.21-1.03-.73-1.92-1.3-2.78-1.06-2.49-2.32-4.92-2.59-7.68,.09-.67,.32-1.25,1.01-1.52,1.55-.05,1.9,1.25,2.44,2.26,1.07,2.02,1.92,4.15,2.63,6.3,1.44,4.37,4.36,7.39,8.23,9.65,2.95,1.72,5.32,.85,6.52-2.42Z"/><path class="cls-41" d="M407.93,475.92c.06,.7,.13,1.41,.2,2.24,.49-.56,.88-1,1.28-1.44-1.73,7.3-1.49,14.9-3.31,22.19-2.07-.36-1.32-2.11-1.65-3.33-.3-4.64,.56-9.23,.87-13.83,.14-2.09,.1-4.64,2.61-5.83Z"/><path class="cls-52" d="M593.78,575.09c-1.73-1.51-4.12,.28-5.85-1.18,4.86-.43,8.32-3.2,11.33-6.75,.41-.48,1.11-.65,1.78-.67,1.53,.45,.78,1.68,.89,2.62,0,.3-.11,.55-.31,.76-2.61,1.74-5.22,3.48-7.83,5.21Z"/><path class="cls-40" d="M415.57,556.97c.85-.19,1.07,1.81,2.2,.63,1.53-.31,3.19,.17,4.63-.74,0,0-.03,.05-.03,.05,2.14,1.37,1.36,2.98,.1,4.28-1.33,1.36-2.83,.42-3.53-.75-.88-1.47-3.21-1.42-3.36-3.47Z"/><path class="cls-39" d="M434.85,516.58c-.34-1.12,.39-2.51-.85-3.42-.65-2.19,2.02-4.1,.55-6.36,.76,0,1.51,.01,2.27,.02,.5,3.49,.46,6.86-1.97,9.76Z"/><path class="cls-70" d="M405.28,495.43c.4,1.13-.38,2.54,.82,3.48-.31,2.45-.4,4.95-1.27,7.3-.08-.68-.15-1.36-.23-2.04-.46-.31-.87-.66-1.07-1.21-.19-2.69-.54-5.42,1.74-7.53Z"/><path class="cls-63" d="M492.1,635.72c-1.42-1.94-1.57,1.24-2.65,.66-1.05-1.99-.06-3.23,1.57-4.22,.33-.08,.66-.05,.98,.06,.87,.53,.42,1.48,.71,2.19,.14,.59-.2,.96-.6,1.3Z"/><path class="cls-56" d="M492.7,634.42c-.73-.48-.54-1.24-.59-1.92-.8-.91-.23-1.9-.18-2.86,.21-.81,.3-1.71,1.38-1.87,.24,.92-.21,2.03,.75,2.76,.06,1.48-.75,2.65-1.36,3.9Z"/><path class="cls-65" d="M601.62,569.87c0-.24,0-.48,0-.73-.17-.7,.32-1.14,.64-1.65,1.2-.83,2.12-2.44,3.98-1.46,0,0-.07-.04-.07-.04-.83,2.09-2.81,2.83-4.54,3.87Z"/><path class="cls-31" d="M513.5,156.16c.23,.65,.45,1.3,.68,1.95-.86,1.14,1.49,3.34-1.27,3.85,.28-1.81-.08-3.53-.77-5.19,.46-.2,.91-.41,1.37-.61Z"/><path class="cls-58" d="M524.68,201.74c-.67-1.57-.74-3.2-.52-4.86,.62,.61,1.17,1.26,1.19,2.19-.89,.72-.37,1.8-.68,2.67Z"/><path class="cls-20" d="M593.19,547.13c-.08-.99,.22-1.82,1.02-2.45,.38,.61,.36,1.21,.16,1.83-.39,.21-.78,.41-1.18,.62Z"/><path class="cls-43" d="M493.31,627.76c-.23,.65-.45,1.29-.68,1.94-.74,.75-.46,2.04-1.43,2.66-1.12,1.1-1.69,2.45-1.76,4.01-4.31,9.56-6.72,19.58-7.84,30.02-1.24,11.6-1.82,23.2-.83,35.81-1.61-2.3-2.73-3.83-4.51-4.99-.05,.51-.2,.86-.09,1.05,4.48,7.86,4.36,16.59,5.03,25.23,1.32,16.83,1.5,33.74,3.73,50.5,.13,.96,.53,1.89,.62,2.85,.28,2.94,2.57,5.32,1.26,8.86-.89,2.43,1.54,5.25,2.37,7.94,1.7,5.52-.88,8.75-6.57,8.01-1.63-.21-2.62,.42-3.75,1.36-2.31,1.93-4.14,5.01-7.99,3.7-.21-.07-.73,.19-.79,.39-1.33,4.32-5.3,3.24-8.28,3.93-5.46,1.26-11.02,.31-16.5-.03-7.52-.48-14.67,.25-21.47,3.8-2.36,1.23-5.08,1.92-7.71,2.49-5.75,1.24-8.4-.89-8.79-6.74-.22-3.38,.41-6.7,.73-10.04,.67-.59-.22-3.1,2.08-1.7,.33,.46-.13,1.72,1.2,1.2,2.1-5.04,2.26-10.5,3.39-15.75,1.69-7.9,3.61-15.75,5.41-23.62,.21-.94,.24-1.92,.35-2.87,2.69-10.82,4.65-21.78,5.9-32.86,1.28-11.33,.42-22.74,1.16-34.1,.73-11.24,2.14-22.4,4.27-33.46,.06-.29,.33-.54,.58-.95,1.4,2.6,1.15,5.81,3.57,8.12,.94-2.02,.64-3.86,.22-5.72-3.27-14.31-5.43-28.76-4.79-43.49,.4-9.18,.24-18.4,1.91-27.52,.58-3.16,.22-6.49,.18-9.75-.21-16.49,.29-32.98,.7-49.46,.1-4,.44-7.99,.68-11.99,.66-3.25,1.31-6.51,1.97-9.76,13.94,2.61,27.82,5.25,41.31,9.99,14.83,5.21,29.99,3.76,44.79-.79,12.15-3.74,24.36-6.93,37.06-8.12,2.17-.2,2.8,.53,3.15,2.35,1.57,8.07,3.1,16.15,6.54,23.71,1.17,2.56,2.07,5.25,3.27,7.78,1.06,2.23,1.21,4.52,1.41,6.92,.41,4.92,.97,9.86,1.92,14.71,1.31,6.63,1.63,13.31,1.9,20.01,.36,9.08,1.66,18.12,1.25,27.24-.4,8.75-1.32,17.46-1.4,26.23-.05,5.13,.58,10.14,1.53,15.16,2.09,11.06,1.53,22.2,.75,33.32-.73,10.48-1.7,20.95-.19,31.44,.2,1.37,.4,2.76,1.45,4.2,2.04-3.2,.84-6.75,2.16-9.96,.53,3.83,1.16,7.66,1.58,11.51,1.15,10.65,2.78,21.27,1.95,32.05-.09,1.19-.12,2.45,.53,3.5,5.02,8.2,4.84,17.81,7.25,26.71,.73,2.69,.87,5.55,1.27,8.33,.14,.97,.31,1.91-.88,2.48-6.6,3.2-12.69,7.53-20.27,8.51-4.63,.6-9.28,1.23-13.91,.79-5.23-.49-10.17,0-14.82,2.48-2.25,1.2-4.68,1.72-7.12,2.19-2.75,.54-4.56-.72-4.69-3.52-.21-4.21,.41-8.16,2.31-12.18,2.65-5.59,4.11-11.68,2.12-17.98-.77-.65-.74-1.56-.84-2.43-.09-.68-.13-1.37-.5-1.98,.19-13.23-2.27-26.4-2.25-39.48,.02-17.92-6.43-34.4-8.41-51.77-1.02-8.91-2.43-17.77-3.5-26.68-.43-3.54-1.42-6.91-3.38-9.74-5.64-8.14-7.55-17.65-10.49-26.81-2.91-9.06-5.63-18.16-8.11-27.35-.19-.72-.51-1.43-.91-2.06-.18-.28-.73-.47-1.09-.44-.51,.04-.7,.62-.57,1,1.74,5.07-1.07,9.37-2.07,14.03-.97,4.5-.69,9.26-.96,13.91-.75,1.24,.25,2.77-.65,3.99v-.02c-.6,1.92-.41,4.04-1.52,5.82-.16,.63-.32,1.26-.48,1.89Z"/><path class="cls-5" d="M615.9,383.12c-4.52,2.19-9.26,2.37-13.95,2.35-10.93-.05-21.43,1.25-30.56,8.58-1.94-7.69-3.8-15.07-5.7-22.63-2.16,.94-1.92,2.65-2.02,4.19-.4,5.71,1.45,11.13,2.24,16.68,1.02,7.17,.56,14.26-.35,21.35-.76,5.95-.66,11.89-.21,17.83,.53,7,1.55,13.97,1,21.04-.28,3.66,.41,7.36,.48,10.99,.13,6.57-.67,13.16-1.07,19.74-.07,1.21-.89,1.25-1.82,1.33-15.77,1.31-31.26,4.69-46.99,6.22-17.6,1.71-34.99,1.8-51.91-4.82-8.51-3.33-17.58-3.59-26.61-1.97-1.62,.29-2.55,.57-2.61-1.71-.34-12.97-1.45-25.93-1.17-38.91,.21-9.74,.8-19.47,1.2-29.2,.13-3.25,.05-6.48-.88-9.66-1.64-5.62-1.95-11.28-.35-16.97,.23-.83,.27-1.71,.49-2.55,.42-1.65,.49-3.9-.94-4.3-1.77-.5-2.29,1.8-2.92,3.26-.09,.2-.17,.4-.24,.6-1.56,4.33-1.41,3.87-5.6,2.49-6.83-2.25-13.94-3.16-21.1-1.49-2.63,.61-5.31,1.29-7.76,2.39-4.88,2.18-10.01,.13-15.35,1.78,8.14-17,9.41-35.21,14.39-52.41,4.35-15.01,12.38-27.72,26.13-36.03,3.42-2.06,7.13-3.76,10.89-5.11,9.81-3.52,19.11-8.25,28.82-12.01,2.08-.8,3.6-.97,5.59,.47,4.89,3.52,10.78,4.27,16.54,5.36,10.97,2.08,21.92,3.14,32.79-.38,4.11-1.33,8.32-2.65,11.45-5.86,.84-.86,1.21-.39,1.86-.05,7.39,3.85,15.45,4.61,23.58,5.36,10.7,.99,19.89,5.55,27.92,12.71,5.27,4.7,8.12,10.88,11.54,16.78,3.93,6.78,5.69,14.16,7.31,21.71,3.09,14.37,8.25,28.03,15.01,41.08,.29,.57,.57,1.14,.89,1.76Z"/><path class="cls-35" d="M606.23,566.03c-1.71-.16-2.49,1.59-3.96,1.95-.37-.38-.31-.83-.22-1.29,2.45-5.15,5.15-10.17,7.56-15.05-3.01,4.45-5.27,9.58-7.66,14.64-.11,.1-.22,.21-.33,.31-1.52,.6-3.11,1.32-3.82,2.8-2.07,4.32-5.68,4.98-9.87,4.52-1.15-.67-3.44,.49-3.54-1.24-.09-1.51,2.17-1.55,3.43-1.81,3.46-.73,5.44-2.67,6.37-6.05,.6-2.17,1.48-4.29,2.44-6.34,2.34-4.99,.3-9.77-.66-14.56-.47-2.36-1.18-4.57,.14-6.86,.38-.66,.57-1.62-.14-2.06-.83-.52-1.39,.41-1.8,.97-1.42,1.93-2.49,4.02-2.87,6.44-.39,2.44-.86,4.88-1.4,7.29-.97,4.39-1.14,4.52-5.95,5.59,.12-9.88,2.35-19.41,4.06-29.02,1.37-4.06,3.83-7.44,6.47-10.74,3.49-4.36,5.95-9.31,7.96-14.49,.4-1.04,1.45-2.66,.37-3.16-1.4-.66-1.99,1.21-2.62,2.25-1.1,1.84-2.08,3.76-3.27,5.95-.87-2.05,.17-3.73,.12-5.42-.34-12.18-1.13-24.15-7.53-35.15-5.32-9.15-7.29-19.32-7.66-29.91-.23-6.45-.21-12.97-1.82-19.77,2.7,2.07,4.06,5,7.08,6.34,.59-1.64-.52-2.51-1.21-3.46-2.54-3.51-5.11-7.01-7.73-10.47-1.33-1.76-1.35-3.12-.03-5.13,2.02-3.08,3.48-6.44,6.94-8.37,4.94-2.74,10.23-2.69,15.54-2.09,2.63,.3,2.93,2.91,2.07,4.46-.89,1.62-.43,2.5,.29,3.6,5.23,8.1,10.43,16.23,15.81,24.24,.85,1.27,1.18,2.28,1.13,3.79-.17,5.1,.05,10.21-.12,15.31-.57,17.76-1.34,35.52-1.84,53.28-.39,13.75-3.23,27.29-3.3,41.04-.02,3.23,1.21,6.65,.48,9.64-.69,2.83-3.37,5.13-4.87,7.83-1.78,3.2-3.53,6.47-4.05,10.2Z"/><path class="cls-35" d="M405.28,495.43c-.95,2.57-.76,5.32-1.24,7.96-1.77-.34-1.49-1.91-1.87-3.09,0-1.42-.73-2.73-.66-4.17,0-.29,0-.59,0-.89,0-.2,0-.4,0-.59-.04,.17,0,.34-.02,.52,0,.44,0,.87,0,1.3-.03,1.09,.3,2.11,.56,3.15,.04,.98,.23,1.93,.66,2.82-.02,2.19,.18,4.36,.65,6.5,.08,5.29,2.7,8.98,7.24,11.43,3.16,1.71,4.78,4.24,5.41,7.89,1.47,8.51,3.35,16.95,5.16,25.4,.23,1.08,.12,2.4,1.23,3.19-1.26,2.03-2.82,2.14-4.63,.74-2.79-3.05-4.58-6.53-4.64-10.76,0-.32,0-.69-.14-.95-1.63-2.97-4.44-5.3-4.63-9.24-.34,6.78-4.23,12.7-4.01,19.02,.17,4.67,1.68,9.75,5.35,13.53,1.59,1.64,3.56,1.25,5.48,1.26,1.14,.97,.36,3.35-1.49,3.85-1.96,.53-3.77,.4-5.83-.79-5.23-3.01-7.44-7.91-9.51-13.08-.76-1.9-1.79-3.69-2.69-5.54-2.13-1.44-1.91-3.87-2.42-6.23-.24,2.92,1.46,5.15,1.62,7.73,.92,2.54,1.84,5.09,2.76,7.63,.17,.7-.16,.89-.79,.78-3.55-3.51-5.07-8.15-7.02-12.55-.78-1.77-.23-3.6-.3-5.41-.02-.58,.21-1.45-.83-1.3-.31,.05-.54,.62-.81,.95-2.2-1.98-.75-4.39-.76-6.62,.66-7.2,2.17-14.3,2.06-21.6-.07-5.08-1.25-9.88-2.48-14.68-2.63-10.23-3.49-20.63-3.99-31.13-.54-11.55-.47-23.13-1.54-34.67-.34-3.62,1.39-6.94,2.3-10.37,1.53-5.75,4.29-11.07,5.78-16.87,1.29-5.03,1.64-10.23,3.14-15.2,.23-.77-.19-1.77,1.06-2.04,6.54-1.42,13.05-3.55,19.74-.7,1.09,.47,2.23,.85,3.28,1.4,7.59,3.98,8.12,5.77,3.85,13.14-2.55,4.41-5.14,8.8-7.67,13.21-.24,.42-.27,.97-.38,1.4,1.89,.81,1.79-1.41,3.17-1.55-.75,8.03,.2,15.92,.88,23.83,.34,3.93-.48,7.75-1.22,11.57-.43,1.59-.53,3.27-1.38,4.73l.04-.06c-.42,1.13-.41,2.45-1.47,3.29-.55,.52-.5,1.17-.44,1.84-.37,1.17-.63,2.38-1.3,3.44l.02-.04c-.81,1.7-.92,3.67-2.06,5.23-.76,.44-.51,1.2-.57,1.86-2.44,4.64-1.51,9.83-2.4,14.73-.28,1.56-.18,3.18-.25,4.78Z"/><path class="cls-35" d="M522.64,233.69c-.61,4.2-.45,8.44-.44,12.66,0,3.19-.81,5.88-3.6,7.88-1.83,1.31-3.5,2.95-4.94,4.69-5.55,6.69-12.87,7.51-20.92,7.09-6.44-.34-10.88-3.44-15.56-7.55-7.78-6.82-9.23-15.77-9.6-24.91-.3-7.45-1.08-14.88-.99-22.36,.14-12.11,10.98-23.99,23.08-25.17,3.31-.32,6.75-.4,9.71-2.27,1.07-.67,1.75-.32,2.56,.41,2.72,2.46,6.05,3.08,9.43,2.26,2.89-.7,3.72,.82,4.88,2.89,4.36,7.8,4.31,16.4,4.97,24.91,.39,4.96-.26,9.98,.82,14.9,1.29,1.38,.94,2.98,.59,4.57Z"/><path class="cls-19" d="M501.19,516.73c-9.12,.02-17.85-1.99-26.31-5.22-10.52-4.02-21.48-5.84-32.63-6.65-2.09-.15-2.82-.84-2.63-2.96,.15-1.7-.06-3.47-.35-5.16-.4-2.35,.05-3.61,2.81-3.17,7.14,1.15,14.47,.42,21.54,2.24,6.5,1.68,12.99,3.41,19.53,4.93,9.55,2.23,19.11,.98,28.7-.03,17-1.8,33.88-4.42,50.77-6.99,2.42-.37,2.95,.38,2.22,2.57-.61,1.84-1.26,3.69-1.16,5.7,.09,1.82-1.23,1.95-2.59,2.21-8.93,1.66-17.94,3.05-26.6,5.92-8.13,2.69-16.29,5.25-24.89,5.97-2.8,.24-5.61,.42-8.41,.63Z"/><path class="cls-13" d="M512.9,161.96c1.5-.93,.05-2.83,1.27-3.85,3.32,4.15,3.99,8.83,2.87,13.91-.54,2.44-.32,4.94-.11,7.41-.04,1.03-.11,2.05-1.5,2.14-3.28-.4-6.38,1.42-9.64,.83-1.3-.24-3.64,.35-2.49-2.66,.58-1.52-1.21-1.42-1.88-1.02-5.44,3.28-11.78,2.51-17.59,4.07-9.51,2.55-14.36,9.93-18.44,18.02-1.74,3.44-2.39,7.16-2.21,11.04,.13,2.95,.03,5.9-.34,8.84-1.62-7.35-2.85-14.68,.77-21.88,.29-.57,.57-1.22,.58-1.84,.17-11.45,7.08-17.86,16.66-22.2,5.14-2.33,10.61-2.96,16.22-2.5,8.31,.68,13.02-2.39,15.84-10.33Z"/><path class="cls-19" d="M540.69,822.78c0-.64,.04-1.28,0-1.92-.28-4.39,1.47-6.47,5.89-8.3,5.88-2.45,10.27-1.63,14.81,2.09,3.63,2.97,7.51,2.9,11.5,.72,4.18-2.29,8.33-4.58,11.86-7.87,4.32-4.03,5.32-3.65,6.79,1.93,.96,3.64,1.06,7.25,.17,10.88-.24,.98-.28,2.26-2.02,1.64-6.01-2.13-12.26-1.15-18.38-1.03-8.89,.17-17.64,1.64-26.06,4.71-3.99,1.46-4.02,1.39-4.55-2.84Z"/><path class="cls-15" d="M590.27,824.49c-1.02,5.7-4.29,7.86-9.72,8.93-11.13,2.18-22.36,2.18-33.56,2.94-2.77,.19-6.05-4.17-5.38-6.84,.21-.82,.89-.75,1.51-.93,13.44-3.82,27.17-3.68,40.93-2.98,2.13,.11,4.01-.45,6.22-1.12Z"/><path class="cls-36" d="M476.75,262.66c13.34,8.7,27.33,9.08,37.8,1,.23,2.96,.26,5.79,1.01,8.52,.46,1.68-.8,1.98-1.94,2.39-4.76,1.67-9.75,1.98-14.7,2.32-6.39,.44-12.74,.04-19.08-1.2-2.74-.54-3.71-1.8-3.6-4.29,.12-2.8,.32-5.61,.5-8.74Z"/><path class="cls-17" d="M468.92,281.81c2.82-2.03,5.53-2.3,8.56-1.65,12.38,2.63,24.64,2.12,36.62-2.17,1.15-.41,2.15-.32,3.1,.06,2.28,.9,4.49,1.97,7.29,3.22-8.12,4.91-16.52,6.67-25.18,6.41-10.4-.31-20.65-2.09-30.4-5.87Z"/><path class="cls-67" d="M522.64,233.69c-1.05-1.41-.29-3.06-.59-4.57,.45-.22,.89-.45,1.34-.67,1.08-.8,.31-2.28,1.17-3.16,.86-.67,1.48-.37,1.95,.49,.22,1,.17,2,.06,3-.61,1.51-1.37,2.94-2.43,4.2-.5,.24-1,.48-1.5,.72Z"/><path class="cls-14" d="M573.22,810.03c-4.23,3.23-6.81,3.33-10.45,.41,3.7-.14,7.14,.2,10.45-.41Z"/><path class="cls-29" d="M463.28,228.83c1.27,3.58,1.92,7.23,1.32,11.7-2.4-4.1-1.55-7.94-1.32-11.7Z"/><path class="cls-37" d="M594.47,805.16c-.44-.85-1-1.65-1.27-2.55-.21-.7-1.02-1.55,.01-2.26,.76-.52,1.68-.49,2.45-.2,1.07,.41,.65,1.38,.48,2.19-.15,.72-.3,1.44-.46,2.16-.3,.41-.48,1.05-1.21,.65Z"/><path class="cls-27" d="M387.12,539.89c.59,2.17-.54,4.53,.76,6.62,.06,.75,.17,1.52-.95,2.47-.25-3.27-.57-6.16,.19-9.09Z"/><path class="cls-32" d="M524.13,232.96c-.45-1.79,1.04-2.69,1.79-3.92,1.28-.07,1.1,.65,.78,1.44-1.36,.3,.67,4.11-2.57,2.48Z"/><path class="cls-73" d="M537.71,771.47c.63,.11,1.03,.44,1.07,1.12-.64,1.25-.24,2.73-.85,3.99-.36,.83,.24,1.91-.85,2.82,.06-2.8-.52-5.41,.63-7.93Z"/><path class="cls-32" d="M526.03,225.84c-.43-.56-.87-.55-1.32-.03-.56,.13-.98,.13-.59-.63,3.07-1.11,3.31-.91,3.17,2.6-1.7,.18-.45-1.55-1.26-1.95Z"/><path class="cls-66" d="M537.93,776.58c.03-1.38-1.03-3,.85-3.99,.09,1.1,.18,2.2,.27,3.3-.38,.23-.75,.46-1.13,.69Z"/><path class="cls-56" d="M493.79,625.88c.3-2,.58-4,1.53-5.82,.18,2.12-.06,4.13-1.53,5.82Z"/><path class="cls-41" d="M408.5,474.06c.49-1.82,.97-3.65,2.06-5.23-.11,1.97-.35,3.89-2.06,5.23Z"/><path class="cls-21" d="M526.03,225.84c.42,.65,.84,1.3,1.26,1.95,.02,.95-.02,1.88-.59,2.7-.13-.55-.16-1.16-.78-1.44,.03-1.07,.07-2.14,.1-3.21Z"/><path class="cls-7" d="M524.12,225.18c.2,.21,.4,.42,.59,.63,.12,1.16,0,2.2-1.33,2.63,.16-1.11-.47-2.39,.73-3.26Z"/><path class="cls-24" d="M396.82,564.81c.26-.26,.53-.52,.79-.78,.53,.8,1.6,1.46,.62,2.62-.65-.48-1.34-.92-1.41-1.84Z"/><path class="cls-41" d="M413.71,460.36c.17-1.66,.52-3.27,1.38-4.73,.24,1.78,.02,3.43-1.38,4.73Z"/><path class="cls-41" d="M410.54,468.88c.16-1.25,.54-2.42,1.3-3.44,.18,1.38-.06,2.6-1.3,3.44Z"/><path class="cls-56" d="M495.31,620.07c.06-1.35-.15-2.75,.65-3.99-.11,1.35,.63,2.83-.65,3.99Z"/><path class="cls-41" d="M412.28,463.6c.49-1.1,.98-2.2,1.47-3.29,.18,1.4,.06,2.66-1.47,3.29Z"/><path class="cls-26" d="M594.47,805.16l1.21-.65c-.11,.67,.14,1.65-.72,1.81-.67,.12-.47-.69-.49-1.15Z"/><path class="cls-19" d="M419.86,833.18c-.28-2.99-.64-5.87-.78-8.76-.11-2.34,.6-4.11,3.35-4.69,2.31-.49,4.6-1.33,6.71-2.38,3.33-1.67,6.11-.93,9.1,.96,9.08,5.77,14.9,5.43,23.83-.79,2.87-2,6.68-1.47,9.81-2.97,.71-.34,.86,.79,1.07,1.33,1.51,4,1.17,8.05,.28,12.13-.41,1.9-1.69,1.19-2.8,1.04-4.28-.56-8.49-1.54-12.8-1.99-9.14-.96-17.84,1.21-26.58,3.22-3.67,.84-7.3,1.88-11.2,2.9Z"/><path class="cls-16" d="M471.28,834.09c-.98,2.71-2.83,4.07-5.03,4.09-10.2,.06-20.15,2.69-30.34,2.72-3.35,0-6.71,.1-10.04-.49-1.1-.19-2.07-.57-3.03-1.07-1.26-.66-2.19-1.86-2.05-3.07,.11-.95,1.68-.97,2.72-1.13,9.39-1.46,18.69-3.54,28.27-3.64,6.56-.07,12.81,1.72,19.5,2.6Z"/><path class="cls-11" d="M477.92,814.85c-.96,0-.99-.66-1.18-1.1-.29-.66-.76-1.4,.03-2.04,1.67-1.34,3.34-2.68,5.06-3.94,.52-.38,1.28-.5,1.78,.03,.49,.52-.07,.95-.4,1.34-1.38,1.64-2.76,3.28-4.18,4.88-.34,.38-.83,.62-1.12,.83Z"/><path class="cls-55" d="M409.96,799.27c-1.83-1.43-1.01,1.24-1.91,1.24-.79-2.79,2.81-4.52,1.68-7.47,1.29,2.04,.69,4.2,.88,6.26-.23,.31-.45,.3-.65-.03Z"/><path class="cls-25" d="M450.35,817.53c-2.12,0-4.27,.2-6.39-1.18h6.29c.51,.35,.5,.75,.09,1.18Z"/><path class="cls-74" d="M450.35,817.53c-.03-.39-.06-.78-.09-1.18,.68-.01,1.7-.44,1.68,.67,0,.64-.96,.58-1.59,.51Z"/><path class="cls-49" d="M409.96,799.27c.21,.03,.43,.04,.65,.03,.24,.23,.48,.47,.72,.7-.05,.52-.12,1.2-.78,1.05-1.01-.22-.58-1.11-.58-1.78Z"/><path class="cls-34" d="M591.91,564.79c.04,4.56-3.25,2.56-5.32,3.31q.89-2.24,5.32-3.31Z"/><path class="cls-9" d="M592.56,562.15c-.17-.11-.39-.25-.62-.4,.32-.26,.62-.58,.99-.76,.12-.06,.6,.25,.61,.4,.01,.54-.47,.63-.98,.76Z"/><path class="cls-48" d="M403.36,508.95c-.96-2.07-1.34-4.26-1.3-6.53-.03-.83-.91-1.92,.7-2.23,.63,.98,.3,2.35,1.28,3.2,.19,.26,.38,.52,.57,.78-2.65,1.01-.5,3.28-1.25,4.79Z"/><path class="cls-78" d="M394.85,556.41c-1.83-2.89-3.03-5.93-2.05-10.22,1.99,3.01,1.44,6.23,2.86,8.72-.65,.29-.62,.96-.81,1.5Z"/><path class="cls-77" d="M602.33,566.73c-.02,.42-.04,.83-.06,1.25-.22,.39-.44,.78-.66,1.17-1.25-.86,.52-1.71,0-2.56,0,0-.05,.06-.05,.06,.28-.22,.53-.18,.76,.09Z"/><path class="cls-18" d="M491.2,632.36c.53-.86-.31-2.45,1.43-2.66,.48,1.06-.63,1.81-.53,2.8-.3-.05-.6-.09-.9-.14Z"/><path class="cls-1" d="M554.6,794.62c5.86-4.51,12.84-5.29,19.84-5.84,2.33-.18,4.72-.76,7.07,0,.59,.19,1.45,.05,1.62,.81,.22,.95-.7,1.25-1.32,1.58-2.05,1.12-4.36,1.31-6.6,1.37-6.73,.19-13.31,1.24-19.81,2.9-.73,.18-.93-.16-.81-.82Z"/><path class="cls-50" d="M554.6,794.62c.27,.27,.54,.55,.81,.82-.59,.58-1.2,1.12-2.35,1.21,.08-1.1,.84-1.55,1.54-2.04Z"/><path class="cls-38" d="M602.33,566.73c-.25-.03-.5-.06-.76-.09,.94-4.53,3.3-8.43,5.56-12.36,.43-.75,.84-1.53,1.37-2.2,.74-.94,.58-3.46,1.83-2.81,1.89,.98-.1,2.62-.69,3.78-2.35,4.61-4.07,9.56-7.32,13.69Z"/><path class="cls-68" d="M404.56,423.26c5.03,7.78,4.98,16.55,4.72,25.36-2.97-8.18-2.58-17.02-4.72-25.36Z"/><path class="cls-42" d="M402.76,500.2c-.78,.57-.57,1.45-.7,2.23-.81-.8-.5-1.85-.64-2.8-.59-1.06,.13-2.32-.53-3.36v-1.27c.71-.39,.88,.25,1.19,.64,.42,1.49,.77,2.99,.67,4.55Z"/><path class="cls-62" d="M402.09,495.64c-.4-.21-.8-.43-1.21-.64-.2-.63-.18-1.76,.23-1.69,1.18,.22,1.03,1.38,.98,2.33Z"/><path class="cls-62" d="M400.9,496.27c1.04,.99,.59,2.2,.53,3.36-.83-1.02-.46-2.22-.53-3.36Z"/><path class="cls-45" d="M483.56,211.55c2.1,.38,3.92,.65,5.7,1.07,1.44,.34,2.31,1.43,2.04,2.86-.24,1.27-1.39,2.02-2.71,1.85-4.87-.62-9.72-.42-14.58,.03-.74,.07-1.66,.11-1.9-.82-.21-.83,.48-1.35,1.05-1.87,3.06-2.81,6.99-2.53,10.4-3.11Z"/><path class="cls-44" d="M518.03,217.3c-4.78-.39-9.21-.59-13.64,.03-1.41,.19-2.62-.27-3.02-1.82-.32-1.24,.37-2.12,1.37-2.68,3.58-2.03,12.94-1.2,16.23,1.41,.77,.61,1.68,1.24,1.26,2.38-.47,1.28-1.67,.58-2.2,.69Z"/><path class="cls-23" d="M485.55,227.06c-1.55,1.14-3.28,1.6-5.18,1.38-2.14-.25-3.24-1.48-3.43-3.61-.19-2.07,1.05-2.84,2.79-3.31,2.49-.68,4.94-.48,7.31,.35,2,.7,2.69,1.85,.66,3.42-.28,.15-.57,.18-.88,.12-.99-.77-1.84-1.38-2.88,.12-.68,.98-1.83,1.47-3.09,.7-.57-.33-.62-1.09-1.19-1.46-.27,.66,.33,.88,.59,1.25,1.53,1.57,3.07-.36,4.6,0,.46,.19,.81,.46,.68,1.03Z"/><path class="cls-60" d="M514.41,248.87c-7.17,4.99-14.85,7.82-23.76,5.45,8.35,.45,15.67-2.6,22.75-6.47,.8-.12,1.14,.22,1.01,1.02Z"/><path class="cls-64" d="M506.47,222.61c2.45-1.33,5.09-1.72,7.81-1.39,1.16,.14,2.4,.46,2.77,1.84,.36,1.36-.47,2.24-1.41,3.02-3.3,2.74-8.21,2.3-9.91-.89,.21-.21,.46-.35,.74-.42,.4-.08,.92,.11,1.17-.23,.23-.32-.21-.49-.45-.67-.44-.31-1.05-.52-.73-1.26Z"/><path class="cls-75" d="M500.59,228.63c-2.51-4.34-1.7-7.8,2.29-10.3-2.35,2.87-2.2,6.34-2.29,10.3Z"/><path class="cls-72" d="M490.37,219.67c3.47,1.87,4.4,4.81,3.15,9.82-1.34-3.54-.51-7.25-3.15-9.82Z"/><path class="cls-61" d="M494.19,241.69c2.51-1.69,5.47,.87,7.91-1.64-1.15,3.66-1.74,3.75-7.91,1.64Z"/><path class="cls-71" d="M514.41,248.87c-.34-.34-.67-.68-1.01-1.02,1.17-.65,.19-1.72,.43-2.53,.8-.29,1.37,.18,1.76,.61,.99,1.08,3.66,1.26,3.14,2.7-.66,1.84-2.26-.66-3.53-.29-.29,.08-.53,.35-.79,.53Z"/><path class="cls-57" d="M504.07,241.49q.06-3.32-1.13-5.14c1.44-.57,2.4,.19,2.8,1.33,.54,1.56-.19,2.82-1.66,3.81Z"/><path class="cls-79" d="M473.21,242.77c-1.12-1.48-2.24-2.96-3.35-4.44-.18-.69,.12-.92,.78-.8,1.34,1.07,2.45,2.34,3.27,3.85,.27,.71,.58,1.44-.69,1.39Z"/><path class="cls-69" d="M490.84,237.54c.67,1.47-.34,2.42,.49,3.33,.41,.45,2.16,.77,.75,1.73-.98,.66-1.69-.47-2.21-1.31-.89-1.44,.08-2.34,.98-3.75Z"/><path class="cls-8" d="M473.21,242.77c.62-.27,.63-.84,.69-1.39,.85,1.38,1.27,2.84,.91,4.76-1.55-.87-1.18-2.32-1.6-3.38Z"/><path class="cls-59" d="M506.6,225.09c-.29,.03-.58,.06-.87,.1-.84-1.17-.3-1.94,.74-2.58,.45,.22,.91,.45,1.36,.67,.17,1-.62,1.34-1.23,1.81Z"/><path class="cls-6" d="M470.63,237.54c-.26,.27-.52,.53-.78,.8-.7-.55-1.16-1.22-1.32-2.38,1.37-.13,1.71,.77,2.1,1.58Z"/><path class="cls-76" d="M485.55,227.06c-.26-.23-.52-.45-.78-.68,.23-1.16,.96-1.47,2.04-1.21,.3,.04,.6,.08,.9,.11-.6,.74-1.11,1.57-2.15,1.78Z"/><path class="cls-30" d="M486.81,225.17c-.68,.4-1.36,.81-2.04,1.21-1.68,.2-3.33,1.35-5.04,.1,.3-.46,.73-.62,1.26-.59,1.44,1,2.14,.06,2.72-1.07,.32-.61-.39-1.94,1.2-1.62,1.1,.22,2.2,.41,1.89,1.97Z"/><path class="cls-33" d="M481,225.89c-.42,.2-.84,.39-1.26,.59-1.01-.53-1.74-1.3-1.28-2.48,.41-1.08,1.97-.97,2.17,.1,.11,.6,.25,1.19,.37,1.79Z"/><path class="cls-22" d="M512,225.6c.93-.77-.26-3.29,2.13-2.76,.55,.12,1.59,.34,1.33,1.05-.52,1.41-1.88,1.78-3.46,1.71Z"/><path class="cls-33" d="M506.6,225.09c-.52-1.24,.62-1.34,1.23-1.81,1.87-.23,1.59,1.42,1.26,2.03-.72,1.35-1.69,.38-2.49-.22Z"/><path class="cls-28" d="M511.38,223.63c-.17,.47-.32,.96-.85,.81-.21-.06-.47-.49-.46-.74,.03-.39,.23-.88,.76-.75,.23,.06,.38,.46,.54,.67Z"/></svg>