<?xml version="1.0" encoding="UTF-8"?><svg id="Layer_1" xmlns="http://www.w3.org/2000/svg" viewBox="0 0 1000 1000"><defs><style>.cls-1{fill:#f6f5f5;}.cls-2{fill:#010101;}.cls-3{fill:#060504;}.cls-4{fill:#689682;}.cls-5{fill:#ebeae9;}.cls-6{fill:#fcfcfc;}.cls-7{fill:#e2e1e1;}.cls-8{fill:#fff;}.cls-9{fill:#ffd900;}.cls-10{fill:#fefefe;}.cls-11{fill:#fefefd;}.cls-12{fill:#fafaf9;}.cls-13{fill:#e4e4e3;}.cls-14{fill:#7d7d7d;}.cls-15{fill:#7dc6cd;}.cls-16{fill:#7f7467;}.cls-17{fill:#9e9d9e;}.cls-18{fill:#9e9e9e;}.cls-19{fill:#c2ac95;}.cls-20{fill:#ae9a86;}.cls-21{fill:#aaa;}.cls-22{fill:#c9c8c7;}.cls-23{fill:#cfb62a;}.cls-24{fill:#dddbdb;}.cls-25{fill:#dddcdb;}.cls-26{fill:#d1b9a0;}.cls-27{fill:#dac1a7;}.cls-28{fill:#d9c1a7;}.cls-29{fill:#21201d;}.cls-30{fill:#224a89;}.cls-31{fill:#0b0907;}.cls-32{fill:#151413;}.cls-33{fill:#1d1a16;}.cls-34{fill:#443c34;}.cls-35{fill:#463e36;}.cls-36{fill:#2c2722;}.cls-37{fill:#484038;}.cls-38{fill:#383838;}.cls-39{fill:#3a342d;}.cls-40{fill:#34312e;}.cls-41{fill:#27231f;}.cls-42{fill:#60554b;}.cls-43{fill:#4f4c49;}.cls-44{fill:#4e453c;}.cls-45{fill:#27406e;}</style></defs><path class="cls-2" d="M500.56,733.41c-1.21,9.7-1.04,19.4-.27,29.13,.54,6.84-.85,12.96-7.05,17.03-1.28,.84-.75,2-.44,2.91,.86,2.55,1.88,5.05,2.92,7.53,4.33,10.37,.89,18.01-9.52,22.28-10.72,4.4-21.87,5.81-33.3,5.82-11.18,0-22.35-.04-33.53-.3-3.96-.09-7.99-.53-11.85-1.42-8.69-2.01-13.46-7.92-14.42-16.58-.89-8.01,.42-15.73,5.08-22.6,4.98-7.34,12.29-8.42,20.32-7.69,3.57,.33,6.99,1.25,10.31,2.55,2.15,.84,2.95,.14,2.51-1.97-2.1-10.2,.36-19.96,2.82-29.72,3.49-13.88,6.66-27.83,7.21-42.2,.19-4.98-.49-9.93-1.24-14.83-1.49-9.74-.65-19.22,1.45-28.85,2.57-11.78,1.21-23.55-1.99-35.2-3.58-13.07-5.47-26.43-4.26-40.03,.65-7.3,1.58-14.57,2.54-21.83,.31-2.3-.45-3.67-2.5-4.48-.38-.15-.76-.28-1.15-.42-1.3,3.88-3.08,.65-3.83-.08-5.6-5.38-10.65-11.21-14.81-17.87-4.03-6.45-3.27-12.79-1.5-19.6,2.52-9.72,4.22-19.62,3.47-29.73-.63-8.48-1.62-16.94-2.23-25.42-.3-4.21-.3-8.48-.06-12.7,.52-9.46,.2-19.11,3.21-28.19,2.29-6.9,1.24-13.14-.91-19.7-1.41-4.3-1.29-8.94-6.42-11.46-4.44-2.18-3.34-7.1-3.33-11.07,.02-5.82,1.32-11.5,2.34-17.23,1.07-6.02,1.08-12.27,1.09-18.42,.03-17.36,8.01-30.58,21.14-41.08,4.52-3.61,7.96-8.31,12.65-11.68,1.94-1.39,3.7-3.22,5.85-4.07,5.05-2,6.91-6.24,8.44-10.79,1.66-4.93,2.34-10.1,3.36-15.18,.28-1.38-.34-1.94-1.27-2.61-7.75-5.6-13.72-12.46-16.51-21.89-.93-3.14-4.41-4.62-6.29-7.28-1.5-2.13-3.08-4.17-4.04-6.62-.62-1.59-1.06-3.02,.8-4.25,1.57-1.04-.12-1.88-.57-2.53-7.39-10.64-8.15-22.58-5.6-34.57,2.44-11.48,10.41-19.24,20.66-24.52,4.96-2.55,9.78-5.16,13.48-9.45,1.15-1.33,2.19-2.71,2.73-4.38,.28-.87,1-1.91-.04-2.68-.94-.69-2.04-.56-3.06,.02-.19,.11-.38,.22-.58,.3-1.13,.43-1.77,2.97-3.33,1.19-1.29-1.48-.68-4.02,.58-4.72,3.82-2.12,6.62-6.08,11.49-6.38,5.15-.32,8.66,1.94,11.12,6.33,2,3.56,2.84,7.47,3.68,11.37,.47,2.2,1.31,3.64,3.34,5.03,5.7,3.89,9.16,9.64,11.9,15.93,3.49,8.01,6.37,16.1,6.04,25-.02,.63-.16,1.46,.6,1.71,4.9,1.63,4.1,5.94,4.09,9.48-.02,3.18-.75,6.48-2.1,9.45-2.39,5.27-3.01,10.76-2.6,16.45,.38,5.28-.8,10.16-4.24,14.27-1.57,1.87-1.26,3.32-.01,5.19,4.97,7.46,10.8,13.81,19.75,16.48,3.16,.94,6.43,.82,9.66,.87,6.93,.12,13.86-.2,20.74,1.05,4.02,.73,7.48,2.64,11.09,4.43,12.41,6.18,17.52,17.77,22.2,29.57,7.11,17.92,13.9,35.97,20.07,54.24,1.14,3.38,1.18,6.07-1.78,8.38-1.5,1.18-1.74,2.57-1.37,4.56,.74,4.02,1.18,8.11,.61,12.25-.82,5.9,1.33,11.55,1.76,17.36,.63,8.4-.52,16.61-2.01,24.76-1.85,10.08-3.6,20.25-6.58,30.02-2.13,6.98-1.67,13.79-1.36,20.67,.31,6.86-.15,13.58-1.47,20.28-.9,4.59-2.4,9.04-2.65,13.8-.27,5.19-3.23,9.06-7.25,12.16-2.23,1.72-4.28,3.77-6.73,5.08-3.19,1.71-3.76,4.32-3.79,7.47-.04,3.89-.32,7.77-.33,11.66-.04,14.52-2.15,28.82-4.98,43-2.3,11.52-1.83,22.92-.22,34.43,.77,5.53,1.69,11.17-.52,16.65-.38,.94,.2,1.71,.48,2.48,4.08,10.99,5.05,22.46,5.62,34.04,.58,11.64,1.56,23.26,2.48,34.89,1.16,14.68,1.44,29.39,.22,44.11-.7,8.51-.76,17.08-1.09,25.62-.17,4.64-.79,9.24-1.17,13.85-.43,5.26-.15,10.59,.12,15.88,.15,2.96-.19,5.84-.5,8.73-.14,1.35-.54,3.13-1.48,3.86-4.57,3.54-2.42,7.9-1.87,12.1,.58,4.46-.19,8.81-1.03,13.16-.24,1.23-.65,2.37,.29,3.62,.81,1.07,.6,2.55,.28,3.79-2.71,10.51-8.09,16.34-20.5,17.44-6.46,.57-12.95,1.01-19.43,1.24-4.64,.16-9.34,.09-13.72-1.86-5.11-2.28-7.28-6.82-5.86-12.21,.34-1.29,.42-2.51,.11-3.81-1.57-6.73-1.41-13.53-.69-20.33,.26-2.44,.13-4.21-1.96-6.22-6.96-6.71-7.15-15.32-5.52-24.11,.49-2.63,1.27-5.33,2.55-7.65,2.79-5.04,2.42-10.55,2.98-15.93,1.69-16.04-2.31-31.31-6.39-46.57-.39-.52-.77-.55-1.14,.01Z"/><path class="cls-21" d="M500.56,733.41c-.07-.68-.48-1.79,.38-1.86,1.32-.11,.69,1.13,.77,1.84-.38,0-.76,0-1.14,.01Z"/><path class="cls-30" d="M510.72,782.08c.48-5.49,1.4-10.94,1.39-16.47-.01-9.79-1.62-19.39-3.83-28.86-2.51-10.72-3.86-21.52-3.19-32.51,.34-5.48,1.55-10.94,1.56-16.41,.01-3.63,1.21-8.36-4.16-10.07-.85-.27-.63-1.31-.77-2.01-2.89-14.63-4.48-29.46-6.54-44.21-1.76-12.61-2.73-25.32-4.29-37.96-1.07-8.67-.74-17.53-.94-26.3-.06-2.65-.53-5.17-1.56-7.57-.58-1.35-1.66-2.54-3.25-2.19-1.53,.34-1.67,1.91-1.61,3.2,.78,15.55,.26,31.16,2.87,46.62,1.64,9.69,1.84,19.58,3.64,29.27,2.71,14.56,4.67,29.3,10.08,43.23,.78,2,.41,4.1,.29,6.13-.29,4.96,.16,10.28-1.52,14.77-2.16,5.77-1.45,11.63-2.46,17.38-1.76,10.02-2.58,20.19-2.45,30.39,.08,6.15,1.45,12.24,1.28,18.42-.18,6.29-3.27,8.92-9.34,7.61-6.6-1.43-13.41-.78-20-2.09-3.49-.69-6.88-2.01-10.39-2.52-4.37-.63-8.58,.52-12.66,2.2-4.84,1.99-5.76,1.42-6.93-3.65-1.46-6.29-.53-12.53,.88-18.63,3.07-13.37,6.35-26.69,8.05-40.32,1.04-8.39,.93-16.79-.13-25.23-1.03-8.14-1.65-16.35,.27-24.5,2.38-10.11,.97-20.17-.11-30.31-1.55-14.48-6.34-28.54-5.62-43.28,.52-10.68,2.15-21.25,3.33-31.86,.88-7.95,1.46-15.9,.75-23.96-.71-7.98-.34-16.03,.48-24.02,.58-5.65,1.38-11.28,2.01-16.37,32.4,7.92,64.43,8.8,96.93-2.57-1.54,2.83-2.84,5-2.66,7.65,.24,3.48,1.85,4.73,4.84,3.06,5.13-2.85,10.76-4.58,15.89-7.39,1.95-1.07,2.19-.55,2.34,1.45,.68,9.43-2.9,17.09-9.29,23.74-1.8,1.87-3.46,3.9-5.02,5.98-2.11,2.82-2.22,6.12-.49,8.8,1.94,3,5.65,4.63,8.89,4.16,3.74-.54,7.12-1.96,10.27-3.9,2.28-1.4,2.62-.73,2.64,1.59,.11,13.16-1.92,26.08-4.2,38.96-1.88,10.64-4.85,21.13-4.92,32.02-.04,6.72,1.53,13.31,2.2,19.98,.04,.43,.41,.96,.26,1.25-2.9,5.26-.15,10.15,1.08,15.06,2.15,8.54,3.41,17.14,3.83,25.96,.73,15.56,1.66,31.12,2.9,46.66,1.07,13.29,1.06,26.61-.28,39.93-.65,6.46-.76,12.99-.87,19.5-.11,6.83-.4,13.63-1.3,20.41-.24,1.79-.22,3.54,1.2,5.18,1.62,1.88-.1,4.15-.04,6.27,.09,3.01-.35,6.04-.69,9.05-.69,6.1-3.72,8.1-9.52,6.3-4.75-1.47-9.22-3.67-14.24-4.47-6.66-1.07-12.68,.1-18.35,3.62-2.67,1.66-5.31,3.4-8.12,4.8-3.76,1.88-5.93,1.27-8.31-2.29-4.07-6.07-3.28-12.65-1.21-19.05,1.75-5.45,4.22-10.66,6.26-16.02,.54-1.42,1.66-3.24-.25-4.39-1.79-1.07-2.99,.4-4.1,1.62-.66,.13-.98-.08-.81-.79Z"/><path class="cls-4" d="M559.01,374.64c-.81-1.08-.15-1.97-.08-2.87,.09-1.12,.82-2.8-.65-3.11-1.57-.32-1.53,1.45-1.67,2.57-.55,4.39-1.21,8.78-1.53,13.2-1.32,18.18-1.46,36.39-1.31,54.6,.04,5.08,.21,10.17,.63,15.26,.3,3.53-.26,7.13-.36,10.7-.04,1.24-.74,1.62-1.75,1.98-9.41,3.34-18.89,6.69-28.97,6.9-7.56,.16-15.14-.54-22.71-.99-5.74-.34-11.49-.21-17.23-.5-7.04-.36-14.06-.78-20.93-2.33-5.2-1.18-10.38-2.24-15.73-2.1-2.19,.06-2.54-.99-2.15-2.95,2.05-10.37,4.22-20.72,5.92-31.14,1.15-7.02,3.12-13.95,3.07-21.13-.02-2.43,.98-1.8,2.38-.84,.24-2.51-.81-4.59-1.41-6.69-3.23-11.3-4.49-22.86-5.14-34.54-.46-8.3-2.88-16.12-6.89-23.44-.83-1.52-1.54-3.1-2.32-4.64-.77-1.52-1.44-3.12-3.32-3.79-.64,1.49-.29,2.81,.18,4.14,1.59,4.49,3.01,9.04,4.8,13.45,2.19,5.42,2.31,11.18,3.18,16.83,.33,2.12-.27,2.85-2.67,3.06-9.69,.84-19.43,1.6-28.76,4.64-2.29,.75-2.24-.11-2.3-1.81-.16-4.92,.84-9.71,1.89-14.43,1.29-5.76,.18-11.61,1.17-17.37,.68-3.92,.47-7.99,1.09-11.92,2.22-14.01,9.51-25.19,20.11-34.24,5.28-4.51,9.46-10.17,15.23-14.12,.53-.36,1.06-.72,1.61-1.09,1.12,.82-.43,2.72,1.21,2.97,1.39,.21,2.57-.81,3.16-1.91,.93-1.74,1.9-1.72,3.62-1.15,5.65,1.87,11.35,.74,17.02-.18,13.35-2.16,26.06-6.13,36.71-14.74,3.35-2.71,5.92-3.21,9.96-1.88,5.01,1.66,10.44,1.92,15.78,1.74,9.79-.33,18.91,1.79,27.3,6.96,.81,.5,1.23,1.1,1.71,1.83,7.77,11.76,12.98,24.74,18.07,37.79,5.08,13.03,10.26,26.03,15.48,39,.78,1.94,.79,2.57-1.61,3.16-8.17,2.04-16.64,1.55-24.86,3.42-6.97,1.59-12.65,4.32-16,10.89-.17,.33-.6,.52-.95,.81Z"/><path class="cls-27" d="M550.06,489.09c5.98-5.99,11.96-11.98,17.95-17.96,.42-.42,.82-1.28,1.55-.76,3.64,2.56,2.86-1.03,2.96-2.35,.39-4.77-.79-9.45-1.32-14.15-1.27-11.23-1.36-22.48-1.05-33.74,.18-6.6-.24-13.22,.66-19.8,.11-.82-.4-1.94,.51-2.39,2.64-1.29,1.62-3.15,.9-4.94-1.41-3.51-2.91-6.99-4.31-10.5-.39-.98-.77-1.93,.7-2.66,8.79-4.41,17.19-9.66,26.73-12.49,3.79-1.13,3.81-1.15,4.06,2.88,.31,4.97-1.16,10.08,.16,14.89,3.96,14.47-.09,28.4-2.29,42.47-1.43,9.16-3.46,18.18-4.2,27.5-.87,10.89-.42,21.84-1.91,32.67-.46,3.32-1.07,6.6-1.98,9.83-.66,2.33-1.44,4.44-.62,7.16,.76,2.56-.92,5.35-2.89,7.21-3.89,3.69-8.02,7.05-12.66,9.92-2.59,1.6-4.75,4.25-7.43,6.03-2.44,1.62-4.99,2.92-7.89,3.71-2.91,.79-4.55-.64-6.11-2.5-1.72-2.04-1.04-3.97,.5-5.82,3.73-4.5,7.78-8.74,11.11-13.56,3.51-5.07,4.49-10.9,5.03-16.86,.17-1.93,.53-3.88,.44-5.8-.16-3.64-3.09-5.35-6.09-3.32-3.71,2.51-8.18,3.34-11.8,5.92-.71,.34-.78-.04-.69-.61Z"/><path class="cls-27" d="M501.63,225.87c1.77,13.39-12.85,30.79-26.67,30.4-1.11-.03-2.24,0-3.17-.5-7.99-4.34-15.5-9.4-20.07-17.49-2.92-5.17-4.96-10.82-7.43-16.24-1.7-3.73-3.47-7.37-4.62-11.38-2.44-8.49-.55-16.33,2.78-23.95,4.56-10.45,12.7-17.03,23.51-20.48,1.2-.38,2.12-.05,3.12,.18,2.71,.62,5.38,.75,7.98-.3,1.28-.51,2.08-.47,3.03,.73,1.96,2.48,4.52,4.35,7.07,6.21,5.95,4.34,8.68,10.39,10.07,17.51,1.77,9.13,3.34,18.28,4.36,27.52,.28,2.57,.04,5.2,.04,7.8Z"/><path class="cls-27" d="M431.96,519.03c-1.78-.18-4.97,2.62-4.39,4.25,1,2.79-.03,5.41-.39,7.97-.35,2.51,.35,4.45,1.81,5.9,3.71,3.7,4.77,9.29,9.13,12.48,.24,.18,.3,.82,.21,1.19-.18,.75-.87,.57-1.33,.42-1.74-.57-3.64-.81-5.1-2.01-7.25-5.91-12.02-13.56-15.27-22.2-.9-2.4-.36-4.95,.08-7.4,1.32-7.22,2.22-14.46,2.25-21.83,.02-4.29,1.17-8.58,1.15-12.86-.05-8.12-.96-16.24-.84-24.35,.2-13.58,0-27.3,3.32-40.57,1.74-6.98-.29-13.27-1.4-19.77-.81-4.77-1.85-9.5-2.61-14.29-.23-1.42,.27-1.73,1.4-1.89,7.58-1.09,15.16-2.07,22.8-2.69,2.56-.21,3.04,1,3.43,2.95,.87,4.37,.3,8.8,.78,13.19,1.67,15.21-.91,30.14-3.05,45.1-1.29,9-1.88,18.02-1.54,27.15,.23,6.26-2.61,12.16-3.45,18.35-.52,3.85-1.09,7.68-1.12,11.59-.04,4.83-2.48,9.13-3.51,13.76-.44,2-1.26,3.92-1.09,6.02-.67,.56-.86-.25-1.26-.44Z"/><path class="cls-15" d="M490.13,792.62c-9.27-.65-17.44,3.53-26.15,4.81-5.1,.75-10.17,1.89-15.41,1.69-11.7-.46-23.41,.64-35.12,0-5.16-.28-9.18-2.95-13.06-5.85-1.9-1.42-.34-6.4,2.11-7.18,3.86-1.23,7.61-.82,11.34,.69,3.68,1.5,7.27,3.29,11.34,3.65,8.81,.79,16.71-1.21,23.32-7.35,.56-.52,1.12-1.03,1.61-1.61,3.64-4.37,7.46-6.72,13.58-3.98,5.34,2.39,11.52,1.06,17.25,2.07,.64,.11,1.29,.15,1.93,.27,5.09,.93,5.01,.94,5.67,6.11,.28,2.2,1.02,4.34,1.59,6.69Z"/><path class="cls-9" d="M502.41,189.86c-2.09-3.01-3.36-6.46-5.19-9.63-2.81-4.87-6.35-8.7-11.15-11.54-1.93-1.14-3.68-2.57-5.6-3.92,1.38-1.69,3.3-2.53,4.22-4.63-1.61-.28-2.66,.63-3.79,1.3-3.03,1.79-6.51,4.04-9.73,2.81-5.12-1.96-9.13,.38-13.02,2.26-11.88,5.71-18.43,15.66-21.05,28.42-.59,2.9-.48,5.81-.57,9.55-2.36-4.59-2.89-8.91-3.83-13.09-.62-2.73-.87-5.51-1.88-8.18-.77-2.02,.29-4.05,1.01-5.95,3.33-8.79,10.26-14.1,18.29-18.05,5.54-2.72,11.44-4.71,15.66-9.59,1.29-1.49,2.52-2.98,3.38-4.75,2.03-4.15,3.6-8.29-.94-12.28,5.24-.22,8.24,2.07,10.02,6.32,1.54,3.7,1.91,7.81,3.93,11.34,.8,1.41,1.62,2.82,2.55,4.15,.54,.77,1.14,1.72,2.23,1.73,1.56,.02,.69-1.77,1.83-2.58,7.36,10.89,12.43,22.56,14.38,35.53,.27,.75-.1,.9-.74,.78Z"/><path class="cls-15" d="M565.86,841.12c0,.43-.05,.88,0,1.3,.36,2.66-.37,3.08-3.15,2.47-14.22-3.1-28.35-2.88-42.06,2.55-2.44,.96-3.36-.29-3.79-2-1.06-4.24-1.2-8.56-.5-12.91,.18-1.13,.86-1.25,1.71-1.57,1.82-.67,3.82-1.21,5.32-2.36,2.91-2.24,5.45-2.46,8.08,.27,.52,.54,1.23,.89,1.85,1.32,7.84,5.42,13.3,4.78,20.12-2.25,1.21-1.25,1.7-3.4,4.57-2.51,3.21,1.01,5.79,2.12,6.62,5.71,.76,3.28,1.21,6.58,1.21,9.94Z"/><path class="cls-8" d="M554.58,469.52c2.61-2.86,3-6.39,3.13-9.91,.78-22.46,.34-44.93,.51-67.39,.01-1.46-.74-4.22,.68-4.18,2.23,.06,5.06,.2,6.72,2.39,1.3,1.71,2.35,3.61,3.56,5.4,.47,.69,.6,1.33,.32,2.13-2.33,6.71-2.34,13.79-3.07,20.72-.74,6.99-.75,14.06-.85,21.11-.12,8.44,.64,16.83,2.6,25.07,.37,1.55,.26,2.65-1.24,3.52-1.4,.81-2.71,1.79-3.99,2.79-2.11,1.63-4.15,3.53-5.86-.42-.43-1-1.73-.59-2.48-1.22Z"/><path class="cls-15" d="M495.53,491.12c-8.83-.4-17.38-1.56-25.94-2.55-5.89-.67-11.81-1.11-17.71-1.69-1.27-.12-3.16,.02-3.54-1.04-.66-1.87-.71-4.03-.65-6.06,.03-1.05,1.23-.61,1.87-.41,5.99,1.84,12.15,1.78,18.31,1.79,14.09,.02,28.18-.21,42.25,.78,12.26,.86,24.35-.03,36.11-3.94,2.27-.75,4.43-1.73,6.48-2.97,.62-.37,1.38-1.5,2.12-.26,.47,.79,.82,1.75-.19,2.61-1.73,1.47-3.39,3.03-5.08,4.56-.37,.33-.72,.4-1.14,.11-2.86-2-5.66-.47-8.39,.26-11.99,3.22-23.86,6.92-36.28,8.2-2.8,.29-5.61,.42-8.22,.61Z"/><path class="cls-8" d="M546.88,850.06c4.95-.34,9.77,.16,14.56,1.02,2.52,.45,3.64,1.35,2.38,4.36-2.48,5.92-6.18,8.52-13.94,8.91-7.01,.35-14,.85-21.01,1.11-2.57,.1-5.2-.11-7.74-.54-2.42-.42-4.36-1.73-5.21-4.3-.68-2.04-.23-3.43,1.64-4.59,5.07-3.14,10.73-4.38,16.49-5.26,4.27-.66,8.58-1.04,12.84-.7Z"/><path class="cls-10" d="M399.95,799.22c5.36,5.43,11.49,6.53,17.87,6.39,12.89-.29,25.77-.66,38.64-1.32,5.69-.29,11.33-1.35,16.76-3.27,5.63-1.98,11.68-2,17.38-3.68,.98-.29,1.22,.1,1.13,1.21-.24,2.91-1.61,4.76-4.29,5.89-8.45,3.57-17.23,5.71-26.4,5.81-13.11,.14-26.23,.19-39.33-.05-4.39-.08-8.9-.08-13.17-1.36-4.36-1.3-7.65-3.82-8.58-9.62Z"/><path class="cls-28" d="M464.66,258.4c13.41,5.76,22.9,3.21,34.3-9.31,1.93,4.03,3.63,8.06,6.9,11.15,1.39,1.32-.68,1.8-1.3,2.24-6.55,4.6-13.85,7.63-21.62,9.4-5.68,1.29-11.46,2.11-17.19,3.17-1.95,.36-2.12-.48-1.86-2.17,.73-4.77,1.73-9.54,.76-14.48Z"/><path class="cls-11" d="M402.3,783.46c2.42-4.99,6.02-6.01,10.06-6.29,4.69-.33,9.28,.19,13.67,1.89,2.36,.91,4.38,.75,6.26-1.06,.72-.7,1.52-1.56,2.8-.61,2.59,1.92,5.38,1.17,8.05,.21,2.83-1.02,5.6-2.17,8.77-2.62-6.32,10.19-20.98,14.86-31.62,10.25-.89-.39-1.79-.74-2.67-1.16-4.72-2.27-9.54-3.27-15.31-.59Z"/><path class="cls-12" d="M460.25,282.33c.71-3.58,2.73-3.66,5.71-3.82,15.45-.8,30.07-4.6,42.94-13.67,.8-.57,1.33-1.75,2.74-.9,1.46,.87,2.37,1.29,.4,2.85-9.14,7.24-19.68,11.19-30.93,13.55-6.44,1.35-12.89,2.81-19.56,2.21-.42-.04-.83-.14-1.32-.22Z"/><path class="cls-6" d="M530.57,824.19c6.83-3.78,13.74-3.75,20.91-.89-7.07,6.81-11.75,6.98-20.91,.89Z"/><path class="cls-1" d="M433,526.52c4.47,5.1,7.65,10.36,5.79,17.41-5.76-4.45-7.14-10.31-5.79-17.41Z"/><path class="cls-26" d="M506.39,213.7c-.59-4.46-1.16-8.92-1.79-13.37-.18-1.28,.03-2.3,1.12-3.13,1.59-1.2,2.61-1.26,3.22,1,1.09,4.05-.06,7.89-.85,11.77-.25,1.24-.67,2.44-1.01,3.65-.23,.03-.45,.05-.68,.08Z"/><path class="cls-7" d="M439.11,526.58c-5.42-4.15-1.7-7.95-.31-11.76,.84,3.77-.05,7.58,.31,11.76Z"/><path class="cls-5" d="M460.99,475.74c-4.55-.69-9.4,.21-13.85-1.85,4.75-.68,9.31,.2,13.85,1.85Z"/><path class="cls-19" d="M441.2,226.3c-1.72-2.09-3.2-4.33-4.29-6.83-.26-.6-.58-1.27,.34-1.57,.66-.21,1.03,.34,1.17,.84,.74,2.51,3.03,4.24,3.45,6.9,.22,.68-.07,.83-.68,.66Z"/><path class="cls-23" d="M502.41,189.86c.25-.26,.49-.52,.74-.78,.83,2.01,2.25,3.93,.81,6.37-.52-1.86-1.03-3.72-1.55-5.59Z"/><path class="cls-18" d="M505.7,478.38h-5.97v-.35h6.06c-.03,.12-.06,.23-.09,.35Z"/><path class="cls-42" d="M431.96,519.03c.42,.15,.84,.29,1.26,.44-.24,1.11-.49,2.22-.78,3.57-.78-1.42-.3-2.76-.48-4.01Z"/><path class="cls-38" d="M490.4,477.55c.9-.42,1.62-.48,2.3-.02,.05,.03-.13,.63-.32,.73-.73,.39-1.44,.4-1.98-.71Z"/><path class="cls-14" d="M432.58,200.4c-.74-.91-.76-1.94-.5-3.19,.99,.64,.72,1.74,1.18,2.47-.22,.24-.27,.65-.67,.73Z"/><path class="cls-16" d="M441.2,226.3c.23-.22,.45-.44,.68-.66,.64,.62,.97,1.37,.96,2.33-1.16-.02-1.24-.99-1.64-1.67Z"/><path class="cls-20" d="M550.06,489.09c.23,.2,.46,.41,.69,.61-.62,.74-1.3,1.35-2.43,1.16-.03-1.23,1.07-1.29,1.74-1.77Z"/><path class="cls-17" d="M432.58,200.4c.22-.24,.45-.48,.67-.73,.23,.75,.47,1.5,.72,2.29-1.21-.02-1.3-.79-1.39-1.57Z"/><path class="cls-45" d="M510.72,782.08c.27,.26,.54,.53,.81,.79-.28,.55-.57,1.09-.95,1.82-.52-1.14-.56-1.91,.14-2.61Z"/><path class="cls-3" d="M467.88,201.03c6.04-8.28,16.8-6.52,23.65-2.83,.81,.44,1.36,1.03,1.24,2.06-.15,1.21-1.07,1.63-2.03,1.77-3.51,.51-7.04,.85-10.55,1.36-2.02,.29-4,.9-6.02,1.14-1.73,.21-3.66,.92-5-1.02-.78-.65-1.64-1.26-1.3-2.49Z"/><path class="cls-31" d="M446.73,212.2c-1.04,.26-2.72-.65-3.3-2.01-.54-1.25,1-2.41,2.11-3.27,2.62-2.04,4.98-4.57,8.67-4.63,1.96-.03,3.87,.31,4.45,2.42,.54,1.95-.81,3.35-2.36,4.22-2.73,1.53-5.57,2.87-9.58,3.26Z"/><path class="cls-32" d="M479.64,206.91c3.04-2.02,6.3-1.98,9.57-.84,2.63,.91,3.21,3.44,1.05,5.18-3.46,2.77-7.58,4.21-12.03,3.85-3.44-.28-4.19-3.06-1.92-6.35,.66-.46,1.16-.3,1.52,.39-.46,1.92,.14,2.99,2.26,2.64,1.15-.19,2.39,.3,3.47-.44,1.01-.68,2.16-1.16,3.45-2.29-2.36-.03-2.39,2.28-3.89,2.58-1.74,.24-2.74-.41-2.71-2.27,.68-1.1-.98-1.49-.76-2.45Z"/><path class="cls-29" d="M452.19,220.44c-1.67-.01-3.24,.25-3.8-1.53-.52-1.65,.21-2.89,1.49-3.96,2.1-1.75,4.7-2.52,7.12-3.61,1.47-.66,2.75-.03,3.31,1.63,.88,2.6,.24,4.82-2.12,6.13-1.88,1.04-4.06,1.45-6,1.34Z"/><path class="cls-33" d="M470.79,241.33c2.83-5.33,7.95-7.17,13.13-5.1,1.4,.56,2.82,1.1,4.2,1.71,.86,.38,1.5,1.04,1.12,2.05-.42,1.09-1.55,1.01-2.2,.58-5.56-3.71-10.86-2.12-16.25,.76Z"/><path class="cls-41" d="M467.88,201.03c.39,.85,1.42,1.37,1.3,2.49-.69,.2-1.24,.48-2.01-.17-3.14-2.63-5.28-11.7-3.51-15.64,1.48,4.47,1.19,9.43,4.22,13.32Z"/><path class="cls-35" d="M456.84,188.62c4.63,7.62,5.55,12.48,2.58,16.31,1.92-6.44-2.15-10.99-2.58-16.31Z"/><path class="cls-39" d="M474.57,229.59q3.93-2.86,2.7-6.29c1.9,.34,3.6,.58,3.12,3.06-.5,2.58-2.86,3.87-5.82,3.23Z"/><path class="cls-36" d="M460.49,209.19c3.44,1.86,5.12,4.58,4.07,8.62-1.36-2.87-2.71-5.75-4.07-8.62Z"/><path class="cls-37" d="M465.35,230.71c2.01-.05,4.03,.01,6-.52,.53-.14,1.33-.7,1.7,.11,.42,.95-.54,1.23-1.12,1.67-2.15,1.59-4.08,.29-6.06-.42-.72,.05-.87-.24-.51-.84Z"/><path class="cls-44" d="M472.82,215.88c-1.37-2.72-1.95-5.17-1.23-8.04,1.52,2.35,1.88,4.62,1.23,8.04Z"/><path class="cls-34" d="M465.35,230.71c.17,.28,.34,.56,.51,.84-.12,1.35-.86,1.11-1.31,.34-1.03-1.75-1.1-3.53,.41-5.27,.98,1.4-.07,2.81,.39,4.09Z"/><path class="cls-40" d="M479.64,206.91c.43,.61,1.18,.33,1.69,.6,1.15,.6,.68,1.02-.26,1.27-1.17,.07-2.05,1.62-3.42,.67-.27-.58-.81-.62-1.34-.7,.95-.91,2.01-1.61,3.33-1.84Z"/><path class="cls-24" d="M477.65,209.45c1.25,.36,1.93-2.2,3.42-.67-.91,2.48,1.21,2.15,2.45,2.64l-.06-.07c-1.21,1.56-3.09,1.15-4.68,1.42-.7,.12-1.87-.4-2.26-1.01-.67-1.03,.39-1.7,1.13-2.32Z"/><path class="cls-13" d="M483.51,211.42c.85-2.43,1.63-4.99,5.15-2.37-1.52,1.37-3.03,2.53-5.21,2.3,0,0,.06,.07,.06,.07Z"/><path class="cls-25" d="M454.64,213.93c1.3-.54,2.72-1.51,3.97-.26,.74,.74,.68,1.95,.04,2.97-.51,.8-1.23,1.27-2.13,1.1-1.07-.2-.26-1.02-.33-1.54-.12-.86-.64-1.27-1.35-1.57-.21-.11-.31-.25-.3-.42,.01-.19,.05-.28,.11-.28Z"/><path class="cls-22" d="M452.95,215.95c-.91,.66,1.7,2.48-.84,2.58-.7,.03-1.79,.37-2-.51-.38-1.58,1.22-2.03,2.09-2.88,.6-.06,.87,.2,.75,.81Z"/><path class="cls-43" d="M452.95,215.95c-.25-.27-.5-.54-.75-.81,.52-.99,1.41-1.25,2.44-1.21,.06,.23,.13,.46,.19,.7-.63,.44-1.26,.88-1.89,1.32Z"/></svg>