<?xml version="1.0" encoding="UTF-8"?><svg id="Layer_1" xmlns="http://www.w3.org/2000/svg" viewBox="0 0 1000 1000"><defs><style>.cls-1{fill:#040403;}.cls-2{fill:#010101;}.cls-3{fill:#689682;}.cls-4{fill:#eeedec;}.cls-5{fill:#edecec;}.cls-6{fill:#fff;}.cls-7{fill:#ffd900;}.cls-8{fill:#fefefe;}.cls-9{fill:#fbfbfb;}.cls-10{fill:#faf9f9;}.cls-11{fill:#7dc6cd;}.cls-12{fill:#c1bfbf;}.cls-13{fill:#a19f9f;}.cls-14{fill:#bca790;}.cls-15{fill:#b2b1b1;}.cls-16{fill:#c22988;}.cls-17{fill:#cab39b;}.cls-18{fill:#d1d0d0;}.cls-19{fill:#c4ad96;}.cls-20{fill:#dac1a7;}.cls-21{fill:#d9c0a6;}.cls-22{fill:#d9c1a7;}.cls-23{fill:#d5d4d3;}.cls-24{fill:#24221f;}.cls-25{fill:#224a89;}.cls-26{fill:#0c0a08;}.cls-27{fill:#413a33;}.cls-28{fill:#110a0c;}.cls-29{fill:#36302a;}.cls-30{fill:#37312b;}.cls-31{fill:#453d36;}.cls-32{fill:#0e0c09;}.cls-33{fill:#9b9a9a;}.cls-34{fill:#9b9c9c;}.cls-35{fill:#a3907d;}.cls-36{fill:#2d2a28;}.cls-37{fill:#383838;}.cls-38{fill:#3b352e;}.cls-39{fill:#341126;}.cls-40{fill:#2e2924;}.cls-41{fill:#34322e;}.cls-42{fill:#5a5045;}.cls-43{fill:#584f45;}.cls-44{fill:#3c362f;}.cls-45{fill:#5e5349;}.cls-46{fill:#4e463d;}</style></defs><path class="cls-41" d="M784.11,364.25c-.22,.49-.43,.97-.65,1.46-1.11-1.4-1.12-3.21-1.78-4.77,.43-.2,.86-.4,1.29-.6,1.1,1.09,2.17,2.2,1.14,3.91Z"/><g><path class="cls-2" d="M488.52,614.36c-5.57,14.89-13.85,28.26-23.17,41.03-1.01,1.38-1.22,2.67-.96,4.45,.76,5.33-1.5,10.16-3.12,15.06-3.31,10.03-8.73,19.17-12.31,29.11-5.5,15.29-10.29,30.79-14.35,46.51-1.89,7.34-1.78,14.88-.58,22.44,2.41,15.33-.57,29.8-7.75,43.46-1.54,2.93-3.82,5.28-6.82,6.74-1.19,.58-1.47,1.23-1.45,2.43,.04,2.58,.18,5.16-.49,7.73-.5,1.91-.37,3.41,1.86,4.79,3.23,2,3.4,8.18,1.4,13.56-2.46,6.63-7.24,10.6-13.81,12.57-17.72,5.3-35.29,4.35-52.71-1.5-8.97-3.01-10.69-8.66-8.89-16.8,2.17-9.78,7.28-18.16,15.12-24.92-5.33-2.48-8.93-6.6-11.04-12.04-2.09-5.4-2.07-10.93-1-16.53,2.41-12.58,6.03-24.87,8.96-37.32,.34-1.46,.73-2.97,.72-4.45-.02-17.44,4.28-34.04,9.42-50.54,3.87-12.42,7.12-25.04,10.78-37.52,3.25-11.1,9.1-21.14,13.27-31.87,1.3-3.33,2.67-6.53,4.82-9.6,2.19-3.13,2.49-7.66,3.35-11.63,4.59-21.03,9.4-42,17.58-62,6.34-15.51,13.64-30.57,22.51-44.82,1.25-2.01,1.82-3.79,1.13-6.31-1.51-5.51,.5-8.12,6.38-9.23,2.59-1.1,5.32-1.36,8.09-1.45,2.13-.07,4.29,.25,6.37-.45,3.5-.24,6.98-.44,10.47,.32,1.17,.25,2.54,.41,3.73-.27,12.2-.46,24.23-2.48,36.29-4.17,15.4-2.16,30.35-6.55,45.62-9.32,3.64-.66,7.62-1.47,11.11,.75,4.2,2.67,4.37,6.22,.64,9.5-.65,.57-1.33,1.1-2.24,1.85,3.42,.43,4.27,2.79,4.71,5.51,1.91,11.7,5.59,23.06,6.69,34.9,.4,4.31,.78,8.49,2.98,12.4,.78,1.39,.8,3.36,.73,5.05-.49,11.35-.81,22.71-1.71,34.03-2.07,25.81-4.75,51.51-13.36,76.21-2.34,6.7-4.11,13.68-5.25,20.68-1.48,9.11-2.3,18.35-2.72,27.59-.86,19.03-1.87,38.06-2.19,57.12-.05,2.67-.28,5.38-.45,8.07-.19,2.83,2.39,4.46,2.71,7.13,.72,6.02,2.79,11.72,4.71,17.45,1.65,4.94,4.93,8.18,9.24,10.8,3.19,1.94,6.97,3.13,9.19,6.48,.42,.63,1.12,.57,1.78,.49,6.91-.79,13.85-.76,20.79-.67,10.55,.15,19.13,5.55,21.91,13.82,5.7,16.95-6.32,32.52-19.75,34.56-10.56,1.61-21.08,4.37-31.78,3.67-13.69-.9-27.32,.85-40.97,.11-8.06-.44-16.2-.39-23.98-3.1-5.43-1.89-7.82-5.11-7.87-10.85-.04-4.86-.24-9.73,.99-14.5,.35-1.35,.07-2.04-1.4-2.61-2.91-1.13-5.7-2.58-8.52-3.95-4.7-2.28-7.57-6.04-7.39-11.26,.17-4.88,.72-9.88,4.15-13.87,.5-.58,.42-1.19,.41-1.82-.2-13.11,1.66-26.17,.94-39.28-.51-9.25-1.02-18.5-2.16-27.72-.57-4.6-.72-9.28-.79-13.92-.12-7.77-.33-15.51,.54-23.31,.5-4.56-1.3-9.32-1.67-14.07-.85-10.7-1.31-21.39-.99-32.12,.24-8.1,.83-16.17,1.54-24.24,.17-1.92,.43-3.84,.65-5.75,.83-1.24-.09-2.57,.21-3.83-.02-.23,.3-.42,.22-.57-.1-.17-.25-.04-.19,.24-.19,.57-.38,1.14-.85,1.55Z"/><path class="cls-2" d="M438.93,486.02c-2.76-.34-5.55-.45-8.25-1.34-4.73-1.56-6.11-2.89-6.07-7.9,.08-9.75-.63-19.51,.41-29.24,.33-3.1-1.87-4.4-4.2-5.31-13.8-5.42-27.18-11.68-39.88-19.34-11.62-7-22.64-14.82-31.97-24.76-3.89-4.14-6.13-8.82-6.24-14.95-.07-3.91,1.83-6.63,2.82-9.84,2.42-7.83,5.69-15.36,9.23-22.75,.79-1.65,.98-3.27,1.14-4.94,.75-7.63,5.06-13.7,8.78-19.99,7.32-12.39,15.59-24.19,22.15-37.06,4.88-9.57,13.01-15.69,22.87-19.75,9.93-4.09,20.15-7.24,30.49-10.03,6.26-1.69,11.97-4.76,17.08-8.33,4.45-3.11,6.72-8.64,8.36-14.01,.17-.54,.07-1.08-.36-1.5-4.25-4.15-4.53-9.62-4.9-15.01-.15-2.16-.33-4.29-.7-6.42-.5-1.33,.02-2.74-.35-4.08-.5-1.24-.81-2.54-1.12-3.84-.22-1.45-.45-2.89-.69-3.74,.21,.59,.29,1.82,.57,3,.1,.41,.07,.85,.24,1.26,.19,1.31,.71,2.52,1.09,3.77-.07,.98,.3,2.01-.28,2.94-2.51-3.31-3.68-7.07-3.81-11.19-.04-1.18,.11-2.32,1.11-3.14,2.57-1.32,1.67-3.72,1.81-5.8,.34-5.39,1.84-10.51,4.14-15.31,2.41-5.01,6.71-8.34,11.82-10.19,5.08-1.84,10.19-3.71,15.67-4.26,3.15-.32,6.13-1.42,8.76-3.29,.53-.38,1.08-.73,1.68-1,1.03-.48,2.15-.82,3.04,.07,.98,.98,.25,2.01-.28,2.95-.31,.56-.94,.9-1.09,1.9,4.58,.68,9.6-.82,13.71,2.36,6.81,3.16,8.51,8.91,9.04,15.91,.42,5.48-.11,11.02,1.12,16.47,.62,2.74-.7,5.54-.9,8.35-.13,1.87-.24,3.68,1.07,5.19,.6,.7,.83,1.53,.1,1.96-3.75,2.25-3.27,6.37-4.16,9.72-1.52,5.72-2.98,11.1-8.22,14.88-2.06,1.49-3.61,3.96-5.54,5.85-.7,.69-.83,1.43-.68,2.35,.34,2.23,1.07,4.39,.91,6.7-.07,1.06,1.09,.82,1.66,1.23,4.06,2.55,8.68,3.68,13.18,5.02,8.22,2.46,16.6,4.15,25.28,3.5,10.52-.79,18.1,3.98,23.55,12.64,4.85,7.72,9.3,15.6,12.36,24.28,3.21,9.09,8.24,17.42,11.8,26.41,1.41,3.57,1.89,7.26,2.68,11.24,8.46-7.56,13.64-18.39,24.8-22.52-3.74-7.28-3.58-14.99-3.76-23.16-2.04,1.56-3.43,3.36-5.41,4.43-2.45,1.33-3.93,.55-4.87-1.79-.86-2.14-1.27-4.45-.92-6.7,.87-5.68,2.29-11.26,4.56-16.55,1.8-4.2,3.56-5.16,7.94-4.28,4.01,.8,7.99,1.89,11.86,3.22,1.38,.48,1.41-.25,1.84-.88,1.82-2.69,3.5-5.5,5.49-8.06,2.7-3.47,6.1-5.87,10.81-5.58,4.67,.29,6.93,3.54,5.67,8-1.1,3.87-3.36,7.02-5.96,9.96-1.15,1.3-1.75,2.01,.16,3.44,3.78,2.83,3.97,7.34,4.11,11.54,.31,9.1,.22,18.19-1.66,27.18-1.37,6.54-3.4,8.85-9.94,9.64-1.93,.23-1.89,1.32-2.15,2.48-1.06,4.87-.31,9.88-1.48,14.79-3.01,12.59-7.96,24.44-13.24,36.19-3.47,7.72-7.2,15.29-12.43,22.02-.26,.33-.6,.79-.55,1.14,.98,6.7-3.56,10.96-6.97,15.68-1.27,1.75-2.98,2.32-5.38,1.72-9.74-2.42-16.91-8.6-23.34-15.74-6.45-7.15-12.43-14.71-16.93-23.61-1.18,1.07-2.5,2.06-3.93,1.92-3.74-.37-3.2,1.94-2.96,4.22,2.53,24.27,7.46,48.1,13.4,71.74,.86,3.44,.99,5.73-2.63,8.1-4.85,3.17-10.13,4.34-15.5,5.29-22.48,3.99-45,7.76-67.51,11.6-3.5,.6-7.01,1.07-10.52,1.61-1.02,.76-2.1,.72-3.22,.24-1.22-1.81-1.65-3.71-.63-5.76,.63-.87,1.57-1.09,2.56-1.19,23.99-2.58,47.65-7.12,71.25-12,6.69-1.38,13.31-3.15,19.83-5.28,2.2-.72,2.51-1.71,1.86-3.82-5.96-19.44-10.33-39.25-13.44-59.33-.18-1.19-.22-2.38-.23-3.57,0-.92-.17-1.72-1.18-2.09-2.11-.77-2.53-2.59-2.56-4.49-.11-8.24-.38-16.44,.68-24.69,1.31-10.26,3.71-20.27,5.8-30.36,.35-1.7,.71-3.41,1.41-5.01,.43-.98,.89-2.15,2.28-1.88,1.27,.25,1.62,1.37,1.72,2.48,.2,2.27,.3,4.57-.09,6.82-.79,4.49-1.02,9.03-1.73,14.16,4.3-5.85,8.64-10.9,14-14.99,2.62-2,5.41-3.64,8.45-4.85,4.01-1.6,8.1-2.71,12.21,.12,.49-1.19-.2-1.84-.56-2.53-5.35-10.06-10.88-20-14.92-30.73-2.8-7.44-7.31-14.04-11.76-20.6-.77-1.13-1.84-1.8-3.13-2.2-3.86-1.2-7.77-2.11-11.83-2-8.31,.23-16.48-.61-24.46-2.99-2.38-.71-4.51-.38-6.88,.7-7.77,3.54-16.08,5.3-24.54,6.11-14.1,1.36-26.95-2.08-38.06-11.03-2.64-2.13-4.91-2.27-8.03-1.25-9.9,3.24-20.1,5.61-29.93,9.01-10.12,3.5-18.37,10.03-23.65,19.41-8.32,14.76-16.88,29.36-26.67,43.2-.61,.86-1.79,1.7-1.34,2.8,.49,1.19,1.92,.6,2.94,.73,4.72,.64,8.45,3.36,12.13,6,5.74,4.12,10.88,8.99,16.2,13.61,3.22,2.8,6.6,5.27,10.55,6.96,1.58,.68,2.45,.38,2.95-1.24,2.09-6.64,6-11.97,11.57-16.14,1.4-1.04,2.25-2.64,3.44-3.9,1.17-1.24,2.52-2.07,4.3-1.91,2.13,.18,3.38,1.6,2.56,3.54-2.64,6.31-.91,12.64-.41,18.96,.1,1.29,.32,2.58,.35,3.89,.19,10.72,.45,21.45,.02,32.17-.07,1.7-.42,3.39-.51,5.65,2.01-1.32,3.6-2.39,5.15-3.51,5.98-4.3,12.52-5.12,19.53-3.31,.74,.19,1.48,.53,2.22,.52,6.7-.13,8.72,4.53,9.94,9.82,.49,2.1,1.53,3.4,3.31,4.51,5.13,3.23,5.99,5.82,2.35,10.68-5.61,7.47-8.68,15.89-11.15,24.72-1.86,6.66-4.14,7.75-11,6.96-6.54-.75-12.09-4.1-18.11-6.21-3.02-1.06-3.02-1.15-3.03,2.05-.02,5-.04,9.99,0,14.99,.03,2.73-.23,5.41-.78,8.08-.81,3.85-.76,3.86,2.93,5.26,1.04,.79,2.24,.57,3.42,.58,2.25,0,4.54-.36,6.67,.7,.84,.42,1.39,.02,2.04-.43,1.93-1.35,4.12-1.01,6.25-.79,1.5,.15,2.22,1.2,2.42,2.62,.17,1.28-.47,2.08-1.67,2.36-.99,.23-1.46,1.28-2.47,1.45-3.29-.48-6.62,.13-9.9-.46Z"/><path class="cls-1" d="M510.08,254.58c-1.29,.13-1.95-.28-2.09-1.75-.2-2.13-.62-4.25-1.09-6.34-.28-1.26,.15-1.95,1.11-2.73,3.17-2.59,5.66-5.87,8.62-8.7,4.23-4.03,4.12-9.99,5.72-15.17,.69-2.25,.16-5.09,3.22-6.1,.34-.11,.76-.65,.27-1.02-3.65-2.71-1.67-6.42-1.28-9.49,.82-6.38-.53-12.6-.62-18.9-.03-2.22-.06-4.51-.37-6.77-.73-5.26-3.78-8.73-8.33-11.09,3.25-1.1,5.14,1.07,6.81,3.13,3.43,4.23,3.37,9.49,3.77,14.55,.3,3.76-.35,7.58,.69,11.32-.21-7.46,1.55-14.89,.15-22.38-.46-2.47-1.67-4.45-3.2-6.3-1.87-2.27-3.99-4.35-6.49-5.89-4.96-3.04-7.47-7.81-8.14-13.14-.8-6.37-4.43-9.25-10.15-10.72,.52,.2-.13,.08,.01,.14,6.29,2.44,6.04,6.8,3.04,11.47-2.89,4.5-7.52,6.75-12.54,8.22-2.83,.83-5.78,.97-8.66,1.5-12.26,2.23-21.37,10.74-23.42,21.95-.55,3.02-.63,6.07,.19,9.04,.63,2.27,.75,4.6,1.04,7.57,.07-1.99-1.05-3.44,.69-4.49,.03,1.15,0,2.31,.12,3.45,.23,2.1-.67,2.91-2.71,2.6,.4-1.45,0-2.8-.58-4.1-3.59-8.15-1.95-15.81,1.23-23.81,4.73-11.9,14.03-16.71,25.72-18.43,5.24-.77,10.21-2.03,14.02-5.99,.78-.81,2.41-1.54,1.48-3.12-.56-.96-1.61-1.36-2.79-1.37-1.92-.02-1.85,1.45-2.13,2.68-.09,.41-.24,.8-.41,1.37-1.47-.75-1.52-2.08-1.85-3.25-.11-.7-.53-1.27-.82-1.89-.24-.7-.35-1.4,.09-2.07,2.14-5.11,7.38-7.47,12.73-5.72,4.9,1.6,9.28,7.03,9.37,12.15,.11,6.07,2.19,10.58,7.64,13.97,7.01,4.36,9.97,11.29,10.19,19.52,.11,4.02-.37,7.9-1.1,11.83-.52,2.82-.4,5.85-.1,8.73,.66,6.3-.13,11.95-4.46,17.1-1.65,1.96-1.76,5.25-2.44,7.96-1.16,4.62-1.96,9.41-5.88,12.7-1.57,1.32-2.73,3.3-4.34,4.19-5.76,3.19-3.1,8.09-3.02,12.47,0,.38,.69,.74,1.06,1.11Z"/><path class="cls-5" d="M438.93,486.02c3.48-.05,6.95-.1,10.43-.15,3.91-1.53,7.98-.59,11.98-.82,.46,.14,.59,.43,.4,.87-.4,.66-1.07,.65-1.72,.68-4.21,.18-8.43,.37-12.64,.55-2.67-1.45-5.8,.47-8.45-1.13Z"/><path class="cls-9" d="M461.74,485.92c.03-.15,.04-.3,.01-.46,1.99-1.66,4.25-1.22,6.51-.86,1.09,.03,2.18,.06,3.26,.09,1.38,1.17,3.02,.37,4.52,.6-4.74,.83-9.52,.77-14.31,.63Z"/><path class="cls-37" d="M490.4,138.56c.17,.7-.17,1.59,.72,2.04,.26,.8-.21,1.38-.61,1.98-.45,.97-1.1,.77-1.07-.08,.05-1.33-.04-2.8,.96-3.94Z"/><path class="cls-12" d="M488.52,614.36c-.17-.81,.38-1.35,.74-1.97,.14,0,.28-.02,.42-.03,.27,1.59,.21,3.13-.55,4.6-.34-.84,.18-1.87-.61-2.6Z"/><path class="cls-14" d="M459.15,212.87c-.03-1.04-.05-2.07-.08-3.11-.34-.7,.04-.79,.61-.72,0,1.51,0,3.01,.01,4.52-.18-.23-.36-.46-.54-.69Z"/><path class="cls-33" d="M490.51,142.59c.2-.66,.41-1.32,.61-1.98,1.04,.64,.8,1.28,0,1.93-.21,.02-.41,.04-.62,.05Z"/><path class="cls-25" d="M491.04,696.12c2.49,1.92,2.86,.59,2.74-1.49-.3-5.39-1.44-10.67-1.71-16.1-.35-7.12-.87-14.24-.96-21.38-.17-13.44,.14-26.87,1.4-40.25,1.11-11.74,3.2-23.3,7.89-34.28,2.72-6.37,4.48-13.11,5.99-19.87,1.07-4.83,.56-9.71-.97-14.43-.3-.92-.83-1.87-2.07-1.7-1.35,.18-1.36,1.35-1.28,2.26,1.16,12.78-3.51,24.32-7.72,35.91-5.63,15.48-10.81,31.16-18.38,45.84-3.82,7.41-8.45,14.39-12.54,21.67-2.01,3.58-4.2,6.93-3.23,11.77,.6,2.96-1.31,6.46-2.2,9.69-2.73,9.97-7.33,19.18-11.6,28.54-7.3,16.01-12.22,32.85-16.28,49.94-1.83,7.71-1.02,15.56,.17,23.22,2.2,14.29-1.51,27.27-7.81,39.72-3.18,6.28-7.83,6.46-12.19,1.06-2.31-2.86-4.42-6-7.67-7.88-5.18-3.01-10.8-3.25-16.67-2.67-3.83,.38-7.48,1.12-11.07,2.34-2.8,.96-5.25,2.45-7.34,4.65-4.22,4.43-5.94,4.43-10.1,.11-4.36-4.53-5.69-9.98-4.86-16.14,1.94-14.42,7.18-28.08,9.67-42.35,.76-4.38,1.78-9.13-.98-13.53-.53-.84,.15-2.49,.36-3.75,1.89-11.47,5.61-22.42,9.48-33.34,4.81-13.57,7.9-27.66,12.27-41.37,3.1-9.73,7.72-18.84,11.99-28.07,7.04-15.21,10.19-31.49,14.13-47.57,4.7-19.19,11.19-37.73,19.58-55.64,4.46-9.53,9.14-18.94,13.89-28.32,.69-1.36,1.3-1.78,2.95-1.59,8.64,.99,17.3,.74,25.95-.05,8.51-.78,17.03-1.37,25.53-2.2,22.6-2.2,45.28-4.03,66.55-12.99,1.86-.78,2.25-.15,2.54,1.44,2.43,13.32,6.54,26.29,8.81,39.62,1.89,11.09,2.41,22.34,1.36,33.71-.92,9.9-1.55,19.84-2.29,29.77-1.37,18.5-4.33,36.7-9.41,54.57-2.95,10.39-5.16,20.95-6.6,31.7-.47,3.5-2.47,7.08-2.77,10.81-.62,7.88-.7,15.81-1.4,23.68-1.39,15.7-1.08,31.42-1.28,47.14-.15,11.56,2.03,22.7,6.34,33.39,1.56,3.88,.11,7.04-1.44,10.37-2.02,4.34-4.55,7.62-10.03,7.63-6.93,.02-12.58,3.51-18.03,7.44-4.47,3.23-8.92,6.63-14.65,7.39-8.57,1.13-16.06-1.54-22.56-6.94-3.35-2.78-2.63-6.8-2.14-10.57,.18-1.39,.39-2.78,.63-4.16,.14-.84-.08-1.51,1.43-1.85,2.17-.48,1.6-3.14,1.72-4.73,.9-12.09,1.97-24.2,1.35-36.33-.56-11.1-1.73-22.16-2.85-33.22-1.01-9.99-2.17-20.01-1.65-30.64Z"/><path class="cls-11" d="M506.6,836.48c0-2.06-.74-4.59,.19-6.05,1.07-1.68,3.69-.23,5.63-.26,5.88-.09,10.84-2.47,15.66-5.56,4.97-3.18,9.4-7.4,15.52-8.56,.98-.19,2.01-.53,2.87-.2,6.45,2.54,13.47,3.1,19.83,6.01,12.03,5.51,24.58,5.31,37.21,2.66,5.02-1.05,10.35-1.47,14.42-5.21,1.13-1.04,1.62,.1,2,.66,2.93,4.36,3.6,9.18,2.71,14.28-.17,.97-.52,1.6-1.68,1.45-6.97-.93-13.75,.66-20.51,1.85-14.59,2.57-29.15,5.51-44.07,4.76-8.62-.43-17.15-2.3-25.84-1.79-6.79,.39-13.58,.76-20.25,2.18-3.75,.79-3.75,.81-3.76-2.97,0-1.09,0-2.17,0-3.26,.03,0,.05,0,.08,0Z"/><path class="cls-6" d="M351.98,839.61c.95,4.49,3.91,6.24,8.06,6.76,13.77,1.75,27.3,1.6,40.36-3.96,4.28-1.82,8.8-1.97,13.3-.74,2.65,.72,3.65,2.16,3.17,5.27-1.29,8.42-7.35,11.17-14.38,12.78-7.13,1.63-14.37,3.11-21.72,2.67-8.15-.48-16.29-1.41-24.09-4.13-7.04-2.46-8.71-5.34-7.01-12.47,.48-2.03,.56-4.28,2.3-6.18Z"/><path class="cls-11" d="M454.37,498.32c-2.39,0-4.79-.14-7.17,.04-2.1,.16-3-.7-3.05-2.67-.05-1.86-.35-3.72,2.51-3.92,8.18-.59,16.35-1.38,24.53-2.02,13.55-1.06,27-2.81,40.45-4.75,15.51-2.24,30.63-6.37,46.01-9.24,2.53-.47,5.19-.34,7.79-.31,1.86,.02,3.12,1.35,3.48,2.95,.35,1.58-1.5,1.53-2.45,1.98-12.04,5.68-24.82,8.87-37.92,10.83-16.14,2.41-32.41,3.64-48.63,5.31-8.5,.87-16.98,1.8-25.54,1.8Z"/><path class="cls-11" d="M352.27,837.83c1.97-4.99,4.84-9.44,8.25-13.5,2.41-2.87,6.13-4.2,8.74-6.94,1-1.05,1.83,.3,2.36,.9,2.16,2.47,3.64,5.35,4.6,8.49,1.34,4.41,3.14,5.47,7.69,4.91,2.46-.3,5.03-.68,7.44-.33,4.51,.66,6.91-1.79,8.8-5.18,1.42-2.55,2.4-5.31,3.88-7.85,.98-1.69,1.38-1.34,2.4-.11,2.01,2.42,4.14,4.79,7.5,5.34,.84,.14,1.04,.57,1,1.33-.06,.97,0,1.96-.08,2.93-.21,2.26,.15,4.89-.91,6.66-1.31,2.21-4.05,.36-6.12,.38-5.93,.06-11.01,3-16.54,4.34-12.04,2.93-24.06,3.79-36-.6-.95-.35-1.96-.51-3-.77Z"/><path class="cls-6" d="M507.87,848.58c9.98-1.9,19.62-3.07,29.34-2.74,6.45,.22,12.86,1.49,19.31,1.72,16.13,.56,31.75-2.76,47.3-6.65,5.7-1.43,11.46-2.76,17.75-3.29-3.34,7.86-9.2,11.42-16.86,12.6-12.6,1.95-25.12,3.9-38.01,3.27-10.79-.53-21.65,.62-32.48,.56-6.66-.04-13.38-.34-19.92-1.91-2.28-.55-4.64-1-6.42-3.55Z"/><path class="cls-8" d="M371.57,814.77c4.66-3.49,9.66-5.5,15.13-6.43,.1-.02,.26-.13,.29-.1,3.61,3.59,8.82,2.04,12.93,3.99,1.5,.71,2.02,1.28,.78,3.04-1.85,2.62-3.17,5.63-4.59,8.53-.58,1.19-1.24,2.01-2.65,1.92-2.49-.16-4.96,.05-7.42,.44-3.4,.54-5.77-.19-7.19-3.95-1.2-3.18-3.64-5.86-7.28-7.43Z"/><path class="cls-8" d="M554.06,814.74c3.94-.34,7.72-.78,11.78,.21,4.8,1.17,9.86-.46,14.8-.7,9.37-.45,18.73-2.07,28.12-.5,2.6,.43,5.21,1,7.76,3.14-6.73,.12-12.46,2.51-18.5,3.38-10.92,1.57-21.54,.59-31.97-2.93-3.89-1.31-7.94-1.93-12.01-2.59Z"/><path class="cls-15" d="M489.68,612.37l-.21,.03h-.21c.09-.64,.11-1.32,.77-1.67,.05-.03,.31,.19,.35,.33,.17,.64-.26,.98-.7,1.31Z"/><path class="cls-3" d="M431.76,480.72c-4.24-.88-4.16-.87-3.39-5.74,1.2-7.64,1.09-15.32,.7-23.02-.08-1.51-.01-3.03-.01-4.88,3.28,1.32,6.41,2.38,9.37,3.8,4.53,2.17,9.26,3.58,14.21,4.34,4.57,.7,6.69-.35,8.09-4.87,1.83-5.89,3.77-11.71,6.06-17.45,1.41-3.55,3.85-6.13,5.86-9.13,3.33-4.99,2.68-7.31-2.72-9.97-1.78-.88-2.99-1.69-2.87-4.05,.14-2.63-2.57-4.5-2.45-7.39,.04-.95-1.78-1.41-2.95-1.66-2.32-.5-4.71-.73-6.99-1.38-8.26-2.37-15.07,.66-21.45,5.52-.86,.66-1.78,1.24-2.68,1.84-.07,.05-.2,.02-.54,.03-.38-1.32,.18-2.62,.18-3.92,0-7.36,1.07-14.68,.56-22.06-.44-6.36-.09-12.77-.91-19.13-.48-3.75-.7-7.54-.56-11.34,.06-1.63,.04-3.2,.92-4.71,.54-.93,1.62-2.17,.21-3.16-1.37-.97-3.09-.88-4.19,.33-6.49,7.11-14.96,12.84-16.66,23.37-.03,.18-.23,.33-.31,.44-8.88-2.9-15.04-9.63-21.9-15.37-2.91-2.43-5.75-4.96-8.81-7.19-4.59-3.35-9.4-6.31-15.8-5.33,.35-2.12,1.63-3.36,2.57-4.7,9.66-13.79,18.63-27.99,26.34-42.97,2.08-4.04,5-7.37,8.43-10.23,6.36-5.29,13.07-9.7,21.43-11.64,9.26-2.16,18.28-5.3,27.39-8.09,1.44-.44,2.48-.63,3.8,.54,8.93,7.88,19.4,12.13,31.31,12.63,12.09,.51,23.63-1.78,34.46-7.27,1.09-.55,1.95-.54,3.07-.2,9.1,2.73,18.4,3.97,27.92,3.57,4.18-.18,8.13,1.11,12.07,2.32,1,.31,1.66,.94,2.22,1.79,5.37,8.17,10.7,16.36,13.92,25.69,3.1,8.99,8.51,16.84,12.56,25.36,.78,1.64,1.69,3.23,2.5,4.76-.57,.6-.97,.42-1.35,.22-8.11-4.46-14.55-.36-20.81,4.17-5.5,3.99-9.81,9.16-13.78,14.62-.44,.6-.95,1.15-1.48,1.68-.1,.1-.4,.02-.75,.02,.9-6.84,1.94-13.64,2.29-20.52,.02-.43,.14-.87,.1-1.29-.11-1.12,.36-2.78-1.15-2.99-1.34-.19-1.37,1.44-1.62,2.43-4.73,18.72-8.58,37.56-7.75,57.04,.05,1.07,.19,2.15,.36,3.21,.42,2.6,.98,2.92,3.34,2.08,1.39,15.4,4.46,30.54,8.3,45.52,1.91,7.45,3.99,14.86,6.24,22.22,.7,2.29-.73,2.2-1.97,2.61-14.4,4.88-29.34,7.5-44.2,10.34-16.34,3.13-32.77,5.84-49.35,7.54-.3,.03-.58,.26-.86,.39-5.17,1.97-10.5,1.9-15.88,1.26-2.86-.34-5.63-.11-8.52,.25-3.93,.49-8.08,.48-12.1-.25Z"/><path class="cls-20" d="M435.82,415.47c-1.34-2.66-4.16-3.38-5.82-5.56,5.53-2.02,10.06-6.03,16.01-7,3.99-.65,7.59,1.11,11.4,1.43,2.98,.25,5.11,1.35,6.17,4.27,.32,.88,1.34,1.72,.65,2.65-.68,.91-1.57-.15-2.36-.26-2.66-.4-5.28-1.05-7.94-1.44-1.19-.17-2.53-.36-3.9,.69,2.92,1.83,6.07,2.16,8.94,3.24,3.24,1.21,6.49,2.37,9.55,4.04,1.62,.89,1.99,1.73,1.08,3.57-4.44,9.09-10.2,17.62-12.11,27.81-.42,2.23-1.82,2.96-4.04,2.6-2.89-.48-5.7-1.12-8.34-2.43-6.68-3.31-13.18-7.18-20.3-9.32-17.66-5.3-33.18-14.81-48.7-24.21-9.88-5.98-19.29-12.86-26.75-21.91-4.03-4.89-5.59-10.12-2.61-16.44,4.37-9.28,7.82-19,12.63-28.1,.25-.48,.67-1.03,.6-1.48-.61-4.19,2.53-3.19,4.42-2.86,6.61,1.15,12,5.06,16.82,9.28,4.22,3.7,9.14,7.05,11.34,12.71,.69,1.77,.94,3.53,.9,5.4-.04,1.93-1.89,2.52-2.74,3.84-1.51,2.35-2.52,.05-3.52-.52-2.19-1.25-4.51-2.04-6.94-2.61-1.1-.26-2.01,.25-2.47,1.12-.47,.88,.5,1.38,1.09,1.7,14.28,7.83,24.85,20.49,38.31,29.39,4.97,3.29,9.95,6.54,15.17,9.4,.92,.51,1.82,1.19,3.46,.99Z"/><path class="cls-20" d="M603.44,413.93c-3.01-.31-5.42-1.59-7.76-2.94-10.29-5.94-17.63-14.86-24.39-24.35-4.87-6.83-8.41-14.37-11.82-21.99-.66-1.48-.48-2.58,.32-3.89,3.92-6.38,8.14-12.47,13.6-17.71,3.38-3.24,7.37-5.24,11.49-7.16,1.53-.71,2.76-.21,3.72,.96,1.57,1.93,2.94,4.02,4.58,5.88,1.07,1.21-.01,1.71-.48,2.41-2.05,3.05-4.13,6.09-6.21,9.12-.77,1.12-1.63,2.61-.52,3.5,1.01,.82,2.15-.61,2.92-1.41,5.33-5.55,10.54-11.22,15.91-16.73,5.83-5.97,11.44-12.13,16.6-18.69,2.72-3.46,3.92-3.64,7.84-1.72,1.94,.95,3.9,1.97,5.96,2.58,2.79,.83,2.56,2.94,2.24,4.87-4.29,25.87-15.07,49.33-27.3,72.19-2.12,3.97-2.05,8.21-3.13,12.29-.57,2.17-2.08,2.5-3.56,2.78Z"/><path class="cls-20" d="M522.14,187.66c-.07,8.43,.48,16.9-1.14,25.23-1.12,5.73-2.65,11.38-4.12,17.03-.46,1.77-1.35,3.32-2.86,4.61-3.79,3.23-7.36,6.72-11.12,9.98-3.9,3.38-15.62,2.68-19.46-1.15-2.95-2.94-6.18-5.63-9.94-7.24-6.57-2.8-9.48-7.47-9.91-14.51-.45-7.42-2.68-14.71-2.38-22.18,.24-6.01,.96-12.01,3.12-17.79,1.52-4.05,5.09-5.67,8.18-7.8,5.23-3.59,11.03-5.95,17.42-6.7,1.6-.19,3.16-.7,4.74-1.03,.72-.15,1.53-.71,2.17-.08,2.33,2.28,5.24,1.92,8,1.67,4.64-.42,8.66,1.18,12.63,3.2,3.61,1.83,3.57,5.44,4.07,8.67,.42,2.66,.41,5.39,.59,8.09Z"/><path class="cls-7" d="M459.03,192.49c-1.12,1.29-.17,2.95-.77,4.42-2.88-10.31-3.18-15.06-1.05-20.68,3.81-10.06,11.35-15.82,21.56-18.33,2.61-.64,5.32-.92,7.98-1.39,4.69-.82,8.92-2.54,12.36-6,5.92-5.96,5.28-10.01-2.22-13.53,5.63-1.33,11.82,3.02,12.44,8.66,.68,6.19,2.84,11.49,8.52,14.94,2.1,1.27,3.92,3.08,5.66,4.84,5.38,5.44,4.81,12.49,4.48,19.19-.19,3.76-.77,7.5-.39,11.29,.06,.6,.8,1.6-.45,1.87-1.13,.25-.89-1.01-1.4-1.47-1.04-.94-.67-2.23-.66-3.38,.05-5.74-.14-11.44-1.17-17.13-.92-5.08-3.69-8.14-8.69-9.26-4.8-3.1-10.26-1.35-15.44-2.01-.04-1.42,1.33-1.64,1.87-2.48,.64-.99,2.55-1.8,1.5-3.08-.85-1.04-2.2,.19-3.12,.88-2.75,2.07-5.84,3.49-9.21,3.81-5.34,.51-10.34,2.32-15.32,3.96-6.28,2.07-11.26,6.08-13.46,12.65-1.34,3.98-2.71,7.98-3.02,12.23Z"/><path class="cls-6" d="M426,350.56c-1.62,9.23-.38,18.22,.21,27.24,.4,6.16,.25,12.38-.03,18.55-.11,2.55,.08,4.89,.85,7.29,.35,1.1,.54,2.56-.56,3.33-1.16,.82-1.88-.6-2.63-1.15-8.17-6.04-15.77-12.79-23.47-19.4-.96-.83-1.93-1.65-3.42-2.91,7.34,2.06,10.5-2.24,13.27-7.26,1.42-2.57,2.36-5.32,3.19-8.12,2.16-7.32,7.37-12.42,12.59-17.57Z"/><path class="cls-22" d="M648.77,311.42c-.18,2.16-.35,4.32-.53,6.47-.21,2.48-2.52,2.65-4.37,4.4,.12-3.83-2.29-4.5-4.64-5.27-3.97-1.3-7.98-2.53-11.76-6.02,3.43,.59,6.03,1.09,8.65,1.46,1.05,.15,2.56,.21,2.71-1.09,.17-1.43-1.47-1.34-2.41-1.49-2.47-.38-4.92-.82-7.25-1.75-1.28-.51-2.98-.99-2.35-2.88,.56-1.66,2.08-1.09,3.36-.91,2.78,.39,5.57,.8,8.36,1.07,.99,.09,2.6,.45,2.68-.99,.08-1.52-1.61-1.56-2.74-1.63-3.14-.19-6.24-.64-9.3-1.35-.84-.2-1.71-.42-2.45-.84-1.16-.66-1.52-1.9-1.3-3.1,.2-1.08,1.22-1.44,2.28-1.42,2.92,.06,5.83,.16,8.75,.22,1.82,.04,3.55-.21,5.49-1.71-3.18-.93-5.86-.37-8.49-.52-1.73-.1-3.45-.05-5.18-.32-1.97-.31-3.16-.76-3.03-3.16,.14-2.46,1.59-2.78,3.45-2.82,2.5-.06,4.99-.05,7.49-.1,2.94-.06,5.26-1.1,6.38-4.07,.76-2.02,2.78-2.95,4.08-4.52,.59-.71,1.2-.3,1.43,.43,.39,1.24,.96,2.51,.94,3.77-.11,7.81,1.11,15.59,.44,23.41,.18,2.68-1.94,3.61-4.01,4.78,1.34,.44,2.29-1.31,3.33-.05Z"/><path class="cls-22" d="M463.4,252.11c3.6-4.01,5.12-8.89,5.68-14.34,4.6,2.23,8.58,5.01,12.12,8.37,4.13,3.91,9.11,4.62,14.43,4.16,2.26-.2,4.52-.49,6.73-.95,2.85-.58,2.26,2.03,3.07,3.23,1.08,1.6-.67,1.68-1.51,2.05-13.82,6.17-27.19,4.5-40.53-2.51Z"/><path class="cls-10" d="M456.84,257.79c2.08-1.48,3.93-.09,5.77,.53,5.82,1.97,11.47,4.44,17.59,5.46,8.45,1.4,16.75,.44,24.34-3.22,3.78-1.82,5.66-1.04,7.72,1.92-19.21,8.27-37.66,6.81-55.42-4.69Z"/><path class="cls-21" d="M631.33,280.12c4.06-4.9,7.28-10.46,11.74-15.06,1.9-1.96,3.88-3.79,6.8-3.98,1.83-.12,2.74,.34,1.7,2.41-1.32,2.64-3.08,4.94-4.96,7.18-2.5,2.99-5.05,6-5.67,10.02-.2,1.32-.89,1.18-1.77,1.2-2.72,.06-5.34,.71-7.94,1.43-.65,.4-1.3,.37-1.52-.41-.39-1.4,.6-2.13,1.61-2.79Z"/><path class="cls-21" d="M620.2,285.42c-1.8,1.51-3.6,3.01-5.49,4.59-.97-1.02-.66-1.98-.41-2.85,1.1-3.96,2.3-7.89,3.37-11.86,.46-1.7,1.46-2.22,3.11-1.98,3.19,.46,6.35,1.06,9.59,.03,1.52-.48,2.25,.39,1.53,2.02-.48,1.08-.91,2.19-1.37,3.29-.2,.24-.36,.51-.49,.79-.42,3.61-1.67,5.23-6.51,5.47-1.1,.05-2.37-.58-3.33,.5Z"/><path class="cls-2" d="M431.76,480.72c12.19,.2,24.34-.76,36.5-1.26-1.03,1.71,.45,3.43,0,5.15-2.03,1.35-4.38,.25-6.51,.86-4.13,.14-8.26,.27-12.4,.41,.11-.95,.44-1.78,1.56-1.66,.92,.1,1.67-.06,1.44-1.08-.22-.96-.26-2.46-1.75-2.33-2.14,.19-4.6-1.09-6.33,1.27-.22,.3-.9,.62-1.11,.49-3.32-2.02-6.93-.86-10.41-1.09-.34-.02-.66-.5-.99-.76Z"/><path class="cls-38" d="M648.77,311.42c-1.42-.02-2.27,1.16-3.48,1.6-.42,.15-.83,.32-1.16-.13-.31-.42-.19-.85,.13-1.16,.85-.82,1.81-2.34,2.6-2.26,2.43,.23,1.9-1.73,2.59-2.78,.17,1.63,.31,3.26-.68,4.73Z"/><path class="cls-21" d="M620.2,285.42c.75-1.4,2.13-.81,3.2-.87,3.04-.16,5.43-.95,5.82-4.5,.05-.46,.53-.87,.81-1.3,.84,1.89-.29,3.44-.86,5.09-2.84,1.36-5.89,1.51-8.96,1.57Z"/><path class="cls-42" d="M629.17,283.86c.29-1.7,.57-3.4,.86-5.09,.17-.04,.34-.07,.51-.1,.17,.54,.12,1.19,.8,1.45-.32,.62-.57,1.29-.98,1.85-.99,1.34,.13,1.2,.89,1.35-.54,.77-1.29,.74-2.08,.55Z"/><path class="cls-19" d="M457.94,206.35c-.27-1.74-1.31-3.41-.47-5.41,.92,1.5,1.05,3.07,1.15,4.64,.25,.67-.04,.87-.67,.78Z"/><path class="cls-35" d="M457.94,206.35c.22-.26,.45-.52,.67-.78,.35,1.16,.71,2.31,1.06,3.47-.2,.24-.41,.48-.61,.72-.76-1.01-1.1-2.16-1.12-3.41Z"/><path class="cls-17" d="M525.42,212.12c-.9-4.19-.25-7.45,.17-10.72,.1-.79,.3-1.64,1.22-1.59,1.08,.06,.81,1.08,.83,1.77,.1,3.41-.27,6.72-2.22,10.54Z"/><path class="cls-28" d="M494.76,242.38c-.75-.08-1.54-.04-2.25-.25-4.62-1.35-8.62-10.04-6.62-14.3,1.44-3.07,3.21-3.93,6.24-2.45,1.5,.73,2.2,.05,3.11-.64,1.62-1.24,3.22-1.62,5.04-.37,1.73,1.19,2.93,2.6,2.57,4.84-.54,3.34,.46,6.94-2.03,9.97-1.63,1.99-3.39,3.31-6.04,3.19Z"/><path class="cls-26" d="M471.36,197.08c-.72-.23-2.08,.6-2.35-.76-.25-1.25,.59-2.61,1.75-2.77,4.54-.61,8.14-3.37,12.24-4.98,3.1-1.22,5.7-.63,6.44,1.48,.8,2.3-1.33,5.25-4.45,5.66-4.48,.6-9,.91-13.63,1.36Z"/><path class="cls-32" d="M508.25,197.08c-1.99,.19-4.14-.02-6.24-.55-1.25-.32-2.17-1.08-2.17-2.47,0-1.4,.47-2.4,2.08-2.8,4.5-1.14,8.95-1.23,13.39,.14,.91,.28,2.08,.49,2.13,1.68,.05,1.24-.58,2.23-1.75,2.89-2.29,1.31-4.77,1.19-7.44,1.12Z"/><path class="cls-24" d="M475.93,210.24c-.63-.08-1.49-.11-2.32-.3-1.29-.29-2.58-.73-2.76-2.29-.18-1.61,.39-2.94,1.84-3.83,3.21-1.97,8.57-1.7,11.62,.63,1.92,1.47,1.17,2.82-.42,3.82-2.33,1.47-5.01,1.81-7.95,1.96Z"/><path class="cls-36" d="M509.57,202.46c.91,0,1.45-.04,1.99,0,1.83,.16,3.54,.82,3.94,2.73,.43,2.02-.85,3.43-2.6,4.33-3.83,1.98-8.28,.77-9.73-2.52-.99-2.25-.31-3.59,2.01-3.96,1.57-.26,3.11-1.01,4.39-.59Z"/><path class="cls-29" d="M490.45,210.87c-1.5-4.52-1.27-9.62-5.61-13.7,4.58,.68,6.04,4.63,5.61,13.7Z"/><path class="cls-27" d="M497.27,210.12c-.41-3.59-.16-7.06,1.86-10.2,.32,.06,.63,.11,.95,.17-.66,3.38-1.31,6.76-1.97,10.14-.28-.04-.56-.07-.84-.11Z"/><path class="cls-30" d="M469.91,226.59c-2.28-2.96-1.42-6.44-3.89-9.24,3.56,1.42,4.67,4.28,3.89,9.24Z"/><path class="cls-31" d="M493,221.73c-1.34-.53-2.17,.75-3.3,.93-1.33,.22-2.74,.27-3.56-.91-.7-1.01-.64-2.25,.76-3.45-.18,3.68,1.87,3.1,4.02,2.44,.68-.21,1.42-.7,2.13-.02,.25,.35,.23,.68-.04,1.01Z"/><path class="cls-45" d="M493,221.73c.01-.34,.02-.67,.04-1.01,1.16,.14,2.32,.24,3.47,.44,.77,.13,2.24-1.14,2.17,.56-.04,1.08-1.63,1.24-2.69,1.04-1.03-.2-2-.67-2.99-1.03Z"/><path class="cls-44" d="M501.06,221.55c-.71-1.95,.37-3.72-.94-5.22,2.98,1.44,3.1,2.12,.94,5.22Z"/><path class="cls-43" d="M519.54,214.71c-.64,1.63-1.28,3.27-1.94,4.97-1.34-2.1-1.06-3.04,1.94-4.97Z"/><path class="cls-40" d="M647.68,289.23c-.14,1.5-.22,3.01-.46,4.49-.1,.61-.53,1.35-1.31,1.1-.39-.13-.84-.8-.86-1.25-.09-2.54,.52-5.11-1.18-7.51-.53-.74,.96-1.56,1.74-1.95,1-.5,1.71,.27,1.81,1.22,.14,1.28,.03,2.59,.03,3.89h.21Z"/><path class="cls-46" d="M645.04,299.31c0-.65-.01-1.29,0-1.94,.02-.68,.25-1.36,.98-1.45,.8-.1,1.14,.56,1.17,1.24,.08,1.5,.12,3.01,.05,4.5-.03,.72-.16,1.69-1.16,1.64-.94-.05-1-.98-1.05-1.72-.05-.75-.01-1.51,0-2.26Z"/><path class="cls-2" d="M457.78,483.98c-.03,.98-.6,1.34-1.5,1.24-.82-.09-1.05-.7-1-1.41,.06-.8,.36-1.59,1.33-1.5,.92,.08,1.15,.85,1.17,1.67Z"/><path class="cls-16" d="M500.19,232.91c-.09,3.64-2.33,6.47-5.13,6.62-3.35,.18-6.38-2.55-6.74-6.08-.05-.54,0-1.09-.06-1.62-.59-4.63-.59-4.65,3.88-2.84,1.45,.59,2.48,0,3.52-.89,.78-.67,1.41-1.85,2.72-1.16,1.15,.61,1.61,1.54,1.43,2.94-.13,1.03,.25,2.12,.38,3.03Z"/><path class="cls-18" d="M477.25,208.75c1.7-3.17,3.37-4.64,6.36-2.65-1.42,2.06-3.78,1.62-6.36,2.65Z"/><path class="cls-13" d="M474.57,208.44c-1.32-.09-2.63,.22-2.51-1.49,.11-1.6,1.5-1.59,2.59-1.84,.94-.21,1.72-.04,1.51,1.26-.18,1.11-.02,2.52-1.6,2.06Z"/><path class="cls-23" d="M507.37,207.07c3.09,1.38,4.15,.64,4.13-3.07,1.25,.2,2.5,.53,2.59,1.9,.08,1.17-1.11,1.79-2.12,2.16-1.49,.55-3,1.32-4.64,.41-.35-.48-.33-.95,.03-1.41Z"/><path class="cls-4" d="M507.37,207.07c-.01,.47-.02,.94-.03,1.41-2.2-.26-3.05-1.28-1.94-3.42,.81-.17,1.84-.95,2.01,.7-.01,.44-.02,.87-.03,1.31Z"/><path class="cls-34" d="M507.4,205.76c-.45-.87-1.35-.45-2.01-.7,.8-.45,1.66-.89,2.48-.24,.31,.24-.08,.73-.47,.94Z"/><path class="cls-39" d="M491.71,231.39c1.99,1.02,4.47,.97,3.91,3.95-1.89-.45-3.43-1.28-3.91-3.95Z"/></g></svg>