<?xml version="1.0" encoding="UTF-8"?><svg id="Layer_1" xmlns="http://www.w3.org/2000/svg" viewBox="0 0 1000 1000"><defs><style>.cls-1{fill:#f7f7f6;}.cls-2{fill:#010101;}.cls-3{fill:#060504;}.cls-4{fill:#050403;}.cls-5{fill:#689682;}.cls-6{fill:#eaca1a;}.cls-7{fill:#fcfcfc;}.cls-8{fill:#e7e6e5;}.cls-9{fill:#fff;}.cls-10{fill:#ffd900;}.cls-11{fill:#f1f0f0;}.cls-12{fill:#fcfbfb;}.cls-13{fill:#e4e3e3;}.cls-14{fill:#fdfdfd;}.cls-15{fill:#7dc6cd;}.cls-16{fill:#b8a38c;}.cls-17{fill:#8a7c6f;}.cls-18{fill:#b6a18c;}.cls-19{fill:#b4a031;}.cls-20{fill:#cecdcd;}.cls-21{fill:#aa9682;}.cls-22{fill:#d8c0a6;}.cls-23{fill:#c3ad30;}.cls-24{fill:#cab22c;}.cls-25{fill:#c9b29a;}.cls-26{fill:#dbdada;}.cls-27{fill:#dac1a7;}.cls-28{fill:#d3bba2;}.cls-29{fill:#d9c1a7;}.cls-30{fill:#d9d8d7;}.cls-31{fill:#afaeae;}.cls-32{fill:#d7d6d6;}.cls-33{fill:#c7c5c5;}.cls-34{fill:#161514;}.cls-35{fill:#161412;}.cls-36{fill:#224a89;}.cls-37{fill:#141a18;}.cls-38{fill:#0f0e0d;}.cls-39{fill:#453d36;}.cls-40{fill:#454545;}.cls-41{fill:#1c3662;}.cls-42{fill:#707072;}.cls-43{fill:#a29f9d;}.cls-44{fill:#544b41;}.cls-45{fill:#2b2721;}.cls-46{fill:#3c362f;}.cls-47{fill:#4c433a;}.cls-48{fill:#50463d;}</style></defs><path class="cls-2" d="M459.34,173.91c5.12-4.38,11.35-4.93,17.69-5.15,5.36-.18,9.24-2.79,11.72-7.46,.91-1.71,1.5-3.55-1.04-4.55-2.22-.88-5.78,.08-6.35,1.78-.44,1.3,.21,3.62-2.14,3.12-1.95-.41-2.21-2.65-2.25-4.31-.18-7.19,5.82-13.44,13.14-13.91,8.88-.56,16.61,6.55,16.91,15.52,.14,4.03,1.42,7.25,4.72,10.17,8.88,7.87,15.04,17.36,14.83,29.85-.02,1.39-.37,2.77-.51,4.16-.53,5.44-2.37,10.68-.21,16.41,1.37,3.65-.54,7.68-2.96,10.94-.68,.91-1.18,1.74-1.15,2.92,.22,7.64-2.54,14.21-7.48,19.88-1.48,1.71-1.75,2.29,.33,4.11,3.23,2.83,6.77,5.1,10.4,7.17,5.51,3.13,10.92,6.48,16.7,9.15,5.91,2.73,11.81,5.48,17.59,8.45,7.72,3.97,16.24,5.28,24.4,7.78,13.12,4.02,23.9,11.93,30.59,23.41,6.47,11.1,12.19,22.89,16,35.41,2.19,7.19,5.32,14.1,7.67,21.25,1.15,3.49,2.87,7.08,1.44,10.99-.1,.28-.11,.71,.03,.96,4.11,7.57,.32,14.76-1.53,21.79-3.8,14.4-10.72,27.71-15.64,41.74-3.63,10.36-7.04,20.79-9.83,31.42-1.04,3.97-3.29,7.41-6.89,9.03-6.5,2.92-10.22,8.94-15.73,12.83-3.13,2.21-2.83,4.27-1.81,7.26,5.53,16.26,12.78,31.89,17.8,48.33,4.08,13.37,7.81,26.84,10.02,40.71,2.32,14.55,6.43,28.74,10.08,43,1.2,4.7,1.92,9.47,2.61,14.28,.67,4.62,2.26,9.07,2.62,13.86,.4,5.26,.81,10.53,1.13,15.8,.89,14.85,.56,29.7-.3,44.53-.65,11.18-2.58,22.24-5.79,32.98-2.49,8.34-2.65,16.82-2.44,25.37,.07,2.9,1.61,5.31,2.99,7.78,3.56,6.38,4.26,13.21,2.92,20.32-.25,1.35-1.05,2.34-1.82,3.38,8.2,1.8,10.3,12.94,8.67,20.52-1.9,8.83-8.02,12.66-16.21,14-7.95,1.3-15.96,1.71-23.56-1.65-5.49-2.43-9.49-6.44-10.83-12.53-.25-1.12-.74-1.6-1.65-2.12-5.82-3.34-8.09-8.45-7.23-15.03,.1-.78,.94-1.55-.2-2.26-5.18-3.24-6.55-8.7-7.68-14.06-2.71-12.78-3.96-25.73-4.83-38.77-1.05-15.75,.07-31.45,.26-47.16,.12-10.07,.4-20.16,.77-30.24,.15-4.17,.17-8.09-1.42-12-.66-1.61-1.31-2.99-2.65-4.24-2.23-2.09-3.41-5-4.63-7.76-5.61-12.58-13.34-24.06-18.97-36.63-2.92-6.51-5.84-13.02-9.14-20.4-.81,4.54-1.42,8.28-2.16,11.99-2.76,13.93-6.46,27.66-8.58,41.73-2.7,17.94-4.84,35.89-5.24,54.06-.24,10.61-1.39,21.24-.7,31.83,.89,13.75,1.42,27.62,6.74,40.68,2.9,7.13,3.35,14.29-.52,21.29-.32,.59-.63,1.15-.12,1.79,3.99,4.91,2.06,10.03,.4,15.04-1.62,4.9-4.84,8.91-7.87,12.99-.51,.68-1.19,1.18-1.38,2.13-2.14,10.53-9.36,15.54-19.34,16.62-8.07,.88-16.29,.32-24.27-1.15-7.36-1.36-10.21-5.13-10.76-12.96-.57-8.22,1.09-15.91,6.68-22.47-5.1-3.29-7.37-8.52-9.32-13.94-3.58-9.96-4.74-20.35-5.61-30.8-.93-11.16-.88-22.36-.35-33.5,1.03-21.66,2.28-43.32,1.56-65-.67-20.08-.22-40.15-.44-60.23-.11-10.16-1.67-20.22-2.77-30.31-1.57-14.34-1.86-28.71-1.16-43.14,.69-14.12,2.48-28.1,4.66-42.04,.48-3.08,1.03-6.2,1.99-9.16,1.09-3.36-1.03-2.87-2.77-2.52-5.95,1.2-11.86,.73-17.04-2.18-4.16-2.33-7.75-5.76-11.36-8.96-17.43-15.5-32.6-32.99-45.17-52.65-4.53-7.09-8.93-14.27-12.03-22.15-.29-.68-.34-1.3,.51-1.62,.82,.24,1.15,.95,1.52,1.61,9.52,16.89,20.73,32.62,33.15,47.45,8.08,9.65,17.15,18.43,26.7,26.67,.41,.35,.91,.62,1.26,1.03,5.97,7.06,13.93,7.16,22.05,6,5.82-.83,10.64,1.31,15.4,4.04,1.95,1.12,3.74,2.5,5.99,3.11-1.29-1.74-3-2.94-4.92-3.88-2.16-1.05-4.23-2.26-6.09-3.76-2.22-1.78-2.08-4.14,.37-5.55,1.9-1.09,3.95-1.75,6.24-1.24,4.81,1.07,9.39,2.51,13.36,5.68,2.14,1.7,4.21,3.74,7.83,4.54-3.46-4.52-6.24-8.69-11.4-10.35-2.79-.9-5.55-1.89-8.36-2.74-1.27-.38-2.73-.95-2.48-2.53,.26-1.62,1.9-1.79,3.16-1.57,6.64,1.17,13.38,2.18,18.09,7.83,.35,.42,.71,.83,1.18,1.11,.48,.28,1.04,.55,1.49,.1,.6-.61,.15-1.19-.25-1.71-.2-.26-.46-.46-.73-.64-6.05-4.2-11.81-8.95-19.5-10-1.18-.16-3.26-.07-3.21-1.49,.06-1.54,2.15-1.55,3.46-1.65,5.11-.36,9.79,1.19,14.33,3.35-5.4-3.33-10.38-7.81-17.57-6.28-2.13,.45-4.3,.62-6.45,.88-.72,.09-1.62,.06-1.81-.93-.11-.62,.47-.9,.93-1.18,.9-.63,2.08-.56,2.96-1.23,.72-.25,1.44-.5,2.12-.85,3.48-1.05,6.92-2.5,10.71-1.05-3.05-2.6-4.29-2.73-7.7-.74-1.11,.65-2.18,1.38-3.37,1.87-.77,.49-1.75,.53-2.44,1.18-.79,.05-1.5,.35-2.17,.75-3,2.09-6.44,3.05-9.95,3.79-1.52,.32-2.89,.75-3.84,2.15-1.52,2.24-3.44,1.95-5.32,.49-2.07-1.6-3.88-3.41-4.86-5.97-3.32-8.62-8.31-16.43-12.03-24.87-4.58-10.42-8.92-20.96-14.08-31.11-1.97-3.87-4.04-7.69-6.77-11.09-1.77-2.2-1.7-4.24,.4-5.97,1.87-1.54,1.65-2.91,.51-4.75-3.87-6.24-8.77-11.58-14.18-16.45-2.36-2.13-5.35-3.3-8.5-3.87-3.32-.61-4.2-.04-5.39,3.09-4.06,10.75-8.2,21.47-10.45,32.8-.38,.63-.87,1.04-1.67,.8-1.66-2.14-.89-4.52-.51-6.78,1.09-6.56,3.85-12.57,6.18-18.74,1.6-4.23,4.16-7.93,3.69-13.15-.62-6.81,3.38-12.65,6.94-18.31,5.88-9.36,11.36-18.88,15.45-29.24,4.86-12.31,15.13-19.76,25.84-26.6,7.02-4.49,15.29-6.14,22.57-9.89,6.22-3.2,13.03-4.2,19.35-6.78,1.9-.77,4.43,1.04,5.84-1.51,.66-.41,1.08-1.07,1.49-1.68,2.63-3.94,2.55-4.39-.42-8.2-4.3-5.51-7.19-11.63-8.91-18.47-1.73-6.92-2.73-13.94-3.93-20.94-.19-1.11-.98-2.69,.29-3.27,1.55-.71,1.97,1.18,2.77,2.08,.14,.16,.26,.35,.4,.51,2.02,4.15,2.73,8.66,3.5,13.14,1.29,7.53,2.94,14.87,7.67,21.17,2.5,3.32,5.58,6.05,8.44,9,1.13,1.17,2.71,1.41,4.25,1.22,5.91-.72,11.88-.85,17.75-1.96,3.31-.63,5.6-2.66,7.66-5.12,1.87-2.23,3.33-4.84,5.88-6.46,4.65-4.7,5.85-10.6,5.13-16.79-.56-4.83-.05-9.5,.88-14.13,.8-3.98,.37-7.73-.76-11.5-.34-1.14-.71-2.28-.41-3.5,.09-.33,.26-.63,.49-.89,2.49,.3,1.63,2.87,2.78,4.08,.26,.41,.46,.84,.56,1.32,.09,.92,.07,1.85,.04,2.78-.13,.63-.15,1.29-.28,1.51,.05-.29,.29-.95,.3-1.66,.01-.77,.01-1.55,0-2.32-.57-4.08,.78-8.13-.05-12.3-.56-2.79-1.07-5.49-2.35-8.04-2.22-4.42-5.4-8.11-8.67-11.75-.87-.97-1.87-2.03-3.09-2.34-5.28-1.35-4.98-5.63-5.11-9.58-.07-2.16,.31-4.31-.53-6.41-3-7.52-9.23-9.91-16.59-6.34-.49,.2-1.03,.24-1.65,.36,1.26,.08,2.27-.61,3.41-.64,4.13,.47,7.6,1.87,8.88,6.34,.3,1.06,.4,2.11,.19,3.21-1.51,8.18-9.27,14.93-17.59,15.27-1.73,.07-3.47-.05-5.2,.18-10.94,1.43-17.16,7.88-19.12,19.8-.18,1.07-.2,2.16-.46,3.22-.63,5.77-.11,11.54-.27,17.31-.2,1.85,.44,3.87-1.17,5.85-1.42-2.04-1.35-4.23-1.64-6.21-1.55-10.32-2.03-20.59,1.89-30.62,1.67-4.27,4.47-7.57,7.76-10.59Z"/><path class="cls-3" d="M519.55,205.98c-1.47-1.14-.7-3.34-2.12-4.5-.7-1.4-.75-2.98-1.23-4.44-.52-.55-.33-1.44-.9-1.96,.54,.58,.41,1.5,.99,2.06,.28,1.47,.44,2.97,1.14,4.33,0,.65-.18,1.38,.05,1.93,3.11,7.5,1.08,14.97,.09,22.49-.4,3.05,.66,6.15,.57,9.3-.15,5.07-2.07,9.39-4.91,13.42-.19,.27-.77,.26-1.18,.37-.59-1.34,.26-2.33,.92-3.26,2.16-3.06,2.9-6.51,2.9-10.15,0-7.15-.16-14.31,1.33-21.37,.48-2.28-.22-4.55-.7-6.75-1.36-6.25-3.07-12.42-5.65-18.3-1.6-3.65-2.32-3.96-6.21-3.34-5.53,.88-11.02,.98-16.3-1.28-1.75-.75-3.3-.55-4.95,.34-2.8,1.51-5.83,2.33-9.02,2.49-6.79,.33-11.5,3.74-13.96,9.94-2.36,5.95-4.04,12.12-3.72,18.64,.03,.67-.04,1.3-.52,1.81-.68-.93-1.35-1.86-2.55-3.51,.94,6,1.58,11.22,2.59,16.35,1.31,6.63,2.04,13.47,5.68,19.42,1.51,2.48,3.05,4.97,4.84,7.24,2.99,3.78,2.54,7.04-1.63,9.97,3.42-4.27,3.37-7.8-.86-12.01-4.34-4.32-6.23-10.36-7.32-16.43-.26-1.46-.75-2.42-2.11-3.3-2.61-1.69-4.13-4.51-3.94-7.48,.36-5.42-1.56-10.43-2.13-15.66-1.07-9.91-1.33-19.7,2.86-29.07,1.71-3.83,4.16-7.07,7.72-9.38-2.64,3.74-6.07,6.84-7.62,11.45-2.63,7.83-3.25,15.69-2.3,23.84,.44,3.73,.95,7.41,2.2,11.08v-4.55c1.16-.01,.81,.98,1.05,1.58,.4,3.69,.44,7.4,.84,11.08,.05,.9-.58,1.81-.14,2.69,.48,.96,.65,.2,.82-.25-.06-3.41-.85-6.71-1.28-10.05-.06-1.1,.06-2.2-.14-3.3-.1-.31-.17-.62-.2-.95-.07-.82-.42-1.63-.17-2.47,2.04-4.73,1.34-10.01,2.97-14.82,1.12-3.31,1.7-6.92,5.01-9.01,.79,.34,.82,.88,.73,1.03,1.23-2.82,4.22-4.3,7.44-5.4,2.14-.73,4.39-1.26,6.64-1.37,4.22-.19,7.6-2.14,10.83-4.58,.84-.63,1.53-2.01,2.97-1.01,.08,1.61,.87,2.41,2.49,2.85,3.59,.98,7.06,.42,10.57-.3,2.42-.5,4.84-1.37,7.35-.86,2.86,.58,2.77,3.63,4,5.48,3.49,5.25,5.13,11.37,6.61,17.47,.2,.84,.15,1.73-.48,2.45Z"/><path class="cls-36" d="M626.93,670.04c1.23,17.77,1.16,35.57,.52,53.35-.43,11.89-2.47,23.62-5.74,35.1-2.79,9.82-3.23,19.8-2.01,29.9,.32,2.69,1.67,4.92,3.03,7.12,2.94,4.78,3.22,10.04,2.91,15.38-.14,2.36-2.94,4.04-6.28,3.87-4.67-.24-8.74-2.31-12.83-4.33-1.75-.86-3.52-1.67-5.31-2.45-3.64-1.6-6.96-.86-10.01,1.48-1.29,.99-2.5,2.08-3.79,3.07-5.02,3.87-9.34,2.73-11.91-3.18-2.37-5.43-3.04-11.25-3.98-17.02-3.01-18.57-3.79-37.29-3.06-56.02,.7-17.8,.23-35.58,.47-53.37,.05-3.76-1.91-7.59,.35-11.3,.24-.4-.34-.94-.72-.83-2.78,.76-2.51-1.65-3.35-3.02-2.04-3.33-4.42-6.46-6.3-9.86-8.43-15.28-17.63-30.23-23.58-46.71-3.33-9.23-5.6-18.88-6.12-28.81-.15-2.91-.55-5.81-.78-8.72-.14-1.77-1.33-2.52-2.81-2.57-1.95-.07-1.82,1.59-1.72,2.84,.45,5.49,1.24,10.97,1.46,16.47,.38,9.35-1.51,18.54-3.52,27.55-4.99,22.37-9.3,44.85-11.95,67.61-.99,8.48-1.23,17.05-1.52,25.59-.35,10.39-1.74,20.78-1.15,31.16,.74,12.93,1.33,25.93,5,38.49,1.22,4.16,2.9,8.18,3.99,12.37,1.24,4.77,.94,9.34-2.81,13.24-1.12,1.16-.85,3.19-1.79,4.72-3.37,5.51-6.87,6.82-12.85,4.44-3.32-1.32-6.61-2.66-10.05-3.69-7.16-2.15-13.83-1.58-20.36,2.16-4.94,2.84-6.52,2.28-9.34-2.71-4.02-7.09-6.01-14.89-7.19-22.83-2.14-14.39-2.66-28.91-2.18-43.44,.44-13.2,1.56-26.37,1.86-39.58,.24-10.86,.13-21.71-.06-32.56-.21-11.82-.58-23.65-.46-35.47,.08-7.69,.33-15.35,.06-23.06-.37-10.52-1.92-20.88-2.92-31.31-1.39-14.46-2.11-28.9-1.25-43.45,.67-11.34,1.22-22.68,3.33-33.86,.88-4.67,2.2-9.26,3.26-13.9,.39-1.72,1.26-2.12,2.81-1.37,3.31,1.6,6.64,3.17,9.96,4.76,2.17,1.04,4.37,1.72,6.17-.54,1.48-1.86,.92-5.18-1.11-7.11-1.42-1.34-3.03-2.46-4.81-3.31-2.23-1.06-4.45-2.16-7.06-3.44,3.63-1.48,6.37,.15,9.13,1.33,3.13,1.34,5.55,3.77,8.31,5.69,1.78,1.24,3.56,2.46,5.68,3.11,2.09,.65,4.37,1.02,5.62-.98,1.12-1.8,1.95-4.13-.22-5.89,20.87,4.02,41.75,6.55,63.18,2.85-.03-.12,.1,.26,.14,.66,.39,4.09,2.01,4.92,5.49,2.36,4.75-3.5,9.79-6.37,15.22-8.66,1.85-.78,3.75-.92,5.75-1.26-4.8,3.59-7.51,9.09-12.07,12.88-1.09,.91-1.9,1.99-2.24,3.48-.83,3.55,.75,5.21,4.3,4.51,4.11-.8,7.4-2.99,10.29-5.86,.9-.9,1.54-2.06,2.56-2.85,1.56,19.91,11.25,36.82,17.45,54.81,4.7,13.64,9.2,27.38,11.57,41.56,3.23,19.34,8.47,38.17,13.18,57.13,1.85,7.46,.86,14.83,.09,22.25-.47,4.51-1.11,9.01-1.09,13.56,0,1.2,.1,2.35,1.34,3.43,.18-5.25,1.69-10.03,2.6-14.92,.4-.42,.81-.42,1.22-.03Z"/><path class="cls-5" d="M414.68,384.48c-3.77-3.24-6.97-6.73-10.04-10.35-4.78-5.63-9.72-11.13-15.53-15.7-4.88-3.84-10.15-6.8-17.36-3.58,2.41-3.99,3.86-7.54,6.22-10.7,5.32-7.13,10.62-14.32,13.65-22.82,6.59-18.48,20.76-29.12,37.88-36.68,6.34-2.8,12.98-4.89,18.86-8.73,3.13-2.04,4.45-1.32,6.7,1.91,2.85,4.08,6.66,7.08,11.27,9.04,11.23,4.79,22.79,4.22,34.49,2.41,11.04-1.71,20.9-6.22,29.01-13.67,3.32-3.05,4.91-1.98,7.83-.31,12.36,7.06,25.03,13.41,39.17,16.29,11.12,2.26,20.03,8.44,28.01,16.27,3.67,3.59,6.59,7.37,8.58,12.25,3.02,7.41,7.02,14.42,10.59,21.6,.32,.65,.95,1.22,.73,2.08-18.08,1.73-29.17,13.02-37.69,28.87-2.4-7.37-5.28-13.17-8.73-18.68-.4-.64-.78-1.3-1.21-1.93-.9-1.31-2.02-2.6-3.72-1.95-1.76,.68-2.71,2.5-2.42,4.22,1.15,6.76-.66,13.35-1.1,19.99-.52,7.97,.29,15.76,1.14,23.59,1.15,10.62,2.54,21.21,3.76,31.82,.53,4.61,.92,9.24,1.31,13.86,.46,5.55-1.13,10.96-1.27,16.46-.04,1.61-1.22,1.63-2.16,1.92-4.72,1.42-8.96,3.37-12.56,7.06-2.18,2.23-5.84,1.82-8.93,1.21-2.75-.54-5.51-1.21-8.14-2.16-7.23-2.58-14.39-.83-21.49,.31-9.31,1.48-18.53,.42-27.82,.13-6.85-.21-9.86-6.21-15.24-8.51-1.12-.48-1.37-2.97-2.03-4.53-2.54-5.97-6.44-7.26-11.81-3.91-.09,.06-.16,.15-.25,.21-6.68,3.97-7.19,3.63-7.52-4.01-.3-6.84-2.86-13.1-5.6-19.24-7.53-16.84-13.51-34.31-20.76-51.26-1.8-4.21-3.58-8.69-1.87-13.53,.29-.82,.24-1.8-.73-2.27-1.07-.52-1.66,.33-2.08,1.04-.76,1.3-1.43,2.67-2,4.06-2.5,6.13-6.16,11.66-9.14,17.92Z"/><path class="cls-27" d="M362.19,401.56c-.38-1.3-.76-2.61-1.14-3.91,.29-5,1.68-9.78,3.23-14.47,2.27-6.87,5.01-13.59,7.38-20.44,.67-1.92,1.7-2.5,3.58-2.35,4.36,.33,8.45,1.71,11.49,4.71,5.39,5.3,10.86,10.6,14.52,17.39,.95,1.76,1.63,3.01-.87,4.35-2.23,1.2-2.62,2.83-.55,5.44,4.31,5.43,7.25,11.8,10.13,18.12,6.43,14.08,12.19,28.48,19.7,42.06,1.2,2.17,2.04,4.55,2.86,6.89,.95,2.72,3.06,4.42,5.13,6.09,1.45,1.17,3.22,1.2,3.89-.91,.41-1.3,1.07-1.7,2.24-1.87,4.3-.65,8.31-2.24,12.34-3.77,.2,.14,.27,.28,.2,.42-.07,.14-.14,.2-.21,.2-.33,.28-.95,.56-.94,.83,0,.81,.75,.56,1.2,.5,2.67-.39,5.35-.74,7.99-1.29,3.29-.68,6.19,.24,9,1.81,1.61,.9,3.14,2.06,4.87,2.59,2.58,.79,3.63,2.46,3.92,4.97-10.66-5.04-13.4-5.58-19.37-3.63,3.27,.69,6.23,1.01,9.08,1.92,5.95,1.9,10.15,6.59,15.49,9.46,1.46,.79,1.22,2.58,.43,3.37-.82,.83-2.53,.87-3.39-.46-3.96-6.11-10.43-7.24-16.79-8.6-1.58-.34-3.18-.36-4.72,.09-.18,1.44,.88,1.58,1.56,1.9,.87,.41,1.84,.65,2.79,.87,6.84,1.6,12.97,4.33,16.68,10.74,.69,1.19,3.42,1.77,2,3.41-1.2,1.39-2.97-.3-4.24-1.15-2.53-1.67-4.82-3.73-7.43-5.25-4.7-2.73-9.6-4.99-15.31-3.3-1.45,.43-2.66,1.18-2.85,2.76-.18,1.49,1.29,1.86,2.2,2.53,3.06,2.24,6.73,3.51,9.66,5.99,1,.84,2.08,1.59,1.82,3.45-2.33-.67-4.31-1.87-6.26-3.06-2.69-1.64-5.41-3.19-8.39-4.23-2.68-.94-5.38-1.35-8.23-.74-5.66,1.2-11.4,.38-16.67-1.29-3.23-1.02-5.71-4.45-8.47-6.87-21.3-18.65-38.81-40.44-53.54-64.55-2.14-3.5-4.6-6.8-5.99-10.71Z"/><path class="cls-27" d="M558.46,475.11c5.01-7.27,12.21-10.73,20.72-11.93,.86-.12,1.73-.25,2.55-.5,2.72-.83,2.98-1.98,.71-4.39,1.62,0,2.98,.03,4.34,0,1.81-.05,3.82-.43,2.94,2.6-.15,.53-.26,1.45,.52,1.67,.96,.27,1.32-.61,1.53-1.3,2.57-8.23,5.9-16.22,6.65-24.98,.98-11.52,.25-23.14,2.2-34.58,1.44-8.43,3.3-16.75,7.53-24.32,1.14-2.04,.72-3.46-1.24-4.59-3.29-1.9-6.32-4.14-9.12-6.73-1.16-1.07-1.37-1.83-.37-3.2,5.97-8.15,14.63-11.9,23.87-14.64,2.01-.6,3.6-.19,4.63,2.49,2.98,7.77,6.31,15.4,8.95,23.31,1.43,4.28,1.04,8.27-.39,12.35-.36,1.01-.71,2.05-.89,3.1-.14,.79-.66,1.88,.26,2.39,.99,.55,1.05-1.18,2.31-1.19-.33,5.55-1.75,10.83-3.58,15.92-4.11,11.47-8.66,22.79-12.83,34.24-3.88,10.65-7.22,21.48-9.67,32.55-1.18,5.33-4.01,9.23-8.84,11.74-5.86,3.05-9.35,8.59-13.73,13.18-.29,.3-.55,.63-.84,.97-1.74-2.42-1.78-3.12,.12-5.91,1.78-2.62,3.32-5.33,4.28-8.35,.35-1.11,.92-2.39-.42-3.23-1.27-.79-1.99,.35-2.72,1.09-3.5,3.56-7.75,6.37-11.02,10.03-2.6,2.9-5.39,4.76-8.87,6-.94,.34-2.04,.81-2.72,.06-.77-.85-.32-2,.17-3.03,.44-.92,1.09-1.57,1.87-2.19,5.04-4.01,8.49-9.54,13.13-13.94,.43-.41,1.22-1.06,.45-2.28-7.03,1.04-13.87,2.96-19.85,7.35-1.66,1.22-3.32,2.44-5.01,3.62-.6,.42-1.3,1.07-2.04,.59-.89-.57-.61-1.61-.32-2.38,1.66-4.41,4.55-7.81,8.55-10.3,4.13-2.57,8.67-4.34,12.87-6.85-5.82,.84-11.06,3.15-16.01,6.24-.67,.2-.84-.07-.65-.68Z"/><path class="cls-27" d="M456.17,217.76c-1.08-9.62,1.18-18.45,6.76-26.27,2.36-3.31,6.22-4.58,10.25-4.91,4.04-.33,7.94-1.08,11.37-3.41,.88-.6,1.62-.76,2.67-.2,5.85,3.1,12.05,3.24,18.28,1.59,2.81-.74,4.34,.22,5.41,2.59,3.64,8.03,6.14,16.4,7.35,25.14,.14,1.03-.07,2.14-.25,3.19-.86,5.01-1.79,10-1.18,15.15,.8,6.71-.66,12.9-4.78,18.37-1.63,1.88-3.41,3.64-4.85,5.65-3,4.17-7.03,6.27-12.07,6.71-4.53,.4-9.05,.83-13.57,1.35-3.46,.4-5.57-1.15-7.93-3.69-4.77-5.13-9.68-10.1-11.64-16.99-1.42-4.99-2.22-10.15-3.28-15.24-.64-3.07-1.23-6.15-2.54-9.02Z"/><path class="cls-9" d="M406.71,398.24c4.37,.48,6.65-1.8,8.59-5.01,3.54-5.88,5.83-12.34,9-18.39,.49-.93,.66-2.04,1.38-2.53,6.71,19.62,14.1,38.92,22.59,57.78,3.47,7.71,5.79,15.57,5.96,24.05,.03,1.32-.64,1.73-1.61,2.02-3.93,1.2-7.8,2.51-11.41,4.58-2.02,1.17-5.44-.94-6.59-3.5-8.35-18.57-16.7-37.13-25.72-55.38-.56-1.14-1.32-2.19-2.2-3.62Z"/><path class="cls-9" d="M577.45,458.18c2.2-7.75,2.53-14.6,1.87-21.52-.89-9.33-1.47-18.69-2.69-27.98-1.89-14.48-3.41-28.94-1.68-43.54,.31-2.62-.57-5.32,.48-8.32,2.19,3.18,3.77,6.24,5.06,9.41,1.77,4.33,4.31,8.22,6.58,12.26,1.74,3.08,7.8,4.87,11.93,3.85,1.43-.35,2.77-1.27,4.58-.82-4.21,8.92-6.65,18.25-7.67,27.93-.44,4.19-.82,8.39-.67,12.63,.37,10.98-.8,21.77-4.28,32.25-.41,1.25-.76,2.07-2.55,2.08-3.42,.03-6.96-.53-10.95,1.77Z"/><path class="cls-10" d="M519.55,205.98c-1.68-7.62-4.15-14.78-8.06-21.73-2.5-4.45-4.86-2.76-7.57-2.2-4.5,.93-8.92,1.46-13.48,.43-3.57-.8-3.59-.69-1.5-3.76-.07-.7,.3-1.23,.77-1.94-2.19,1.48-3.91,3.25-5.99,4.57-2.99,1.89-6.34,2.69-9.79,3.11-4.59,.56-8.93,1.64-12.11,5.36-.29,.34-.73,.43-1.18,.4-4.39,5.09-4.98,11.45-6.01,17.69-.37,2.24,.26,4.78-1.78,6.58-.72,.06-.93-.38-.92-.98,.09-5.37-.29-10.74,.2-16.1,1.06-15.02,9.8-23.43,23.6-23.39,8.7,.02,14.87-4.02,17.72-11.53,2.32-6.13,.18-10.01-6.3-11.38-.53-.11-1.05-.26-1.57-.39-.81,.1-1.88,.9-2.06-.74,4.33-2.52,8.91-3.37,13.13-.3,4.11,2.99,6.68,7.23,5.75,12.58-.47,2.73,.42,5.1,.88,7.61,.09,.48,.46,1.11,.87,1.29,10.7,4.58,18.41,17.48,17.67,29.71-.13,2.15-.35,4.3-.52,6.46-.74,.41-.91-.25-1.22-.65-.18-.23-.36-.46-.54-.68Z"/><path class="cls-15" d="M473.2,816.22c-2.25,4.05-2.14,7.62-1.98,11.16,.2,4.55,2.95,6.41,7.22,4.99,6.71-2.24,12.23-6.46,17.47-11,1.25-1.08,1.96-1.61,3.52-.91,2.78,1.23,5.68,.79,8.66,.06-9.77,17.58-25.02,24.24-43.85,18.36-5-1.56-5.94-3.22-4.86-8.29,.16-.74,.36-1.47,.56-2.2,1.26-4.51,2.46-8.97,8.24-9.79,1.42-.2,2.71-1.25,5.02-2.38Z"/><path class="cls-15" d="M586.11,818.4c2.46-1.84,4.66-3.58,6.96-5.2,3.24-2.28,4.81-1.62,6.63,1.66,2.31,4.16,4.23,8.51,6.45,12.7,1.75,3.31,4.52,3.92,7.59,1.91,2.73-1.79,4.47-4.34,5.47-7.42,.39-1.21,5.49-4.26,6.65-3.95,1.5,.4,4.15,7.65,3.61,9.12-2.74,7.46-9.17,8.66-15.83,9.58-4.54,.63-9.02,.38-13.51-.48-3.4-.65-5.55-2.7-6.06-5.92-.68-4.25-1.3-8.25-6.02-10.02-.72-.27-1.19-1.2-1.92-1.98Z"/><path class="cls-29" d="M511.52,256.64c1.59,5.62,4.56,9.52,10.63,11.32-9.41,4.67-18.59,6.48-27.91,7.82-7.39,1.06-14.67,1.2-21.68-1.89-1.96-.86-3.88-1.83-5.95-2.81,1.7-2.25,3.76-3.79,4.74-6.16,.44-1.06,1.26-.74,1.83-.2,3.24,3.12,7.07,3.17,11.2,2.55,4.27-.64,8.6-.83,12.88-1.39,4.07-.53,7.76-1.93,10.47-5.29,1.06-1.31,2.33-2.45,3.79-3.97Z"/><path class="cls-15" d="M553.24,476.35c-1.59,2.41,1.73,4.97-.75,7.16-.73,.64-1.17,1.32-2.31,1.43-5.39,.5-10.78,.65-16.17,.35-10.14-.56-20.33-.34-30.43-1.71-4.05-.55-8.08-1.31-12.13-1.93-1.67-.26-2.14-.93-1.48-2.62,.52-1.34,1.68-2.54,.23-4.42-.96-1.25,.8-1.39,1.93-1.19,5.63,.99,11.26,1.98,16.9,2.9,8.76,1.44,17.62,1.71,26.46,2.04,5.91,.22,11.98,1.25,17.75-2Z"/><path class="cls-14" d="M514.94,813.92c.96,6.41-1.67,11.52-4.29,16.57-.83,1.59-1.16,3.82-4.19,3.34-1.45-.23-1.49,2.11-1.69,3.41-.52,3.24-1.29,6.22-3.71,8.76-3.49,3.66-7.85,4.8-12.57,5.14-6.72,.47-13.42-.38-20.13-.62-6.73-.24-9.98-4.41-9.55-11.65,.29,0,.71-.13,.85,.02,7.31,7.6,16.44,7.47,25.7,5.65,8.25-1.62,15.1-5.74,19.72-13.08,.92-1.46,2.08-2.77,3.23-4.07,2.93-3.31,5.2-6.9,5.27-11.52,.01-.69,.41-1.22,1.37-1.96Z"/><path class="cls-14" d="M486.02,286.29c-9.33-.39-18.47-1.68-26.13-7.92-.59-.48-1.24-.93-1.68-1.52-.76-1.01-2.95-1.87-1.67-3.22,1.29-1.36,3.28-2.34,5.52-.79,4.29,2.98,8.89,5.38,13.95,6.84,8.97,2.59,17.83,.91,26.66-.75,8.45-1.58,16.68-3.92,23.94-8.75,1.48-.99,2.78-.6,3.26,.59,.49,1.22-.65,2.8-1.85,2.87-2.88,.17-4.74,2.04-6.84,3.47-8.73,5.9-18.64,7.84-28.86,8.8-2.05,.19-4.11,.25-6.28,.38Z"/><path class="cls-12" d="M631.58,836.33c-.49,4.1-2.92,6.55-6.7,7.83-7.84,2.64-15.84,2.94-23.81,1-3.89-.95-7.22-3.22-9.45-6.76-.33-.78,.14-.88,.74-.88,6.02,5.26,13.38,4.83,20.52,4.38,6.76-.42,13.2-2.28,17.98-7.65,1.63,.22,.82,1.27,.72,2.09Z"/><path class="cls-7" d="M494.62,818.34c-6.28,3.18-10.79,7.58-16.78,9.56-2.16,.71-2.79,.23-3.19-1.94-1.86-10.11,1.46-13.27,11.29-10.48,2.67,.76,5.28,1.74,8.67,2.87Z"/><path class="cls-22" d="M550.01,475.13c-9.84,.28-19.66,.08-29.48-.55-3.65-.23-7.3-.5-10.97-1.02,8.62-.54,17.06-2.6,25.68-2.85,4.27-.13,8.16,1.97,12.18,3.18,.64,.88,2.36-.49,2.59,1.24Z"/><path class="cls-1" d="M603.44,815.15c1.3-1.13,2.18-.04,2.98,.38,2.29,1.19,4.61,2.47,7.12,2.92,2.7,.49,2.61,1.58,1.43,3.41-.46,.72-.87,1.49-1.43,2.13-2.17,2.51-2.98,2.42-4.63-.5-1.64-2.89-3.11-5.88-5.47-8.34Z"/><path class="cls-11" d="M587.18,826.4c-2.34,3.13-2.42,3.1-4.82-.23-1.1-1.53-1.63-3.25-2-5.06-.18-.9-.97-1.99,.63-2.25,.99-.16,2.14-.42,2.65,1.08,.7,2.05,1.78,3.92,3.52,5.33,.37,.37,.43,.74,.02,1.12Z"/><path class="cls-28" d="M460.09,456.98c1.34-.89,2.61-1.92,4.03-2.66,4.02-2.09,6.88-1.19,9.96,3.68-4.86-2.7-9.02-1.02-13.22-.34-.74,.31-.84-.08-.76-.69Z"/><path class="cls-32" d="M587.18,826.4c0-.37-.01-.75-.02-1.12,1.34,.4,2.04,1.1,2.14,2.69,.22,3.4,1.24,6.62,3.05,9.55-.25,.29-.49,.59-.74,.88-2.87-2.88-3.21-6.67-3.76-10.39-.09-.6,.2-1.34-.67-1.61Z"/><path class="cls-24" d="M452.15,197.41c.04,4.67,.06,9.33,.14,14,.02,1.05-.34,2.2,.58,3.08,.03,.85,.07,1.7,.1,2.55-.21,.27-.46,.28-.72,.07-.21-.46-.42-.92-.63-1.39,0-5.08-.04-10.16,0-15.24,0-1.04-.33-2.18,.53-3.09Z"/><path class="cls-43" d="M495.31,471.9c3.87-.36,7.61,.69,11.42,1.09-4.15,.34-8.22-.33-12.29-.97,.24-.39,.54-.43,.88-.12Z"/><path class="cls-25" d="M520.94,225.61c.46-1.97-1.57-4.17,.54-6.07,.96,2.71,.91,3.66-.54,6.07Z"/><path class="cls-30" d="M585.05,492.79c-1.3-3.32-1.09-3.72,2.07-5.13,.28,1.98-1.49,2.92-2.07,5.13Z"/><path class="cls-18" d="M550.01,475.13c-.57-1.03-2.02-.22-2.59-1.24,2.08,.33,4.07-.45,6.37-.66-1.09,1.47-2.55,1.45-3.78,1.9Z"/><path class="cls-21" d="M558.46,475.11c.22,.23,.43,.46,.65,.68-1.17,1.08-2.33,2.16-3.5,3.24,.18-1.94,1.51-2.93,2.85-3.92Z"/><path class="cls-20" d="M485.1,470.79c1.25-.42,2.15-.46,2.59,.66,.1,.25-.2,.94-.41,.99-1.16,.25-1.56-.68-2.18-1.65Z"/><path class="cls-31" d="M495.31,471.9c-.29,.04-.59,.08-.88,.12-1.31-.07-2.62-.14-3.93-.22,.03-.28,.06-.56,.08-.84,1.61-.18,3.2-.02,4.72,.94Z"/><path class="cls-19" d="M520.09,206.67c.41,.22,.81,.43,1.22,.65,.18,.97,.23,1.92-.28,2.82-.26,.1-.5,.06-.72-.11-.25-1.11-.53-2.22-.22-3.36Z"/><path class="cls-41" d="M626.93,670.04c-.41,0-.81,.02-1.22,.03,.04-.78-.45-1.7,.56-2.3,.94,.57,.57,1.49,.66,2.27Z"/><path class="cls-23" d="M483.53,149.98c.47,.86,1.41,.41,2.06,.74-1.15,.68-2.37,.75-3.69,.44,.22-.87,.95-1,1.63-1.19Z"/><path class="cls-32" d="M631.58,836.33c-.22-.7,.04-1.57-.72-2.09,.19-.69,.37-1.39,1.31-1.98-.01,1.54,.2,2.85-.59,4.06Z"/><path class="cls-33" d="M578.58,460.37c-.24,.6-.8,.54-1.29,.55-.36,0-.97,.09-.86-.51,.12-.66,.57-1.13,1.37-.9,.42,.12,.77,.34,.78,.86Z"/><path class="cls-16" d="M460.09,456.98c.25,.23,.51,.46,.76,.69-.66,.22-1.32,.45-1.97,.67-.4,.22-.77,.16-1.08-.17,.76-.4,1.53-.79,2.29-1.19Z"/><path class="cls-17" d="M457.79,458.17c.36,.06,.72,.11,1.08,.17-.92,.39-1.83,.78-2.75,1.17,0-.21,.01-.41,0-.62,.38-.65,1-.73,1.66-.72Z"/><path class="cls-42" d="M520.31,210.03c.24,.04,.49,.07,.73,.11-.21,.62,.24,1.69-.82,1.67-.28,0-.18-1.17,.1-1.78Z"/><path class="cls-2" d="M460.66,190.22c2.55-3.95,6.41-5.98,10.87-6.24,6.99-.4,12.8-2.9,17.52-8.04,.48-.52,1.04-1.14,2.19-.79-.09,1.62-1.24,2.56-2.29,3.56-1.94,.61-2.94,2.43-4.55,3.52-3.54,2.4-7.53,3-11.55,3.49-5.65,.69-10.16,3.04-13.18,8.05,.33-1.19,.66-2.37,.99-3.56Z"/><path class="cls-6" d="M452.25,217.12c.24-.02,.48-.05,.72-.07,0,0-.01,0-.01,0,.64,1.03-.23,2.34,.63,3.33,.71,3.71,1.69,7.4,1.24,11.24-1.48,0-1.85-.91-1.78-2.18-1.48-4.03-.85-8.19-.79-12.32Z"/><path class="cls-2" d="M494.75,184.16c4.27-.08,8.3-1.28,12.39-2.13,.8-.16,2.11-.45,2.22,.6,.18,1.74-1.22,.43-1.86,.6-4.19,1.06-8.43,1.69-12.75,.93Z"/><path class="cls-2" d="M453.05,229.43c.76,.59,.75,1.81,1.78,2.18-.5,.39-.52,1.92-1.42,1.1-.79-.73-1.97-2.01-.36-3.28Z"/><path class="cls-2" d="M517.43,201.48c-1.5-1.22-1.31-2.92-1.3-4.56,1.09,1.33,1.34,2.91,1.3,4.56Z"/><path class="cls-2" d="M516.14,197.12c-.81-1.12-1.34-1.86-1.19-3.03,1.17,.8,1.15,1.82,1.19,3.03Z"/><path class="cls-2" d="M457.83,199.09c-.43-1.73,0-2.3,.57-3.02,.68,1.07-.22,1.61-.57,3.02Z"/><path class="cls-24" d="M453.59,220.37c-1.17-.93-.66-2.17-.63-3.33,.9,.98,.43,2.22,.63,3.33Z"/><path class="cls-37" d="M549.42,300.98c-.38,.22-.63,.45-.92,.5-.49,.09-.79-.25-.71-.7,.04-.22,.41-.53,.64-.53,.23,0,.46,.32,.99,.73Z"/><path class="cls-4" d="M487.91,214.64c-.21,1.9-.67,3.18-2.86,1.99-3.16-1.71-5.83-4.1-8.73-6.17-3.78-2.7-5.59-2.73-9.38-.09-.8,.56-1.53,1.22-2.35,1.73-.75,.47-1.51,0-2.13-.35-.52-.3-.32-.94-.15-1.47,1.2-3.65,2.92-7.02,5.92-9.53,2.7-2.27,6.26-2.28,9.25,.12,4.29,3.44,7.03,8.18,10.07,12.64,.23,.34,.26,.81,.36,1.12Z"/><path class="cls-3" d="M505.99,197.8c3.25,.07,6.2,.88,8.49,3.39,.91,1,1,2.11,.54,3.32-.41,1.08-1.24,1.49-2.31,1.35-7.81-1-12.5,3.7-16.79,9.15-.83,1.05-1.49,2.84-3.24,1.71-1.42-.92-1.51-2.49-.9-4.09,1.36-3.56,3.05-6.94,5.13-10.14,2.14-3.3,5.19-4.78,9.08-4.7Z"/><path class="cls-38" d="M502.11,222.8c-3.66-.08-4.9-2.33-4.12-5.69,.94-4.05,3.54-6,7.18-7.03,3.66-1.03,6.19,.08,7.15,3.01,1.19,3.64-.39,7.47-3.8,8.51-2.15,.66-4.45,.84-6.41,1.19Z"/><path class="cls-34" d="M472.91,226.26c-2.36,.35-4.81-.09-6.09-2.7-.97-1.98-.66-4.06,.81-5.77,1.94-2.27,4.36-3.07,7.28-2.12,1.74,.56,3.56,.93,5.21,1.67,1.63,.73,2.95,2.03,2.81,4-.13,1.87-1.35,3.15-3.06,3.88-2.13,.91-4.38,1.14-6.98,1.05Z"/><path class="cls-46" d="M490.84,235.95c.94-.23,1.9-.68,2.83-.64,2.21,.1,3.87-.19,3.04-3.63,1.64,1.4,1.95,2.54,1.49,3.84-.46,1.27-1.76,.91-2.68,1.31-3.45,1.53-7.09,.09-10.64,1.01-2.62,.68-3.16-1.48-2.58-3.75,1.6-.24,.35,1.69,1.42,1.85,1.33,.47,2.42-.97,3.76-.45,1.08,.49,2.3-.1,3.37,.45Z"/><path class="cls-45" d="M490.39,249.06c-1.22-.19-3.19,.35-3.27-1.2-.09-1.75,1.94-1.56,3.24-1.64,1.25-.08,2.97-.12,2.89,1.59-.07,1.55-1.77,1.09-2.86,1.24Z"/><path class="cls-48" d="M496.07,218.25c-2.15,2.18-3.54,4.55-2.56,7.75-2.33-3.69-1.78-5.42,2.56-7.75Z"/><path class="cls-39" d="M487.51,222.24c.93,2.52,.56,5.03,.13,8.1-1.26-1.57-.71-2.88-.91-4.05,.01-.14,.03-.28,.04-.42,.15-1.12-.2-2.3,.39-3.37,.11-.09,.23-.18,.34-.26Z"/><path class="cls-47" d="M486.73,226.3c-.9-1.97-.1-4.4-1.67-6.31,1.43,.14,1.99,1.14,2.45,2.25-.06,.12-.12,.23-.19,.33-.49,1.11,.05,2.33-.34,3.45-.07,.1-.15,.19-.24,.27Z"/><path class="cls-44" d="M483.71,235.94c-1.11-.13-.64-1.46-1.42-1.85,.15-.94,.61-1.57,1.68-1.68,.71,1.25-1.32,2.3-.27,3.53Z"/><path class="cls-44" d="M490.84,235.95c-1.14,0-2.35,.48-3.37-.45,1.13,.11,2.32-.19,3.37,.45Z"/><path class="cls-8" d="M505.02,213.19c1.63,.06,3.84-1.33,4.51,1.3,.48,1.86-.08,3.61-2.46,3.96-.66,.46-1.2,.27-1.66-.31-.24-1.64-.37-3.28-.38-4.94Z"/><path class="cls-26" d="M505.63,217.62c.27,.63,.84,.74,1.43,.83-.59,.21-1.18,.6-1.77,.6-1.66,.01-3.86,1.67-4.81,.09-.9-1.5,.91-3.25,1.94-4.72,1.82,.31,1.69,2.58,3.2,3.2Z"/><path class="cls-40" d="M505.63,217.62c-3.39,1.25-1.87-2.4-3.2-3.2,.65-.85,1.54-1.21,2.59-1.23,.94,1.37,1.68,2.77,.61,4.43Z"/><path class="cls-8" d="M475.06,222.34c.15-.4,.22-.86,.47-1.19,.74-.95-.32-3.46,2.36-2.76,1.34,.35,2.72,1.14,2.64,2.44-.11,1.77-1.81,2.14-3.39,2.2-.81,.14-1.85,.93-2.08-.69Z"/><path class="cls-13" d="M475.06,222.34c.51,.78,1.34,.6,2.08,.69-1.66,1.03-3.57,.56-5.34,.76-1.18,.13-3.09-.17-3.11-2.11-.02-2.18,1.55-3.06,3.53-3.66-.7,3.84,.12,5,2.84,4.32Z"/><path class="cls-35" d="M486.97,226.03c0-1.16-.58-2.38,.34-3.45-.04,1.16,.47,2.37-.34,3.45Z"/></svg>