<?xml version="1.0" encoding="UTF-8"?><svg id="Layer_1" xmlns="http://www.w3.org/2000/svg" viewBox="0 0 1000 1000"><defs><style>.cls-1{fill:#f8d49d;}.cls-2{fill:#f2f1f0;}.cls-3{fill:#010101;}.cls-4{fill:#eeeded;}.cls-5{fill:#f0efef;}.cls-6{fill:#e3e3e3;}.cls-7{fill:#fff;}.cls-8{fill:#9f8865;}.cls-9{fill:#9f9e9f;}.cls-10{fill:#a18a67;}.cls-11{fill:#8e3333;}.cls-12{fill:#909090;}.cls-13{fill:#b3b2b3;}.cls-14{fill:#321515;}.cls-15{fill:#331b1a;}.cls-16{fill:#8e4746;}.cls-17{fill:#a68e6a;}.cls-18{fill:#a58d69;}.cls-19{fill:#a58e6a;}.cls-20{fill:#bfbebe;}.cls-21{fill:#c0bebe;}.cls-22{fill:#bebfc1;}.cls-23{fill:#c9c7c7;}.cls-24{fill:#15120b;}.cls-25{fill:#252017;}.cls-26{fill:#251e1d;}.cls-27{fill:#241f17;}.cls-28{fill:#251514;}.cls-29{fill:#241615;}.cls-30{fill:#231f1a;}.cls-31{fill:#231110;}.cls-32{fill:#221f19;}.cls-33{fill:#211e1a;}.cls-34{fill:#1c2022;}.cls-35{fill:#371d1c;}.cls-36{fill:#442322;}.cls-37{fill:#181e21;}.cls-38{fill:#3f2120;}.cls-39{fill:#465a64;}.cls-40{fill:#898989;}.cls-41{fill:#626262;}.cls-42{fill:#292621;}.cls-43{fill:#2c271d;}.cls-44{fill:#2d271d;}.cls-45{fill:#2c1514;}.cls-46{fill:#351615;}.cls-47{fill:#2f1918;}.cls-48{fill:#3a85a7;}.cls-49{fill:#311a19;}.cls-50{fill:#3b1f1e;}.cls-51{fill:#27221a;}.cls-52{fill:#393125;}.cls-53{fill:#2e1918;}.cls-54{fill:#4d2726;}.cls-55{fill:#4b3f30;}.cls-56{fill:#622826;}.cls-57{fill:#797878;}.cls-58{fill:#5e2f2f;}.cls-59{fill:#532a29;}</style></defs><path class="cls-3" d="M536.26,737.35c-2.35,10.14-6.76,19.67-8.81,29.9-.67,3.35-1.37,6.69-1.86,10.06-.24,1.69-.48,3.51,1.82,4.39,1.44,.55,1.63,2.24,1.94,3.55,2.26,9.67,5.92,18.86,9.35,28.15,3.22,8.71,6.78,17.26,10.35,25.82,1.33,3.18,0,5.62-2.56,7.2-4.9,3.02-10.22,4.16-16.03,2.97-13.26-2.72-18.85-12.37-21.63-24.21-1.28-5.43-3.3-10.23-6.75-14.6-4.85-6.13-4.4-12.67-1.45-19.66,4.9-11.62,6.95-24.02,7.97-36.49,1.44-17.5,1.47-35.07,1.11-52.61-.34-16.33,3.75-31.7,9.6-46.6,2.21-5.62,2.97-10.79,1.7-16.51-2.07-9.27-3.18-18.68-4.25-28.12-1.26-11.2-5.96-21.46-9.79-31.95-5.21-14.29-10.66-28.53-12.83-43.71-.85-.94-1.04-.08-1.03,.48,.13,4.9-.49,9.81,.34,14.69-.3,12.41-1.13,24.73-3.67,36.95-2.32,11.16-1.79,22.72-3.6,33.92-1.32,8.14-.21,16.08-.42,24.1-.11,4.28-.13,8.72-1.23,12.8-2.84,10.56-1.05,21.15-.97,31.74,.05,6.85-.32,13.7-.45,20.54-.2,10.64,.58,21.28,1.76,31.89,1.53,13.83,3.37,27.71,3.49,41.59,.12,13.05,.73,26.05,1.36,39.06,.2,4.16,.82,8.31,1.12,12.47,.85,11.81-3.63,22.23-9.35,32.02-3.4,5.82-13.47,8.33-18.92-.32-5.16-8.19-6.36-15.91-3.62-25.12,4.15-13.92,6.88-28.23,9.69-42.48,.59-2.99,.54-5.99-.38-9.02-3.79-12.51-7.54-25.03-12.23-37.24-.56-1.45-1.41-3.03-.86-4.76-.33-1.17-.83-2.36,.43-3.33,1.19,.31,1.33,1.41,1.74,2.32,.34,1.77,.95,3.41,2.18,4.78,4.54,9.85,8.81,19.77,10.73,30.54,.74,4.17,1.03,4.26,5,3.46,2-.41,4.01-.78,6.05-.79,2.6-.01,3.15-1.28,2.8-3.7-.92-6.3-2.45-12.49-3.46-18.77-2.22-13.84-3.19-27.74-2.23-41.79,.77-11.31,.09-22.65-.9-33.94-.64-7.37-.93-14.63,1.23-21.94,1.95-6.61,1.09-13.66,2.04-20.47,1.24-8.86-.08-17.76-.05-26.64,.03-8.86,.75-17.61,2.83-26.13,3.11-12.77,3.68-25.66,3.44-38.68-.13-7.13-.15-14.27,.04-21.39,.07-2.7-.87-3.59-3.51-3.52-10.19,.26-20.36-.22-30.45-1.8-1.89-.3-3.02,.2-2.9,2.31,.48,8.38-2.88,15.96-4.98,23.79-1.11,4.12-.89,8.7-3.88,12.24-.16,.19-.21,.49-.4,.65-5.26,4.44-3.4,9.74-1.82,15,6.48,21.6,12.24,43.37,15.29,65.77,.67,4.94,.81,9.95,.08,14.86-1.32,8.95-2.33,17.91-2.8,26.94-.06,1.15-.3,2.27-.77,3.33-.97,1.73-.61,3.64-.81,5.48-.14,1.34,.31,3.17-1.98,3.25-1.05-3.61-.56-7.32-.37-10.94,.5-9.74,1.38-19.47,1.98-29.21,.5-7.99-1.21-15.74-2.54-23.58-2.62-15.35-5.3-30.67-9.61-45.66-1.61-5.6-3.75-11.06-4.2-16.94-.13-1.73-.98-2.9-2.39-4.01-2.5-1.95-4.75-4.23-7.07-6.4-6.31-5.9-8.78-12.81-6.92-21.56,1.68-7.9,2.48-15.93,4.8-23.77,1.54-5.22,1.41-10.96,1.83-16.48,1.28-16.91-.28-33.82-.03-50.74,.16-10.39,1.73-20.43,5.76-30.03,.47-1.12,.43-2.23,.43-3.37,.03-9.15-1.1-18.22-2.41-27.24-.9-6.19-.52-12.41-.81-18.61-.56-11.82-.44-23.7-.07-35.54,.26-8.39,1.27-16.81,8.21-22.91,1.23-1.08,.66-2.02,.19-3.04-3.53-7.53-3.48-15.23-1.1-23.03,1.47-4.83,1.93-9.42-.61-14.28-2.17-4.16-1.28-9.02-.69-13.52,1.58-12.2-.86-23.75-4.88-35.14-1.74-4.92-3.39-9.87-5.03-14.82-5.41-16.3-.11-29.96,10.73-42.04,5.56-6.21,12.79-8.95,21.18-8.15,1.39,.13,1.63-.48,2.01-1.59,5.58-16.46,24.19-29.92,41.35-29.88,6.26,.01,11.3,2.66,15.09,7.64,2.94,3.85,5.76,7.77,7.46,12.38,2.16,5.83,5.55,10.77,10.39,14.76,3.6,2.97,4.4,7.25,4.81,11.65,.28,3.02,.6,6.06,1.13,9.04,.49,2.81,1.88,5.15,4.06,7.15,4.38,4,5.27,9.45,5.47,14.99,.34,9.41-.31,18.83,.49,28.25,.37,4.34,.69,8.71,2.52,12.64,5.06,10.88,4.87,22.23,3.35,33.68-1.51,11.4,.69,21.84,7.31,31.29,1.2,1.21-.88,1.27-.72,2.12,.49,.7,.31,1.58,.72,2.3,1.21,2.94,1.86,6.05,2.7,9.1,4.04,14.67,8.35,29.26,12.25,43.96,2.66,10.01,3.87,20.53,7.53,30.13,2.5,6.55,.62,10.78-2.54,15.68-6.98,10.8-15.34,20.55-23.18,30.7-3.42,4.43-7.59,8.64-9.3,13.87-1.73,5.29,1.64,10.67,2.48,16.07,1.04,6.73,2.53,13.4,3.92,20.07,1.07,5.12,3.46,9.95,4.1,15.24,.36,3,1.07,5.99,1.18,8.99,.59,15.81,2.21,31.54,3.92,47.26,.77,7.1,.53,14.22,.6,21.34,.13,12.48-.27,25,.66,37.42,.67,8.91,.51,17.8-.84,26.41-1.36,8.68-3.65,17.41-7.49,25.53-.31,.65-.39,1.42-.57,2.13-.54,.68-.46,1.62-1.02,2.3-1.4,1.73-1.6,.45-1.86-.72,.01-.35,.07-.7,.17-1.04,.53-1.48,.95-3,1.41-4.51,.11-.36,.25-.71,.39-1.06,.21-.59,.61-1.16,.55-1.78-.5-5.47,1.26-10.6,2.38-15.83,.51-3.14,.87-6.3,2.46-9.17,.75-1.36,.7-3.01,.51-4.51-2.23-18.11-1.39-36.35-2-54.51-.64-19.23-3.54-38.22-4.77-57.37-.11-1.78-.13-3.57-.08-5.35,.07-2.64-.91-3.72-3.7-3.14-11.48,2.38-23.16,3.49-34.76,5.07-4.96,.68-9.91,.57-14.87,.53-2.75-.02-3.18,.9-2.47,3.45,5.12,18.28,11.62,36.11,17.59,54.1,3.26,9.83,5.63,19.8,6.79,30.11,1.05,9.36,3.53,18.47,5.53,27.66,.8,3.69-.7,6.79-2.14,9.86-2.56,5.43-4.67,11-6.35,16.77-3.85,13.21-4.97,26.5-4.27,40.34,1.09,21.46,1.52,43.07-4.74,64.06-.81,2.72,.23,4.12,2.72,4.85,.98,.29,1.98,.5,2.98,.66,4.8,.74,5.31,.33,5.74-4.55,1.05-11.8,4.86-22.87,9.06-33.83,1.27-3.32,2-6.86,3.84-9.96,1.72-1.62,1.58-4.48,3.93-6.23,.68,1.67,.76,2.94,.18,4.26h0c-1.27,2.38-1.75,5-2.32,7.59Z"/><path class="cls-33" d="M552.96,679.96c.11,.58,.22,1.17,.37,1.98,.77-1,1.4-1.83,2.04-2.66-4.66,14.08-9.31,28.15-13.97,42.23-.91,2.76-1.87,5.5-2.81,8.24v-3.4c-1.79,1.82-1.21,4.45-3.16,5.65-1.06-1.32-.47-2.69,0-3.97,5.47-14.87,10.64-29.85,15.05-45.08,.37-1.28,.73-2.77,2.49-3Z"/><path class="cls-42" d="M448.12,700.03c1.72-1.39,.68-3.32,.98-4.99,.25-1.42-.66-3.09,.89-4.24,1.91,4.57,1.3,9.47,1.66,14.2,.87,11.39,1.83,22.72,4.71,33.82,.53,2.05,1.28,4.2-.27,6.2-1.28,.79-.63,2.13-.92,3.2-2.63-6.9-3.02-14.28-4.63-21.39-1.99-8.82-1.42-17.87-2.41-26.79Z"/><path class="cls-41" d="M493.45,550.09c-1.47-6.13-.78-12.28-.7-19.08,1.67,1.48,1.56,2.68,1.39,3.91-2.03,4.09,.1,8.39-.63,12.55-.15,.85-.05,1.74-.06,2.62Z"/><path class="cls-33" d="M536.26,737.35c-.1-2.8,.35-5.43,2.32-7.59-.47,2.62-1.17,5.17-2.32,7.59Z"/><path class="cls-26" d="M558.57,313.11c-.64-.32-1.05-.86-.74-1.51,.34-.71,.81-.1,1.21,.1,.82,.42,.77-.26,.91-.71,.95,.44,1.08,1.18,.8,2.09-.72,.68-1.45,.54-2.19,.03Z"/><path class="cls-9" d="M558.57,313.11c.73,0,1.46-.02,2.19-.03,1.36,1.34-.47,1.57-.81,2.32-1.01-.43-.76-1.62-1.38-2.29Z"/><path class="cls-48" d="M449.65,440.68c-1.1,.71-1.92,1.54-2.09,2.98-2.02,17.89-6.48,35.38-8.77,53.22-.5,3.89-.24,7.88-.22,11.82,0,1.68-.36,2.87-2.3,2.38-4.16-1.05-7.96,.45-12.18,1.62,.88-6.08,1.81-11.99,2.59-17.91,1.8-13.68,.95-27.44,.95-41.16,0-7.68,.71-15.15,2.63-22.6,3.63-14.09,3.25-28.38,1.47-42.7-.67-5.42-.43-10.94-.49-16.37-.15-14.08-1.87-28.22,.4-42.27,.9-5.57,2.68-10.82,7.24-14.74,2.95-2.54,6.58-3.34,10.11-4.15,4.81-1.1,9.75-1.61,14.64-2.38,1.36-.04,1.23,.72,.85,1.61,.31,2.27,1.85,1.75,3.15,1.24,3.96-1.53,7.97-1.4,12-.47,4.76,1.1,9.58,1.16,14.42,.93,3.26-.15,6.36,.33,9.01,2.31,1.91,1.42,4.1,2.07,6.1,1.13,7.26-3.41,15.59-2.22,22.82-5.47,5.12-2.3,10.32-1.93,15.64-1.23,3.23,.42,4.76,2.63,6.12,5.16,3.9,7.25,5.34,15.32,7.72,23.08,3.58,11.67,6.07,23.6,8.77,35.48,1.25,5.48,3.57,10.6,5.69,15.77,2.03,4.95,2.56,10.36,5,15.17,.68,1.35-.36,2.7-.99,3.88-3.36,6.3-7.48,12.06-11.94,17.65-7.12,8.93-14.64,17.56-20.72,27.29-.67,1.07-1.24,2.19-2.04,3.61-1.96-5.69-2.95-11.4-5.29-16.64-.78-1.74,.4-2.61,1.3-3.62,4.92-5.49,9.6-11.18,14.08-17.05,1.77-2.32,2.31-5.37,4.67-7.28,3.47-4.79,2.8-10,1.52-15.26-4.9-11.4-6.93-23.66-10.66-35.41-.46-1.45-.6-3.04-1.25-4.39-4.06-8.53-4.96-17.73-5.94-26.92-.27-2.57-.99-4.98-2.41-7.16-.48-.73-.89-1.69-1.99-1.43-.93,.22-.83,1.14-.96,1.87-1.04,5.71-.08,11.4,.7,16.99,1.9,13.52,1.45,26.78-2.39,39.93-2.26,7.72-5.5,15.04-8.6,22.41-2.64,6.27-2.98,12.43-.39,18.82,9.5,23.48,16.71,47.63,21.41,72.55,1.19,6.31,3.4,12.46,5.07,18.7,.9,3.37,.07,4.19-2.84,4.67-9.26,1.52-18.52,2.98-27.83,4.17-18.22,2.33-36.5,2.71-54.81,1.84-6.82-.32-13.61-1.21-20.42-1.86-.37-.04-1.01-.11-1.06-.29-1.1-4.13-5.48-6.53-5.89-10.94-.88-9.41,2.12-18.36,3.72-27.44,1.54-8.73,3.66-17.37,4.98-26.15,.32-2.13,.74-3.8,3.04-5.08,2.34-1.3,2.84-4.37,3.76-6.88,3.02-8.24,2.29-17.06,3.92-25.51,1.46-7.59,1.14-14.57-3.63-21.28-2.98-4.18-5.05-9.16-6.75-14.05-2.58-7.42-1.19-15,.04-22.57,1.64-10.12,3.01-20.3,3.18-30.59,.01-.83-.15-1.66-.23-2.54-1.67,.18-1.69,1.25-1.81,2.23-1.02,8.86-3.27,17.44-5.57,26.03-2.18,8.12-3.67,16.49-2.07,24.82,1.54,8.03,6.02,15.02,9.87,22.17-.17,.43-.41,.81-.73,1.15-1.86,2.49-1.84,5.44-1.88,8.31-.1,6.94-.03,13.88-.03,20.82,0,2.75-.31,5.43-1.38,7.99Z"/><path class="cls-1" d="M552.96,679.96c-2.85,6.22-4.69,12.8-6.5,19.35-2.72,9.78-6.88,19.04-9.93,28.69-.42,1.32-.73,2.67-1.1,4.01-5.14,14.02-11.2,27.77-12.74,42.87-.06,.63,.04,1.29-.11,1.9-.37,1.51,1.41,3.93,.21,4.17-1.84,.36-3.89,.88-5.89,.61-1.25-.17-2.49-.47-3.72-.75-4.83-1.08-5.4-2.16-4.05-6.93,2.97-10.54,4.73-21.27,4.75-32.24,.03-13.88-.04-27.75-.49-41.62-.47-14.43,3.21-28.21,8.63-41.44,2.88-7.03,5.97-13.23,3.25-21.58-4.99-15.27-4.41-31.86-9.83-47.15-3.95-11.14-7.3-22.47-11.3-33.6-3.18-8.83-5.46-17.98-8.28-26.95-.64-2.05-.05-2.42,1.81-2.33,12.24,.57,24.32-1.03,36.37-2.87,5.63-.86,11.24-1.82,16.84-2.85,2.46-.45,3.64-.2,3.74,2.86,.55,17.21,2.95,34.27,4.52,51.4,.93,10.1,.95,20.31,.9,30.47-.08,13.36,.71,26.66,1.48,39.98,.18,3.08-2.85,5.43-2.64,8.7,.05,.72-.35,1.46-.54,2.2-1.75,4.75-3.16,9.55-2.6,14.72,.16,1.42-.53,2.66-1.26,3.84l.03-.06c-.68,1.5-.78,3.19-1.56,4.65v-.03Z"/><path class="cls-1" d="M456.09,745.02c-.07-5.49-1.72-10.75-2.91-16-1.76-7.76-1.62-15.62-2.54-23.4-.58-4.93-.56-9.87-.64-14.81,.47-4.88,.91-9.76,1.44-14.64,.62-5.78,1.32-11.55,2-17.33,.88-7.51-.25-14.93-1.56-22.24-3.46-19.22-8.22-38.13-14.11-56.76-.95-3-1.36-6.17-2.17-9.22-.25-.93-.05-1.39,.65-1.88,4.42-3.07,6.09-7.46,6.93-12.67,.83-5.1,2.51-10.1,4.2-15.02,1.64-4.77,1.94-9.61,1.3-14.48-.27-2.03,.49-1.88,1.73-1.65,11.82,2.13,23.75,2.1,35.69,2.09,.89,0,2.25-.7,2.16,1.51-.28,6.86-.52,13.74-.27,20.6,.62,17.09-.73,33.94-4.66,50.61-.99,4.18-1.2,8.53-1.05,12.86,.3,8.74-1.29,17.52,.65,26.22,.48,2.15-1.26,3.81-1.28,6.05-.05,6.59,.44,13.53-1.46,19.66-2.12,6.86-2.12,13.58-1.63,20.27,.86,11.69,1.62,23.4,.83,35.04-.81,12,.1,23.85,1.34,35.68,.96,9.16,3.08,18.2,4.76,27.27,.43,2.3,.67,3.79-2.68,3.53-3.26-.25-6.74,.17-9.7,1.54-2.93,1.35-3.16-.14-3.44-2.18-1.67-11.97-6.39-22.91-11.31-33.8-.99-1.34-.93-3.06-1.6-4.52-.91-.59-.43-1.57-.66-2.35Z"/><path class="cls-16" d="M534.75,302.4l-1.39-.1c-1.75-.74-2.75-2.65-4.71-3.07-.82-.92-1.98-.48-2.96-.76-2.19-3.76-1.37-8.15-2.39-11.24-.22-1.4-.88-.61-.42-.84,.15-.07,.27,0,.28,.22,.12,3.71,2.05,7.29,.8,11.09-1.86,1.54-3.05,.08-3.5-1.24-1.82-5.43-2.88-11.03-2.56-16.81,.06-1.01,.44-1.54,1.52-1.8,5.81-1.41,8.85-5.07,11.44-10.68,4.21-9.12,5.43-18.51,5.29-28.11-.15-10.39-1.7-20.69-6.18-30.29-.71-1.53-1.06-3.03-.03-4.84,2.22,1.48,1.38,3.81,2.07,5.54,.35,.86,.47,2.28,1.76,2.13,1.09-.13,1.54-1.26,1.59-2.34,.1-2.28,.25-4.57,.15-6.85-.11-2.35-.67-4.66-3.33-5.43-2.41-.7-4.18,.36-5.35,3.12-1.97-3.63-3.71-6.79-5.39-9.97-1.09-2.07,.59-2.96,1.82-4.02,.77-1.3,1.65-2.48,3.22-2.89,.21,.15,.4,.33,.62,.44,1.31,.67,.89,3.69,2.85,2.85,1.96-.83,1.03-3.18,.82-4.86-.23-1.88-.73-3.74-1.3-5.55-1.22-3.85-3.21-4.25-5.91-1.25-.51,.56-.86,1.26-1.36,1.84-.56,.64-.96,1.7-2.01,1.49-1.02-.21-1.14-1.29-1.35-2.12-.88-3.34-.97-6.75-.94-10.2,.04-6.11-3.4-9.87-9.46-10.19-8.05-.43-15.66,1.31-22.58,5.55-7.11,4.35-8.83,11.39-9.16,19.02-.13,3.03-.02,6.07-.02,9.99-3.64-3.19-6.42-6.23-9.67-8.73-11.24-8.64-27.99-5.27-33.12,6.97-3.98,9.49-3.16,18.6,3.35,26.9,2.43,3.1,1.61,5.62-2.25,6.87-1.09,.35-1.93,.72-1.42,2.1,.94,2.57,4.39,3.78,7.19,2.51,2.1-1,2.16,.81,2.62,1.96,1.53,3.86,1.1,7.91,1.14,11.02,.19-3.77,.14-8.41-1.54-12.89-.31-.82-.6-1.69,.03-2.52,2.27-2.1,3.42-4.87,4.58-7.64,1.5-.46,.85,1.18,1.51,1.54,.5,3.37,.94,6.69,.86,10.15-.09,3.72,3.03,6.52,4.03,10.03,.27,.96,.86,1.84,1.38,2.7,1.19,1.99,2.52,3.78-1.51,4.08-1.71,.13-2.57,1.59-2.11,3.73,1.34,6.29,10.78,15.22,17.08,15.87,.25,.03,.56,.1,.76,0,5.09-2.63,8.26,1.49,12.08,3.39,2.71,1.34,3.4,3.67,3.03,6.29-.23,1.65-.36,3.29-.3,4.93,.26,7.31,.61,14.62-7.77,18.24-1.61,.37-2.02-.74-2.21-1.91-1-6.18-3.28-11.98-5.15-17.9-.41-1.31-.47-2.71-.27-3.25-.5,3.17,1.4,6.62,2.5,10.19,1.37,4.46,3.12,8.82,2.67,13.63-2.8,3.82-5.81,7.23-11.27,6.18-2.16,1.07-2.44-.07-2.73-1.96-.63-4.13-.45-8.32-1.17-12.45-.77-4.41-3.22-7.97-5.35-11.7-3.04-5.35-5.43-10.84-4.35-17.27-1.29,7.8,2.17,14.19,6.11,20.32,4.68,7.3,4.38,15.1,2.94,23.11-.06,.34-.51,.54-.84,.73-5.44,.45-10.95,.71-15.79,3.67-2.58,1.58-3.26,.46-4.12-2.02-2.48-7.17-.96-14.06,.94-20.94,1.03-3.72,.79-7.44-.31-10.9-1.89-5.96-1.94-11.92-1.34-18,.97-9.82-.95-19-4.62-28.25-3.44-8.67-5.85-17.93-7.35-27.16-2.64-16.24,11.67-36.58,27.67-40.7,1.92-.49,3.46-.03,4.55,1.22,6.65-16.16,18.9-24.91,35.36-28.07,12.38-2.38,15.7,2.24,21.74,11.63,2.93,4.56,3.91,10.3,8.38,13.94,.49,.4,.85,1.05,1.4,1.28,7.36,3.02,8.45,9.56,9.05,16.27,.54,5.98,2.39,11.33,6.22,16.04,2.23,2.74,2.83,6.09,3.28,9.59,.87,6.87-.17,13.68-.12,20.51,.74,3,.15,6.04,.33,9.06,.02,.38,.12,.95-.09,1.11-3.95,3.14-1.68,7.5-2.26,11.3-.11,8.21-2.07,16.1-4.52,23.85-3.06,9.72-3.45,19.38-.39,29.17,.43,1.38,1.95,3.37-.76,4.38Z"/><path class="cls-1" d="M515.61,193.84c9.65,14.05,14.39,29.72,16.12,46.59,.91,8.88-1.8,17-4.69,24.78-1.98,5.34-7.33,8.93-14.1,8.97-8.66,.06-16.58-2.15-23.95-6.52-14.34-8.5-25.77-19.75-32.85-35.04-1.99-4.29-3.63-8.69-3.21-13.57,.7-2.07,.41-4.22,.48-6.34,.29-8.78,4.56-12.91,13.31-13.11,5.36-.12,10.87,1.52,16.06-1.12,.96-1.09,1.92-2.19,2.88-3.28,3.38-.57,5.44-3.04,7.64-5.31,1.14-1.18,2.11-2.53,3.5-3.46,1.88-1.25,3.72-1.31,4.9,.76,2.9,5.07,6.92,7.57,12.87,6.27,.37-.08,.74,.11,1.03,.38Z"/><path class="cls-7" d="M558.97,409.3c-.63,.35-1.17,.78-1.33,1.54-.71,1.13-1.42,2.26-2.56,3.04-2.96,2.79-5.85,5.62-8.28,8.92-2.41,3.27-5.12,6.31-8.24,10.12-1.83-5.23-3.12-10.08-5.19-14.58-3.49-7.61-1.79-14.4,2.07-21.21,1.69-2.99,2.65-6.3,3.3-9.71,1.63-8.62,3.38-17.21,5.13-25.81,.27-1.31,.32-3.18,2.13-3.15,1.75,.02,1.27,1.88,1.61,3.02,2.79,9.2,4.92,18.63,8.99,27.41,1.37,1.57,1.81,3.57,2.54,5.44-.25,1.5,.38,2.68,1.37,3.73,3,4.51,2.44,8.64-1.52,11.25Z"/><path class="cls-1" d="M433.79,514.9c2.81-.11,3.87,1.46,5.42,3.71,6.81,9.9,4.19,20.13,2.02,30.46-.93,4.42-.64,9.09-2.86,13.26-.46,.87-.77,1.73-1.48,2.52-2.4,2.72-4.25,3.13-6.95,.01-3-3.46-5.98-6.9-8.72-10.57-1.25-1.66-1.8-3.43-1.18-5.35,2.98-9.25,3.25-18.94,4.55-28.44,.48-3.47,1.76-4.53,4.71-4.86,1.5-.17,2.99-.5,4.48-.76Z"/><path class="cls-16" d="M539.38,245.15c-.02-2.53-.08-5.06-.03-7.59,.03-1.67-.52-3.67,2.32-3.86,1.23-.08,.67-1.43,.7-2.21,.08-2.65,.05-5.31,.06-7.97,1.26,1.85,.73,3.96,.66,5.92-.22,6.58,.93,12.88,3.55,18.88,4.75,10.86,4.68,22.1,2.97,33.53-1.04,6.93,.04,13.57,3.32,19.81,.96,1.09,.95,2.6,1.67,3.79v-.02c.06,1.35-.62,1.25-1.5,.78-2.73-.17-4.21-1.66-5.17-4.2-3.41-9.04-4.86-18.21-3.5-27.92,.7-5.02,.12-10.22-.08-15.33-4.81,13.86-6.28,27.73-.27,41.67,.49,1.14,1.88,2.47,1.16,3.42-.9,1.19-2.77,.35-4.2,.37-1.06,.02-2.13-.71-3.2-1.11-.66-.4-1.2-.85-1.47-1.65-3.55-10.63-4.49-21.23-.57-32.05,3.48-9.61,5.3-19.57,5.05-29.65-.63,1.63,1.35,4.11-1.46,5.37Z"/><path class="cls-1" d="M514.05,281.77c-.1,6.67-.56,13.42,4.1,19.07,.87,1.05,.2,1.63-.71,1.98-4.14,1.6-8.36,3.01-11.45,6.51-.88,1-1.7,.23-1.99-.68-1.08-3.38-4.17-4.61-6.9-5.42-3.87-1.16-7.09-3.06-10.13-5.56-1.18-.97-1.99-1.7-1.35-3.45,.96-2.6,1.59-5.32,2.36-7.99,4.82-2.36,9.7-4.45,15.27-4.09,2.3,.15,4.56-.17,6.81-.72,1.34-.33,2.74-.76,3.99,.33Z"/><path class="cls-11" d="M480.49,195.18c-2.5-6.37-.84-12.77,.08-19.1,.49-3.4,2.89-5.97,5.57-7.95,6.6-4.87,14.17-6.67,22.28-6.39,2.63,.09,4.13,1.35,4.26,4.27,.23,4.85,1.04,9.62,3.97,13.71,2.48,3.47,4.09,3.42,6.76,.19,.96-1.16,2.11-3.95,3.16-3,2.02,1.82-1.22,2.99-1.8,4.63-.54,1.21-.57,2.84-2.44,2.95-1.78,1.19-3.53,2.46-5.36,3.57-3.48,2.09-6.75,.97-8.31-2.82-.43-1.05-.65-2.18-.96-3.28-1.65-5.75-5.99-7.69-11.17-4.52-4.39,2.69-8.99,5.35-11.5,10.24-1.56,.09-1.4-1.15-1.65-2.09,1.05-8.74,7.21-15.62,15.89-17.75,5.02-.19,7.13,1.17,9.1,5.66,1.04,2.37,1.15,5.18,3.25,7.06-1.64-1.47-1.9-3.62-2.58-5.54-2.41-6.87-5.9-8.66-12.78-6.45-8.64,4.01-13.53,10.5-13.27,20.3,.05,1.94-.7,3.73-.74,5.65-.03,1.07-.73,1.63-1.77,.66Z"/><path class="cls-11" d="M472.84,192.92c-1.56,0-2.68,.13-3.76-.02-12.8-1.72-22.86,8.79-23.89,20.38-.4,4.46-1.74,6.84-4.62,9.5,1.17-6.31-2.07-11.16-3.34-16.5-2.09-8.78,1.01-17.99,7.77-21.72,6.54-3.62,18-3.7,24.18,3.66,1.13,1.35,2.75,2.29,3.66,4.71Z"/><path class="cls-18" d="M514.05,281.77c-4.77,1.18-9.6,1.72-14.53,1.48-2.46-.12-4.56,1.25-6.76,2.17-1.52,.64-3.11,.99-4.78,.81,.42-3.77,1.06-7.53,.75-11.35-.17-2.2,.58-2.65,2.64-1.8,6.71,2.76,13.61,4.91,20.92,5.35,2.5,.15,1.81,1.89,1.75,3.34Z"/><path class="cls-18" d="M515.61,193.84c-6.63,1.88-11.68,.27-14.65-6.37-.94-2.11-2.48-1.35-3.68-.19-2.28,2.19-4.41,4.53-6.69,6.73-1.36,1.31-2.78,2.82-4.92,1.21,2.23-6.3,6.82-10.65,12.15-14.25,3.38-2.29,5.43-1.32,6.71,2.6,1.06,3.26,2.06,6.45,5.08,8.71,1.93,1.45,4.29,.05,6,1.57Z"/><path class="cls-19" d="M482.79,198.48c-2.86,2.4-5.87,3.37-9.78,2.46-3.01-.7-6.35-.5-9.47-.14-4.42,.52-7.28,3.07-8.43,7.59-.9,3.52-.45,7.31-2.16,10.65,.26-2.93-1.06-5.6-1.41-8.38-.97-7.77,5.17-14.32,13.29-14.64,4.08-.16,8.05,.56,12.01,1.45,1.97,.44,3.98,.68,5.97,1.01Z"/><path class="cls-29" d="M539.38,245.15c1.64-3.06-.16-6.53,1.1-9.71,1.82,.59,1.17,2.09,1.23,3.19,.56,10.16-.81,20.12-4.47,29.55-4.59,11.84-3.52,23.36,.59,34.94-1.06-.09-2.26,.37-3.08-.72,.79-.52,.78-1.26,.49-2.02-4.8-12.32-2.97-24.4,.95-36.54,1.94-6.03,3.17-12.28,3.19-18.69Z"/><path class="cls-34" d="M449.65,440.68c.04-10.18-.04-20.36,.19-30.54,.06-2.69-.47-5.96,2.92-7.51,1.41,1.44,1.19,3.28,1.22,5.04,.06,4.33-.04,8.65,.07,12.98,.02,4.69,.24,9.39-.23,14.07-.75,1.86-.76,3.89-1.29,5.8-.3,.41-.68,.49-1.13,.25-.06-.79-.11-1.58-.18-2.55-.9,.8-.28,2.21-1.56,2.47Z"/><path class="cls-47" d="M457.48,305.41c1.59-8.15,1.57-16.07-3.06-23.44-3.98-6.33-6.98-13-6.18-20.77,.14-1.32-.19-2.84,1.96-3.97-1.98,9.74,1.88,17.5,6.78,25.04,3.8,5.84,3.76,12.51,3.51,19.15-.06,1.72-.19,3.47,2.39,3.2q-2.69,.89-3.46-3.75c-1.22,1.27,1,3.99-1.94,4.53Z"/><path class="cls-5" d="M452.85,435.2c.06-4.77,.13-9.54,.19-14.32,.63-4.68,.06-9.38,.33-14.07,.06-1.01-.98-2.74,1.27-2.87,2.88,3.28,1.43,7.41,1.7,11.03,.46,6.01-.41,12.14-.93,18.21-.13,1.56-.42,3.27-1.51,4.61-2.22-.11-1.19-1.53-1.05-2.59Z"/><path class="cls-2" d="M489.52,307.04c-5.46-.59-10.85-2.18-16.77-1.74,3.11-2.04,6.01-4.91,9.42-5.79,2.01-.52,4.99,1.93,6.9,3.96,1.07,1.14,2.26,2.02,3.58,2.78-.61,1.99-1.99,.94-3.14,.79Z"/><path class="cls-31" d="M480.49,195.18c2.35-.27,1.32-2.11,1.36-3.26,.14-3.9-.08-7.79,1.4-11.58,2.45-6.32,6.9-10.38,13.22-12.55,1.13-.27,2.42-1.2,3.05,.7-8.78,2.29-13.24,8.49-15.3,16.87-.32,1.77-.77,3.55,.02,5.32-.21,1.58-1.63,2.61-1.71,4.38-.06,1.34-1.26,1.26-2.04,.11Z"/><path class="cls-4" d="M532.23,306.87c-4.91-.08-9.41,2.32-14.3,2.38-.42-.42-1.25-.63-.76-1.51,2.3-1.14,5.21-1.43,6.18-4.42,3.17-1.87,6.16-1.2,9.05,.68l-.04-.02c.54,.44,1.75,.13,1.69,1.16-.05,.98-.95,1.42-1.82,1.72Z"/><path class="cls-35" d="M474.15,298.45c-1.31-6.6-3.38-12.98-5.37-19.39-.75-2.44-1.1-4.86,1.55-7.93-1.06,4.4-.08,7.53,1.04,10.62,1.65,4.53,3.25,9.07,3.77,13.91,.1,.96,.52,1.68,1.46,2.04-.56,1.09-1.54,.81-2.46,.76Z"/><path class="cls-15" d="M443,224.39c2.8,5.92,2.66,12.13,2.11,18.7-1.88-1.19-1.28-2.73-1.29-4.01,0-3.59-.51-7.08-1.51-10.52-.26-.91-.38-1.76-1.58-1.74,.75-.81,1.5-1.62,2.26-2.43Z"/><path class="cls-37" d="M558.97,409.3c3.33-3.37,2.46-7.31,1.52-11.25,1.04-.48,.96-1.44,1-2.35,2.9,5.08,3.55,10.99-1.52,15.26-.04-.74-.27-1.35-1.01-1.66Z"/><path class="cls-54" d="M523.96,297.7c-.23-1.35-.68-2.72-.63-4.06,.11-3-1.39-5.88,.23-9.06,.71,4.63,1.42,9.26,2.13,13.89-.58-.26-1.15-.51-1.73-.76Z"/><path class="cls-12" d="M466.49,258.19c-2.8-1.83-5.31-3.96-7.79-7.35,4.45,1.02,6.58,3.75,8.74,6.44,.11,.75-.15,1.11-.95,.91Z"/><path class="cls-33" d="M554.48,675.4c1.77-4.77-.2-10.09,2.2-14.79,.62-1.22,.67-2.7,1.66-3.77-.98,5.35-2.88,10.56-2.31,16.16,.09,.89-.49,1.94-1.54,2.4Z"/><path class="cls-22" d="M454.64,403.95c-1.73,2.13-.47,4.61-.81,6.91-.49,3.32,.9,6.8-.79,10.03,.2-6.09,.4-12.18-.27-18.25,.3-.07,.61-.15,.91-.22,.32,.51,.64,1.02,.96,1.54Z"/><path class="cls-20" d="M517.17,307.74c.25,.5,.51,1.01,.76,1.51-2.22,.28-4.21,1.69-6.87,1.42,1.5-2.51,3.89-2.56,6.11-2.92Z"/><path class="cls-29" d="M532.4,304c-2.96-1.03-5.93-1.79-9.05-.68,2.56-2.72,5.4-2.5,9.05,.68Z"/><path class="cls-6" d="M452.85,435.2c.15,.95-.03,2.03,1.05,2.59-.31,1.51-.62,3.02-.93,4.52-1.46,.08-1.21-.78-.9-1.66,.56-1.78-.58-3.79,.78-5.45Z"/><path class="cls-45" d="M522.34,184.5c.81-.98,1.63-1.97,2.44-2.95,.04,1.09,.69,1.55,1.69,1.65-1.07,.97-2.15,1.93-3.22,2.89-.01-.7-.25-1.27-.91-1.59Z"/><path class="cls-26" d="M553.1,306.22c.5-.26,.99-.52,1.49-.78,1,.91,1.84,1.91,2.12,3.56-2.06-.2-2.39-2.06-3.6-2.78Z"/><path class="cls-56" d="M484.24,190.68c-2.34-1.76-.57-3.54-.02-5.32,.11,.83-.15,1.79,.82,2.32-.27,1-.53,2-.8,3Z"/><path class="cls-57" d="M466.49,258.19l.95-.91c1.12,.71,2.54,1.1,2.95,2.91-1.79,.05-2.83-1-3.9-2Z"/><path class="cls-37" d="M559.13,394.32c-.85-1.81-1.69-3.62-2.54-5.44,1.99,1.28,2.62,3.19,2.54,5.44Z"/><path class="cls-40" d="M452.07,440.66c.16,.63-.06,1.47,.9,1.66,.08,1.03,.1,2.02-1.19,2.46-.78-1.32-.41-2.69-.38-4.03,.22-.07,.44-.1,.66-.1Z"/><path class="cls-13" d="M489.52,307.04c.97-.55,2.3,.3,3.14-.79,.92-.04,1.7,.16,2.21,1.41-1.95,.51-3.66,.12-5.35-.62Z"/><path class="cls-29" d="M528.65,299.23c2.34-.16,3.35,1.72,4.71,3.07-2.2-.06-3.21-1.94-4.71-3.07Z"/><path class="cls-29" d="M532.23,306.87c1.32-.9,1.69-1.85,.13-2.88,.97-.04,2.23-.31,2.22,1.17,0,1.4-1.08,1.81-2.36,1.72Z"/><path class="cls-33" d="M552.95,679.99c.03-1.71,.63-3.23,1.56-4.65,.16,1.78-.16,3.39-1.56,4.65Z"/><path class="cls-42" d="M456.75,747.37c1.16,1.28,1.47,2.87,1.6,4.52-1.6-1.13-1.68-2.79-1.6-4.52Z"/><path class="cls-26" d="M554.6,305.46c-1.13-1.01-1.39-2.41-1.67-3.79,1.5,.85,1.71,2.27,1.67,3.79Z"/><path class="cls-37" d="M555.09,413.88c.52-1.29,1.51-2.19,2.56-3.04-.04,1.7-.97,2.64-2.56,3.04Z"/><path class="cls-59" d="M449.09,218.29c-.5-.51-1.01-1.03-1.51-1.54,.11-.55,.14-1.47,.94-1.07,1.04,.52,.48,1.7,.57,2.61Z"/><path class="cls-39" d="M464.46,310.02c-.28-.54-.57-1.07-.85-1.61,.39-.58,1.09-1.05,1.54-.55,.82,.89-.12,1.54-.69,2.16Z"/><path class="cls-24" d="M456.6,654.06c0-.25-.02-.51,0-.76,.15-1.68-.47-4.15,1.84-4.34,2.64-.21,1.9,2.59,2.11,4.05,.48,3.31,1.51,6.37,2.94,9.35,.55,1.14,1.21,2.26,1.53,3.47,.36,1.39,.27,2.93-1.33,3.57-1.52,.61-2.38-.63-3-1.69-2.47-4.2-4.14-8.67-4.09-13.63Z"/><path class="cls-25" d="M476.21,638.82c.89,9.21,1.44,17.33-.77,25.37-.29,1.06-.25,3.02-1.99,2.6-1.25-.3-.76-1.98-.59-3.01,.93-5.9,.68-11.85,.97-17.78,.11-2.27,.19-4.48,2.39-7.19Z"/><path class="cls-28" d="M477.31,152.42c4.07-5.3,9.3-8.87,15.7-10.89,8.32-2.63,13.86-.75,18.63,6.65,.89,1.39,1.71,2.83,2.56,4.25,.16,.79-.15,1.1-.94,.94-2.62-1.75-3.54-4.86-5.66-7.06-3.36-3.47-7.38-4.57-11.79-3.51-6.89,1.66-12.93,5.02-17.61,10.52-.75,.15-1.08-.1-.88-.89Z"/><path class="cls-49" d="M449.83,297.94c-.37-7.14-6.55-13.24-3.63-20.92-.04,7.23,5.78,13.33,3.63,20.92Z"/><path class="cls-53" d="M476.81,268.43c2.15,6.06,4.3,12.12,6.45,18.17-4.91-5.08-6.78-11.29-7.58-17.91,.38-.09,.75-.18,1.13-.27Z"/><path class="cls-50" d="M524.94,169.47c-2.44,2.82-3.76,.97-4.39-1.32-.58-2.1-.52-4.38-.75-6.68,2.01,.61,1.85,2.22,2.05,3.66,.2,1.44,.03,3.15,2.14,3.4,.77-.15,1.11,.15,.96,.94Z"/><path class="cls-38" d="M477.31,152.42c.29,.3,.59,.59,.88,.89-1.03,1.52-2.06,3.04-3.09,4.57-1.4,.06-1.23-.68-.79-1.55,.74-1.5,1.53-2.96,2.99-3.9Z"/><path class="cls-58" d="M474.31,156.33c.04,.63,.14,1.23,.79,1.55-.66,.83-.35,2.25-1.83,2.87-.66-1.81,.17-3.12,1.04-4.42Z"/><path class="cls-36" d="M513.26,153.36c.31-.31,.63-.62,.94-.94,.84,.68,1.77,1.32,1.17,2.67-1.18-.05-1.59-.96-2.11-1.73Z"/><path class="cls-59" d="M524.94,169.47c-.32-.31-.64-.63-.96-.94,.51-.6,1.02-1.83,1.88-1,.85,.82-.38,1.38-.92,1.94Z"/><path class="cls-17" d="M478.16,211.41c4.33-.46,5.97,1.22,5.02,5.15-1.89,7.81-8.27,10.28-14.87,12.48,1.13-4.32,4.61-7.2,6.76-10.9,1.26-2.17,2.9-4.1,3.1-6.74Z"/><path class="cls-17" d="M514.95,208.48c-1.71,4.99-3.25,6.04-8.93,6.08-6.4,.05-9.84-2.2-11.82-7.73,.81-.37,1.5,.04,2.21,.33,5.62,1.9,11.24,3.81,17.15,1.02,.47-.22,.98-.07,1.39,.29Z"/><path class="cls-30" d="M506.44,258.71c2.23-5.08,6.91-7.97,12.15-7.74,1.16,.05,2.37-.04,2.98,1.19,.67,1.37-.04,2.71-.99,3.39-3.4,2.43-6.96,4.84-11.46,3.4-.91-.29-1.7,.37-2.67-.24Z"/><path class="cls-27" d="M520.12,214.6c.41,.58,1.02,.98,.35,1.93-2.85,4.04-13.44,8.1-18.22,6.84-.29-.08-.49-.52-.85-.93,3.15-1.5,6.88-1.13,9.6-3.45,3.09-1.36,5.17-4.82,9.12-4.38Z"/><path class="cls-52" d="M510.47,243.69c2.1-7.01-3.04-8.1-7.19-10-.34-.16-.66-.39-.96-.62-1.63-1.31-4.93-2.91-3.97-4.34,1.2-1.78,2.58,1.68,4.33,2.18,2.05,.59,3.91,2.14,5.97,2.4,4.02,.51,4.72,2.73,3.93,6.06-.32,1.32-.1,2.85-2.11,4.32Z"/><path class="cls-51" d="M514.95,208.48c-6.6,3.85-12.95,1.99-19.25-.84-.02-1.5,.89-1.21,1.79-.94,5.55,.97,11.1,2.04,16.67,.02,.65-.23,1.61-.43,1.74,.66,.04,.32-.61,.72-.94,1.09Z"/><path class="cls-43" d="M478.16,211.41c1.67,1.44,.52,2.9-.25,4.03-3.11,4.6-6.39,9.08-9.61,13.6-1.22,.61-2.47,.34-1.47-1.05,3.95-5.42,6.43-11.83,11.32-16.59Z"/><path class="cls-44" d="M483.45,228.92c1.77-.53,3.88-3.19,5.1-1.26,.84,1.34-2.13,2.95-3.9,3.71-3.99,1.73-7.88,3.91-12.47,3.61-1.03-1.92,.65-2.3,1.73-2.87,3-1.56,6.28-2.35,9.53-3.2Z"/><path class="cls-10" d="M483.45,228.92c-3.04,1.34-6.09,2.66-9.12,4.04-.92,.42-2.38,.35-2.15,2.03-1.61-1.88-1.33-3.41,1.03-4.21,3.31-1.12,6.64-2.27,10.24-1.86Z"/><path class="cls-8" d="M520.12,214.6c-3.22,1.09-5.67,3.77-9.12,4.38,1.3-2.28,3.67-3.36,5.65-4.82,.99-.73,2.53-1.36,3.46,.44Z"/><path class="cls-55" d="M497.48,206.7c-.65,.2-1.42,.19-1.79,.94-.5-.27-1-.54-1.5-.81,1.02-2.04,2.18-.39,3.29-.13Z"/><path class="cls-32" d="M433.65,544.36c.45,5.3,.67,10.07,1.31,14.78,.41,3.04-.95,2.73-2.64,1.72-3.17-1.89-4.35-4.79-3.59-8.41,.65-3.08,1.43-6.12,2.04-9.21,.27-1.37,.24-3.32,1.88-3.21,1.98,.13,.99,2.18,1.15,3.42,.06,.48-.16,.99-.15,.91Z"/><path class="cls-46" d="M499.52,168.5c-.83-1.04-2.02-.54-3.05-.7,5.98-2.21,10.86-.31,12.86,5.27,1.18,3.29,1.98,6.7,4.58,9.31-3.93-.73-4.8-3.9-5.82-6.97-1.83-5.47-3.26-6.61-8.57-6.91Z"/><path class="cls-14" d="M450.59,194.01c-2.31,3.89-3.22,8.44-5.54,12.3,.43-4.77,1.52-9.22,5.54-12.3Z"/><path class="cls-21" d="M509,257.08c2.93-2.44,5.32-3.85,8.51-3.52-1.87,2.37-2.46,2.62-8.51,3.52Z"/><path class="cls-23" d="M432.67,554.6c-.19,.73,.48,1.96-.86,2.06-.93,.07-1.73-.61-1.5-1.67,.21-.99,0-2.57,1.48-2.55,1.11,.02,.77,1.32,.88,2.16Z"/></svg>