<?xml version="1.0" encoding="UTF-8"?><svg id="Layer_1" xmlns="http://www.w3.org/2000/svg" viewBox="0 0 1000 1000"><defs><style>.cls-1{fill:#f3f2f2;}.cls-2{fill:#f8d49d;}.cls-3{fill:#f7d39d;}.cls-4{fill:#f8f8f8;}.cls-5{fill:#010101;}.cls-6{fill:#050203;}.cls-7{fill:#020202;}.cls-8{fill:#f4f4f3;}.cls-9{fill:#fcfcfc;}.cls-10{fill:#ec0485;}.cls-11{fill:#fff;}.cls-12{fill:#fbfafa;}.cls-13{fill:#e90684;}.cls-14{fill:#efeeed;}.cls-15{fill:#6b5b45;}.cls-16{fill:#a1a09f;}.cls-17{fill:#8e3333;}.cls-18{fill:#8d7859;}.cls-19{fill:#b3b3b3;}.cls-20{fill:#743b3a;}.cls-21{fill:#ba9c75;}.cls-22{fill:#332f2a;}.cls-23{fill:#8e4746;}.cls-24{fill:#bebdbd;}.cls-25{fill:#c4c3c3;}.cls-26{fill:#d6d5d5;}.cls-27{fill:#c5c4c4;}.cls-28{fill:#df0d7f;}.cls-29{fill:#150d0d;}.cls-30{fill:#120808;}.cls-31{fill:#13110f;}.cls-32{fill:#191010;}.cls-33{fill:#180d0d;}.cls-34{fill:#1f1212;}.cls-35{fill:#201010;}.cls-36{fill:#221413;}.cls-37{fill:#0b0807;}.cls-38{fill:#0b0b0a;}.cls-39{fill:#231413;}.cls-40{fill:#421b1b;}.cls-41{fill:#432222;}.cls-42{fill:#413c35;}.cls-43{fill:#12100f;}.cls-44{fill:#080807;}.cls-45{fill:#1b1916;}.cls-46{fill:#0d0605;}.cls-47{fill:#1a0d0c;}.cls-48{fill:#110b0b;}.cls-49{fill:#1d1919;}.cls-50{fill:#1d1311;}.cls-51{fill:#1e0f0e;}.cls-52{fill:#1c1a16;}.cls-53{fill:#411b1b;}.cls-54{fill:#361a1a;}.cls-55{fill:#191611;}.cls-56{fill:#0a0a09;}.cls-57{fill:#3e8db0;}.cls-58{fill:#3f3628;}.cls-59{fill:#3f3433;}.cls-60{fill:#1c0c0b;}.cls-61{fill:#a38967;}.cls-62{fill:#a38866;}.cls-63{fill:#a38966;}.cls-64{fill:#6e5c45;}.cls-65{fill:#a28866;}.cls-66{fill:#534c44;}.cls-67{fill:#6e6e6e;}.cls-68{fill:#6d5c46;}.cls-69{fill:#2b2121;}.cls-70{fill:#2c1818;}.cls-71{fill:#2d1e23;}.cls-72{fill:#391716;}.cls-73{fill:#3a85a7;}.cls-74{fill:#32282b;}.cls-75{fill:#3a3125;}.cls-76{fill:#393630;}.cls-77{fill:#385e71;}.cls-78{fill:#574b3a;}.cls-79{fill:#2e281e;}.cls-80{fill:#2f2b25;}.cls-81{fill:#4c4132;}.cls-82{fill:#4c2626;}.cls-83{fill:#47212f;}.cls-84{fill:#4d4232;}.cls-85{fill:#7a3d3c;}.cls-86{fill:#7b2c2c;}.cls-87{fill:#792c2b;}.cls-88{fill:#28221a;}.cls-89{fill:#51493e;}.cls-90{fill:#522937;}</style></defs><path class="cls-7" d="M423.93,335.1c4.49-6.78,6.46-14.73,10.17-21.87,2.22-4.26,4.22-8.72,7.07-12.53,2.94-3.92,7.42-5.45,12.44-4.73,1.57-1,3.56-.76,5.14-1.73,4.37-1.17,8.84-1.78,13.33-2.28,1.46,0,2.94,.18,4.4-.08,.34-.1,.68-.17,1.03-.22,.34-.05,.69-.05,1.03-.03,.33,.04,.66,.11,.99,.19,1.17,.38,2.22,.1,3.19-.62,.95-.55,1.99-.67,3.05-.71,1.74-.06,3.49-.08,4.75-1.6,3.1-8.29,4.42-16.38-2.08-23.87-2.42-2.79-4.15-6.08-6.04-9.23-1.03-3.89-4.71-6.49-5.21-10.65-2.71-4.67-3.17-10.01-4.53-15.08-1.61-2.91,.03-5.96-.4-8.92-.18-.72-.29-1.44-.38-2.18-.14-1.11-.55-2.18-.52-3.32,1.09-5.93,2.58-11.61,7.63-15.66,1.36-1.09,2.17-2.82,2.88-4.46,1.11-2.55,.34-3.47-2.49-3.14-1.73,.21-3.02,1.25-4.43,2.11-.87,.52-1.94,1.21-2.8,.41-1.01-.93-.43-2.12,.14-3.15,.18-.34,.4-.65,.63-.95,2.83-3.79,2.77-3.74-.48-7.47-2.95-3.39-4.99-7.35-6.72-11.46-.5-1.19-.79-2.63,.43-3.5,1.33-.94,2.39,.19,3.33,1.01,2.03,1.77,3.44,4.07,5.07,6.18,1.09,1.42,2.24,2.8,3.76,3.75,3.14,1.98,6.3,.5,6.54-3.22,.19-2.93,.54-5.83,1.15-8.68,2.18-10.22,14.62-14.07,22.57-7.26,4.94,4.23,6.55,10.14,9.07,15.64,.75,1.63,.68,3.9,3.01,4.5,.75,.31,1.05,.94,1.23,1.67,.15,.98,.39,1.6,1.66,1.04,2.48-1.09,5.04-1.99,7.7-2.56,1.51-.13,3.04-.03,4.49-.56,9.47-1.02,13.79,1.79,15.86,11.03,1.06,4.72,2.8,8.33,7.95,9.3,1.27,1.23,3.64,.29,4.53,2.28-.12,.4-.36,.72-.71,.95-3.24,.7-4.04,2.83-3.84,5.91,.18,2.77,.29,5.59-.3,8.36-.58,1.72-.25,3.51-.44,5.26-.14,1.23-.1,2.85-1.73,2.91-1.69,.05-1.69-1.58-1.8-2.81-.3-3.26,.29-6.55-.41-9.79-.35-1.24-.43-2.52-.35-3.78,.16-2.66-.69-4.57-3.2-5.91-3.53-1.9-4.81-5.45-5.76-9.08-1.87-7.14-2.62-7.77-9.97-7.48-4.33,.17-8.48,1.65-12.81,1.91-3.61,1.05-5.81-.92-7.7-3.57-4.71-3.19-10.06-7.04-15.21-2.65-5.16,4.4-12.32,7.34-13.89,15.31-.53,2.67-2.19,5.3-4.48,6.96-3.66,2.66-4.35,6.39-4.48,10.4-.08,2.4-.3,4.84,.39,7.21,1.48,19.12,11.12,34.28,23.67,47.87,2.83,3.06,5.97,6.24,10.37,7.45,7.96,2.19,13.94-1.99,19.87-6.15,2.05-1.44,3.42-3.77,5.82-4.85,2.12-.49,2.87-3.46,5.5-3.03,.8,1.43-.24,2.33-.95,3.33-2.19,3.05-2.88,7.3-7.49,8.41-1.36,.33-2.35,2.16-3.28,3.52-1.43,1.64-3.15,2.82-5.24,3.42-5.76,.11-11.53,1.84-17.25-.73-2.09-.94-3.79-2.57-6.05-3.09-1.42-.16-2.48-1.12-3.76-1.74-.92,1.17-.74,2.62-1.12,3.9-.14,.7-.42,1.34-.78,1.94-.24,3.45-2.6,6.66-1.19,10.3,.92,1.45,1.95,2.81,3.03,4.14,1.12,1.93,2.68,3.42,4.59,4.56,1.97,2.28,5.18,3.15,6.73,5.91-.2,.88-.89,1.14-1.65,1.3-1.85,.29-3.22-.84-4.71-1.61-1.42-.84-2.8-1.73-3.71-3.16-1.31-1.91-2.96-3.46-4.88-4.73-.62-.45-1.25-.93-1.63-1.59-1.31-2.29-2.77-2.23-4.99-.99-3.97,2.23-8.87,2.1-13.07,4.85,4.79,.68,9.31,1.84,13.96,1.62,4.68-.22,9.09,.15,12.78,3.44,4.05,2.19,8.09,4.47,12.91,2.3,5.16-1.96,10.17-4.6,16.02-2.67,1.1,.36,2.52,.31,3.73-.26-2.25-3.84-5.64-4.91-9.37-3.26-4.3,1.9-8.49,3.99-12.4,6.62-.39,.05-.77,.01-1.15-.1-.82-.37-1.12-1.05-1.15-1.89,.87-4.28,4.43-6.08,7.77-7.65,3.43-1.62,4.96-3.46,3.57-7.25-.51-1.39-.25-3-.24-4.52,.07-1.62,.21-3.22,1.53-4.4,1.26-.36,1.5,.58,1.74,1.42,.31,1.1,.1,2.27,.31,3.38,1.5,8.06,1.63,8.76,8.32,10.24,2.55,.57,4.79,1.32,6.09,3.84,.47,.91,1.47,1.36,2.5,1.55,6.42,3.51,12.99,6.52,20.41,7.31,2.26,.24,4.18,1.74,6.14,2.89,1.32,.56,.47,2.24,1.52,2.94,3.85,3.85,2.71,9.04,3.44,13.65,1.13,7.16,.25,14.38-.36,21.57-.35,4.04,.04,8.15-.14,12.21-.59,13.3-1.18,26.6-1.99,39.88-.52,8.56,.81,16.95,2.13,25.3,1.98,12.53,.79,24.97,.1,37.48-.73,13.36-2.07,26.73,.77,40.13,1.09,5.16,3.94,9.2,5.9,13.78,.24,2.17,1.42,4.83-2.52,4.79-3.75-2.32-4.09-6.52-5.57-10.09-1.42-3.41-4.09-4.42-7.28-2.73-2.8,1.48-7.31,11.08-6.61,14.23,.68,3.11,1.06,6.27,1.76,9.37,.33,1.49,.64,3-.1,4.49-.24,.36-.55,.65-.91,.88-2.21,1.02-3.86,.55-4.2-2-.47-3.54-1.37-7-1.69-10.55-.36-3.92,.32-7.59,2.41-10.99,.56-.91,1.6-1.98,.65-3.09-.71-.83-1.91-.37-2.91-.31-13.86,.85-27.73,.48-41.59,.23-1.89-.62-3.17-.35-2.22,1.99,4.93,12.12,8.92,24.68,16.72,35.44,1.72,2.37,3.19,4.9,4.99,7.21,.21,.28,.39,.57,.56,.87,.69,1.52,1.5,2.96,2.68,4.17,.22,.26,.4,.54,.57,.83,.58,1.22,1.26,2.37,2.17,3.37,.66,.86,1.21,1.77,1.61,2.78,.16,1.35,1.36,3.18-1.45,3.16-1.45-.64-2.51-1.78-3.32-3.05-7.74-12.19-17.14-23.33-23.12-36.64-1.36-3.02-2.68-6.02-3.41-9.26-.1-1.43-.6-2.74-1.19-4.02-.34-.94-.65-1.93-.66-2.91-.01-2.34-1.13-3.37-3.42-3.27-5.81-.85-11.64-.31-17.45-.39-7.21-.1-14.42-.01-21.64-.03-1.77,0-3.55,.02-5.23-.68-4.6-1.8-5.09-1.53-5.98,3.28-.18,.95-.21,2.01-1.44,2.36-1.08-.78-.52-1.76-.34-2.69-.59-2.07,.6-5.07-3-5.56-.71-.1-1.01-.87-.82-1.51,1.54-5.08-.63-9.97-.7-14.96-.16-12.93,3.48-25.17,6.49-37.57,3.1-12.78,8.18-24.63,15.79-36.42-8.38,.57-15.89,1.02-23.38,1.61-2.52,.2-5.04,.26-7.57,.66-4.9,.77-7.09-.91-9.25-6.35-2.77-7-2.76-6.95-10.56-5.86-3.43,.48-6.84-.27-10.24-.65-1.65-.18-2.11-1.59-2.61-2.93-4.87-13.1-1.98-24.71,6.92-35.03,1.42-1.64,1.46-2.74,.82-4.65-2.22-6.64-4.15-13.38-6.19-20.08,.53-2.49,2.26-1.6,3.77-1.33,1.71,.98,2.24,2.67,2.59,4.45,2.18,11.02,5.79,21.57,10.02,31.95,.85,2.09,1.99,2.86,4.25,2.86,15.75-.02,31.47-1.35,47.23-.85,1.91,.06,3.58-.25,3.7-2.74,.31-6.63,4.13-11.26,8.87-15.34,1.01-.89,2.4-1.01,3.5-1.73,.65-.41,1.33-.77,2.07-.95,2.57-.63,3.03-2.11,2.28-4.55-2.27-7.39-3.85-14.96-5.12-22.59-.51-3.06-2.09-4.16-5.06-3.34-.79,.26-1.6,.46-2.42,.58-15.33,.72-30.61,2.41-45.99,1.71-2.18-.1-4.29,.32-6.4,.81-1.12,.18-2.09-.2-2.99-.81-.84-.43-1.99-.53-1.95-1.87Z"/><path class="cls-5" d="M514.15,835.8c-1.36-1.66-2.67-3.34-4.71-4.28-6.22-2.87-9.53-7.86-9.76-14.61-.28-8.47,.5-16.9,1.78-25.27,.26-1.73,.9-3.43,2.13-4.8,.29-2.11,.42-4.35,3.53-3.93,.63,.07,1.2,.27,1.7,.67,.2,4.34,4.06,6.78,8.77,5.57,1.39-.36,2.58-1.06,3.71-1.9,2.41-1.78,4.51-1.28,6.33,.94,2.92,3.57,5.18,7.58,7.23,11.66,2.69,5.35,4.9,10.96,6.55,16.69,2.01,6.96,6.7,12.05,11.53,16.76,3.74,3.65,8,7.01,12.83,9.51,4.74,2.46,5.11,6.39,1.46,10.32-1.79,1.92-4.05,3.44-6.53,3.76-8.82,1.11-17.7,2.08-26.47-.52-6-1.78-9.87-6.28-13.02-11.2-2.09-3.26-3.24-7.16-4.74-10.68-.43,.79-.95,1.77-2.34,1.32Z"/><path class="cls-38" d="M514.15,835.8c.81-.59,1.63-1.18,2.82-2.05,.97,1.94,2.29,3.72,2.78,5.7,1.43,5.81,5.61,9.5,9.59,13.4,1.03,1.01,2.23,1.66,3.61,2.05,6.25,1.75,12.49,2.86,19.07,1.68,4.05-.73,8.34,.43,12.19-2.15,2.5-1.67,4.61-3.73,4.65-6.54,.03-2.5-2.54-3.59-4.7-4.9-9.3-5.65-17.65-12.64-22.3-22.64-2.97-6.39-4.78-13.36-7.76-19.8-2.02-4.36-4.61-8.44-7.52-12.28-1.3-1.71-2.82-1.81-4.6-.42-4.49,3.51-8.88,3.65-13.61,.45-2.45-1.66-.21-3.01,.47-4.43,2.37-1.61,4.36,.3,6.52,.66,2.07,.46,4.19,1.64,6.03-.52,.33-.79,.55-1.67,1.53-1.96,2.59,.57,5.05,1.5,7.63,2.83,.44-1.81-.11-3.31-.61-4.6-1.9-4.91-1.32-9.98-1.45-15.02-.07-2.66,1.53-4.82,1.76-7.36,.11-1.26,.63-2.81-.94-3.31-2.7-.87-3.73-2.72-4.15-5.31-.23-1.42-1.48-2.31-2.42-3.34-1.54-1.68-2.97-1.67-4.46,.07-.64,.75-1.04,1.78-2.17,2.03-1.86-1.22-1.33-3.01-1.14-4.72,.45-1.91,2.96-2.12,3.36-4.09,1.85-.49,2.78,.93,3.84,1.94,2.29,2.17,4.49,4.43,7.04,7.18,1.89-5.94,3.28-11.54,5.73-16.76,.94-3.46,2.54-6.61,4.45-9.61,8.65-16.19,18.53-31.63,27.98-47.34,8.79-14.61,17.3-29.43,22.87-45.69,1.69-4.95,3.23-9.92,3.84-15.14,.26-2.22,0-4.28-.85-6.34-7.7-18.58-14.07-37.67-21.62-56.31-.84-2.07-2.05-3.41-4.18-4.06-2.19-.67-4.4-1.38-6.35-2.61-1.07-.67-2.79-1.15-1.72-3.09l-.07,.09c1.46-1.34,3.1-.73,4.66-.34,3.06,.76,6.15,1.36,9.24,1.98,1.8,.36,2.32-.29,2.75-2.02,1.28-5.16,1.36-10.41,1.56-15.65,3.57,.33,1.93-2.58,2.54-4.09,.63,3.65,1.77,7.3,1.74,10.95-.02,4.16-.92,8.35-2.52,12.29-1.33-1.56-1.01-3.34-.41-4.99,1.04-2.91,1.29-5.87,1.07-8.92,.23,2.92-.06,5.78-.99,8.56-.6,1.8-1.08,3.63,.36,5.31-1.27,3.04-1.66,5.86-.32,9.24,5.65,14.25,10.41,28.88,16.55,42.91,4.35,9.94,3.15,19.03-.27,28.62-4.5,12.6-10.37,24.52-16.72,36.25-9.57,17.66-19.06,35.37-28.5,53.1-4.3,8.08-9.13,15.84-13.09,24.13-3.35,7.01-4.11,14.25-4.57,21.73-.49,7.96,1.15,15.59,2.54,23.35,2.21,12.27,6.97,23.6,12.73,34.37,4.14,7.73,10.04,14.6,17.71,19.49,1.61,1.02,3.32,1.91,4.82,3.07,3.75,2.93,4.36,6.3,2,10.32-2.95,5.02-6.97,8.66-12.86,9.84-1.11-.71-2.32-.27-3.49-.33-.5-.02-.77,.21-.27,.12,.02,0,.08,.21,.12,.32-3.9,1.2-7.82,2.08-11.89,.84,1.77-1.03,3.7-.32,5.54-.6-1.85,.37-3.8-.52-5.58,.58-1.03-.07-2.1,0-2.92-.83-.81-1.22-1.94-.78-3.02-.57-9.19-2.47-15.37-8.33-19.3-16.86-1.25-2.71-2.88-5.24-4.33-7.85Z"/><path class="cls-56" d="M507.31,783.79c-2.62-.68-2.98,1.42-3.72,3.04-.47-5.95-2.41-11.6-3.84-17.32-3.15-12.64-7.89-24.78-12.52-36.98-5.38-14.16-12.14-27.85-15.47-42.76-1.24-5.53-.79-11.14-.51-16.71,.71-14.29,2.55-28.55,1.32-42.89-.76-8.89-4.01-17.2-6.85-25.54-5.11-14.96-10.03-29.99-13.14-45.48-2.39-11.89-3.19-24.03-3.48-36.18-.04-1.65-.1-3.32,.78-4.84,.06,.6,.12,1.19,.25,2.42,1.32-2.63-.66-5.64,1.77-6.95,1.66-.9,3.88-1.06,5.71,.33-4.22,.91-4.63,3.93-4.27,7.5,1.77,17.32,3.17,34.63,8.09,51.55,4.16,14.3,8.92,28.41,12.82,42.78,1.76,6.49,3.03,13.08,2.87,19.92-.27,11.44-.4,22.86-1.26,34.31-.86,11.45,1.82,22.65,6.19,33.48,7.4,18.3,13.19,37.18,19.32,55.94,.77,3.35,2.3,6.47,3.06,9.83,.5,4.94,2.22,9.65,2.9,14.55Z"/><path class="cls-37" d="M459.11,295.18c-1.64,1.62-3.66,.59-5.5,.79,1.19-1.04,.6-2.4,.56-3.6-.22-6.78,.39-13.38,2.45-19.93,1.85-5.87,1.19-11.69-1.35-17.45-5.04-11.43-9.62-23.22-8.25-35.96,2.2-20.36,4.69-41.25,18.29-57.52,9.19-11,21.23-19.65,37.4-17.58,3.58,.46,6.87,1.77,9.92,3.66,5.3,3.28,6.87,3.26,11.4-.76,6.55-5.8,14.4-8.58,22.9-9.31,10.04-.86,23.25,7.66,27.51,17.36,1.63,3.7,3.67,7.33,3.32,11.61,.34,5.46,1.81,10.89,.59,16.79-2.75-2.48-1.17-5.58-2.07-8.06-.73-2.18-1.03-4.47-1.58-6.7-.96-11.49-7.52-19.12-17.07-24.66-2.35-1.36-4.91-2.04-7.66-2.04-9.62,0-18.32,2.42-25.59,9.09-2.71,2.49-5.76,3.57-9.39,1.42-2.51-1.49-5.36-2.34-8.13-3.3-5.62-1.69-11.21-1.64-16.78,.18-12.75,6.1-24.45,13.31-29.68,27.54-2.15,5.86-4.25,11.73-5.78,17.79-2.02,8.04-3.67,16.15-4.21,24.43-.57,8.78,1.27,17.23,4.35,25.4,2.15,5.72,3.56,11.7,6.04,17.3,1.07,2.41,.92,4.95,.42,7.51-1.02,5.26-2.9,10.32-3.66,15.61-.51,3.53-1.76,7.35,1.55,10.39Z"/><path class="cls-6" d="M482.06,334.26c.54-.25,1.08-.49,1.62-.74,2.61,.75,2.93,3,3.1,5.13,.66,7.98,1.25,15.97,3.52,23.7,.51,1.75-.76,3.15-.6,4.79-.42,1.3-1.76-.18-2.3,.76-3.18,.33-4.19-1.97-4.94-4.31-1.73-5.37-2.47-10.89-2.31-16.54,.04-1.51,.22-3.04-.17-4.81-3.84,.62-7.7,1.02-11.53,1.67-14.05,2.41-28.19,3.93-42.44,4.36-3.95,.12-7.82,1.06-11.78,.88-1.67-.08-3.31-.09-4.74-1.11-1.33,.16-2.83-.55-3.92,.78-.6-1.73-1.8-3.57,.94-4.62,.69,1.14,1.57,1.53,2.79,.77,1.32-.83,2.82-.92,4.31-1.04,1.24-.17,2.54,.05,3.72-.57,7.33-2.38,14.97-1.95,22.49-2.5,5.59-.41,11.1-1.37,16.67-1.93,6.06-.6,12.13-1.35,18.19-2.09,2.6-.31,5.42-.29,7.36-2.59Z"/><path class="cls-49" d="M576.9,174.47c1.68,2.34,.08,5.15,1.14,7.93,1.31-5.56-1.11-10.71-.29-15.92,.95,3.67,1.74,7.42,1.43,11.17-.73,9.03,.07,18.03,.09,27.04,0,2.84-.25,5.64-1.27,8.24-4.11,10.48-6.29,21.11-3.31,32.29,.05,1.04,1.11,2.43-.96,2.72-3.8-5.64-3.58-12.05-3.24-18.38,.23-4.3,.76-8.66,2.42-12.69,2.57-6.27,3.05-12.78,2.92-19.44-.12-6.1-.03-12.2,0-18.3,0-1.61-.33-3.35,1.07-4.67Z"/><path class="cls-69" d="M573.86,247.86c.91-.68,.66-1.72,.84-2.63,2.93,11.34,2.14,22.33-3.36,32.77-2.5,4.74-4.54,9.59-5.14,14.97-.86,2.12-.19,4.35-.43,6.51-.11,.99,.57,2.29-.95,2.83-1.84-1.04-1.95-2.88-1.96-4.64-.02-5.62,.76-11.1,3.29-16.22,1.51-3.06,3.09-6.09,4.44-9.24,2.76-6.46,3.56-13.14,2.6-20.07-.21-1.49-.64-3.03,.67-4.28Z"/><path class="cls-28" d="M413.82,344.86c-1.65,.08-3.3,.23-4.67,1.23-2.86,2.1-3.08,.6-2.62-1.88,.1-.15,.24-.2,.41-.14,5.61-2.14,10.66-5.35,15.89-8.25,.27-.39,.49-.86,1.1-.74,.43,.99,1.23,1.02,2.11,.8,1,3.34-2.35,3-3.68,4.37-.95,.45-1.91,.89-2.83,1.43-1.72,1.38-4.04,1.68-5.71,3.16Z"/><path class="cls-59" d="M564.71,302.15c1.33-1.65,.43-3.58,.69-5.36,.18-1.29-.47-2.76,.81-3.82-.94,7.22,1.41,13.92,3.23,20.71,.32,1.2,.49,2.45,.73,3.67-1.2-.3-.77-1.89-1.82-2.3-2.85-3.84-4.85-7.92-3.64-12.9Z"/><path class="cls-71" d="M422.82,335.83c-4.56,4.16-9.83,6.97-15.89,8.25,4.98-2.93,9.96-5.86,14.96-8.74,.16-.09,.61,.32,.93,.5Z"/><path class="cls-5" d="M537.78,860.52c1.34-1.58,2.35-1.4,3.02,.57-1.01-.16-2.11,.15-3.02-.57Z"/><path class="cls-5" d="M555.65,861.1c-.21-.25-1.65-.3-.46-.7,1.2-.41,2.9-.68,4.1,.59-1.21,.04-2.42,.07-3.63,.11Z"/><path class="cls-73" d="M469.85,300.64c-.97,.78-2.43,1.33-2.28,2.82,.18,1.65,1.83,1.49,2.98,1.79,5.41,1.4,10.85,2.71,16.25,4.13,1.4,.37,2.79,.55,4.14,.16,4.94-1.43,9.24,.38,13.34,2.69,2.04,1.15,3.65,1.43,6.01,.73,9.28-2.76,18.7-3.05,28.14-.63,.97,.25,2.08,.61,2.98,.38,8.81-2.29,15.5,3.58,23.03,6.05,2.72,.89,3.74,3.47,4.13,6.66,2.02,16.76,.53,33.47-.18,50.19-.47,10.9-1.42,21.78-2.04,32.68-.39,6.77,1.76,13.16,3.18,19.67,2.53,11.65,2.47,23.46,1.25,35.27-.71,6.8-1.72,13.58-2.3,20.39-.68,8.08,1.4,15.84,3.48,23.81-4.55-.67-8.31,.74-11.95,4.18-.76-7.15-2.07-13.67-2.02-20.18,.11-13.14-1.87-26.06-3-39.07-.52-5.94-1.01-11.87-1.59-17.8-.45-4.62-1.39-8.98-2.89-13.33-1.38-4.01-.69-8.1,.59-11.99,2.86-8.68,5.88-17.31,8.93-25.93,1.91-5.4,3.34-10.96,4.34-16.56,1.07-6-.86-11.82-2.68-17.52-2.16-6.77-4.64-13.46-4.76-20.69-.01-.76,.01-1.67-.95-1.83-1.13-.18-1.53,.77-1.77,1.63-1.12,4.05-.34,8.09,.19,12.11,.82,6.22,2.92,12.1,5.25,17.88,1.33,3.28,1.12,6.26,.04,9.59-4.34,13.41-8.62,26.86-12.52,40.4-1.67,5.8-.38,11.69,.59,17.66,1.84,11.36,2.05,22.99,3.96,34.34,2.15,12.83,2.67,25.73,3.48,38.64,.22,3.46,1.38,6.69,2.04,10-9.57,1.56-19.12,1.19-28.64,1.37-23.93,.46-47.82-1.31-71.75-.96-2.89,.04-3.93-.57-3.83-3.69,.13-3.78-.76-7.58-.77-11.37-.05-11.76,2.71-23.07,5.58-34.39,2.87-11.34,5.94-22.59,11.04-33.18,.65-1.36,1.12-2.8-.18-4.37,7.76-.63,15.09-1.22,22.41-1.81,.13-.01,.25,0,.38,0,10.54-.29,12.57-2.84,9.56-12.64-1.1-3.58-1.86-6.52,2.83-7.93,1.16-.35,2.2-1.29,3.14-2.14,2.85-2.56,5.52-5.03,4.12-9.69-1.01-3.35-.98-7-1.53-10.5-.78-4.97-2.75-9.25-7.6-11.53-2.2-1.04-2.87-2.84-3.47-5.05-2.36-8.68-4.97-17.3-7.45-25.95-1.01-3.55-3.54-5.66-7.2-5.62-10.28,.14-20.49,1.33-30.71,2.34-8.55,.85-17.19,.69-26.24,2.5,4.41-5.27,6.99-10.91,9.53-16.53,2.42-5.36,5.42-10.31,8.75-15.14,1.44-2.08,3.15-2.74,5.42-2.77,4.58-.05,9.17-.12,13.75-.18,1.88-.04,3.95-1.3,5.46,.9Z"/><path class="cls-2" d="M500.42,760.09c-3.3-9.86-6.83-19.64-9.86-29.59-4.1-13.47-10.11-26.25-13.91-39.81-2.21-7.88-2.18-16-1.56-24.07,1-13.06,2.05-26.19,.45-39.18-1.45-11.78-6.05-22.91-9.47-34.27-5.57-18.49-11.29-37-12.43-56.52-.34-5.79-1.47-11.54-1.45-17.38q.02-5.37,5.4-5.35c1.07,1.03,2.41,.6,3.64,.61,12.85,.13,25.69,.23,38.54,.32,1.38,.01,2.86-.26,3.64,1.35,1.23,1.29,.9,2.85,.66,4.34-1.05,6.44-.76,12.93-1.01,19.41-.39,10.15-.4,20.33-1.36,30.45-.39,4.1,.48,8.12,.75,12.16,.62,9.35,.36,18.8,2.99,27.98,1.19,4.14,1.56,8.58,1.38,12.85-.33,7.86,1.13,15.63,.31,23.56-.61,5.86,1.55,11.8,2.46,17.7,1.43,9.29,2.1,18.66,3.41,27.96,1.37,9.69,.41,19.55,2.17,29.2,.05,.65,.05,1.31,.05,1.97,.06,2.23-.3,4.48,.29,6.7,.13,.39,.21,.79,.28,1.19,.4,2.82-.15,5.7,.55,8.51,.07,.87-.1,1.66-.69,2.32-.38,1.9-.09,3.7,.79,5.42,2.03,3.32,2.63,7.01,2.79,10.81-.43,.94-1.26,1.34-2.18,1.2-4.76-.71-9.36,.36-14,1.11-1.07,.17-2.04,.11-2.64-.97Z"/><path class="cls-2" d="M559.34,541.39c1.68,3.39,5.23,3.64,8.22,4.58,2.84,.9,4.34,2.43,5.22,5.27,1.43,4.6,3.09,9.16,5.06,13.55,5.85,12.98,9.19,26.92,15.36,39.77,2.77,5.77,1.92,11.5,.23,17.35-6.31,21.85-17.86,41.1-29.6,60.27-8.16,13.31-16.46,26.53-23.69,40.38-1.01,.97-1.98,.36-2.63-.34-3.71-3.92-8.06-7.07-12.24-10.44-.06-.25-.18-.55-.07-.73,3.32-5.74,4.54-12.41,8.02-18.07,2.17-4.76,4.07-9.63,5.55-14.66,3.15-11.24,6.95-22.28,10.72-33.32,2.44-7.14,6.24-13.59,10.67-19.67,1.87-2.57,3.71-5.15,5.16-7.98-.05-.58,1.23-1.29-.2-1.7-1.32,.57-2.22,.16-2.76-1.13-3.74-8.99-10.01-16.47-14.8-24.83-3.34-5.83-6.71-11.63-9.67-17.67-.53-.76-1.05-1.52-1.58-2.29-.8-1.26-1.42-2.63-2.17-3.92l.04,.05c-1.33-1.35-2.26-2.97-3.08-4.66l.05,.06c-10.12-12.83-16.32-27.68-22.03-42.78-1.11-2.92-.95-3.32,1.24-3.81,14.47,0,28.96,1.08,43.4-.72,1.01-.13,2.03-.09,3.05-.14,1.83-.09,2.63,.95,1.46,2.26-5.72,6.45-4.78,13.73-3.03,21.19,.11,.48,.06,1.02,.02,1.52-.23,3.37,1.31,3.95,4.09,2.62Z"/><path class="cls-11" d="M508.01,526.23c2.32,8.66,6.64,16.38,11.48,23.81,4.09,6.28,8.48,12.36,12.65,18.59,1.55,2.31,3.15,4.55,5.18,6.45,2.32,1.29,3.98,3.3,4.92,5.65,3.66,9.17,9.29,17.18,14.62,25.37,.42,.64,.81,1.3,1.25,1.92,3.89,5.49,3.99,10.44-.34,16.2-7.23,9.6-10.19,21.22-13.26,32.65-1.71,6.37-3.58,12.7-5.19,19.1-1.53,5.18-3.39,10.25-5.25,15.31-4.58,10.03-9.84,19.68-16,28.85-.57,.42-1.16,.59-1.82,.22-1.58-1.11-1.62-2.8-1.63-4.46-.09-11.84-1.52-23.55-2.85-35.3-.99-8.72-1.12-17.57-3.08-26.13-1.76-7.69-1.53-15.35-1.08-23.07,.58-9.99-1.26-19.75-2.38-29.61-1.86-16.42-2.76-32.92-1.6-49.5,.57-8.25,1.57-16.45,2.21-24.69,.42-.96,1.04-1.6,2.2-1.36Z"/><path class="cls-23" d="M459.11,295.18c-2.37,.4-2.95-.65-3.04-2.96-.2-4.77,.23-9.55,1.85-13.89,3.16-8.47,2.69-16.38-.9-24.63-2.37-5.43-4.14-11.17-5.71-16.95-2.6-9.54-2.36-19.01-.64-28.61,1.88-10.52,4.76-20.73,8.37-30.79,5.35-14.91,17-22.9,30.63-28.91,.76-.47,1.38-.37,1.83,.44,0,1.64,.9,2.34,2.43,2.04,7.62-1.47,14.18,1,20.66,5.89-2.7-3.31-6.53-4.37-8.28-7.73,.13-.63,.42-1.02,1.14-.75,2.96,.42,5.62,1.78,8.1,3.23,3.49,2.04,6.04,.65,8.5-1.58,10.04-9.14,29.45-14.64,42.24-1.17,5.29,5.57,8.94,11.63,9.1,19.47,1.38,9.46,1.35,18.96,.79,28.48-.07,1.21-1.08,1.61-1.71,2.35-3,1.26-3.99,.65-3.71-2.36,.12-1.25,.53-2.47,.74-3.71,.74-2.22,.64-4.52,.49-6.79-.19-2.91-1.96-3.68-4.36-1.96-1.47,1.05-2.29,2.71-3.47,4.02-2.46,2.72-5.2,2.53-7.21-.56-2.32-3.58-2.06-7.52-1.17-11.42,.51-2.24,.99-4.44,.99-6.75,.01-7.23-3.76-11.19-11.07-11.64-5.01-.31-9.07,1.99-13.05,4.56-2.47,1.13-4.26,3.02-5.73,5.26-.85,1.1-1.82,2.12-2.36,3.43-1.93,2.9-2.03,6.63-4.24,9.4-.75,2.31-1.45,1.12-1.95-.09-1.6-3.87-3.23-7.72-4.66-11.65-2.98-8.23-10.36-12.57-18.19-10.55-4.89,1.26-8.15,5.02-8.82,10.29-.32,2.51-.55,5.04-.65,7.57-.09,2.1-.78,3.66-2.79,4.57-2.21,.99-4.2,.69-6.04-.82-2.2-1.79-3.69-4.2-5.43-6.38-.63-.79-1.12-1.75-1.89-2.37-1.08-.88-1.89-3.16-3.45-2.1-1.15,.78,.13,2.57,.71,3.8,2.26,4.72,4.76,9.29,8.82,12.77,1.65,1.41,2.9,2.62-.25,3.86-1.96,.77-2.87,2.68-3.68,4.53,1.12,1,1.75,.09,2.42-.32,1.09-.65,2.05-1.57,3.21-2.01,1.94-.74,4.4-1.19,5.8,.26,1.3,1.34-.4,3.22-1.13,4.75-.49,1.03-.94,2.25-1.78,2.9-5.3,4.07-6.98,9.99-8.49,16.02-1.85,3.27-2.5,7.15-5.38,9.94-1.02,.99-1.15,2.86-1.07,4.36,.29,5.22,1.56,10.13,5.26,14.75,.93-1.99-.02-3.13-.48-4.32-1.15-2.97-2.31-5.95-2.14-9.19,.09-1.62,.25-3.59,2.09-4.14,1.9-.57,2.39,1.43,3.27,2.58,1.3,5.13,1.79,10.5,4.49,15.22,1.68,9.27,6.39,17.52,8.98,26.49,1.38,4.78,2.51,9.58,2.89,14.55,.23,3.06-.65,5.25-4.11,5.56-1.04,.11-2.18-.21-3.05,.69-1.26,.72-2.52,.69-3.78,.01l.05,.02c-1.76-2.32-.43-5.17-1.34-7.73-.63-1.79-1.07-3.63-2.16-5.2-3.05-4.4-4.44-9.1-2.54-14.36,.71-1.97,.63-4,.6-6.03-.03,1.77,.18,3.55-.43,5.28-1.97,5.6-.73,10.56,2.45,15.47,2.42,3.75,3.71,8.01,1.73,12.54h.07c-1.37,1.13-3.19-.18-4.58,.84-4.63,.49-9.26,.95-13.77,2.21Z"/><path class="cls-2" d="M537.54,267.64c-4.66,4.32-9.51,8.23-15.58,10.6-5.95,2.32-12.22,1.15-17.15-3-10.55-8.87-17.72-20.13-23.54-32.35-3.02-6.34-4.4-13.19-4.57-20.25,1.05-6.26,1.9-12.57,6.53-17.54,1.47-1.57,2.85-3.49,3.34-5.51,1.85-7.6,8.52-10.7,13.69-15.19,.95-.83,2.22-1.65,3.45-1.42,3.95,.73,8.03,.37,11.92,1.5,1.77,2.2,3.25,4.94,6.88,3.63,4.64,.4,9.25,.91,13.95,.19,2.42-.37,4.71,1.01,5.52,3.31,2.05,5.83,6.68,9.8,9.97,14.72,.3,1.47-.22,2.16-1.75,1.73-.83-.23-1.65-.45-2.5-.56-4.91-1.88-9.69-1.89-14.27,.96-.58,.42-1.17,.81-1.73,1.25,.46,.38,1.04-.01,1.54,.22,5.51,.6,10.78,2.19,16.11,3.51,.93,.16,1.56,1.13,2.61,.94,.95-1.51-.77-4.22,2.17-4.8,1.18,1.44,.84,3.39,1.69,4.94,.16,8.85,.33,17.62-2.29,26.3-2.18,7.23-5.04,14.08-9.2,20.31-1.71,2.56-4.61,4.23-6.78,6.5Z"/><path class="cls-10" d="M409.5,348.05c15.29-.72,30.59-1.25,45.79-3.17,7.88-.99,15.71-2.36,23.53-3.74,2.07-.36,2.46,.03,2.58,2.11,.38,6.18-.23,12.45,1.47,18.52,.73,2.62,1.67,5.1,4.54,6.14-5.32,4.61-9.77,9.7-9.26,17.38,.14,2.13-1.3,1.75-2.52,1.77-6.49,.08-12.98,.08-19.47,.21-10.92,.22-21.83,.52-32.74,.81-.96,.03-1.22,0-1.68-1.19-4.69-12.26-8.88-24.65-11.65-37.5-.1-.47-.39-.9-.59-1.35Z"/><path class="cls-23" d="M573.88,198.36c1.61-2.3,1.98-5.04,2.16-7.67,.29-4.17,.15-8.37,.04-12.56-.04-1.47,1.05-3.87-2.31-3.5-.99,.11-.68-1.37-.13-1.68,1.94-1.12,1.73-2.9,1.74-4.67,1.09,1.92,.97,4.13,1.53,6.18,0,9.8,0,19.6,.02,29.4,0,2.82-.24,5.58-1.26,8.24-4.52,11.72-5.84,23.6-1.8,35.75,.22,2.26,.42,4.53,.65,6.79,.88,8.57-1.57,16.37-5.7,23.69-3.34,5.92-4.85,12.2-4.85,18.93,0,1.68,.23,3.29,.75,4.87,.4,4.53,2.27,8.65,3.64,12.9-5.06-2.78-10.57-4.04-16.26-4.45-2.75-.2-3.69-2.98-6.04-3.7-1.44-.44-2.79-1.17-4.18-1.77-4.42-3.26-6.93-7.57-7.31-13.1-.44-6.61,.71-12.81,3.72-18.81,1.41-2.81,2.3-5.85,4.54-8.18,3.49-5.72,6.19-11.86,9.18-17.84,.79-.81,1.93,.7,2.68-.43,2.24-4.47,3.76-9.08,3.59-14.18-.14-4.15-.07-8.32,.05-12.48,.82-3.37,.59-6.79,.59-10.2q.01-5.3,5.02-7.1h.03c1.6-1.86,2.76-1.64,3.89,.59,1.51,2.99,2.34,3.04,4.24,.18,1.01-1.52,3.12-2.84,1.78-5.22Z"/><path class="cls-73" d="M436.93,390.13c12.61,.03,25.22,.16,37.83,0,2.62-.03,3.32,.71,3.68,3.17,.57,3.89,1.71,7.69,5.15,11.14-6.41,.33-12.23,.48-18.03,.97-15.15,1.29-30.28,2.84-45.44,4.03-3.48,.27-7.01-.51-10.58,.14-1.94,.36-2.76-1.39-3.22-3.1-3.21-11.82,.51-22.13,6.95-32.4,2.15,4.28,4.06,8.17,6.05,12.02,.77,1.49,.35,2.14-1.25,2.12-1.58-.03-3.16-.13-5.23-.23,1.27,1.97,3.36,.69,4.26,2.04,6.6,.73,13.21,.58,19.82,.09Z"/><path class="cls-2" d="M480.36,387.08c-.13-5.71,5.13-13.5,10.4-15.79,1.62-.7,3.32-1.24,4.97-1.87,5.44-2.07,10.13,.81,10.84,6.76,.49,4.13,.15,8.5,1.38,12.38,1.62,5.1-.83,7.19-4.62,9.17-3.7,1.94-7.32,4.06-10.95,6.13-2.03,1.16-3.5,.37-4.87-1.17-2.49-2.79-4.21-5.96-5.18-9.59-.58-2.18-1.4-4.29-1.98-6.02Z"/><path class="cls-10" d="M427.66,411.46c6.81-.02,13.36-.15,19.9-.72,10.31-.89,20.67-.69,30.89-3.17,3.57-.86,7.52-2.87,11.55-1.06,.34,.15,.92-.28,1.4-.42q5.23-1.57,6,3.65c.04,.25,0,.51,.04,.76,1.23,7.2,1.24,7.58-6.05,7.68-8.77,.12-17.52,.59-26.26,1.08-10.48,.59-21.01,.66-31.39,2.44-1.23,.21-1.79,.33-2.28-.94-1.16-3.03-2.45-6-3.81-9.31Z"/><path class="cls-17" d="M559.3,201.19c-5.42-1-7.76-4.3-8.65-9.74-1.43-8.8-4.59-10.74-15.06-10.86-1.05,.53-2.08,.66-3.3-.29,1.14-1.76,2.59-2.85,4.72-3-2.9,.07-4.33,2.27-6.08,4.01-2.55,.91-5.2,1.62-7.64,2.78-2.57,1.23-2.3-.26-2.18-1.86,.09-3.86,2.02-7.07,3.69-10.37,.17-.32,.36-.62,.58-.91,1.02-1.07,1.67-2.36,2.27-3.7,5.32-6.44,14.99-9.63,21.78-7.19,5.4,1.94,7.87,6.03,6.58,11.6-.9,3.89-1.11,7.76-1.02,11.7,.04,1.97,.55,3.77,1.7,5.35,2.06,2.84,5.03,3.01,7.36,.36,1-1.14,1.83-2.44,3.11-3.32,2.68-1.84,4.28-1.12,4.57,2.07,.12,1.27,.07,2.54-.27,3.78-.17,.58-.42,1.12-.69,1.65-1.03,1.61,.07,4.01-1.91,5.27-2.91,.51-4.63,4.16-8.16,3.08-.46-.14-1-.04-1.39-.43Z"/><path class="cls-44" d="M506.53,526.92c-.55,14.81-2.96,29.52-2.3,44.38,.62,13.88,1.08,27.78,3.74,41.49,1.95,10.09,.07,20.23,.29,30.34,.16,7.58,2.76,14.84,3.4,22.39,1.01,11.84,2.24,23.65,3.26,35.49,.49,5.67,.73,11.37,1.06,17.05,.05,.93,.07,1.8,1.2,2.07,.24,2.37-.77,3.21-3.05,2.5-1.55-7.37-1.07-14.89-1.71-22.33-1.27-14.74-2.99-29.42-5.47-44-.81-4.76-.82-9.48-.88-14.29-.16-13.39-.32-26.81-3.47-40.03-1.34-5.59-1.03-11.58-1.5-17.38-.87-10.79-.43-21.62,.18-32.36,.68-12-.1-24.11,2.14-36.02,1.42-1.58,2.32-.93,2.63,.77,.33,1.8,.38,3.66,.55,5.49,.64,1.49,.97,2.97-.06,4.43Z"/><path class="cls-2" d="M577.47,525.45c1.23,3.54,1.47,7.1,.48,10.77-.78,2.89-1.64,5.8-1.13,8.89-6.01-1.26-11.68-2.94-17.56-3.62-.49-4.53-1.2-9.01-2.34-13.42-.63-2.43-.39-4.6,1.23-6.71,1.14-1.48,1.85-3.31,2.65-5.03,1.77-3.8,4.77-5.35,8.93-4.92,1.74,.18,1.89,1.36,2.39,2.47,1.76,3.87,2.11,8.39,5.35,11.58Z"/><path class="cls-44" d="M538.59,675.87c5.07-19.26,8.35-39.21,20.56-55.81,2-2.72,1.88-4.82,.2-7.52-4.83-7.73-9.45-15.59-14.2-23.37-2.81-4.6-4.22-9.96-7.84-14.1,1.92-.7-.04-2.12,.57-3.07,2.74,2.33,4.18,5.69,5.69,8.68,5.15,10.2,12.22,19.19,17.68,29.17,.73,1.33,1.52,2.62,1.79,4.15,.61,3.47,1.63,.63,2.5,.15,1.88,.67,.79,2.04,.75,3.17-.39,1.65-1.36,3.02-2.38,4.28-10.2,12.59-15.39,27.51-19.92,42.74-1.4,4.7-2.96,9.35-4.45,14.02-2.02-.18-1.2-1.45-.96-2.49Z"/><path class="cls-3" d="M498.12,297.64c-1.02-1.3-2.03-2.6-3.05-3.9-.44-.76-1.45-1.7-1.01-2.34,1.9-2.81,.88-6.15,1.9-9.09,.25-.48,.5-.96,.75-1.45,2.97,1.17,2.88,4.44,4.44,6.6,3.55,4.93,10.19,6.76,15.4,3.88,1.01-.56,1.8-1.38,2.72-2.05,.95-.7,1.83-1.95,3.27-.84-.33,3.26,1.97,6.99,.89,9.32-1.12,2.42-5.56,2.85-8.12,4.95-1.66,1.36-3.39,2.6-4.2,4.69-.46,.53-.96,.56-1.51,.13-2.39-1.76-5.16-3.02-7.08-5.39-1.55-1.42-3.12-2.82-4.38-4.52Z"/><path class="cls-12" d="M482.06,334.26c.18,2.16-.61,3.07-2.97,3.31-16.3,1.61-32.55,3.76-48.88,4.9-4.67,.33-9.14,2.03-13.85,1.58,.5-1.69,2.16-1.89,3.39-2.63,.89-.49,1.78-.96,2.68-1.43,1.78-.88,3.29-2.31,5.33-2.67,1.65-1.04,3.42-1.34,5.38-1.34,8.88-.02,17.77,.13,26.63-.35,7.43-.4,14.81-1.59,22.29-1.36Z"/><path class="cls-18" d="M522.52,288.45c-1.38-.14-1.97,1.01-2.79,1.74-6.64,5.95-15.63,4.52-19.96-3.23-1.11-1.99-2.06-4.06-3.08-6.09,.23-1.85,.47-3.71,.72-5.75,1.94,.22,2.6,2.48,4.43,2.61,1.87,.29,2.9,1.95,4.46,2.73,4.57,2.3,9.37,2.83,14.35,1.83,2.25-.45,2.24-.49,2.7,1.51-.28,1.55-.56,3.1-.84,4.65Z"/><path class="cls-17" d="M488.14,185.13c3.97-3.94,3.56-9.29,4.48-14.18,1.06-5.65,6.3-8.33,11.26-5.37,5.57,3.32,8.93,8.49,11.56,14.75-2.06-.6-3.99-.78-5.49-1.67-6.72-3.99-11.58-.55-16.27,3.8-1.3,1.21-2.37,2.67-4.02,3.47-.95,.58-1.57,.52-1.53-.79Z"/><path class="cls-62" d="M515.62,184.49c-3.75,.33-7.47,.47-11.15-.68-1.12-.35-2.27,.29-3.2,.95-1.24,.87-2.24,2.15-3.57,2.81-8.08,3.98-9.48,12.95-14.53,19.18-2.39,2.95-3.76,6.19-4.32,9.92-.31,2.08-.71,4.25-2.16,5.97-1.36-4.9-.51-9.75,.4-14.58,.14-.77,.89-1.59,1.57-2.08,4.54-3.22,6.71-7.83,7.9-13.04,.2-.87,.23-1.9,1.14-2.29,4.11-1.76,6.78-5.2,9.97-8.09,3.33-3.02,7.42-3.75,11.67-1.51,2.11,1.11,4.5,1.7,6.28,3.43Z"/><path class="cls-13" d="M489.72,367.14c-.59-6.63-2.92-12.96-3.26-19.64-.18-3.51-.89-7-1.03-10.51-.06-1.58-.94-2.43-1.74-3.47,3.36-.66,5.11-.07,5.88,4.07,1.47,7.93,2.55,16.01,5.43,23.62,.99,2.62,1.3,4.25-2.2,4.56-1.06,.09-2.05,.89-3.08,1.37Z"/><path class="cls-4" d="M500.3,304c1.05,.93,2.1,1.85,3.15,2.78-.02,1.4-.88,1.08-1.71,.84-1.17-.45-2.88,.65-3.31-1.93-.29-1.74-2.74-1.41-4.35-1.31-7.38,.46-14.58-.74-22.23-2.21,6.08-4.33,13.87-3.43,19.36-8.33,1.75,1.49,2.31,4.05,4.35,5.35,1.58,1.6,3.23,3.13,4.74,4.8Z"/><path class="cls-50" d="M552.51,247.18c-2.41,6.23-4.63,12.55-9.17,17.68-.48-.14-.57-.63-.87-.94-1.95,.83-2.69,3.28-4.93,3.72,9.57-9.55,14.16-21.52,16.59-34.48,1.17-6.23,1.55-12.57,1.32-18.92-.41-.54-.43-1.06,.07-1.55,1.55,2.6,.43,5.43,.69,8.14,.14,1.44,.02,2.91,.44,4.37,2.22-2.36-.03-5.6,1.87-7.94,.58,1.01,.57,2.03,0,3.05,.35,4.54,1.06,9.05,.86,13.63-.24,5.32-1.82,10.18-4.68,14.64-1.31-1.46-1.37-1.48-.81-3.55,.87-3.25,1.78-6.48,2.38-9.79,.02-.52-.79,.02-.3-.09,.17-.04,.25,.08,.19,.32-1,3.97-1.2,8.19-3.64,11.71Z"/><path class="cls-33" d="M542.48,263.92c.29,.31,.58,.62,.87,.94-4.6,7.28-7.51,15.05-7.85,23.8-.25,6.54,1.75,11.95,6.38,16.47-1.15,.15-2.21-.38-2.58-1.28-1.27-3.07-4.2-3.42-6.75-4.34-6.75-2.42-8.19-4.41-8.44-11.76-.05-1.34,.51-2.83-.74-3.96-.2-1.39-.99-1.42-2.2-1.18-7.2,1.45-13.79,.33-19.31-4.9,3.01-.41,4.45,2.54,7.06,3.28,4.01,1.14,7.88,1.88,11.91,.65,1.65-.5,3.26,.7,4.85-.14,1.79,2.65,.76,5.65,1,8.48,.39,4.64,1.41,6.08,5.87,7.38-.15-3.31-.5-6.5-.81-9.7-.3-3.16,.62-6.25,1.54-9.4-1.02-.11-1.99,1.19-3.02,.19,2.36-1.97,3.16-6.13,7.49-5.36,.1,.02,.38-.39,.39-.6,.11-3.54,3.24-5.56,4.34-8.59Z"/><path class="cls-62" d="M555.53,212.7c-.02,.52-.05,1.03-.07,1.55-1.25-1.2-.96-2.96-1.6-4.38-1.46-.56-1.57-2.14-2.41-3.17-3.42-4.14-7.65-7.63-9.47-13.02-1.17-3.46-3.55-5.11-7.64-4.28-3.96,.8-8.05,.6-11.84-1.28,5.09-.95,10.13-2.3,15.34-2.4,5.27-.1,7.18,1.31,8.28,6.47,1.1,5.13,2.29,9.99,8.11,11.83,1.25,.4,1,1.61,1.04,2.6,.08,2.03,.17,4.05,.25,6.08Z"/><path class="cls-40" d="M530.25,278.47c1.87,0,2.56-1.94,5.07-3.08-3.41,7.93-2.65,15.32-1.38,22.72-5.24,.51-7.9-1.66-8.24-7.04-.2-3.17-.03-6.37-.03-9.55,1.86-.51,3.44-1.45,4.58-3.05Z"/><path class="cls-48" d="M473.62,229.62c-1.25-.48-1.98-2.75-3.39-1.82-1.13,.75-1.37,2.69-1.13,4.24,.53,3.39,1.25,6.74,3.02,9.75,.81,1.38,1.55,3.05-.14,4.03-1.57,.9-2.64-.78-3.22-1.87-3.03-5.68-6.04-11.94-3.19-18.05,1.61-3.46,3-7.71,6.5-10.25,.27,1.06,.55,2.12,.82,3.18-.7,.57-.86,1.43-1.16,2.2-.12,.29-.34,.8,.08,.87,.45,.07,.69-.57,1.1-.79,.86,.6,1.11,1.78,.67,2.33-1.76,2.16-.34,4.14,.06,6.18Z"/><path class="cls-53" d="M482.83,255.5c3.42,4.63,7.09,9.1,10.16,13.95,1.6,2.52,.95,5.98,.94,8.85-.01,3.87-.24,8.1-2.7,11.59-2.06-.11-1.5-1.74-1.48-2.82,.21-9.45-2.87-18.1-6.39-26.65-.64-1.56-1.97-3.11-.54-4.92Z"/><path class="cls-8" d="M512.71,309.16c3.74-4.76,9.79-5.57,14.67-8.36,2.16-1.23,7.42,2.72,9.56,6.63-7.4,.42-15.02-1.84-21.76,2.5-.91,0-2.12,1-2.47-.77Z"/><path class="cls-29" d="M482.83,255.5c.17,3.55,2.58,6.23,3.62,9.47,2.36,7.34,4.77,14.63,4.04,22.51-.08,.87-.09,1.79,.74,2.41-1.55,1.35-3.42,1.61-5.37,1.54,4.65-1.68,3.14-5.55,2.73-8.64-1.09-8.22-3.96-15.96-7.06-23.61-1.86-4.6-3.41-9.29-3.42-14.34,.07,4.22,4.83,6.37,4.72,10.67Z"/><path class="cls-35" d="M570.02,192.82c.23-.29,.47-.57,.7-.86,.42,.36,.51,.84,.42,1.35-.06,.34,.18,.79,.15,.8,.23-.1-.41-1.82,1.07-1.29-.25,1.74-.78,3.49-.67,5.2,.15,2.32,1.24,1.6,2.19,.33,1.61-.27,2.67-.03,1.58,1.89-.68,1.2-1.47,2.33-2.25,3.46-.99,1.43-1.83,3.38-3.8,3.27-1.99-.11-2.17-2.11-2.53-3.68-.58-2.51-1.98-.07-2.91-.48-1.15-1.69-3.51,.05-4.67-1.63,2.69,.19,5.17,.07,6.59-2.86,.56-1.16,1.68-.7,2.59-.17,1.02,.76,.53,2.01,.82,2.69,.28-2.5,.07-5.3,.72-8.03Z"/><path class="cls-36" d="M477.38,292.13c.33-4.93-.39-9.56-3.34-13.76-2.51-3.57-3.31-7.45-2.15-11.93,.89-3.42,1.99-7.1-.47-11.1,2.8,.68,2.92,2.35,3.07,3.92,.22,2.43-.12,4.86-.87,7.14-1.22,3.71-.57,7.13,1.53,10.18,3.28,4.75,4.29,9.96,3.94,15.57-.57-.01-1.13-.02-1.7-.03Z"/><path class="cls-44" d="M510.35,514.66c-3.29,.98-.86,3.12-.47,4.17,2.48,6.66,5.4,13.15,8,19.77,2.5,6.35,6.57,11.74,10.19,17.41,1.09,1.7,2.05,3.49,3.07,5.24-5.21-5.07-8.87-11.35-12.12-17.63-4.17-8.05-7.16-16.72-10.54-25.17-.52-1.3-1.39-2.88-.45-4.23,.44-.64,1.66-.41,2.32,.45Z"/><path class="cls-51" d="M525.75,171.49c-1.54,3.58-3.09,7.16-4.63,10.74-.07-.65-.15-1.29-.82-1.64,.53-3.63,1.55-7.07,3.76-10.07,.43,.56,.69,1.4,1.69,.97Z"/><path class="cls-27" d="M512.71,309.16c.63,.88,1.67,.44,2.47,.77-5.01,2.32-9.28,.31-13.44-2.3,.57-.28,1.14-.56,1.71-.84,1.83-.51,2.46,2.24,4.34,1.59,1.47,.13,2.86,.72,4.34,.78,.19-.03,.38-.03,.58,.01Z"/><path class="cls-72" d="M530.94,181.32c2.19-4.82,4.97-6.04,8.9-3.83-.92,1.34-2.31,.6-3.44,.76-1.37,.2-2.22,1.11-3.32,1.77,.8,.92,1.74,.35,2.52,.56-1.38,1.37-3.09,.59-4.66,.73Z"/><path class="cls-35" d="M558.52,220.32c0-1.02,0-2.03,0-3.05,0-2.9,.01-5.81,.01-8.71q0-5.05,5.41-5.75c-4.91,1.25-4.82,4.95-4.63,8.95,.14,2.84,.58,5.81-.78,8.56Z"/><path class="cls-57" d="M436.93,390.13c-6.56,1.49-13.19,.45-19.79,.54-.06,0-.16-.18-.16-.28,0-.12,.08-.23,.13-.35,6.61,.03,13.21,.06,19.82,.09Z"/><path class="cls-86" d="M488.14,185.13c.32,.63,.89,.78,1.53,.79-3.85,2.74-4.36,2.82-8.05,1.05,2.49-.42,4.62-.8,6.52-1.84Z"/><path class="cls-54" d="M472.9,221.11c-.16,.92,.45,2.11-.67,2.66-.39,.19-1.25-.13-1.65-.49-1.2-1.1,.1-1.99,.43-2.93,.29-.84,.84-1.52,1.87-1.51,0,.76,0,1.52,0,2.28Z"/><path class="cls-45" d="M495.95,282.31c-.02,2.72,.22,5.53-1.23,7.95-.85,1.42,.43,2.31,.35,3.48-1-.46-1.91-1.4-1.44-2.31,1.5-2.89,.75-6.3,2.32-9.12Z"/><path class="cls-74" d="M427.77,337.31c-1.47,1.5-3.27,2.44-5.2,3.19-.82,.32-.97-.09-.87-.79,1.17-1.59,4.09-1.18,4.34-3.82,1.02-.06,1.04,1.09,1.73,1.42Z"/><path class="cls-77" d="M469.85,300.64c-1.62-1.54-3.69-.28-5.46-.9,2.56-1.17,5.23-.41,8.3-.75-1,1.22-1.88,1.5-2.84,1.65Z"/><path class="cls-45" d="M498.12,297.64c1.77,1.21,3.06,2.88,4.38,4.52-2.19-.8-3.73-2.23-4.38-4.52Z"/><path class="cls-45" d="M500.3,304c-1.94-1.24-3.59-2.78-4.74-4.8,2.17,1.01,3.81,2.56,4.74,4.8Z"/><path class="cls-44" d="M531.1,561.19c1.03,1.55,2.05,3.11,3.08,4.66-2.02-.9-2.94-2.53-3.08-4.66Z"/><path class="cls-67" d="M506.53,526.92c.02-1.48,.04-2.95,.06-4.43,.96,1.06,1.89,2.13,1.42,3.74-.72-.26-1,.43-1.48,.69Z"/><path class="cls-45" d="M512.13,309.15c-1.77,1.52-2.88-.61-4.34-.78,.66-.13,1.37-.16,1.79-.82,.5-.04,1.01-.09,1.51-.13,.08,.74,.28,1.4,1.04,1.73Z"/><path class="cls-44" d="M534.13,565.81c1.05,1.12,2.24,2.17,2.17,3.92-1.49-.88-2.07-2.27-2.17-3.92Z"/><path class="cls-36" d="M472.87,292.97c1.37-1.11,3.03-.65,4.58-.84-1.29,1.55-3.04,.61-4.58,.84Z"/><path class="cls-36" d="M479.03,292.14c1.26,0,2.52,0,3.78-.01-1.26,1.25-2.52,1.24-3.78,.01Z"/><path class="cls-65" d="M507.31,783.79c-2.69-4.47-2.99-9.56-3.82-14.51,3.7-4.97,8.51-1.88,12.91-1.78,2.87,.07,3.24,2.32,3.82,4.38,1,3.41,1.66,6.89,2.14,10.41,.35,.89,.12,1.63-.61,2.23-1.81,1.48-4.02,.49-6,.96-2.44,.02-4.44-1.87-6.93-1.61-.51-.02-1.01-.05-1.52-.07Z"/><path class="cls-5" d="M522.37,782.29c-2.61-2.83-1.91-6.63-2.91-9.93-.65-4.58-1.64-9.14-.7-13.79-.98-3.49-2.24-6.93-2.32-10.62,.02-2.76,2.16-3.87,4.13-4.9,.93-.48,5.8,4.77,5.77,6.43-.04,2.49,1.02,3.24,3.34,4.06,4.36,1.55,1.45,5.26,.84,7.39-1.56,5.48-1.5,10.76-.31,16.16,.54,2.46,1.22,4.88,1.88,7.31,.38,1.39-.47,2.91-1.41,1.98-2.41-2.36-5.94-2-8.31-4.1Z"/><path class="cls-62" d="M535.62,731.83c-2.16,5.93-4.61,11.78-5.62,18.6-4.36-3.8-7.28-8.36-11.83-11.12-.17-.13-.33-.26-.5-.38-.94-4.43-1.75-9.03-1.18-13.42,.56-4.35,3.55-7.9,7.05-10.73,.53-.04,1.07,.08,1.34,.51,2.84,4.49,6.68,8.19,9.89,12.38,.93,1.21,1.69,2.55,.85,4.16Z"/><path class="cls-68" d="M535.62,731.83c-.14-3.24-2.6-5.08-4.52-7.14-2.78-2.99-5.39-6.04-6.98-9.84-.66-1.6-.39-2.71,1.56-2.92,4.23,1.37,7.08,4.57,10.17,7.5,1.27,1.2,1.93,3.39,4.29,3.14-1.98,2.86-3.21,6.08-4.52,9.26Z"/><path class="cls-5" d="M514.12,722.63c1.62-.1,2.58-1.01,3.05-2.5,.2-.22,.41-.44,.61-.66,2.29,.1,1.38,1.5,.64,2.18-2.71,2.51-2.27,5.52-1.48,8.49,.82,3.05-.69,6.37,1.22,9.25,0,0,0-.09,0-.09,2.1,3.35-1.63,2.17-2.5,3.22,0-.71,0-1.41,0-2.12-.99-3.05,.49-6.31-.81-9.33l.04,.07c-.89-2.26,.38-4.74-.72-6.98l-.03-1.52Z"/><path class="cls-7" d="M579.27,544.56c-2.94,.59-1.65-1.82-1.53-2.63,.72-4.69,2.13-9.3,1.76-14.18,1.76,2.89,1.36,6,.8,9.06-.48,2.59-1.48,5.09-1.06,7.79,0,0,.03-.04,.03-.04Z"/><path class="cls-5" d="M536.21,796.51c-2.12-1.14-2.47-2.62-2.27-4.31,.02-.18,.73-.51,.9-.41,1.68,1.02,1.58,2.62,1.36,4.72Z"/><path class="cls-5" d="M515.76,785.47c1.84-1.34,3.99-.71,6-.96-1.57,2.98-3.87,1.43-6,.96Z"/><path class="cls-5" d="M543.72,861.92c2.02-1.56,4.21-.79,6.38-.29-2.11,.11-4.23,.21-6.34,.32,0,0-.04-.02-.04-.02Z"/><path class="cls-15" d="M518.76,758.57c1.23,4.55,.76,9.18,.7,13.79-.3-3.18-2.25-3.73-5.16-4.1-3.78-.48-7.39-1.39-10.81,1.02-1.02-3.06-2.05-6.12-3.07-9.19,2.31,1.16,4.29-.61,6.35-.99,4.02-.73,8.03,.13,11.99-.54Z"/><path class="cls-20" d="M491.23,149.21c-.34-.63-.96-.7-1.58-.78,5.91-2.33,11.84-2.5,17.78-.1-.3,.31-.6,.61-.9,.92-5.1,.62-10.2,.69-15.3-.04Z"/><path class="cls-83" d="M420.14,341.83c-1.26,.74-2.51,1.48-3.77,2.22-.65,.89-1.74,.39-2.54,.81,1.4-1.86,3.34-2.95,5.45-3.78,.83-.38,.95,.07,.87,.75Z"/><path class="cls-90" d="M420.14,341.83c-.29-.25-.58-.5-.87-.75,.81-.46,1.62-.91,2.43-1.37,.29,.26,.58,.53,.87,.79-.81,.44-1.62,.88-2.43,1.33Z"/><path class="cls-55" d="M493.22,643.44c-3.86-1.79-5.27-4.32-6.64-6.79-4.1-7.35-5.04-15.93-9-23.35-.32-.6-.57-1.69,.22-2.09,1.06-.54,1.55,.44,1.96,1.25,1.02,2.03,2.26,3.99,3.02,6.12,2.92,8.15,6.01,16.22,10.44,24.86Z"/><path class="cls-84" d="M499.54,621.66c1.61,4.57,1.44,14.86-.1,18.26-1.46-4.07-1.49-14.12,.1-18.26Z"/><path class="cls-44" d="M514.84,731.08c1.88,2.97,.45,6.23,.81,9.33-1.59-3-.4-6.23-.81-9.33Z"/><path class="cls-44" d="M514.16,724.16c1.56,2.19,.53,4.65,.72,6.98-1.17-2.23-.15-4.69-.72-6.98Z"/><path class="cls-44" d="M518.17,739.4c-1.26-.69-1.65-1.89-1.66-3.18-.01-2.89-.14-5.74-.73-8.61-.44-2.13-.17-4.25,1.83-5.79,.77-.59,1.63-1.46,.17-2.36,1.89-4.84,5.2-8.86,7.72-13.35,2.74-4.89,5.17-9.92,7.62-14.94,1.96,.02,1.33,1.13,.91,2.15-2.79,6.19-5.57,12.39-8.36,18.58-.93,.76-1.37,1.77-1.56,2.92-2.39,3.99-7.09,6.73-6.92,12.09,.13,4.16,.64,8.31,.98,12.46Z"/><path class="cls-80" d="M534.03,693.34c-.08-.82,.07-1.72-.91-2.15,1.82-5.11,3.65-10.21,5.47-15.32,.18,.88-.09,1.94,.96,2.49-1.43,5.14-3.14,10.18-5.51,14.98Z"/><path class="cls-81" d="M566.3,617.32c-.46-1,.31-2.3-.75-3.17,.82-1.27,1.45-.88,1.48,.34,.03,.93-.47,1.88-.73,2.83Z"/><path class="cls-46" d="M525.75,171.49c-.94,.33-1.71,.37-1.69-.97,.05-1.48,1.16-2.2,2.17-2.98,1.75-1.91,3.57-3.73,5.48-5.48,3.53-2.82,7.42-5.18,12.01-5.12,12.18,.17,16.02,6.12,13.52,17.61-.6,2.76-.99,5.46-.98,8.27,0,1.75,.63,3.25,1.55,4.63,1.79,2.67,3.78,2.69,5.69,.07,2-2.74,3.77-6.86,7.81-5.03,3.72,1.68,1.24,5.89,1.58,8.97,.05,.43-.36,.91-.55,1.36-.43,.53-.87,1.06-1.48,1.8-.06-1.04-.11-1.85-.16-2.66,0-1.02,.03-2.03,.03-3.04,0-1.11,.53-2.59-.54-3.18-1.31-.72-2.28,.59-3.2,1.43-.47,.42-.97,.87-1.26,1.41-1.51,2.75-3.71,4.36-6.85,3.35-3.28-1.06-4.61-3.98-4.91-7.1-.4-4.16-.34-8.38,.81-12.46,2.5-8.82-4.09-12.6-10.45-12.23-6.35,.37-12.37,2.66-16.43,8.21-.65,1.1-1.68,1.93-2.21,3.12h.04Z"/><path class="cls-32" d="M466.33,251.06c-2.89-8.99-8.46-17.11-9.27-26.69-.75-8.92,2.48-16.98,7.52-24.27,.75-1.08,1.72-2.23,4.1-2.16-3.42,4.13-5.16,8.64-6.95,13.17-3.81,9.6-1.57,18.64,1.96,27.67,1.54,3.92,3.86,7.69,2.63,12.29Z"/><path class="cls-30" d="M491.23,149.21c5.1-1.1,10.2-1.36,15.3,.04,3.6,2.4,7.42,4.58,9.22,9.01-1.38-.79-2.84-1.46-4.12-2.38-5.33-3.79-11.13-5.28-17.6-3.89-1.52,.33-3.12,.11-4.05-1.17-.46-.63,.65-1.18,1.25-1.61Z"/><path class="cls-47" d="M523.93,162.73c-.76-2.9,.6-4.61,1.75-5.68,4.44-4.13,9.7-6.85,15.8-7.67,.95-.13,2.26-.4,2.71,.76,.45,1.17-.82,1.44-1.57,1.67-6.91,2.14-13.62,4.6-18.68,10.92Z"/><path class="cls-39" d="M475.98,169.83c-1.75-.02-3.06-1.04-2.88-2.47,.28-2.29,1.59-.16,2.44-.23,1.82-.16,2.42-1.75,3.15-3,1.4-2.41,2.52-4.97,4.74-6.81,1.2-.99,2.46-1.81,4.06-1.82,.48,0,1.11,.07,1.11,.74,0,.31-.26,.82-.52,.9-4.98,1.63-5.93,6.64-8.6,10.2-.93,1.24-1.88,2.42-3.51,2.5Z"/><path class="cls-70" d="M569.65,173.21c-1.27,2.02-2.91,3.12-5.06,2.51-2.08-.6-1.59-2.64-1.6-4.23-.01-2.92,.11-5.84,.1-8.75,0-.74-.46-1.47-.45-2.21,.02-1.08-2.65-1.49-.97-2.57,1.35-.87,2.05,.92,2.67,1.99,1.56,2.72,1.2,5.7,.79,8.55-.77,5.34-.9,5.32,4.52,4.71Z"/><path class="cls-51" d="M531.71,162.06c-1.33,2.32-3.16,4.15-5.48,5.48,1.23-2.42,3.06-4.24,5.48-5.48Z"/><path class="cls-43" d="M530.1,222.47c1.62-3.92,4.02-7.17,8.58-7.44,4.7-.28,8.38,4.3,7.88,9.67-.38,4.06-1.18,8.52-3.59,11.45-3.28,3.99-7.12-1.1-10.86-1.14-.37,0-.73-.2-1.11-.27-3.42-.62-5.42-2.11-3.7-5.93,.59-.18,.91,.17,1.19,.59q.75,.79,1.47-1.42c.55-1.29,1.22-2.52,2.08-3.62,3.26-4.13,8.23-3.51,10.45,1.28,.15,1.77,0,3.52-.38,5.25,.03,.85-.11,1.66-.71,2.51,.54-.65,.72-1.26,.71-1.93,.1-1.23,.47-2.42,.44-3.66,.32-1.34,.55-2.7,.46-4.09-.28-4.3-3.73-6.03-7.44-3.72-1.7,1.05-2.77,2.91-4.72,3.64-.64-.14-1.06-.42-.73-1.16Z"/><path class="cls-31" d="M498.8,214.85c2.06-3.06,4.76-4.85,8.58-3.93,4.36,1.05,5.49,4.4,5.67,8.37,.13,2.8-.3,5.5-.85,8.26-.74,3.72-3.11,4.34-6.14,3.88-2.98-.45-6.1-.64-8.69-2.37-.88-.59-1.64,.35-2.36-.22-.47-.78-.23-1.44,.36-2.04,1.93-.67,1.88-2.52,2.4-4.03,1.33-3.86,3.49-5.99,5.79-5.71,2.69,.33,4.59,3.35,4.7,7.38,.02,.83-.42,1.73,.46,2.84,.95-2.73,1.68-5.25,1.27-7.93-.69-4.54-3.76-6.19-7.97-4.37-.81,.35-1.54,.91-2.45,1.02-.6-.16-1.04-.42-.75-1.15Z"/><path class="cls-52" d="M512.09,251.6c4.34,1.83,8.98,1.81,13.56,2.25,2.33,.22,5.48-.39,6.51,1.93,.92,2.08-1.35,4.12-2.66,5.98-1.64,2.32-3.67,4.24-6.02,5.79-8.58,5.63-16.4,2.59-19.25-7.42-.51-.82-.47-1.45,.58-1.75,1.31,.55,1.64,1.87,2.27,2.94,2.95,5.06,7.76,6.5,13,3.89,2.58-1.29,5.17-3.79,7.13-7.04-4.42-.95-8.86-1.32-13.01-2.86-1.67-.62-3.95-.61-4.09-3.23,.49-.88,1.21-.84,2-.49Z"/><path class="cls-63" d="M511.85,207.31c-.6,2.3-2.68,2.37-4.17,2-6.63-1.62-12.17,.37-17.23,4.49-.73,.59-1.47,1.74-2.55,.75-.91-.84-.53-1.83,.23-2.67,2.04-2.03,2.79-5.11,5.41-6.67,6.66-4.13,12.62-2.18,18.32,2.1Z"/><path class="cls-61" d="M550.04,214.29c-5.84-1.29-11.68-2.57-17.51-3.86-.37-1,.23-1.58,.92-2.12,5.48-2.82,10.68-2.57,14.52,.9,1.42,1.29,3.3,2.62,2.08,5.09Z"/><path class="cls-79" d="M550.04,214.29c-2.65-6.79-8.62-8.67-16.66-5.23-.76,.08-1.08-.22-.89-.99,4.78-3.77,9.94-3.38,15.25-1.41,4.94,2.14,5.94,4.33,4.45,9.73-.72-.7-1.43-1.4-2.15-2.1Z"/><path class="cls-88" d="M511.85,207.31c-.83,.56-1.47,.48-2.33-.19-4.98-3.91-10.27-4.27-15.79-1.17-.87,.19-1.22-.14-1.02-1.02,6.12-5.94,16.53-4.64,19.14,2.38Z"/><path class="cls-58" d="M522.98,249.63c3.28-3.74,.56-6.32-1.15-9.3-2.26-3.92-4.02-8.11-2.89-12.9,1.27,5.83,3.49,11.04,7.38,15.74,2.19,2.65-1.4,4.46-3.33,6.46Z"/><path class="cls-21" d="M552.19,216.38c1.39-4.56-1.18-7.3-4.45-9.73,1.02-.35,1.88,.01,2.69,.6,.69,.5,1.08,.36,1.01-.56,1.28,.69,1.91,1.88,2.41,3.17-2.05,1.79,.98,4.88-1.66,6.52Z"/><path class="cls-22" d="M512.09,251.6c-.75,.16-1.51,.31-1.85,1.13-2.8,.52-4.52-1.57-6.63-2.72-.74-.88-1.66-1.71-.98-3.05,3.15,1.55,6.31,3.1,9.46,4.65Z"/><path class="cls-75" d="M492.71,204.93c.34,.34,.68,.68,1.02,1.02-2.23,2.26-4.29,4.64-4.94,7.93-1.05-.52-.32-1.41-.67-1.99,.57-2.95,2.06-5.3,4.59-6.96Z"/><path class="cls-42" d="M498.8,214.85c.28,.3,.57,.6,.85,.91,.34,3.32-2.11,5.33-3.66,7.76-.37,.13-.72,.08-1.05-.14,.27-3.3,1.62-6.11,3.85-8.52Z"/><path class="cls-76" d="M504.94,258.58c-.24,.52-.48,1.03-.72,1.55-1.41-2.65-2.01-5.44-1.45-8.43,.4-.24,.75-.18,1.05,.18,.63,2.19,2.72,4.14,1.11,6.7Z"/><path class="cls-89" d="M530.1,222.47c.27,.31,.55,.62,.82,.92,.62,1.53-.7,2.62-.91,3.96-.55,.85-.54,2.18-1.95,2.31-.26-.28-.51-.57-.77-.85,.51-2.3,1.27-4.49,2.8-6.34Z"/><path class="cls-66" d="M494.94,223.38c.28,0,.55,.01,.83,.02,1.15,1.19,1.11,2.44,.19,3.74-.78,.31-.83,1.03-.97,1.7-1.29-1.81-1.11-3.63-.05-5.46Z"/><path class="cls-78" d="M503.41,251.68c-.21,.02-.42,.02-.63,.02-.25-1.58-1.95-3.11-.14-4.75-.21,1.29,1.14,1.52,1.61,2.35-.57,.69,.17,1.84-.83,2.39Z"/><path class="cls-64" d="M532.5,208.06c.3,.33,.59,.66,.89,.99-.28,.46-.57,.91-.85,1.37-.68-.04-1.99,.1-1.87-.32,.23-.79,1.18-1.37,1.84-2.04Z"/><path class="cls-34" d="M553.92,304.47c-5.83-7.71-6.12-20.51-.76-29.5,3.88-6.52,8.65-12.56,10.4-20.21,1.04-4.57,2.34-9.05,1.2-13.82-.34-1.43-.05-3.01-.05-5.13,2.09,2.06,1.91,4.31,2.06,6.21,.71,9.38-1.4,18.13-6.46,26.13-2.17,3.43-4.48,6.82-6.22,10.47-4.02,8.38-3.14,16.75,.75,24.97,.13,.73-.09,1.12-.91,.89Z"/><path class="cls-85" d="M552.51,247.18c1.58-4.31,1.5-9.13,4.28-13.87,.55,4.48-1.22,7.73-2.07,11.16-.33,1.34-1.71,2.75-.02,4.12-2.03,1.56-1.15-1.42-2.19-1.4Z"/><path class="cls-41" d="M563.36,224.35c-1.07-4.63-2.57-9.19-1.77-14,1.17,4.61,2.74,9.16,1.77,14Z"/><path class="cls-82" d="M553.92,304.47c.3-.3,.61-.59,.91-.89,.58,.43,1.58,1.1,1.11,1.63-.74,.83-1.47-.08-2.01-.74Z"/><path class="cls-60" d="M527.55,177.2c1.85-6.75,9.17-12.71,15.49-12.73,4.66-.02,7.1,2.38,6.96,7.03-.06,1.88-.55,3.75-.62,5.63-.06,1.81,.17,3.62,.31,5.97-3.45-2.52-2.84-5.74-2.55-8.57,.24-2.33,.97-4.95-1.03-6.31-2.37-1.62-5.36-1-8.01,.12-3.77,1.58-6.15,4.81-8.86,7.63-.42,.43-.53,1.19-1.67,1.24Z"/><path class="cls-87" d="M570.02,192.82c.32,2.96-.86,6.06,.87,8.9,.57,.94,.1,1.94-.78,2.15-1,.24-.85-.98-1.16-1.6-.65-1.31-.41-2.73-.47-4.11,1.74-1.43-.24-3.93,1.54-5.35Z"/><path class="cls-51" d="M525.71,171.48c-.07-1.61,1-2.41,2.21-3.12-.04,1.53-1.1,2.34-2.21,3.12Z"/><path class="cls-14" d="M529.44,227.17c-.47-1.64,1.41-2.35,1.48-3.78,.39-.63,.72-1.31,1.19-1.88,2.8-3.42,6.22-4.71,8.85-3.37,2.87,1.45,3.75,5.27,2.26,9.84-2.02,.22-.54-1.82-1.48-2.29-2.77-4.57-6.24-4.73-9.29-.39-.79,1.12-1.43,2.34-2.14,3.51-1.47,.09-1.31-.7-.88-1.63Z"/><path class="cls-24" d="M529.44,227.17c0,.71,.11,1.35,.88,1.63-.11,1.19,.31,3.03-.9,3.3-1.53,.35-1.33-1.34-1.36-2.44,1.13-.46,.09-2.12,1.38-2.5Z"/><path class="cls-26" d="M537.3,234.12c-1.4-.86-2.89-.01-3.33-1.73-.17-.65,.21-1.32,.95-1.33,1.6-.03,1.98,1.1,2.37,3.06Z"/><path class="cls-19" d="M541.75,225.68c.49,.76,.99,1.53,1.48,2.29,.43,1.45-.6,2.54-.91,3.81-.18,.37-.37,.39-.57,.02,0-2.04,0-4.08,0-6.12Z"/><path class="cls-16" d="M541.75,231.81c.19-.03,.38-.04,.57-.02-.31,1.12-.61,2.23-1.06,3.87-1.15-1.96,.15-2.81,.49-3.85Z"/><path class="cls-1" d="M495.96,227.14c-.06-1.25-.13-2.49-.19-3.74,1.29-2.55,2.59-5.09,3.88-7.64,2.1-2.32,4.72-3.44,7.68-2.29,3.05,1.18,3.54,4.14,3.52,6.97-.01,2.24-.48,4.49-.85,6.71-.22,1.28-1.23,2.11-2.42,1.91-1.81-.31-.49-1.51-.38-2.34,.02-.13,.04-.25,.06-.38,.7-4.35-.91-8.18-3.62-8.58-2.35-.35-4.93,2.86-5.52,7.13-.2,1.43,.12,2.96-2.15,2.26Z"/><path class="cls-25" d="M503.97,228.2c-.17,.68-.72,.61-1.18,.54-.73-.11-1.06-.63-1.01-1.34,.04-.54,.3-1.03,.92-.9,.88,.18,1.03,1,1.26,1.71Z"/><path class="cls-9" d="M503.41,251.68c.23-.81-.54-1.97,.83-2.39,2,1.14,4,2.29,6,3.43,5.9,3.17,12.43,3.75,19.38,4.56-3.76,5.37-7.71,10.24-14.6,10.24-5.55,0-8.44-4.02-10.08-8.94-.51-2.3-1.02-4.6-1.53-6.9Z"/></svg>