<?xml version="1.0" encoding="UTF-8"?><svg id="Layer_1" xmlns="http://www.w3.org/2000/svg" viewBox="0 0 1000 1000"><defs><style>.cls-1{fill:#f4d09a;}.cls-2{fill:#f8d49d;}.cls-3{fill:#f7f6f6;}.cls-4{fill:#f8f7f7;}.cls-5{fill:#040404;}.cls-6{fill:#040505;}.cls-7{fill:#040202;}.cls-8{fill:#010201;}.cls-9{fill:#695a43;}.cls-10{fill:#eae8e8;}.cls-11{fill:#e9e7e7;}.cls-12{fill:#f5f6f6;}.cls-13{fill:#f6d29c;}.cls-14{fill:#fefefe;}.cls-15{fill:#745150;}.cls-16{fill:#733c3a;}.cls-17{fill:#847979;}.cls-18{fill:#b89c72;}.cls-19{fill:#b89c73;}.cls-20{fill:#b89b72;}.cls-21{fill:#b99d73;}.cls-22{fill:#8e3333;}.cls-23{fill:#b79b72;}.cls-24{fill:#312a1f;}.cls-25{fill:#8e4746;}.cls-26{fill:#8d4746;}.cls-27{fill:#bbc4c8;}.cls-28{fill:#adb5ba;}.cls-29{fill:#e2c18e;}.cls-30{fill:#c3cace;}.cls-31{fill:#130908;}.cls-32{fill:#140f0e;}.cls-33{fill:#171512;}.cls-34{fill:#18100e;}.cls-35{fill:#25231e;}.cls-36{fill:#252827;}.cls-37{fill:#241414;}.cls-38{fill:#241313;}.cls-39{fill:#1f3038;}.cls-40{fill:#204656;}.cls-41{fill:#1f1010;}.cls-42{fill:#131617;}.cls-43{fill:#231f16;}.cls-44{fill:#201e1a;}.cls-45{fill:#43413e;}.cls-46{fill:#401918;}.cls-47{fill:#401a1a;}.cls-48{fill:#1a0d0d;}.cls-49{fill:#110807;}.cls-50{fill:#100909;}.cls-51{fill:#0e1e25;}.cls-52{fill:#100f0d;}.cls-53{fill:#0f0605;}.cls-54{fill:#1d2022;}.cls-55{fill:#411c1b;}.cls-56{fill:#37342f;}.cls-57{fill:#366f8b;}.cls-58{fill:#361c1c;}.cls-59{fill:#1a1111;}.cls-60{fill:#3f3528;}.cls-61{fill:#0e0d0b;}.cls-62{fill:#1b1311;}.cls-63{fill:#1b1411;}.cls-64{fill:#1d1010;}.cls-65{fill:#a3a4a4;}.cls-66{fill:#713a39;}.cls-67{fill:#463d30;}.cls-68{fill:#463c2d;}.cls-69{fill:#877555;}.cls-70{fill:#887656;}.cls-71{fill:#883131;}.cls-72{fill:#706048;}.cls-73{fill:#562d2b;}.cls-74{fill:#564a37;}.cls-75{fill:#2d1817;}.cls-76{fill:#291717;}.cls-77{fill:#47433c;}.cls-78{fill:#473f34;}.cls-79{fill:#35322d;}.cls-80{fill:#35322e;}.cls-81{fill:#302a20;}.cls-82{fill:#3a85a7;}.cls-83{fill:#311818;}.cls-84{fill:#3a2525;}.cls-85{fill:#3a3328;}.cls-86{fill:#3a2b23;}.cls-87{fill:#393125;}.cls-88{fill:#2f2c26;}.cls-89{fill:#4c4131;}.cls-90{fill:#552c2b;}.cls-91{fill:#763d3b;}.cls-92{fill:#7b2e2e;}.cls-93{fill:#733b3a;}.cls-94{fill:#787878;}.cls-95{fill:#834241;}.cls-96{fill:#31302f;}.cls-97{fill:#271615;}</style></defs><path class="cls-8" d="M534.6,617.27c-2.87-8.48-4.35-17.26-5.61-26.09-2.52-17.71-3.11-35.51-2.85-53.36-1.28-1.57-.45-3.43-.72-4.94-.19,1.77,.45,3.84-.73,5.69-1.68,14.61-2.25,29.31-2.75,43.98-.41,12.17-1.08,24.38-.17,36.58,.09,1.26,.3,2.7-.17,3.78-3.93,8.93-.43,17.86-.2,26.79,.43,16.22,1.27,32.42-1.42,48.6-2.53,15.19-4.81,30.42-7.36,45.62-.95,5.67-1.25,11.47-2.39,17.14-1.13,4.04-.21,8.16-.49,12.24-.19,2.86,.29,5.75-.28,8.6-.02,.69-.04,1.38-.06,2.07-2.08-.15-1.62-1.84-1.78-3.06-.23-1.83,.16-3.72-.39-5.54-.13-.41-.22-.83-.29-1.26-.27-3.22-.11-6.44-.15-9.66,.01-1.04,.05-2.07,.29-3.09,.71-1.88,.42-3.88,.72-5.81,.05-.4,.14-.79,.25-1.17,.5-1.6,.25-3.23,.21-4.86-.58-6.42,.82-12.66,1.86-18.91,3.39-20.53,6.83-41.03,6.69-61.98-.04-6.7,.67-13.41-.11-20.11,.03-1.34,.22-2.67,.14-4.03-.05-.87-.31-1.43-1.35-1.03-.39,.02-.72-.1-1.01-.35-.64-.86-.74-1.86-.76-2.88,.62-4.55,2.05-8.92,2.87-13.43,.6-3.28,1.01-6.52,.87-9.85-.97-23.03,.64-45.99,2.05-68.96,.97-15.75,2.06-31.47,3.86-47.15,.28-2.44-.42-3.91-3.2-3.97-10.94-.23-21.83-1.42-32.78-1.6-7.56-.12-14.94,1.55-22.46,1.64-2.9,.03-2.93,1.76-2.9,4.13,.19,21.84,4.94,42.92,10.36,63.91,4.01,15.54,9.78,30.54,13.65,46.13,1.69,6.82,3.29,13.63,3.66,20.62,.35,6.49,1.93,12.82,2.15,19.32,.08,2.33,.04,4.57-.62,6.79-.29,.99-.69,2.09-1.83,2.22-1.42,.16-1.85-1.13-2.33-2.14-1.06-2.23-.89-4.7-1.28-7.1-3.74,11.69-6.22,23.58-6.64,35.85-.79,22.7,2.75,44.93,7.38,67.02,.74,3.51,.93,7.07,1.49,10.58,.95,4.01,1.02,8.12,1.45,12.19,.28,3.01,.94,5.96,1.09,8.99,.24,4.77,1.41,5.85,6.17,4.82,3.73-.81,7.24-.46,10.81,.5,.87,.24,1.38,.89,1.82,1.61,1.14,1.14,1.08,2.59,.74,3.94-.62,2.49-.18,5.03-.41,7.46-1.16,12.42,2.64,24.1,4.84,36.01,.38,2.04,1.67,3.91,2.6,5.84,4.19,8.63,5.86,17.44,2.17,26.72-.56,1.4-.87,2.91-1.27,4.38-1.41,5.17-4.02,7.09-9.38,6.52-2.92-.31-5.81-.61-8.75-.62-2.88-.01-5.08-1.5-6.75-3.73-5.09-6.81-8.63-14.35-10.29-22.71-.71-3.56,.46-7.06,1.03-10.52,1.16-7.09,2.36-14.11,1.97-21.37-.23-4.39,.49-8.83,.79-13.24,.24-3.55,.14-7.08-.42-10.61-.49-3.12-1.57-6.05,.53-9.43,1.12-1.8-.18-5.13-.45-7.76-1.84-18.14-5.87-35.93-8.66-53.91-1.4-9.03-1.61-18.16-2.29-27.25-1.1-14.62,1.12-28.75,4.07-42.87,1.55-7.43,3.63-14.74,5.53-22.1,1.15-4.45,.47-8.93-.59-13.15-3.92-15.63-8.72-31-13.55-46.38-5.23-16.65-8.92-33.75-11.43-51.1-1.36-9.42-.49-18.72-.46-28.08,0-1.79-.17-2.52-2.32-2.72-3.65-.33-4.81-2.18-3.98-5.65,2.81-11.71,3.24-23.83,5.88-35.52,3.27-14.47,7.42-28.78,14.99-41.75,5.76-9.87,7.66-20.73,9.25-31.84,1.5-10.46-.88-20.17-2.86-30.29-2.28-11.72,.27-23.49,5.82-34.32,1.38-2.69,2.94-5.29,4.41-7.93,.95-.99,.39-1.55-.6-1.86-1.51-.47-3.07-.79-5.09-1.1,1.89-2.8,5.2-.9,6.82-2.93,3.51-1.3,2.96,1.44,2.79,3.11-.5,4.74-2.38,9.1-4.42,13.35-3.96,8.3-6.1,16.97-5.94,26.2,.05,2.84,.49,5.57,1.37,8.25,3.92,11.85,3.06,23.92,1.12,35.9-1.66,10.24-5.33,19.8-10.69,28.83-5.97,10.05-8.52,21.49-11.68,32.64-2.68,9.49-3.91,19.2-3.79,29.07,.03,2.43-.34,4.82-.61,7.23-.24,2.16,.4,3.26,2.94,3.17,6.75-.24,13.46-.64,20.17-1.44,8.65-1.03,17.27,.62,25.91,.83,15.52,.38,30.9,2.99,46.46,2.89,2.33-.02,3.19-1.16,3.66-3.03,1.11-4.45,2.19-8.92,2.61-13.49,.71-7.58,2.17-15.15,.7-22.81-.17-.87-.09-1.78-.11-2.67-.26-12.21,.49-24.43-.7-36.64-.89-9.1,.46-18.03,3.19-26.75,1.07-3.4,1.54-6.97,2.99-10.26,.42-.94,.66-1.99,.46-2.99-1.55-7.43,.48-14.64,2.6-21.41,3.07-9.77,2.31-19.27,1.13-29.03-.76-6.3-1.07-12.67-.48-19.03,.07-.76,.11-1.54,.35-2.26,.55-1.6,1.19-3.35,3.26-3.13,1.88,.2,2.3,1.94,2.31,3.49,.06,9.17,1.69,18.21,1.87,27.41,.18,9.04-.38,17.73-3.46,26.25-1.39,3.86-1.84,8-1.91,12.04-.12,6.46-1.34,12.69-3.22,18.76-2.25,7.25-3.07,14.67-3.74,22.15-.39,4.36,.68,8.61,.72,12.95,.1,11.32-.34,22.64,.55,33.97,.83,10.6-.78,21.09-3.99,31.27-1.51,4.79-1.42,4.96,3.65,5.93,4.38,.84,8.79,1.5,13.05,2.85,1.45,1.07,3.06,.48,4.62,.41,1.12,1.68,3.59,.07,4.81,2.17-3.82,.94-2.71,3.3-1.62,5.69,3.03,6.65,2.75,13.73,1.15,20.43-.84,3.52-2.35,7.79-6.26,9.83-3.25,1.69-2.06,4.94-1.96,7.11,.49,10.75-1.3,21.19-4.03,31.42-3.7,13.88-2.71,27.91-2.6,41.97,.1,13.02,3.86,25.43,5.75,38.15,1.61,10.82,1.48,21.73,.56,32.65-.61,7.2-.72,14.44-1.09,21.66-.81,16.05-1.77,32.08-3.73,48.05-.97,7.93-.73,15.93-.73,23.9,0,.49,0,1.28,.28,1.44,4.91,2.81,2.46,7.77,2.98,11.58,1.31,9.58,1.57,19.3,2.22,28.97,.28,4.15,1.17,8.3,0,12.44-.95,3.37-1.66,6.62-5.33,8.6-2.32,1.25-3.88,3.91-4.77,6.65-2.99,9.22-7.64,17.57-15.41,23.41-5.88,4.42-12.07,9.15-20.61,5.53-6.69-2.84-8.97-5.86-7.79-13.1,1.17-7.18,4.76-13.26,8.82-19.18,6.29-9.15,11.01-18.99,11.98-30.31,.47-5.53,1.44-11.03,1.67-16.56,.17-4.23-.53-8.49-.73-12.75-.06-1.39-.57-3.37,2.09-2.96,2.22,.03,4.38-1.02,6.64-.38,3.79,.71,7.58,.34,11.36-.06,3.79-.4,4.28-.89,3.67-4.47-.43-2.52-.57-5.04-.69-7.58-.95-3.5-.81-7.04-.5-10.59,1.07-10.11,1.82-20.26,2.68-30.39,1.73-20.27,2.71-40.6,3.09-60.93,.19-10.29-1.68-20.47-4.55-30.45-1.94-6.73-2.34-13.86-2.61-20.79-.56-14.2-1.64-28.52,2.04-42.55,2.72-10.38,3.96-20.98,4.97-31.63,.19-1.98-.08-2.9-2.33-2.54-2.41,.38-4.19-.82-5.45-2.78-5-7.83-9.52-15.93-13.22-24.46-1.11-2.57-1.12-5.21,.44-7.69,.78-.89,1.5-.46,2.22,.09,1.99,9.8,8.1,17.69,12.43,26.39,2.17,4.37,3.16,4.24,6.81,.94,.85-.77,1.6-1.69,2.6-2.23,4.94-2.68,6.33-7.24,5.99-12.29-.32-4.78-.29-9.65-2.07-14.27-.72-1.86-1.75-2.94-3.7-3.37-6.34-1.38-12.57-3.2-18.86-4.79-1.43-.55-2.63,0-3.79,.78-6.73,2.18-13.6,.96-20.42,.87-.88-.01-1.76-.24-2.65-.36-2.09-.28-2.84,.47-2.98,2.71-.59,9.64-1.35,19.36-1.02,28.93,.51,14.98-.34,30,1.33,44.97,1.25,11.23,1.88,22.54,3.59,33.72-.03,1.48-.17,2.97,.32,4.42,.16,.62,.25,1.25,.27,1.89-.22,1.16,.25,2.74-1.7,2.88Z"/><path class="cls-6" d="M399.72,301.63c-4.31-.87-5.82-3.19-5.45-7.41,.49-5.67,.18-11.39,1.26-17.03,1.46-7.63,4.71-13.48,12.44-16.84,11.85-5.15,23.41-10.95,34.89-16.93,7.09-3.69,12.8-9.08,19.25-13.53,1.25-.86,2.53-1.66,3.8-2.48,1.23-.71,2.49-.61,3.77-.18,3.86,2.5,6.65,6.16,9.93,9.28,2.1,2,3.92,2.75,5.82-.09,1.32-.5,2.17-1.4,2.75-2.72,.38-.87,.7-2.29,2.3-1.53,.78,1.05,.79,2.45,1.61,3.48,2.61,6.45,3.03,12.62-.78,19-2.19,3.67-2.96,8.12-3.35,12.47-.32,3.5,.7,4.32,4.1,5.1,4.64,1.07,9.05,.38,13.49-.81,2.96-.59,5.94-1.02,8.96-.55,2.22,.94,4.5,1.26,6.87,.64,.26,.21,.45,.48,.56,.79,.13,1.14,.97,1.52,1.94,1.75,3.62,2.17,6.84,4.99,10.81,6.6,.58,.24,.85,.88,.86,1.55-1.11,1.08-.97,1.39,1.61,3.72,1.09-.02,1.97-.59,2.86-1.09,.8-.42,1.64-.76,2.53-.93,1.46-.24,2.97-.1,4.37-.71,7.85-1.9,15.03-5.88,22.93-7.52-.05-.06,.28-.03,.04-.09-.31-.08-.66,0-1.01-.03-5.1-1.04-10.07-.26-15.01,.95-1.47,.36-2.92,.87-4.47,.57-1.07-.28-1.85-.86-2.08-2,1.51-3.51,4.94-3.96,8.02-4.84,1.62-.46,2.24-1,1.17-2.53-2.32-3.31-2.91-7.18-3.55-11.03-.41-2.8-1.29-5.55-.82-8.67-4.01,5.31-7.32,10.72-13.23,13.64-.38,0-.75-.05-1.11-.16-.54-.24-.95-.63-1.22-1.15-.11-.36-.14-.73-.09-1.1,5.73-5.36,10.13-11.87,15.34-17.68,.34-.06,.68-.02,1,.1,.64,1.41,2.32,1.82,3.04,3.16,.44,1.32,.33,2.64,.08,3.97-.82,2.92-.71,5.85-.12,8.78,.17,.5,.65-.24,.21,.02-.21,.12-.36,.07-.34-.15,.1-1.35-.59-2.73,.17-4.05,2.14-.02,1.63,1.74,1.92,2.91,.59,2.38,.34,4.96,1.76,7.14,1.52,5.98,6.57,5.9,11.21,6.51,.82,.16,1.59,.41,2.12,1.12,.16,.44,.04,.8-.34,1.06-.68,.39-1.44,.64-2.19,.48-5.83-1.21-11.53-.21-17.22,.93-.5,.12,.31,.59,.03,.16-.09-.13,0-.21,.23-.26,6.38-1.35,12.78-1.73,19.22-.44,1.24,.25,2.63,.33,2.95,1.91,.27,1.35-.8,1.68-1.76,2.03-8.21,2.45-16.16,5.72-24.37,8.17,8.18-2.44,16.13-5.59,24.29-8.11,.95-.39,1.89-.7,2.87-.09,.29,2.37-1.92,2.28-3.12,3.18-8.42,1.97-16.1,6.33-24.75,7.56-3.02,.43-6.07,.59-9.03,1.44-2.78,.79-4.82-.07-6.56-2.48-2.53-3.52-3.14-3.44-7.35-1.74-7.87,3.19-15.75,3.83-23.57-.25-1.47-.77-3.01-1.4-4.66-1.66-2.51-.4-4.76-.99-5.22-4.05-.18-1.22-1.27-1.38-2.3-1.62-9.71-2.29-19.56-2.81-29.49-2.31-2.92,.15-5.9,.46-8.74-.24-3.56-.88-6.16,.26-8.45,2.89-3.25,3.74-6.54,7.44-10.81,10.1-1.07,.67-1.98,1.6-3.2,2.04-1.58,.23-3.06,.32-2.58-2.04,2.67-3.54,5.95-6.57,8.94-9.83,6.12-6.67,11.33-14.09,17.58-20.61,3.35-3.49,6.85-6.82,10.55-9.96,3.79-3.2,8.72-3.42,12.96-5.73-2.1-2.92-4.87-5.21-6.86-8.12-1.24-1.82-2.44-1.83-4.05-.45-10.55,9.05-23.01,14.98-35.21,21.3-7.57,3.92-15.64,6.81-23.2,10.82-3.01,1.6-5.07,3.72-6.24,6.86-1.57,4.21-2.54,8.53-2.59,13.04-.03,2.67,.43,5.42-.39,7.98-.92,2.87-.12,4.67,2.57,5.79,4.83,1.29,9.81,1.48,14.72,1.58,11.95,.22,23.92,.09,35.87,.06,.68-.07,1.36-.09,2.04-.04,3.07,.24,6.16-.08,9.24,.23,.44,.05,.87,.14,1.29,.26,5.19,.74,10.4,1.21,15.65,1.29,.47,.08,.91,.23,1.35,.42,.64,.39,1.55,.71,1.51,1.53-.05,1.08-1.09,.85-1.77,.81-6.8-.43-13.64-.32-20.41-1.32-3.27-.48-6.57-.32-9.85-.46-10.5-.44-21.01-.7-31.54-.25-6.39,.27-12.87,0-19.23-1.28Z"/><path class="cls-5" d="M573.59,277.06c.36-.76,1.65-1.01,1.34-2.12-.32-1.15-1.39-.79-2.22-.95-7.41-1.41-14.77-.78-22.14,.42,7.04-3.97,14.61-3.65,22.25-2.7,1.97-1.43,3.94-.19,5.87,.08,1.38,.2,2.76,.37,4.15,.47,.7,.05,1.36,.25,2.03,.43,1.15,.28,1.51-1.71,2.82-1,1.41,1.16,2.49,2.91,4.99,2.62-1.56-5.51-4.33-10.52-5.32-16.1-2.15-14.71,.77-28.83,5.07-42.76,2.56-8.29,4.07-16.78,5.25-25.34,.41-2.96-.61-5.79-1.08-8.66-1.79-10.95-7.65-20.12-13.09-29.46-1.86-3.19-3.74-6.36-5.44-9.64-2-3.85-4.37-7.44-7.64-10.39-1.88-1.7-3.71-3.49-5.23-5.55-4.83-5.29-10.93-7.2-17.86-6.31-7.11,.92-13.79,3.29-20.02,6.87-.87,.5-1.72,1.2-2.74,1.27-2.17,.13-1.54-.95-.78-2.02,9.32-6.83,19.55-10.65,31.27-9.24,4.39,.53,8.23,2.63,11.64,5.37,6.4,5.16,11.93,11.06,15.48,18.62,2.81,5.99,5.98,11.77,9.63,17.31,10.52,15.97,11.44,33.14,6.55,51.15-2.92,10.74-6.5,21.34-7.57,32.53-1.19,12.46,.49,24.34,7.2,35.11,1.22,1.96,3.49,3.27,5.27,4.87,1.92,1.72,2.65,3.69,2.49,6.41-.32,5.2-.05,10.44-.12,15.66-.32,23.6-2.77,46.93-8.81,69.83-1.71,6.47-2.4,13.2-4.76,19.51-.6,1.59,.36,2.98,.38,4.49,.1,9.52-.83,18.98-1.38,28.46-.78,13.54-3.35,26.81-4.8,40.24-.42,3.87,.38,7.86-1.08,11.61-1.3,1.29,.28,3.3-1.83,5.22-1.69-6.5-.5-12.65-.92-18.65-.02-5.35,.66-10.65,1.2-15.96,1.36-13.52,3.48-26.98,3.37-40.62-.04-4.46,.37-8.82,1.25-13.24,3.27-16.45,6.3-32.95,9.15-49.48,1.8-10.44,1.93-21.02,2.48-31.55,.38-7.34,.45-14.74,.21-22.12-.14-4.16-1.81-6.99-5.22-9.09-3.28-2.02-6.9-3.25-10.5-4.5-.89-.3-1.68-.81-2.46-1.31-.77-.41-1.53-.25-2.28,.07-.92,.31-1.82,.93-2.8,.2-1.08-.02-2.15-.05-3.23-.07Z"/><path class="cls-32" d="M523.81,126.23c-.26,1.23-.47,2.11,1.29,.98,6.79-4.33,14.29-6.71,22.16-8.24,5.2-1.01,16.32,2.3,18.61,6.91-1.42,.66-2.5-.2-3.48-.93-5.18-3.84-11.14-4.48-17.1-3.39-10.46,1.91-19.84,6.24-27.33,14.12-2.22,2.33-3.41,5.34-5.49,7.73-1.32,.02-1.46-1.05-1.82-1.93-1.62-2.93-4.46-2.64-7.06-2.43-4.16,.33-7.79,2.2-11.17,4.58-6.27,4.43-11.94,9.62-16.79,15.49-7.53,9.1-11.16,19.58-8.84,31.58,.17,.88,.35,1.74,.71,2.57,.84,1.94,1.98,2.51,3.79,1.02,.98-.8,2.03-1.54,3.25-1.99,4.04-.21,5.93,1.19,7.32,5.05,1.57,4.36,1.81,8.94,2.38,13.46,.78,6.21,1.49,12.4,5.75,17.47,.74,.88,1.14,2,.66,3.21-.14,.16-.28,.32-.41,.48-.98,.75-1.16,1.9-1.6,2.95-.46,1.09-.93,2.58-2.72,1.61-.54-.56-.19-1.06,.11-1.57,1-1.67,1.29-3.56,.08-5.04-4.91-6.01-5.21-13.39-6.31-20.52-.51-3.28-1.29-6.48-2.18-9.66-.09-.61-.28-1.24,.21-1.77-.7,.63-.44,1.63-.8,2.4-.61,1.32-.45,3.21-2.54,3.42-1.11-1.03-.62-2.23-.36-3.4,.26-1.22,.51-2.44,.84-3.99-2.48,.43-4.11,3.41-6.94,1.58-2.48-1.6-3.77-3.88-4.1-6.55-1.18-9.44-.95-18.56,4.19-27.22,5.61-9.44,12.63-17.45,21.34-23.98,5.17-3.88,11.35-7.62,17.56-5.14,5.83,2.33,8.01,.26,10.75-3.86,1.43-2.15,3.53-3.97,6.06-5.03Z"/><path class="cls-61" d="M556.9,783.87c-2.04-.58-4.22,.3-6.24-.6,1.2-.16,2.03-.97,2.9-1.69,1.17-1.17,.1-2.77,.78-4.03-.1-.21-.06-.37,.13-.51,.63-6.88,.65-13.76,0-20.64-.88-5.57-1.77-11.14-2.65-16.71-3.03-19.07-7.17-37.91-11.3-56.78-1.9-8.66-2.08-17.79,.16-26.66,.93-3.45,.17-6.98,.43-10.46,.1-1.36-.35-2.77,.36-4.07,.04-.25,.08-.5,.12-.75,.66-.47,1.27-.46,1.81,.2,1.14,2.4,.47,4.97,.67,7.46-.03,2.95,.02,5.91-.03,8.86,0,.69-.11,1.36-.27,2.02-.78,5.76-.73,11.52,.01,17.28,.75,9.03,4.19,17.47,5.73,26.35,1.12,6.47,3.03,12.8,3.55,19.41,.84,10.73,4.56,21.09,4.06,31.99-.11,3.28-.17,6.56,.03,9.84,.13,.37,.22,.76,.29,1.15,.2,1.15,.23,2.31,.04,3.47-.05,.37-.14,.74-.24,1.1-.5,2.19-.12,4.41-.3,6.61-.03,.53-.12,1.05-.25,1.55-.42,1.39-.84,2.78-.05,4.19,.23,.44,.41,.89,.26,1.39Z"/><path class="cls-42" d="M399.72,301.63c16.75,1.28,33.57-.24,50.28,.88,10.58,.71,21.2,.77,32.43,2.36-1.1-.96-1.61-1.4-2.12-1.85,3.85-1.23,7.61-.53,11.34,.55-1.63,2.13-4.11,.27-6.13,1.36,1.54,.42,3.01,.71,4.39,1.22,1.33,.5,1.4,1.35,.21,2.2,.18-1.12-.37-1.36-1.41-1.68-4.45-1.38-9.06-1.14-13.58-1.44-16.46-1.07-32.92-2.94-49.43-2.22-8.16,.36-16.21,.05-24.29-.76-.59-.06-1.14-.42-1.71-.64Z"/><path class="cls-80" d="M474.1,200.4c.38,1.05-.32,2.36,.77,3.25,1.25,4.38,.4,8.73-.22,13.07-.16,1.13-.7,2.18-.91,3.31-.73,2.97-1.82,5.76-3.97,8.03-1.24-.49-2.51-.76-3.85-.64,2.27-.9,3.07-2.81,3.95-4.95,2.61-6.31,1.73-13.17,3.39-19.6,.22-.84,.56-1.64,.85-2.46Z"/><path class="cls-54" d="M583.48,464.26v17.97c1.42-1.39,.1-3.35,1.71-4.07-.06,6.11-.12,12.21-.18,18.32-1.1,1.07-2.12,2.52-3.76,.7,1.72-4.04,1.34-8.28,.84-12.42-.68-5.59-.44-11.18-.41-16.77,0-1.42-.21-3.18,1.8-3.74Z"/><path class="cls-56" d="M534.6,617.27c1.19-.83,.5-2.16,.87-3.21,.53,.06,1.04,.29,1.19,.79,1.4,4.68,3.41,9.23,3.25,14.27-.24,.61-.52,1.18-1.33,1.11-1.44-4.28-3.37-8.42-3.98-12.96Z"/><path class="cls-88" d="M507.76,774.83c1.6,1.4,.57,3.27,.85,4.91,.24,1.41-.54,3.01,.79,4.22-.02,2.8-.03,5.6-.05,8.39l-1.67-.85c-1.61-5.56-1.75-11.12,.08-16.67Z"/><path class="cls-96" d="M542.97,640.98c-.46,0-.92,0-1.37,0-.18-.43-.06-.73,.39-.89,.91-.15,.56-2.05,2.01-1.46,2.12,2.23,3.15,4.97,3.68,7.93,.04,1.41,.38,2.93-1.3,3.74-2.36-1.45-2.4-3.88-2.6-6.23-.11-1.08-.11-2.18-.81-3.11Z"/><path class="cls-88" d="M509.46,781.88c-.03-6.42-.05-12.84-.07-19.26,0-.67,.25-1.22,.84-1.58-.26,6.95-.51,13.89-.77,20.84Z"/><path class="cls-79" d="M554.47,756.41c1.22,6.88,1.52,13.76,0,20.64,.77-6.88-.42-13.76,0-20.64Z"/><path class="cls-94" d="M524.69,538.56v-9.43c1.78,2.73,1.02,5.79,1.45,8.69-.48,.25-.97,.5-1.45,.74Z"/><path class="cls-78" d="M543.75,638.69c-.59,.47-1.18,.94-1.77,1.41-.23-2.51-1.91-4.46-2.67-6.76,.28-.29,.63-.42,1.03-.38,2.19,1.28,4.23,2.66,3.4,5.73Z"/><path class="cls-96" d="M541.48,641.73c-.2,4.85,1.03,9.77-.79,14.53,.54-4.83-.17-9.73,.79-14.53Z"/><path class="cls-45" d="M540.1,633.27c-.26,.02-.52,.04-.79,.06-.25-1.03-.49-2.07-.74-3.1,.27-.34,.54-.68,.8-1.02,1.7,1.1,2.26,2.39,.72,4.06Z"/><path class="cls-79" d="M554.35,777.56c-.05,1.38,.79,2.94-.78,4.03,.48-1.3-.51-2.88,.78-4.03Z"/><path class="cls-82" d="M583.48,464.26c-1.36,6.25-.78,12.56-.31,18.83,.31,4.19,.14,8.35,.25,12.52,.05,1.96-1.09,1.55-2.16,1.58-6.7-1.37-13.4-2.73-20.23-4.12,1.44-5.66,3.23-11.34,4.3-17.16,1.62-8.89,1.3-17.87,.82-26.9-.57-10.67,.21-21.41-.28-32.09-.4-8.79-.21-17.37,2.16-25.93,1.72-6.2,3.9-12.4,4.01-18.91,.12-7.18,1.43-14.11,3.45-20.95,.57-1.94,1.3-3.87,1.58-5.85,1.52-11.12,.18-22.2-.77-33.26-.28-3.31-.13-6.6-.33-9.89-.07-1.14,.07-2.48-1.52-2.61-1.54-.12-1.84,1.19-2.03,2.31-.37,2.24-.99,4.53-.85,6.76,.62,9.47,1.25,18.96,2.37,28.38,.44,3.72-.22,7.12-1.3,10.43-2.06,6.32-2.77,12.87-4.1,19.32-.03,.12-.05,.26-.03,.38,1.71,9.56-3.18,17.96-4.82,26.93-.67,3.63-1.45,7.19-1.3,10.92,.62,16.03,.11,32.1,.83,48.1,.58,13.1-.74,25.75-3.93,38.36-.57,2.25-1.19,2.71-3.57,2.4-6.54-.86-13.17-.19-19.78-.99-16.39-1.99-32.89-2.73-49.38-3.05-8.21-.16-16.48,.76-24.64,1.79-3.29,.42-4.04-.15-3.87-3.26,.88-16.38,2.58-32.55,7.57-48.36,3.55-11.25,9.29-21.39,13.84-32.1,7.21-16.97,10.04-34.88,4.76-53.13-3.83-13.23-.53-25.34,4.87-37.23,1.75-3.84,2.95-7.84,4.18-11.85,.29-.96,.62-2.36-.68-3.03-.49-.25-.76,.49-.91,.98-3.82,.55-7.58,.07-11.34-.55,0,0-.27-.14-.27-.14l-.29,.09c-5.42-.47-10.87-.63-16.24-1.55l.05,.04c-3.39-.53-6.77-.53-10.16,0-.42,0-.84,0-1.25,0-4.66-.73-9.35-.26-14.03-.31-7.74-.09-15.5,.3-23.22-.14-5.2-.3-10.55-.13-15.6-1.92-2.41-.97-2.73-2.56-2.32-5.11,.83-5.11,.93-10.34,1.56-15.49,.89-7.24,3.9-12.54,11.31-15.66,14.51-6.11,28.66-13.07,42.27-21.03,5.16-3.02,9.81-6.8,14.44-10.58,.76-.62,1.34-2.22,2.59-.42,2.88,4.15,6.31,7.84,10.54,11.72-15.05,1.71-23.3,12.17-31.63,22.33-5.39,6.58-11.07,12.89-16.71,19.23-1.15,1.29-2.56,2.34-3.86,3.5-.74,.79-1.55,1.53-2.36,2.68,1.43-.27,2.67-.23,3.75-1.01,6.09-3.75,10.81-9.04,15.69-14.13,1.2-1.26,2.37-2.14,4.27-1.89,9.61,1.24,19.31-.27,28.92,.97,4.9,.63,9.79,1.4,14.69,2.05,1.64,.22,1.22,.99,.87,2.09-.57,1.76-.02,3.12,2.08,3.1,3.08-.03,5.67,1.39,8.29,2.63,8.33,3.95,16.21,2.65,24.04-1.53,3.16-1.69,5.13,1.03,6.16,3.12,1.42,2.88,3,2.69,5.74,2.44,11.79-1.08,22.51-5.97,33.78-8.88,.79-.35,1.48-.35,1.96,.5,0,2.38-2.16,2.76-3.57,3.82-.27,.24-.67,.25-.93,.52,.46-.1,.85-.36,1.27-.58,3.97-1.89,7.09-5.33,11.55-6.29,5.99,1.05,11.34,3.42,15.72,7.73,1.14,1.12,1.63,2.55,1.66,4.13,.31,15.06-.12,30.09-1.41,45.12-1.74,20.35-6.58,40.15-10.19,60.16-1.28,7.11-.77,14.14-1.45,21.19-1.22,12.71-2.06,25.45-3.74,38.12-.46,3.51-.57,7.07-.84,10.6Z"/><path class="cls-2" d="M487.17,764.84c-2.48-15.99-6.22-31.77-7.79-47.93-.87-8.98-1.47-17.97-1.45-26.95,.03-14.16,2.98-27.91,7.05-41.43,.18-.61,.24-1.4,1.03-1.35,1,.06,1.02,1,1.03,1.73,.01,3.68,0,7.36,2.18,10.96,1.54-2.25,2.01-4.6,1.77-6.89-1.91-18.26-3.88-36.46-9.4-54.18-4.07-13.06-8.83-25.91-11.79-39.34-3.08-13.97-6.29-27.87-8.01-42.1-.75-6.21,.29-12.45-1.03-18.59-.47-2.18,.47-3.32,2.83-3.36,10.92-.19,21.78-1.82,32.73-1.17,8.74,.51,17.48,1.14,26.22,1.52,2.17,.1,2.16,1.19,2.03,2.68-.75,8.57-1.54,17.13-2.24,25.7-.6,7.44-1.1,14.89-1.64,22.34-1.25,17.48-1.64,35-2.44,52.5-.35,7.64,1.01,15.14,.32,22.68-.51,5.52-1.69,10.96-3.48,16.25-.32,.93-.27,1.98-.4,2.98-.47,.65-.39,1.42-.33,2.13,.04,.43-.46,.94,.13,1.31,.26-.43,.66-.72,1.04-1.03h0c.75-.98,1.49-1.57,1.84,.24,.24,1.19-.32,2.46,.4,3.6,1.74,12.67,.16,25.37-.14,38.02-.25,10.42-2.76,20.76-3.82,31.19-.95,9.32-3.82,18.31-4.46,27.67-.14,2.04-.29,4.04-.07,6.07-.78,1.51,.31,3.31-.73,4.77l.02-.03c-.84,1.79,.11,3.77-.59,5.57-.31,2.96-1.71,3.96-4.81,3.46-3.89-.62-7.84-.41-11.63,1.04-1.41,.54-2.91,1.05-4.35-.05Z"/><path class="cls-2" d="M540.1,633.27c.63-1.51,.22-2.83-.72-4.06-.92-5.15-2.21-10.21-3.91-15.15-.03-.46-.05-.92-.08-1.38-.95-1.14,.14-2.69-.78-3.84-1.57-11.13-2.49-22.33-3.56-33.51-.82-8.6-.98-17.19-.94-25.81,.05-12.03-.04-24.07,.04-36.1,.03-3.92,.43-7.83,.57-11.75,.06-1.73,.45-3.58-2.26-5.37,7.04,.39,12.84,.85,18.65,.99,3.71,.09,7.65,1.2,11.02-1.48,.95,.27,1.81,1.06,1.41,1.87-1.28,2.56-.29,5.82-2.56,8.03-1.62,4.31-.38,8.19,1.75,11.97,3.41,6.08,6.61,12.3,10.21,18.27,3.16,5.23,3.79,5.25,9.34,2.73-.93,9.46-1.47,18.8-3.47,27.95-2.38,10.9-5.02,21.75-4.52,33.04,.56,12.41,.05,25,2.91,37.12,1.5,6.37,2.78,12.74,3.8,19.16,1.4,8.81,1.35,17.68,.58,26.56-.46,5.31-.49,10.66-.77,15.99-.76,14.68-1.37,29.37-3.08,43.99-.69,5.89-1.1,11.83-1.69,17.75-5.07,1.24-10.08,2.8-15.41,2.38-.68-2.62,.22-5.35-.52-7.97,.41-9.31-2.5-18.2-3.51-27.33-1.65-14.96-5.33-29.49-8.98-44.04-.51-2.05-.46-4.24-.67-6.37-.54-5.86-.59-11.72,.02-17.58,.04-.44,.08-.88,.12-1.33,.64-3.1,.12-6.23,.29-9.34,.5-1.65-1.07-3.72,1.03-5.04-.19,2.36,1.09,4.34,1.7,6.49,2.27-.93,.84-2.57,.77-3.95-.43-2.75-2.28-4.91-3.15-7.48-.67-2.17-1.53-4.22-3.65-5.41Z"/><path class="cls-2" d="M561.36,495.62c7.15,1.64,14.36,3.05,21.41,5.04,3.08,.87,3.08,4.71,3.45,7.06,.78,4.93,1.87,9.98,1.04,15.05-.59,3.6-2.03,6.78-5.49,8.66-.87,.48-1.57,1.26-2.38,1.87-7.23,5.5-5.36,6.56-10.21-1.71-3.19-5.44-6.1-11.11-9.08-16.71-1.4-2.64-2.23-5.38-1.56-8.4-.78-3.53,.74-6.85,1.03-10.28,.08-.9,.99-.96,1.78-.57Z"/><path class="cls-20" d="M507.76,774.83c-.03,5.56-.05,11.11-.08,16.67-4.22-.75-8.32-.94-12.64,.14-4.03,1.01-5.31-.5-5.59-4.69-.23-3.51-.56-7.02-.85-10.53-.28-3.74,.02-4.09,3.43-3.83,4.79,.36,9.58,.64,14.39,.35,1.27,.05,.81,1.33,1.35,1.9h-.02Z"/><path class="cls-70" d="M507.02,773.26c-1.34,1.05-2.59,1.48-4.5,1.03-3.93-.94-8.07,.07-12.11-.88-2.22-.52-1.33,1.89-1.81,3-.48-3.86-.95-7.72-1.43-11.57,5.32-1.42,10.7-3.29,16.2-2.12,2.86,.61,3.68-.41,4.41-2.54,.24,.13,.35,.29,.34,.48-.02,.21-.05,.32-.12,.32-.07,1-.15,2-.22,2.99-1.02,3.03,.38,6.26-.76,9.28Z"/><path class="cls-23" d="M555.83,778.6c.07-.49,.14-.99,.21-1.48,.85-1.25-.15-2.84,.73-4.09,4.74-.8,9.5-1.51,14.23-2.4,.65-.12,1.26-.16,1.78,.32,.36,3.37,.43,6.81,1.17,10.09,.46,2.02-.34,2.06-1.74,2.28-5.09,.8-10.16,1.78-15.31,.54-.36-.23-.73-.45-1.09-.68-.27-1.53-.3-3.06,.02-4.59Z"/><path class="cls-69" d="M572.79,770.96c-5.18,1.55-10.37,3.06-15.89,2.35-.83-1.27-.65-2.58-.1-3.89h0c.59-1.28,.6-2.56,0-3.84h0c-.53-1.1-.74-2.18,.15-3.21,4.96-1.24,9.91-2.58,15.11-2.13,.11,3.59,0,7.19,.74,10.73Z"/><path class="cls-24" d="M561.36,495.62c-2.52,.98-1.48,3.35-1.81,5.08-.36,1.91-.21,3.92-1.01,5.78-.52-.26-1.04-.51-1.56-.77,.03-3.34,2.04-6.45,1.16-9.9,1.05-.44,2.07-1.52,3.22-.19Z"/><path class="cls-85" d="M515.51,643.29c-.18,1.4-.8,2.57-2.15,4-1.07-2.73,.43-4.52,1.31-6.41,.22,.83-.14,1.85,.84,2.41Z"/><path class="cls-88" d="M507.02,773.26c.5-3.07-.63-6.28,.76-9.28,0,3.61,0,7.23-.01,10.84-.25-.52-.5-1.04-.75-1.56Z"/><path class="cls-85" d="M517.75,647.13c-.97-.92-.48-2.12-.58-3.2-.13-1.42-.75-1.35-1.66-.64-.06-.81,.1-1.64,.97-1.8,1.01-.19,1.24,.77,1.28,1.48,.09,1.38,0,2.77,0,4.16Z"/><path class="cls-88" d="M508.01,760.99c-.07-.27-.15-.54-.22-.81,.46-1.76-.63-3.74,.76-5.36-.08,2.06,.68,4.2-.54,6.17Z"/><path class="cls-88" d="M508.53,754.85c.02-1.63-.49-3.33,.73-4.77-.06,1.62,.78,3.38-.73,4.77Z"/><path class="cls-56" d="M534.61,608.84c1.11,1.11,.54,2.56,.78,3.84-1.37-1.06-.74-2.52-.78-3.84Z"/><path class="cls-2" d="M551.91,241.78c-4.16,6.59-8.83,12.75-15.07,17.57-1.56,1.82-3.52,1.83-5.56,1.14-10.97-3.72-20.84-9.17-28.27-18.35-2.24-2.77-4.95-5.08-7.36-7.68-4.29-5.03-4.99-11.33-6.21-17.46-.65-5.23-2.67-10.32-1.56-15.71,1.89-9.74,7.6-17.38,13.7-24.8,2.34-.95,4.65-.37,6.56,.83,2.58,1.64,5.01,2.09,7.74,.67,4.53,1.74,8.76,.79,12.76-1.58,3.16-1.88,6.09-2.33,8.95,.57,.98,.99,2.38,1.73,3.76,1.68,6.05-.23,12.07,2.08,18.13,.17,.75-.24,1.51-.16,2.19,.3,2,2.73,2.03,6,2.17,9.1,.74,15.39-1,30.45-6.8,44.86-1.26,3.14-2.1,6.59-5.15,8.7Z"/><path class="cls-25" d="M512.38,143.21c1.14-5.03,4.58-8.59,8.34-11.55,8.77-6.92,18.61-11.28,30.09-11.48,5.91-.1,10.36,2.97,15.07,5.71,13.74,12.94,21.36,29.77,29.18,46.39,4.55,9.65,3.94,19.87,1.83,30.12-2.03,9.81-5.37,19.27-7.46,29.08-1.94,9.06-1.73,18.07-1.2,27.16-1.23,.48-1.3,.51-1.73-.66-1.13-3.07-1.42-6.35-2.41-9.46-.22-.68-.26-2.13-1.54-.72-.83,6.62-.1,13.04,2.19,19.28,.48,1.29,1.18,2.52,1.04,3.97-1.26,3.03-2.76,1.25-3.34-.17-4.5-11.11-8.17-22.43-6.53-34.68,.7-5.26,1.04-10.6,2.75-15.68,1.52-6.27,4.43-12.09,5.57-18.51,1.65-9.27-1.12-17.21-6.35-24.61-.83-2.23-3.31-4.1-1.53-6.91,2.95-.29,6.43,.67,7.83-3.3,.48-1.75,2.17-3.79-1.57-4.17-1.32-.14-1.44-1.94-1.54-3.22-.27-3.35-1.63-6.01-4.33-8.14-2.83-2.23-3.44-5.39-3.38-8.89,.1-6.7-.25-7.07-6.83-7.75-3.12-.32-4.73-2.13-5.76-4.81-1.16-3.03-2.68-5.74-6.14-6.89-.9,1.77,2.64,3.35,.11,5-.37,.09-.79,.17-1.13,.01-8.11-3.78-13.82,.44-19.22,5.69,2.86-1.7,5.42-3.94,8.72-4.91,6.17-1.81,10.02-.05,12.58,5.79,2.52,5.74,3.74,6.23,11.09,4.45,2.75-.01,3.87,1.61,3.91,4.1,.06,3.75,1.19,7.03,4.14,9.42,1.39,1.13,.7,2.6,1.17,3.87,3.59,3.74,1.14,7.62,.31,11.46-2.17,.82-2.24-1.15-2.47-2.2-.44-2.06-1.77-2.94-3.53-3.53-1.69-2.59-2.04-5.73-3.46-8.44-2.99-5.69-6.72-8.15-13.33-8.54,.5,.12-.26,0-.05,.04,11.86,2.5,14.63,11.31,15.08,21.68,.09,2.16-.5,4.3-1.02,6.39-.85,3.38-.5,6.55,1.11,9.47-.96-4-.9-8.07,.65-12.09,.85-1.41,1.97-3.2,2.81-.22,2.36,8.26,5.59,16.27,4.99,25.25-.63,9.39-2.79,18.31-6.12,27.01-2.37,6.2-4.39,12.46-5.12,19.1-.84,7.62,.12,14.94,3.45,21.9,.6,2.25,4.06,4.02,1.17,6.86-1.09-.24-2.25-.86-3.26-.67-5.09,.96-6.82-2.27-8.12-6.16-1.22-3.09-.9-6.42-1.54-9.6-.59-5.65,1.49-10.77,3.3-15.9,1.69-4.8,3.53-9.55,4.82-14.49,.88-3.38,1.11-6.77,.29-10.19-.08-.6-.06-1.19,.05-1.78,2.63-5.19,5.33-10.37,4.15-16.25-1.1,3.7-.2,8.11-2.68,11.78-1.29,.1-1.85-.72-2.26-1.74-.83-3.95,.54-7.81,.54-11.76,0-5.23-.87-10.11-3.2-14.74-.86-2.05-3.86-3.94-.23-6.33-1.76,.88-3.41,1.37-4.74,.01-1.17-1.2,.02-2.58,.35-3.86,.16-.6,.34-1.2,.52-1.8,.77-2.41-.2-3.36-2.61-3.14-.51,.05-1,.1-1.5,.23-8.94,2.43-10.94,1.05-11.48-8.44-.32-5.62-2.03-10.21-7.47-12.71-.49-.12,.14,0-.35-.13-2.69-.67-6.98-2.72-8.73-4.17-5.34,1.16-8.61,5.1-12,8.89-.74,.83-.97,2.12-2.27,2.43-3.41-2.56-.84-4.82,.35-7.15Z"/><path class="cls-14" d="M488.77,239.51c2.86,3.58,2.58,6.78,.53,10.57-3.17,5.86-4.4,12.4-4.39,19.06,0,2.35-.66,2.61-2.74,2.31-10.29-1.48-20.6-2.74-30.98-.78-.7,.13-1.61,.34-1.99-.55-.3-.69,.42-1.1,.77-1.59,5.27-7.56,11.86-13.86,18.86-19.76,1.23-1.03,2.66-1.67,4.19-1.5,6.83,.75,11.21-3.38,15.75-7.76Z"/><path class="cls-25" d="M505.53,272.44c-4.81,1.71-9.66,1.52-14.65,.74-3.5-.54-4.57-2.57-4.19-5.46,.62-4.78,1.34-9.79,3.86-13.86,3.82-6.15,3.02-11.99,.54-18.1-.85-1.06-.27-2.3-.44-3.45,.05-.75-.21-1.6,.68-2.07,2.75,.32,3.14,3.09,4.76,4.58,.55,.61,.82,1.32,.74,2.15-.99,2.47-.97,4.92,.03,7.41,3.41,8.48,5.87,17.29,8.81,25.92,.25,.73,.5,1.45-.13,2.13Z"/><path class="cls-18" d="M538.7,261.12c4.97-2.87,7.89-7.71,11.43-11.95,.79-.95,1.48-1.99,2.61-3.53,.35,4,.65,7.4,.95,10.8-2.44,6.09-5.7,11.68-10.88,15.84-5.11,4.09-9.86,3.77-14.67-.7-1.02-.95-2.21-1.73-3.01-2.91-.48-2.47,1-4.59,1.21-6.95,.35-.79,.96-1.23,1.81-1.32,3.46,1.14,6.9,2.48,10.56,.72Z"/><path class="cls-13" d="M525.34,268.61c1.32-.05,2.12,.81,2.82,1.71,4.75,6.08,11.99,4.63,16.84-1.3,2.8-3.43,5.48-7.01,7.1-11.21,.31-.8,.68-1.33,1.57-1.37,1.22,4.78,1.91,9.75,5.94,13.99-4.77,.61-8.73,1.68-12.03,4.37-.77,2.05-2.99,2.69-4.22,4.3-1.76,1.7-3.68,3.21-5.78,4.47-1.03,.18-1.82-.08-2.13-1.19-3.82-2.86-8.58-4.27-12.01-7.73-.88-.42-2.32-.4-1.61-2.06l-.04,.05c.49-1.95,1.42-3.5,3.53-4.02Z"/><path class="cls-63" d="M559.15,167.78c.53,1.85-2.56,3.64-.68,5.08,1.87,1.43,3.52-1.31,6.06-1.67-.46,2.52-5.27,4.28-1.55,7.18,4.63,18.55,1.79,36.48-4.55,54.11-.46,1.27-1.44,2.48-.36,3.9-1.74,5.28,0,10.98-1.95,16.24-2.18-.86-1.12-2.45-.87-3.85,0-1.53,0-3.06,0-4.59-1.22-1.33-.89-2.83-.53-4.36-.44,.81-.62,1.86-1.76,2.07-.35-.04-.69-.07-1.04-.11,4.7-9.18,8.26-18.8,9.76-29,1.64-11.15,2.59-22.38-.49-33.5-1.42-1.29-2.94-1.75-4.87-1.03-2.59,.97-4.84,.66-5.67-2.49-.41-1.56-1.23-1.5-2.57-1.15-6.09,1.6-6.23,1.5-9.54-3.66-2.07-3.23-3.46-3.46-5.78-.66-2.69,3.26-5.71,5.66-10.19,5.93-2.36,.14-4.34,2.18-6.91,1.77-1.16-.4-1.91-1.19-2.23-2.37-.12-.79,.04-1.49,.62-2.07,.57-.47,1.21-.77,1.96-.77,.51,.09,.96,.33,1.43,.53,2.47,.05,4.51-1.48,6.86-1.85,2.39-.53,3.48-2.49,4.73-4.28,.62-.81,1.33-1.53,2.08-2.22,3.84-3.54,5.63-3.42,9.01,.6,.67,.97,1.07,2.12,1.86,3.02,.32,.39,.57,.82,.78,1.28,1.27,2.23,3.02,1.41,4.74,.74q4.98-1.5,7.02,2.96c.23-.08,.4-.26,.42-.55,.1-1.63,.57-3.21,.59-5.06-2.59,.38-4.74,2.12-7.35,1.81-1.39-.74-3.8-.34-3.45-3.05,3.56-.25,7.07-.44,10.49-1.87,2.17-.91,3.9,.26,3.94,2.95Z"/><path class="cls-16" d="M505.53,272.44c-3.4-9.84-6.76-19.68-10.21-29.5-.83-2.37-.61-4.44,1.02-6.34,3.3,.21,4.11,2.84,5.13,5.26,.26,2.35,1.61,4.27,2.58,6.33,2.86,6.15,5.42,12.41,5.44,19.33,0,2.96,2,2.33,3.7,2.41,.6-.03,1.2-.01,1.8,.02,1.18,.24,2.68-.05,2.87,1.77-.8,.49-1.6,.52-2.39-.02-3.36-.27-6.66,.09-9.95,.74Z"/><path class="cls-62" d="M500.97,241.87c-1.25-2.02-2.48-4.06-4.63-5.28-.27-.5-.54-1.01-.8-1.51-.18-.77,.11-1.07,.89-.86,5.45,4.21,9.19,10.09,14.52,14.47,6.3,5.19,13.54,8.34,21.07,11.08,1.75,.64,3.22-.29,4.83-.41,.02,.3,.04,.59,.05,.89-.89,.63-1.79,1.23-2.92,1.31,1.3,.34,2.28-1.58,3.68-.56,.35,.04,.7,.09,1.05,.13-3.47,3.3-6.86,1.92-10.24-.18-4.18-.44-7.73-2.64-11.58-4.13,1.43,3.92,3.62,7.51,4.55,11.51,.17-2.03,1.05-3.97,1.88-5.88,.72-1.65,1.9-3,3.58-.7,.81,2.58-.89,4.61-1.54,6.86-.97,1.53-1.89,3.09-3.53,4.02-2.04-.81-4.54,1.51-6.33-.93,.77,0,1.53-.01,2.3-.02-.05-3.09-1.68-5.68-2.74-8.44-.9-2.35-2.01-4.62-2.52-7.11-.55-2.68-2.51-4.26-4.48-5.87-2.88-2.34-5.75-4.71-7.06-8.38Z"/><path class="cls-12" d="M549.39,276.41c5.35-1.29,10.69-2.65,16.29-2.26,1.39,.1,2.78,.02,4.08,.64,.43,.4,1.26,.6,.75,1.48-8.1,1.88-15.38,6.25-23.63,7.68-1.45,.92-3.22-.19-4.67,.73-.68,.42-1.3,.97-2.19,.84-.78,.51-1.41,.33-1.91-.43-.11-.36-.12-.72-.04-1.09,1.5-2.29,4.44-2.96,5.95-5.26,1.46-1.53,3.31-2.19,5.37-2.33Z"/><path class="cls-3" d="M526.97,280.59q-19.2,1.4-25.4-2.2c7.17-4.97,22.28-3.66,25.4,2.2Z"/><path class="cls-47" d="M556.01,252.59c.06-5.65-.57-11.36,1.55-16.81,.52-4.08,2.32-7.76,3.67-11.57,1.85-5.19,2.11-10.68,3.18-16.02,.19-.95-.05-2.15,1.46-2.22,.23,.73,.74,1.17,1.47,1.37,1.2,1.76-1.52,3.01-.62,4.73v1.53c.24,4.52-1,8.76-2.33,13-2.09,6.63-4.8,13.08-5.81,20.03-.36,2.48-1.17,4.93-.32,7.45,.79,3.28,1.09,6.6,.82,9.97-2.62-1.95-1.27-5.11-2.26-7.57-.39-.98,.25-2.28-.81-3.14-.17-.17-.23-.33-.18-.5,.06-.17,.11-.25,.17-.25Z"/><path class="cls-1" d="M469.75,228.05c1.01-2.51,2.02-5.02,3.03-7.52,.54-1.21,1.24-1.15,1.95-.18,.76,1.04,1.07,2.3,1.43,3.51,1.38,4.64,4.1,8.1,8.63,10.04,.75,.32,1.78,.58,1.57,1.81-.16,.28-.31,.56-.47,.84-2.4,4.32-2.78,4.37-6.37,.91-3.25-3.14-6.51-6.27-9.77-9.4Z"/><path class="cls-76" d="M583.62,273.18c-3.73,.45-7.18-1.15-10.81-1.48,0-.24-.01-.47-.02-.71,.05-.18,.11-.35,.16-.53,.5-1.63-.42-2.95-.98-4.33-2-4.95-3.23-10.12-4.34-15.32-.21-.97-.34-2.3,.77-2.68,1.39-.48,1.87,.86,2.34,1.88,.71,1.51,.63,3.23,1.31,4.74,1.19,3.58,2.26,7.21,3.4,10.81,1,3.14,2.55,5.42,6.05,5.93,.92,.13,2.11,.24,2.1,1.68Z"/><path class="cls-42" d="M399.3,299.1c15.34,2.22,30.78,1.18,46.18,1.43,2.25,.04,4.57-.29,6.67,.93-12.84,.02-25.7,.4-38.52-.13-4.73-.2-9.9,.59-14.33-2.23Z"/><path class="cls-5" d="M573.47,277.69c-8.24,2.75-16.48,5.5-24.72,8.25-.12-.37-.24-.74-.36-1.12,8.59-2,16.32-6.65,25.08-7.13Z"/><path class="cls-58" d="M570.46,270.89c1.39-2.48-1.41-3.93-1.49-6.06-.68-1.45-1.43-2.89-1.27-4.58,.25-.61,.65-1.01,1.36-.96,2.3,3.51,3.78,7.3,3.82,11.56,0,0-.08,.13-.08,.13-.78-.03-1.56-.07-2.34-.1Z"/><path class="cls-5" d="M538.45,284c-.04,.2-.06,.4-.08,.6-.27,.67-.56,1.32-1.38,1.48-.24,.32-.17,1.75-.85,.65-.99-1.59-2.21-2.97-3.39-4.46,1.02-.87,1.84,.46,2.73,.11,.69,.24,1.18,1.01,2.06,.73,.81-.21,1.08,.12,.92,.9Z"/><path class="cls-5" d="M552.95,241.89c.84-1.35,1.16-3.04,3.23-4.79-1.13,2.87-.89,4.98-.94,7.08-1.34-.19-3.74,.68-2.29-2.29Z"/><path class="cls-42" d="M463.51,301.42c5.46,.03,10.89,.41,16.24,1.55-5.48,.22-10.93,.1-16.24-1.55Z"/><path class="cls-5" d="M549.39,276.41c-1.62,.98-3.24,1.96-4.85,2.94-1.09,.52-1.78,.38-1.68-1.03,1.1-1.82,3.12-2.4,4.75-3.52,.35,.81,.97,1.33,1.79,1.61Z"/><path class="cls-51" d="M428.88,289.26c-1.64,1.27-4.18,3.61-5.29,1.86-1.14-1.79,2.44-2.37,3.9-3.54-.57,1.42,.04,1.85,1.39,1.68Z"/><path class="cls-57" d="M575.15,280.18c-.34-.76-1.07-.79-1.73-.94,1.13-.7,2.26-1.4,3.4-2.11,.92-.27,1.85-.54,2.77-.81,.64,.08,1.01,.43,1.1,1.08-1.43,1.75-2.91,3.4-5.53,2.77Z"/><path class="cls-5" d="M556.01,252.59c0,.25,0,.5,0,.75,0,1.49,0,2.99,0,4.48-.88-3-2.64-5.92-.77-9.06,.19,1.29-.51,2.75,.77,3.82Z"/><path class="cls-42" d="M453.4,301.46c3.39-.89,6.77-.92,10.16,0-3.39,0-6.77,0-10.16,0Z"/><path class="cls-5" d="M537.65,260.99c-1.82-.17-3.43,2.64-5.52,.35,1.66-.38,3.21-.74,4.76-1.1,.25,.25,.5,.5,.76,.75Z"/><path class="cls-30" d="M570.5,276.27c-.25-.49-.5-.98-.75-1.48h3.28c-.28,1.86-1.52,1.44-2.53,1.48Z"/><path class="cls-28" d="M536.98,286.08c.46-.49,.92-.99,1.38-1.48,.31,.74,1.01,.77,1.65,.91-.88,.91-1.77,1.73-3.03,.57Z"/><path class="cls-28" d="M542.21,284.67c1.4-1.25,3.08-.69,4.67-.73-1.4,1.23-3.08,.67-4.67,.73Z"/><path class="cls-62" d="M521.85,272.58c.02,1.09,1.17,1.3,1.61,2.06-1.14-.22-3.21,.3-1.61-2.06Z"/><path class="cls-32" d="M490.95,232.04c.05,1.24,.09,2.48,.14,3.72-1.4-1-.61-2.51-.88-3.77,0,0,.06-.06,.06-.06,.29-.32,.51-.3,.68,.11Z"/><path class="cls-26" d="M583.62,273.18c-.49-.75-1.24-.74-2.02-.76-3.47-.09-5.61-1.79-6.55-5.19-1.15-4.15-2.49-8.24-3.75-12.36-.8-4.59-1.47-9.2-1.13-13.88,.16-2.13,.22-4.32,1.9-5.98,2.01-.02,1.6,1.65,1.7,2.72,.2,2.22,.6,4.39,1.2,7.27-.34-7.51-.83-14.34,1.59-20.91,.51-1.39,.49-3.05,2.04-3.9,.42-.09,.79,.01,1.11,.3-3,11.85-4.45,23.79-1.38,35.85,1.26,4.94,3.8,9.47,4.93,14.48,.1,.47,1.02,2.5,1.8,.14,1.54,.98,1.55,2.08,.02,2.97-.48-.25-.97-.49-1.45-.74Z"/><path class="cls-93" d="M582.03,247.23c1-.59,.5-1.92,1.49-2.95,2.24,4.74,2.62,9.75,4.03,14.45,.02,.07,.22,.12,.33,.1,.12-.02,.22-.12,.33-.19,1.99,5.62,3.98,11.24,6.1,17.22-3.17-.43-6.06-.55-7.03-4.1-3.75-4.65-4.44-10.36-5.17-15.94-.37-2.8-.4-5.73-.07-8.6Z"/><path class="cls-37" d="M582.03,247.23c1.25,4.88,.56,9.98,2.03,14.9,.97,3.26,2.45,6.33,3.22,9.63-1.4,.05,.44,3.39-2.21,2.16,1.31-1,.88-1.98-.02-2.97-2.94-6.98-4.36-14.22-3.81-21.8,.05-.66-.68-1.8,.79-1.93Z"/><path class="cls-39" d="M575.15,280.18c1.75-1.01,3.5-2.01,5.25-3.02,.21-.71,.9-.98,1.35-1.47,.65,.51,1.3,1.02,1.95,1.53-3.6,2.68-7.33,5.14-11.52,6.83-.86,.28-1.03-.13-.89-.87,1.28-1,2.57-1.99,3.85-2.99Z"/><path class="cls-27" d="M581.76,275.68c.09,.98-.5,1.35-1.35,1.47-.27-.28-.54-.56-.82-.83,.53-.88,1.41-.55,2.17-.64Z"/><path class="cls-25" d="M474.25,193.1c-1.74,1.37-3.3,3.81-5.73,2.91-2.33-.87-2.41-3.56-2.84-5.84-1.99-10.38,.73-19.8,6.59-28.12,6.56-9.31,14.81-17.06,25.09-22.32,3.86-1.97,7.97-2.39,12.2-1.06,1.2,.38,2.18,.74,2.01,2.25-.17,4.03-1.29,7.95-1.45,11.99-.46,1.34-.54,2.72-.49,4.13,.02,.61,.02,1.22,.02,1.82-.52,2.51,1.8,5.26-.62,7.62-3.47-.19-4.91-2.87-6.22-5.41-3.01-5.82-5.75-7.75-10.73-7.08-5.41,.73-9.62,4.9-10.74,10.42-.54,2.66-.19,5.27-.09,7.91,.2,5.19-1.31,6.52-6.52,6.07-.71-.18-1.36-.5-2-.83-2.57-1.23-1.94,.88-2.16,2.09-.44,3.27,1.83,4.76,4.09,6.26,1.54,1.03,3.6,1.49,4.12,3.68,.71,4.03-3.02,2.31-4.52,3.5Z"/><path class="cls-18" d="M486.36,235.7c-6.62-2.27-10.26-7.08-11.85-13.71-.17-.72,.03-2.4-1.73-1.46,1.7-5.5,1.24-11.27,2.08-16.88,.52-1.3,1.04-2.6,1.55-3.9,.69-.11,1.11-.77,1.78-.91,1.74,4.44,2.55,9.06,3.06,13.81,.66,6.16,1.79,12.2,6.09,17.21,1.61,1.87,1.26,4.22-.99,5.85Z"/><path class="cls-93" d="M474.25,193.1c1.15-1.41,4.8-.46,3.76-3.95,4.01-1.68,6.03-.59,7.2,3.61,2.01,7.24,2.13,14.79,3.86,22.08,.47,1.95,1.14,3.9,1.17,5.95,.09,3.28,2.36,6.22,1.51,9.65-.63,.35-.72,.98-.81,1.61-.23-.04-.45-.08-.68-.11,.06-1.06-.21-2.01-.93-2.82-5.59-6.21-5.8-14.15-6.53-21.74-.34-3.6-1.35-6.94-2.19-10.34-.74-3-3-4.65-6.38-3.94Z"/><path class="cls-90" d="M508.66,158.52c0-.49,0-.99-.01-1.48,.81-1.2-.07-2.66,.63-3.88,.14-4.2,1.03-8.26,2.29-12.25,.16,.8-.1,1.75,.81,2.29-.32,1.47-.51,2.98-1,4.4-.42,1.22-.15,1.94,.97,2.44,.63,3.28-.91,6.11-1.85,9.07-.95,.83-1.4,.14-1.84-.6Z"/><path class="cls-29" d="M478.2,198.84c-.32,.84-.19,2.55-1.78,.91,.39-.84,.79-1.69,1.18-2.53,.2,.54,.4,1.08,.6,1.62Z"/><path class="cls-96" d="M543,659.32c0,5.86-.02,11.72-.02,17.58-1.24-5.86-1.27-11.72,.02-17.58Z"/><path class="cls-79" d="M556.94,762.36c-.05,1.07-.1,2.14-.15,3.22-1.64-3.56-.56-7.29-.66-10.94,1.4,2.46,.13,5.19,.82,7.73Z"/><path class="cls-96" d="M543.69,648.63c-.19,3.12-.39,6.24-.58,9.37-.03-3.13-.06-6.25-.09-9.38,.23-.34,.46-.35,.67,.01Z"/><path class="cls-78" d="M543.69,648.63c-.22,0-.45,0-.67-.01-.02-2.55-.03-5.09-.05-7.64,.97,.61,1.3,1.58,1.46,2.64-1.79,1.44-.47,3.34-.74,5.01Z"/><path class="cls-79" d="M556.79,769.42c.03,1.3,.07,2.59,.1,3.89-.27,1.27,.3,2.73-.85,3.81,.24-2.57-.84-5.26,.74-7.7Z"/><path class="cls-79" d="M555.83,778.6c0,1.53-.01,3.06-.02,4.59-.98-1.54-.98-3.07,.02-4.59Z"/><path class="cls-79" d="M556.78,765.58c1.07,1.28,1.09,2.57,0,3.85,0-1.28,0-2.57,0-3.85Z"/><path class="cls-78" d="M546.9,646.16c.71,1.52,.94,3.02-.09,4.5-.04,.05-.28,.05-.33,0-.14-.16-.23-.36-.34-.54,1.16-1.14,.43-2.65,.77-3.95Z"/><path class="cls-40" d="M571.3,283.17c.29,.29,.59,.58,.88,.87-.94,.73-1.85,1.55-3.49,1.29,.46-1.38,1.59-1.7,2.6-2.16Z"/><path class="cls-19" d="M515.52,177.75c3.3-1.17,6.43-2.67,10.05-3.05,3.39-.36,5.11-3.41,7.05-5.95,2.1-2.75,3.57-2.6,5.68-.01,1.66,2.03,1.56,5.6,5.22,5.94,2.84,.27,5.01-1.54,7.44-2.27,.74,.53,.49,1.19,.47,1.78-.13,3.64,1.29,4.89,4.48,3.13,3.02-1.68,4.32-.85,5.27,1.96-6.74,3.22-13.66,.06-20.5,.47-1.29,.08-3.05-.99-3.93-2.07-2.18-2.68-4.24-2.35-6.86-.76-2.69,1.64-5.59,2.91-8.86,3.09-2.12,.11-4.02-.15-5.63-1.63-.17-.25-.12-.46,.12-.63Z"/><path class="cls-34" d="M515.52,177.75c-.05,.21-.09,.42-.12,.63-1.69,2.56-3.51,2.36-5.86,.66-2.25-1.63-4.87-2.68-7.82-2.12-2.03,.99-2.95,3.05-4.43,4.58-1.83,1.9-2.83,4.57-6.41,4.47-2.13-.06-2.38,2.59-2.67,4.47-.52,3.42,.56,6.77,.41,10.18-1.04,5.7,1.69,11.02,1.69,16.62,.1,1.38,1.21,2.96-.77,3.93-2.58-9.45-3.52-19.21-5.4-28.8-.75-3.83-3.54-3.23-6.15-3.24-1.76-1.18-3.43-2.55-5.32-3.48-2.85-1.4-3.64-3.55-3.07-6.46,.45-.44,.97-.46,1.53-.25,2.86,3.91,6.36,6.75,11.39,7.44,1.33,.18,2,.25,2.66-1.05,.96-1.87,2.62-3.06,4.63-3.73,1.37-.24,2.5-.83,3.13-2.16,4.68-6.5,6.64-7.12,14.95-4.37,2.25,.75,3.85,1.18,2.74-2.15,0-.4,.18-.7,.51-.91,2.78-.42,2.09,2.04,2.78,3.35,.52,.79,1.05,1.59,1.57,2.38Z"/><path class="cls-52" d="M527.64,203.53c1.45-3.99,4.55-5.22,8.47-5.12,1.18-.16,2.23,.1,3.25,.77,3.98,2.63,6.8,10.73,5.26,15.23-5.23,3.71-10.98,3.6-16.89,2.33,1.16-2.34,1.46-4.84,1.36-7.42,1.32-3.82,3.9-5.9,6.69-5.41,3.07,.54,4.7,3.1,5.1,7.92,.2-1.62-.26-3.13-.91-4.59-2.3-5.17-5.44-5.97-10.07-2.57-.52,.38-1.03,.73-1.7,.75-.95-.41-.93-1.1-.54-1.89Z"/><path class="cls-44" d="M543.13,231.45c-.32,6.59-3.54,11.56-8.88,15.13-4,2.68-9.43,1.39-12.03-2.54-.66-.99-1.11-2.01,0-3.01,.5-.27,1.03-.3,1.58-.17,3.09,4.32,6.54,4.83,10.62,1.47,2.31-1.9,3.61-4.49,4.87-7.44-3.79,.54-6,4.06-9.68,3.85-.73-.25-1.5-.48-1.21-1.54,3.47-2.22,6.9-4.52,10.44-6.62,1.35-.8,2.17-1.51,.68-3.55,2.16,.67,3.34,1.43,4.21,2.69,.43,.8-.2,1.22-.61,1.73Z"/><path class="cls-23" d="M544.61,214.41c-.83-6.4-1.24-13.02-8.51-16,.79-1.17,1.95-1.73,3.28-1.39,4.04,1.02,7.64,2.88,9.9,6.53,2.85,4.6,1.3,8.07-4.67,10.86Z"/><path class="cls-23" d="M488.64,200.63c-1.8-4.3-2.17-8.66-.76-13.18,.41-1.32,1.03-2.85,2.25-2.65,4.47,.73,5.27-3.43,7.61-5.43,1.25-1.07,2.17-2.41,3.99-2.44-4.84,7.64-10.67,14.73-13.09,23.7Z"/><path class="cls-33" d="M511.78,219.2c-2.46,2.3-5.27,3.19-8.57,2.17-1.02-.82-2.99-.4-3.11-2.4-.19-1.14-.18-2.28,.02-3.41,.33-1.88,1.25-3.35,3.15-3.92,2.02-.61,3.37,.54,4.59,1.95,1.14,1.32,1.53,3.26,3.36,4.01,.49,.43,.87,.9,.57,1.6Z"/><path class="cls-35" d="M511.78,219.2c-.38-.38-.76-.76-1.14-1.13-1.66-1.59-1.4-4.05-2.64-5.83-1.09-1.57-2.14-3.44-4.37-3.1-2.27,.34-2.76,2.41-3.12,4.31-.35,1.84-.91,3.74,.42,5.46-.16,1.67,1.86,1.33,2.28,2.47-1.81-.25-3.84-.07-4.49-2.44-3.53-5.91-1.09-13.29,4.65-14.08,.51-.07,.99,.02,1.44,.29,5.73,1.86,6.98,6.82,8.09,11.82,.19,.87-.27,1.73-1.11,2.24Z"/><path class="cls-23" d="M548.13,195.33c-2.13-.35-4.15-.98-5.97-2.16-4.05-2.64-8.46-2.76-13.01-1.84-.22-.32-.3-.67-.24-1.05,.98-1.79,2.74-2.53,4.44-3.38,5.96-1.72,12.52,1.39,15,7.08,.22,.5,.23,.96-.21,1.35Z"/><path class="cls-43" d="M548.13,195.33c-1.59-2.91-3.5-5.47-6.57-7.04-2.74-1.41-5.5-1.53-8.38-.62-.94,.38-1.75,.53-1.7-.92,6.98-3.92,16.27-.4,18.44,7.02,.28,.94,.75,2.16-.23,2.77-.83,.51-1.1-.7-1.57-1.21Z"/><path class="cls-19" d="M509.34,196.74c-3.77,1.22-7.82,1.67-11.09,4.3-1.34,1.08-2.22-.7-3.32-1.14-.58-.75-.01-1.37,.24-2.03,.69-1.72,2.19-2.6,3.65-3.52,4.06-1.65,7.62-1.11,10.51,2.38Z"/><path class="cls-21" d="M504.8,205.14c-4.68,.74-7.53,4.96-6.78,10.06,.18,1.25,.46,2.49,.7,3.73-4.03,0-3.82-2.99-3.8-5.63,.03-6.19,4.68-9.96,9.88-8.16Z"/><path class="cls-87" d="M518.37,212.15c.5,4.31,.24,8.54-2.28,12.23-.97,1.42-.38,1.98,.62,2.75,1.79,1.36,3.55,2.78,6.1,4.78-4.27-.28-6.55-2.24-8.66-4.3-1.15-1.13-1.46-2.73-.03-4.07,2.23-2.08,2.52-4.88,2.95-7.64,1.01-1.05-.7-3.04,1.3-3.74Z"/><path class="cls-86" d="M489.56,221.18c1.24-1.12,.38-2.65,.77-3.93,1.25,2.16,1.02,4.66,1.57,6.99,.86,3.66,2.46,6.9,4.53,9.97-.3,.29-.59,.58-.89,.86-1.26-1.55-2.52-3.09-3.78-4.64-.66-3.1-2.13-6.01-2.2-9.26Z"/><path class="cls-81" d="M509.34,196.74c-3.4-1.49-6.69-3.76-10.62-1.46-.94,.45-1.68,.53-1.63-.87,3.11-2.38,6.41-3.68,10.07-1.3,1.22,.79,2.61,1.73,2.18,3.63Z"/><path class="cls-67" d="M527.64,203.53c.16,.61,.13,1.32,.82,1.67,1.41,2.35-.84,4.5-.31,6.75,.66-.92-.21-2.85,1.81-3-.35,2.71,1.55,6.06-2.23,7.79-2.34-3.13-2.37-8.33-.08-13.21Z"/><path class="cls-77" d="M528.4,237.2c.32,.78,1.05,.81,1.72,.94-1.23,2.64-3.03,4.13-6.11,3.03-.6-.04-1.2-.09-1.79-.13,2.06-1.28,4.12-2.55,6.18-3.83Z"/><path class="cls-68" d="M497.09,194.42c.32,.71,.97,.8,1.63,.86-1.08,.98-2.16,1.96-3.25,2.94-.78,.14-1.08-.15-.82-.92,.31-1.39,1.17-2.31,2.44-2.88Z"/><path class="cls-60" d="M531.49,186.75c.33,.73,1.01,.83,1.7,.92-1.35,.97-2.7,1.94-4.04,2.91-.75,.15-1.1-.07-.83-.88,.85-1.21,1.69-2.43,3.18-2.95Z"/><path class="cls-89" d="M543.13,231.45c.2-.58,.4-1.15,.61-1.73,1.47,.68,2.87,1.43,3.34,3.77-1.6-.83-2.77-1.43-3.94-2.04Z"/><path class="cls-74" d="M518.37,212.15c-1.1,1.02,.07,2.82-1.3,3.74,.34-1.38-.56-3,.81-4.17,.05-.04,.24,.03,.31,.1,.09,.08,.12,.22,.18,.33Z"/><path class="cls-72" d="M528.3,189.7c.28,.29,.56,.59,.83,.88,0,.25,0,.5,0,.75-.51,.24-1,1.25-1.49,.63-.58-.74-.1-1.65,.65-2.26Z"/><path class="cls-9" d="M494.66,197.3c.27,.31,.55,.62,.82,.92-.18,.56-.36,1.13-.54,1.69-1.9-.68-.86-1.67-.28-2.61Z"/><path class="cls-93" d="M572.81,235.02c-2.47,4.5-1.23,9.4-1.5,14.14-.11,1.9,0,3.81,0,5.72-1.47-1.85-.39-4.78-3.18-6.85,1.13,6.41,2.53,12.06,4.66,17.54,.55,1.41,1.24,2.78,1.68,4.22,.54,1.76-.9,.94-1.59,1.08-1.29-3.8-2.58-7.6-3.88-11.39-.89-.39-1.12-.06-.84,.79,.27,1.52,.53,3.05,.8,4.57-2.48-2.76-3.07-6.28-3.75-9.71-2.33-11.68,.8-22.57,5.03-33.27,4.25-10.75,6.42-21.85,5.59-33.42-.3-4.19-1.81-8.13-3.28-12.05-.76-2.02-1.6-4.04-1.16-6.31-1.21-.01-.76,1.3-1.52,1.52-1.64-3.23-.8-6.27,.74-9.24,1.98-.74,3.37-.42,3.72,1.98,.21,1.48,.47,2.97,1.52,4.16,.82,.55,1.21,1.27,.85,2.27-.91,2.39,1.37,3.98,1.54,6.11-.12,.14-.25,.28-.36,.42-1.05,1.38,.23,2.38,.65,3.45,3.44,8.78,4.04,17.8,1.98,26.93-1.88,8.29-5,16.27-6.37,24.7-.16,.99-.44,2-1.33,2.66Z"/><path class="cls-7" d="M513.95,175.37c-1.11-.92-.85-3.2-3.02-3.07-.04-6.02,1.34-11.8,2.79-17.58,1.21-5.31,4.92-8.73,9.18-11.51,3.88-2.54,8.28-.89,12.47-.77,5.73,1.68,7.79,6.16,8.27,11.49,.22,2.39,.53,4.76,.87,7.13,.5,3.49,3.35,5.02,6.69,3.69,1.52-.61,2.91-1.49,4.63-1.6,3.81-.25,4.6,.81,3.33,4.64-1.02-2.01-2.58-3.25-4.69-1.86-3.23,2.12-6.54,1.92-10,1.09-1.55,.82-2.08-.49-2.82-1.35-2.06-3.1-3.52-6.42-4.36-10.1-.97-4.22-3.92-5.72-8.1-4.47-6.44,1.92-10.29,6.27-11.84,12.75-.8,3.33-.92,6.83-2.55,9.95-.64,.33-.82,.92-.84,1.58Z"/><path class="cls-93" d="M575.18,157c-.13,0-.25,0-.38,0,1.24-3.05-1.96-3.83-2.95-5.74-1.24-2.37-2.44-4.71-2.09-7.52,.28-2.3-.61-3.68-3.13-3.6-.5-.86-1.22-.58-1.98-.46-3.92,.63-6.1-.34-7.49-3.9-.99-2.54-2.49-4.93-2.78-7.72,1.7-1.57-.4-2.07-.87-3.01-.44-.88-1.54-1.82-.82-2.7,.86-1.05,2.12-.33,3.14,.2,2.72,1.41,4.68,3.54,5.49,6.5,1.02,3.77,3.2,5.36,7.21,5.12,3.99-.23,5.9,1.57,5.78,5.35-.17,5.39,.14,10.17,5.4,13.59,2.11,1.38,2.37,4.62,2.34,7.39-.01,1.05-.07,2.65,1.78,1.89,3.55-1.46,2.95,.47,2.23,2.58-.33,.95-.69,1.9-1.04,2.85-.48,.37-1.02,.47-1.61,.39-2.11-.51-3.81-1.58-4.92-3.5-.54-1.33-.22-2.77-.46-4.11-.28-1.56-.13-3.81-2.85-3.58Z"/><path class="cls-93" d="M587.47,180.1c1.26-.7,.04-3.41,2.4-3.12,2.45,.3,4.15,1.85,5.22,4,2.37,4.74,1.94,9.7,1.21,14.76-1.19,8.22-4.74,15.69-7.16,23.52-1.23,3.99-1.94,8.09-2.53,12.21-.14,1.01-.08,2.29-1.35,2.37-1.28,.08-1.59-1.29-1.62-2.2-.19-7.44-.86-14.96,2.94-21.86,3.23-6.33,4.3-13.1,4.4-20.13,.05-3.7-.33-7.1-3.5-9.55Z"/><path class="cls-49" d="M570.62,162.35c-.25,3.08-.5,6.16-.74,9.24-1.42,4.71-1.41,9.42,.94,14.7-4.03-2.69-5.6-7.21-4.4-11.82,1.97-7.58,1.58-14.77-2.69-21.55-3.08-4.89-7.99-6.18-13.47-6.81,3.59-2.39,9.03-1.71,12.62,1.32,4.65,3.91,6.53,9.24,7.74,14.92Z"/><path class="cls-31" d="M554.37,128.05c1.77,1.93,2.5,4.34,3.31,6.76,1.29,3.87,3.24,4.82,7.23,3.82,1.3-.33,3.28-1.42,1.71,1.51-6.74,2.66-9.41,1.54-11.98-5.04-2.01-5.15-5.35-6.73-10.86-5.19-2.12,.59-3.98,1.66-5.75,2.9-1.75,1.23-3.42,2.58-5.14,3.88,.23-7.77,13.44-13.06,21.48-8.63Z"/><path class="cls-5" d="M565.86,205.96c-1.31,1.72-1.22,3.98-1.23,5.77-.05,8.09-4,15.03-6.02,22.52-.15,.56-.7,1.02-1.06,1.52-1.25,.5-1.56,.3-1.06-1.1,1.76-4.85,3.81-9.62,4.72-14.72,1.56-8.74,4.12-17.34,2.64-26.47-.81-4.96-.62-10.07-.88-15.12,4.65,6.63,4.03,14.15,3.42,21.57-.17,1.99-.2,4.03-.53,6.02Z"/><path class="cls-66" d="M535.36,142.43c-1.14,.02-2.29,.06-3.43,.06-8.85,.02-14.15,3.75-17.26,12.15-1.33,4.02-2.92,7.96-2.68,12.34,.05,1,.69,2.59-.69,2.95-1.41,.37-2.06-1.09-2.63-2.2-.24-.46-.27-.96-.15-1.46,1.94-2.55-.84-5.18,.15-7.75,.5,.26,1,.52,1.49,.77,1.87-3.98,2.31-8.47,5-12.2,2.93-4.06,7.21-6.29,11.01-9.17,.89,0,2.35-.1,2.38,.67,.16,4.57,3.63,2.7,5.87,3.24,.34,.08,.63,.39,.94,.59Z"/><path class="cls-48" d="M558.26,254.09c-2.05-4.36-.62-8.95,.41-12.94,2.39-9.24,5.96-18.17,8.04-27.54,2.04,6.48-.35,12.43-2.33,18.38-2.42,7.27-5.88,14.24-6.12,22.1Z"/><path class="cls-93" d="M579.71,220.49c-.26,0-.53-.01-.79-.02-1.23-1.56-.45-3.17-.05-4.72,.83-3.19,1.9-6.32,2.62-9.54,1.87-8.31,.93-16.36-2.22-24.23-.63-1.57-2.03-3.03-1.22-4.98,0,0,.19-.15,.19-.15,5.85,6.72,8.18,14.58,7.31,23.36-.7,7.1-4.04,13.47-5.85,20.27Z"/><path class="cls-64" d="M587.47,180.1c3.32,.16,4.04,2.87,4.36,5.21,1.1,8.08-.97,15.8-3.34,23.43-.21,.66-.65,1.85-1.91,1.04,.91-5.87,2.97-11.51,3.21-17.53,.17-4.29-.51-8.29-2.32-12.14Z"/><path class="cls-97" d="M526.17,137.93c-.05,1.59-1.45,2.04-2.45,2.64-6.04,3.65-9.91,8.85-11.7,15.66-.3,1.15-.33,2.61-1.86,3.07-.05-3.27,1.26-6.21,2.2-9.24,2.74-6.17,7.59-9.93,13.82-12.13Z"/><path class="cls-59" d="M566.71,212.07c-1.99-1.87,.31-3.17,.62-4.73,.6-4.23,1.73-8.39,1.66-12.71-.01-.92,.23-2.03,1.27-2.03,1.54,0,1.06,1.41,1.14,2.32,.55,6.29-.92,12.04-4.69,17.16Z"/><path class="cls-38" d="M583.48,167.66c.51,.05,1.02,.1,1.52,.15-1.9,3.48-4.51,4.4-8.3,2.94-.28-.76-.56-1.51-.85-2.27,.31-2.32,.6-4.64,.93-6.95,.25-1.8,.14-3.45-1.61-4.53,2.85-1.7,3.19,.92,3.59,2.42,.43,1.63,.11,3.46,.11,5.2-.13,3.54,1.94,3.74,4.61,3.03Z"/><path class="cls-55" d="M526.88,261.74c-1.61-.92-2.5-.54-3.01,1.34-.66,2.42-1.62,4.76-2.61,7.6-1.51-5.67-4.1-10.4-6.42-16.03,4.94,2.28,9.28,4.28,13.61,6.28-.6,.12-1.26,.12-1.57,.8Z"/><path class="cls-36" d="M542.85,278.31c.32,.74,.93,1,1.68,1.03-1.46,2.29-3.95,3.25-6.09,4.65-.31-.3-.61-.6-.92-.9,1.77-1.6,3.55-3.19,5.32-4.78Z"/><path class="cls-22" d="M514.79,173.79c.96-7.39,1.2-14.99,7.6-20.41,2.75-2.33,5.96-3.49,9.35-3.82,3.31-.32,5.75,1.79,6.35,4.9,.76,3.95,2.27,7.47,4.26,10.86-.2,1.98-1.33,1.41-2.44,.9q-4.52-4.05-10.54,1.57c-1.51,1.44-2.59,3.37-4.63,4.24-2.2,.86-4.42,1.69-6.59,2.61-.93,.39-1.05-.07-1.1-.77,2.52-4.37,3.53-9.47,6.8-13.5,3.15-3.88,6.93-5.05,11.2-3.14-3.62-2.64-8.27-1.79-11.57,2.27-2.02,2.48-3.42,5.31-4.24,8.44-.51,1.94-.97,3.99-3.07,5-.46,.28-.92,.57-1.38,.85Z"/><path class="cls-34" d="M516.17,172.94c2.55-4.23,2.83-9.45,6.04-13.46,1.58-1.97,3.42-3.46,5.63-4.38,4.42-1.84,7.3-.41,9.5,4.42-.59,.65-1.1,.31-1.6-.13-3.78-3.3-7.66-3.08-10.64,.94-1.79,2.41-3.65,4.8-4.38,7.93-.5,2.14-1.44,4.39-3.66,5.59-.29-.31-.59-.61-.88-.92Z"/><path class="cls-71" d="M548.48,169.19c2.4-.42,4.56-1.49,6.72-2.56,.57-.28,1.21-.6,1.77-.15,.67,.54,.18,1.19-.11,1.69-.99,1.75-1.04,3.63-.9,5.55,.08,1.08-.41,1.71-1.42,1.88-1.25,.21-1.59-.71-1.53-1.63,.34-5.33-2.63-3.53-5.26-2.49-.51-.18-1.05-.31-1.28-.9-.07-.36-.04-.72,.09-1.07,.54-.7,1.19-.73,1.92-.33Z"/><path class="cls-92" d="M548.48,169.19c-.65,.08-1.3,.17-1.65,.84-1.19,1.06-2.26,.49-3.28-.28-.66-.49-1.19-1.36-2.16-.54-.93-.78-1.34-1.81-1.48-2.98,.91-.03,1.87,.06,2.44-.9,.72,.53,.96,1.68,2.1,1.68,1.02,1.33,2.88,1.09,4.03,2.18Z"/><path class="cls-65" d="M546.89,170.87c.29,.2,.57,.41,.86,.61-2.28,.93-4.81,2.72-5.54-1.62,1.71-.35,3.15,.56,4.68,1.01Z"/><path class="cls-84" d="M546.89,170.87c-1.79,.72-3.13-.64-4.68-1.01-.27-.22-.55-.44-.82-.66,.26-.83-.16-2.86,1.66-1.03,1.07,1.08,2.14,2,3.78,1.85,.02,.28,.04,.56,.06,.85Z"/><path class="cls-15" d="M524.74,172.03c1.39-1.58,2.7-3.24,4.63-4.24-.92,2.1-1.99,4.02-4.63,4.24Z"/><path class="cls-26" d="M500.97,241.87c3.37,3.78,6.97,7.32,10.87,10.56,.47,.39,1.09,.93,1.15,1.46,.77,6.03,4.3,11.09,5.91,16.83,.44,1.58,0,1.52-1.13,.96-.78-1.06-1.95-.66-2.97-.81-1.49-3.3-.63-7.3-3.47-10.87,.29,2.91,.8,5.15,1.57,7.37,.39,1.12,1.37,2.28,.2,3.51-1.15,.01-2.29,.05-3.44,.03-1.01-.01-1.61-.25-1.44-1.57,1.04-8.39-2.78-15.5-6.03-22.79-.64-1.44-2.47-2.71-1.23-4.68Z"/><path class="cls-91" d="M513.11,270.89c-.96-3.36-1.97-6.71-2.86-10.1-.21-.79-.5-1.98,.48-2.37,1.19-.47,1.9,.66,2.2,1.55,1.21,3.52,2.79,7.01,1.88,10.9-.56,0-1.13,0-1.7,.01Z"/><path class="cls-73" d="M568.16,260.26c-.62-.58-1.01-1.4-.18-1.87,.77-.43,.92,.47,1.02,1.08-.28,.26-.56,.53-.84,.79Z"/><path class="cls-50" d="M578.05,177.01c6.48,11.77,6.96,23.95,2.6,36.51-.78,2.25-1.17,4.63-1.73,6.95-3.79,8.63-3.37,17.76-3.27,26.93-2.88-3.72-2.7-8.09-2.85-12.38,.85-9.01,4.05-17.47,6.3-26.14,2.72-10.47,1.87-20.56-2.71-30.37-.31-.66-1.52-1.42-.38-2.2,.69-.48,1.38,.37,2.04,.71Z"/><path class="cls-53" d="M472.78,176.81l1.43,.74c2.25,1.18,4.98-.13,7.17,1.35,2.44-.26,1.63-2.21,1.68-3.52,.12-3.17-.04-6.34,1.26-9.36,2.06-4.78,5.53-6.81,10.59-6.03,4.81,.74,9.37,5.29,9.62,9.59,.04,.76,.1,1.59-.76,1.96-.66,.29-1.22-.14-1.71-.53-1.2-.96-1.94-2.35-3.11-3.34-1.99-1.68-4.1-3.23-6.87-2.12-2.69,1.08-3.55,3.47-3.78,6.13-.19,2.15-.06,4.32-.11,6.47-.05,2.69-.76,5.09-3.31,6.42-2.42,1.26-4.08-.55-5.77-1.81-1.25-.93-2.58-1.57-4.06-2.01-1.59-.47-3.21-1-3.51-3.01,.15-.67,.44-1.15,1.25-.94Z"/><path class="cls-41" d="M481.09,179.96c-1.9-1.92-4.85-.84-6.88-2.41,5.22,.54,6.77,.65,5.89-7.54-.7-6.45,1.32-11.71,6.79-15.33,6.41-4.24,13.69-1.94,16.39,5.22,1.06,2.79,3.22,4.47,5.23,6.37,.82,1.08,1.64,2.17,2.95,3.9,.29-5.84,.08-11.08,3.21-15.52-1.8,5.77-1.56,11.96-3.74,17.65,0,0-.15,.13-.15,.13-1.36,.17-2.18-.71-2.77-1.67-2.28-3.67-5.62-6.51-7.76-10.34-2.32-4.15-7.56-5.15-11.63-2.48-3.89,2.55-5.7,6.29-5.8,10.96-.08,3.75,.7,7.66-1.71,11.06Z"/><path class="cls-75" d="M508.09,148.93c-3.4-3.69-7.77-3.11-12.43-2.61,4.02-4.41,10.46-2.96,12.43,2.61Z"/><path class="cls-83" d="M472.78,176.81c-.31,.33-.62,.65-.93,.98-.37,.41-.13,1.14-.75,1.41-.49,0-.99,0-1.48,0,.62-3.97,.9-4.18,3.16-2.39Z"/><path class="cls-66" d="M509.28,153.17c-.09,1.31,.54,2.74-.63,3.88,.08-1.31-.47-2.73,.63-3.88Z"/><path class="cls-22" d="M471.1,179.2c.25-.47,.5-.94,.75-1.41,3.37,2.58,7.53,3.66,11.07,6.11,2.2,1.53,3.73-1.84,4.12-4.03,.4-2.22,.18-4.56,.16-6.85-.02-3.78,.68-7.36,4.7-8.72,3.83-1.3,6.45,1.27,8.93,3.75,.96,.97,1.18,2.6,2.73,3.04,.03-5.41-4.38-10.07-9.74-10.31-5.65-.26-9.28,3.4-9.65,9.88-.15,2.54-.09,5.09-.01,7.64,.08,2.7-1.19,2.69-3.07,1.65,1.04-4.36,.59-8.8,.84-13.21,.46-8.32,9.25-13.75,16.08-10.11,1.53,.82,2.6,1.96,3.37,3.48,2.36,4.68,6.23,8.22,9.39,12.3,.63,.93,1.56,1.67,1.65,2.93,.1,1.53,0,2.69-2,1.66-.56-.29-1.15-.54-1.73-.79-6.09-2.63-11.56-2.69-15.4,3.8-.67,1.17-1.68,1.84-2.98,2.13-1.15,.79-2.25,1.66-3.46,2.33-1.41,.78-1.23,3.94-3.09,3.11-3.16-1.41-7.45-.31-9.56-3.91-.93-1.59-3.42-2.07-3.1-4.47Z"/><path class="cls-17" d="M490.31,182.14c.99-.71,1.98-1.42,2.98-2.13-.03,2.06-1.45,2.16-2.98,2.13Z"/><path class="cls-10" d="M529.95,208.95c-1.15,1.28-.65,2.84-.71,4.3-.03,.75,.71,1.93-.82,1.9-1.1-.02-1.22-.96-1.28-1.91-.18-2.79,.82-5.37,1.32-8.04,1.52-2.53,3.35-4.48,6.7-4,3.13,.45,4.37,2.84,5.42,5.31,.69,1.63,1.07,3.38,1.55,5.09,.24,.85,.61,1.84-.3,2.44-.45,.3-1.32,.41-1.79,.18-1.27-.61-.07-1.52-.05-2.3,.06-2.77-.11-5.47-3.05-6.78-3-1.34-5.12-.1-6.97,3.8Z"/><path class="cls-4" d="M524.01,241.16c2.48-.11,4.17-1.82,6.11-3.03,3.44-1.81,6.88-3.62,10.4-5.47-.41,5.43-4.58,10.69-9.23,12.47-3.22,1.23-5.28-.83-7.65-2.04-.9-.46,.26-1.26,.36-1.93Z"/><path class="cls-11" d="M500.93,218.9c-2.93-2.32-1.13-5.13-.72-7.73,.27-1.7,1.25-3.14,3.21-3.27,2.71-.19,4.15,1.59,5.23,3.73,1.03,2.03,2.04,4.07,1.98,6.44-.67-.02-1.52,.52-1.86-.58-.86-2.72-1.87-5.64-5.45-4.91-3.58,.74-1.66,4.17-2.4,6.32Z"/><path class="cls-95" d="M583.48,167.66c-1.38,1.03-2.96,2.48-4.59,1.27-1.39-1.03-.93-2.85-.01-4.3,1.54,1.01,3.07,2.02,4.61,3.03Z"/><path class="cls-46" d="M524.37,169.63c1.14-2.7,1.93-5.69,5.83-6.86-2.03,2.69-3.34,5.23-5.83,6.86Z"/></svg>