<?xml version="1.0" encoding="UTF-8"?><svg id="Layer_1" xmlns="http://www.w3.org/2000/svg" viewBox="0 0 1000 1000"><defs><style>.cls-1{fill:#f8d49d;}.cls-2{fill:#f8d39d;}.cls-3{fill:#f9f8f8;}.cls-4{fill:#f7d39d;}.cls-5{fill:#010101;}.cls-6{fill:#010201;}.cls-7{fill:#030302;}.cls-8{fill:#060809;}.cls-9{fill:#050404;}.cls-10{fill:#693534;}.cls-11{fill:#eae8e8;}.cls-12{fill:#e6e5e5;}.cls-13{fill:#656462;}.cls-14{fill:#7d3f3e;}.cls-15{fill:#854342;}.cls-16{fill:#874443;}.cls-17{fill:#927d5c;}.cls-18{fill:#8c4645;}.cls-19{fill:#8d3233;}.cls-20{fill:#8e3333;}.cls-21{fill:#917c5b;}.cls-22{fill:#8f3333;}.cls-23{fill:#8e4746;}.cls-24{fill:#8d4746;}.cls-25{fill:#bcbbbb;}.cls-26{fill:#a58e69;}.cls-27{fill:#a58d69;}.cls-28{fill:#a58e6a;}.cls-29{fill:#c6a87b;}.cls-30{fill:#150a0a;}.cls-31{fill:#140c0c;}.cls-32{fill:#17140e;}.cls-33{fill:#190d0c;}.cls-34{fill:#190e0e;}.cls-35{fill:#251818;}.cls-36{fill:#1f1111;}.cls-37{fill:#131719;}.cls-38{fill:#22211e;}.cls-39{fill:#211c14;}.cls-40{fill:#211212;}.cls-41{fill:#230f0e;}.cls-42{fill:#151a1c;}.cls-43{fill:#070706;}.cls-44{fill:#161212;}.cls-45{fill:#0d1417;}.cls-46{fill:#182329;}.cls-47{fill:#110a0a;}.cls-48{fill:#1e0d0d;}.cls-49{fill:#1c1212;}.cls-50{fill:#411b1b;}.cls-51{fill:#412221;}.cls-52{fill:#371c1c;}.cls-53{fill:#371d1c;}.cls-54{fill:#444;}.cls-55{fill:#443a2c;}.cls-56{fill:#361c1b;}.cls-57{fill:#19160f;}.cls-58{fill:#1b0f10;}.cls-59{fill:#191e21;}.cls-60{fill:#181d1d;}.cls-61{fill:#1a2126;}.cls-62{fill:#463c2d;}.cls-63{fill:#281616;}.cls-64{fill:#2a1716;}.cls-65{fill:#2a1616;}.cls-66{fill:#2a1212;}.cls-67{fill:#2a1c16;}.cls-68{fill:#2c261d;}.cls-69{fill:#564b38;}.cls-70{fill:#291615;}.cls-71{fill:#3a85a7;}.cls-72{fill:#3b2c2c;}.cls-73{fill:#3d201e;}.cls-74{fill:#272829;}.cls-75{fill:#391e1d;}.cls-76{fill:#574b39;}.cls-77{fill:#4d2726;}.cls-78{fill:#4b4131;}.cls-79{fill:#5f5f5f;}.cls-80{fill:#502927;}.cls-81{fill:#282218;}.cls-82{fill:#521f1d;}.cls-83{fill:#4f2827;}</style></defs><path class="cls-6" d="M477.73,648.72c-3.31-2.68-3.04-6.56-3.94-10.24-1.83-7.49-4.24-14.92-7.79-21.8-9.31-18.02-15.9-37.04-21.59-56.44-3.61-12.3-6.07-24.79-7.25-37.54-.15-1.66-.36-2.69-2.34-2.43-2.51,.33-2.63-1.37-2.52-3.16,.42-6.29,1.42-12.51,1.71-18.83,.52-11.1,1.71-22.17,4.21-33.04,1.14-4.97,3.29-9.6,5.6-14.08,5.39-10.44,8.75-21.5,11.07-33.47-3.72,.87-7.24,1.63-10.73,2.52-7.67,1.96-10.46,.82-14.24-6.13-2.17-3.98-3.05-8.36-2.92-12.81,.4-13.6-.09-27.25,.81-40.79,.77-11.54-1.62-22.69-1.8-34.03-.13-8.15,2.68-15.63,9.22-20.83,3.32-2.64,8.09-2.63,12.1-4.13,1.04-1.05,2.38-1.58,3.72-2.09,2.23-.63,4.02-2.2,6.2-2.94,1.55,0,3.11,.55,4.65-.1,.35-.11,.7-.17,1.06-.23,1.48-.14,2.95-.16,4.43,.06,.37,.06,.73,.14,1.09,.24,1.46,.49,3,.23,4.49,.45,1.2,.29,2.42,.55,2.89,1.93-.85,1.61-2.24,1.18-3.59,.99-2.34-.33-4.69-.73-6.91,.55-6.85,2.38-13.78,4.5-20.84,6.18-8.39,2-12.8,7.4-12.82,16.04-.02,9.54,.78,19.13,.44,28.6-.55,15.53-.09,31.05-.48,46.57-.1,3.98,.65,7.85,1.08,11.77,.36,3.32,2.12,4.92,5.39,5.3,6.8,.81,13.57,.24,20.1-1.34,12.02-2.9,24.34-4.27,36.28-7.43,10.34-2.73,20.67-5.43,31.11-7.74,1.96-.43,4.85-1.58,5.54,.47,.81,2.43-2.37,2.69-4.14,3.35-4.54,1.7-9.32,2.57-13.99,3.87-6.35,1.77-12.99,2.47-18.93,5.72-1.97,1.08-4.42,1.13-6.07,1.36,3.29-.4,7.22-.49,11.12,.19,9.1,1.58,18.29,.95,27.44,1.09,4.82,.08,9.64-.07,14.27,1.87,2.24,.94,4.81,.2,7.2,.58,.84,.27,1.82,.4,1.77,1.63-3.42,.37-6.53,2.57-10.29,1.19-2.39-.88-1.85,1.41-1.79,2.62,.99,20.35,7.18,39.66,11.54,59.35,1.86,8.4,2.57,17.18,2.13,26.04-.47,9.47-.19,18.95-2.37,28.26-4.43,18.86-10.43,37.29-15.32,56.01-5.7,21.81-13.34,42.99-19.73,64.56-1.61,5.44-.01,10.17,.89,15.04,5.36,28.78,11.11,57.49,15.17,86.51,1.38,9.86,3.3,19.68,7.36,28.91,.82,1.86,1.6,3.65,3.35,4.96,2.06,1.56,2.41,4.18,2.88,6.47,3.31,16.22,9.89,30.82,20.66,43.5,2.79,3.28,5.09,6.98,7.64,10.47,2.77,3.81,2.16,7.88,1.01,12.01-.34,1.22-1.25,1.84-2.34,2.32-7.36,3.26-14.97,4.44-22.94,2.96-2.99-.56-6.04-.84-9.01-1.52-7.68-1.76-12.13-5.7-12.12-13.44,.01-7.25-4.07-11.98-7.35-17.37-1.91-3.13-4.17-6.05-6.38-8.99-2.24-2.98-2.03-6.51-2.18-9.87-.37-8.11-.61-16.24,.88-24.3,.45-2.46,2.71-4.29,2.33-7.01-.36-.75,.1-1.01,.7-1.2,2.22,.55,1.95,2.48,2.01,4.02,.11,2.91,1.67,4.35,4.29,5.06,4.56,1.23,9.05,2.95,13.14-1.37,1.42-1.5,2.16-2.64,1.07-4.59-2.64-4.71-3.89-9.93-5.38-15.06-1.28-2.75-1.42-5.76-2.06-8.65-2.85-17.44-6.8-34.68-9.34-52.18-.39-2.65-1.09-5.23-1.55-7.86-2.61-15.01-5.7-29.93-7.99-44.99-.26-1.72-.47-3.48-1.29-5.29-1.61,1.9-.97,4.52-2.8,5.99-2.36-.82-1.44-2.91-1.76-4.53,.59-9.51,1.92-18.96,2.53-28.48,.11-1.67,.22-3.28-.32-4.9-3.37-9.98-4.45-20.21-4.66-30.76-.33-16.51-.76-33.05-2.63-49.51-.57-5.05-.86-10.13-1.68-15.16-.45-2.76-1.82-4.18-4.55-4.04-7.15,.36-14.22-1.08-21.35-.82-8.43,.31-16.69-1.86-25.13-1.56-5.01,.18-5.11,.32-4.19,5.33,3.27,17.81,8.13,35.21,13.59,52.46,3.2,10.11,7.51,19.77,12.05,29.3,4.63,9.74,8.15,19.76,10.09,30.34,.47,2.58,1.4,4.81,3.08,6.85,4.64,5.63,8.29,11.91,11.55,18.4,.81,1.6,2.23,3.99,.22,5.12-1.81,1.01-2.86-1.49-3.84-2.86-2.52-3.53-4.81-7.2-6.58-11.17-.43-2.47-2.37-4.13-3.38-6.29Z"/><path class="cls-7" d="M443.33,230.53c-1.97-4.27-1.91-8.98-1.96-13.42-.15-13.22-1.11-26.55,.93-39.64,3.08-19.75,14.43-33.48,32.9-41.05,7-2.87,14-1.63,20.31,2.36,2.86,1.81,4.78,1.78,7.49-.47,8.38-6.96,18.1-9.62,29.01-8.18,12.14,1.6,18.96,9.02,22.23,20.12,2.58,8.74,5.02,17.57,6.71,26.51,1.14,6.03,1.36,12.26,.68,18.54-.73,6.78-.35,13.68-1.82,20.42-.83,3.83-1.43,7.75-2.65,11.46-3.33,10.11-2.87,20.07-.2,30.26,3.62,13.85,3.22,27.61-2.88,40.83-.41,.88-.35,1.02,.17,1.55,2.64,2.66,5.24,5.36,7.86,8.05,.52,1.92-.58,1.59-1.71,1.23-.49-.24-.9-.59-1.25-1.01-1.03-1.49-2.46-2.46-4.12-3.14-2.4-1.47-5.04-1.29-7.38-.34-6,2.43-12,1.54-18.05,.58-1.88-.3-3.77-.64-5.62-1.09-5.1-1.24-10.05-2.1-15.18,.39-2.64,1.28-5.75,.49-8.65-.12-4.11-.86-8.22-1.79-12.47-1.07-2.2,.21-4.26-.47-6.32-1.03-1.04-.28-2.69-.62-2.5-1.84,.24-1.54,1.91-1.25,3.15-1.19,1.87,.48,3.75,.65,5.62-.04,2.53-.94,5.18-1.05,7.82-.76-2.93-.85-4.9-2.73-6.49-5.13-.13-.59-.06-1.15,.24-1.68,1.82-1.38,3.44-.28,4.91,.59,3.6,2.15,7.49,3.76,11.03,5.98,1.46,.91,2.71,1.23,4.11-.03,1.39-1.25,3.29-1.24,4.96-1.8,5.44-1.82,6.36-3.28,5.62-8.86-.04-4.69-.01-9.38-.04-14.45-1.82,1.71-3.59,3.11-5.61,4.12-3.36,1.73-6.82,3.2-10.59,3.71-1.7,.23-3.48,.66-5.05-1.03,.62-1.47,2.25-1.37,3.27-2.13,11.5-1.67,17.08-10.82,23.41-18.82,7.23-9.13,12.19-19.46,13.74-31.1,1.5-11.28,1.29-22.58-1.09-33.78-.45-2.13-1.66-3.41-3.97-3.33-1.41,.05-2.81,.04-4.06-.75-4.77-2.49-7.49-6.31-7.72-11.78-.06-1.44-.89-2.97-2.31-2.01-6.07,4.09-13.97,2.59-19.95,6.78-1.41,1.25-2.62,2.95-4.92,2.21-2.15-1.19-5.02-1.41-5.85-4.37,.14-.92,.76-1.26,1.61-1.31,1.01,.02,1.98,.36,3.45,.49-1.56-2.33-2.52-4.65-4.44-6.35-3.72-3.3-8.02-2.22-9.51,2.46-.62,1.95-1.16,3.9-2.39,5.57-.9,1.18-1.63,2.47-2.36,3.76-4.1,4.31-7.8,4.35-11.65,.15-1.52-2.15-2.65-4.6-4.69-6.37-1.68-1.3-2.38-3.41-3.96-4.79-.46-.71-1.47-1.27-.69-2.34,3.88-1.28,5.68,1.93,7.98,3.86,1.43,1.2,2.34,2.99,3.78,4.25,2.22,1.95,3.99,1.72,5.66-.72,.73-1.07,1.09-2.29,1.3-3.54,.29-1.76,.83-3.45,1.42-5.12,1.45-4.08,3.85-7.15,8.47-7.72,5.15-.63,9.09,1.24,12.02,5.58,1.33,1.98,1.14,4.61,3.01,6.24,1.35-1.73,2.07-3.75,2.79-5.77,2.92-8.37,7.62-15.39,15.32-20.12,4.54-2.79,9.36-3.85,14.52-2.14,4.66,1.54,7.32,4.85,7.82,9.75,.19,1.88,.77,3.73,.53,5.65-.32,6.08-1.9,11.94-3.24,17.84-.22,.99-.26,2.01-.19,3.02,.14,2.14,1.19,2.63,3.03,1.68,1.83-.95,3.2-2.46,4.65-3.87,1.46-1.42,2.96-2.77,5.03-3.25,1.24-.23,2.47-.26,3.69,.07,.61,.2,1.12,.55,1.54,1.03,1.1,1.47,1.74,3.07,1.48,4.95-.54,3.86-1.96,7.63-1.03,11.63,.12,.51-.46,.84-.95,1.04-2.85-.31-3.24-2.42-3.39-4.67-.08-1.14,.07-2.28,.17-3.42,.13-1.57,1.38-3.7-.31-4.55-1.54-.77-2.75,1.36-4.05,2.29-1.14,.81-2.27,1.64-3.31,2.57-.85,.76-1.33,1.74-.65,2.7,3.71,5.28,2.92,11.4,3.37,17.29,.04,.51,.02-.13,.06,.38,.27,2.12,.54,3.8,3.58,3.75,2.08-.03,2.26,2.39,2.34,4.22,.34,7.51-1.8,14.57-3.97,21.63-1.07,4.29-.67,8.61-.21,12.91,.41,1.54,.21,3.17,.72,4.69,.36,2.22,.63,4.46,2.03,6.35,.98,2.8,.24,5.83,1.12,8.65,.16,1.05,.17,2.07-.62,2.91-2.23-.26-2.14-2.19-2.52-3.67-.71-2.81-.83-5.77-2.28-8.38-4.65-11.53-3.21-23.19-.73-34.86,.57-2.69,1.09-5.38,1.22-8.15-1.37,11.81-4.69,23.21-7.26,34.76-.45,1.35-.54,2.77-.83,4.15-.8,2.92-.84,6.11-2.99,8.57-1.44-.07-1.49-1.21-1.71-2.21-.1-2.85,.83-5.5,1.63-8.18,.65-1.78,1.13-3.6,1.41-5.48-.17,.94-.46,1.85-.75,2.76-2.12,4.82-5.5,8.79-8.72,12.85-1.5,1.89-2.36,3.78-2.32,6.21,.08,4.81,.02,9.63,.03,14.44,0,1.26-.06,2.55,.71,3.66,1.79,1.43,3.89,.53,5.83,.76,.51-.01,1.04-.06,1.52,.07,3.16,.84,5.94,1.19,6-3.47,.01-.91,.58-2.13,1.94-1.87,1.23,.23,.91,1.39,.89,2.21-.02,.84,.35,1.75,0,2.26,.55-3.24-1.46-7.26,1.65-10.37,.31-.21,.65-.27,1.02-.2,2.16,3.43-.14,6.81-.14,10.22,0,1.42-.3,2.67,1.81,1.97,1.89,.38,1.71,3.82,4.42,2.96,2.28-.27,2.73-2.13,3.15-3.83,2.9-11.87,4.21-23.77,.58-35.77-1.4-4.63-2.07-9.41-2.09-14.26,.57-10.01,4.22-19.5,5.03-29.47,.61-9.37,1.78-18.72,1.5-28.13-.69-4.38-1.48-8.76-1.88-13.18-1.65-5.89-3.62-11.68-5.74-17.4-5.07-13.67-16.51-19.8-30.95-17.29-6.18,1.08-11.85,2.75-16.46,7.22-1.99,1.93-4.34,2.15-6.61,.51-10.44-7.58-20.17-4.1-29.19,2.41-11.12,8.03-18.75,18.67-20.65,32.61-.82,6.02-.28,12.18-1.06,18.25,.09,5.64-1.24,11.2-.78,16.85,.12,1.49,0,3.01,.5,4.45,.73,6.69,3.06,13.02,4.39,19.57,1.11,5.47,.04,10.82-.5,16.2-.13,1.29-.76,2.4-1.89,3.15-1.39,.5-2.74,.76-2.03-1.47,2.41-7.54,1.39-14.96-.76-22.32-.25-.87,.17-2.11-1.02-2.65Z"/><path class="cls-5" d="M499.31,737.29c.59,6.75-.98,13.34-1.79,19.95-1.1,9.05-2.22,18.09-2.22,27.2,0,2.51,2.75,4.47,2,7.55-.59,2.42-.23,5.06-.48,7.59-1.03,10.6,1.76,20.62,4.64,30.61,2.06,7.15,2.82,14.27,1.14,21.64-.66,2.9-2.03,4.24-4.86,5-8.35,2.24-16.5,1.71-24.69-.77-2.54-.77-3.26-2.56-3.66-4.76-1.14-6.19-.97-12.43,.35-18.51,1.39-6.42,1.43-12.85,1.13-19.29-.15-3.19,1.72-5.72,1.93-8.55,.55-7.47-.87-14.89-1.21-22.35-.07-1.47-1.93-3.98,1.65-4.1,.84-.41,1.62-.15,2.4,.19,4.03,2.43,8.28,4.34,12.88,5.44,4.07,.98,4.45,.73,4.48-3.35,.05-5.06,.02-10.12,0-15.18-.04-1.73,.54-3.36,.7-5.06-.37-6.87,1.1-13.58,1.83-20.34,.18-1.65,.32-4.81,3.76-2.92Z"/><path class="cls-1" d="M499.31,737.29c-2.03-.89-2.41,.51-2.57,1.96-.82,7.19-1.81,14.37-1.99,21.62-.82,.92-1.86,.82-2.8,.39-3.56-1.63-7.44-1.57-11.2-2.09-4.95-.68-5.1-.73-5.34-5.9,.74-7.18,1.43-14.38,2.56-21.49,1.55-9.68,.87-19.48,2.24-29.15,1.05-2.11-.17-4.83,1.77-6.71,1.9-.08,2.27,1.49,2.61,2.73,3,11.22,8.61,21.28,13.81,31.53,1.07,2.1,2.91,4.25,1.69,7-.26,.03-.52,.07-.78,.1Z"/><path class="cls-43" d="M481.27,702.16c-.79,13.73-1.62,27.46-3.4,41.11-.44,3.37-1,6.72-1.51,10.07-.99,3.55,1.18,7.25-.5,10.76-.07,.4-.18,.78-.3,1.17-1.09,1.73,.87,4.59-2.06,5.65-1.7-5.04-.26-10.08,.1-15.09,.88-11.96,1.85-23.91,3.05-35.84,1.03-10.27,.35-20.71,2.95-30.84,.17-.68,.09-1.53-.16-2.2-2.94-7.92-3.54-16.28-4.26-24.55-.4-4.6,.93-9.26,2.54-13.69,1.96,1.38,3.78,2.87,3.98,5.53-1.64-.52-2.62-.67-2.74,1.79-.46,9.17,1.01,18.14,3.84,26.69,3.4,10.25,6,20.81,10.51,30.66,3.33,7.28,7.4,14.22,10.05,21.82,3.02,8.64,6.21,17.21,7.85,26.26,.43,2.39,.74,4.77,.77,7.19,.68,2.67,.64,5.52,2.02,8.03,.68,3.13,2.16,6.18,.89,9.49-.33,.31-.67,.62-1,.93-2.85-8.73-4.65-17.68-6.15-26.74-1.34-8.07-4.17-15.76-7.66-23.18-1.17-4.45-3.27-8.55-5.55-12.45-5.28-9.06-8.77-18.8-11.95-28.7-1.63-.34-1.06,.94-1.13,1.63-.14,1.49,.16,3.01-.19,4.5Z"/><path class="cls-44" d="M443.33,230.53c2.43,2.69,3.04,6.27,3.14,9.46,.16,5.24,1.33,10.64-.95,15.83-.62,1.41,.82,.57,1.35,.68,.5,2.64-.87,4.94-1.41,7.37-1.49,6.73-2.46,13.46-2.39,20.39,.04,3.77,1.55,7.18,1.85,10.84-.2,.67-.47,1.26-1.34,1.1-4.69-7.32-4.22-15.48-3.54-23.55,.55-6.58,3.31-12.66,5.14-18.96,1.68-5.77,.96-11.78-.54-17.62-.47-1.84-.89-3.69-1.33-5.53Z"/><path class="cls-42" d="M549.88,418.43c-.56-.26-1.12-.52-1.67-.78,.5-1.93,2.36-1.65,3.67-2.24,5.09-2.27,9.6-5.43,9.34-13.19-.26-7.98,1.34-15.95,2.47-23.88,.19-1.33,.34-2.84,1.83-3.57,1.51,2.29,.77,4.74,.47,7.15,.09,8.63-1.43,17.11-2.38,25.64-.61,5.52-6.9,10.19-13.74,10.87Z"/><path class="cls-59" d="M565.99,381.93c-.42-2.32,.68-4.79-.73-7-1.33-1.2-1.1-2.75-.92-4.27,1.48-12.61,2.82-25.24,2.74-37.96,0-1.14,.07-2.29,.29-3.42,1.04-2.08-.21-4.78,1.75-6.62,1.26,2.64,.64,5.45,.6,8.16-.11,9.34-.18,18.69-.71,28.02-.29,5.13-1.38,10.23-2.27,15.32-.45,2.58,.59,5.29-.77,7.77Z"/><path class="cls-37" d="M569.14,322.66c-.57,2.09,.68,4.44-.9,6.39-1.53-1.88-1.54-4.27-2.02-6.46-.95-4.28-2.18-8.36-5.18-11.72-.6-.67-1.11-1.43-.59-2.4,.66,.06,1.58,.81,1.67-.63,4.8,3.78,6.43,9.05,7.02,14.82Z"/><path class="cls-74" d="M473.5,770.93c1.69-1.73-.42-4.39,1.5-6.06,1.82,4.85,1.94,9.68-.1,14.51-.55-.29-1.1-.58-1.66-.87,.08-2.52,.17-5.05,.25-7.57Z"/><path class="cls-72" d="M443.59,296.19c.28-.28,.57-.57,.85-.85,2.65,1.03,4.22,3.64,6.83,4.72-1.14,.94-2.51,1.27-3.93,1.42-.25-2.47-3.19-3.03-3.75-5.28Z"/><path class="cls-71" d="M560.44,308.47c5.37,5.81,7.02,13.03,7.79,20.58-.2,14.07-.71,28.12-2.87,42.06-.19,1.25-.08,2.54-.1,3.81-1.44,9.26-2.76,18.54-3.11,27.9-.27,7.1-3.45,11.66-10.35,13.78-1.19,.37-2.4,.7-3.6,1.05-4.03,.19-7.77-.62-11.73-1.64-5.59-1.43-11.77-.91-17.68-.7-12.19,.44-24.2-2.07-36.41-1.92,2.68-1.48,5.88-.8,8.54-1.94,12.24-5.24,25.54-6.77,38.04-11.06,.82-.28,1.74-.42,2.34-1.61-3.54-.62-6.69,.81-9.79,1.59-19.28,4.88-38.58,9.57-58.17,13.11-7.25,1.31-14.39,2.7-21.78,2.77-2.48,.02-4.74-.79-7.13-1.05-1.63-.17-1.83-1.45-2.15-2.73-.92-3.71-1.42-7.5-1.44-11.28-.07-14.5-1.09-29.01,.02-43.49,.89-11.7-1.1-23.31-.49-34.99,.37-7.1,4.56-16.12,13.92-17.43,7.12-1,13.91-3.68,20.76-5.92,4.81-1,9.37-.37,13.93,1.51,2.81,1.16,5.77,2.54,9.02,1.44,4.32-.93,8.51,.05,12.64,1.11,4.29,1.1,8.33,.56,12.08-1.54,1.51-.85,2.62-.68,4.18-.36,8.99,1.83,17.9,4.57,27.29,2.99,2.4-.4,4.92-1.01,7.07-1.64,2.77-.81,3.16,1.05,4.57,1.78,1.59,.71,2.64,2.08,3.93,3.16l.67,.65Z"/><path class="cls-71" d="M434.71,518.24c1.55-11.14,2.19-21.93,2.87-32.7,.74-11.8,3.43-22.99,8.73-33.58,4.2-8.41,8.18-16.93,9.93-26.28,.02-.12,.06-.25,.1-.37,1.01-2.45-1.11-6.19,1.55-7.46,3.69-1.77,7.94-2.65,12.2-2.4,13.16,.77,26.32,1.6,39.49,2.43,8.09,.51,16.18,1.1,24.28,1.56,2.59,.15,2.29,2.2,1.74,3.24-1.2,2.27-1.01,4.34-.32,6.58,.14,.47,.11,1.02,.03,1.52-1.85,11.41,1.95,22.01,4.53,32.82,3.75,15.68,6.43,31.52,6.44,47.71,0,1.88-.22,2.77-2.54,3.14-11.62,1.86-23.29,3.92-35.01,4.05-8.72,.1-17.52,0-26.26-.45-9.55-.51-19.1,.14-28.63-.42-6.33-.37-12.59-.8-19.13,.63Z"/><path class="cls-1" d="M511.05,769.15c-1.03-14.22-5.49-27.62-11.57-40.25-7.62-15.83-13.7-32.14-18.5-48.95-2.67-9.35-4.15-18.99-2.5-28.98,1.81,.41,1.81,2.58,3.23,3.26,2.8,5.23,5.79,10.33,10.14,15.41-.32-3.74-1.85-6.23-3.25-8.74-3.14-5.66-6.61-11.11-10.75-16.12-.79-.96-1.8-2.09-1.91-3.22-1.49-14.29-7.58-27-13.45-39.79-9.32-20.28-15.42-41.58-20.13-63.32-1.1-5.07-2.12-10.15-3.3-15.2-.49-2.1-.16-2.93,2.26-2.95,13.22-.13,26.34,1.44,39.51,2.07,3.81,.18,7.64,.09,11.45,.08,3.29,0,4.6,1.15,5.06,4.86,1.66,13.19,2.67,26.42,3.5,39.67,.63,10.01,.8,20.07,.62,30.1-.12,6.98,1.16,13.77,3.22,20.16,2.37,7.33,1.75,14.35,.96,21.6-.63,5.78-1.12,11.58-1.67,17.36-.75,1.64-.26,3.34-.23,5.02,0,.08-.31,.55,.14,.32,.28-.14,.46-.54,.76-.76,.48-3.22,1.05-6.42,2.77-9.62,1.83,2.87,1.99,5.86,2.28,8.67,.98,9.61,3.62,18.9,5.27,28.37,4.4,25.28,8.96,50.54,13.44,75.81,.09,.49-.03,1.01-.05,1.52-.62,.78-1.51,.93-2.4,.84-4.3-.46-8.28,.39-11.99,2.66-.84,.51-1.9,1.49-2.92,.11Z"/><path class="cls-1" d="M511.72,653.15c-.98-3.52-2.19-7.08-2.76-10.58-.67-4.12,.38-8.51,.7-12.79,.06-.74,.48-1.59,.24-2.2-5.2-13.5-5.16-27.76-5.6-41.83-.33-10.8-.85-21.6-1.2-32.39-.29-9.09-1.31-18.17-2.44-27.2-.36-2.86,.4-3.22,2.78-3.03,13.24,1.04,26.28-.96,39.31-2.83,1.58-.23,3.11-.81,5.06-1.34-.94,6.57-1.34,12.97-2.9,19.22-8.33,33.31-17.73,66.32-27.86,99.13-1.6,5.19-3.3,10.38-3.96,15.82-.44,.54-.89,.54-1.36,.03Z"/><path class="cls-23" d="M451.27,300.06c-3.66,.43-4.89-2.67-6.84-4.72-4.82-13.3-2-26.12,2.44-38.84,2.59-7.48,2.82-15.05,.71-22.67-1.42-5.12-2.99-10.21-3.28-15.56-.46-1.8-.51-3.59,.02-5.38,.54-.57,1.51,.8,2.06-.71,.96-2.66,1.88-5.26,1.62-8.14,.53-5.72,2.69-11.07,3.78-16.65,.29-2.6,2.02-4.14,4.34-5.53-4.42,1.32-6.41,4.59-8.16,8.19-.94,1.94-1.31,4.11-2.54,5.91-.31,.26-.63,.25-.95,.01,1.09-11.15-.21-22.66,5.98-32.96,5.08-8.46,11.36-15.58,19.97-20.51,8.48-4.86,17.11-6.64,25.66-.33,2.94,2.17,4.79,1.17,7.27-.76,10.93-8.49,22.92-9.41,35.41-4.01,5.08,2.2,8.6,6.34,10.86,11.35,3.09,6.84,5.24,14.03,7.21,21.27,.35,3.44-.19,3.9-3.09,2.7-1.06-.44-1.98-1.04-2.61-2.02-.95-2.13-1.95-3.96-4.73-2.02-.96,.67-2.18,.73-3.07-.42-.82-1.8,.11-3.44,.45-5.13,.8-1.78,.22-3.79,.94-5.57-.51-5.08-1.81-9.97-4.64-14.24-1.2-1.8-3.71-1.24-5.64-1.73-13.86-3.59-27.16,1.78-32.81,13.24-.62,1.26-1.16,2.53-1.38,3.92-.7,2.46-1.32,4.94-1.66,7.49-.78,3.32-.55,6.64-.04,9.97-.21,1.06-.69,1.98-1.46,.48-.74-1.44-.98-3.13-1.5-4.69-1.82-5.47-5.59-8.23-11.06-8.15-4.96,.07-7.78,2.51-9.45,8.31-.67,2.31-.93,4.77-1.82,6.98-1.63,4.05-4.76,4.55-7.82,1.55-2.43-2.38-4.18-5.37-7.21-7.23-1.3-.8-2.41-1.27-3.85-1.03-.7,1.59,1.27,.72,1.41,1.54,1.97,.91,1.97,3.41,3.68,4.53,2.69,2.82,3.3,5.73,1.63,9.56-1.86,4.27-3.22,8.79-4.84,13.18-2.46,6.66-3.76,13.38-3.2,20.45,0,1.77-.26,3.56,.31,5.3,.13,.39,.22,.78,.3,1.18,.95,6.1,2.4,12.11,3.12,18.25,.72,5.26-1.11,10-2.96,14.74-.96,2.48-2,4.94-2.34,7.61-1.29,8.29-1.72,16.46,3.25,23.89,.68,1.38,2.47,1.77,2.99,3.3,.03,.39-.08,.73-.35,1.02-1.72,1.66-3.83,2.56-6.11,3.11Z"/><path class="cls-17" d="M514.9,786.18c-.61-3.28-1.23-6.56-1.84-9.85,.09-1.89,1.64-1.61,2.77-1.75,2.02-.24,4.01,.14,5.95,.69,2.3,.65,4.42,.76,6.25-1.18,.79-.84,1.78-1.59,2.75-.09,1.44,5.53,3.16,10.95,5.86,16.02,.37,.7,1.28,1.24,.56,2.33-2.32,3.54-8.07,5.74-12.32,4.65-1.35-.35-2.72-.61-4.06-.99-3.13-.89-5.69-2.15-5-6.26,.19-1.11-.58-2.37-.91-3.57Z"/><path class="cls-69" d="M530.77,774c-.47-.04-1.27-.25-1.35-.09-2.1,4.14-5.43,3.11-8.81,2.25-2.51-.64-5.08-1.47-7.56,.17-1.32-2.21-1.19-4.83-2.01-7.18,2.53,.3,3.76-2.09,5.85-2.81,3.79-1.32,7.59-1.21,11.45-.79,.81,2.82,1.62,5.64,2.42,8.45Z"/><path class="cls-3" d="M489.44,293.23c2.21,1.81,4.41,3.63,6.62,5.44-4.65,.04-8.93,2.87-13.61,1.36-2.07-1.24-4.89,.7-6.73-1.57-.94-.28-1.88-.56-2.83-.84-1.5-.79-3.32,.3-4.77-.79l.06,.02c-1.82-.63-3.69-.15-5.54-.3-.92,.02-1.72-.13-1.74-1.31,.53-1.49,1.86-1.54,3.09-1.58,2.64-.08,5.18-.72,7.76-1.14,3.6,.35,7.09-.18,10.53-1.25,2.81-.88,5.28-.55,7.16,1.96Z"/><path class="cls-35" d="M472.07,293.21c-3.36,2.03-7.51,.17-10.87,2.2-.71,1,.56,1.06,.77,1.62-1.55,1.34-3.06,.65-4.58-.07,.01-.26,.03-.51,.04-.77,.49-1.66,1.9-2.41,3.21-3.26,5.18-2.18,5.07-2.16,4.31-7.83-.39-2.93-2-6.03,.28-8.98,1.64,.87,1.9,2.28,2.36,3.57,1.35,3.75,1.15,7.79,2.09,11.61-.84,1.19-.69,1.59,.84,1.18,.59-.16,1.17,.18,1.54,.73Z"/><path class="cls-61" d="M475.72,298.45c2.24,.54,4.71,.06,6.73,1.57-.98,0-1.95,0-2.93,0,2.7,1.59,5.51,2.31,8.49,2.31-3.05,1.7-5.96,.15-8.62-.83-4.69-1.73-9.38-2.55-14.33-2.12,2.25-1.78,4.78-.85,7.19-.63,1.21,.11,2.4,.97,3.47-.3Z"/><path class="cls-78" d="M504.65,660.8l-.77,2.76c-.06-2.47-1.18-4.94,.11-7.34,.4,1.5-.42,3.18,.66,4.58Z"/><path class="cls-79" d="M479.74,414.48c-1.39,.17-2.67,.5-4.22-.6,1.84-1.08,3.06-.97,4.22,.6Z"/><path class="cls-61" d="M462.79,296.22c1.78,.39,3.71-.55,5.39,.63-1.9,0-3.79-.02-5.69-.03-.07-.28,.03-.48,.3-.6Z"/><path class="cls-61" d="M468.12,296.82c1.59,.25,3.36-.54,4.77,.79-1.62-.11-3.41,.84-4.77-.79Z"/><path class="cls-13" d="M511.72,653.15c.45,0,.91-.02,1.36-.03,0,.83,.35,2.06-.91,1.99-.71-.04-.55-1.22-.44-1.96Z"/><path class="cls-25" d="M462.79,296.22c-.09,.2-.19,.4-.3,.6,0,0-.31,0-.31,0,0,0-.22,.21-.22,.21-.68-.3-1.83,.62-2.06-.64-.11-.6,.63-.94,1.29-.98,.53,.27,1.07,.54,1.6,.82Z"/><path class="cls-1" d="M494.99,184.38c2.81,2.07,2.48-2.39,4.43-2.12,1.54,.02,3.01-.43,4.51-.67,5.02-.81,9.83-.44,14.42,2.07,3.78,2.06,7.75,3.74,11.7,5.47,.93,.85,2.12,1.08,3.2,.73,3.78-1.23,5.22,.93,5.8,4.01,4.5,23.73,2.41,46.17-13.14,65.91-2.5,3.17-5,6.34-7.6,9.42-4.18,4.95-9.24,8.45-15.87,9.23-2.67,1.12-5.1,.67-7.44-.96-18.07-12.56-30.2-29.04-35.09-50.86-1.77-7.9-1.59-15.59-1.14-23.43,.07-1.29,.5-2.49,1.11-3.63,.68-.94,.95-2.07,1.45-3.09,1.67-3.41,3.65-6.36,8.14-6.35,1.88,0,3.76-.72,5.35-1.87,4.46-3.22,9.09-5.53,14.88-4.02,1.67,.44,3.54-.23,5.31,.18Z"/><path class="cls-20" d="M543.07,280.13c-1.98,4.24-1.46,8.93-2.19,13.43-1.1-2.3,.68-4.65-.67-7.04-1.52,.77-1.5,2.51-1.44,3.51,.2,3.53-1.45,3.63-4.09,2.81-1.19-.37-2.48-.38-3.73-.56-4.11-.68-4.73-1.5-4.14-6.09,.94-7.25,3.8-13.76,7.75-19.85,.78-2.85,1.55-5.69,2.33-8.54,.95-1.08-.11-2.57,.75-3.67,.44-6.67,2.84-12.92,4.15-19.41,.9-4.47,1.82-8.91,2.02-13.48,.04-.88-.07-1.88,.3-2.61,.56-1.08,1.44-2.63,2.71-2.23,1.37,.43,.42,1.88,.22,2.92-1.47,7.94-3.41,15.8-3.85,23.9-.35,6.38,.88,12.54,2.92,18.56,1.94,8.62,2.79,17.29,1.04,26.05-.32,1.6-.62,3.26-1.81,4.54-.59,.7-.49,2.32-1.9,1.88-1.36-.42-1.21-1.83-1.05-2.93,.52-3.73,1.44-7.41,1.4-11.21-.24-.19-.27-.38-.08-.6-.55-.15-.33,.49-.63,.6Z"/><path class="cls-9" d="M460.55,199.9c-2.97,11.61-.93,22.79,2.4,34.03,5.57,18.76,17.82,32.18,33.26,43.23,1.84,1.31,4.04,1.35,6.22,1.25-.55,1.36-1.99,.69-3.94,1.6,5.44,.3,9.47-.91,13.32-2.82,.8-.4,1.49-.93,2.44-.79-.07,1.82-1.46,2.59-2.79,3.28-6.01,3.1-11.97,3.8-17.84-.46-1.4-1.02-2.75-2.19-4.5-2.8-.56,1.36-.35,2.79-.83,4.08-.08,.74-.13,1.5-.39,2.19-1.24,3.32-1.42,6.43,1.59,8.98-.01,.52-.03,1.03-.04,1.55-3.98-2.9-7.93-.47-11.82,.21-1.95,.34-3.72,.42-5.55-.23-1.31-.06-2.62-.13-4.14-.2,.65-.58,1.14-1.02,1.63-1.47,.12-.12,.25-.24,.37-.37,.45-.27,.95-.43,1.45-.56,2.11-.76,4.24-1.47,6.33-2.31,.52-.15,1.02-.08,1.51,.11,.31,.11,.61,.25,.91,.39,.94,.36,1.8,.47,2.3-.68,1.09-4.34,1.44-8.75,1.69-13.19,.11-1.93-.88-3.01-2.22-4.11-5.73-4.71-10.33-10.42-14.41-16.21,.65,4.03,3.34,7.72,4.25,12.04-.11,.85-.47,1.48-1.4,1.62-1.63-.16-2.32-1.43-3-2.63-3.03-5.37-5.03-11.06-4.72-17.33,.09-1.84-.36-3.5-.93-5.18-1.89-5.41-4.69-10.54-5.3-16.37,.24-2.31-.4-4.51-.81-6.74-.18-.45-.44-.87-.44-.92,0,.68,.87,1.63,.73,2.79,.16,1.22,.85,2.45-.1,3.64-1.27,2.51,.31,4.67,.9,6.94,.48,1.84,1.28,3.59,1.72,5.45,.33,1.4,.54,2.83-1.32,3.42-2.74-3.75-2.75-8.34-3.87-12.59-.12-.47-.04-.99-.46-1.35v.02c-.9-1.7,.29-3.69-.71-5.39-1.39-10.1,2.52-19.11,5.8-28.25,1.19-3.32,2.55-6.59,3.73-9.92,.82-2.32-2.02-3.33-2.08-5.37,2.45,1.4,3.19,4.1,4.74,6.19-2.3,4.82-1.98,10.26-3.67,15.22Z"/><path class="cls-22" d="M500.37,178.51c5.15-11.09,9.74-21.71,21.46-26.64,3.72-1.56,7.29-1.37,10.45,1.05,3.08,2.37,3.05,6.06,2.61,9.39-.78,5.88-2.12,11.69-3.16,17.54-.42,2.38-.29,4.77,.64,7.17-4.51-.85-6.75-3.67-7.01-8.5-.37-6.99-2.55-8.25-8.92-5.13-2.6,1.27-5.05,2.47-8.24,2.22-2.48-.19-4.98,1.31-7.85,2.89Z"/><path class="cls-77" d="M551.51,170.01c.73,.89,1.71,1.33,2.71,1.87,2.46,1.34,2.75,.16,2.61-1.87,.72,4.37,1.44,8.74,2.16,13.1-2.04,3.85-2.71,8.08-3.57,12.27-.19,.9-.16,2.2-1.61,2.11-.68-.04-1-.68-.93-1.4-1.56-5.69,3.02-11.32,.19-17.02-1.56-2.69-4.02-1.45-5.96-1.05-7.24,1.5-9.99-.88-9.17-8.19,.2-1.75,.51-3.5,.51-5.27,.02-.38,.04-.76,.15-1.12,1.51-4.76,2.18-9.51-1.74-13.47-4.21-4.25-9.52-4.92-15.11-3.73-2.2,.47-4.39,1.19-6.43,2.24-5.51,1.77-10.87,3.75-14.03,9.15-.36,.62-.95,1.24-1.88,.91,1.98-9.31,8.46-14.4,16.82-17.44,6.04-2.19,12.27-2.82,18.45-.22-.2,.48-.57,.83-1.01,1.16,.27,.86,.92,.26,1.35,.31,.62,.07,1.26,0,1.89,.08,2.33,.29,4.16,1.39,4.91,3.64,1.21,3.66,2.72,7.23,3.5,11.02-.2,2.03,.55,4.18-.74,6.09-2.11,2.8-2.17,4.11-.32,6.8,2.18,1.08,4.2-.51,6.32-.4,.35,.03,.66,.16,.92,.4Z"/><path class="cls-77" d="M546.9,256.43c-1.49-1.31-.55-3.07-.86-4.6-.55-4.58-.57-9.17,0-13.75,1.91-6.79,4.05-13.53,3.88-20.72-.11-4.7-1.05-5.28-5.18-2.93-.44-1.84,.03-3.8-.86-5.53,2.25-2.64,4.88-3.97,8.35-2.45,1.38,1.9,.37,4.08,.71,5.91,.21-1.26-.47-2.88,.71-4.19,2.24-.08,2.88,1.37,3.08,3.23,.1,7.46-2.69,14.39-4.06,21.58-.24,1.25-.51,2.47-.51,3.74-1.74,9.53,1.56,18.52,2.89,27.73,1.31,9.07-.19,17.96-2.56,26.7-.49,1.82-1.45,3.55-3.32,4.46-2.77,.47-3.1-1.68-2.78-3.29,1.22-6.09,1.55-12.36,3.48-18.31,0-1.02,0-2.04,0-3.06-.52-1.55-.68-3.07,.51-4.54,1.67,4.68,.89,9.49,.77,13.34,.43-5.85,1.07-12.63-2.04-19.08-.6-1.24-.93-2.64-.85-4.08,0-.07-.18-.2-.29-.21-.1,0-.22,.1-.34,.17-.29,.13-.53,.08-.75-.13Z"/><path class="cls-27" d="M487.36,280.21c.82-1.86,.61-3.81-.13-6.96,8.95,8.25,17.56,11.4,27.02,3.16,2.03-1.67,4.07-3.35,6.54-5.38v16.76c-2.29-.63-1.5-2.57-1.66-4.05-.16-1.49,.01-2.99,.38-4.46-2.06,6.47-10.92,13.57-17.3,13.74-5.37,.14-11.82-4.75-14.05-10.7-.26-.7-.26-1.51-.79-2.11Z"/><path class="cls-23" d="M552.06,206.58c-3.04-.35-5.54,1.23-8.17,2.32-.32-4.18-.61-8.35-.97-12.52-.06-.73-.28-1.51-.65-2.14-2.88-4.92-2.88-4.9,1.51-8.2,1.42-1.07,2.76-2.23,4.19-3.28,.78-.58,1.57-1.59,2.67-1.02,1.29,.67,.82,2.03,.74,3.1-.16,2.15-.52,4.28-.76,6.42-.24,2.06,.33,3.78,2.25,4.85,.69,.84,1.5,1.93,1.65-.25,.23-3.5,1-6.88,2.25-10.14,.42-1.1,.49-2.57,2.21-2.59,.38,9.69-.64,19.3-1.52,28.93-.84,.45-1.03-.3-1.4-.74-.16-1.49-1.07-2.42-2.29-3.13-.64-.28-.8-.89-1.03-1.47-.09-.21,.09-.53-.24-.64,0,.28-.15,.45-.44,.52Z"/><path class="cls-4" d="M487.36,280.21c1.6,.09,1.43,1.6,1.94,2.51,5.74,10.44,14.29,12.35,23.63,4.03,2.65-2.36,4.79-5.15,6.76-8.43,1.12,3.3-.56,6.58,1.11,9.46,1.09,5.73-.46,7.94-6.8,9.75-1.85,.53-3.9,.35-5.14,2.57-.83,1.49-2.1,.17-3.21-.47-4.62-2.64-9.31-5.15-13.96-7.73-.72-.4-1.42-.48-2.19-.23-3.61-1.23-4.74-3.42-3.01-7.05,.63-1.31,.61-2.94,.88-4.42Z"/><path class="cls-50" d="M535.37,255.66c-.1,2.88-1.72,5.47-1.54,8.4-.19,4.72-3.16,8.44-4.55,12.72-1.29,3.95-2.49,7.95-2.35,12.2,.07,2.05-.36,3.68-3.03,2.61-1.57-2.85-.26-5.97-.8-8.89-1.89-10.21,2.15-18.29,8.8-25.57,1.16-1.27,1.82-3.01,2.71-4.54,1.99,.58,1.09,1.89,.77,3.06Z"/><path class="cls-24" d="M514.65,147.86c5.94-3.11,12.01-4.42,18.51-1.66,6.07,2.58,8.88,8.08,7.22,14.48-.35,1.35-.8,2.66-1.2,4-1.88-.27-.98-1.46-.79-2.41-.24-2.01-.43-4.03-.72-6.03-1.02-7.11-9.09-11.29-16.59-8.49-8.51,3.17-13.76,9.72-17.69,17.54-.73,1.46-1.16,3.08-1.72,4.63-2.03-.43-1.4-1.96-1.24-3.19,.48-3.9,1.86-7.53,3.42-11.1,1.32-2.85,4.02-4.02,6.57-5.39,1.43-.76,3.14-1.02,4.24-2.37Z"/><path class="cls-27" d="M460.55,199.9c-.51-4.54,1.06-8.84,1.61-13.25,.12-.93,.33-2.42,2.06-1.97,3.41,4.14,6.94,4.08,10.73-.16,2.48-1.5,5.09-2.76,7.56-4.28,2.36-1.45,4.76-1.41,6.85,.71,1.44,1.87,3.98,1.93,5.63,3.44-2.29,.95-4.82,1.51-7.07,.79-4.08-1.29-7.2,.36-10.26,2.48-3.2,2.21-6.53,3.65-10.51,3.85-3.17,.16-3.54,3.52-4.97,5.56-.59,.85-.51,2.2-1.63,2.84Z"/><path class="cls-28" d="M530.04,189.12c-3.43-.45-6.72-1.48-9.65-3.26-5.46-3.33-11.15-4.6-17.45-3.04-1.1,.27-2.53,.72-3.53-.56,2.98-2.31,6.23-3.65,10.12-3.51,3.3,.12,5.97-1.91,8.83-3.23,3.97-1.84,5.07-1.28,4.96,2.99-.13,5.14,2.8,8.13,6.7,10.61Z"/><path class="cls-23" d="M549.06,295.44c5.83-10.85,6.22-22.45,4.29-34.22-.9-5.46-2.15-10.89-2.6-16.4-.22-2.72,.42-5.52,.66-8.28,2.31,1.21,.79,3.1,.84,4.71,.33,5.08,1.12,10.07,2.55,14.96,3.73,12.78,1.81,25.32-1.45,37.85-.67,2.59-2.41,2.05-4.12,2.07-.3-.09-.43-.21-.38-.39,.05-.2,.12-.29,.2-.29Z"/><path class="cls-24" d="M538.38,162.27c.09,.86-.12,1.82,.79,2.41-.38,3.09-1.32,6.12-.36,9.32,.98,3.25,2.83,4.71,6.17,3.59,2.34-.78,4.71-.94,7.08-.52,.73,.13,2.53,.45,1,2.03-.28-.22-.57-.45-.85-.67-1.29-.59-2.59-.56-3.88-.01-1.91,.84-3.28,2.34-4.77,3.73-1.38,1.29-2.8,2.63-4.41,3.59-3.32,1.97-4.64,1.12-4.62-2.68,.02-2.96,1.06-5.71,1.59-8.57,.76-4.07,1.5-8.14,2.25-12.21Z"/><path class="cls-19" d="M477.32,181.47c.71-1.99,1.46-3.97,2.13-5.98,1.69-5.07,6.59-6.44,10.69-2.98,1.63,1.38,3.49,4.27,5.4,8.52-1.67-.34-3.26,.14-4.59-1.04-3.84-1.58-7.47-1.47-10.86,1.22-.75,.6-1.76,1.1-2.76,.26Z"/><path class="cls-11" d="M519.05,300.24c3.69-2.48,7.41-3.56,11.08-4,3.65-.43,6.83,2.18,10.26,3.32,.93,.31,.25,1.44-.59,1.48-6.79,.39-13.58,.57-20.76-.81Z"/><path class="cls-48" d="M549.06,295.44c.06,.23,.11,.46,.17,.68-3.2,.73-2.77-2.33-3.9-3.75,2.22-10.15,1.76-20.36,.77-30.59,1.75,2.57,1.59,5.65,2.28,8.5,.31,1.31,.46,2.7,1.5,3.72,.21,5.73-.92,11.25-2.61,16.7-.61,1.97-1.29,4.09,1.78,4.74Z"/><path class="cls-30" d="M523.89,291.59c1.53,.08,2.35-.5,2.31-2.18-.24-9.28,4-17.23,7.62-25.35,.04,.83-.14,1.72,.73,2.28,.03,2.85-1.82,4.96-2.95,7.33-2.03,4.28-3.32,8.74-3.92,13.43-.35,2.72,.26,4.65,3.26,5.18-2.35-.21-4.83,.81-7.05-.69Z"/><path class="cls-49" d="M547.51,256.47c.32-1.12-.48-2.52,.89-3.52,2.55,10.34,6.11,20.48,1.92,31.11,.73-5.58,.24-11.18,.35-17.59-1.09,1.92-.64,3.25-.78,4.48-1.36-2.7-.78-5.57-.76-8.39-1.27-1.83-1.7-3.89-1.62-6.09Z"/><path class="cls-83" d="M504.77,155.5c-1.37,3.85-2.87,7.66-3.55,11.72-.16,.96-.64,1.95,.45,2.69-1.03,2.1-2.07,4.2-3.1,6.3-2.42-3.2-1.62-6.64-.73-10.08,1.64,1.7,.41,3.57,.36,5.59,.84-3.69-.08-7.47,1.61-10.79,1.14-2.23,1.57-5.22,4.97-5.42Z"/><path class="cls-67" d="M477.32,181.47c1.39,.06,2.36-.92,3.27-1.65,3.56-2.87,6.95-2.81,10.35,.17-.7,.03-1.28,.27-1.58,.96-3.26-1.4-6.14-.65-8.8,1.53-1.62,1.32-3.47,2.1-5.61,2.04,.64-1.13,.96-2.51,2.37-3.05Z"/><path class="cls-14" d="M552.25,241.25c-.4-1.55,.57-3.34-.84-4.71,.33-4.83,2.01-9.37,3.15-14.01,.91-3.71,1.64-7.39,1.5-11.22,.47,.25,.93,.49,1.4,.74-.31,6.19-1.97,12.16-3.42,18.12-.9,3.68-.66,7.49-1.8,11.08Z"/><path class="cls-10" d="M445.1,212.89c-1.44,1.62-.36,3.61-.8,5.37-1.46-4.65-.81-9.44-.47-14.1,.2-2.71,.31-5.47,.64-8.19,.21,.01,.42,.02,.63,.02,2,5.63,2.01,11.27,0,16.9Z"/><path class="cls-48" d="M546.05,238.08c0,4.58,0,9.17,0,13.75-1.22-4.58-1.23-9.17,0-13.75Z"/><path class="cls-54" d="M547.51,256.47c1.07,1.89,1.31,4,1.62,6.09-2.5-1.4-2.46-3.73-2.24-6.13,.21,0,.41,.02,.62,.04Z"/><path class="cls-30" d="M535.37,255.66c-.12-1.05,.37-2.26-.77-3.06,.31-1.05,.62-2.1,1.03-3.51,1.99,2.57,.68,4.56-.26,6.57Z"/><path class="cls-37" d="M559.77,307.82c-1.73-.53-2.78-1.9-3.93-3.16,2.12,.05,3.12,1.49,3.93,3.16Z"/><path class="cls-75" d="M455.8,173.96c-.9-.42-2.01,1.14-2.66-.1-.42-.8,.48-1.25,1.26-1.44,.47,.51,.94,1.02,1.41,1.54Z"/><path class="cls-58" d="M543.07,280.13c-.02-1.01-.09-2.04,.97-2.7,1.02,1.02,.02,1.82-.26,2.69-.24,0-.47,0-.71,0Z"/><path class="cls-77" d="M548.33,178.4c1.3-1.04,2.59-1.07,3.88,.01-1.29,0-2.59,0-3.88-.01Z"/><path class="cls-30" d="M537.63,254.14c-.21,1.23,.5,2.65-.75,3.67,.18-1.24-.48-2.65,.75-3.67Z"/><path class="cls-21" d="M474.9,779.37c.03-4.84,.07-9.67,.1-14.51,0,0,.09,.07,.09,.07,1.81-1.23,3.01,.46,4.44,.96,1.06,.37,2.09,.92,3.05,1.51,3.72,2.32,7.18,3.1,10.03-1.3,.27-.41,.8-.6,1.34-.36,.04,5.96,.03,11.93,.13,17.89,.04,2.05-.65,2.7-2.72,2.27-5.87-1.24-11.47-3.11-16.46-6.53Z"/><path class="cls-76" d="M493.95,765.75c-5.96,7.1-4.74,5.66-11.7,2.44-2.38-1.1-4.78-2.18-7.17-3.26,.72-3.83-.03-7.82,1.28-11.59-.55,3.51,.91,4.82,4.49,4.83,4.75,.01,9.41,1.04,13.89,2.7-.27,1.63-.53,3.26-.8,4.88Z"/><path class="cls-29" d="M481.27,702.16c.04-2.14,.06-4.28,.13-6.42,.02-.65,.15-1.36,1.04-.79,.2,.13,.11,.71,.15,1.08-1.59,1.8,.38,4.36-1.32,6.13Z"/><path class="cls-8" d="M524.68,378.03c-4.08,2.85-8.99,2.08-13.5,2.87-11.34,1.99-22.92,2.04-34.33,3.74-5.13,.76-9.27,3.94-14.46,4.47-3.4,.35-6.82-.11-10.22,.71-1.79,.43-2.65-1.45-2.9-2.94-.86-5.16-2.78-10.02-4.03-15.05-1.55-6.23,3.87-11.04,11.36-10.66,.69-10.84-5.29-20.74-4.71-31.65,1.61-.13,2,1,2.23,1.87,2.17,8.46,4.97,16.95,4.5,25.71-.2,3.75,1.18,5.56,3.1,8.12,3.72,4.95,6.79,10.38,9.48,16,.58,1.21,.89,2.38,2.97,1.87,13.71-3.34,27.77-4.05,41.75-5.39,2.65-.25,5.28-.84,7.96-.51,.82-.26,.99,.11,.81,.83Z"/><path class="cls-45" d="M531.68,375.05c.89-2.86,4.02-2.61,5.85-4.18,1.02-.87,2.28-1.22,2.4-3.05,.37-5.85,2.18-11.54,1.81-17.5-.25-4.01-.36-8.05,.4-12.04,.14-.74,.11-1.55,1.79-2.04,1.03,10.72,.14,21.09-1.99,31.59,1.17,.8,2.83-1.08,4.08,.35,.37,1.02,.01,1.87-.62,2.65-4.22,2.07-8.43,4.19-13.25,4.53-.16-.11-.31-.22-.47-.33Z"/><path class="cls-42" d="M545.3,370.21c.24-.67,.49-1.35,.73-2.02,5.35,3.07,8.37,10.99,6.56,16.78-.43,1.39-.17,2.98-.32,4.48-.19,1.84-.05,3.89-2.36,4.67-.32-.25-.55-.57-.68-.96-.39-1.39,0-2.71,.34-4.03,.71-6.79-.4-13.17-4.27-18.92Z"/><path class="cls-60" d="M524.68,378.03c-.27-.28-.54-.55-.81-.83,2.34-1.68,5.05-2.01,7.81-2.15,0,0,.02,.04,.02,.04,2.53,2.26,2.29,5.45,2.72,8.37,.63,4.33,.82,8.69,.64,13.07-.14,.17-.28,.34-.42,.5-2.87,1.01-2.47-1.2-2.45-2.67,.06-3.81-.12-7.59-.77-11.34q-1.01-5.87-6.73-4.99Z"/><path class="cls-38" d="M541.57,395.32c-1.69,.13-3.06,1.02-4.45,1.88-.84,.51-1.75,1.24-2.48-.17,0,0-.03,.05-.03,.05,3.1-4.26,7.62-6.78,11.95-9.47,1.3-.81,3.3-1.13,3.67,1.46-1.65,3.11-4.83,4.34-7.58,6.11-.35,.13-.71,.17-1.08,.14Z"/><path class="cls-46" d="M541.57,395.32l.57-.5c2.59-.48,4.78-2.83,7.73-1.62,.01,.3,.03,.6,.04,.9-1.68,2.12-4.41,2.28-6.6,3.44-1,.53-2.46,1.8-3.4,.54-1.14-1.53,1.7-1.45,1.67-2.77Z"/><path class="cls-77" d="M457.37,241.13c1.27-2.12-.31-3.88-.79-5.75-.79-3.04-2.23-5.89-2.48-9.1-.07-.9,.25-1.1,.96-1.17,.9,.31,1.88,.49,2.3,1.51,.58,5.78,3.48,10.81,5.27,16.2,.86,8.42-.98,16.18-4.77,23.78-3.16,6.34-1.96,13.13,.03,19.71,.77,2.55,2.11,4.9,2.54,7.56-1,.77-2,1.54-3,2.31-.75-1.1-2.41-1.05-2.98-2.38,.63-1.24-.19-2.23-.63-3.23-3.57-8.26-3.72-16.53-.17-24.83,.95-2.22,1.78-4.48,2.65-7.21-1.13,2.74-1.86,5.14-3.03,7.34-.61,1.16-.89,2.76-2.72,2.8,.07-2.84,1.29-5.35,2.32-7.9,1.85-4.58,3.46-9.19,2.91-14.25,1.01-1.66-.09-3.93,1.57-5.4Z"/><path class="cls-77" d="M490.99,147.12c1.47,1.81,2.92,3.63,3.28,6.97-3.92-3.3-7.66-4.88-12.02-3.68-5.22,1.44-8.32,5.6-11.69,9.37-1.68,1.88-2.99,4.13-4.78,5.88-2.5,2.45-5.41,4.45-9.11,2.41-1.26-.7-2.29-.25-3.44,.06-.32-1.27,.36-2.03,.99-2.8,1.03-.28,1.18-1.71,2.35-1.82,2.78-.27,5.13-1.53,6.81-3.65,3.28-4.17,7.35-7.57,10.8-11.57,5.46-2.51,11.11-2.3,16.83-1.17Z"/><path class="cls-80" d="M445.1,212.89c0-5.63,0-11.27,0-16.9,.84-4.74,2.66-9.05,6.11-12.44,1.88-1.85,4.16-3.25,7.52-2.54-2.05,2.22-5.56,2.52-5.93,5.83-.61,.67-.43,1.73-1.17,2.33-2.02,3.04-2.82,6.37-2.43,10,.1,1.76-1.22,3.44-.26,5.24,.99,4.23-2.26,7.31-2.49,11.39-1.71-.9-1.09-2.04-1.35-2.91Z"/><path class="cls-47" d="M450.57,268.67c3.11-3.78,3.37-9.11,6.8-12.75,.15,3.14-1,5.92-2.2,8.59-3.98,8.85-4.32,17.62-.05,26.45,.51,1.04,1.64,2.39-.67,2.85-5.7-7.7-5.75-16.27-3.88-25.13Z"/><path class="cls-33" d="M466.43,171.45c1.17-2.67,2.22-5.39,3.52-7.99,4.19-8.37,15.85-11.6,22.7-6.35,1.31,1,2.54,2.08,2.66,3.9-.9,.81-1.4,0-1.96-.42-7.88-5.79-18.72-3.01-22.6,5.9-.92,2.11-2.01,4.07-3.43,5.85-.74,.15-1.08-.1-.89-.89Z"/><path class="cls-34" d="M504.77,155.5c-3.7,2.68-4.81,6.69-5.28,10.87-.23,2-.47,3.95-1.67,5.86,0-2.03,0-4.07,0-6.1,0-2.64,.64-5.13,1.59-7.57,3.43-5.92,8.7-9.21,15.24-10.7-.08,1.84-1.76,1.96-2.89,2.6-2.51,1.44-5.26,2.52-6.98,5.04Z"/><path class="cls-40" d="M545.32,157.12c-1.62-2.86-2.64-5.96-3.69-9.05-1.4-4.13-3.41-5.34-7.63-4.73-.96,.14-2.36,1.48-2.79-.19-.32-1.24,1.43-1.47,2.37-1.99,.32-.17,.73-.18,1.1-.26,5.72,.08,6.52,.83,8.46,6.16,1.16,3.18,1.49,6.62,3.34,9.61,.58,.95-.72,.36-1.16,.45Z"/><path class="cls-63" d="M490.99,147.12c-1.09,1.29-2.27,.4-3.49,.25-4.57-.56-9.08-.45-13.29,1.76-3.11,2.13-6.2,4.28-9.92,5.26-.6-.18-1.06-.46-.83-1.21,6.08-5.16,13.16-7.58,21.07-7.72,2.3-.04,4.52,.29,6.46,1.66Z"/><path class="cls-65" d="M457.37,241.13c.02,1.96,.24,3.98-1.57,5.4-1.02-6.38-2.04-12.76-3.06-19.15,1.54,4.58,3.09,9.16,4.63,13.74Z"/><path class="cls-53" d="M463.46,153.18c.31,.29,.63,.58,.94,.87-1.56,4.14-5.26,6.56-7.89,9.85-1,.11-.49,2.65-2.31,1.44,1.84-5,5.14-8.89,9.25-12.16Z"/><path class="cls-64" d="M448.93,204.41c-1.42-1.79-.66-3.58,0-5.37-.64-3.89,.78-7.31,2.44-10.67,.48-.51,.95-1.02,1.43-1.53-.59,6.01-3.4,11.53-3.87,17.57Z"/><path class="cls-31" d="M543.78,170.8c-2.12-1.02-1.65-2.99-1.44-4.62,.22-1.65,.67-3.27,.22-4.99,1.72-.03,1.79,1.07,2.02,2.02-.24,1.7-.49,3.4-.73,5.09,.27,.85,1.84,.45,1.65,1.73-.4,.65-.87,1.14-1.72,.77Z"/><path class="cls-56" d="M545.29,169.97c-.48-.55-.95-1.11-1.43-1.67,.9,.26,1.72,.11,2.44-.49,3.14-2.59,4.55-1.07,5.21,2.2-.27,0-.53,0-.8,0-1.79-1.63-3.63,1.21-5.43-.05Z"/><path class="cls-65" d="M452.03,222.02c1.45,1.63,.5,3.59,.72,5.39-1.3-1.65-.53-3.58-.72-5.39Z"/><path class="cls-51" d="M466.43,171.45c.3,.3,.59,.59,.89,.89-.56,.65-1.11,1.29-1.82,2.11-.84-1.63,.08-2.3,.93-3Z"/><path class="cls-23" d="M460.42,293.87c-2.39-.5-1.8-2.85-2.39-4.28-3.76-9.16-4.53-18.27,.54-27.41,2.47-4.44,3.63-9.42,3.39-14.64-.07-1.55-.7-3.31,.65-4.71,2.13,3.87,.3,8.21,1.56,12.26,1.44,4.62,2.83,9.16,6.06,12.89,4.82,3.47,6.28,8.88,7.94,14.09,.65,2.04,1.6,4.36-.08,6.5-1.78,2.08-4.58,1.76-6.76,2.92-1.31-.7-1.52-2.08-1.62-3.26-.58-7.01-3.13-13.47-5.27-19.27,.57,3.04,2.73,6.33,3.38,10.12-.17,.59-.42,1.08-1.16,1-.37-1.03-.74-2.05-1.33-3.66-1.04,3.25,.21,5.72,.48,8.2,.78,6.93,.89,6.92-5.42,9.26Z"/><path class="cls-15" d="M466.69,280.07c.21-.24,.42-.47,.62-.71,2.25,.57,1.45,2.61,1.71,3.96,.51,2.69,1.97,5.4,.54,8.23,0,0,0-.02,0-.02-1.75-.08-1.55-1.4-1.5-2.51,.15-3.09-.71-6.01-1.37-8.97Z"/><path class="cls-28" d="M487.33,214.99c-4.82,2.82-9.55-.15-14.31-.35-1.19-.05-1.78-1.82-1.83-3.09-.11-2.9-.41-5.84,.7-8.65,.79-.41,1.37,.03,1.95,.49,4.27,2.88,8.04,6.41,12.2,9.45,.71,.52,1.38,1.12,1.28,2.15Z"/><path class="cls-26" d="M532.99,197.55c3.16,1.13,3.39,3.12,2.15,6-1.49,3.45-4.01,5.87-7.06,7.68-3.83,2.26-6.79,6.24-11.82,6.22,5.25-6.1,9.56-12.93,14.76-19.06,.49-.58,1.08-1.1,1.97-.83Z"/><path class="cls-32" d="M532.99,197.55c-4.63,4.95-8.27,10.66-12.29,16.07-1.23,1.66-2.55,3.03-4.45,3.83-4.95-1.71-6.47-6.49-9.3-10.17,1.87-.29,2.6,1.16,3.62,2.06,1.14,1,2.25,2.06,3.23,3.21,1.71,2.04,2.9,2.18,4.55-.29,3.03-4.5,6.41-8.77,9.7-13.09,.91-1.2,1.88-2.47,3.11-3.29,2.26-1.51,2.22-.01,1.82,1.66Z"/><path class="cls-57" d="M487.33,214.99c-4.67-3.73-9.34-7.46-14.01-11.19-.13-.88,.23-1.25,1.12-1.04,5.27,2.6,9.71,6.44,14.51,9.73,1.86,1.28,2.65,1.15,3.84-.61,1.76-2.59,3.3-5.44,6.73-7.43-1.41,5.09-4.04,8.89-7.3,12.12-1.92,1.9-3.24-1.02-4.89-1.58Z"/><path class="cls-68" d="M499.99,241.4c-1.59-.59-2.42-2.07-3.58-3.14-1.6-1.49-2-2.87-.12-4.75,2.49-2.49,3.29-6.02,4.79-9.21,.88,2.61-.18,5.14-1.43,7.04-2.01,3.07-2.15,5.54,.28,8.24,.4,.45,.58,1.13,.06,1.82Z"/><path class="cls-81" d="M526.14,219.88c-1.24,1.44-1.66,3.84-4.04,4.05-1.41,.12-1.92-1.42-1.9-2.4,.04-2.15,1.69-2.88,3.61-3.03,1.02-.08,2.08-.11,2.34,1.38Z"/><path class="cls-62" d="M498.2,258.74c2.01-2.69,4.92-2.48,7.5-3.22,.74-.22,1.62-.42,1.89,.57,.32,1.21-.79,1.58-1.58,1.71-2.59,.41-5.2,.65-7.81,.95Z"/><path class="cls-39" d="M485.19,220.42c-.52,1.25-.58,3.2-2.55,3.11-1.92-.09-1.61-2.08-1.81-3.31-.19-1.17,.48-2.19,1.96-2.23,1.6-.04,2.31,.79,2.4,2.42Z"/><path class="cls-55" d="M474.44,202.76c-.37,.35-.75,.69-1.12,1.04-.47-.3-.95-.6-1.42-.89,0-.53-1.08-1.15-.21-1.51,1.22-.5,2.01,.54,2.75,1.37Z"/><path class="cls-50" d="M471.13,266.37c-2.31-4.62-4.37-9.33-4.99-14.65,2.99,3.23,5.35,6.96,8.29,10.22,2.03,2.24,3.77,5.11,6.27,6.5,5.47,3.04,4.54,7.66,4.05,12.31-.3,2.87-.91,5.7-1.39,8.55-1.27,.6-2.54,.58-3.82,.01h0c-1.21-5.28-1.98-10.69-4.69-15.54-1.35-2.4-3.24-4.55-3.72-7.39Z"/><path class="cls-35" d="M469.56,291.55c-.28-4.15-.94-8.23-2.24-12.2-.99-4.63-4.18-8.67-3.48-13.75,3.26,8.4,6.67,16.76,7.52,25.88-.6,.02-1.2,.05-1.79,.07Z"/><path class="cls-36" d="M471.13,266.37c4.84,6.9,8.6,14.19,8.41,22.93-.48-.24-.96-.49-1.44-.73,.02-7.87-3.64-14.34-7.86-20.59,.68-.32,.87-.92,.88-1.61Z"/><path class="cls-65" d="M457.36,226.62c-.77-.5-1.53-1.01-2.3-1.51,1.4-1.02,.4-2.07,.03-3.1,.75-.6,0-1.7,.77-2.3,1.14,2.17,1,4.61,1.49,6.91Z"/><path class="cls-73" d="M455.86,219.71c-.06,.83,.13,1.75-.77,2.3,.23-1.86-1.54-3.57-.42-5.55,1.71,.63,.97,2.12,1.2,3.25Z"/><path class="cls-36" d="M479.54,289.3c1.27,0,2.55,0,3.82-.01-1.27,1.16-2.54,1.14-3.82,.01Z"/><path class="cls-41" d="M532.24,163.76c-3.97-8.77-6.98-9.3-13.98-2.9-1.96,1.8-3.85,3.7-5.56,5.74-1.58,1.87-2.62,4.19-4.71,5.65,3.35-6.99,7.36-13.45,14.77-16.92,5.35-2.5,8.46-.82,9.47,5.01,.15,.86,.02,1.76,.02,3.43Z"/><path class="cls-66" d="M514.76,168.54c1.99-1.76,3.93-3.59,6.57-4.38,4.48-1.34,7.17,.59,7.24,5.23,.02,1.27-.03,2.53-.03,3.8,0,2.77,0,5.55,0,8.96-2.34-2.57-1.45-5.02-1.45-7.29,0-.86,.51-1.72,.51-2.58,0-2.09,.64-4.43-1.42-5.99-2.23-1.7-4.38-.33-6.42,.52-1.5,.63-2.83,1.65-4.24,2.49-.76,.25-.92-.1-.76-.77Z"/><path class="cls-82" d="M514.76,168.54c.25,.26,.51,.51,.76,.77-.65,.9-1.18,1.97-2.78,2.02-.12-1.57,.93-2.19,2.01-2.79Z"/><path class="cls-16" d="M545.29,169.97c.81,.08,1.5-.23,2.01-.8,1.73-1.96,2.66-.94,3.42,.85-2.24,.92-4.44,2.17-6.94,.78,.5-.28,1.01-.55,1.51-.83Z"/><path class="cls-70" d="M552.06,206.58c.09-.57,.17-1.13,.42-2.72,.63,2.1,.96,3.21,1.3,4.32-.33,2.64,.37,5.4-.79,7.98-1.29-3.13-.51-6.41-.93-9.58Z"/><path class="cls-52" d="M545.87,195.73c1.51,3.08,2.73,6.19,2.78,9.63-1.74-2.98-3.09-6.08-2.78-9.63Z"/><path class="cls-2" d="M455.11,387.21c-2.31,1.39-2.85-.75-3.46-2.32-1.83-4.71-2.38-9.79-4.12-14.56-.74-2.05,.13-4.88,2.09-6.02,2.84-1.66,6.07-1.58,8.82,.74,2.78,2.35,4.45,5.47,5.9,8.73,.77,1.73,1.51,3.49,2.32,5.2q2.54,5.35-3.09,6.84c-2.68,.7-5.38,1.38-8.45,1.4Z"/><path class="cls-2" d="M550.07,389.28c-1.49-3.47-3.47-1.13-4.71-.07-3.4,2.9-7.21,5.21-10.75,7.88-1.18-7.3-.47-14.85-2.9-21.99,4.61-1.4,9.19-2.91,13.59-4.88,.63-.1,1.37-1.02,1.84,.18,2.37,6.07,4.29,12.22,3.3,18.88-.11,.43-.24,.45-.37,0Z"/><path class="cls-12" d="M550.07,389.28c.13,.09,.25,.09,.37,0-.19,1.31-.38,2.63-.58,3.94-2.55,.65-4.95,2.03-7.73,1.62,2.64-1.85,5.29-3.7,7.93-5.55Z"/><path class="cls-18" d="M456.52,163.9c1.49-4.19,5.14-6.65,7.88-9.85,3.14-1.91,6.08-4.19,9.81-4.92-4.11,4.76-8.18,9.58-12.98,13.67-1.27,1.08-2.8,2.21-4.71,1.1Z"/><path class="cls-14" d="M451.37,188.37c-.81,3.56-1.63,7.11-2.44,10.67-1.76-4.14-.16-7.52,2.44-10.67Z"/></svg>